<svg xmlns="http://www.w3.org/2000/svg" xmlns:xlink="http://www.w3.org/1999/xlink" width="145" height="145" viewBox="0 0 145 145">
  <defs>
    <clipPath id="clip-path">
      <rect id="Rectángulo_400938" data-name="Rectángulo 400938" width="145" height="145" transform="translate(0 -0.281)" fill="none"/>
    </clipPath>
    <clipPath id="clip-path-2">
      <rect id="Rectángulo_401073" data-name="Rectángulo 401073" width="110.228" height="49.642" fill="#7d3a1b"/>
    </clipPath>
    <clipPath id="clip-path-3">
      <rect id="Rectángulo_402117" data-name="Rectángulo 402117" width="70.376" height="70.375" fill="#6a4d23"/>
    </clipPath>
  </defs>
  <g id="img4" transform="translate(-1148 -1174)">
    <g id="Grupo_1099960" data-name="Grupo 1099960" transform="translate(973 -8366.719)">
      <g id="Grupo_1099404" data-name="Grupo 1099404" transform="translate(175 9541)">
        <g id="Grupo_1099379" data-name="Grupo 1099379" transform="translate(0 0)">
          <rect id="Rectángulo_401103" data-name="Rectángulo 401103" width="145" height="145" transform="translate(0 -0.281)" fill="none"/>
          <g id="Grupo_1099348" data-name="Grupo 1099348" transform="translate(0.045 0.045)">
            <g id="Grupo_1099282" data-name="Grupo 1099282">
              <g id="Grupo_1099281" data-name="Grupo 1099281" clip-path="url(#clip-path-2)">
                <path id="Trazado_873375" data-name="Trazado 873375" d="M89.413,10.879c-4.947,0-7.506-2.426-9.765-4.567C77.431,4.213,75.522,2.4,71.529,2.4s-5.9,1.814-8.118,3.913c-2.259,2.141-4.814,4.567-9.765,4.567S46.14,8.453,43.881,6.312C41.664,4.213,39.755,2.4,35.763,2.4s-5.9,1.814-8.114,3.913c-2.259,2.141-4.818,4.567-9.765,4.567s-7.51-2.426-9.769-4.567C5.9,4.213,3.993,2.4,0,2.4V0C4.947,0,7.506,2.43,9.765,4.567c2.217,2.1,4.126,3.913,8.118,3.913S23.785,6.67,26,4.571C28.253,2.43,30.816,0,35.763,0s7.51,2.43,9.765,4.567c2.217,2.1,4.126,3.913,8.118,3.913s5.9-1.81,8.118-3.913C64.019,2.43,66.582,0,71.529,0s7.51,2.43,9.765,4.567c2.217,2.1,4.126,3.913,8.118,3.913s5.9-1.81,8.118-3.913C99.786,2.43,102.345,0,107.3,0V2.4c-3.993,0-5.9,1.814-8.118,3.913-2.259,2.141-4.818,4.567-9.765,4.567" transform="translate(2.932 38.763)" fill="#7d3a1b"/>
                <path id="Trazado_873376" data-name="Trazado 873376" d="M89.413,10.879c-4.947,0-7.51-2.426-9.765-4.571C77.431,4.209,75.522,2.4,71.529,2.4s-5.9,1.81-8.118,3.909c-2.255,2.145-4.814,4.571-9.765,4.571s-7.51-2.426-9.765-4.571C41.664,4.209,39.755,2.4,35.763,2.4s-5.9,1.814-8.115,3.909c-2.259,2.145-4.818,4.571-9.765,4.571s-7.51-2.426-9.769-4.571C5.9,4.209,3.993,2.4,0,2.4V0C4.947,0,7.51,2.426,9.765,4.567c2.217,2.1,4.126,3.913,8.118,3.913S23.785,6.67,26,4.567C28.253,2.426,30.816,0,35.763,0s7.51,2.426,9.769,4.567c2.213,2.1,4.122,3.913,8.115,3.913s5.9-1.81,8.118-3.913C64.019,2.426,66.582,0,71.529,0s7.51,2.426,9.765,4.567c2.217,2.1,4.126,3.913,8.118,3.913s5.9-1.81,8.118-3.913C99.79,2.426,102.349,0,107.3,0V2.4c-3.993,0-5.905,1.814-8.122,3.909-2.259,2.145-4.818,4.571-9.765,4.571" transform="translate(1.955 25.842)" fill="#7d3a1b"/>
                <path id="Trazado_873377" data-name="Trazado 873377" d="M89.412,10.879c-4.947,0-7.51-2.426-9.765-4.571C77.431,4.209,75.522,2.4,71.529,2.4s-5.9,1.81-8.118,3.909c-2.255,2.145-4.818,4.571-9.765,4.571s-7.51-2.426-9.765-4.571C41.664,4.209,39.755,2.4,35.763,2.4s-5.9,1.814-8.115,3.909c-2.259,2.145-4.818,4.571-9.765,4.571s-7.51-2.426-9.769-4.571C5.9,4.209,3.993,2.4,0,2.4V0C4.947,0,7.51,2.426,9.765,4.567c2.213,2.1,4.126,3.913,8.118,3.913S23.785,6.67,26,4.567C28.253,2.426,30.816,0,35.763,0s7.51,2.426,9.769,4.567c2.213,2.1,4.122,3.913,8.115,3.913s5.9-1.81,8.118-3.913C64.019,2.426,66.582,0,71.529,0s7.51,2.426,9.765,4.567c2.217,2.1,4.126,3.913,8.118,3.913s5.9-1.81,8.118-3.913C99.79,2.426,102.345,0,107.3,0V2.4c-3.993,0-5.905,1.814-8.122,3.909-2.259,2.145-4.818,4.571-9.765,4.571" transform="translate(0.977 12.921)" fill="#7d3a1b"/>
                <path id="Trazado_873378" data-name="Trazado 873378" d="M89.413,10.875c-4.947,0-7.506-2.426-9.765-4.567C77.431,4.209,75.522,2.4,71.529,2.4s-5.9,1.81-8.115,3.909c-2.259,2.141-4.818,4.567-9.769,4.567S46.14,8.449,43.881,6.308C41.664,4.209,39.755,2.4,35.763,2.4s-5.9,1.81-8.115,3.905c-2.255,2.145-4.818,4.571-9.765,4.571s-7.51-2.426-9.769-4.567C5.9,4.209,3.993,2.4,0,2.4V0C4.947,0,7.51,2.426,9.765,4.567c2.217,2.1,4.126,3.909,8.118,3.909s5.9-1.81,8.115-3.909C28.257,2.426,30.816,0,35.763,0s7.506,2.426,9.769,4.567c2.213,2.1,4.122,3.909,8.115,3.909s5.9-1.81,8.118-3.909C64.023,2.426,66.582,0,71.529,0s7.506,2.426,9.765,4.567c2.217,2.1,4.126,3.909,8.118,3.909s5.9-1.81,8.118-3.909C99.79,2.426,102.349,0,107.3,0V2.4c-4,0-5.905,1.81-8.122,3.909-2.259,2.141-4.818,4.567-9.765,4.567" transform="translate(0 0.004)" fill="#7d3a1b"/>
              </g>
            </g>
          </g>
          <path id="Trazado_873425" data-name="Trazado 873425" d="M60.362,0A60.362,60.362,0,1,1,0,60.362,60.362,60.362,0,0,1,60.362,0Z" transform="translate(17.974 21.56)" fill="#efb499"/>
          <circle id="Elipse_11503" data-name="Elipse 11503" cx="63" cy="63" r="63" transform="translate(9 9.719)" fill="#fef7eb"/>
        </g>
      </g>
    </g>
    <g id="Grupo_1100302" data-name="Grupo 1100302" transform="translate(1185.312 1208.89)">
      <g id="Grupo_1100301" data-name="Grupo 1100301" clip-path="url(#clip-path-3)">
        <path id="Trazado_873706" data-name="Trazado 873706" d="M24.969,38.875c0-2.071.028-4.143-.016-6.214-.015-.7.184-.89.886-.9,2.533-.019,2.44-.052,2.56-2.6A6.517,6.517,0,0,0,26,23.612,13.379,13.379,0,0,1,22.8,7.966,13.71,13.71,0,0,1,36.422.077,13.559,13.559,0,0,1,48.505,10.848a12.794,12.794,0,0,1-3.979,12.584,7,7,0,0,0-2.565,6.057c.145,2.276.032,2.321,2.315,2.276.856-.017,1.178.171,1.142,1.1a46.3,46.3,0,0,0,.165,6.053c.625-1.871,1.33-3.721,1.845-5.622A1.762,1.762,0,0,1,49.5,31.749c6.577.074,13.156.05,19.733.017.859,0,1.183.174,1.138,1.1-.122,2.483.165,4.983-.459,7.443a14.725,14.725,0,0,1-7.731,9.835,1.594,1.594,0,0,0-.934,1.682c0,.84.605.827,1.087,1.052a12.946,12.946,0,0,1,8,11.9c.071,1.585-.016,3.176.027,4.762.018.652-.2.836-.835.825-2.079-.035-4.158-.013-6.237-.013H1.6c-1.584,0-1.608,0-1.579-1.637.043-2.41-.226-4.838.465-7.211a12.954,12.954,0,0,1,7.687-8.672c.493-.211.987-.3.937-1.043-.044-.649-.013-1.167-.751-1.56-5.63-3-8.349-7.759-8.344-14.111,0-1.21.021-2.42-.008-3.629-.013-.529.149-.788.7-.714a.572.572,0,0,0,.113,0c.822-.052,1.894.349,2.4-.162.559-.56.182-1.649.184-2.5q.027-7.939,0-15.878A4.1,4.1,0,0,1,3.873,11.3Q6.209,6.7,8.48,2.079a3.047,3.047,0,0,1,5.743-.029q2.353,4.773,4.765,9.518a3.458,3.458,0,0,1,.32,1.639c-.007,5.822.014,11.644-.023,17.465-.005.869.192,1.165,1.109,1.135,1.969-.065,1.974-.012,2.634,1.917.591,1.728,1.172,3.46,1.757,5.19l.184-.041M37.674,25.189c-.017.378-.061.757-.042,1.132.018.347-.326.983.41.893.605-.074,1.562.562,1.771-.544a8.222,8.222,0,0,1,2.892-4.593,10.95,10.95,0,0,0,3.521-10.987,11.288,11.288,0,0,0-9.96-8.749,11.427,11.427,0,0,0-11.355,6.5,11.17,11.17,0,0,0,2.411,12.914c1.51,1.428,2.848,2.867,3.264,5.016.187.963,1.138.349,1.729.447.638.106.449-.439.428-.78-.157-2.6-.333-5.2-.484-7.8-.089-1.531-.073-1.532-1.6-1.595a3.41,3.41,0,1,1,.384-6.8,3.448,3.448,0,0,1,3.171,3.518c.042.745.2,1.031,1.018,1.04.853.009.88-.411.9-1.033a4.438,4.438,0,0,1,.261-1.326,3.494,3.494,0,0,1,4.579-1.968,3.427,3.427,0,0,1,1.907,4.407c-.544,1.408-1.765,2.139-3.632,2.159-.569.006-1.1-.11-1.135.8-.1,2.453-.29,4.9-.444,7.353m-2.492,8.871c-2.341,0-4.683.031-7.023-.018-.765-.016-.937.243-.93.961.034,3.4,0,6.8.021,10.194a4.52,4.52,0,0,0,4.7,4.718q3.228.036,6.457,0a4.516,4.516,0,0,0,4.7-4.717c.025-3.4-.023-6.8.027-10.194.013-.853-.313-.973-1.048-.96-2.3.041-4.606.015-6.909.015M54.452,68.085c2,0,4.005-.024,6.007.014.651.012.839-.2.824-.835-.039-1.624.034-3.251-.032-4.873-.036-.869.2-1.122,1.1-1.154,1.055-.037,1.309.325,1.205,1.278a12.682,12.682,0,0,0-.008,2.038c.061,1.154-.523,2.808.239,3.332.853.587,2.394.161,3.635.2.488.017.672-.154.656-.649-.032-1.019.047-2.045-.036-3.059a10.747,10.747,0,0,0-6.286-9.275,2.784,2.784,0,0,0-2.78-.07c-.895.477-1.883.774-2.805,1.2a13.977,13.977,0,0,0-8.354,10.933c-.14.834.15.934.85.922,1.926-.034,3.853-.012,5.78-.012M15.893,54.474c0-.68,0-1.169,0-1.659,0-1.626,0-1.671-1.59-1.724-1.119-.038-.586-.827-.662-1.307-.082-.515-.134-1.061.741-1,1.052.072,2.113.036,3.17.011a2.72,2.72,0,0,0,2.872-2.828,21.756,21.756,0,0,0-.008-2.49,1.366,1.366,0,0,1,.956-1.544c1.31-.6,1.553-1.271,1.11-2.659-.481-1.507-1.021-3-1.486-4.507a.841.841,0,0,0-.948-.717q-3.963.038-7.927,0c-.6-.006-.784.182-.768.773.037,1.32-.022,2.643.024,3.963.024.7-.128,1.059-.917.959a1.121,1.121,0,0,0-1.27.734,1.289,1.289,0,0,0,.327,1.455,9.927,9.927,0,0,0,.964.956,2.378,2.378,0,0,1,.9,2.166c-.064,2.225-.026,4.454-.016,6.681,0,.386-.136.811.424,1.029,1.327.516,2.631,1.091,4.1,1.708m38.577-.008c1.35-.564,2.578-1.117,3.838-1.584a.948.948,0,0,0,.7-1.083c-.032-1.774.089-3.556-.04-5.321-.132-1.807.165-3.327,1.747-4.428a1.257,1.257,0,0,0,.476-1.514,1.154,1.154,0,0,0-1.343-.792c-.733.087-.887-.23-.864-.9.046-1.357-.006-2.718.022-4.076.011-.532-.155-.723-.7-.719-2.68.022-5.361.014-8.041.006-.415,0-.694.071-.841.543-.527,1.69-1.114,3.361-1.653,5.047a1.5,1.5,0,0,0,.77,2.022c1.427.479,1.495,1.461,1.4,2.648a14.6,14.6,0,0,0,0,1.585A2.74,2.74,0,0,0,52.862,48.8c1.057.021,2.116.047,3.17-.008.788-.042.8.452.686.932s.515,1.282-.595,1.365c-1.655.124-1.653.15-1.653,1.781,0,.486,0,.971,0,1.6M40.338,65.935c-1.62-1.673-3.052-3.111-4.431-4.6-.522-.563-.866-.633-1.427-.031C33.3,62.576,32.045,63.783,30.8,65c-.221.216-.4.684-.768.5-.19-.093-.241-.522-.305-.811-.546-2.466-1.094-4.932-1.612-7.4-.156-.744-.383-1.021-1.177-.6a13.279,13.279,0,0,0-3.966,3.146,1.038,1.038,0,0,0-.1,1.4A14.3,14.3,0,0,1,24.8,67.09c.065.707.26,1.023,1.082,1.017,6.2-.04,12.391-.032,18.587-.008.683,0,1.014-.147,1.077-.888a14.318,14.318,0,0,1,1.987-6.078.972.972,0,0,0-.137-1.3,12.264,12.264,0,0,0-4.057-3.2c-.623-.306-.919-.232-1.058.5-.275,1.444-.61,2.877-.928,4.313-.307,1.383-.624,2.764-1.015,4.491M15.88,68.084c2,0,4.007-.015,6.009.009.589.007.761-.13.675-.772a14.753,14.753,0,0,0-2.778-6.728c-.583-.813-.89-.714-1.221.156-.2.526-.528,1-.748,1.522s-.468.56-.935.265a35.757,35.757,0,0,0-3.89-2.316c-1.968-.915-3.221-2.243-3.345-4.48-.051-.928-.525-.908-1.2-.552a10.742,10.742,0,0,0-6.148,9.943c-.017.937-.3,2.147.171,2.739.5.638,1.767.138,2.7.211.3.024.608-.026.906.009.611.072.771-.2.761-.776C6.8,65.577,6.874,63.835,6.8,62.1c-.046-1.041.607-.811,1.172-.819.586-.008,1.2-.169,1.147.846-.083,1.659.023,3.327-.042,4.987-.032.822.251,1.009,1.023.988,1.926-.053,3.855-.017,5.782-.018m9.089-26.751c-.413.63-.612,1.257-1.038,1.522-1.22.759-1.258,1.846-1.247,3.091A4.84,4.84,0,0,1,18.868,50.9c-.308.09-.722.066-.694.567.123,2.144-.785,4.6,1.826,6a1.866,1.866,0,0,1,.555.561c.322.436.574.471.96.027a13.364,13.364,0,0,1,7.771-4.512c.644-.122.683-.633.816-1.087.174-.594-.382-.56-.676-.683a6.747,6.747,0,0,1-4.456-6.7c-.01-1.189,0-2.379,0-3.734m20.426.169c0,1.19.006,2.38,0,3.571a6.8,6.8,0,0,1-4.459,6.692c-.295.125-.848.093-.674.685.134.454.175.965.819,1.084a13.233,13.233,0,0,1,7.771,4.5c.289.332.466.472.886.089,2.445-2.227,2.457-2.213,2.457-5.513a4.834,4.834,0,0,1,0-.679c.09-.636-.143-.906-.8-1.071a4.831,4.831,0,0,1-3.734-4.671c-.024-.565-.023-1.132-.023-1.7,0-.348-.009-.665-.367-.877A6.024,6.024,0,0,1,45.395,41.5M10.221,22.67c0-2.717-.022-5.434.015-8.15.009-.685-.166-.946-.881-.893a14.808,14.808,0,0,1-2.488,0c-.918-.088-1.214.175-1.2,1.151.056,4.489.009,8.98.036,13.47.007,1.153-.518,2.732.233,3.342.714.58,2.233.125,3.392.213.8.06.914-.295.906-.98-.032-2.716-.013-5.433-.013-8.15m6.807.04c0-1.849.031-3.7-.011-5.546-.026-1.152.528-2.8-.236-3.327-.854-.586-2.393-.159-3.632-.2-.485-.017-.658.151-.657.646q.019,8.433,0,16.866c0,.5.183.655.662.643.98-.025,1.965-.051,2.942.008.737.044.962-.19.951-.939-.043-2.716-.017-5.433-.017-8.15M61.277,47.859a1.476,1.476,0,0,0,.374-.03,5.965,5.965,0,0,0,.586-.339c4.611-3.1,6.157-7.584,5.843-12.915-.023-.4-.185-.517-.552-.515-1.885.007-3.77,0-5.656,0-.257,0-.572-.035-.577.353-.013.98-.053,1.963.011,2.939.037.566.716.587,1.05.925a3.689,3.689,0,0,1,1.025,1.594,3.373,3.373,0,0,1-.986,3.712,3.012,3.012,0,0,0-1.125,2.866,12.6,12.6,0,0,1,.008,1.407M9,48.011c.2-1.9.221-3.413-1.292-4.763a3.263,3.263,0,0,1,.4-4.976,2.024,2.024,0,0,0,.987-2.132,7.625,7.625,0,0,1,0-1.356c.036-.516-.121-.741-.687-.732q-2.714.043-5.429,0c-.555-.009-.707.2-.7.724a24,24,0,0,0,.226,4.284A12.8,12.8,0,0,0,9,48.011m7.11-36.647c.013-.151.049-.239.022-.3C14.779,8.337,13.445,5.6,12.053,2.886c-.4-.784-1-.764-1.418.039C9.307,5.5,8.033,8.1,6.73,10.693c-.211.419-.285.682.356.678,3.009-.016,6.019-.007,9.023-.007M35.249,52.2a7.352,7.352,0,0,1-1.353-.014c-1.114-.212-1.521.348-1.758,1.329a.977.977,0,0,0,.262,1.093c.758.733,1.51,1.472,2.228,2.243.393.421.685.464,1.092.017A15.084,15.084,0,0,1,37.64,54.96c.879-.669.6-1.356.342-2.174-.283-.9-.96-.51-1.491-.576a10.017,10.017,0,0,0-1.241-.01M35.23,31.784c1.243,0,2.488-.054,3.727.018.87.051.821-.48.742-1-.074-.48.448-1.3-.669-1.288-2.561.021-5.121.026-7.682,0-1.113-.012-.618.79-.686,1.274-.072.512-.144,1.055.728,1.011,1.277-.064,2.56-.017,3.84-.016m-23.2,23.6c.039,1.027.19,1.819,1.165,2.295.909.444,1.743,1.041,2.625,1.543.311.177.693.655.98-.037.208-.5.778-.964-.054-1.514a21.225,21.225,0,0,0-4.716-2.288M35.043,26.3l.276,0c.181-2.884.354-5.769.55-8.652.037-.542-.232-.6-.674-.62-.533-.019-.739.145-.7.706.2,2.853.368,5.709.548,8.564M31.362,61.45c.759-.862,1.293-1.485,1.846-2.088.214-.233.273-.421.028-.666-.963-.961-1.918-1.93-2.876-2.9l-.233.162,1.235,5.488m8.866-5.505-.329-.217c-.912.977-1.82,1.957-2.738,2.928-.212.224-.292.417-.039.666.509.5,1.006,1.01,1.508,1.517.261.263.463.231.546-.139.356-1.584.7-3.17,1.05-4.755m-9.08-41.179c.41.018.91.1.833-.706-.08-.839-.3-1.522-1.281-1.533a1.031,1.031,0,0,0-1.152,1.118c.033.928.706,1.15,1.6,1.12m8.089,0c.846.056,1.559-.166,1.576-1.156a1.03,1.03,0,0,0-1.191-1.079c-.981.042-1.174.743-1.24,1.575-.058.726.375.691.855.66" transform="translate(0 0)" fill="#6a4d23"/>
        <path id="Trazado_873707" data-name="Trazado 873707" d="M230.566,25.653c-.514-1.923.419-3.131,1.954-4.1a20.06,20.06,0,0,0,1.954-1.548,4.282,4.282,0,0,0,1.442-5.061,4.462,4.462,0,0,0-4.83-2.59,4.273,4.273,0,0,0-3.852,3.447c-.076.347.146.908-.272,1.008a4.265,4.265,0,0,1-1.8.016c-.512-.1-.257-.641-.223-.967a6.5,6.5,0,0,1,6.02-5.779c3.4-.238,6.017,1.315,7.129,4.237,1.062,2.789.15,5.615-2.484,7.7a2,2,0,0,1-.27.206,4.366,4.366,0,0,0-2.5,5.083c.176.9-.366.98-1.056.92-.591-.051-1.364.235-1.23-.874a14.3,14.3,0,0,0,.012-1.7" transform="translate(-173.835 -7.775)" fill="#6a4d23"/>
        <path id="Trazado_873708" data-name="Trazado 873708" d="M243.381,106.915a3.4,3.4,0,1,1,3.493-3.28,3.413,3.413,0,0,1-3.493,3.28m1.218-3.433c-.1-.646-.453-1.072-1.109-1.069a1.029,1.029,0,0,0-1.114,1.142,1.015,1.015,0,0,0,1.084,1.059c.714,0,1.069-.448,1.139-1.132" transform="translate(-185.605 -77.399)" fill="#6a4d23"/>
        <path id="Trazado_873709" data-name="Trazado 873709" d="M142.594,188.326a11.78,11.78,0,0,0-1.584.013c-.93.128-1.094-.279-1.115-1.129-.023-.941.231-1.262,1.187-1.179,1.012.087,2.037.012,3.057.022a1.375,1.375,0,0,0,1.34-.657,2.605,2.605,0,0,1,2.218-.429c.292.2.132.468.082.707a3.375,3.375,0,0,1-3.146,2.638c-.677.04-1.359.007-2.038.007v.009" transform="translate(-108.154 -142.922)" fill="#6a4d23"/>
      </g>
    </g>
  </g>
</svg>
