<svg xmlns="http://www.w3.org/2000/svg" xmlns:xlink="http://www.w3.org/1999/xlink" width="1030" height="495.999" viewBox="0 0 1030 495.999">
  <defs>
    <clipPath id="clip-path">
      <path id="Trazado_611005" data-name="Trazado 611005" d="M0,0H1030V495H0Z" transform="translate(285 446.5)" fill="#fef7eb"/>
    </clipPath>
    <clipPath id="clip-path-2">
      <rect id="Rectángulo_402399" data-name="Rectángulo 402399" width="894.952" height="368.124" fill="none"/>
    </clipPath>
    <clipPath id="clip-path-3">
      <rect id="Rectángulo_402393" data-name="Rectángulo 402393" width="789.952" height="368.124" transform="translate(105)" fill="none"/>
    </clipPath>
    <clipPath id="clip-path-4">
      <rect id="Rectángulo_402392" data-name="Rectángulo 402392" width="101.621" height="9.724" fill="none"/>
    </clipPath>
    <clipPath id="clip-path-5">
      <rect id="Rectángulo_402398" data-name="Rectángulo 402398" width="833.952" height="368.124" transform="translate(-8.806)" fill="none"/>
    </clipPath>
    <clipPath id="clip-path-6">
      <rect id="Rectángulo_402394" data-name="Rectángulo 402394" width="127.203" height="10.402" fill="none"/>
    </clipPath>
    <clipPath id="clip-path-7">
      <rect id="Rectángulo_402395" data-name="Rectángulo 402395" width="95.508" height="10.402" fill="none"/>
    </clipPath>
    <clipPath id="clip-path-8">
      <rect id="Rectángulo_402396" data-name="Rectángulo 402396" width="108.596" height="10.402" fill="none"/>
    </clipPath>
    <clipPath id="clip-path-9">
      <rect id="Rectángulo_402397" data-name="Rectángulo 402397" width="168.67" height="10.402" fill="none"/>
    </clipPath>
  </defs>
  <g id="img20" transform="translate(-285 -8890)">
    <path id="Trazado_608309" data-name="Trazado 608309" d="M0,0H1030V495H0Z" transform="translate(285 8890)" fill="#fef7eb"/>
    <g id="Grupo_1100550" data-name="Grupo 1100550" transform="translate(353 8950.633)">
      <g id="Grupo_1100549" data-name="Grupo 1100549" clip-path="url(#clip-path-2)">
        <g id="Grupo_1100534" data-name="Grupo 1100534">
          <g id="Grupo_1100533" data-name="Grupo 1100533" clip-path="url(#clip-path-3)">
            <g id="Grupo_1100532" data-name="Grupo 1100532" transform="translate(764.758 358.4)" opacity="0.7" style="mix-blend-mode: multiply;isolation: isolate">
              <g id="Grupo_1100531" data-name="Grupo 1100531">
                <g id="Grupo_1100530" data-name="Grupo 1100530" clip-path="url(#clip-path-4)">
                  <path id="Trazado_874413" data-name="Trazado 874413" d="M751.365,357.822c0,2.686-22.749,4.862-50.811,4.862s-50.81-2.176-50.81-4.862,22.748-4.862,50.81-4.862,50.811,2.176,50.811,4.862" transform="translate(-649.744 -352.96)" fill="#e9d3be"/>
                </g>
              </g>
            </g>
            <path id="Trazado_874414" data-name="Trazado 874414" d="M747.234,163.258l-52.725,22.475-19.685-49.439L665.2,120.1s6.7-13.627,24.172-20.173c7.409-2.777,25.53-2.991,29.653-1.206l8.087,26.807Z" transform="translate(115.252 1.504)" fill="#ffe5c9"/>
            <path id="Trazado_874415" data-name="Trazado 874415" d="M663.48,84.672s-7.647-2.166-6.908,4.129c.812,6.923,9.168,2.172,9.168,2.172Z" transform="translate(115.118 1.299)" fill="#ffb16d"/>
            <path id="Trazado_874416" data-name="Trazado 874416" d="M656.983,70.712a25.111,25.111,0,0,0,5.656,16.118c.31-4.074.923-8.492.11-12.5a7.3,7.3,0,0,0-1.657-3.708c-.954-.986-2.925-.609-4.108.086" transform="translate(115.125 1.079)" fill="#371300"/>
            <path id="Trazado_874417" data-name="Trazado 874417" d="M692.3,102l-2.366-18.62s7.657.208,6.43-5.61c-1.095-5.183-6.69-3.849-8.579-.659,0,0-.778-19.055-16.422-15.682-5.552,1.2-9.293,3.659-10.5,7.775-.6,2.066-.379,3.436.188,7.489a125.681,125.681,0,0,0,2.576,14.04c2.682,8.908,10.389,11.171,15.133,10.167l1.353,5.553s1.129,4.879,5.661,3.654C691.819,108.473,692.3,102,692.3,102" transform="translate(115.18 0.941)" fill="#ffb16d"/>
            <path id="Trazado_874418" data-name="Trazado 874418" d="M680.388,68.761s.042,6.312,3.953,8.019c0,0,1.64,6.908,3.141,6.4V76.991l-1.833-5.106Z" transform="translate(115.486 1.06)" fill="#371300"/>
            <path id="Trazado_874419" data-name="Trazado 874419" d="M669.03,81.245a1.712,1.712,0,1,1-2.283-.808,1.713,1.713,0,0,1,2.283.808" transform="translate(115.261 1.237)" fill="#371300"/>
            <path id="Trazado_874420" data-name="Trazado 874420" d="M676.459,79.059a1.712,1.712,0,1,1-2.283-.807,1.714,1.714,0,0,1,2.283.807" transform="translate(115.375 1.203)" fill="#371300"/>
            <path id="Trazado_874421" data-name="Trazado 874421" d="M689.79,80.453a.41.41,0,0,1-.459-.318,3.324,3.324,0,0,1,3.644-4.025.412.412,0,0,1-.1.817,2.5,2.5,0,0,0-2.743,3.028.412.412,0,0,1-.312.491c-.011,0-.021.005-.033.006" transform="translate(115.623 1.173)" fill="#371300"/>
            <path id="Trazado_874422" data-name="Trazado 874422" d="M691.676,79.257a.413.413,0,0,1-.3-.071L690,78.213a.412.412,0,1,1,.475-.673l1.376.974a.411.411,0,0,1-.18.743" transform="translate(115.631 1.194)" fill="#371300"/>
            <path id="Trazado_874423" data-name="Trazado 874423" d="M679.625,84.574a2.465,2.465,0,1,0,.633-3.428,2.465,2.465,0,0,0-.633,3.428" transform="translate(115.468 1.244)" fill="#ff7652"/>
            <path id="Trazado_874424" data-name="Trazado 874424" d="M664.341,88.658a2.465,2.465,0,1,0,.633-3.428,2.465,2.465,0,0,0-.633,3.428" transform="translate(115.232 1.307)" fill="#ff7652"/>
            <path id="Trazado_874425" data-name="Trazado 874425" d="M670.723,86.375a.41.41,0,0,1-.352-.12,1.6,1.6,0,0,1-.536-1.355,1.911,1.911,0,0,1,.781-1.2l.1-3.357a.411.411,0,1,1,.823.026l-.109,3.564a.408.408,0,0,1-.2.342,1.253,1.253,0,0,0-.578.739.838.838,0,0,0,.308.667.411.411,0,0,1-.006.583.4.4,0,0,1-.229.114" transform="translate(115.323 1.232)" fill="#371300"/>
            <path id="Trazado_874426" data-name="Trazado 874426" d="M690.9,357.787l-.31-2.514-30.716.028-.948,2.486Z" transform="translate(115.155 5.475)" fill="#fff"/>
            <path id="Trazado_874427" data-name="Trazado 874427" d="M690.577,355.523l-.335-16.338L678.387,339l-1.923,8.587s-15.643,3.5-16.6,7.966Z" transform="translate(115.17 5.225)" fill="#b54f0f"/>
            <path id="Trazado_874428" data-name="Trazado 874428" d="M690.04,342.069l-9.208-3.028L678.126,339l-1.255,5.6,13.254,1.656Z" transform="translate(115.432 5.225)" fill="#b54f0f"/>
            <path id="Trazado_874429" data-name="Trazado 874429" d="M739.343,357.787l-.31-2.514-30.716.028-.948,2.486Z" transform="translate(115.902 5.475)" fill="#fff"/>
            <path id="Trazado_874430" data-name="Trazado 874430" d="M739.018,355.523l-.335-16.338L726.828,339l-1.923,8.587s-15.643,3.5-16.6,7.966Z" transform="translate(115.916 5.225)" fill="#b54f0f"/>
            <path id="Trazado_874431" data-name="Trazado 874431" d="M738.481,342.069l-9.207-3.028L726.567,339l-1.255,5.6,13.255,1.656Z" transform="translate(116.178 5.225)" fill="#b54f0f"/>
            <path id="Trazado_874432" data-name="Trazado 874432" d="M665.743,119.754c-1.323,4.969,0,44.765,0,44.765l-23.894-25.085a3.429,3.429,0,0,0-5.44.627l-6.222,10.579a3.42,3.42,0,0,0,.192,3.769c6.541,8.864,35.494,46.326,48.6,33.6,14.827-14.393,0-64.092,0-64.092Z" transform="translate(114.705 1.846)" fill="#ffe5c9"/>
            <path id="Trazado_874433" data-name="Trazado 874433" d="M718.2,99c7.676,2.834,36.262,21.779,36.262,21.779l-3.929-37.4a3.429,3.429,0,0,1,3.342-3.786l13.534-.2a3.427,3.427,0,0,1,3.472,3.008c1.427,11.521,7.02,51.8-3.471,58.941-12.262,8.353-49.211-14.388-49.211-14.388Z" transform="translate(116.069 1.224)" fill="#ffe5c9"/>
            <path id="Trazado_874434" data-name="Trazado 874434" d="M634.194,137.825s-6.375-9.767-9.886-12.392-.054,7.261-.054,7.261-17.158,1.807-19.1,3.075,9.232.895,9.232.895-9.827,3.078-9.922,4.894,10.563-1.733,10.563-1.733-10.346,4.415-10.584,5.922,11.941-2.525,11.941-2.525-6.517,3.422-6.5,4.7,13.835-4.268,13.835-4.268l6.165,4.58Z" transform="translate(114.315 1.926)" fill="#ffb16d"/>
            <path id="Trazado_874435" data-name="Trazado 874435" d="M630.24,150.385l-3.942-4.744,6.646-9.353,3.518,3.517Z" transform="translate(114.652 2.1)" fill="#f1c8a4"/>
            <path id="Trazado_874436" data-name="Trazado 874436" d="M677.518,108.693l-3.362-5.757s13.144-8.821,18.933-9.2l3.2,6.228s-1.653,8.83-9.062,11.059-9.711-2.324-9.711-2.324" transform="translate(115.39 1.445)" fill="#ffe5c9"/>
            <path id="Trazado_874437" data-name="Trazado 874437" d="M754.117,75.959s-4.008-10.952-4.008-15.337,5.849,4.3,5.849,4.3,11.72-12.661,13.9-13.458-4.811,7.931-4.811,7.931,8.35-6.03,9.862-5.018-7.713,7.423-7.713,7.423,9.731-5.643,11.079-4.93-9.171,8.052-9.171,8.052,6.642-3.171,7.654-2.389-11.7,8.526-11.7,8.526l-.021,7.679Z" transform="translate(116.56 0.792)" fill="#ffb16d"/>
            <path id="Trazado_874438" data-name="Trazado 874438" d="M753.339,79.67l-.069-5.425,12.96.1.644,5.127Z" transform="translate(116.609 1.144)" fill="#f1c8a4"/>
            <path id="Trazado_874439" data-name="Trazado 874439" d="M668.264,79.5h-.026l-3.926-.3a.356.356,0,0,1-.328-.383.347.347,0,0,1,.382-.328l3.925.3a.356.356,0,0,1-.026.711" transform="translate(115.233 1.21)" fill="#371300"/>
            <path id="Trazado_874440" data-name="Trazado 874440" d="M672.042,77.917a.356.356,0,0,1-.251-.608,19.915,19.915,0,0,1,3.42-2.719.356.356,0,0,1,.379.6,19.2,19.2,0,0,0-3.3,2.621.355.355,0,0,1-.251.1" transform="translate(115.352 1.149)" fill="#371300"/>
            <path id="Trazado_874441" data-name="Trazado 874441" d="M674.827,91.648a3.513,3.513,0,0,1,2.63-6.445Z" transform="translate(115.374 1.312)" fill="#fff"/>
            <path id="Trazado_874442" data-name="Trazado 874442" d="M659.436,56.63a8.08,8.08,0,0,0-9.218,2.364,8.775,8.775,0,0,0-.683,9.6,9.6,9.6,0,0,0,8.533,4.67,10.619,10.619,0,0,0,8.457-4.989,5.643,5.643,0,0,0,4.058,1.112,5.909,5.909,0,0,0,3.673-2.259,10.319,10.319,0,0,0,9.644,5l4.075,5.166a8.917,8.917,0,0,1,3.274-2.66s4.778-15.416-5.967-13.205c.314-2.047-1.121-4.135-2.859-5.261a5.544,5.544,0,0,0-5.879-.008c-1.065-2.657-2.3-5.105-4.876-6.361a9.519,9.519,0,0,0-8.29-.086,7.629,7.629,0,0,0-3.941,6.914" transform="translate(114.993 0.752)" fill="#371300"/>
            <path id="Trazado_874443" data-name="Trazado 874443" d="M665.244,86.694a6.234,6.234,0,1,1,6.234-6.233,6.241,6.241,0,0,1-6.234,6.233m0-11.518a5.285,5.285,0,1,0,5.284,5.285,5.291,5.291,0,0,0-5.284-5.285" transform="translate(115.156 1.144)" fill="#fff"/>
            <path id="Trazado_874444" data-name="Trazado 874444" d="M676.669,84.411a6.234,6.234,0,1,1,6.235-6.233,6.241,6.241,0,0,1-6.235,6.233m0-11.518a5.285,5.285,0,1,0,5.285,5.285,5.29,5.29,0,0,0-5.285-5.285" transform="translate(115.333 1.109)" fill="#fff"/>
            <path id="Trazado_874445" data-name="Trazado 874445" d="M677.819,107.84a.356.356,0,0,1-.01-.712,22.5,22.5,0,0,0,15.464-6.869.355.355,0,1,1,.513.492,23.213,23.213,0,0,1-15.956,7.089Z" transform="translate(115.441 1.543)" fill="#f1c8a4"/>
            <path id="Trazado_874446" data-name="Trazado 874446" d="M684.145,157.569a.358.358,0,0,1-.33-.222L675.423,136.7l-8.6-8.927a.356.356,0,0,1,.513-.495l8.717,9.091,8.419,20.706a.356.356,0,0,1-.2.463.347.347,0,0,1-.134.026" transform="translate(115.275 1.96)" fill="#f1c8a4"/>
            <path id="Trazado_874447" data-name="Trazado 874447" d="M728.63,130.891a.353.353,0,0,1-.176-.047l-6.34-3.6a.356.356,0,0,1,.352-.619l6.339,3.6a.356.356,0,0,1-.176.666" transform="translate(116.126 1.951)" fill="#f1c8a4"/>
            <path id="Trazado_874448" data-name="Trazado 874448" d="M729.781,157.639a.292.292,0,0,1-.058-.005,88.314,88.314,0,0,1-39.581-17.242.356.356,0,1,1,.436-.563,87.6,87.6,0,0,0,39.261,17.1.356.356,0,0,1-.058.708" transform="translate(115.634 2.154)" fill="#f1c8a4"/>
            <path id="Trazado_874449" data-name="Trazado 874449" d="M694.392,184.736,672.735,345.874h20.982L724.592,194.7l-3.6,151.169h24.4S755.861,193.04,756.064,183.6s-8.947-21.343-8.947-21.343Z" transform="translate(115.368 2.501)" fill="#f47e14"/>
            <path id="Trazado_874450" data-name="Trazado 874450" d="M701.649,181.219l-.971.414c-1.534,6.626-5.022,10.15-7.826,11.972l-.15,1.124a16.6,16.6,0,0,0,1.953-1.33c2.5-1.981,5.64-5.673,6.994-12.18" transform="translate(115.676 2.793)" fill="#e4620e"/>
            <path id="Trazado_874451" data-name="Trazado 874451" d="M724.324,194.955c.046-.01.091-.007.137-.021l.4-.124-5.777-20.888-.8.339,5.5,19.895a1.386,1.386,0,0,1-.554-.2,5.873,5.873,0,0,1-1.781-2.153.422.422,0,0,0-.1-.188c-2.261-4.161-4.158-12.3-5.039-16.509l-.809.344c.891,4.248,2.756,12.154,5.087,16.493L689.511,345.609a.393.393,0,0,0,0,.084h.857L721.24,193.041a5.381,5.381,0,0,0,1.549,1.644,2.137,2.137,0,0,0,1.111.336,1.835,1.835,0,0,0,.344-.054Z" transform="translate(115.626 2.68)" fill="#e4620e"/>
            <path id="Trazado_874452" data-name="Trazado 874452" d="M741.605,345.847c1.328-22.536,9.582-163.576,8.306-167.617-.941-2.978-5.22-10.049-7.852-14.251l-.8.341a139.109,139.109,0,0,1,7.188,12.556c-5.145,1.3-10.207-6.7-12.238-10.4l-.8.341c1.918,3.541,6.617,11.076,11.886,11.076a5.512,5.512,0,0,0,1.5-.229c.124.3.228.582.307.828,1.031,3.267-4.917,109.3-8.348,167.358Z" transform="translate(116.334 2.527)" fill="#e4620e"/>
            <path id="Trazado_874453" data-name="Trazado 874453" d="M754.9,37.754l-7.925,6.895,3.421,9.933-10.318,2-2,10.317-9.933-3.42L721.253,71.4l-6.894-7.924-9.934,3.42-2-10.317-10.317-2,3.421-9.933-7.925-6.895,7.925-6.895-3.421-9.933,10.318-2,2-10.317,9.933,3.42,6.894-7.925,6.895,7.925,9.934-3.42,2,10.317,10.317,2-3.421,9.933Z" transform="translate(115.597 0.063)" fill="#ff5d42"/>
            <path id="Trazado_874454" data-name="Trazado 874454" d="M706.495,47.905a3.69,3.69,0,1,1,3.689,3.689,3.713,3.713,0,0,1-3.689-3.689m.195-16.274V23.864h6.99v7.767l-1.165,9.71h-4.662Zm22.528,0c0-1.359-.893-2.252-2.875-2.252-2.135,0-3.418,1.437-4.195,3.263l-5.359-3.068a10.317,10.317,0,0,1,9.788-6.254c4.426,0,8.854,2.719,8.854,7.768,0,5.787-6.213,7.574-6.213,10.254H723c0-4.544,6.215-6.293,6.215-9.71m-6.8,16.274a3.69,3.69,0,1,1,3.689,3.689,3.714,3.714,0,0,1-3.689-3.689" transform="translate(115.888 0.359)" fill="#fff"/>
          </g>
        </g>
        <g id="Grupo_1100548" data-name="Grupo 1100548">
          <g id="Grupo_1100547" data-name="Grupo 1100547" clip-path="url(#clip-path-5)">
            <g id="Grupo_1100537" data-name="Grupo 1100537" transform="translate(555.72 357.495)" opacity="0.7" style="mix-blend-mode: multiply;isolation: isolate">
              <g id="Grupo_1100536" data-name="Grupo 1100536">
                <g id="Grupo_1100535" data-name="Grupo 1100535" clip-path="url(#clip-path-6)">
                  <path id="Trazado_874455" data-name="Trazado 874455" d="M639.828,357.27c0,2.873-28.475,5.2-63.6,5.2s-63.6-2.328-63.6-5.2,28.475-5.2,63.6-5.2,63.6,2.328,63.6,5.2" transform="translate(-512.625 -352.069)" fill="#e9d3be"/>
                </g>
              </g>
            </g>
            <path id="Trazado_874456" data-name="Trazado 874456" d="M570.069,220.556l29.41,95.719s-.535,10.709-1.621,12.337-1.972,19.452-1.972,19.452L543.259,217.247Z" transform="translate(43.567 3.348)" fill="#371300"/>
            <path id="Trazado_874457" data-name="Trazado 874457" d="M522.218,356.205S511.584,222.311,510.746,211.76s24.482,4.176,24.482,4.176l1.63,100.482Z" transform="translate(43.065 3.205)" fill="#371300"/>
            <path id="Trazado_874458" data-name="Trazado 874458" d="M512.891,152.447a113.771,113.771,0,0,0-14.443,57.612s33.632,17.033,72.313,11.5L551,153.809Z" transform="translate(42.876 2.349)" fill="#992d2a"/>
            <path id="Trazado_874459" data-name="Trazado 874459" d="M538.467,96.626a108.814,108.814,0,0,0-12.008,1.918c-2.052.458-7.965,20.082-11.155,35.052l-2.633,19.71,38.105,1.362,5.968-23.891s9.827-4.969,4.077-13.495c-7.333-10.873-7.768-18.893-22.353-20.657" transform="translate(43.095 1.489)" fill="#f47e14"/>
            <path id="Trazado_874460" data-name="Trazado 874460" d="M565.412,132.805s8.129-.926,9.982,0,2.158,8.08,1.417,10.372-5.738,4.137-5.738,4.137Z" transform="translate(43.908 2.04)" fill="#ffb16d"/>
            <path id="Trazado_874461" data-name="Trazado 874461" d="M544.589,98.1c4.315,1.456,10.888,4.265,13.794,8.7S570.5,139,570.678,143.9s.964,12.83-8.209,14.658-24.748-3.91-24.748-3.91Z" transform="translate(43.481 1.512)" fill="#f47e14"/>
            <path id="Trazado_874462" data-name="Trazado 874462" d="M550.441,110.35a3.833,3.833,0,0,0-1.971.365l-1.277,2.26,1.521.582-2.846,5.568,1.577-4.676-1.7-.673.534-2.728a3.829,3.829,0,0,0-6.443,2.507c-.071.874-.258,3.2,4.367,6.745l1.977,1.517,2.2-1.18c5.338-2.871,5.53-5.242,5.6-6.133a3.855,3.855,0,0,0-3.532-4.153" transform="translate(43.514 1.695)" fill="#ffe5c9"/>
            <path id="Trazado_874463" data-name="Trazado 874463" d="M526.5,98.515s-11.812,1.4-16.01,10.632,17.319,49.2,26.294,52.569,37.369-10.913,38.2-13.549.83-8.843-4.784-9.089l-25.466,5.206-19.6-33.059Z" transform="translate(43.053 1.518)" fill="#f47e14"/>
            <path id="Trazado_874464" data-name="Trazado 874464" d="M534.1,85.663a10.751,10.751,0,0,1-10.159,2.184,5.5,5.5,0,0,0,2.8-3.832,15.736,15.736,0,0,0,.1-4.892,17.732,17.732,0,0,1-7.035-8.944,12.453,12.453,0,0,1,1.522-10.81,9.9,9.9,0,0,1,9.9-4,8.592,8.592,0,0,1,6.185-6.838,15.608,15.608,0,0,1,9.837,1.025,24.665,24.665,0,0,1,14.136,15.829,13.684,13.684,0,0,1-.053,8.834c-1.377,3.38-4.542,5.635-7.549,7.7a37.726,37.726,0,0,1-9.008,5.039c-3.27,1.107-7.648.358-10.678-1.3" transform="translate(43.196 0.742)" fill="#ffe5c9"/>
            <path id="Trazado_874465" data-name="Trazado 874465" d="M533.354,98.8l-3.093-18.343s-7.205,2.393-7.708-3.478c-.448-5.231,5.243-5.57,7.951-3.086,0,0-4.725-18.3,11.083-19.584s15.733,20.347,15.738,25.582c.01,9.221-6.653,13.576-11.441,13.984l.309,5.657s.327,4.951-4.324,5.088c-6.2.184-8.515-5.82-8.515-5.82" transform="translate(43.247 0.836)" fill="#ffb16d"/>
            <path id="Trazado_874466" data-name="Trazado 874466" d="M555.393,74.136s6.634-4.247,7.737,1.936c1.213,6.8-8.076,4.689-8.076,4.689Z" transform="translate(43.749 1.121)" fill="#ffb16d"/>
            <path id="Trazado_874467" data-name="Trazado 874467" d="M541.162,73.38a1.7,1.7,0,1,0,1.933-1.422,1.7,1.7,0,0,0-1.933,1.422" transform="translate(43.534 1.109)" fill="#371300"/>
            <path id="Trazado_874468" data-name="Trazado 874468" d="M549.384,73.374a1.7,1.7,0,1,0,1.933-1.422,1.7,1.7,0,0,0-1.933,1.422" transform="translate(43.661 1.109)" fill="#371300"/>
            <path id="Trazado_874469" data-name="Trazado 874469" d="M546.168,79.189a.456.456,0,0,1-.029-.9c.847-.176,1.287-.417,1.471-.81.289-.613.012-1.755-.8-3.3a.456.456,0,0,1,.807-.424c.993,1.886,1.255,3.193.82,4.114a2.72,2.72,0,0,1-2.11,1.312.453.453,0,0,1-.156.006" transform="translate(43.606 1.133)" fill="#371300"/>
            <path id="Trazado_874470" data-name="Trazado 874470" d="M556.54,79.784a.456.456,0,0,1-.39-.5,21.634,21.634,0,0,0,.055-4.3.456.456,0,0,1,.908-.079,22.7,22.7,0,0,1-.057,4.479.457.457,0,0,1-.5.4l-.011,0" transform="translate(43.765 1.148)" fill="#371300"/>
            <path id="Trazado_874471" data-name="Trazado 874471" d="M556.9,77.3a.456.456,0,0,1,0-.9l2.251-.313a.456.456,0,1,1,.126.9l-2.251.313a.443.443,0,0,1-.127,0" transform="translate(43.771 1.173)" fill="#371300"/>
            <path id="Trazado_874472" data-name="Trazado 874472" d="M529.051,77.725a.457.457,0,0,1-.391-.417,2.431,2.431,0,0,0-3.4-2.046.456.456,0,0,1-.367-.835,3.343,3.343,0,0,1,4.678,2.813.455.455,0,0,1-.42.488.516.516,0,0,1-.1,0" transform="translate(43.28 1.143)" fill="#371300"/>
            <path id="Trazado_874473" data-name="Trazado 874473" d="M526.888,77.143a.456.456,0,0,1-.3-.731l1.027-1.318a.455.455,0,1,1,.718.561l-1.026,1.317a.454.454,0,0,1-.423.172" transform="translate(43.308 1.155)" fill="#371300"/>
            <path id="Trazado_874474" data-name="Trazado 874474" d="M545.67,93.308c-3.147.487-9.223-2.458-9.223-2.458a16.553,16.553,0,0,0,9.376,5.264Z" transform="translate(43.462 1.4)" fill="#ff7652"/>
            <path id="Trazado_874475" data-name="Trazado 874475" d="M541.228,78.581a2.443,2.443,0,1,1-1.583-3.071,2.442,2.442,0,0,1,1.583,3.071" transform="translate(43.462 1.162)" fill="#ff7652"/>
            <path id="Trazado_874476" data-name="Trazado 874476" d="M555.605,79.432a2.443,2.443,0,1,1-1.583-3.071,2.443,2.443,0,0,1,1.583,3.071" transform="translate(43.683 1.175)" fill="#ff7652"/>
            <path id="Trazado_874477" data-name="Trazado 874477" d="M557.127,73.779s-8.887-3.733-17.423-13.8c0,0,.176,9.379-5.351,14.833,0,0,.23,6.242-.842,6.258s-3.062-7.143-3.062-7.143a41.482,41.482,0,0,0-4.342-6.317l7.956-13.415,4.944-1.7,5.967-.27,5.3,2.294,4.211,2.75,3.313,6.318.848,5.109Z" transform="translate(43.302 0.805)" fill="#ffe5c9"/>
            <path id="Trazado_874478" data-name="Trazado 874478" d="M539.885,71.99c-.086,0-.173,0-.259-.008a.509.509,0,0,1-.474-.54.532.532,0,0,1,.539-.473,3.38,3.38,0,0,0,3.037-1.638.508.508,0,0,1,.882.5,4.358,4.358,0,0,1-3.726,2.158" transform="translate(43.503 1.065)" fill="#371300"/>
            <path id="Trazado_874479" data-name="Trazado 874479" d="M547.259,83.645a.5.5,0,0,1-.443-.261,4.047,4.047,0,0,0-3.919-2.005.5.5,0,0,1-.565-.445.51.51,0,0,1,.446-.564,5.081,5.081,0,0,1,4.924,2.52.508.508,0,0,1-.2.69.5.5,0,0,1-.247.064" transform="translate(43.552 1.238)" fill="#371300"/>
            <path id="Trazado_874480" data-name="Trazado 874480" d="M529.144,99.647s-1.444-6.679-.619-7.239,22.023,2.631,22.332,3.248-1.807,9.673-1.807,9.673l-17.953-.515Z" transform="translate(43.336 1.423)" fill="#f47e14"/>
            <path id="Trazado_874481" data-name="Trazado 874481" d="M542.787,143.811l-19.765-36.156a.591.591,0,1,1,1.036-.568l19.387,35.463,23.875-2.591a.591.591,0,0,1,.127,1.175Zm14.759,14.029,10.911-5.389a.591.591,0,0,0-.524-1.059l-10.912,5.389a.591.591,0,0,0,.525,1.059m-30.012-5.449a.591.591,0,0,0,.187-.814c-.081-.129-8.122-12.965-10.121-17.332a.591.591,0,1,0-1.075.491c2.031,4.437,9.862,16.938,10.194,17.468a.592.592,0,0,0,.815.187m28.107-12.66.724-8.714c1.33-.945,6.688-4.956,6.72-8.2.033-3.379-6.1-12.573-6.8-13.611a.591.591,0,1,0-.981.66c1.843,2.734,6.619,10.39,6.594,12.938-.024,2.447-4.657,6.176-6.44,7.406l-.229.157-.77,9.271a.589.589,0,0,0,.54.637l.049,0a.59.59,0,0,0,.588-.542" transform="translate(43.154 1.646)" fill="#e4620e"/>
            <path id="Trazado_874482" data-name="Trazado 874482" d="M537.083,127.941c-3.854,2.12-6.979,5.3-6.644,6.722s4.081.41,4.081.41-2.42,2.406-2.134,3.309,3.215.357,3.215.357-1.867,2.631-1.332,3.375,4.6-.441,4.6-.441-2.244,2.164-1.607,3.282,8.008-1.484,8.563-2.611-2.666-8.148-3.781-10.165c-1.331-2.411-2.914-5.362-4.955-4.239" transform="translate(43.369 1.968)" fill="#ffb16d"/>
            <path id="Trazado_874483" data-name="Trazado 874483" d="M513.659,166.829c5.815-1.36,7.852-9.934,8.5-14.049l-1.2-.043c-.619,3.748-2.387,11.063-6.91,12.742q1.759-5.954,4.171-12.84l-1.24-.045c-11.037,31.564-10.959,47.524-10.287,61.011.39.148.792.3,1.206.449-.579-11.369-.823-24.406,5.758-47.226" transform="translate(42.999 2.352)" fill="#6f261f"/>
            <path id="Trazado_874484" data-name="Trazado 874484" d="M520.644,357.231l-.238-2.6,34.513.029.238,2.57Z" transform="translate(43.215 5.465)" fill="#fff"/>
            <path id="Trazado_874485" data-name="Trazado 874485" d="M520.457,355.2l-3.327-35.139,19.592-2.165.458,29.818s17.01,2.9,17.79,7.517Z" transform="translate(43.164 4.899)" fill="#b54f0f"/>
            <path id="Trazado_874486" data-name="Trazado 874486" d="M536.8,314.772v5.635l-21.422,2.823-.587-6.1Z" transform="translate(43.128 4.851)" fill="#ffe5c9"/>
            <path id="Trazado_874487" data-name="Trazado 874487" d="M595.062,357.231l-.988-2.6,34.522.029.979,2.57Z" transform="translate(44.35 5.465)" fill="#fff"/>
            <path id="Trazado_874488" data-name="Trazado 874488" d="M594.278,355.2,580.81,320.058l18.967-2.165,9.063,29.818s17.847,2.9,19.96,7.517Z" transform="translate(44.146 4.899)" fill="#b54f0f"/>
            <path id="Trazado_874489" data-name="Trazado 874489" d="M598.95,314.772l1.626,5.635-20.608,2.823-2.349-6.1Z" transform="translate(44.096 4.851)" fill="#ffe5c9"/>
            <path id="Trazado_874490" data-name="Trazado 874490" d="M572.616,89.836a5.084,5.084,0,1,1,3.762,6.127,5.116,5.116,0,0,1-3.762-6.127m2.884-8.608,8.326,1.99c.858-3.59,9.758-3.995,11.611-11.749,1.618-6.766-3.443-11.826-9.377-13.244a14.211,14.211,0,0,0-15.117,5.243l6.2,5.828c1.625-2.2,3.8-3.712,6.666-3.028,2.653.635,3.564,2.118,3.128,3.939-1.095,4.581-9.981,4.932-11.437,11.021" transform="translate(43.993 0.89)" fill="#f47e14"/>
            <path id="Trazado_874491" data-name="Trazado 874491" d="M586.5,80.055a34.2,34.2,0,0,0,5.2-3.3,14.027,14.027,0,0,0-5.848,1.314Z" transform="translate(44.223 1.183)" fill="#371300"/>
            <path id="Trazado_874492" data-name="Trazado 874492" d="M575.883,100.919a5.083,5.083,0,1,1,.368,7.179,5.115,5.115,0,0,1-.368-7.179m6.655-6.176,6.354,5.736c2.474-2.742,10.479,1.167,15.821-4.752,4.66-5.164,2.641-12.032-1.888-16.119a14.215,14.215,0,0,0-15.782-2.639l2.65,8.086c2.479-1.15,5.117-1.437,7.3.535,2.026,1.829,2.115,3.567.861,4.957-3.156,3.5-11.126-.452-15.319,4.2" transform="translate(44.05 1.166)" fill="gold"/>
            <path id="Trazado_874493" data-name="Trazado 874493" d="M497.876,94.774a2.99,2.99,0,1,1,4.227.051,3.008,3.008,0,0,1-4.227-.051M494.5,90.64l3.6-3.517c-1.517-1.554,1.074-6.107-2.2-9.462-2.858-2.926-6.964-2-9.53.51a8.361,8.361,0,0,0-2.134,9.165l4.844-1.255c-.583-1.5-.653-3.056.585-4.266,1.148-1.121,2.172-1.109,2.942-.321,1.934,1.981-.678,6.512,1.894,9.146" transform="translate(42.648 1.169)" fill="#f47e14"/>
            <path id="Trazado_874494" data-name="Trazado 874494" d="M497.389,84.7a20.091,20.091,0,0,0-.013-3.621,8.256,8.256,0,0,0-1.181,3.321Z" transform="translate(42.841 1.25)" fill="#371300"/>
            <path id="Trazado_874495" data-name="Trazado 874495" d="M504.377,96.678a2.99,2.99,0,1,1,3.687,2.069,3.008,3.008,0,0,1-3.687-2.069m-.984-5.247,4.847-1.363c-.588-2.09,3.868-4.846,2.6-9.36-1.107-3.938-5.156-5.087-8.61-4.116a8.359,8.359,0,0,0-6.264,7.023l4.854,1.218c.205-1.594.891-3,2.557-3.465,1.544-.435,2.437.067,2.736,1.127.749,2.665-3.714,5.391-2.718,8.936" transform="translate(42.838 1.175)" fill="#ffa200"/>
            <g id="Grupo_1100540" data-name="Grupo 1100540" transform="translate(379.198 357.495)" opacity="0.7" style="mix-blend-mode: multiply;isolation: isolate">
              <g id="Grupo_1100539" data-name="Grupo 1100539">
                <g id="Grupo_1100538" data-name="Grupo 1100538" clip-path="url(#clip-path-7)">
                  <path id="Trazado_874496" data-name="Trazado 874496" d="M468.951,357.27c0,2.873-21.381,5.2-47.754,5.2s-47.754-2.328-47.754-5.2,21.379-5.2,47.754-5.2,47.754,2.328,47.754,5.2" transform="translate(-373.443 -352.069)" fill="#e9d3be"/>
                </g>
              </g>
            </g>
            <path id="Trazado_874497" data-name="Trazado 874497" d="M416.575,357.229l-.42-2.484-30.334.029L385,357.229Z" transform="translate(5.933 5.467)" fill="#fff"/>
            <path id="Trazado_874498" data-name="Trazado 874498" d="M416.141,354.993l-1.073-16.136-11.717-.184-1.509,8.482s-15.291,3.453-16.035,7.867Z" transform="translate(5.946 5.22)" fill="#992d2a"/>
            <path id="Trazado_874499" data-name="Trazado 874499" d="M415.006,341.706l-9.231-2.99-2.675-.042-.985,5.534,13.166,1.635Z" transform="translate(6.197 5.22)" fill="#6f261f"/>
            <path id="Trazado_874500" data-name="Trazado 874500" d="M453.6,357.229l-.42-2.484-30.334.029-.824,2.454Z" transform="translate(6.504 5.467)" fill="#fff"/>
            <path id="Trazado_874501" data-name="Trazado 874501" d="M453.164,354.993l-1.073-16.136-11.717-.184-1.509,8.482s-15.291,3.453-16.035,7.867Z" transform="translate(6.517 5.22)" fill="#992d2a"/>
            <path id="Trazado_874502" data-name="Trazado 874502" d="M452.03,341.706l-9.231-2.99-2.675-.042-.985,5.534,13.166,1.635Z" transform="translate(6.768 5.22)" fill="#6f261f"/>
            <path id="Trazado_874503" data-name="Trazado 874503" d="M413.86,166.585,397.537,346.35h23.988l18.752-164.177L433.022,346.52h27.537s5.677-164,6.1-171.255-2.981-17.829-2.981-17.829Z" transform="translate(6.127 2.426)" fill="#ffab50"/>
            <path id="Trazado_874504" data-name="Trazado 874504" d="M414.744,178.272a7.831,7.831,0,0,1-2.326,1.647l.122-1.34a6.864,6.864,0,0,0,1.4-1.1c3.17-3.233,3.629-9.393,3.687-11.646l1.136-.208c-.026,2.16-.4,8.958-4.017,12.644m24.276-14.256h-.014a.567.567,0,0,0-.55.58l.418,15.921a4.533,4.533,0,0,1-1.338-1.834.31.31,0,0,0-.018-.037c-1.7-3.8-1.682-11.318-1.452-14.647a.565.565,0,0,0-.525-.6.575.575,0,0,0-.6.525c-.089,1.285-.612,10.15,1.476,15L416.855,346.335h1.137l19.369-165.769a3.712,3.712,0,0,0,1.955,1.4l.731.2-.462-17.591a.564.564,0,0,0-.565-.55m16.709,182.49c.88-24.555,5.708-159.832,5.453-165.764-.635-14.752-2.455-20.626-3.127-22.33l-1.136.208c.432,1.036,2.051,5.6,2.87,17.415-3.95-1.252-5.309-10.523-5.5-14.189a.524.524,0,0,0-.592-.535.563.563,0,0,0-.535.592c.03.592.794,14.139,6.7,15.33.07,1.126.134,2.306.188,3.558.25,5.812-4.6,141.841-5.454,165.715Z" transform="translate(6.356 2.441)" fill="#ed8f32"/>
            <path id="Trazado_874505" data-name="Trazado 874505" d="M467.425,165.368l-56.466,3.987-2.036-54.667-3.767-18.224S415.8,85.9,434.224,85.422c7.812-.2,24.8,5.437,28.071,8.433L461.2,121.486Z" transform="translate(6.244 1.316)" fill="#ffe5c9"/>
            <path id="Trazado_874506" data-name="Trazado 874506" d="M438.265,103.863a3.839,3.839,0,0,0-1.9.628l-.96,2.413,1.586.371-2.067,5.9.93-4.847-1.78-.437.159-2.775a3.812,3.812,0,0,0-2.408-.706,3.854,3.854,0,0,0-3.636,4.062c.048.875.177,3.2,5.241,6.092l2.164,1.236,2.016-1.466c4.9-3.567,4.769-5.941,4.721-6.836a3.855,3.855,0,0,0-4.062-3.636" transform="translate(6.599 1.601)" fill="#fff"/>
            <path id="Trazado_874507" data-name="Trazado 874507" d="M461.649,93.726c6.955,5.725-5.3,53.291-5.3,53.291l-9.324-36.233Z" transform="translate(6.889 1.444)" fill="#ffe5c9"/>
            <path id="Trazado_874508" data-name="Trazado 874508" d="M405.377,96.3c-4.366,4.246-19.271,50.641-13.045,56.11s37.75-4.71,37.75-4.71Z" transform="translate(6.023 1.484)" fill="#ffe5c9"/>
            <path id="Trazado_874509" data-name="Trazado 874509" d="M409.165,130.273a.542.542,0,0,1-.256.073.564.564,0,0,1-.587-.542l-.92-23.443a.564.564,0,0,1,1.128-.044l.92,23.443a.562.562,0,0,1-.285.513" transform="translate(6.279 1.63)" fill="#f1c8a4"/>
            <path id="Trazado_874510" data-name="Trazado 874510" d="M406.965,137.224c-4.12-.822-7.882-2.818-7.986-4.212s3.6-1.547,3.6-1.547-2.9-1.5-2.9-2.4,2.826-1.251,2.826-1.251-2.458-1.859-2.185-2.691,4.313-.92,4.313-.92-2.666-1.326-2.408-2.527,7.72-.953,8.55-.086-.085,8.189-.519,10.349c-.52,2.578-1.112,5.722-3.3,5.286" transform="translate(6.149 1.863)" fill="#ffb16d"/>
            <path id="Trazado_874511" data-name="Trazado 874511" d="M399.651,135.958c.289.037,29.153-4.133,29.153-4.133l-4.237,8.338-24.916.582Z" transform="translate(6.159 2.032)" fill="#ffe5c9"/>
            <path id="Trazado_874512" data-name="Trazado 874512" d="M414.884,62.979s-6.441-4.487-7.78,1.628c-1.472,6.724,7.859,4.983,7.859,4.983Z" transform="translate(6.272 0.946)" fill="#ffb16d"/>
            <path id="Trazado_874513" data-name="Trazado 874513" d="M413.7,66.333l-1.961-12.912a20.854,20.854,0,0,1-8.358-5.355L420.163,32.82s16.854-.247,20.294,12.824c0,0,6.466-2.821,8.943.963s-7.774,20.2-7.774,20.2Z" transform="translate(6.217 0.506)" fill="#371300"/>
            <path id="Trazado_874514" data-name="Trazado 874514" d="M423.744,84.51s-3.539-.441-5.619,5.323-2.737,14.348,9.4,3.42c0,0,5.39,7.489,9.8,5.261s4.989-14.508-.214-14.917-13.36.914-13.36.914" transform="translate(6.426 1.287)" fill="#b54f0f"/>
            <path id="Trazado_874515" data-name="Trazado 874515" d="M436.286,88.4l3.793-18.145s7.081,2.663,7.811-3.164c.65-5.192-5-5.749-7.8-3.38,0,0,5.415-18.04-10.276-19.934-5.569-.671-9.856.42-12.307,3.875-1.23,1.733-1.461,3.086-2.239,7.051a124.1,124.1,0,0,0-2.119,13.938c-.369,9.18,6.1,13.776,10.849,14.369l-.527,5.62s-.519,4.919,4.107,5.235c6.165.423,8.705-5.465,8.705-5.465" transform="translate(6.367 0.672)" fill="#ffb16d"/>
            <path id="Trazado_874516" data-name="Trazado 874516" d="M435.785,53.59s-2,5.906,1.106,8.76c0,0,.7,2.759,2.266,2.767l.6-1.558-.065-5.357Z" transform="translate(6.706 0.826)" fill="#12122a"/>
            <path id="Trazado_874517" data-name="Trazado 874517" d="M421.157,61.576a1.691,1.691,0,1,1-1.87-1.491,1.692,1.692,0,0,1,1.87,1.491" transform="translate(6.439 0.926)" fill="#371300"/>
            <path id="Trazado_874518" data-name="Trazado 874518" d="M428.8,61.931a1.691,1.691,0,1,1-1.87-1.491,1.691,1.691,0,0,1,1.87,1.491" transform="translate(6.557 0.931)" fill="#371300"/>
            <path id="Trazado_874519" data-name="Trazado 874519" d="M440.8,67.522a.406.406,0,0,1-.326-.445,3.283,3.283,0,0,1,4.7-2.583.407.407,0,0,1-.355.732,2.469,2.469,0,0,0-3.536,1.942.408.408,0,0,1-.45.358l-.033-.005" transform="translate(6.788 0.989)" fill="#371300"/>
            <path id="Trazado_874520" data-name="Trazado 874520" d="M442.932,67.026a.4.4,0,0,1-.253-.162l-.972-1.352a.407.407,0,1,1,.661-.474l.971,1.353a.406.406,0,0,1-.407.636" transform="translate(6.806 1)" fill="#371300"/>
            <path id="Trazado_874521" data-name="Trazado 874521" d="M429.98,68.095a2.434,2.434,0,1,0,1.7-3,2.435,2.435,0,0,0-1.7,3" transform="translate(6.625 1.002)" fill="#ff7652"/>
            <path id="Trazado_874522" data-name="Trazado 874522" d="M414.394,66.982a2.434,2.434,0,1,0,1.7-3,2.435,2.435,0,0,0-1.7,3" transform="translate(6.385 0.985)" fill="#ff7652"/>
            <path id="Trazado_874523" data-name="Trazado 874523" d="M421.1,66.912a.4.4,0,0,1-.29-.225,1.58,1.58,0,0,1-.064-1.438,1.891,1.891,0,0,1,1.117-.872l1.178-3.1a.406.406,0,1,1,.76.288l-1.25,3.293a.408.408,0,0,1-.3.255,1.236,1.236,0,0,0-.778.5.83.83,0,0,0,.073.723.4.4,0,0,1-.194.541.4.4,0,0,1-.251.032" transform="translate(6.482 0.94)" fill="#371300"/>
            <path id="Trazado_874524" data-name="Trazado 874524" d="M433.229,81.555s-3.215,1.158-9.39.872l-.2,2.113c6.507.191,9.588-2.985,9.588-2.985" transform="translate(6.529 1.257)" fill="#ff7652"/>
            <path id="Trazado_874525" data-name="Trazado 874525" d="M422.484,59.111a.5.5,0,0,1-.286-.088L418.948,56.8a.508.508,0,0,1,.574-.839l3.248,2.223a.508.508,0,0,1-.286.927" transform="translate(6.453 0.861)" fill="#371300"/>
            <path id="Trazado_874526" data-name="Trazado 874526" d="M425.329,59.212a.508.508,0,0,1-.137-1l4.228-1.182a.508.508,0,1,1,.274.978l-4.228,1.181a.5.5,0,0,1-.137.019" transform="translate(6.547 0.879)" fill="#371300"/>
            <path id="Trazado_874527" data-name="Trazado 874527" d="M424.744,71.621a.506.506,0,0,1-.354-.144,5.444,5.444,0,0,0-4.915-1.371.508.508,0,1,1-.228-.99A6.5,6.5,0,0,1,425.1,70.75a.508.508,0,0,1-.354.871" transform="translate(6.455 1.063)" fill="#371300"/>
            <path id="Trazado_874528" data-name="Trazado 874528" d="M410.634,134.983a.564.564,0,0,1-.079-1.123l18.01-2.585a.565.565,0,1,1,.159,1.118l-18.01,2.585a.722.722,0,0,1-.08.005" transform="translate(6.32 2.023)" fill="#f1c8a4"/>
            <path id="Trazado_874529" data-name="Trazado 874529" d="M436.426,127.859a.565.565,0,0,1-.5-.824l10.768-20.844a.564.564,0,1,1,1,.518l-10.768,20.844a.565.565,0,0,1-.5.306" transform="translate(6.717 1.632)" fill="#f1c8a4"/>
            <path id="Trazado_874530" data-name="Trazado 874530" d="M442.869,157.27c-6.715,0-18.764-7.414-19.343-7.772a.565.565,0,0,1,.6-.96c4.347,2.693,16.548,9.24,20.715,7.241,4.229-2.034,12.027-21.811,14.675-29.259a.564.564,0,1,1,1.063.377c-.395,1.112-9.737,27.25-15.248,29.9a5.663,5.663,0,0,1-2.457.474" transform="translate(6.523 1.944)" fill="#f1c8a4"/>
            <path id="Trazado_874531" data-name="Trazado 874531" d="M411.946,152.168a.565.565,0,0,1-.131-1.114l20.9-5.011a.558.558,0,0,1,.68.417.564.564,0,0,1-.417.68l-20.9,5.012a.53.53,0,0,1-.131.015" transform="translate(6.34 2.251)" fill="#f1c8a4"/>
            <path id="Trazado_874532" data-name="Trazado 874532" d="M435.477,125.363c3.681,2.025,6.667,5.06,6.346,6.421s-3.9.392-3.9.392,2.311,2.3,2.039,3.161-3.072.342-3.072.342,1.785,2.512,1.273,3.223-4.39-.42-4.39-.42,2.144,2.066,1.534,3.135-7.649-1.416-8.179-2.493,2.548-7.783,3.612-9.711c1.271-2.3,2.783-5.123,4.734-4.049" transform="translate(6.582 1.928)" fill="#ffb16d"/>
            <path id="Trazado_874533" data-name="Trazado 874533" d="M414.041,53.57c6.254.475,11.861,1.059,18.076.217a12.772,12.772,0,0,0,3.932,7.539s.831,6.565,2,6.455,1.728-4.351,3.718-4.982l1.207-7.51-.73-4.747-3.783-4.379-3.577-2.527-11.068-2.93-6.473,2.132-5.07,6.855Z" transform="translate(6.354 0.627)" fill="#371300"/>
            <path id="Trazado_874534" data-name="Trazado 874534" d="M483.782,22.922,459.4,34.859l10.025,2.97-12.13,10.685,25.963-11.764-9.92-4.5Z" transform="translate(7.048 0.353)" fill="gold"/>
            <path id="Trazado_874535" data-name="Trazado 874535" d="M455.208,7.758,440.871,20.673l7.43.074-6.2,9.669,15.447-13.1-7.657-1.142Z" transform="translate(6.795 0.12)" fill="#ffa200"/>
            <path id="Trazado_874536" data-name="Trazado 874536" d="M376.016,48.255l15.22,11.861-1.225-7.329,10.6,4.421-15.6-12.922.211,7.739Z" transform="translate(5.795 0.683)" fill="gold"/>
            <path id="Trazado_874537" data-name="Trazado 874537" d="M481.691,58.737l-19.263,1.112,5.751,4.7-10.888,3.665,20.249-.565-5.261-5.681Z" transform="translate(7.048 0.905)" fill="#ffa200"/>
            <g id="Grupo_1100543" data-name="Grupo 1100543" transform="translate(0 357.495)" opacity="0.7" style="mix-blend-mode: multiply;isolation: isolate">
              <g id="Grupo_1100542" data-name="Grupo 1100542">
                <g id="Grupo_1100541" data-name="Grupo 1100541" clip-path="url(#clip-path-8)">
                  <path id="Trazado_874538" data-name="Trazado 874538" d="M108.6,357.27c0,2.873-24.31,5.2-54.3,5.2S0,360.143,0,357.27s24.31-5.2,54.3-5.2,54.3,2.328,54.3,5.2" transform="translate(0 -352.069)" fill="#e9d3be"/>
                </g>
              </g>
            </g>
            <path id="Trazado_874539" data-name="Trazado 874539" d="M8.356,357.229l1.414-2.482,30.3.028-.159,2.453Z" transform="translate(0.129 5.467)" fill="#fff"/>
            <path id="Trazado_874540" data-name="Trazado 874540" d="M9.749,354.995l7.531-16.126,11.783-.184-1.887,8.477s13.9,3.451,12.876,7.861Z" transform="translate(0.15 5.22)" fill="#f4791f"/>
            <path id="Trazado_874541" data-name="Trazado 874541" d="M15.886,341.715l10.422-2.988,2.69-.042-1.231,5.53L13.954,345.85Z" transform="translate(0.215 5.22)" fill="#b54f0f"/>
            <path id="Trazado_874542" data-name="Trazado 874542" d="M66.473,357.229l.951-2.482,30.309.028.3,2.453Z" transform="translate(1.024 5.467)" fill="#fff"/>
            <path id="Trazado_874543" data-name="Trazado 874543" d="M67.409,354.995l4.52-16.126,11.748-.184-.3,8.477s14.544,3.451,14.345,7.861Z" transform="translate(1.039 5.22)" fill="#f4791f"/>
            <path id="Trazado_874544" data-name="Trazado 874544" d="M71.092,341.715l9.864-2.988,2.683-.042-.2,5.53L69.933,345.85Z" transform="translate(1.078 5.22)" fill="#b54f0f"/>
            <path id="Trazado_874545" data-name="Trazado 874545" d="M30.713,127.4a20.412,20.412,0,0,1,4.021-16.373c5.112-6.414,13.61-9.167,19.448-14.929,3.456-3.412,5.838-7.734,8.772-11.6,6.03-7.948,14.1-12.931,24.358-11.726,9.116,1.07,14.977,8.53,17.146,16.97,2.312,9,.293,18.279-3.838,26.431-2,3.939-4.389,7.648-6.457,11.55-2.03,3.829-4.293,7.633-7.6,10.515-6.856,5.978-16.7,6.85-25.8,6.9-12.588.069-27.263-3.339-30.055-17.735" transform="translate(0.468 1.119)" fill="#371300"/>
            <path id="Trazado_874546" data-name="Trazado 874546" d="M10.983,345.1h20c6.88-18.539,28.619-77.319,29.544-82.358,1.1-5.992.4-56.133.4-56.133L78.7,264.342,68.125,345.1h20.43c3.233-18.244,13.29-75.487,13.43-82.358.168-8.189-19.539-83.338-19.539-83.338l-36.973-8.557s-27.547,11.623-8.5,89.411Z" transform="translate(0.169 2.633)" fill="#ffe5c9"/>
            <path id="Trazado_874547" data-name="Trazado 874547" d="M61.558,208.838l-.689-2.243,1.587-13.049h0l2.991-18.075,1.1.256-2.856,17.259c3.656-1.01,5.859-10.67,6.712-16.366l1.106.255c-.749,5.061-2.941,16.282-7.758,17.267l20.639,67.707a.553.553,0,0,1,.019.238l-10.881,83H72.393l10.884-83.028-20.1-65.945Zm24.035-17.067c-3.3-.76-5.882-8.525-7.037-13.266l-1.229-.285c.925,4.047,3.764,14.43,8.567,14.728-.1-.4-.2-.79-.3-1.176M14.97,345.086h1.182L42.975,259.44l.038-.118L43,259.2c-.07-.543-7.038-54.462-4.171-67.61a31.821,31.821,0,0,1,1.09-3.8c1.77-.638,11.8-4.656,15.872-14.553l-1.1-.255c-3.465,8.228-11.282,12.162-14.23,13.388a46.348,46.348,0,0,1,9.672-14.443l-1.275-.3a46.477,46.477,0,0,0-9.876,15.452.327.327,0,0,0-.012.034,32.867,32.867,0,0,0-1.238,4.235C34.855,204.5,41.4,255.654,41.861,259.22Z" transform="translate(0.231 2.645)" fill="#f6d3ac"/>
            <path id="Trazado_874548" data-name="Trazado 874548" d="M105.575,150.039h0l21-21.551,8.6,1.319s-16.016,38.6-29.331,40.415c-12.774,1.747-15.662-14.344-15.662-14.344Z" transform="translate(1.39 1.98)" fill="#ffb16d"/>
            <path id="Trazado_874549" data-name="Trazado 874549" d="M81.737,118.647s8.371,4.117,10.589,5.9S105.7,150.191,105.7,150.191l-16.447,6.53Z" transform="translate(1.26 1.829)" fill="#f47e14"/>
            <path id="Trazado_874550" data-name="Trazado 874550" d="M76.5,118.481a109.617,109.617,0,0,0-12.242.725c-2.1.256-10,19.356-14.7,34.058l-4.611,18.387,36.971,8.557,9.5-25.633s10.357-4,5.439-13.133C90.592,129.8,90.957,121.709,76.5,118.481" transform="translate(0.693 1.826)" fill="#f47e14"/>
            <path id="Trazado_874551" data-name="Trazado 874551" d="M36.784,140.461c5.114-8.293,14.152-21,16.78-22.268,4.206-2.024,19.24-1.212,19.24-1.212l-13.48,21.26s-4.834,9.269-9.637,15.05c0,0-8.97-9.7-12.9-12.83" transform="translate(0.567 1.8)" fill="#f47e14"/>
            <path id="Trazado_874552" data-name="Trazado 874552" d="M71.1,120.158l-1.271-18.714s-7.468,1.682-7.387-4.262c.074-5.292,5.818-5.064,8.287-2.3,0,0-2.913-18.835,13.077-18.545s13.754,21.99,13.237,27.245c-.912,9.252-8.033,12.957-12.877,12.888l-.256,5.707s-.167,5-4.847,4.675c-6.238-.436-7.963-6.692-7.963-6.692" transform="translate(0.962 1.176)" fill="#ffb16d"/>
            <path id="Trazado_874553" data-name="Trazado 874553" d="M95.655,97.638s7.08-3.6,7.571,2.716c.538,6.945-8.572,3.9-8.572,3.9Z" transform="translate(1.459 1.489)" fill="#ffb16d"/>
            <path id="Trazado_874554" data-name="Trazado 874554" d="M81.441,95.462a1.711,1.711,0,1,0,2.083-1.234,1.712,1.712,0,0,0-2.083,1.234" transform="translate(1.254 1.451)" fill="#371300"/>
            <path id="Trazado_874555" data-name="Trazado 874555" d="M89.692,96.277a1.711,1.711,0,1,0,2.083-1.233,1.712,1.712,0,0,0-2.083,1.233" transform="translate(1.381 1.464)" fill="#371300"/>
            <path id="Trazado_874556" data-name="Trazado 874556" d="M85.888,101.791a.46.46,0,0,1,.061-.9c.867-.091,1.332-.289,1.557-.666.352-.587.188-1.759-.476-3.391a.46.46,0,0,1,.852-.345c.809,1.991.94,3.33.413,4.21a2.745,2.745,0,0,1-2.249,1.107.477.477,0,0,1-.157-.01" transform="translate(1.318 1.483)" fill="#371300"/>
            <path id="Trazado_874557" data-name="Trazado 874557" d="M96.235,103.425a.459.459,0,0,1-.34-.542,21.8,21.8,0,0,0,.484-4.307.46.46,0,1,1,.919.011,22.861,22.861,0,0,1-.5,4.489.46.46,0,0,1-.546.352l-.012,0" transform="translate(1.478 1.512)" fill="#371300"/>
            <path id="Trazado_874558" data-name="Trazado 874558" d="M96.844,100.97a.46.46,0,0,1,.09-.906l2.291-.089a.46.46,0,0,1,.037.919l-2.291.088a.439.439,0,0,1-.127-.012" transform="translate(1.487 1.541)" fill="#371300"/>
            <path id="Trazado_874559" data-name="Trazado 874559" d="M68.852,98.612a.46.46,0,0,1-.35-.458,2.452,2.452,0,0,0-3.21-2.393.459.459,0,0,1-.284-.873,3.371,3.371,0,0,1,4.413,3.289.459.459,0,0,1-.471.448.383.383,0,0,1-.1-.012" transform="translate(0.997 1.46)" fill="#371300"/>
            <path id="Trazado_874560" data-name="Trazado 874560" d="M66.742,97.811a.459.459,0,0,1-.223-.764l1.162-1.22a.459.459,0,1,1,.664.635l-1.161,1.218a.459.459,0,0,1-.442.13" transform="translate(1.023 1.475)" fill="#371300"/>
            <path id="Trazado_874561" data-name="Trazado 874561" d="M83.971,115.911c-3.206.175-9.009-3.387-9.009-3.387a16.691,16.691,0,0,0,8.882,6.217Z" transform="translate(1.155 1.734)" fill="#ff7652"/>
            <path id="Trazado_874562" data-name="Trazado 874562" d="M80.99,100.686a2.463,2.463,0,1,1-1.281-3.239,2.463,2.463,0,0,1,1.281,3.239" transform="translate(1.175 1.499)" fill="#ff7652"/>
            <path id="Trazado_874563" data-name="Trazado 874563" d="M95.33,102.976a2.463,2.463,0,1,1-1.281-3.238,2.463,2.463,0,0,1,1.281,3.238" transform="translate(1.396 1.534)" fill="#ff7652"/>
            <path id="Trazado_874564" data-name="Trazado 874564" d="M97.441,97.436S88.9,92.8,81.337,81.843c0,0-.761,9.429-6.851,14.35,0,0-.394,6.285-1.47,6.2s-2.359-7.473-2.359-7.473a41.776,41.776,0,0,0-3.726-6.773l9.325-12.666,5.13-1.209,6.013.325,5.093,2.831,3.95,3.18,2.693,6.67.341,5.212Z" transform="translate(1.032 1.145)" fill="#371300"/>
            <path id="Trazado_874565" data-name="Trazado 874565" d="M90.675,153.126a.421.421,0,0,0,.14-.046c3.293-1.787,4.727-5.7,4.148-11.325a34.7,34.7,0,0,0-1.839-7.9.413.413,0,0,0-.773.294c.055.142,5.328,14.269-1.93,18.207a.413.413,0,0,0,.254.773" transform="translate(1.39 2.059)" fill="#e4620e"/>
            <path id="Trazado_874566" data-name="Trazado 874566" d="M80.021,129.808a7.924,7.924,0,0,0,6.866-5.646.413.413,0,1,0-.8-.218c-1.178,4.3-5.574,5.421-8.978,5.075a9.733,9.733,0,0,1-8.255-7.212.414.414,0,0,0-.8.193,10.585,10.585,0,0,0,8.976,7.842,12.516,12.516,0,0,0,2.991-.033" transform="translate(1.049 1.872)" fill="#e4620e"/>
            <path id="Trazado_874567" data-name="Trazado 874567" d="M38.831,141.8l14.09,9.434-2.672,5.64L96.369,178.41l-6.946,3.837s-45.937-3.5-53.8-12.822S38.831,141.8,38.831,141.8" transform="translate(0.506 2.185)" fill="#ffb16d"/>
            <path id="Trazado_874568" data-name="Trazado 874568" d="M92.5,177l3.014.866s6.135,1.465,7.044,2.495,5.6,4.6,4.938,4.884c-.429.182-3.242-.773-5.159-1.464.3.39.615.813.959,1.282.488.667,5.481,8.048,4.446,8.771-.54.694-2.765-1.068-2.765-1.068s-.849,2.052-4.148.3a3.415,3.415,0,0,1-.634-.429,5.132,5.132,0,0,1-1.025-.837,2.359,2.359,0,0,1-.8,1.366c-.633.428-2.088-1.2-2.088-1.2l-7.714-10.263Z" transform="translate(1.365 2.728)" fill="#ffb16d"/>
            <path id="Trazado_874569" data-name="Trazado 874569" d="M126.026,128.746l.97-3.374s1.641-6.871,2.794-7.889,5.157-6.27,5.47-5.531c.2.481-.866,3.632-1.64,5.779.437-.334,12.369-6.956,13.178-5.8.777.6-6.347,5.632-6.347,5.632s5.53-1.842,3.565,1.853a3.858,3.858,0,0,1-.48.709,5.7,5.7,0,0,1-.937,1.147,2.641,2.641,0,0,1,1.529.9c.48.708-1.342,2.337-1.342,2.337l-11.492,8.639Z" transform="translate(1.942 1.723)" fill="#ffb16d"/>
            <path id="Trazado_874570" data-name="Trazado 874570" d="M84.386,93.11a.507.507,0,0,1-.281-.085l-3.513-2.342a.507.507,0,1,1,.563-.845l3.514,2.342a.508.508,0,0,1-.282.93" transform="translate(1.239 1.383)" fill="#371300"/>
            <path id="Trazado_874571" data-name="Trazado 874571" d="M88.686,93.6a.508.508,0,0,1-.244-.953,30.978,30.978,0,0,1,4.832-2.119.507.507,0,1,1,.327.961,30.122,30.122,0,0,0-4.673,2.05.51.51,0,0,1-.243.062" transform="translate(1.359 1.395)" fill="#371300"/>
            <path id="Trazado_874572" data-name="Trazado 874572" d="M87.567,105.245a.509.509,0,0,1-.417-.217,5.39,5.39,0,0,0-5.261-2.153.508.508,0,1,1-.187-1,6.442,6.442,0,0,1,6.281,2.57.508.508,0,0,1-.416.8" transform="translate(1.253 1.569)" fill="#371300"/>
            <g id="Grupo_1100546" data-name="Grupo 1100546" transform="translate(153.945 357.495)" opacity="0.7" style="mix-blend-mode: multiply;isolation: isolate">
              <g id="Grupo_1100545" data-name="Grupo 1100545">
                <g id="Grupo_1100544" data-name="Grupo 1100544" clip-path="url(#clip-path-9)">
                  <path id="Trazado_874573" data-name="Trazado 874573" d="M320.278,357.27c0,2.873-37.758,5.2-84.335,5.2s-84.335-2.328-84.335-5.2,37.758-5.2,84.335-5.2,84.335,2.328,84.335,5.2" transform="translate(-151.608 -352.069)" fill="#e9d3be"/>
                </g>
              </g>
            </g>
            <path id="Trazado_874574" data-name="Trazado 874574" d="M311.932,357.229l-2.051-2.482-30.3.028.788,2.453Z" transform="translate(4.309 5.467)" fill="#fff"/>
            <path id="Trazado_874575" data-name="Trazado 874575" d="M309.885,354.995l-11.666-16.126-11.83-.184,4.06,8.477s-13.013,3.451-10.861,7.861Z" transform="translate(4.305 5.22)" fill="#b54f0f"/>
            <path id="Trazado_874576" data-name="Trazado 874576" d="M298.113,338.868l-9.129-.141-2.7-.042,4.06,8.476,9.558-5.821Z" transform="translate(4.412 5.22)" fill="#913200"/>
            <path id="Trazado_874577" data-name="Trazado 874577" d="M191.324,357.229l-.107-2.482-30.319.028-1.133,2.453Z" transform="translate(2.462 5.467)" fill="#fff"/>
            <path id="Trazado_874578" data-name="Trazado 874578" d="M191.2,354.995l.967-16.126-11.686-.184-2.58,8.477s-15.718,3.451-17.019,7.861Z" transform="translate(2.479 5.22)" fill="#b54f0f"/>
            <path id="Trazado_874579" data-name="Trazado 874579" d="M191.725,341.715l-8.847-2.988-2.669-.042-1.684,5.53,12.952,1.635Z" transform="translate(2.751 5.22)" fill="#913200"/>
            <path id="Trazado_874580" data-name="Trazado 874580" d="M224.022,193.544l.336-7.1,55.163-3.772-3.177,88.313,28.985,69.355-21.52,9.554S250,283.732,247.683,276.546s-2.363-56.553-2.363-56.553L212.082,259.9l-15.15,87.458-25.541-3.669s12.166-90.251,14.449-95.27,38.182-54.876,38.182-54.876" transform="translate(2.641 2.815)" fill="#992d2a"/>
            <path id="Trazado_874581" data-name="Trazado 874581" d="M245.052,219.961l2.725-35.173-1.134.078-1.257,20.449-.005,0a.572.572,0,0,0-.1-.035c-.014,0-.026-.012-.041-.014a2.038,2.038,0,0,1-1.394-.892c-3.057-4.089-.714-18.992-.691-19.142a.529.529,0,0,0-.005-.127l-1.129.077c-.244,1.575-2.3,15.559.921,19.868a3.388,3.388,0,0,0,1.273,1.06l-39.74,49.476-.091.115-15.574,90.5,1.117.16,15.52-90.181,39.866-49.632-1.554,14.969Z" transform="translate(2.91 2.848)" fill="#6f261f"/>
            <path id="Trazado_874582" data-name="Trazado 874582" d="M299.071,342.468c-13.937-28.405-32.462-67.91-33.059-69.8-.49-1.909,1.968-41.128,4.2-74.068,0-.01,0-.02,0-.03.353-5.2.7-10.24,1.03-14.954a.554.554,0,0,0-.218-.472l-.747.051a.547.547,0,0,0-.16.342c-.13,1.872-.475,6.826-.929,13.49-2.381-3.593-3.124-9.229-3.315-13.53l-1.142.078c.214,4.87,1.143,11.427,4.342,15.164-1.723,25.38-4.794,72.2-4.142,74.263.7,2.211,23.437,50.216,33.1,69.925Z" transform="translate(4.08 2.823)" fill="#6f261f"/>
            <path id="Trazado_874583" data-name="Trazado 874583" d="M281.423,185.442l-59.606,4.209-2.576-55.418-3.977-19.238s11.242-11.149,30.685-11.656c8.246-.215,26.176,5.738,29.632,8.9l-1.151,29.169Z" transform="translate(3.318 1.593)" fill="#ff5d42"/>
            <path id="Trazado_874584" data-name="Trazado 874584" d="M224.33,61.787a49.8,49.8,0,0,0-.246,17.337c1.062,6.467,5.82-15.98,5.82-15.98Z" transform="translate(3.444 0.952)" fill="#371300"/>
            <path id="Trazado_874585" data-name="Trazado 874585" d="M225.534,79.647s-6.8-4.737-8.213,1.718c-1.555,7.1,8.3,5.26,8.3,5.26Z" transform="translate(3.347 1.202)" fill="#ffb16d"/>
            <path id="Trazado_874586" data-name="Trazado 874586" d="M225.938,69.8a16.463,16.463,0,0,1-6.132-18.032,98.961,98.961,0,0,1,25.5-8.41,13.886,13.886,0,0,0-.4,11.205,14.7,14.7,0,0,1,1.951-10.568,18.454,18.454,0,0,0,3.45,10.642,5.962,5.962,0,0,1,4.929,1.135,4.477,4.477,0,0,1,1.52,4.838,11.712,11.712,0,0,1,3.619,1.2,4.877,4.877,0,0,1,2.439,2.847,4.992,4.992,0,0,1-.221,2.985,14.787,14.787,0,0,1-1.411,2.688c1.956,2.488.317,6.763-2.3,10.248l-9.254,15.446Z" transform="translate(3.377 0.668)" fill="#371300"/>
            <path id="Trazado_874587" data-name="Trazado 874587" d="M248.126,106.485l4-19.154s7.475,2.811,8.245-3.341c.685-5.48-5.283-6.069-8.231-3.569,0,0,5.718-19.042-10.847-21.041-5.879-.709-10.4.444-12.991,4.09-1.3,1.831-1.542,3.257-2.363,7.444a130.768,130.768,0,0,0-2.238,14.711c-.389,9.692,6.437,14.544,11.452,15.169l-.556,5.933s-.547,5.191,4.336,5.526c6.508.447,9.189-5.769,9.189-5.769" transform="translate(3.447 0.912)" fill="#ffb16d"/>
            <path id="Trazado_874588" data-name="Trazado 874588" d="M232.156,78.166a1.786,1.786,0,1,1-1.974-1.574,1.786,1.786,0,0,1,1.974,1.574" transform="translate(3.523 1.18)" fill="#371300"/>
            <path id="Trazado_874589" data-name="Trazado 874589" d="M240.22,78.54a1.785,1.785,0,1,1-1.974-1.574,1.785,1.785,0,0,1,1.974,1.574" transform="translate(3.647 1.186)" fill="#371300"/>
            <path id="Trazado_874590" data-name="Trazado 874590" d="M252.892,84.443a.429.429,0,0,1-.344-.47,3.466,3.466,0,0,1,4.96-2.726.429.429,0,0,1-.375.773,2.609,2.609,0,0,0-3.733,2.05.429.429,0,0,1-.475.379l-.034-.005" transform="translate(3.892 1.247)" fill="#371300"/>
            <path id="Trazado_874591" data-name="Trazado 874591" d="M255.141,83.919a.426.426,0,0,1-.267-.172l-1.026-1.426a.43.43,0,1,1,.7-.5l1.025,1.428a.429.429,0,0,1-.43.671" transform="translate(3.911 1.258)" fill="#371300"/>
            <path id="Trazado_874592" data-name="Trazado 874592" d="M241.468,85.048a2.569,2.569,0,1,0,1.79-3.163,2.57,2.57,0,0,0-1.79,3.163" transform="translate(3.72 1.261)" fill="#ff7652"/>
            <path id="Trazado_874593" data-name="Trazado 874593" d="M225.016,83.872a2.569,2.569,0,1,0,1.79-3.163,2.57,2.57,0,0,0-1.79,3.163" transform="translate(3.466 1.242)" fill="#ff7652"/>
            <path id="Trazado_874594" data-name="Trazado 874594" d="M232.095,83.8a.432.432,0,0,1-.307-.238,1.672,1.672,0,0,1-.068-1.518,2,2,0,0,1,1.18-.921l1.243-3.273a.429.429,0,1,1,.8.3l-1.32,3.477a.429.429,0,0,1-.317.268,1.3,1.3,0,0,0-.82.531.873.873,0,0,0,.076.763.429.429,0,0,1-.2.573.423.423,0,0,1-.265.034" transform="translate(3.569 1.196)" fill="#371300"/>
            <path id="Trazado_874595" data-name="Trazado 874595" d="M225.231,193.148a.439.439,0,0,1-.212-.109.43.43,0,0,1-.018-.607l2.946-3.127a.429.429,0,1,1,.624.589l-2.945,3.126a.428.428,0,0,1-.395.128" transform="translate(3.466 2.915)" fill="#12122a"/>
            <path id="Trazado_874596" data-name="Trazado 874596" d="M232.06,90.277a4.093,4.093,0,0,1,7.228-3.778Z" transform="translate(3.572 1.304)" fill="#fff"/>
            <path id="Trazado_874597" data-name="Trazado 874597" d="M233.222,75.635a.48.48,0,0,1-.084-.007,12.26,12.26,0,0,1-4.625-1.793.508.508,0,1,1,.552-.852,11.241,11.241,0,0,0,4.239,1.644.508.508,0,0,1-.082,1.008" transform="translate(3.518 1.124)" fill="#371300"/>
            <path id="Trazado_874598" data-name="Trazado 874598" d="M236,75.614a.507.507,0,0,1-.239-.956l5.3-2.822a.508.508,0,0,1,.477.9l-5.3,2.821a.5.5,0,0,1-.238.06" transform="translate(3.629 1.106)" fill="#371300"/>
            <path id="Trazado_874599" data-name="Trazado 874599" d="M252.146,80.457c-1.6,1.768-1.841,3.926-3.513,3.095-2.168-1.076-3.185-8.526-3.336-14.072,0,0-11.92,2.02-19.758-1.413s9.337-13.022,16.924-10.77a25.019,25.019,0,0,1,11.922,8.092l.79,7.5Z" transform="translate(3.445 0.878)" fill="#371300"/>
            <path id="Trazado_874600" data-name="Trazado 874600" d="M244.458,99.412a27.442,27.442,0,0,1-9.471.763l-.188,2c4.608.521,9.659-2.758,9.659-2.758" transform="translate(3.619 1.532)" fill="#ff7652"/>
            <path id="Trazado_874601" data-name="Trazado 874601" d="M172.514,129.966l-.936-3.673s-1.546-7.467-2.758-8.6-5.36-6.933-5.722-6.145c-.236.512.816,3.947,1.581,6.288-.46-.375-.961-.774-1.514-1.205-.789-.614-12.532-8.385-13.443-7.161-.858.627,6.7,7.793,6.7,7.793s-5.019-2-3.019,2.055a4.107,4.107,0,0,0,.5.781,6.152,6.152,0,0,0,.973,1.269,2.845,2.845,0,0,0-1.678.92c-.542.747,1.371,2.566,1.371,2.566l12.12,9.7Z" transform="translate(2.306 1.685)" fill="#ffb16d"/>
            <path id="Trazado_874602" data-name="Trazado 874602" d="M216.126,114.818c-4.175,5.172-18.8,44.8-18.8,44.8l-23.491-35.393-14.5,9.361s21.746,51.745,42.253,47.586,33.3-49.366,33.3-49.366Z" transform="translate(2.456 1.77)" fill="#ff5d42"/>
            <path id="Trazado_874603" data-name="Trazado 874603" d="M226.607,184.64l-3.746.577s-7.582.818-8.83,1.915-7.419,4.665-6.669,5.1c.487.284,4.007-.431,6.412-.966-.417.421-.863.881-1.346,1.39-.687.726-7.805,8.813-6.674,9.838.54.914,3.479-.858,3.479-.858s.7,2.591,4.929.992a4.168,4.168,0,0,0,.825-.417,6.18,6.18,0,0,0,1.358-.847,2.851,2.851,0,0,0,.752,1.761c.693.611,2.687-1.117,2.687-1.117l10.822-11.127Z" transform="translate(3.169 2.846)" fill="#ffb16d"/>
            <path id="Trazado_874604" data-name="Trazado 874604" d="M275.55,112.105c4.574,2.6,23.115,49.245,18.944,57.441s-66.052,28.179-66.052,28.179l-11.173-14.331,53.816-23.731Z" transform="translate(3.348 1.728)" fill="#ff5d42"/>
            <path id="Trazado_874605" data-name="Trazado 874605" d="M225.6,180.251a.564.564,0,0,1-.237-1.076l47.306-21.849-5.846-28.735a.564.564,0,1,1,1.1-.225l6.024,29.61L225.831,180.2a.555.555,0,0,1-.236.052m-4.942-20.984a.564.564,0,0,0,.542-.586l-1.447-37.812a.572.572,0,0,0-.586-.541.564.564,0,0,0-.541.586l1.447,37.811a.564.564,0,0,0,.563.542ZM240.806,115.9c3.806-.48,7.536-2.827,10.505-6.608a.564.564,0,1,0-.886-.7c-2.785,3.546-6.252,5.742-9.76,6.185-3.539.45-8.026-1.333-9.385-5.088a.564.564,0,1,0-1.061.383c1.276,3.526,5.113,5.909,9.248,5.909a10.83,10.83,0,0,0,1.339-.083m23.964,69.375a61.452,61.452,0,0,0,13.669-5.487.564.564,0,1,0-.543-.989,60.314,60.314,0,0,1-13.419,5.386.564.564,0,0,0,.146,1.109.606.606,0,0,0,.146-.018" transform="translate(3.369 1.67)" fill="#de4b2c"/>
            <path id="Trazado_874606" data-name="Trazado 874606" d="M137.22,23.474a36.61,36.61,0,0,0-19.686,67.48l-3.468,11.46,8.882-8.6A36.619,36.619,0,1,0,137.22,23.474" transform="translate(1.55 0.362)" fill="#992d2a"/>
            <path id="Trazado_874607" data-name="Trazado 874607" d="M140.241,75.143a5.3,5.3,0,1,1,5.3,5.3,5.329,5.329,0,0,1-5.3-5.3m.278-23.358V40.637h10.034V51.785l-1.672,13.938h-6.69Zm-17.6,23.358a5.3,5.3,0,1,1,5.3,5.3,5.33,5.33,0,0,1-5.3-5.3m.278-23.358V40.637h10.034V51.785l-1.672,13.938h-6.69Z" transform="translate(1.894 0.626)" fill="#371300"/>
            <path id="Trazado_874608" data-name="Trazado 874608" d="M148.527,25.435l.184.4-9.017,5.414,9.018,5.414-4.356,9.568,10.563-.218.657,10.531,9.536-4.582,4.516,9.559,3.537-3.621a36.626,36.626,0,0,0-24.637-32.47" transform="translate(2.153 0.392)" fill="#371300"/>
            <path id="Trazado_874609" data-name="Trazado 874609" d="M140.718,30.272l9.017-5.414-4.355-9.567,10.562.218L156.6,4.979l9.537,4.581L170.652,0l7.394,7.573L185.442,0l4.516,9.56,9.536-4.582.657,10.53,10.563-.218-4.356,9.568,9.018,5.414-9.017,5.414,4.355,9.567-10.562-.218-.658,10.531-6.564-3.153c.418,4.1,6.4,27.545,6.4,27.545l-11.2-25.1-2.687,5.688-7.394-7.572-7.4,7.572-4.516-9.559L156.6,55.567l-.657-10.531-10.563.218,4.355-9.568Z" transform="translate(2.169)" fill="gold"/>
            <path id="Trazado_874610" data-name="Trazado 874610" d="M180.269,41.382a4.129,4.129,0,1,1,4.129,4.129,4.155,4.155,0,0,1-4.129-4.129m.217-18.211V14.479h7.823v8.692l-1.3,10.867H181.79ZM166.763,41.382a4.129,4.129,0,1,1,4.13,4.129,4.155,4.155,0,0,1-4.13-4.129m.217-18.211V14.479H174.8v8.692l-1.3,10.867h-5.216Z" transform="translate(2.57 0.223)" fill="#fff"/>
            <path id="Trazado_874611" data-name="Trazado 874611" d="M101.237,53.138A18.349,18.349,0,0,0,112.615,32.82a36.551,36.551,0,0,0-11.378,20.318" transform="translate(1.56 0.506)" fill="#371300"/>
            <path id="Trazado_874612" data-name="Trazado 874612" d="M113.8,34.022A18.508,18.508,0,1,1,95.295,15.513,18.508,18.508,0,0,1,113.8,34.022" transform="translate(1.183 0.239)" fill="#ffe5c9"/>
            <path id="Trazado_874613" data-name="Trazado 874613" d="M105.723,39.185,100.439,33.9l5.284-5.284-5.264-5.264-5.284,5.284L89.89,23.353l-5.264,5.264L89.91,33.9l-5.284,5.284,5.264,5.264,5.285-5.284,5.284,5.284Z" transform="translate(1.304 0.36)" fill="#ff5d42"/>
          </g>
        </g>
      </g>
    </g>
    <rect id="Rectángulo_402400" data-name="Rectángulo 402400" width="158" height="30" rx="15" transform="translate(317 9329)" fill="#ffb937"/>
    <rect id="Rectángulo_402405" data-name="Rectángulo 402405" width="158" height="30" rx="15" transform="translate(514 8917)" fill="#ffb937"/>
    <rect id="Rectángulo_402402" data-name="Rectángulo 402402" width="158" height="30" rx="15" transform="translate(711 9329)" fill="#ffb937"/>
    <rect id="Rectángulo_402406" data-name="Rectángulo 402406" width="158" height="30" rx="15" transform="translate(908 8917)" fill="#ffb937"/>
    <rect id="Rectángulo_402404" data-name="Rectángulo 402404" width="158" height="30" rx="15" transform="translate(1105 9329)" fill="#ffb937"/>
    <path id="Trazado_875603" data-name="Trazado 875603" d="M12.59,15H10.7V5.862L7.91,6.813V5.219l4.438-1.633h.242Zm5.258-2a1.084,1.084,0,0,1,.82.3,1.045,1.045,0,0,1,.289.754,1.008,1.008,0,0,1-.289.738,1.28,1.28,0,0,1-1.625,0,.991.991,0,0,1-.3-.742,1.045,1.045,0,0,1,.289-.754A1.074,1.074,0,0,1,17.848,13Zm14.008-2.82H27.277V15H25.3V3.625h7.227V5.219h-5.25V8.6h4.578ZM38.691,15a2.93,2.93,0,0,1-.219-.789,3.193,3.193,0,0,1-4.3.219,2.325,2.325,0,0,1-.8-1.8,2.4,2.4,0,0,1,1-2.074,4.865,4.865,0,0,1,2.871-.723H38.41V9.281a1.481,1.481,0,0,0-.367-1.051,1.456,1.456,0,0,0-1.117-.395,1.672,1.672,0,0,0-1.062.324,1,1,0,0,0-.414.824h-1.9a2.107,2.107,0,0,1,.461-1.3,3.071,3.071,0,0,1,1.254-.949,4.4,4.4,0,0,1,1.77-.344,3.547,3.547,0,0,1,2.367.746,2.661,2.661,0,0,1,.906,2.1v3.813a4.321,4.321,0,0,0,.32,1.82V15Zm-2.086-1.367a2.159,2.159,0,0,0,1.059-.273,1.827,1.827,0,0,0,.746-.734V11.031H37.387A2.8,2.8,0,0,0,35.8,11.4a1.189,1.189,0,0,0-.531,1.039,1.109,1.109,0,0,0,.363.871A1.407,1.407,0,0,0,36.605,13.633Zm9.164.008a1.716,1.716,0,0,0,1.18-.414,1.415,1.415,0,0,0,.5-1.023h1.789a2.789,2.789,0,0,1-.492,1.473,3.228,3.228,0,0,1-1.25,1.082,3.725,3.725,0,0,1-1.7.4,3.6,3.6,0,0,1-2.812-1.148,4.555,4.555,0,0,1-1.039-3.172v-.2a4.479,4.479,0,0,1,1.031-3.09,3.571,3.571,0,0,1,2.813-1.16,3.473,3.473,0,0,1,2.457.879,3.148,3.148,0,0,1,1,2.309H47.449a1.738,1.738,0,0,0-.5-1.2,1.6,1.6,0,0,0-1.184-.469,1.671,1.671,0,0,0-1.422.668,3.408,3.408,0,0,0-.508,2.027v.3a3.465,3.465,0,0,0,.5,2.051A1.669,1.669,0,0,0,45.77,13.641ZM52.691,15h-1.9V6.547h1.9ZM50.676,4.352a1.008,1.008,0,0,1,.277-.727,1.048,1.048,0,0,1,.793-.289,1.061,1.061,0,0,1,.8.289,1,1,0,0,1,.281.727.977.977,0,0,1-.281.715,1.069,1.069,0,0,1-.8.285,1.056,1.056,0,0,1-.793-.285A.984.984,0,0,1,50.676,4.352ZM56.777,15h-1.9V3h1.9Zm4.086,0h-1.9V6.547h1.9ZM58.848,4.352a1.008,1.008,0,0,1,.277-.727,1.048,1.048,0,0,1,.793-.289,1.061,1.061,0,0,1,.8.289A1,1,0,0,1,61,4.352a.977.977,0,0,1-.281.715,1.069,1.069,0,0,1-.8.285,1.056,1.056,0,0,1-.793-.285A.984.984,0,0,1,58.848,4.352Zm6.461.141V6.547H66.8V7.953H65.309v4.719a1.039,1.039,0,0,0,.191.7.888.888,0,0,0,.684.215,2.925,2.925,0,0,0,.664-.078v1.469a4.676,4.676,0,0,1-1.25.18q-2.188,0-2.187-2.414V7.953H62.02V6.547H63.41V4.492ZM73.3,15a2.93,2.93,0,0,1-.219-.789,3.193,3.193,0,0,1-4.3.219,2.325,2.325,0,0,1-.8-1.8,2.4,2.4,0,0,1,1-2.074,4.865,4.865,0,0,1,2.871-.723H73.02V9.281a1.481,1.481,0,0,0-.367-1.051,1.456,1.456,0,0,0-1.117-.395,1.672,1.672,0,0,0-1.062.324,1,1,0,0,0-.414.824h-1.9a2.107,2.107,0,0,1,.461-1.3,3.071,3.071,0,0,1,1.254-.949,4.4,4.4,0,0,1,1.77-.344,3.547,3.547,0,0,1,2.367.746,2.661,2.661,0,0,1,.906,2.1v3.813a4.321,4.321,0,0,0,.32,1.82V15Zm-2.086-1.367a2.159,2.159,0,0,0,1.059-.273,1.827,1.827,0,0,0,.746-.734V11.031H72a2.8,2.8,0,0,0-1.586.367,1.189,1.189,0,0,0-.531,1.039,1.109,1.109,0,0,0,.363.871A1.407,1.407,0,0,0,71.215,13.633Zm9.164.008a1.716,1.716,0,0,0,1.18-.414,1.415,1.415,0,0,0,.5-1.023h1.789a2.789,2.789,0,0,1-.492,1.473,3.228,3.228,0,0,1-1.25,1.082,3.725,3.725,0,0,1-1.7.4,3.6,3.6,0,0,1-2.812-1.148,4.555,4.555,0,0,1-1.039-3.172v-.2a4.479,4.479,0,0,1,1.031-3.09,3.571,3.571,0,0,1,2.813-1.16,3.473,3.473,0,0,1,2.457.879,3.148,3.148,0,0,1,1,2.309H82.059a1.738,1.738,0,0,0-.5-1.2,1.6,1.6,0,0,0-1.184-.469,1.671,1.671,0,0,0-1.422.668,3.408,3.408,0,0,0-.508,2.027v.3a3.465,3.465,0,0,0,.5,2.051A1.669,1.669,0,0,0,80.379,13.641ZM87.3,15H85.4V6.547h1.9ZM85.285,4.352a1.008,1.008,0,0,1,.277-.727,1.048,1.048,0,0,1,.793-.289,1.061,1.061,0,0,1,.8.289,1,1,0,0,1,.281.727.977.977,0,0,1-.281.715,1.069,1.069,0,0,1-.8.285,1.056,1.056,0,0,1-.793-.285A.984.984,0,0,1,85.285,4.352ZM89.012,10.7A4.984,4.984,0,0,1,89.5,8.457a3.6,3.6,0,0,1,1.383-1.531,3.9,3.9,0,0,1,2.047-.535,3.692,3.692,0,0,1,2.777,1.1,4.333,4.333,0,0,1,1.152,2.922l.008.445a5.029,5.029,0,0,1-.48,2.234,3.551,3.551,0,0,1-1.375,1.523,3.925,3.925,0,0,1-2.066.539,3.667,3.667,0,0,1-2.863-1.191,4.563,4.563,0,0,1-1.074-3.176Zm1.9.164a3.406,3.406,0,0,0,.539,2.043,1.752,1.752,0,0,0,1.5.738,1.733,1.733,0,0,0,1.5-.75,3.762,3.762,0,0,0,.535-2.2,3.362,3.362,0,0,0-.551-2.031,1.856,1.856,0,0,0-2.973-.012A3.691,3.691,0,0,0,90.91,10.859ZM93.457,3h2.164L93.457,5.367l-1.523,0Zm6.781,3.547.055.977a3.039,3.039,0,0,1,2.461-1.133q2.641,0,2.688,3.023V15h-1.9V9.523a1.741,1.741,0,0,0-.348-1.191,1.462,1.462,0,0,0-1.137-.387,1.829,1.829,0,0,0-1.711,1.039V15h-1.9V6.547Z" transform="translate(340 9335)" fill="#12263f"/>
    <path id="Trazado_875601" data-name="Trazado 875601" d="M18.809,15H11.16V13.7l3.789-4.133a9.436,9.436,0,0,0,1.168-1.527,2.475,2.475,0,0,0,.348-1.23,1.87,1.87,0,0,0-.457-1.312,1.585,1.585,0,0,0-1.23-.5,1.827,1.827,0,0,0-1.43.563,2.212,2.212,0,0,0-.508,1.539h-1.9a3.721,3.721,0,0,1,.473-1.871A3.255,3.255,0,0,1,12.766,3.93a4.3,4.3,0,0,1,2.027-.461,3.848,3.848,0,0,1,2.613.832,2.888,2.888,0,0,1,.957,2.3,3.9,3.9,0,0,1-.48,1.785,10.151,10.151,0,0,1-1.574,2.121l-2.781,2.977h5.281Zm2.75-2a1.084,1.084,0,0,1,.82.3,1.045,1.045,0,0,1,.289.754,1.008,1.008,0,0,1-.289.738,1.28,1.28,0,0,1-1.625,0,.991.991,0,0,1-.3-.742,1.045,1.045,0,0,1,.289-.754A1.074,1.074,0,0,1,21.559,13ZM31.574,3.625l3.281,8.719,3.273-8.719h2.555V15H38.715V11.25l.2-5.016L35.551,15H34.137L30.785,6.242l.2,5.008V15H29.012V3.625ZM46.559,15.156a3.928,3.928,0,0,1-2.926-1.137,4.124,4.124,0,0,1-1.121-3.027v-.234A5.072,5.072,0,0,1,43,8.5a3.716,3.716,0,0,1,1.371-1.551,3.625,3.625,0,0,1,1.969-.555,3.318,3.318,0,0,1,2.668,1.1,4.658,4.658,0,0,1,.941,3.117v.766H44.426a2.539,2.539,0,0,0,.7,1.656,2.1,2.1,0,0,0,1.543.609,2.571,2.571,0,0,0,2.125-1.055l1.023.977a3.418,3.418,0,0,1-1.355,1.176A4.244,4.244,0,0,1,46.559,15.156Zm-.227-7.242a1.6,1.6,0,0,0-1.262.547,2.835,2.835,0,0,0-.613,1.523h3.617V9.844A2.307,2.307,0,0,0,47.566,8.4,1.586,1.586,0,0,0,46.332,7.914Zm4.734,2.8a5.026,5.026,0,0,1,.906-3.137A2.9,2.9,0,0,1,54.4,6.391a2.759,2.759,0,0,1,2.172.938V3h1.9V15H56.754l-.094-.875a2.8,2.8,0,0,1-2.273,1.031,2.887,2.887,0,0,1-2.4-1.2A5.21,5.21,0,0,1,51.066,10.711Zm1.9.164a3.519,3.519,0,0,0,.5,2.012,1.61,1.61,0,0,0,1.41.723,1.793,1.793,0,0,0,1.7-1.039V8.961a1.766,1.766,0,0,0-1.687-1.016,1.622,1.622,0,0,0-1.422.73A3.919,3.919,0,0,0,52.965,10.875ZM62.473,15h-1.9V6.547h1.9ZM60.457,4.352a1.008,1.008,0,0,1,.277-.727,1.048,1.048,0,0,1,.793-.289,1.061,1.061,0,0,1,.8.289,1,1,0,0,1,.281.727.977.977,0,0,1-.281.715,1.069,1.069,0,0,1-.8.285,1.056,1.056,0,0,1-.793-.285A.984.984,0,0,1,60.457,4.352ZM69.59,15a2.93,2.93,0,0,1-.219-.789,3.193,3.193,0,0,1-4.3.219,2.325,2.325,0,0,1-.8-1.8,2.4,2.4,0,0,1,1-2.074,4.865,4.865,0,0,1,2.871-.723h1.164V9.281a1.481,1.481,0,0,0-.367-1.051,1.456,1.456,0,0,0-1.117-.395,1.672,1.672,0,0,0-1.062.324,1,1,0,0,0-.414.824h-1.9a2.107,2.107,0,0,1,.461-1.3,3.071,3.071,0,0,1,1.254-.949,4.4,4.4,0,0,1,1.77-.344,3.547,3.547,0,0,1,2.367.746,2.661,2.661,0,0,1,.906,2.1v3.813a4.321,4.321,0,0,0,.32,1.82V15ZM67.5,13.633a2.159,2.159,0,0,0,1.059-.273,1.827,1.827,0,0,0,.746-.734V11.031H68.285A2.8,2.8,0,0,0,66.7,11.4a1.189,1.189,0,0,0-.531,1.039,1.109,1.109,0,0,0,.363.871A1.407,1.407,0,0,0,67.5,13.633Zm9.164.008a1.716,1.716,0,0,0,1.18-.414,1.415,1.415,0,0,0,.5-1.023h1.789a2.789,2.789,0,0,1-.492,1.473,3.228,3.228,0,0,1-1.25,1.082,3.725,3.725,0,0,1-1.7.4,3.6,3.6,0,0,1-2.812-1.148,4.555,4.555,0,0,1-1.039-3.172v-.2a4.479,4.479,0,0,1,1.031-3.09,3.571,3.571,0,0,1,2.813-1.16,3.473,3.473,0,0,1,2.457.879,3.148,3.148,0,0,1,1,2.309H78.348a1.738,1.738,0,0,0-.5-1.2,1.6,1.6,0,0,0-1.184-.469,1.671,1.671,0,0,0-1.422.668,3.408,3.408,0,0,0-.508,2.027v.3a3.465,3.465,0,0,0,.5,2.051A1.669,1.669,0,0,0,76.668,13.641ZM83.59,15h-1.9V6.547h1.9ZM81.574,4.352a1.008,1.008,0,0,1,.277-.727,1.048,1.048,0,0,1,.793-.289,1.061,1.061,0,0,1,.8.289,1,1,0,0,1,.281.727.977.977,0,0,1-.281.715,1.069,1.069,0,0,1-.8.285,1.056,1.056,0,0,1-.793-.285A.984.984,0,0,1,81.574,4.352ZM85.3,10.7a4.984,4.984,0,0,1,.492-2.238,3.6,3.6,0,0,1,1.383-1.531,3.9,3.9,0,0,1,2.047-.535A3.692,3.692,0,0,1,92,7.492a4.333,4.333,0,0,1,1.152,2.922l.008.445a5.029,5.029,0,0,1-.48,2.234A3.551,3.551,0,0,1,91.3,14.617a3.925,3.925,0,0,1-2.066.539,3.667,3.667,0,0,1-2.863-1.191A4.563,4.563,0,0,1,85.3,10.789Zm1.9.164a3.406,3.406,0,0,0,.539,2.043,1.752,1.752,0,0,0,1.5.738,1.733,1.733,0,0,0,1.5-.75,3.762,3.762,0,0,0,.535-2.2,3.362,3.362,0,0,0-.551-2.031,1.856,1.856,0,0,0-2.973-.012A3.691,3.691,0,0,0,87.2,10.859ZM89.746,3H91.91L89.746,5.367l-1.523,0Zm6.781,3.547.055.977a3.039,3.039,0,0,1,2.461-1.133q2.641,0,2.688,3.023V15h-1.9V9.523a1.741,1.741,0,0,0-.348-1.191,1.462,1.462,0,0,0-1.137-.387,1.829,1.829,0,0,0-1.711,1.039V15h-1.9V6.547Z" transform="translate(537 8923)" fill="#12263f"/>
    <path id="Trazado_875604" data-name="Trazado 875604" d="M27.625,8.445h1.156a2.069,2.069,0,0,0,1.387-.453A1.617,1.617,0,0,0,30.68,6.7a1.762,1.762,0,0,0-.426-1.262,1.714,1.714,0,0,0-1.3-.449,1.813,1.813,0,0,0-1.258.441A1.475,1.475,0,0,0,27.2,6.586H25.3a2.874,2.874,0,0,1,.465-1.594,3.123,3.123,0,0,1,1.3-1.121,4.225,4.225,0,0,1,1.863-.4,3.912,3.912,0,0,1,2.676.855A3,3,0,0,1,32.578,6.7a2.417,2.417,0,0,1-.488,1.441,3.062,3.062,0,0,1-1.262,1.02,2.791,2.791,0,0,1,1.426,1.008,2.759,2.759,0,0,1,.488,1.641,3.055,3.055,0,0,1-1.051,2.438,4.08,4.08,0,0,1-2.762.906,4.049,4.049,0,0,1-2.687-.875A2.882,2.882,0,0,1,25.2,11.953h1.9a1.588,1.588,0,0,0,.5,1.219,1.911,1.911,0,0,0,1.355.469,1.971,1.971,0,0,0,1.391-.469,1.758,1.758,0,0,0,.508-1.359,1.776,1.776,0,0,0-.531-1.383,2.271,2.271,0,0,0-1.578-.484H27.625ZM35.828,13a1.084,1.084,0,0,1,.82.3,1.045,1.045,0,0,1,.289.754,1.008,1.008,0,0,1-.289.738,1.28,1.28,0,0,1-1.625,0,.991.991,0,0,1-.3-.742,1.045,1.045,0,0,1,.289-.754A1.074,1.074,0,0,1,35.828,13Zm9.539,2H43.4V3.625h1.969Zm4.008-8.453.055.977a3.039,3.039,0,0,1,2.461-1.133q2.641,0,2.688,3.023V15h-1.9V9.523a1.741,1.741,0,0,0-.348-1.191A1.462,1.462,0,0,0,51.2,7.945a1.829,1.829,0,0,0-1.711,1.039V15h-1.9V6.547Zm6.781,4.164a5.026,5.026,0,0,1,.906-3.137,2.9,2.9,0,0,1,2.43-1.184,2.759,2.759,0,0,1,2.172.938V3h1.9V15H61.844l-.094-.875a2.8,2.8,0,0,1-2.273,1.031,2.887,2.887,0,0,1-2.4-1.2A5.21,5.21,0,0,1,56.156,10.711Zm1.9.164a3.519,3.519,0,0,0,.5,2.012,1.61,1.61,0,0,0,1.41.723,1.793,1.793,0,0,0,1.7-1.039V8.961a1.766,1.766,0,0,0-1.687-1.016,1.622,1.622,0,0,0-1.422.73A3.919,3.919,0,0,0,58.055,10.875ZM70.594,15a2.93,2.93,0,0,1-.219-.789,3.193,3.193,0,0,1-4.3.219,2.325,2.325,0,0,1-.8-1.8,2.4,2.4,0,0,1,1-2.074,4.865,4.865,0,0,1,2.871-.723h1.164V9.281a1.481,1.481,0,0,0-.367-1.051,1.456,1.456,0,0,0-1.117-.395,1.672,1.672,0,0,0-1.062.324,1,1,0,0,0-.414.824h-1.9a2.107,2.107,0,0,1,.461-1.3,3.071,3.071,0,0,1,1.254-.949,4.4,4.4,0,0,1,1.77-.344,3.547,3.547,0,0,1,2.367.746,2.661,2.661,0,0,1,.906,2.1v3.813a4.321,4.321,0,0,0,.32,1.82V15Zm-2.086-1.367a2.159,2.159,0,0,0,1.059-.273,1.827,1.827,0,0,0,.746-.734V11.031H69.289A2.8,2.8,0,0,0,67.7,11.4a1.189,1.189,0,0,0-.531,1.039,1.109,1.109,0,0,0,.363.871A1.407,1.407,0,0,0,68.508,13.633Zm5.359-2.922a4.944,4.944,0,0,1,.926-3.145A2.971,2.971,0,0,1,77.25,6.391,2.784,2.784,0,0,1,79.523,7.4l.086-.852H81.32v8.2a3.406,3.406,0,0,1-1.035,2.625,3.943,3.943,0,0,1-2.793.961,4.5,4.5,0,0,1-1.816-.387,3.227,3.227,0,0,1-1.348-1.012l.9-1.141a2.713,2.713,0,0,0,2.156,1.039,2.1,2.1,0,0,0,1.492-.512,1.961,1.961,0,0,0,.547-1.5v-.57a2.8,2.8,0,0,1-2.187.914,2.964,2.964,0,0,1-2.426-1.18A5.1,5.1,0,0,1,73.867,10.711Zm1.891.164a3.4,3.4,0,0,0,.52,2,1.671,1.671,0,0,0,1.441.73,1.827,1.827,0,0,0,1.7-.984V8.906a1.8,1.8,0,0,0-1.687-.961,1.677,1.677,0,0,0-1.457.742A3.811,3.811,0,0,0,75.758,10.875ZM88.32,15a2.93,2.93,0,0,1-.219-.789,3.193,3.193,0,0,1-4.3.219,2.325,2.325,0,0,1-.8-1.8,2.4,2.4,0,0,1,1-2.074,4.865,4.865,0,0,1,2.871-.723h1.164V9.281a1.481,1.481,0,0,0-.367-1.051,1.456,1.456,0,0,0-1.117-.395,1.672,1.672,0,0,0-1.062.324,1,1,0,0,0-.414.824h-1.9a2.107,2.107,0,0,1,.461-1.3,3.071,3.071,0,0,1,1.254-.949,4.4,4.4,0,0,1,1.77-.344,3.547,3.547,0,0,1,2.367.746,2.661,2.661,0,0,1,.906,2.1v3.813a4.321,4.321,0,0,0,.32,1.82V15Zm-2.086-1.367a2.159,2.159,0,0,0,1.059-.273,1.827,1.827,0,0,0,.746-.734V11.031H87.016a2.8,2.8,0,0,0-1.586.367,1.189,1.189,0,0,0-.531,1.039,1.109,1.109,0,0,0,.363.871A1.407,1.407,0,0,0,86.234,13.633Zm9.164.008a1.716,1.716,0,0,0,1.18-.414,1.415,1.415,0,0,0,.5-1.023h1.789a2.789,2.789,0,0,1-.492,1.473,3.228,3.228,0,0,1-1.25,1.082,3.725,3.725,0,0,1-1.7.4,3.6,3.6,0,0,1-2.812-1.148,4.555,4.555,0,0,1-1.039-3.172v-.2A4.479,4.479,0,0,1,92.6,7.551a3.571,3.571,0,0,1,2.813-1.16,3.473,3.473,0,0,1,2.457.879,3.148,3.148,0,0,1,1,2.309H97.078a1.738,1.738,0,0,0-.5-1.2A1.6,1.6,0,0,0,95.4,7.914a1.671,1.671,0,0,0-1.422.668,3.408,3.408,0,0,0-.508,2.027v.3a3.465,3.465,0,0,0,.5,2.051A1.669,1.669,0,0,0,95.4,13.641ZM102.32,15h-1.9V6.547h1.9ZM100.3,4.352a1.008,1.008,0,0,1,.277-.727,1.048,1.048,0,0,1,.793-.289,1.061,1.061,0,0,1,.8.289,1,1,0,0,1,.281.727.977.977,0,0,1-.281.715,1.069,1.069,0,0,1-.8.285,1.056,1.056,0,0,1-.793-.285A.984.984,0,0,1,100.3,4.352Zm3.727,6.344a4.984,4.984,0,0,1,.492-2.238,3.6,3.6,0,0,1,1.383-1.531,3.9,3.9,0,0,1,2.047-.535,3.692,3.692,0,0,1,2.777,1.1,4.333,4.333,0,0,1,1.152,2.922l.008.445a5.029,5.029,0,0,1-.48,2.234,3.551,3.551,0,0,1-1.375,1.523,3.925,3.925,0,0,1-2.066.539,3.667,3.667,0,0,1-2.863-1.191,4.563,4.563,0,0,1-1.074-3.176Zm1.9.164a3.406,3.406,0,0,0,.539,2.043,1.752,1.752,0,0,0,1.5.738,1.733,1.733,0,0,0,1.5-.75A3.762,3.762,0,0,0,110,10.7a3.362,3.362,0,0,0-.551-2.031,1.856,1.856,0,0,0-2.973-.012A3.691,3.691,0,0,0,105.93,10.859ZM108.477,3h2.164l-2.164,2.367-1.523,0Zm6.781,3.547.055.977a3.039,3.039,0,0,1,2.461-1.133q2.641,0,2.688,3.023V15h-1.9V9.523a1.741,1.741,0,0,0-.348-1.191,1.462,1.462,0,0,0-1.137-.387,1.829,1.829,0,0,0-1.711,1.039V15h-1.9V6.547Z" transform="translate(717 9335)" fill="#12263f"/>
    <path id="Trazado_875602" data-name="Trazado 875602" d="M24.336,10.945H25.75v1.523H24.336V15h-1.9V12.469H17.523l-.055-1.156,4.906-7.687h1.961Zm-4.875,0h2.977V6.2l-.141.25ZM28.313,13a1.084,1.084,0,0,1,.82.3,1.045,1.045,0,0,1,.289.754,1.008,1.008,0,0,1-.289.738,1.28,1.28,0,0,1-1.625,0,.991.991,0,0,1-.3-.742A1.045,1.045,0,0,1,27.5,13.3,1.074,1.074,0,0,1,28.313,13Zm13.82-.648H37.727L36.8,15H34.75l4.3-11.375H40.82L45.125,15H43.063Zm-3.852-1.594h3.3L39.93,6.039ZM50.656,8.281a4.7,4.7,0,0,0-.773-.062,1.741,1.741,0,0,0-1.758,1V15h-1.9V6.547h1.813l.047.945a2.139,2.139,0,0,1,1.906-1.1,1.777,1.777,0,0,1,.672.109Zm8.617,2.578a5.078,5.078,0,0,1-.879,3.133,2.863,2.863,0,0,1-2.418,1.164,2.758,2.758,0,0,1-2.312-1.07L53.57,15H51.852V3h1.9V7.359a2.748,2.748,0,0,1,2.211-.969,2.9,2.9,0,0,1,2.43,1.148,5.162,5.162,0,0,1,.883,3.211Zm-1.9-.164a3.589,3.589,0,0,0-.484-2.062,1.613,1.613,0,0,0-1.406-.687A1.763,1.763,0,0,0,53.75,9.023v3.484a1.781,1.781,0,0,0,1.75,1.1,1.6,1.6,0,0,0,1.375-.664,3.477,3.477,0,0,0,.5-2.008ZM62.883,15h-1.9V6.547h1.9ZM60.867,4.352a1.008,1.008,0,0,1,.277-.727,1.048,1.048,0,0,1,.793-.289,1.061,1.061,0,0,1,.8.289,1,1,0,0,1,.281.727.977.977,0,0,1-.281.715,1.069,1.069,0,0,1-.8.285,1.056,1.056,0,0,1-.793-.285A.984.984,0,0,1,60.867,4.352Zm6.461.141V6.547H68.82V7.953H67.328v4.719a1.039,1.039,0,0,0,.191.7.888.888,0,0,0,.684.215,2.925,2.925,0,0,0,.664-.078v1.469a4.676,4.676,0,0,1-1.25.18q-2.188,0-2.187-2.414V7.953H64.039V6.547H65.43V4.492ZM74.7,8.281a4.7,4.7,0,0,0-.773-.062,1.741,1.741,0,0,0-1.758,1V15h-1.9V6.547h1.813l.047.945a2.139,2.139,0,0,1,1.906-1.1A1.777,1.777,0,0,1,74.7,6.5ZM80.711,15a2.93,2.93,0,0,1-.219-.789,3.193,3.193,0,0,1-4.3.219,2.325,2.325,0,0,1-.8-1.8,2.4,2.4,0,0,1,1-2.074,4.865,4.865,0,0,1,2.871-.723H80.43V9.281a1.481,1.481,0,0,0-.367-1.051,1.456,1.456,0,0,0-1.117-.395,1.672,1.672,0,0,0-1.062.324,1,1,0,0,0-.414.824h-1.9a2.107,2.107,0,0,1,.461-1.3,3.071,3.071,0,0,1,1.254-.949,4.4,4.4,0,0,1,1.77-.344,3.547,3.547,0,0,1,2.367.746,2.661,2.661,0,0,1,.906,2.1v3.813a4.321,4.321,0,0,0,.32,1.82V15Zm-2.086-1.367a2.159,2.159,0,0,0,1.059-.273,1.827,1.827,0,0,0,.746-.734V11.031H79.406a2.8,2.8,0,0,0-1.586.367,1.189,1.189,0,0,0-.531,1.039,1.109,1.109,0,0,0,.363.871A1.407,1.407,0,0,0,78.625,13.633ZM86.3,6.547v9.2a2.781,2.781,0,0,1-.645,1.98,2.47,2.47,0,0,1-1.887.684,3.794,3.794,0,0,1-1.008-.133v-1.5a2.925,2.925,0,0,0,.672.07q.945,0,.969-1.031V6.547Zm-2.062-2.2a1.008,1.008,0,0,1,.277-.727,1.048,1.048,0,0,1,.793-.289,1.061,1.061,0,0,1,.8.289,1,1,0,0,1,.281.727.977.977,0,0,1-.281.715,1.069,1.069,0,0,1-.8.285,1.056,1.056,0,0,1-.793-.285A.984.984,0,0,1,84.234,4.352Zm7.813,10.8a3.928,3.928,0,0,1-2.926-1.137A4.124,4.124,0,0,1,88,10.992v-.234A5.072,5.072,0,0,1,88.488,8.5a3.716,3.716,0,0,1,1.371-1.551,3.625,3.625,0,0,1,1.969-.555,3.318,3.318,0,0,1,2.668,1.1,4.658,4.658,0,0,1,.941,3.117v.766H89.914a2.539,2.539,0,0,0,.7,1.656,2.1,2.1,0,0,0,1.543.609,2.571,2.571,0,0,0,2.125-1.055l1.023.977a3.418,3.418,0,0,1-1.355,1.176A4.244,4.244,0,0,1,92.047,15.156ZM91.82,7.914a1.6,1.6,0,0,0-1.262.547,2.835,2.835,0,0,0-.613,1.523h3.617V9.844A2.307,2.307,0,0,0,93.055,8.4,1.586,1.586,0,0,0,91.82,7.914Z" transform="translate(931 8923)" fill="#12263f"/>
    <path id="Trazado_875605" data-name="Trazado 875605" d="M4.23,9.359l.617-5.734h6.109V5.266H6.426L6.113,7.984a3.512,3.512,0,0,1,1.781-.453A3.169,3.169,0,0,1,10.422,8.57a4.118,4.118,0,0,1,.9,2.8,3.79,3.79,0,0,1-1,2.762,3.65,3.65,0,0,1-2.742,1.027,3.822,3.822,0,0,1-2.59-.887,3.206,3.206,0,0,1-1.113-2.34H5.715a2,2,0,0,0,.594,1.27,1.806,1.806,0,0,0,1.266.441,1.632,1.632,0,0,0,1.363-.625,2.7,2.7,0,0,0,.488-1.7,2.384,2.384,0,0,0-.539-1.645A1.885,1.885,0,0,0,7.4,9.063a2.469,2.469,0,0,0-.875.137,2.478,2.478,0,0,0-.781.535ZM14.121,13a1.084,1.084,0,0,1,.82.3,1.045,1.045,0,0,1,.289.754,1.008,1.008,0,0,1-.289.738,1.28,1.28,0,0,1-1.625,0,.991.991,0,0,1-.3-.742,1.045,1.045,0,0,1,.289-.754A1.074,1.074,0,0,1,14.121,13ZM30.6,15H28.621l-5.07-8.07V15H21.574V3.625h1.977l5.086,8.1v-8.1H30.6Zm5.875.156a3.928,3.928,0,0,1-2.926-1.137,4.124,4.124,0,0,1-1.121-3.027v-.234A5.072,5.072,0,0,1,32.914,8.5a3.716,3.716,0,0,1,1.371-1.551,3.625,3.625,0,0,1,1.969-.555,3.318,3.318,0,0,1,2.668,1.1,4.658,4.658,0,0,1,.941,3.117v.766H34.34a2.539,2.539,0,0,0,.7,1.656,2.1,2.1,0,0,0,1.543.609,2.571,2.571,0,0,0,2.125-1.055l1.023.977a3.418,3.418,0,0,1-1.355,1.176A4.244,4.244,0,0,1,36.473,15.156Zm-.227-7.242a1.6,1.6,0,0,0-1.262.547,2.835,2.835,0,0,0-.613,1.523h3.617V9.844A2.307,2.307,0,0,0,37.48,8.4,1.586,1.586,0,0,0,36.246,7.914ZM41,10.711a4.944,4.944,0,0,1,.926-3.145,2.971,2.971,0,0,1,2.457-1.176A2.784,2.784,0,0,1,46.66,7.4l.086-.852h1.711v8.2a3.406,3.406,0,0,1-1.035,2.625,3.943,3.943,0,0,1-2.793.961,4.5,4.5,0,0,1-1.816-.387,3.228,3.228,0,0,1-1.348-1.012l.9-1.141a2.713,2.713,0,0,0,2.156,1.039,2.1,2.1,0,0,0,1.492-.512,1.961,1.961,0,0,0,.547-1.5v-.57a2.8,2.8,0,0,1-2.187.914,2.964,2.964,0,0,1-2.426-1.18A5.1,5.1,0,0,1,41,10.711Zm1.891.164a3.4,3.4,0,0,0,.52,2,1.671,1.671,0,0,0,1.441.73,1.827,1.827,0,0,0,1.7-.984V8.906a1.8,1.8,0,0,0-1.687-.961,1.677,1.677,0,0,0-1.457.742A3.811,3.811,0,0,0,42.895,10.875Zm7.156-.18a4.984,4.984,0,0,1,.492-2.238,3.6,3.6,0,0,1,1.383-1.531,3.9,3.9,0,0,1,2.047-.535,3.692,3.692,0,0,1,2.777,1.1A4.333,4.333,0,0,1,57.9,10.414l.008.445a5.029,5.029,0,0,1-.48,2.234,3.551,3.551,0,0,1-1.375,1.523,3.925,3.925,0,0,1-2.066.539,3.667,3.667,0,0,1-2.863-1.191,4.563,4.563,0,0,1-1.074-3.176Zm1.9.164a3.406,3.406,0,0,0,.539,2.043,1.752,1.752,0,0,0,1.5.738,1.733,1.733,0,0,0,1.5-.75,3.762,3.762,0,0,0,.535-2.2,3.362,3.362,0,0,0-.551-2.031A1.856,1.856,0,0,0,52.5,8.652,3.691,3.691,0,0,0,51.949,10.859Zm11.039,2.781a1.716,1.716,0,0,0,1.18-.414,1.415,1.415,0,0,0,.5-1.023h1.789a2.789,2.789,0,0,1-.492,1.473,3.228,3.228,0,0,1-1.25,1.082,3.725,3.725,0,0,1-1.7.4A3.6,3.6,0,0,1,60.2,14.008a4.555,4.555,0,0,1-1.039-3.172v-.2a4.479,4.479,0,0,1,1.031-3.09A3.571,3.571,0,0,1,63,6.391a3.473,3.473,0,0,1,2.457.879,3.148,3.148,0,0,1,1,2.309H64.668a1.738,1.738,0,0,0-.5-1.2,1.6,1.6,0,0,0-1.184-.469,1.671,1.671,0,0,0-1.422.668,3.408,3.408,0,0,0-.508,2.027v.3a3.465,3.465,0,0,0,.5,2.051A1.669,1.669,0,0,0,62.988,13.641ZM69.91,15h-1.9V6.547h1.9ZM67.895,4.352a1.008,1.008,0,0,1,.277-.727,1.048,1.048,0,0,1,.793-.289,1.061,1.061,0,0,1,.8.289,1,1,0,0,1,.281.727.977.977,0,0,1-.281.715,1.069,1.069,0,0,1-.8.285,1.056,1.056,0,0,1-.793-.285A.984.984,0,0,1,67.895,4.352ZM77.027,15a2.93,2.93,0,0,1-.219-.789,3.193,3.193,0,0,1-4.3.219,2.325,2.325,0,0,1-.8-1.8,2.4,2.4,0,0,1,1-2.074,4.865,4.865,0,0,1,2.871-.723h1.164V9.281a1.481,1.481,0,0,0-.367-1.051,1.456,1.456,0,0,0-1.117-.395A1.672,1.672,0,0,0,74.2,8.16a1,1,0,0,0-.414.824h-1.9a2.107,2.107,0,0,1,.461-1.3A3.071,3.071,0,0,1,73.6,6.734a4.4,4.4,0,0,1,1.77-.344,3.547,3.547,0,0,1,2.367.746,2.661,2.661,0,0,1,.906,2.1v3.813a4.321,4.321,0,0,0,.32,1.82V15Zm-2.086-1.367A2.159,2.159,0,0,0,76,13.359a1.827,1.827,0,0,0,.746-.734V11.031H75.723a2.8,2.8,0,0,0-1.586.367,1.189,1.189,0,0,0-.531,1.039,1.109,1.109,0,0,0,.363.871A1.407,1.407,0,0,0,74.941,13.633Zm9.164.008a1.716,1.716,0,0,0,1.18-.414,1.415,1.415,0,0,0,.5-1.023h1.789a2.789,2.789,0,0,1-.492,1.473,3.228,3.228,0,0,1-1.25,1.082,3.725,3.725,0,0,1-1.7.4,3.6,3.6,0,0,1-2.812-1.148,4.555,4.555,0,0,1-1.039-3.172v-.2a4.479,4.479,0,0,1,1.031-3.09,3.571,3.571,0,0,1,2.813-1.16,3.473,3.473,0,0,1,2.457.879,3.148,3.148,0,0,1,1,2.309H85.785a1.738,1.738,0,0,0-.5-1.2,1.6,1.6,0,0,0-1.184-.469,1.671,1.671,0,0,0-1.422.668,3.408,3.408,0,0,0-.508,2.027v.3a3.465,3.465,0,0,0,.5,2.051A1.669,1.669,0,0,0,84.105,13.641ZM91.027,15h-1.9V6.547h1.9ZM89.012,4.352a1.008,1.008,0,0,1,.277-.727,1.048,1.048,0,0,1,.793-.289,1.061,1.061,0,0,1,.8.289,1,1,0,0,1,.281.727.977.977,0,0,1-.281.715,1.069,1.069,0,0,1-.8.285,1.056,1.056,0,0,1-.793-.285A.984.984,0,0,1,89.012,4.352ZM92.738,10.7a4.984,4.984,0,0,1,.492-2.238,3.6,3.6,0,0,1,1.383-1.531,3.9,3.9,0,0,1,2.047-.535,3.692,3.692,0,0,1,2.777,1.1,4.333,4.333,0,0,1,1.152,2.922l.008.445a5.029,5.029,0,0,1-.48,2.234,3.551,3.551,0,0,1-1.375,1.523,3.925,3.925,0,0,1-2.066.539,3.667,3.667,0,0,1-2.863-1.191,4.563,4.563,0,0,1-1.074-3.176Zm1.9.164a3.406,3.406,0,0,0,.539,2.043,1.752,1.752,0,0,0,1.5.738,1.733,1.733,0,0,0,1.5-.75,3.762,3.762,0,0,0,.535-2.2,3.362,3.362,0,0,0-.551-2.031,1.856,1.856,0,0,0-2.973-.012A3.691,3.691,0,0,0,94.637,10.859ZM97.184,3h2.164L97.184,5.367l-1.523,0Zm6.781,3.547.055.977a3.039,3.039,0,0,1,2.461-1.133q2.641,0,2.688,3.023V15h-1.9V9.523a1.741,1.741,0,0,0-.348-1.191,1.462,1.462,0,0,0-1.137-.387,1.829,1.829,0,0,0-1.711,1.039V15h-1.9V6.547Z" transform="translate(1128 9335)" fill="#12263f"/>
  </g>
</svg>
