<svg xmlns="http://www.w3.org/2000/svg" xmlns:xlink="http://www.w3.org/1999/xlink" width="1030" height="431" viewBox="0 0 1030 431">
  <defs>
    <clipPath id="clip-path">
      <rect id="Rectángulo_402576" data-name="Rectángulo 402576" width="1010.734" height="301.657" fill="none"/>
    </clipPath>
    <clipPath id="clip-path-2">
      <rect id="Rectángulo_402580" data-name="Rectángulo 402580" width="85.245" height="95.373" fill="#6a4d23"/>
    </clipPath>
    <clipPath id="clip-path-3">
      <rect id="Rectángulo_402581" data-name="Rectángulo 402581" width="76.049" height="99.573" fill="#6a4d23"/>
    </clipPath>
    <clipPath id="clip-path-4">
      <rect id="Rectángulo_402582" data-name="Rectángulo 402582" width="110.995" height="110.381" fill="#6a4d23"/>
    </clipPath>
  </defs>
  <g id="img5" transform="translate(-285 -4688)">
    <rect id="Rectángulo_401923" data-name="Rectángulo 401923" width="1030" height="431" transform="translate(285 4688)" fill="#fef7eb"/>
    <path id="Trazado_875573" data-name="Trazado 875573" d="M18.727,12.352H14.32L13.4,15H11.344l4.3-11.375h1.773L21.719,15H19.656Zm-3.852-1.594h3.3L16.523,6.039Zm9.336-4.211.055.977a3.039,3.039,0,0,1,2.461-1.133q2.641,0,2.688,3.023V15h-1.9V9.523a1.741,1.741,0,0,0-.348-1.191,1.462,1.462,0,0,0-1.137-.387A1.829,1.829,0,0,0,24.32,8.984V15h-1.9V6.547ZM36.4,15a2.93,2.93,0,0,1-.219-.789,3.193,3.193,0,0,1-4.3.219,2.325,2.325,0,0,1-.8-1.8,2.4,2.4,0,0,1,1-2.074,4.865,4.865,0,0,1,2.871-.723h1.164V9.281A1.481,1.481,0,0,0,35.75,8.23a1.456,1.456,0,0,0-1.117-.395,1.672,1.672,0,0,0-1.062.324,1,1,0,0,0-.414.824h-1.9a2.107,2.107,0,0,1,.461-1.3,3.071,3.071,0,0,1,1.254-.949,4.4,4.4,0,0,1,1.77-.344,3.547,3.547,0,0,1,2.367.746,2.661,2.661,0,0,1,.906,2.1v3.813a4.321,4.321,0,0,0,.32,1.82V15Zm-2.086-1.367a2.159,2.159,0,0,0,1.059-.273,1.827,1.827,0,0,0,.746-.734V11.031H35.094a2.8,2.8,0,0,0-1.586.367,1.189,1.189,0,0,0-.531,1.039,1.109,1.109,0,0,0,.363.871A1.407,1.407,0,0,0,34.313,13.633ZM35.367,3h2.164L35.367,5.367l-1.523,0Zm6.656,12h-1.9V3h1.9Zm4.086,0h-1.9V6.547h1.9ZM44.094,4.352a1.008,1.008,0,0,1,.277-.727,1.048,1.048,0,0,1,.793-.289,1.061,1.061,0,0,1,.8.289,1,1,0,0,1,.281.727.977.977,0,0,1-.281.715,1.069,1.069,0,0,1-.8.285,1.056,1.056,0,0,1-.793-.285A.984.984,0,0,1,44.094,4.352Zm8.82,8.352a.861.861,0,0,0-.418-.773,4.445,4.445,0,0,0-1.387-.469,7.129,7.129,0,0,1-1.617-.516A2.158,2.158,0,0,1,48.07,8.953a2.25,2.25,0,0,1,.922-1.828,3.644,3.644,0,0,1,2.344-.734,3.792,3.792,0,0,1,2.449.75,2.38,2.38,0,0,1,.934,1.945h-1.9a1.17,1.17,0,0,0-.406-.91,1.557,1.557,0,0,0-1.078-.363,1.682,1.682,0,0,0-1.02.289.911.911,0,0,0-.395.773.769.769,0,0,0,.367.68,5.049,5.049,0,0,0,1.484.488,7.027,7.027,0,0,1,1.754.586,2.484,2.484,0,0,1,.945.816,2.082,2.082,0,0,1,.309,1.156,2.2,2.2,0,0,1-.945,1.848,4.031,4.031,0,0,1-2.477.707,4.371,4.371,0,0,1-1.852-.375,3.047,3.047,0,0,1-1.266-1.031,2.441,2.441,0,0,1-.453-1.414h1.844a1.338,1.338,0,0,0,.508,1.035,1.973,1.973,0,0,0,1.242.363,1.92,1.92,0,0,0,1.141-.285A.883.883,0,0,0,52.914,12.7ZM58.453,15h-1.9V6.547h1.9ZM56.438,4.352a1.008,1.008,0,0,1,.277-.727,1.048,1.048,0,0,1,.793-.289,1.061,1.061,0,0,1,.8.289,1,1,0,0,1,.281.727.977.977,0,0,1-.281.715,1.069,1.069,0,0,1-.8.285,1.056,1.056,0,0,1-.793-.285A.984.984,0,0,1,56.438,4.352Zm8.82,8.352a.861.861,0,0,0-.418-.773,4.445,4.445,0,0,0-1.387-.469,7.129,7.129,0,0,1-1.617-.516,2.158,2.158,0,0,1-1.422-1.992,2.25,2.25,0,0,1,.922-1.828,3.644,3.644,0,0,1,2.344-.734,3.792,3.792,0,0,1,2.449.75,2.38,2.38,0,0,1,.934,1.945h-1.9a1.17,1.17,0,0,0-.406-.91,1.557,1.557,0,0,0-1.078-.363,1.682,1.682,0,0,0-1.02.289.911.911,0,0,0-.395.773.769.769,0,0,0,.367.68,5.049,5.049,0,0,0,1.484.488,7.027,7.027,0,0,1,1.754.586,2.484,2.484,0,0,1,.945.816,2.082,2.082,0,0,1,.309,1.156,2.2,2.2,0,0,1-.945,1.848,4.031,4.031,0,0,1-2.477.707,4.371,4.371,0,0,1-1.852-.375,3.047,3.047,0,0,1-1.266-1.031,2.441,2.441,0,0,1-.453-1.414h1.844a1.338,1.338,0,0,0,.508,1.035,1.973,1.973,0,0,0,1.242.363,1.92,1.92,0,0,0,1.141-.285A.883.883,0,0,0,65.258,12.7Zm7.148-1.992a5.026,5.026,0,0,1,.906-3.137,2.9,2.9,0,0,1,2.43-1.184,2.759,2.759,0,0,1,2.172.938V3h1.9V15H78.094L78,14.125a2.8,2.8,0,0,1-2.273,1.031,2.887,2.887,0,0,1-2.4-1.2A5.21,5.21,0,0,1,72.406,10.711Zm1.9.164a3.519,3.519,0,0,0,.5,2.012,1.61,1.61,0,0,0,1.41.723,1.793,1.793,0,0,0,1.7-1.039V8.961a1.766,1.766,0,0,0-1.687-1.016,1.622,1.622,0,0,0-1.422.73A3.918,3.918,0,0,0,74.3,10.875Zm11.211,4.281A3.928,3.928,0,0,1,82.59,14.02a4.124,4.124,0,0,1-1.121-3.027v-.234A5.072,5.072,0,0,1,81.957,8.5a3.716,3.716,0,0,1,1.371-1.551A3.625,3.625,0,0,1,85.3,6.391a3.318,3.318,0,0,1,2.668,1.1,4.658,4.658,0,0,1,.941,3.117v.766H83.383a2.539,2.539,0,0,0,.7,1.656,2.1,2.1,0,0,0,1.543.609,2.571,2.571,0,0,0,2.125-1.055l1.023.977a3.418,3.418,0,0,1-1.355,1.176A4.244,4.244,0,0,1,85.516,15.156Zm-.227-7.242a1.6,1.6,0,0,0-1.262.547,2.835,2.835,0,0,0-.613,1.523h3.617V9.844A2.307,2.307,0,0,0,86.523,8.4,1.586,1.586,0,0,0,85.289,7.914ZM96.383,15h-1.9V3h1.9Zm7.117,0a2.93,2.93,0,0,1-.219-.789,3.193,3.193,0,0,1-4.3.219,2.325,2.325,0,0,1-.8-1.8,2.4,2.4,0,0,1,1-2.074,4.865,4.865,0,0,1,2.871-.723h1.164V9.281a1.481,1.481,0,0,0-.367-1.051,1.456,1.456,0,0,0-1.117-.395,1.672,1.672,0,0,0-1.062.324,1,1,0,0,0-.414.824h-1.9a2.107,2.107,0,0,1,.461-1.3,3.071,3.071,0,0,1,1.254-.949,4.4,4.4,0,0,1,1.77-.344,3.547,3.547,0,0,1,2.367.746,2.661,2.661,0,0,1,.906,2.1v3.813a4.321,4.321,0,0,0,.32,1.82V15Zm-2.086-1.367a2.159,2.159,0,0,0,1.059-.273,1.827,1.827,0,0,0,.746-.734V11.031H102.2a2.8,2.8,0,0,0-1.586.367,1.189,1.189,0,0,0-.531,1.039,1.109,1.109,0,0,0,.363.871A1.407,1.407,0,0,0,101.414,13.633Zm14.414-.93a.861.861,0,0,0-.418-.773,4.445,4.445,0,0,0-1.387-.469,7.129,7.129,0,0,1-1.617-.516,2.158,2.158,0,0,1-1.422-1.992,2.25,2.25,0,0,1,.922-1.828,3.644,3.644,0,0,1,2.344-.734,3.792,3.792,0,0,1,2.449.75,2.38,2.38,0,0,1,.934,1.945h-1.9a1.17,1.17,0,0,0-.406-.91,1.557,1.557,0,0,0-1.078-.363,1.682,1.682,0,0,0-1.02.289.911.911,0,0,0-.395.773.769.769,0,0,0,.367.68,5.049,5.049,0,0,0,1.484.488,7.027,7.027,0,0,1,1.754.586,2.484,2.484,0,0,1,.945.816A2.082,2.082,0,0,1,117.7,12.6a2.2,2.2,0,0,1-.945,1.848,4.031,4.031,0,0,1-2.477.707,4.371,4.371,0,0,1-1.852-.375,3.047,3.047,0,0,1-1.266-1.031,2.441,2.441,0,0,1-.453-1.414h1.844a1.338,1.338,0,0,0,.508,1.035,1.973,1.973,0,0,0,1.242.363,1.92,1.92,0,0,0,1.141-.285A.883.883,0,0,0,115.828,12.7Zm5.539,2.3h-1.9V6.547h1.9ZM119.352,4.352a1.008,1.008,0,0,1,.277-.727,1.048,1.048,0,0,1,.793-.289,1.061,1.061,0,0,1,.8.289,1,1,0,0,1,.281.727.977.977,0,0,1-.281.715,1.069,1.069,0,0,1-.8.285,1.056,1.056,0,0,1-.793-.285A.984.984,0,0,1,119.352,4.352Zm6.461.141V6.547H127.3V7.953h-1.492v4.719a1.039,1.039,0,0,0,.191.7.888.888,0,0,0,.684.215,2.925,2.925,0,0,0,.664-.078v1.469a4.676,4.676,0,0,1-1.25.18q-2.188,0-2.187-2.414V7.953h-1.391V6.547h1.391V4.492Zm8.063,9.68a2.944,2.944,0,0,1-2.375.984,2.624,2.624,0,0,1-2.082-.8,3.423,3.423,0,0,1-.707-2.328V6.547h1.9V12q0,1.609,1.336,1.609a1.876,1.876,0,0,0,1.867-.992V6.547h1.9V15h-1.789ZM142.7,15a2.93,2.93,0,0,1-.219-.789,3.193,3.193,0,0,1-4.3.219,2.325,2.325,0,0,1-.8-1.8,2.4,2.4,0,0,1,1-2.074,4.865,4.865,0,0,1,2.871-.723h1.164V9.281a1.481,1.481,0,0,0-.367-1.051,1.456,1.456,0,0,0-1.117-.395,1.672,1.672,0,0,0-1.062.324,1,1,0,0,0-.414.824h-1.9a2.107,2.107,0,0,1,.461-1.3,3.071,3.071,0,0,1,1.254-.949,4.4,4.4,0,0,1,1.77-.344,3.547,3.547,0,0,1,2.367.746,2.661,2.661,0,0,1,.906,2.1v3.813a4.321,4.321,0,0,0,.32,1.82V15Zm-2.086-1.367a2.16,2.16,0,0,0,1.059-.273,1.827,1.827,0,0,0,.746-.734V11.031h-1.023a2.8,2.8,0,0,0-1.586.367,1.189,1.189,0,0,0-.531,1.039,1.109,1.109,0,0,0,.363.871A1.407,1.407,0,0,0,140.609,13.633Zm9.164.008a1.716,1.716,0,0,0,1.18-.414,1.415,1.415,0,0,0,.5-1.023h1.789a2.788,2.788,0,0,1-.492,1.473,3.228,3.228,0,0,1-1.25,1.082,3.725,3.725,0,0,1-1.7.4,3.6,3.6,0,0,1-2.812-1.148,4.555,4.555,0,0,1-1.039-3.172v-.2a4.479,4.479,0,0,1,1.031-3.09,3.571,3.571,0,0,1,2.813-1.16,3.473,3.473,0,0,1,2.457.879,3.148,3.148,0,0,1,1,2.309h-1.789a1.738,1.738,0,0,0-.5-1.2,1.6,1.6,0,0,0-1.184-.469,1.671,1.671,0,0,0-1.422.668,3.408,3.408,0,0,0-.508,2.027v.3a3.465,3.465,0,0,0,.5,2.051A1.669,1.669,0,0,0,149.773,13.641ZM156.7,15h-1.9V6.547h1.9ZM154.68,4.352a1.008,1.008,0,0,1,.277-.727,1.048,1.048,0,0,1,.793-.289,1.061,1.061,0,0,1,.8.289,1,1,0,0,1,.281.727.977.977,0,0,1-.281.715,1.069,1.069,0,0,1-.8.285,1.056,1.056,0,0,1-.793-.285A.984.984,0,0,1,154.68,4.352Zm3.727,6.344a4.984,4.984,0,0,1,.492-2.238,3.6,3.6,0,0,1,1.383-1.531,3.9,3.9,0,0,1,2.047-.535,3.692,3.692,0,0,1,2.777,1.1,4.333,4.333,0,0,1,1.152,2.922l.008.445a5.029,5.029,0,0,1-.48,2.234,3.551,3.551,0,0,1-1.375,1.523,3.925,3.925,0,0,1-2.066.539,3.667,3.667,0,0,1-2.863-1.191,4.563,4.563,0,0,1-1.074-3.176Zm1.9.164a3.406,3.406,0,0,0,.539,2.043,1.752,1.752,0,0,0,1.5.738,1.733,1.733,0,0,0,1.5-.75,3.762,3.762,0,0,0,.535-2.2,3.362,3.362,0,0,0-.551-2.031,1.856,1.856,0,0,0-2.973-.012A3.691,3.691,0,0,0,160.3,10.859ZM162.852,3h2.164l-2.164,2.367-1.523,0Zm6.781,3.547.055.977a3.039,3.039,0,0,1,2.461-1.133q2.641,0,2.688,3.023V15h-1.9V9.523a1.741,1.741,0,0,0-.348-1.191,1.462,1.462,0,0,0-1.137-.387,1.829,1.829,0,0,0-1.711,1.039V15h-1.9V6.547ZM17.078,34.859a5.033,5.033,0,0,1-.891,3.129A2.852,2.852,0,0,1,13.8,39.156a2.871,2.871,0,0,1-2.227-.914V42.25h-1.9v-11.7h1.75l.078.859a2.788,2.788,0,0,1,2.273-1.016A2.881,2.881,0,0,1,16.2,31.543a5.167,5.167,0,0,1,.879,3.2ZM15.188,34.7a3.526,3.526,0,0,0-.5-2.008,1.638,1.638,0,0,0-1.441-.742,1.747,1.747,0,0,0-1.672.961v3.75a1.763,1.763,0,0,0,1.688.984,1.636,1.636,0,0,0,1.418-.73A3.881,3.881,0,0,0,15.188,34.7ZM23.734,39a2.93,2.93,0,0,1-.219-.789,3.193,3.193,0,0,1-4.3.219,2.325,2.325,0,0,1-.8-1.8,2.4,2.4,0,0,1,1-2.074,4.865,4.865,0,0,1,2.871-.723h1.164v-.555a1.481,1.481,0,0,0-.367-1.051,1.456,1.456,0,0,0-1.117-.395,1.672,1.672,0,0,0-1.062.324,1,1,0,0,0-.414.824h-1.9a2.107,2.107,0,0,1,.461-1.3,3.071,3.071,0,0,1,1.254-.949,4.4,4.4,0,0,1,1.77-.344,3.547,3.547,0,0,1,2.367.746,2.661,2.661,0,0,1,.906,2.1v3.813a4.321,4.321,0,0,0,.32,1.82V39Zm-2.086-1.367a2.159,2.159,0,0,0,1.059-.273,1.827,1.827,0,0,0,.746-.734V35.031H22.43a2.8,2.8,0,0,0-1.586.367,1.189,1.189,0,0,0-.531,1.039,1.109,1.109,0,0,0,.363.871A1.407,1.407,0,0,0,21.648,37.633Zm10.117-5.352a4.7,4.7,0,0,0-.773-.062,1.741,1.741,0,0,0-1.758,1V39h-1.9V30.547h1.813l.047.945a2.139,2.139,0,0,1,1.906-1.1,1.777,1.777,0,0,1,.672.109ZM37.781,39a2.93,2.93,0,0,1-.219-.789,3.193,3.193,0,0,1-4.3.219,2.325,2.325,0,0,1-.8-1.8,2.4,2.4,0,0,1,1-2.074,4.865,4.865,0,0,1,2.871-.723H37.5v-.555a1.481,1.481,0,0,0-.367-1.051,1.456,1.456,0,0,0-1.117-.395,1.672,1.672,0,0,0-1.062.324,1,1,0,0,0-.414.824h-1.9a2.107,2.107,0,0,1,.461-1.3,3.071,3.071,0,0,1,1.254-.949,4.4,4.4,0,0,1,1.77-.344,3.547,3.547,0,0,1,2.367.746,2.661,2.661,0,0,1,.906,2.1v3.813a4.321,4.321,0,0,0,.32,1.82V39ZM35.7,37.633a2.159,2.159,0,0,0,1.059-.273,1.827,1.827,0,0,0,.746-.734V35.031H36.477a2.8,2.8,0,0,0-1.586.367,1.189,1.189,0,0,0-.531,1.039,1.109,1.109,0,0,0,.363.871A1.407,1.407,0,0,0,35.7,37.633Zm9.32-2.922a5.026,5.026,0,0,1,.906-3.137,2.9,2.9,0,0,1,2.43-1.184,2.759,2.759,0,0,1,2.172.938V27h1.9V39H50.7l-.094-.875a2.8,2.8,0,0,1-2.273,1.031,2.887,2.887,0,0,1-2.4-1.2A5.21,5.21,0,0,1,45.016,34.711Zm1.9.164a3.519,3.519,0,0,0,.5,2.012,1.61,1.61,0,0,0,1.41.723,1.793,1.793,0,0,0,1.7-1.039V32.961a1.766,1.766,0,0,0-1.687-1.016,1.622,1.622,0,0,0-1.422.73A3.919,3.919,0,0,0,46.914,34.875Zm11.211,4.281A3.928,3.928,0,0,1,55.2,38.02a4.124,4.124,0,0,1-1.121-3.027v-.234a5.072,5.072,0,0,1,.488-2.262,3.716,3.716,0,0,1,1.371-1.551,3.625,3.625,0,0,1,1.969-.555,3.318,3.318,0,0,1,2.668,1.1,4.658,4.658,0,0,1,.941,3.117v.766H55.992a2.539,2.539,0,0,0,.7,1.656,2.1,2.1,0,0,0,1.543.609,2.571,2.571,0,0,0,2.125-1.055l1.023.977a3.418,3.418,0,0,1-1.355,1.176A4.244,4.244,0,0,1,58.125,39.156ZM57.9,31.914a1.6,1.6,0,0,0-1.262.547,2.835,2.835,0,0,0-.613,1.523h3.617v-.141a2.307,2.307,0,0,0-.508-1.441A1.586,1.586,0,0,0,57.9,31.914ZM63.492,39V31.953H62.2V30.547h1.289v-.578a3.382,3.382,0,0,1,.422-1.7,2.624,2.624,0,0,1,1.172-1.07,4.218,4.218,0,0,1,1.82-.359,5.306,5.306,0,0,1,1.2.133q.574.133,1.191.336l-.289,1.57a6.043,6.043,0,0,0-1.969-.375,1.759,1.759,0,0,0-1.258.379,1.516,1.516,0,0,0-.391,1.137v.531h1.664v1.406H65.391V39Zm6.7,0H68.3V30.547h1.9Zm3.867-8.453.055.977a3.039,3.039,0,0,1,2.461-1.133q2.641,0,2.688,3.023V39h-1.9V33.523a1.741,1.741,0,0,0-.348-1.191,1.462,1.462,0,0,0-1.137-.387,1.829,1.829,0,0,0-1.711,1.039V39h-1.9V30.547ZM83.219,39h-1.9V30.547h1.9ZM81.2,28.352a1.008,1.008,0,0,1,.277-.727,1.048,1.048,0,0,1,.793-.289,1.061,1.061,0,0,1,.8.289,1,1,0,0,1,.281.727.977.977,0,0,1-.281.715,1.069,1.069,0,0,1-.8.285,1.056,1.056,0,0,1-.793-.285A.984.984,0,0,1,81.2,28.352Zm8.508,3.93a4.7,4.7,0,0,0-.773-.062,1.741,1.741,0,0,0-1.758,1V39h-1.9V30.547h1.813l.047.945a2.139,2.139,0,0,1,1.906-1.1,1.777,1.777,0,0,1,.672.109Zm8.906,6.875a3.928,3.928,0,0,1-2.926-1.137,4.124,4.124,0,0,1-1.121-3.027v-.234a5.072,5.072,0,0,1,.488-2.262,3.716,3.716,0,0,1,1.371-1.551,3.625,3.625,0,0,1,1.969-.555,3.318,3.318,0,0,1,2.668,1.1,4.658,4.658,0,0,1,.941,3.117v.766H96.484a2.539,2.539,0,0,0,.7,1.656,2.1,2.1,0,0,0,1.543.609,2.571,2.571,0,0,0,2.125-1.055l1.023.977a3.418,3.418,0,0,1-1.355,1.176A4.244,4.244,0,0,1,98.617,39.156Zm-.227-7.242a1.6,1.6,0,0,0-1.262.547,2.835,2.835,0,0,0-.613,1.523h3.617v-.141a2.307,2.307,0,0,0-.508-1.441A1.586,1.586,0,0,0,98.391,31.914ZM105.5,39h-1.9V27h1.9Zm13.453-4.141a5.033,5.033,0,0,1-.891,3.129,3.094,3.094,0,0,1-4.617.254V42.25h-1.9v-11.7h1.75l.078.859a2.788,2.788,0,0,1,2.273-1.016,2.881,2.881,0,0,1,2.426,1.152,5.167,5.167,0,0,1,.879,3.2Zm-1.891-.164a3.526,3.526,0,0,0-.5-2.008,1.638,1.638,0,0,0-1.441-.742,1.747,1.747,0,0,0-1.672.961v3.75a1.763,1.763,0,0,0,1.688.984,1.636,1.636,0,0,0,1.418-.73A3.881,3.881,0,0,0,117.063,34.7Zm7.922-2.414a4.7,4.7,0,0,0-.773-.062,1.741,1.741,0,0,0-1.758,1V39h-1.9V30.547h1.813l.047.945a2.139,2.139,0,0,1,1.906-1.1,1.777,1.777,0,0,1,.672.109Zm.563,2.414a4.984,4.984,0,0,1,.492-2.238,3.6,3.6,0,0,1,1.383-1.531,3.9,3.9,0,0,1,2.047-.535,3.692,3.692,0,0,1,2.777,1.1,4.333,4.333,0,0,1,1.152,2.922l.008.445a5.029,5.029,0,0,1-.48,2.234,3.551,3.551,0,0,1-1.375,1.523,3.925,3.925,0,0,1-2.066.539,3.667,3.667,0,0,1-2.863-1.191,4.563,4.563,0,0,1-1.074-3.176Zm1.9.164a3.406,3.406,0,0,0,.539,2.043,1.752,1.752,0,0,0,1.5.738,1.733,1.733,0,0,0,1.5-.75,3.762,3.762,0,0,0,.535-2.2,3.362,3.362,0,0,0-.551-2.031,1.856,1.856,0,0,0-2.973-.012A3.691,3.691,0,0,0,127.445,34.859Zm14.984,0a5.078,5.078,0,0,1-.879,3.133,2.863,2.863,0,0,1-2.418,1.164,2.758,2.758,0,0,1-2.312-1.07l-.094.914h-1.719V27h1.9v4.359a2.748,2.748,0,0,1,2.211-.969,2.9,2.9,0,0,1,2.43,1.148,5.162,5.162,0,0,1,.883,3.211Zm-1.9-.164a3.589,3.589,0,0,0-.484-2.062,1.613,1.613,0,0,0-1.406-.687,1.763,1.763,0,0,0-1.734,1.078v3.484a1.781,1.781,0,0,0,1.75,1.1,1.6,1.6,0,0,0,1.375-.664,3.477,3.477,0,0,0,.5-2.008Zm5.508,4.3h-1.9V27h1.9Zm5.789.156A3.928,3.928,0,0,1,148.9,38.02a4.124,4.124,0,0,1-1.121-3.027v-.234a5.072,5.072,0,0,1,.488-2.262,3.716,3.716,0,0,1,1.371-1.551,3.625,3.625,0,0,1,1.969-.555,3.318,3.318,0,0,1,2.668,1.1,4.658,4.658,0,0,1,.941,3.117v.766H149.7a2.539,2.539,0,0,0,.7,1.656,2.1,2.1,0,0,0,1.543.609,2.571,2.571,0,0,0,2.125-1.055l1.023.977a3.418,3.418,0,0,1-1.355,1.176A4.244,4.244,0,0,1,151.828,39.156Zm-.227-7.242a1.6,1.6,0,0,0-1.262.547,2.835,2.835,0,0,0-.613,1.523h3.617v-.141a2.307,2.307,0,0,0-.508-1.441A1.586,1.586,0,0,0,151.6,31.914Zm6.875-1.367.055.883a3.042,3.042,0,0,1,2.438-1.039,2.337,2.337,0,0,1,2.32,1.3,3,3,0,0,1,2.594-1.3,2.636,2.636,0,0,1,2.082.773,3.405,3.405,0,0,1,.7,2.281V39h-1.9V33.5a1.681,1.681,0,0,0-.352-1.18,1.539,1.539,0,0,0-1.164-.375,1.581,1.581,0,0,0-1.059.348,1.833,1.833,0,0,0-.574.91l.008,5.8h-1.9V33.438a1.354,1.354,0,0,0-1.523-1.492,1.671,1.671,0,0,0-1.617.93V39h-1.9V30.547ZM175.664,39a2.93,2.93,0,0,1-.219-.789,3.193,3.193,0,0,1-4.3.219,2.325,2.325,0,0,1-.8-1.8,2.4,2.4,0,0,1,1-2.074,4.865,4.865,0,0,1,2.871-.723h1.164v-.555a1.481,1.481,0,0,0-.367-1.051,1.456,1.456,0,0,0-1.117-.395,1.672,1.672,0,0,0-1.062.324,1,1,0,0,0-.414.824h-1.9a2.107,2.107,0,0,1,.461-1.3,3.071,3.071,0,0,1,1.254-.949,4.4,4.4,0,0,1,1.77-.344,3.547,3.547,0,0,1,2.367.746,2.661,2.661,0,0,1,.906,2.1v3.813a4.321,4.321,0,0,0,.32,1.82V39Zm-2.086-1.367a2.159,2.159,0,0,0,1.059-.273,1.827,1.827,0,0,0,.746-.734V35.031h-1.023a2.8,2.8,0,0,0-1.586.367,1.189,1.189,0,0,0-.531,1.039,1.109,1.109,0,0,0,.363.871A1.407,1.407,0,0,0,173.578,37.633Z" transform="translate(388 4911.694)" fill="#12263f"/>
    <path id="Trazado_875576" data-name="Trazado 875576" d="M31.086,15V3.625h3.359a5.269,5.269,0,0,1,2.676.672A4.581,4.581,0,0,1,38.93,6.2a6.051,6.051,0,0,1,.641,2.828V9.6a6.026,6.026,0,0,1-.645,2.844,4.526,4.526,0,0,1-1.836,1.891,5.513,5.513,0,0,1-2.73.664Zm1.977-9.781v8.2h1.289a2.968,2.968,0,0,0,2.387-.973,4.237,4.237,0,0,0,.848-2.793V9.023a4.347,4.347,0,0,0-.8-2.828,2.853,2.853,0,0,0-2.336-.977Zm12.016,9.938a3.928,3.928,0,0,1-2.926-1.137,4.124,4.124,0,0,1-1.121-3.027v-.234A5.072,5.072,0,0,1,41.52,8.5a3.716,3.716,0,0,1,1.371-1.551,3.625,3.625,0,0,1,1.969-.555,3.318,3.318,0,0,1,2.668,1.1,4.658,4.658,0,0,1,.941,3.117v.766H42.945a2.539,2.539,0,0,0,.7,1.656,2.1,2.1,0,0,0,1.543.609,2.571,2.571,0,0,0,2.125-1.055l1.023.977a3.418,3.418,0,0,1-1.355,1.176A4.244,4.244,0,0,1,45.078,15.156Zm-.227-7.242a1.6,1.6,0,0,0-1.262.547,2.835,2.835,0,0,0-.613,1.523h3.617V9.844A2.307,2.307,0,0,0,46.086,8.4,1.586,1.586,0,0,0,44.852,7.914ZM52.32,4.492V6.547h1.492V7.953H52.32v4.719a1.039,1.039,0,0,0,.191.7.888.888,0,0,0,.684.215,2.924,2.924,0,0,0,.664-.078v1.469a4.676,4.676,0,0,1-1.25.18q-2.187,0-2.187-2.414V7.953H49.031V6.547h1.391V4.492Zm6.664,10.664a3.928,3.928,0,0,1-2.926-1.137,4.124,4.124,0,0,1-1.121-3.027v-.234A5.072,5.072,0,0,1,55.426,8.5,3.716,3.716,0,0,1,56.8,6.945a3.625,3.625,0,0,1,1.969-.555,3.318,3.318,0,0,1,2.668,1.1,4.658,4.658,0,0,1,.941,3.117v.766H56.852a2.539,2.539,0,0,0,.7,1.656,2.1,2.1,0,0,0,1.543.609,2.571,2.571,0,0,0,2.125-1.055l1.023.977a3.418,3.418,0,0,1-1.355,1.176A4.244,4.244,0,0,1,58.984,15.156Zm-.227-7.242a1.6,1.6,0,0,0-1.262.547,2.835,2.835,0,0,0-.613,1.523H60.5V9.844A2.307,2.307,0,0,0,59.992,8.4,1.586,1.586,0,0,0,58.758,7.914Zm8.563,5.727a1.716,1.716,0,0,0,1.18-.414A1.415,1.415,0,0,0,69,12.2h1.789a2.789,2.789,0,0,1-.492,1.473,3.228,3.228,0,0,1-1.25,1.082,3.725,3.725,0,0,1-1.7.4,3.6,3.6,0,0,1-2.812-1.148,4.555,4.555,0,0,1-1.039-3.172v-.2a4.479,4.479,0,0,1,1.031-3.09,3.571,3.571,0,0,1,2.813-1.16,3.473,3.473,0,0,1,2.457.879,3.148,3.148,0,0,1,1,2.309H69a1.738,1.738,0,0,0-.5-1.2,1.6,1.6,0,0,0-1.184-.469,1.671,1.671,0,0,0-1.422.668,3.408,3.408,0,0,0-.508,2.027v.3a3.465,3.465,0,0,0,.5,2.051A1.669,1.669,0,0,0,67.32,13.641ZM74.6,4.492V6.547h1.492V7.953H74.6v4.719a1.039,1.039,0,0,0,.191.7.888.888,0,0,0,.684.215,2.925,2.925,0,0,0,.664-.078v1.469a4.676,4.676,0,0,1-1.25.18q-2.188,0-2.187-2.414V7.953H71.313V6.547H72.7V4.492ZM82.594,15a2.93,2.93,0,0,1-.219-.789,3.193,3.193,0,0,1-4.3.219,2.325,2.325,0,0,1-.8-1.8,2.4,2.4,0,0,1,1-2.074,4.865,4.865,0,0,1,2.871-.723h1.164V9.281a1.481,1.481,0,0,0-.367-1.051,1.456,1.456,0,0,0-1.117-.395,1.672,1.672,0,0,0-1.062.324,1,1,0,0,0-.414.824h-1.9a2.107,2.107,0,0,1,.461-1.3,3.071,3.071,0,0,1,1.254-.949,4.4,4.4,0,0,1,1.77-.344,3.547,3.547,0,0,1,2.367.746,2.661,2.661,0,0,1,.906,2.1v3.813a4.321,4.321,0,0,0,.32,1.82V15Zm-2.086-1.367a2.159,2.159,0,0,0,1.059-.273,1.827,1.827,0,0,0,.746-.734V11.031H81.289A2.8,2.8,0,0,0,79.7,11.4a1.189,1.189,0,0,0-.531,1.039,1.109,1.109,0,0,0,.363.871A1.407,1.407,0,0,0,80.508,13.633ZM95.234,15a2.93,2.93,0,0,1-.219-.789,3.193,3.193,0,0,1-4.3.219,2.325,2.325,0,0,1-.8-1.8,2.4,2.4,0,0,1,1-2.074,4.865,4.865,0,0,1,2.871-.723h1.164V9.281a1.481,1.481,0,0,0-.367-1.051,1.456,1.456,0,0,0-1.117-.395,1.672,1.672,0,0,0-1.062.324,1,1,0,0,0-.414.824h-1.9a2.107,2.107,0,0,1,.461-1.3,3.071,3.071,0,0,1,1.254-.949,4.4,4.4,0,0,1,1.77-.344,3.547,3.547,0,0,1,2.367.746,2.661,2.661,0,0,1,.906,2.1v3.813a4.321,4.321,0,0,0,.32,1.82V15Zm-2.086-1.367a2.159,2.159,0,0,0,1.059-.273,1.827,1.827,0,0,0,.746-.734V11.031H93.93a2.8,2.8,0,0,0-1.586.367,1.189,1.189,0,0,0-.531,1.039,1.109,1.109,0,0,0,.363.871A1.407,1.407,0,0,0,93.148,13.633Zm9.164.008a1.716,1.716,0,0,0,1.18-.414,1.415,1.415,0,0,0,.5-1.023h1.789a2.789,2.789,0,0,1-.492,1.473,3.228,3.228,0,0,1-1.25,1.082,3.725,3.725,0,0,1-1.7.4,3.6,3.6,0,0,1-2.812-1.148,4.555,4.555,0,0,1-1.039-3.172v-.2a4.479,4.479,0,0,1,1.031-3.09,3.571,3.571,0,0,1,2.813-1.16,3.473,3.473,0,0,1,2.457.879,3.148,3.148,0,0,1,1,2.309h-1.789a1.738,1.738,0,0,0-.5-1.2,1.6,1.6,0,0,0-1.184-.469,1.671,1.671,0,0,0-1.422.668,3.408,3.408,0,0,0-.508,2.027v.3a3.465,3.465,0,0,0,.5,2.051A1.669,1.669,0,0,0,102.313,13.641Zm8.375,0a1.716,1.716,0,0,0,1.18-.414,1.415,1.415,0,0,0,.5-1.023h1.789a2.789,2.789,0,0,1-.492,1.473,3.228,3.228,0,0,1-1.25,1.082,3.725,3.725,0,0,1-1.7.4,3.6,3.6,0,0,1-2.812-1.148,4.555,4.555,0,0,1-1.039-3.172v-.2a4.479,4.479,0,0,1,1.031-3.09,3.571,3.571,0,0,1,2.813-1.16,3.473,3.473,0,0,1,2.457.879,3.148,3.148,0,0,1,1,2.309h-1.789a1.738,1.738,0,0,0-.5-1.2,1.6,1.6,0,0,0-1.184-.469,1.671,1.671,0,0,0-1.422.668,3.408,3.408,0,0,0-.508,2.027v.3a3.465,3.465,0,0,0,.5,2.051A1.669,1.669,0,0,0,110.688,13.641ZM117.609,15h-1.9V6.547h1.9ZM115.594,4.352a1.008,1.008,0,0,1,.277-.727,1.048,1.048,0,0,1,.793-.289,1.061,1.061,0,0,1,.8.289,1,1,0,0,1,.281.727.977.977,0,0,1-.281.715,1.069,1.069,0,0,1-.8.285,1.056,1.056,0,0,1-.793-.285A.984.984,0,0,1,115.594,4.352ZM119.32,10.7a4.984,4.984,0,0,1,.492-2.238A3.6,3.6,0,0,1,121.2,6.926a3.9,3.9,0,0,1,2.047-.535,3.692,3.692,0,0,1,2.777,1.1,4.333,4.333,0,0,1,1.152,2.922l.008.445a5.029,5.029,0,0,1-.48,2.234,3.551,3.551,0,0,1-1.375,1.523,3.925,3.925,0,0,1-2.066.539,3.667,3.667,0,0,1-2.863-1.191,4.563,4.563,0,0,1-1.074-3.176Zm1.9.164a3.406,3.406,0,0,0,.539,2.043,1.752,1.752,0,0,0,1.5.738,1.733,1.733,0,0,0,1.5-.75,3.762,3.762,0,0,0,.535-2.2,3.362,3.362,0,0,0-.551-2.031,1.856,1.856,0,0,0-2.973-.012A3.691,3.691,0,0,0,121.219,10.859Zm9.328-4.312.055.977a3.039,3.039,0,0,1,2.461-1.133q2.641,0,2.688,3.023V15h-1.9V9.523a1.741,1.741,0,0,0-.348-1.191,1.462,1.462,0,0,0-1.137-.387,1.829,1.829,0,0,0-1.711,1.039V15h-1.9V6.547Zm10.859,8.609a3.928,3.928,0,0,1-2.926-1.137,4.124,4.124,0,0,1-1.121-3.027v-.234a5.072,5.072,0,0,1,.488-2.262,3.716,3.716,0,0,1,1.371-1.551,3.625,3.625,0,0,1,1.969-.555,3.318,3.318,0,0,1,2.668,1.1,4.658,4.658,0,0,1,.941,3.117v.766h-5.523a2.539,2.539,0,0,0,.7,1.656,2.1,2.1,0,0,0,1.543.609,2.571,2.571,0,0,0,2.125-1.055l1.023.977a3.418,3.418,0,0,1-1.355,1.176A4.244,4.244,0,0,1,141.406,15.156Zm-.227-7.242a1.6,1.6,0,0,0-1.262.547,2.835,2.835,0,0,0-.613,1.523h3.617V9.844a2.308,2.308,0,0,0-.508-1.441A1.586,1.586,0,0,0,141.18,7.914Zm9.828,4.789a.861.861,0,0,0-.418-.773,4.445,4.445,0,0,0-1.387-.469,7.129,7.129,0,0,1-1.617-.516,2.158,2.158,0,0,1-1.422-1.992,2.25,2.25,0,0,1,.922-1.828,3.644,3.644,0,0,1,2.344-.734,3.792,3.792,0,0,1,2.449.75,2.38,2.38,0,0,1,.934,1.945h-1.9a1.17,1.17,0,0,0-.406-.91,1.557,1.557,0,0,0-1.078-.363,1.682,1.682,0,0,0-1.02.289.911.911,0,0,0-.395.773.769.769,0,0,0,.367.68,5.049,5.049,0,0,0,1.484.488,7.027,7.027,0,0,1,1.754.586,2.484,2.484,0,0,1,.945.816,2.082,2.082,0,0,1,.309,1.156,2.2,2.2,0,0,1-.945,1.848,4.031,4.031,0,0,1-2.477.707,4.371,4.371,0,0,1-1.852-.375,3.047,3.047,0,0,1-1.266-1.031,2.441,2.441,0,0,1-.453-1.414h1.844a1.338,1.338,0,0,0,.508,1.035,1.973,1.973,0,0,0,1.242.363,1.92,1.92,0,0,0,1.141-.285A.883.883,0,0,0,151.008,12.7Zm3.789,4.859-1.023-.609a5.521,5.521,0,0,0,.621-1.238,3.7,3.7,0,0,0,.176-1.074V13.164h1.711l-.008,1.367a3.81,3.81,0,0,1-.418,1.66A4.124,4.124,0,0,1,154.8,17.563ZM37.375,37.641a1.716,1.716,0,0,0,1.18-.414,1.415,1.415,0,0,0,.5-1.023h1.789a2.789,2.789,0,0,1-.492,1.473,3.228,3.228,0,0,1-1.25,1.082,3.725,3.725,0,0,1-1.7.4,3.6,3.6,0,0,1-2.812-1.148,4.555,4.555,0,0,1-1.039-3.172v-.2a4.479,4.479,0,0,1,1.031-3.09,3.571,3.571,0,0,1,2.813-1.16,3.473,3.473,0,0,1,2.457.879,3.148,3.148,0,0,1,1,2.309H39.055a1.738,1.738,0,0,0-.5-1.2,1.6,1.6,0,0,0-1.184-.469,1.671,1.671,0,0,0-1.422.668,3.408,3.408,0,0,0-.508,2.027v.3a3.465,3.465,0,0,0,.5,2.051A1.669,1.669,0,0,0,37.375,37.641ZM41.922,34.7a4.984,4.984,0,0,1,.492-2.238A3.6,3.6,0,0,1,43.8,30.926a3.9,3.9,0,0,1,2.047-.535,3.692,3.692,0,0,1,2.777,1.1,4.333,4.333,0,0,1,1.152,2.922l.008.445a5.029,5.029,0,0,1-.48,2.234,3.551,3.551,0,0,1-1.375,1.523,3.925,3.925,0,0,1-2.066.539A3.667,3.667,0,0,1,43,37.965a4.563,4.563,0,0,1-1.074-3.176Zm1.9.164a3.406,3.406,0,0,0,.539,2.043,1.752,1.752,0,0,0,1.5.738,1.733,1.733,0,0,0,1.5-.75,3.762,3.762,0,0,0,.535-2.2,3.362,3.362,0,0,0-.551-2.031,1.856,1.856,0,0,0-2.973-.012A3.691,3.691,0,0,0,43.82,34.859Zm9.352-4.312.055.883a3.042,3.042,0,0,1,2.438-1.039,2.337,2.337,0,0,1,2.32,1.3,3,3,0,0,1,2.594-1.3,2.636,2.636,0,0,1,2.082.773,3.405,3.405,0,0,1,.7,2.281V39h-1.9V33.5a1.681,1.681,0,0,0-.352-1.18,1.539,1.539,0,0,0-1.164-.375,1.581,1.581,0,0,0-1.059.348,1.833,1.833,0,0,0-.574.91L58.32,39h-1.9V33.438A1.354,1.354,0,0,0,54.9,31.945a1.671,1.671,0,0,0-1.617.93V39h-1.9V30.547Zm19.555,4.313a5.078,5.078,0,0,1-.879,3.133,2.863,2.863,0,0,1-2.418,1.164,2.758,2.758,0,0,1-2.312-1.07L67.023,39H65.3V27h1.9v4.359a2.748,2.748,0,0,1,2.211-.969,2.9,2.9,0,0,1,2.43,1.148,5.162,5.162,0,0,1,.883,3.211Zm-1.9-.164a3.589,3.589,0,0,0-.484-2.062,1.613,1.613,0,0,0-1.406-.687A1.763,1.763,0,0,0,67.2,33.023v3.484a1.781,1.781,0,0,0,1.75,1.1,1.6,1.6,0,0,0,1.375-.664,3.477,3.477,0,0,0,.5-2.008ZM76.336,39h-1.9V30.547h1.9ZM74.32,28.352a1.008,1.008,0,0,1,.277-.727,1.048,1.048,0,0,1,.793-.289,1.061,1.061,0,0,1,.8.289,1,1,0,0,1,.281.727.977.977,0,0,1-.281.715,1.069,1.069,0,0,1-.8.285,1.056,1.056,0,0,1-.793-.285A.984.984,0,0,1,74.32,28.352Zm5.844,2.2.055.977a3.039,3.039,0,0,1,2.461-1.133q2.641,0,2.688,3.023V39h-1.9V33.523a1.741,1.741,0,0,0-.348-1.191,1.462,1.462,0,0,0-1.137-.387,1.829,1.829,0,0,0-1.711,1.039V39h-1.9V30.547ZM92.352,39a2.93,2.93,0,0,1-.219-.789,3.193,3.193,0,0,1-4.3.219,2.325,2.325,0,0,1-.8-1.8,2.4,2.4,0,0,1,1-2.074,4.865,4.865,0,0,1,2.871-.723H92.07v-.555A1.481,1.481,0,0,0,91.7,32.23a1.456,1.456,0,0,0-1.117-.395,1.672,1.672,0,0,0-1.062.324,1,1,0,0,0-.414.824h-1.9a2.107,2.107,0,0,1,.461-1.3,3.071,3.071,0,0,1,1.254-.949,4.4,4.4,0,0,1,1.77-.344,3.547,3.547,0,0,1,2.367.746,2.661,2.661,0,0,1,.906,2.1v3.813a4.321,4.321,0,0,0,.32,1.82V39Zm-2.086-1.367a2.159,2.159,0,0,0,1.059-.273,1.827,1.827,0,0,0,.746-.734V35.031H91.047a2.8,2.8,0,0,0-1.586.367,1.189,1.189,0,0,0-.531,1.039,1.109,1.109,0,0,0,.363.871A1.407,1.407,0,0,0,90.266,37.633Zm9.164.008a1.716,1.716,0,0,0,1.18-.414,1.415,1.415,0,0,0,.5-1.023H102.9a2.789,2.789,0,0,1-.492,1.473,3.228,3.228,0,0,1-1.25,1.082,3.725,3.725,0,0,1-1.7.4,3.6,3.6,0,0,1-2.812-1.148A4.555,4.555,0,0,1,95.6,34.836v-.2a4.479,4.479,0,0,1,1.031-3.09,3.571,3.571,0,0,1,2.813-1.16,3.473,3.473,0,0,1,2.457.879,3.148,3.148,0,0,1,1,2.309h-1.789a1.738,1.738,0,0,0-.5-1.2,1.6,1.6,0,0,0-1.184-.469,1.671,1.671,0,0,0-1.422.668,3.408,3.408,0,0,0-.508,2.027v.3a3.465,3.465,0,0,0,.5,2.051A1.669,1.669,0,0,0,99.43,37.641ZM106.352,39h-1.9V30.547h1.9Zm-2.016-10.648a1.008,1.008,0,0,1,.277-.727,1.048,1.048,0,0,1,.793-.289,1.061,1.061,0,0,1,.8.289,1,1,0,0,1,.281.727.977.977,0,0,1-.281.715,1.069,1.069,0,0,1-.8.285,1.056,1.056,0,0,1-.793-.285A.984.984,0,0,1,104.336,28.352Zm3.727,6.344a4.984,4.984,0,0,1,.492-2.238,3.6,3.6,0,0,1,1.383-1.531,3.9,3.9,0,0,1,2.047-.535,3.692,3.692,0,0,1,2.777,1.1,4.333,4.333,0,0,1,1.152,2.922l.008.445a5.029,5.029,0,0,1-.48,2.234,3.551,3.551,0,0,1-1.375,1.523,3.925,3.925,0,0,1-2.066.539,3.667,3.667,0,0,1-2.863-1.191,4.563,4.563,0,0,1-1.074-3.176Zm1.9.164A3.406,3.406,0,0,0,110.5,36.9a1.752,1.752,0,0,0,1.5.738,1.733,1.733,0,0,0,1.5-.75,3.762,3.762,0,0,0,.535-2.2,3.362,3.362,0,0,0-.551-2.031,1.856,1.856,0,0,0-2.973-.012A3.691,3.691,0,0,0,109.961,34.859Zm9.328-4.312.055.977a3.039,3.039,0,0,1,2.461-1.133q2.641,0,2.688,3.023V39h-1.9V33.523a1.741,1.741,0,0,0-.348-1.191,1.462,1.462,0,0,0-1.137-.387,1.829,1.829,0,0,0-1.711,1.039V39h-1.9V30.547Zm10.859,8.609a3.928,3.928,0,0,1-2.926-1.137,4.124,4.124,0,0,1-1.121-3.027v-.234a5.072,5.072,0,0,1,.488-2.262,3.716,3.716,0,0,1,1.371-1.551,3.625,3.625,0,0,1,1.969-.555,3.318,3.318,0,0,1,2.668,1.1,4.658,4.658,0,0,1,.941,3.117v.766h-5.523a2.539,2.539,0,0,0,.7,1.656,2.1,2.1,0,0,0,1.543.609,2.571,2.571,0,0,0,2.125-1.055l1.023.977a3.418,3.418,0,0,1-1.355,1.176A4.244,4.244,0,0,1,130.148,39.156Zm-.227-7.242a1.6,1.6,0,0,0-1.262.547,2.835,2.835,0,0,0-.613,1.523h3.617v-.141a2.307,2.307,0,0,0-.508-1.441A1.586,1.586,0,0,0,129.922,31.914ZM139.75,36.7a.861.861,0,0,0-.418-.773,4.445,4.445,0,0,0-1.387-.469,7.129,7.129,0,0,1-1.617-.516,2.158,2.158,0,0,1-1.422-1.992,2.25,2.25,0,0,1,.922-1.828,3.644,3.644,0,0,1,2.344-.734,3.792,3.792,0,0,1,2.449.75,2.38,2.38,0,0,1,.934,1.945h-1.9a1.17,1.17,0,0,0-.406-.91,1.557,1.557,0,0,0-1.078-.363,1.682,1.682,0,0,0-1.02.289.911.911,0,0,0-.395.773.769.769,0,0,0,.367.68,5.049,5.049,0,0,0,1.484.488,7.027,7.027,0,0,1,1.754.586,2.484,2.484,0,0,1,.945.816,2.082,2.082,0,0,1,.309,1.156,2.2,2.2,0,0,1-.945,1.848,4.031,4.031,0,0,1-2.477.707,4.371,4.371,0,0,1-1.852-.375,3.047,3.047,0,0,1-1.266-1.031,2.441,2.441,0,0,1-.453-1.414h1.844a1.338,1.338,0,0,0,.508,1.035,1.973,1.973,0,0,0,1.242.363,1.92,1.92,0,0,0,1.141-.285A.883.883,0,0,0,139.75,36.7Zm10.461-.422,1.719-5.734h2.023l-3.359,9.734a2.73,2.73,0,0,1-2.625,2.133,3.384,3.384,0,0,1-.914-.141V40.8l.359.023a1.848,1.848,0,0,0,1.082-.262,1.734,1.734,0,0,0,.574-.878l.273-.726-2.969-8.408h2.047ZM44.27,61.641a1.716,1.716,0,0,0,1.18-.414,1.415,1.415,0,0,0,.5-1.023h1.789a2.789,2.789,0,0,1-.492,1.473A3.228,3.228,0,0,1,46,62.758a3.725,3.725,0,0,1-1.7.4,3.6,3.6,0,0,1-2.812-1.148,4.555,4.555,0,0,1-1.039-3.172v-.2a4.479,4.479,0,0,1,1.031-3.09,3.571,3.571,0,0,1,2.813-1.16,3.473,3.473,0,0,1,2.457.879,3.148,3.148,0,0,1,1,2.309H45.949a1.738,1.738,0,0,0-.5-1.2,1.6,1.6,0,0,0-1.184-.469,1.671,1.671,0,0,0-1.422.668,3.408,3.408,0,0,0-.508,2.027v.3a3.465,3.465,0,0,0,.5,2.051A1.669,1.669,0,0,0,44.27,61.641ZM48.816,58.7a4.984,4.984,0,0,1,.492-2.238,3.6,3.6,0,0,1,1.383-1.531,3.9,3.9,0,0,1,2.047-.535,3.692,3.692,0,0,1,2.777,1.1,4.333,4.333,0,0,1,1.152,2.922l.008.445a5.029,5.029,0,0,1-.48,2.234,3.551,3.551,0,0,1-1.375,1.523,3.925,3.925,0,0,1-2.066.539,3.667,3.667,0,0,1-2.863-1.191,4.563,4.563,0,0,1-1.074-3.176Zm1.9.164a3.406,3.406,0,0,0,.539,2.043,1.752,1.752,0,0,0,1.5.738,1.733,1.733,0,0,0,1.5-.75,3.762,3.762,0,0,0,.535-2.2,3.362,3.362,0,0,0-.551-2.031,1.856,1.856,0,0,0-2.973-.012A3.691,3.691,0,0,0,50.715,58.859Zm9.328-4.312.055.977a3.039,3.039,0,0,1,2.461-1.133q2.641,0,2.688,3.023V63h-1.9V57.523A1.741,1.741,0,0,0,63,56.332a1.462,1.462,0,0,0-1.137-.387,1.829,1.829,0,0,0-1.711,1.039V63h-1.9V54.547ZM71.918,60.7a.861.861,0,0,0-.418-.773,4.445,4.445,0,0,0-1.387-.469,7.129,7.129,0,0,1-1.617-.516,2.158,2.158,0,0,1-1.422-1.992A2.25,2.25,0,0,1,68,55.125a3.644,3.644,0,0,1,2.344-.734,3.792,3.792,0,0,1,2.449.75,2.38,2.38,0,0,1,.934,1.945h-1.9a1.17,1.17,0,0,0-.406-.91,1.557,1.557,0,0,0-1.078-.363,1.682,1.682,0,0,0-1.02.289.911.911,0,0,0-.395.773.769.769,0,0,0,.367.68,5.049,5.049,0,0,0,1.484.488,7.027,7.027,0,0,1,1.754.586,2.484,2.484,0,0,1,.945.816,2.082,2.082,0,0,1,.309,1.156,2.2,2.2,0,0,1-.945,1.848,4.031,4.031,0,0,1-2.477.707,4.371,4.371,0,0,1-1.852-.375,3.047,3.047,0,0,1-1.266-1.031,2.441,2.441,0,0,1-.453-1.414h1.844a1.338,1.338,0,0,0,.508,1.035,1.973,1.973,0,0,0,1.242.363,1.92,1.92,0,0,0,1.141-.285A.883.883,0,0,0,71.918,60.7Zm7.242,2.453a3.928,3.928,0,0,1-2.926-1.137,4.124,4.124,0,0,1-1.121-3.027v-.234A5.072,5.072,0,0,1,75.6,56.5a3.716,3.716,0,0,1,1.371-1.551,3.625,3.625,0,0,1,1.969-.555,3.318,3.318,0,0,1,2.668,1.1,4.658,4.658,0,0,1,.941,3.117v.766H77.027a2.539,2.539,0,0,0,.7,1.656,2.1,2.1,0,0,0,1.543.609,2.571,2.571,0,0,0,2.125-1.055l1.023.977a3.418,3.418,0,0,1-1.355,1.176A4.244,4.244,0,0,1,79.16,63.156Zm-.227-7.242a1.6,1.6,0,0,0-1.262.547,2.835,2.835,0,0,0-.613,1.523h3.617v-.141a2.307,2.307,0,0,0-.508-1.441A1.586,1.586,0,0,0,78.934,55.914ZM87.5,61.641a1.716,1.716,0,0,0,1.18-.414,1.415,1.415,0,0,0,.5-1.023h1.789a2.789,2.789,0,0,1-.492,1.473,3.228,3.228,0,0,1-1.25,1.082,3.725,3.725,0,0,1-1.7.4,3.6,3.6,0,0,1-2.812-1.148,4.555,4.555,0,0,1-1.039-3.172v-.2a4.479,4.479,0,0,1,1.031-3.09,3.571,3.571,0,0,1,2.813-1.16,3.473,3.473,0,0,1,2.457.879,3.148,3.148,0,0,1,1,2.309H89.176a1.738,1.738,0,0,0-.5-1.2,1.6,1.6,0,0,0-1.184-.469,1.671,1.671,0,0,0-1.422.668,3.408,3.408,0,0,0-.508,2.027v.3a3.465,3.465,0,0,0,.5,2.051A1.669,1.669,0,0,0,87.5,61.641Zm10.023.531a2.944,2.944,0,0,1-2.375.984,2.624,2.624,0,0,1-2.082-.8,3.423,3.423,0,0,1-.707-2.328V54.547h1.9V60q0,1.609,1.336,1.609a1.876,1.876,0,0,0,1.867-.992v-6.07h1.9V63H97.566Zm7.492.984a3.928,3.928,0,0,1-2.926-1.137,4.124,4.124,0,0,1-1.121-3.027v-.234a5.072,5.072,0,0,1,.488-2.262,3.716,3.716,0,0,1,1.371-1.551,3.625,3.625,0,0,1,1.969-.555,3.318,3.318,0,0,1,2.668,1.1,4.658,4.658,0,0,1,.941,3.117v.766h-5.523a2.539,2.539,0,0,0,.7,1.656,2.1,2.1,0,0,0,1.543.609,2.571,2.571,0,0,0,2.125-1.055l1.023.977a3.418,3.418,0,0,1-1.355,1.176A4.244,4.244,0,0,1,105.012,63.156Zm-.227-7.242a1.6,1.6,0,0,0-1.262.547,2.835,2.835,0,0,0-.613,1.523h3.617v-.141a2.307,2.307,0,0,0-.508-1.441A1.586,1.586,0,0,0,104.785,55.914Zm6.852-1.367.055.977a3.039,3.039,0,0,1,2.461-1.133q2.641,0,2.688,3.023V63h-1.9V57.523a1.741,1.741,0,0,0-.348-1.191,1.462,1.462,0,0,0-1.137-.387,1.829,1.829,0,0,0-1.711,1.039V63h-1.9V54.547Zm10.609,7.094a1.716,1.716,0,0,0,1.18-.414,1.415,1.415,0,0,0,.5-1.023h1.789a2.789,2.789,0,0,1-.492,1.473,3.228,3.228,0,0,1-1.25,1.082,3.725,3.725,0,0,1-1.7.4,3.6,3.6,0,0,1-2.812-1.148,4.555,4.555,0,0,1-1.039-3.172v-.2a4.479,4.479,0,0,1,1.031-3.09,3.571,3.571,0,0,1,2.813-1.16,3.473,3.473,0,0,1,2.457.879,3.148,3.148,0,0,1,1,2.309h-1.789a1.738,1.738,0,0,0-.5-1.2,1.6,1.6,0,0,0-1.184-.469,1.671,1.671,0,0,0-1.422.668,3.408,3.408,0,0,0-.508,2.027v.3a3.465,3.465,0,0,0,.5,2.051A1.669,1.669,0,0,0,122.246,61.641ZM129.168,63h-1.9V54.547h1.9Zm-2.016-10.648a1.008,1.008,0,0,1,.277-.727,1.048,1.048,0,0,1,.793-.289,1.061,1.061,0,0,1,.8.289,1,1,0,0,1,.281.727.977.977,0,0,1-.281.715,1.069,1.069,0,0,1-.8.285,1.056,1.056,0,0,1-.793-.285A.984.984,0,0,1,127.152,52.352ZM136.285,63a2.93,2.93,0,0,1-.219-.789,3.193,3.193,0,0,1-4.3.219,2.325,2.325,0,0,1-.8-1.8,2.4,2.4,0,0,1,1-2.074,4.865,4.865,0,0,1,2.871-.723H136v-.555a1.481,1.481,0,0,0-.367-1.051,1.456,1.456,0,0,0-1.117-.395,1.672,1.672,0,0,0-1.062.324,1,1,0,0,0-.414.824h-1.9a2.107,2.107,0,0,1,.461-1.3,3.071,3.071,0,0,1,1.254-.949,4.4,4.4,0,0,1,1.77-.344,3.547,3.547,0,0,1,2.367.746,2.661,2.661,0,0,1,.906,2.1v3.813a4.321,4.321,0,0,0,.32,1.82V63ZM134.2,61.633a2.159,2.159,0,0,0,1.059-.273,1.827,1.827,0,0,0,.746-.734V59.031H134.98a2.8,2.8,0,0,0-1.586.367,1.189,1.189,0,0,0-.531,1.039,1.109,1.109,0,0,0,.363.871A1.407,1.407,0,0,0,134.2,61.633Zm10.43-.93a.861.861,0,0,0-.418-.773,4.445,4.445,0,0,0-1.387-.469,7.129,7.129,0,0,1-1.617-.516,2.158,2.158,0,0,1-1.422-1.992,2.25,2.25,0,0,1,.922-1.828,3.644,3.644,0,0,1,2.344-.734,3.792,3.792,0,0,1,2.449.75,2.38,2.38,0,0,1,.934,1.945h-1.9a1.17,1.17,0,0,0-.406-.91,1.557,1.557,0,0,0-1.078-.363,1.682,1.682,0,0,0-1.02.289.911.911,0,0,0-.395.773.769.769,0,0,0,.367.68,5.049,5.049,0,0,0,1.484.488,7.027,7.027,0,0,1,1.754.586,2.484,2.484,0,0,1,.945.816A2.082,2.082,0,0,1,146.5,60.6a2.2,2.2,0,0,1-.945,1.848,4.031,4.031,0,0,1-2.477.707,4.371,4.371,0,0,1-1.852-.375,3.047,3.047,0,0,1-1.266-1.031,2.441,2.441,0,0,1-.453-1.414h1.844a1.338,1.338,0,0,0,.508,1.035,1.973,1.973,0,0,0,1.242.363,1.92,1.92,0,0,0,1.141-.285A.883.883,0,0,0,144.629,60.7Z" transform="translate(731 4911.694)" fill="#12263f"/>
    <path id="Trazado_875578" data-name="Trazado 875578" d="M14.313,3.625l3.281,8.719,3.273-8.719h2.555V15H21.453V11.25l.2-5.016L18.289,15H16.875L13.523,6.242l.2,5.008V15H11.75V3.625ZM25.219,10.7a4.984,4.984,0,0,1,.492-2.238,3.6,3.6,0,0,1,1.383-1.531,3.9,3.9,0,0,1,2.047-.535,3.692,3.692,0,0,1,2.777,1.1,4.333,4.333,0,0,1,1.152,2.922l.008.445a5.029,5.029,0,0,1-.48,2.234,3.551,3.551,0,0,1-1.375,1.523,3.925,3.925,0,0,1-2.066.539,3.667,3.667,0,0,1-2.863-1.191,4.563,4.563,0,0,1-1.074-3.176Zm1.9.164a3.406,3.406,0,0,0,.539,2.043,1.752,1.752,0,0,0,1.5.738,1.733,1.733,0,0,0,1.5-.75,3.762,3.762,0,0,0,.535-2.2,3.362,3.362,0,0,0-.551-2.031,1.856,1.856,0,0,0-2.973-.012A3.691,3.691,0,0,0,27.117,10.859Zm9.328-4.312.055.977a3.039,3.039,0,0,1,2.461-1.133q2.641,0,2.688,3.023V15h-1.9V9.523A1.741,1.741,0,0,0,39.4,8.332a1.462,1.462,0,0,0-1.137-.387,1.829,1.829,0,0,0-1.711,1.039V15h-1.9V6.547ZM45.6,15H43.7V6.547h1.9ZM43.586,4.352a1.008,1.008,0,0,1,.277-.727,1.048,1.048,0,0,1,.793-.289,1.061,1.061,0,0,1,.8.289,1,1,0,0,1,.281.727.977.977,0,0,1-.281.715,1.069,1.069,0,0,1-.8.285,1.056,1.056,0,0,1-.793-.285A.984.984,0,0,1,43.586,4.352Zm6.461.141V6.547h1.492V7.953H50.047v4.719a1.039,1.039,0,0,0,.191.7.888.888,0,0,0,.684.215,2.924,2.924,0,0,0,.664-.078v1.469a4.676,4.676,0,0,1-1.25.18q-2.187,0-2.187-2.414V7.953H46.758V6.547h1.391V4.492ZM52.4,10.7a4.984,4.984,0,0,1,.492-2.238,3.6,3.6,0,0,1,1.383-1.531,3.9,3.9,0,0,1,2.047-.535,3.692,3.692,0,0,1,2.777,1.1,4.333,4.333,0,0,1,1.152,2.922l.008.445a5.029,5.029,0,0,1-.48,2.234A3.551,3.551,0,0,1,58.4,14.617a3.925,3.925,0,0,1-2.066.539,3.667,3.667,0,0,1-2.863-1.191A4.563,4.563,0,0,1,52.4,10.789Zm1.9.164a3.406,3.406,0,0,0,.539,2.043,1.752,1.752,0,0,0,1.5.738,1.733,1.733,0,0,0,1.5-.75,3.762,3.762,0,0,0,.535-2.2,3.362,3.362,0,0,0-.551-2.031,1.856,1.856,0,0,0-2.973-.012A3.691,3.691,0,0,0,54.3,10.859ZM66.289,8.281a4.7,4.7,0,0,0-.773-.062,1.741,1.741,0,0,0-1.758,1V15h-1.9V6.547h1.813l.047.945a2.139,2.139,0,0,1,1.906-1.1A1.777,1.777,0,0,1,66.3,6.5Zm4.773,6.875a3.928,3.928,0,0,1-2.926-1.137,4.124,4.124,0,0,1-1.121-3.027v-.234A5.072,5.072,0,0,1,67.5,8.5a3.716,3.716,0,0,1,1.371-1.551,3.625,3.625,0,0,1,1.969-.555,3.318,3.318,0,0,1,2.668,1.1,4.658,4.658,0,0,1,.941,3.117v.766H68.93a2.539,2.539,0,0,0,.7,1.656,2.1,2.1,0,0,0,1.543.609A2.571,2.571,0,0,0,73.3,12.586l1.023.977a3.418,3.418,0,0,1-1.355,1.176A4.244,4.244,0,0,1,71.063,15.156Zm-.227-7.242a1.6,1.6,0,0,0-1.262.547,2.835,2.835,0,0,0-.613,1.523h3.617V9.844A2.307,2.307,0,0,0,72.07,8.4,1.586,1.586,0,0,0,70.836,7.914ZM75.57,10.7a4.984,4.984,0,0,1,.492-2.238,3.6,3.6,0,0,1,1.383-1.531,3.9,3.9,0,0,1,2.047-.535,3.692,3.692,0,0,1,2.777,1.1,4.333,4.333,0,0,1,1.152,2.922l.008.445a5.029,5.029,0,0,1-.48,2.234,3.551,3.551,0,0,1-1.375,1.523,3.925,3.925,0,0,1-2.066.539,3.667,3.667,0,0,1-2.863-1.191,4.563,4.563,0,0,1-1.074-3.176Zm1.9.164a3.406,3.406,0,0,0,.539,2.043,1.752,1.752,0,0,0,1.5.738,1.733,1.733,0,0,0,1.5-.75,3.762,3.762,0,0,0,.535-2.2,3.362,3.362,0,0,0-.551-2.031,1.856,1.856,0,0,0-2.973-.012A3.691,3.691,0,0,0,77.469,10.859Zm14.508,1.422L93.7,6.547h2.023l-3.359,9.734a2.73,2.73,0,0,1-2.625,2.133,3.384,3.384,0,0,1-.914-.141V16.8l.359.023a1.848,1.848,0,0,0,1.082-.262,1.734,1.734,0,0,0,.574-.878l.273-.726L88.141,6.547h2.047ZM105.844,15a2.93,2.93,0,0,1-.219-.789,3.193,3.193,0,0,1-4.3.219,2.325,2.325,0,0,1-.8-1.8,2.4,2.4,0,0,1,1-2.074,4.865,4.865,0,0,1,2.871-.723h1.164V9.281A1.481,1.481,0,0,0,105.2,8.23a1.456,1.456,0,0,0-1.117-.395,1.672,1.672,0,0,0-1.062.324,1,1,0,0,0-.414.824h-1.9a2.107,2.107,0,0,1,.461-1.3,3.071,3.071,0,0,1,1.254-.949,4.4,4.4,0,0,1,1.77-.344,3.547,3.547,0,0,1,2.367.746,2.661,2.661,0,0,1,.906,2.1v3.813a4.321,4.321,0,0,0,.32,1.82V15Zm-2.086-1.367a2.159,2.159,0,0,0,1.059-.273,1.827,1.827,0,0,0,.746-.734V11.031h-1.023a2.8,2.8,0,0,0-1.586.367,1.189,1.189,0,0,0-.531,1.039,1.109,1.109,0,0,0,.363.871A1.407,1.407,0,0,0,103.758,13.633Zm7.453-7.086.055.977a3.039,3.039,0,0,1,2.461-1.133q2.641,0,2.688,3.023V15h-1.9V9.523a1.741,1.741,0,0,0-.348-1.191,1.462,1.462,0,0,0-1.137-.387,1.829,1.829,0,0,0-1.711,1.039V15h-1.9V6.547ZM123.4,15a2.93,2.93,0,0,1-.219-.789,3.193,3.193,0,0,1-4.3.219,2.325,2.325,0,0,1-.8-1.8,2.4,2.4,0,0,1,1-2.074,4.865,4.865,0,0,1,2.871-.723h1.164V9.281a1.481,1.481,0,0,0-.367-1.051,1.456,1.456,0,0,0-1.117-.395,1.672,1.672,0,0,0-1.062.324,1,1,0,0,0-.414.824h-1.9a2.107,2.107,0,0,1,.461-1.3,3.071,3.071,0,0,1,1.254-.949,4.4,4.4,0,0,1,1.77-.344,3.547,3.547,0,0,1,2.367.746,2.661,2.661,0,0,1,.906,2.1v3.813a4.321,4.321,0,0,0,.32,1.82V15Zm-2.086-1.367a2.159,2.159,0,0,0,1.059-.273,1.827,1.827,0,0,0,.746-.734V11.031h-1.023a2.8,2.8,0,0,0-1.586.367,1.189,1.189,0,0,0-.531,1.039,1.109,1.109,0,0,0,.363.871A1.407,1.407,0,0,0,121.313,13.633ZM122.367,3h2.164l-2.164,2.367-1.523,0Zm6.656,12h-1.9V3h1.9Zm4.086,0h-1.9V6.547h1.9ZM131.094,4.352a1.008,1.008,0,0,1,.277-.727,1.048,1.048,0,0,1,.793-.289,1.061,1.061,0,0,1,.8.289,1,1,0,0,1,.281.727.977.977,0,0,1-.281.715,1.069,1.069,0,0,1-.8.285,1.056,1.056,0,0,1-.793-.285A.984.984,0,0,1,131.094,4.352Zm8.82,8.352a.861.861,0,0,0-.418-.773,4.445,4.445,0,0,0-1.387-.469,7.129,7.129,0,0,1-1.617-.516,2.158,2.158,0,0,1-1.422-1.992,2.25,2.25,0,0,1,.922-1.828,3.644,3.644,0,0,1,2.344-.734,3.792,3.792,0,0,1,2.449.75,2.38,2.38,0,0,1,.934,1.945h-1.9a1.17,1.17,0,0,0-.406-.91,1.557,1.557,0,0,0-1.078-.363,1.682,1.682,0,0,0-1.02.289.911.911,0,0,0-.395.773.769.769,0,0,0,.367.68,5.049,5.049,0,0,0,1.484.488,7.027,7.027,0,0,1,1.754.586,2.484,2.484,0,0,1,.945.816,2.082,2.082,0,0,1,.309,1.156,2.2,2.2,0,0,1-.945,1.848,4.031,4.031,0,0,1-2.477.707,4.371,4.371,0,0,1-1.852-.375,3.047,3.047,0,0,1-1.266-1.031,2.441,2.441,0,0,1-.453-1.414h1.844a1.338,1.338,0,0,0,.508,1.035,1.973,1.973,0,0,0,1.242.363,1.92,1.92,0,0,0,1.141-.285A.883.883,0,0,0,139.914,12.7Zm5.539,2.3h-1.9V6.547h1.9ZM143.438,4.352a1.008,1.008,0,0,1,.277-.727,1.048,1.048,0,0,1,.793-.289,1.061,1.061,0,0,1,.8.289,1,1,0,0,1,.281.727.977.977,0,0,1-.281.715,1.069,1.069,0,0,1-.8.285,1.056,1.056,0,0,1-.793-.285A.984.984,0,0,1,143.438,4.352Zm8.82,8.352a.861.861,0,0,0-.418-.773,4.445,4.445,0,0,0-1.387-.469,7.129,7.129,0,0,1-1.617-.516,2.158,2.158,0,0,1-1.422-1.992,2.25,2.25,0,0,1,.922-1.828,3.644,3.644,0,0,1,2.344-.734,3.792,3.792,0,0,1,2.449.75,2.38,2.38,0,0,1,.934,1.945h-1.9a1.17,1.17,0,0,0-.406-.91,1.557,1.557,0,0,0-1.078-.363,1.682,1.682,0,0,0-1.02.289.911.911,0,0,0-.395.773.769.769,0,0,0,.367.68,5.049,5.049,0,0,0,1.484.488,7.027,7.027,0,0,1,1.754.586,2.484,2.484,0,0,1,.945.816,2.082,2.082,0,0,1,.309,1.156,2.2,2.2,0,0,1-.945,1.848,4.031,4.031,0,0,1-2.477.707,4.371,4.371,0,0,1-1.852-.375,3.047,3.047,0,0,1-1.266-1.031,2.441,2.441,0,0,1-.453-1.414h1.844a1.338,1.338,0,0,0,.508,1.035,1.973,1.973,0,0,0,1.242.363,1.92,1.92,0,0,0,1.141-.285A.883.883,0,0,0,152.258,12.7Zm7.148-1.992a5.026,5.026,0,0,1,.906-3.137,2.9,2.9,0,0,1,2.43-1.184,2.759,2.759,0,0,1,2.172.938V3h1.9V15h-1.719L165,14.125a2.8,2.8,0,0,1-2.273,1.031,2.887,2.887,0,0,1-2.4-1.2A5.21,5.21,0,0,1,159.406,10.711Zm1.9.164a3.519,3.519,0,0,0,.5,2.012,1.61,1.61,0,0,0,1.41.723,1.793,1.793,0,0,0,1.7-1.039V8.961a1.766,1.766,0,0,0-1.687-1.016,1.622,1.622,0,0,0-1.422.73A3.919,3.919,0,0,0,161.3,10.875Zm11.211,4.281a3.928,3.928,0,0,1-2.926-1.137,4.124,4.124,0,0,1-1.121-3.027v-.234a5.072,5.072,0,0,1,.488-2.262,3.716,3.716,0,0,1,1.371-1.551,3.625,3.625,0,0,1,1.969-.555,3.318,3.318,0,0,1,2.668,1.1,4.658,4.658,0,0,1,.941,3.117v.766h-5.523a2.539,2.539,0,0,0,.7,1.656,2.1,2.1,0,0,0,1.543.609,2.571,2.571,0,0,0,2.125-1.055l1.023.977a3.418,3.418,0,0,1-1.355,1.176A4.244,4.244,0,0,1,172.516,15.156Zm-.227-7.242a1.6,1.6,0,0,0-1.262.547,2.835,2.835,0,0,0-.613,1.523h3.617V9.844a2.308,2.308,0,0,0-.508-1.441A1.586,1.586,0,0,0,172.289,7.914ZM20.57,36.594l1.789-6.047H24.32L21.391,39H19.742l-2.953-8.453h1.969Zm8.555,2.563A3.928,3.928,0,0,1,26.2,38.02a4.124,4.124,0,0,1-1.121-3.027v-.234a5.072,5.072,0,0,1,.488-2.262,3.716,3.716,0,0,1,1.371-1.551,3.625,3.625,0,0,1,1.969-.555,3.318,3.318,0,0,1,2.668,1.1,4.658,4.658,0,0,1,.941,3.117v.766H26.992a2.539,2.539,0,0,0,.7,1.656,2.1,2.1,0,0,0,1.543.609,2.571,2.571,0,0,0,2.125-1.055l1.023.977a3.418,3.418,0,0,1-1.355,1.176A4.244,4.244,0,0,1,29.125,39.156ZM28.9,31.914a1.6,1.6,0,0,0-1.262.547,2.835,2.835,0,0,0-.613,1.523h3.617v-.141a2.307,2.307,0,0,0-.508-1.441A1.586,1.586,0,0,0,28.9,31.914Zm6.852-1.367.055.977a3.039,3.039,0,0,1,2.461-1.133q2.641,0,2.688,3.023V39h-1.9V33.523a1.741,1.741,0,0,0-.348-1.191,1.462,1.462,0,0,0-1.137-.387,1.829,1.829,0,0,0-1.711,1.039V39h-1.9V30.547Zm9.516-2.055v2.055h1.492v1.406H45.266v4.719a1.039,1.039,0,0,0,.191.7.888.888,0,0,0,.684.215,2.925,2.925,0,0,0,.664-.078v1.469a4.676,4.676,0,0,1-1.25.18q-2.187,0-2.187-2.414V31.953H41.977V30.547h1.391V28.492ZM53.258,39a2.93,2.93,0,0,1-.219-.789,3.193,3.193,0,0,1-4.3.219,2.325,2.325,0,0,1-.8-1.8,2.4,2.4,0,0,1,1-2.074,4.865,4.865,0,0,1,2.871-.723h1.164v-.555a1.481,1.481,0,0,0-.367-1.051,1.456,1.456,0,0,0-1.117-.395,1.672,1.672,0,0,0-1.062.324,1,1,0,0,0-.414.824h-1.9a2.107,2.107,0,0,1,.461-1.3,3.071,3.071,0,0,1,1.254-.949,4.4,4.4,0,0,1,1.77-.344,3.547,3.547,0,0,1,2.367.746,2.661,2.661,0,0,1,.906,2.1v3.813a4.321,4.321,0,0,0,.32,1.82V39Zm-2.086-1.367a2.159,2.159,0,0,0,1.059-.273,1.827,1.827,0,0,0,.746-.734V35.031H51.953a2.8,2.8,0,0,0-1.586.367,1.189,1.189,0,0,0-.531,1.039,1.109,1.109,0,0,0,.363.871A1.407,1.407,0,0,0,51.172,37.633Zm7.672-7.086v9.2a2.781,2.781,0,0,1-.645,1.98,2.47,2.47,0,0,1-1.887.684,3.794,3.794,0,0,1-1.008-.133v-1.5a2.925,2.925,0,0,0,.672.07q.945,0,.969-1.031V30.547Zm-2.062-2.2a1.008,1.008,0,0,1,.277-.727,1.048,1.048,0,0,1,.793-.289,1.061,1.061,0,0,1,.8.289,1,1,0,0,1,.281.727.977.977,0,0,1-.281.715,1.069,1.069,0,0,1-.8.285,1.056,1.056,0,0,1-.793-.285A.984.984,0,0,1,56.781,28.352ZM65.922,39a2.93,2.93,0,0,1-.219-.789,3.193,3.193,0,0,1-4.3.219,2.325,2.325,0,0,1-.8-1.8,2.4,2.4,0,0,1,1-2.074,4.865,4.865,0,0,1,2.871-.723h1.164v-.555a1.481,1.481,0,0,0-.367-1.051,1.456,1.456,0,0,0-1.117-.395,1.672,1.672,0,0,0-1.062.324,1,1,0,0,0-.414.824h-1.9a2.107,2.107,0,0,1,.461-1.3,3.071,3.071,0,0,1,1.254-.949,4.4,4.4,0,0,1,1.77-.344,3.547,3.547,0,0,1,2.367.746,2.661,2.661,0,0,1,.906,2.1v3.813a4.321,4.321,0,0,0,.32,1.82V39Zm-2.086-1.367a2.159,2.159,0,0,0,1.059-.273,1.827,1.827,0,0,0,.746-.734V35.031H64.617a2.8,2.8,0,0,0-1.586.367,1.189,1.189,0,0,0-.531,1.039,1.109,1.109,0,0,0,.363.871A1.407,1.407,0,0,0,63.836,37.633Zm12.633-1.352,1.719-5.734h2.023l-3.359,9.734a2.73,2.73,0,0,1-2.625,2.133,3.384,3.384,0,0,1-.914-.141V40.8l.359.023a1.848,1.848,0,0,0,1.082-.262,1.734,1.734,0,0,0,.574-.878l.273-.726-2.969-8.408H74.68Zm8.461-1.57a5.026,5.026,0,0,1,.906-3.137,2.9,2.9,0,0,1,2.43-1.184,2.759,2.759,0,0,1,2.172.938V27h1.9V39H90.617l-.094-.875a2.8,2.8,0,0,1-2.273,1.031,2.887,2.887,0,0,1-2.4-1.2A5.21,5.21,0,0,1,84.93,34.711Zm1.9.164a3.519,3.519,0,0,0,.5,2.012,1.61,1.61,0,0,0,1.41.723,1.793,1.793,0,0,0,1.7-1.039V32.961a1.766,1.766,0,0,0-1.687-1.016,1.622,1.622,0,0,0-1.422.73A3.918,3.918,0,0,0,86.828,34.875Zm11.211,4.281a3.928,3.928,0,0,1-2.926-1.137,4.124,4.124,0,0,1-1.121-3.027v-.234A5.072,5.072,0,0,1,94.48,32.5a3.716,3.716,0,0,1,1.371-1.551,3.625,3.625,0,0,1,1.969-.555,3.318,3.318,0,0,1,2.668,1.1,4.658,4.658,0,0,1,.941,3.117v.766H95.906a2.539,2.539,0,0,0,.7,1.656,2.1,2.1,0,0,0,1.543.609,2.571,2.571,0,0,0,2.125-1.055l1.023.977a3.418,3.418,0,0,1-1.355,1.176A4.244,4.244,0,0,1,98.039,39.156Zm-.227-7.242a1.6,1.6,0,0,0-1.262.547,2.835,2.835,0,0,0-.613,1.523h3.617v-.141a2.307,2.307,0,0,0-.508-1.441A1.586,1.586,0,0,0,97.813,31.914Zm9.828,4.789a.861.861,0,0,0-.418-.773,4.445,4.445,0,0,0-1.387-.469,7.129,7.129,0,0,1-1.617-.516,2.158,2.158,0,0,1-1.422-1.992,2.25,2.25,0,0,1,.922-1.828,3.644,3.644,0,0,1,2.344-.734,3.792,3.792,0,0,1,2.449.75,2.38,2.38,0,0,1,.934,1.945h-1.9a1.17,1.17,0,0,0-.406-.91,1.557,1.557,0,0,0-1.078-.363,1.682,1.682,0,0,0-1.02.289.911.911,0,0,0-.395.773.769.769,0,0,0,.367.68,5.049,5.049,0,0,0,1.484.488,7.027,7.027,0,0,1,1.754.586,2.484,2.484,0,0,1,.945.816,2.082,2.082,0,0,1,.309,1.156,2.2,2.2,0,0,1-.945,1.848,4.031,4.031,0,0,1-2.477.707,4.371,4.371,0,0,1-1.852-.375,3.047,3.047,0,0,1-1.266-1.031,2.441,2.441,0,0,1-.453-1.414h1.844a1.338,1.338,0,0,0,.508,1.035,1.973,1.973,0,0,0,1.242.363,1.92,1.92,0,0,0,1.141-.285A.883.883,0,0,0,107.641,36.7Zm6.5-.109,1.789-6.047h1.961L114.961,39h-1.648l-2.953-8.453h1.969Zm8.555,2.563a3.928,3.928,0,0,1-2.926-1.137,4.124,4.124,0,0,1-1.121-3.027v-.234a5.072,5.072,0,0,1,.488-2.262,3.716,3.716,0,0,1,1.371-1.551,3.625,3.625,0,0,1,1.969-.555,3.318,3.318,0,0,1,2.668,1.1,4.658,4.658,0,0,1,.941,3.117v.766h-5.523a2.539,2.539,0,0,0,.7,1.656,2.1,2.1,0,0,0,1.543.609,2.571,2.571,0,0,0,2.125-1.055l1.023.977a3.418,3.418,0,0,1-1.355,1.176A4.244,4.244,0,0,1,122.7,39.156Zm-.227-7.242a1.6,1.6,0,0,0-1.262.547,2.835,2.835,0,0,0-.613,1.523h3.617v-.141A2.307,2.307,0,0,0,123.7,32.4,1.586,1.586,0,0,0,122.469,31.914Zm6.852-1.367.055.977a3.039,3.039,0,0,1,2.461-1.133q2.641,0,2.688,3.023V39h-1.9V33.523a1.741,1.741,0,0,0-.348-1.191,1.462,1.462,0,0,0-1.137-.387,1.829,1.829,0,0,0-1.711,1.039V39h-1.9V30.547Zm9.516-2.055v2.055h1.492v1.406h-1.492v4.719a1.039,1.039,0,0,0,.191.7.888.888,0,0,0,.684.215,2.925,2.925,0,0,0,.664-.078v1.469a4.676,4.676,0,0,1-1.25.18q-2.187,0-2.187-2.414V31.953h-1.391V30.547h1.391V28.492ZM146.828,39a2.93,2.93,0,0,1-.219-.789,3.193,3.193,0,0,1-4.3.219,2.325,2.325,0,0,1-.8-1.8,2.4,2.4,0,0,1,1-2.074,4.865,4.865,0,0,1,2.871-.723h1.164v-.555a1.481,1.481,0,0,0-.367-1.051,1.456,1.456,0,0,0-1.117-.395A1.672,1.672,0,0,0,144,32.16a1,1,0,0,0-.414.824h-1.9a2.107,2.107,0,0,1,.461-1.3,3.071,3.071,0,0,1,1.254-.949,4.4,4.4,0,0,1,1.77-.344,3.547,3.547,0,0,1,2.367.746,2.661,2.661,0,0,1,.906,2.1v3.813a4.321,4.321,0,0,0,.32,1.82V39Zm-2.086-1.367a2.159,2.159,0,0,0,1.059-.273,1.827,1.827,0,0,0,.746-.734V35.031h-1.023a2.8,2.8,0,0,0-1.586.367,1.189,1.189,0,0,0-.531,1.039,1.109,1.109,0,0,0,.363.871A1.407,1.407,0,0,0,144.742,37.633Zm7.672-7.086v9.2a2.781,2.781,0,0,1-.645,1.98,2.47,2.47,0,0,1-1.887.684,3.794,3.794,0,0,1-1.008-.133v-1.5a2.925,2.925,0,0,0,.672.07q.945,0,.969-1.031V30.547Zm-2.062-2.2a1.008,1.008,0,0,1,.277-.727,1.048,1.048,0,0,1,.793-.289,1.061,1.061,0,0,1,.8.289,1,1,0,0,1,.281.727.977.977,0,0,1-.281.715,1.069,1.069,0,0,1-.8.285,1.056,1.056,0,0,1-.793-.285A.984.984,0,0,1,150.352,28.352ZM159.492,39a2.93,2.93,0,0,1-.219-.789,3.193,3.193,0,0,1-4.3.219,2.325,2.325,0,0,1-.8-1.8,2.4,2.4,0,0,1,1-2.074,4.865,4.865,0,0,1,2.871-.723h1.164v-.555a1.481,1.481,0,0,0-.367-1.051,1.456,1.456,0,0,0-1.117-.395,1.672,1.672,0,0,0-1.062.324,1,1,0,0,0-.414.824h-1.9a2.107,2.107,0,0,1,.461-1.3,3.071,3.071,0,0,1,1.254-.949,4.4,4.4,0,0,1,1.77-.344,3.547,3.547,0,0,1,2.367.746,2.661,2.661,0,0,1,.906,2.1v3.813a4.321,4.321,0,0,0,.32,1.82V39Zm-2.086-1.367a2.159,2.159,0,0,0,1.059-.273,1.827,1.827,0,0,0,.746-.734V35.031h-1.023a2.8,2.8,0,0,0-1.586.367,1.189,1.189,0,0,0-.531,1.039,1.109,1.109,0,0,0,.363.871A1.407,1.407,0,0,0,157.406,37.633Zm10.43-.93a.861.861,0,0,0-.418-.773,4.445,4.445,0,0,0-1.387-.469,7.129,7.129,0,0,1-1.617-.516,2.158,2.158,0,0,1-1.422-1.992,2.25,2.25,0,0,1,.922-1.828,3.644,3.644,0,0,1,2.344-.734,3.792,3.792,0,0,1,2.449.75,2.38,2.38,0,0,1,.934,1.945h-1.9a1.17,1.17,0,0,0-.406-.91,1.557,1.557,0,0,0-1.078-.363,1.682,1.682,0,0,0-1.02.289.911.911,0,0,0-.395.773.769.769,0,0,0,.367.68,5.049,5.049,0,0,0,1.484.488,7.027,7.027,0,0,1,1.754.586,2.484,2.484,0,0,1,.945.816A2.082,2.082,0,0,1,169.7,36.6a2.2,2.2,0,0,1-.945,1.848,4.031,4.031,0,0,1-2.477.707,4.371,4.371,0,0,1-1.852-.375,3.047,3.047,0,0,1-1.266-1.031,2.441,2.441,0,0,1-.453-1.414h1.844a1.338,1.338,0,0,0,.508,1.035,1.973,1.973,0,0,0,1.242.363,1.92,1.92,0,0,0,1.141-.285A.883.883,0,0,0,167.836,36.7Z" transform="translate(1074 4911.694)" fill="#12263f"/>
    <g id="Grupo_1100712" data-name="Grupo 1100712" transform="translate(295 4725)">
      <g id="Grupo_1100711" data-name="Grupo 1100711" clip-path="url(#clip-path)">
        <path id="Trazado_875181" data-name="Trazado 875181" d="M168.095,301.657C84.926,301.657,17.263,234,17.263,150.829S84.926,0,168.095,0a150.541,150.541,0,0,1,81.738,24.066L239.408,40.227a131.332,131.332,0,0,0-71.314-21c-72.564,0-131.6,59.034-131.6,131.6s59.034,131.6,131.6,131.6a131.5,131.5,0,0,0,69.364-19.765L247.6,279a150.7,150.7,0,0,1-79.5,22.653" transform="translate(19.811)" fill="#ffce73"/>
        <path id="Trazado_875182" data-name="Trazado 875182" d="M84.986,94.6A41.534,41.534,0,1,1,43.453,53.067,41.533,41.533,0,0,1,84.986,94.6" transform="translate(2.201 60.901)" fill="#feebcf"/>
        <path id="Trazado_875183" data-name="Trazado 875183" d="M45.654,142.456A45.654,45.654,0,1,1,91.31,96.8a45.7,45.7,0,0,1-45.656,45.654m0-83.066A37.412,37.412,0,1,0,83.068,96.8,37.454,37.454,0,0,0,45.654,59.391" transform="translate(0 58.698)" fill="#ffce73"/>
        <path id="Trazado_875184" data-name="Trazado 875184" d="M131.356,18.85c-2.335-1.675-4.7-3.269-7.143-4.809a4.224,4.224,0,0,0-1.319,2.418c2.281,1.456,4.506,2.968,6.7,4.534a139.682,139.682,0,0,1-1.1,228.215c-2.227,1.594-4.534,3.105-6.868,4.534a4.326,4.326,0,0,0,1.456,2.362c2.388-1.484,4.753-3.05,7.031-4.671A142.457,142.457,0,0,0,131.356,18.85" transform="translate(139.587 16.114)" fill="#6a4d23"/>
        <path id="Trazado_875185" data-name="Trazado 875185" d="M131.027,17.9a4.415,4.415,0,0,1-.3,1.594,4.412,4.412,0,0,1-4.121,2.828,4.42,4.42,0,0,1-4.422-4.422,3.81,3.81,0,0,1,.082-.8,4.236,4.236,0,0,1,1.319-2.418,4.412,4.412,0,0,1,7.446,3.215" transform="translate(140.217 15.468)" fill="#6a4d23"/>
        <path id="Trazado_875186" data-name="Trazado 875186" d="M130.4,127.541a4.416,4.416,0,0,1-4.4,4.424,4.236,4.236,0,0,1-2.856-1.072,4.317,4.317,0,0,1-1.454-2.365,3.864,3.864,0,0,1-.112-.988,4.414,4.414,0,0,1,4.422-4.4,4.146,4.146,0,0,1,2.556.853,4.045,4.045,0,0,1,1.621,2.225,4.152,4.152,0,0,1,.221,1.319" transform="translate(139.528 141.324)" fill="#6a4d23"/>
        <path id="Trazado_875187" data-name="Trazado 875187" d="M326.46,301.657c-83.167,0-150.827-67.661-150.827-150.827S243.294,0,326.46,0A150.541,150.541,0,0,1,408.2,24.066l-10.42,16.161a131.357,131.357,0,0,0-71.318-21c-72.562,0-131.6,59.034-131.6,131.6s59.034,131.6,131.6,131.6a131.5,131.5,0,0,0,69.364-19.765L405.963,279a150.7,150.7,0,0,1-79.5,22.653" transform="translate(201.56)" fill="#ffb937"/>
        <path id="Trazado_875188" data-name="Trazado 875188" d="M243.355,94.6a41.534,41.534,0,1,1-41.533-41.533A41.532,41.532,0,0,1,243.355,94.6" transform="translate(183.948 60.901)" fill="#feebcf"/>
        <path id="Trazado_875189" data-name="Trazado 875189" d="M204.022,142.456A45.654,45.654,0,1,1,249.678,96.8a45.705,45.705,0,0,1-45.656,45.654m0-83.066A37.412,37.412,0,1,0,241.436,96.8a37.454,37.454,0,0,0-37.414-37.412" transform="translate(181.746 58.698)" fill="#ffb937"/>
        <path id="Trazado_875190" data-name="Trazado 875190" d="M289.724,18.85c-2.334-1.675-4.7-3.269-7.143-4.809a4.223,4.223,0,0,0-1.319,2.418c2.281,1.456,4.506,2.968,6.7,4.534a139.682,139.682,0,0,1-1.1,228.215c-2.227,1.594-4.534,3.105-6.868,4.534a4.326,4.326,0,0,0,1.456,2.362c2.388-1.484,4.753-3.05,7.031-4.671A142.457,142.457,0,0,0,289.724,18.85" transform="translate(321.333 16.114)" fill="#6a4d23"/>
        <path id="Trazado_875191" data-name="Trazado 875191" d="M289.4,17.9a4.417,4.417,0,0,1-.3,1.594,4.412,4.412,0,0,1-4.119,2.828A4.42,4.42,0,0,1,280.55,17.9a3.809,3.809,0,0,1,.082-.8,4.236,4.236,0,0,1,1.319-2.418A4.412,4.412,0,0,1,289.4,17.9" transform="translate(321.965 15.468)" fill="#6a4d23"/>
        <path id="Trazado_875192" data-name="Trazado 875192" d="M288.767,127.541a4.415,4.415,0,0,1-4.4,4.424,4.24,4.24,0,0,1-2.856-1.072,4.332,4.332,0,0,1-1.456-2.365,3.96,3.96,0,0,1-.109-.988,4.414,4.414,0,0,1,4.422-4.4,4.146,4.146,0,0,1,2.556.853,4.055,4.055,0,0,1,1.621,2.225,4.151,4.151,0,0,1,.219,1.319" transform="translate(321.275 141.324)" fill="#6a4d23"/>
        <path id="Trazado_875193" data-name="Trazado 875193" d="M484.829,301.657C401.663,301.657,334,234,334,150.829S401.663,0,484.829,0A150.543,150.543,0,0,1,566.57,24.066L556.146,40.227a131.334,131.334,0,0,0-71.316-21c-72.562,0-131.6,59.034-131.6,131.6s59.034,131.6,131.6,131.6A131.523,131.523,0,0,0,554.2,262.662L564.332,279a150.709,150.709,0,0,1-79.5,22.653" transform="translate(383.305)" fill="#ffce73"/>
        <path id="Trazado_875194" data-name="Trazado 875194" d="M401.723,94.6A41.534,41.534,0,1,1,360.19,53.067,41.533,41.533,0,0,1,401.723,94.6" transform="translate(365.695 60.901)" fill="#feebcf"/>
        <path id="Trazado_875195" data-name="Trazado 875195" d="M362.392,142.456A45.654,45.654,0,1,1,408.046,96.8a45.707,45.707,0,0,1-45.654,45.654m0-83.066A37.412,37.412,0,1,0,399.8,96.8a37.454,37.454,0,0,0-37.412-37.412" transform="translate(363.492 58.698)" fill="#ffce73"/>
        <path id="Trazado_875196" data-name="Trazado 875196" d="M448.092,18.85c-2.335-1.675-4.7-3.269-7.143-4.809a4.223,4.223,0,0,0-1.319,2.418c2.281,1.456,4.506,2.968,6.7,4.534a139.682,139.682,0,0,1-1.1,228.215c-2.225,1.594-4.534,3.105-6.868,4.534a4.326,4.326,0,0,0,1.456,2.362c2.39-1.484,4.753-3.05,7.031-4.671A142.457,142.457,0,0,0,448.092,18.85" transform="translate(503.08 16.114)" fill="#6a4d23"/>
        <path id="Trazado_875197" data-name="Trazado 875197" d="M447.764,17.9a4.415,4.415,0,0,1-.3,1.594,4.412,4.412,0,0,1-4.121,2.828,4.42,4.42,0,0,1-4.422-4.422,3.811,3.811,0,0,1,.082-.8,4.236,4.236,0,0,1,1.319-2.418,4.412,4.412,0,0,1,7.446,3.215" transform="translate(503.711 15.468)" fill="#6a4d23"/>
        <path id="Trazado_875198" data-name="Trazado 875198" d="M447.135,127.541a4.415,4.415,0,0,1-4.4,4.424,4.24,4.24,0,0,1-2.856-1.072,4.332,4.332,0,0,1-1.456-2.365,3.961,3.961,0,0,1-.11-.988,4.414,4.414,0,0,1,4.422-4.4,4.146,4.146,0,0,1,2.556.853,4.055,4.055,0,0,1,1.621,2.225,4.152,4.152,0,0,1,.219,1.319" transform="translate(503.021 141.324)" fill="#6a4d23"/>
      </g>
    </g>
    <rect id="Rectángulo_402577" data-name="Rectángulo 402577" width="207" height="40" rx="20" transform="translate(378 5041.694)" fill="#ffb937"/>
    <rect id="Rectángulo_402578" data-name="Rectángulo 402578" width="207" height="40" rx="20" transform="translate(721 5041.694)" fill="#ffb937"/>
    <rect id="Rectángulo_402579" data-name="Rectángulo 402579" width="207" height="40" rx="20" transform="translate(1064 5041.694)" fill="#ffb937"/>
    <path id="Trazado_875579" data-name="Trazado 875579" d="M19.152,10.625h-2.2V15H14.973V3.625h4a4.653,4.653,0,0,1,3.039.884,3.126,3.126,0,0,1,1.07,2.557,3.2,3.2,0,0,1-.551,1.912A3.5,3.5,0,0,1,21,10.162L23.551,14.9V15H21.434Zm-2.2-1.594H18.98a2.259,2.259,0,0,0,1.563-.5,1.757,1.757,0,0,0,.563-1.379,1.871,1.871,0,0,0-.52-1.414,2.207,2.207,0,0,0-1.551-.516H16.949ZM28.5,15.156A3.928,3.928,0,0,1,25.57,14.02a4.124,4.124,0,0,1-1.121-3.027v-.234A5.072,5.072,0,0,1,24.938,8.5a3.716,3.716,0,0,1,1.371-1.551,3.625,3.625,0,0,1,1.969-.555,3.318,3.318,0,0,1,2.668,1.1,4.658,4.658,0,0,1,.941,3.117v.766H26.363a2.539,2.539,0,0,0,.7,1.656,2.1,2.1,0,0,0,1.543.609,2.571,2.571,0,0,0,2.125-1.055l1.023.977A3.418,3.418,0,0,1,30.4,14.738,4.244,4.244,0,0,1,28.5,15.156ZM28.27,7.914a1.6,1.6,0,0,0-1.262.547,2.835,2.835,0,0,0-.613,1.523h3.617V9.844A2.307,2.307,0,0,0,29.5,8.4,1.586,1.586,0,0,0,28.27,7.914ZM38.48,14.172a2.944,2.944,0,0,1-2.375.984,2.624,2.624,0,0,1-2.082-.8,3.423,3.423,0,0,1-.707-2.328V6.547h1.9V12q0,1.609,1.336,1.609a1.876,1.876,0,0,0,1.867-.992V6.547h1.9V15H38.527ZM37.395,3h2.164L37.395,5.367l-1.523,0Zm6.617,3.547.055.977a3.039,3.039,0,0,1,2.461-1.133q2.641,0,2.688,3.023V15h-1.9V9.523a1.741,1.741,0,0,0-.348-1.191,1.462,1.462,0,0,0-1.137-.387,1.829,1.829,0,0,0-1.711,1.039V15h-1.9V6.547Zm10.859,8.609a3.928,3.928,0,0,1-2.926-1.137,4.124,4.124,0,0,1-1.121-3.027v-.234A5.072,5.072,0,0,1,51.313,8.5a3.716,3.716,0,0,1,1.371-1.551,3.625,3.625,0,0,1,1.969-.555,3.318,3.318,0,0,1,2.668,1.1,4.658,4.658,0,0,1,.941,3.117v.766H52.738a2.539,2.539,0,0,0,.7,1.656,2.1,2.1,0,0,0,1.543.609,2.571,2.571,0,0,0,2.125-1.055l1.023.977a3.418,3.418,0,0,1-1.355,1.176A4.244,4.244,0,0,1,54.871,15.156Zm-.227-7.242a1.6,1.6,0,0,0-1.262.547,2.835,2.835,0,0,0-.613,1.523h3.617V9.844A2.307,2.307,0,0,0,55.879,8.4,1.586,1.586,0,0,0,54.645,7.914ZM65.738,15h-1.9V6.547h1.9ZM63.723,4.352A1.008,1.008,0,0,1,64,3.625a1.048,1.048,0,0,1,.793-.289,1.061,1.061,0,0,1,.8.289,1,1,0,0,1,.281.727.977.977,0,0,1-.281.715,1.069,1.069,0,0,1-.8.285A1.056,1.056,0,0,1,64,5.066.984.984,0,0,1,63.723,4.352Zm5.844,2.2.055.977a3.039,3.039,0,0,1,2.461-1.133q2.641,0,2.688,3.023V15h-1.9V9.523a1.741,1.741,0,0,0-.348-1.191,1.462,1.462,0,0,0-1.137-.387,1.829,1.829,0,0,0-1.711,1.039V15h-1.9V6.547ZM77.371,15V7.953H76.082V6.547h1.289V5.773A2.9,2.9,0,0,1,78.152,3.6a2.993,2.993,0,0,1,2.188-.766,4.388,4.388,0,0,1,1.063.141l-.047,1.484a3.739,3.739,0,0,0-.727-.062A1.219,1.219,0,0,0,79.27,5.8v.75h1.719V7.953H79.27V15Zm4.648-4.3a4.984,4.984,0,0,1,.492-2.238,3.6,3.6,0,0,1,1.383-1.531,3.9,3.9,0,0,1,2.047-.535,3.692,3.692,0,0,1,2.777,1.1,4.333,4.333,0,0,1,1.152,2.922l.008.445a5.029,5.029,0,0,1-.48,2.234,3.551,3.551,0,0,1-1.375,1.523,3.925,3.925,0,0,1-2.066.539,3.667,3.667,0,0,1-2.863-1.191,4.563,4.563,0,0,1-1.074-3.176Zm1.9.164a3.406,3.406,0,0,0,.539,2.043,1.752,1.752,0,0,0,1.5.738,1.733,1.733,0,0,0,1.5-.75,3.762,3.762,0,0,0,.535-2.2,3.362,3.362,0,0,0-.551-2.031,1.856,1.856,0,0,0-2.973-.012A3.691,3.691,0,0,0,83.918,10.859ZM95.91,8.281a4.7,4.7,0,0,0-.773-.062,1.741,1.741,0,0,0-1.758,1V15h-1.9V6.547h1.813l.047.945a2.139,2.139,0,0,1,1.906-1.1,1.777,1.777,0,0,1,.672.109Zm2.984-1.734.055.883a3.042,3.042,0,0,1,2.438-1.039,2.337,2.337,0,0,1,2.32,1.3,3,3,0,0,1,2.594-1.3,2.636,2.636,0,0,1,2.082.773,3.405,3.405,0,0,1,.7,2.281V15h-1.9V9.5a1.681,1.681,0,0,0-.352-1.18,1.539,1.539,0,0,0-1.164-.375,1.581,1.581,0,0,0-1.059.348,1.833,1.833,0,0,0-.574.91l.008,5.8h-1.9V9.438a1.354,1.354,0,0,0-1.523-1.492A1.671,1.671,0,0,0,99,8.875V15h-1.9V6.547ZM116.082,15a2.93,2.93,0,0,1-.219-.789,3.193,3.193,0,0,1-4.3.219,2.325,2.325,0,0,1-.8-1.8,2.4,2.4,0,0,1,1-2.074,4.865,4.865,0,0,1,2.871-.723H115.8V9.281a1.481,1.481,0,0,0-.367-1.051,1.456,1.456,0,0,0-1.117-.395,1.672,1.672,0,0,0-1.062.324,1,1,0,0,0-.414.824h-1.9a2.107,2.107,0,0,1,.461-1.3,3.071,3.071,0,0,1,1.254-.949,4.4,4.4,0,0,1,1.77-.344,3.547,3.547,0,0,1,2.367.746,2.661,2.661,0,0,1,.906,2.1v3.813a4.321,4.321,0,0,0,.32,1.82V15ZM114,13.633a2.159,2.159,0,0,0,1.059-.273,1.827,1.827,0,0,0,.746-.734V11.031h-1.023a2.8,2.8,0,0,0-1.586.367,1.189,1.189,0,0,0-.531,1.039,1.109,1.109,0,0,0,.363.871A1.407,1.407,0,0,0,114,13.633Zm9.164.008a1.716,1.716,0,0,0,1.18-.414,1.415,1.415,0,0,0,.5-1.023h1.789a2.789,2.789,0,0,1-.492,1.473,3.228,3.228,0,0,1-1.25,1.082,3.725,3.725,0,0,1-1.7.4,3.6,3.6,0,0,1-2.812-1.148,4.555,4.555,0,0,1-1.039-3.172v-.2a4.479,4.479,0,0,1,1.031-3.09,3.571,3.571,0,0,1,2.813-1.16,3.473,3.473,0,0,1,2.457.879,3.148,3.148,0,0,1,1,2.309H124.84a1.738,1.738,0,0,0-.5-1.2,1.6,1.6,0,0,0-1.184-.469,1.671,1.671,0,0,0-1.422.668,3.408,3.408,0,0,0-.508,2.027v.3a3.465,3.465,0,0,0,.5,2.051A1.669,1.669,0,0,0,123.16,13.641ZM130.082,15h-1.9V6.547h1.9ZM128.066,4.352a1.008,1.008,0,0,1,.277-.727,1.048,1.048,0,0,1,.793-.289,1.061,1.061,0,0,1,.8.289,1,1,0,0,1,.281.727.977.977,0,0,1-.281.715,1.069,1.069,0,0,1-.8.285,1.056,1.056,0,0,1-.793-.285A.984.984,0,0,1,128.066,4.352Zm3.727,6.344a4.984,4.984,0,0,1,.492-2.238,3.6,3.6,0,0,1,1.383-1.531,3.9,3.9,0,0,1,2.047-.535,3.692,3.692,0,0,1,2.777,1.1,4.333,4.333,0,0,1,1.152,2.922l.008.445a5.029,5.029,0,0,1-.48,2.234,3.551,3.551,0,0,1-1.375,1.523,3.925,3.925,0,0,1-2.066.539,3.667,3.667,0,0,1-2.863-1.191,4.563,4.563,0,0,1-1.074-3.176Zm1.9.164a3.406,3.406,0,0,0,.539,2.043,1.752,1.752,0,0,0,1.5.738,1.733,1.733,0,0,0,1.5-.75,3.762,3.762,0,0,0,.535-2.2,3.362,3.362,0,0,0-.551-2.031,1.856,1.856,0,0,0-2.973-.012A3.691,3.691,0,0,0,133.691,10.859ZM136.238,3H138.4l-2.164,2.367-1.523,0Zm6.781,3.547.055.977a3.039,3.039,0,0,1,2.461-1.133q2.641,0,2.688,3.023V15h-1.9V9.523a1.741,1.741,0,0,0-.348-1.191,1.462,1.462,0,0,0-1.137-.387,1.829,1.829,0,0,0-1.711,1.039V15h-1.9V6.547Z" transform="translate(400 5052.694)" fill="#12263f"/>
    <path id="Trazado_875580" data-name="Trazado 875580" d="M21.875,9.922H17.2v3.5h5.461V15H15.227V3.625h7.383V5.219H17.2V8.359h4.672Zm4.992,2.672,1.789-6.047h1.961L27.688,15H26.039L23.086,6.547h1.969ZM36.734,15a2.93,2.93,0,0,1-.219-.789,3.193,3.193,0,0,1-4.3.219,2.325,2.325,0,0,1-.8-1.8,2.4,2.4,0,0,1,1-2.074,4.865,4.865,0,0,1,2.871-.723h1.164V9.281a1.481,1.481,0,0,0-.367-1.051,1.456,1.456,0,0,0-1.117-.395,1.672,1.672,0,0,0-1.062.324,1,1,0,0,0-.414.824h-1.9a2.107,2.107,0,0,1,.461-1.3,3.071,3.071,0,0,1,1.254-.949,4.4,4.4,0,0,1,1.77-.344,3.547,3.547,0,0,1,2.367.746,2.661,2.661,0,0,1,.906,2.1v3.813a4.321,4.321,0,0,0,.32,1.82V15Zm-2.086-1.367a2.159,2.159,0,0,0,1.059-.273,1.827,1.827,0,0,0,.746-.734V11.031H35.43a2.8,2.8,0,0,0-1.586.367,1.189,1.189,0,0,0-.531,1.039,1.109,1.109,0,0,0,.363.871A1.407,1.407,0,0,0,34.648,13.633ZM42.359,15h-1.9V3h1.9Zm7.188-.828a2.944,2.944,0,0,1-2.375.984,2.624,2.624,0,0,1-2.082-.8,3.423,3.423,0,0,1-.707-2.328V6.547h1.9V12q0,1.609,1.336,1.609a1.876,1.876,0,0,0,1.867-.992V6.547h1.9V15H49.594ZM48.461,3h2.164L48.461,5.367l-1.523,0Zm9.906,12a2.93,2.93,0,0,1-.219-.789,3.193,3.193,0,0,1-4.3.219,2.325,2.325,0,0,1-.8-1.8,2.4,2.4,0,0,1,1-2.074,4.865,4.865,0,0,1,2.871-.723h1.164V9.281a1.481,1.481,0,0,0-.367-1.051A1.456,1.456,0,0,0,56.6,7.836a1.672,1.672,0,0,0-1.062.324,1,1,0,0,0-.414.824h-1.9a2.107,2.107,0,0,1,.461-1.3,3.071,3.071,0,0,1,1.254-.949,4.4,4.4,0,0,1,1.77-.344,3.547,3.547,0,0,1,2.367.746,2.661,2.661,0,0,1,.906,2.1v3.813a4.321,4.321,0,0,0,.32,1.82V15Zm-2.086-1.367a2.159,2.159,0,0,0,1.059-.273,1.827,1.827,0,0,0,.746-.734V11.031H57.063a2.8,2.8,0,0,0-1.586.367,1.189,1.189,0,0,0-.531,1.039,1.109,1.109,0,0,0,.363.871A1.407,1.407,0,0,0,56.281,13.633ZM71.008,15a2.93,2.93,0,0,1-.219-.789,3.193,3.193,0,0,1-4.3.219,2.325,2.325,0,0,1-.8-1.8,2.4,2.4,0,0,1,1-2.074,4.865,4.865,0,0,1,2.871-.723h1.164V9.281a1.481,1.481,0,0,0-.367-1.051,1.456,1.456,0,0,0-1.117-.395,1.672,1.672,0,0,0-1.062.324,1,1,0,0,0-.414.824h-1.9a2.107,2.107,0,0,1,.461-1.3,3.071,3.071,0,0,1,1.254-.949,4.4,4.4,0,0,1,1.77-.344,3.547,3.547,0,0,1,2.367.746,2.661,2.661,0,0,1,.906,2.1v3.813a4.321,4.321,0,0,0,.32,1.82V15Zm-2.086-1.367a2.159,2.159,0,0,0,1.059-.273,1.827,1.827,0,0,0,.746-.734V11.031H69.7a2.8,2.8,0,0,0-1.586.367,1.189,1.189,0,0,0-.531,1.039,1.109,1.109,0,0,0,.363.871A1.407,1.407,0,0,0,68.922,13.633ZM76.633,15h-1.9V3h1.9ZM81.078,4.492V6.547H82.57V7.953H81.078v4.719a1.039,1.039,0,0,0,.191.7.888.888,0,0,0,.684.215,2.925,2.925,0,0,0,.664-.078v1.469a4.676,4.676,0,0,1-1.25.18q-2.188,0-2.187-2.414V7.953H77.789V6.547H79.18V4.492Zm6.664,10.664a3.928,3.928,0,0,1-2.926-1.137A4.124,4.124,0,0,1,83.7,10.992v-.234A5.072,5.072,0,0,1,84.184,8.5a3.716,3.716,0,0,1,1.371-1.551,3.625,3.625,0,0,1,1.969-.555,3.318,3.318,0,0,1,2.668,1.1,4.658,4.658,0,0,1,.941,3.117v.766H85.609a2.539,2.539,0,0,0,.7,1.656,2.1,2.1,0,0,0,1.543.609,2.571,2.571,0,0,0,2.125-1.055L91,13.563a3.418,3.418,0,0,1-1.355,1.176A4.244,4.244,0,0,1,87.742,15.156Zm-.227-7.242a1.6,1.6,0,0,0-1.262.547,2.835,2.835,0,0,0-.613,1.523h3.617V9.844A2.307,2.307,0,0,0,88.75,8.4,1.586,1.586,0,0,0,87.516,7.914Zm9.516.367a4.7,4.7,0,0,0-.773-.062,1.741,1.741,0,0,0-1.758,1V15H92.6V6.547h1.813l.047.945a2.139,2.139,0,0,1,1.906-1.1,1.777,1.777,0,0,1,.672.109Zm2.961-1.734.055.977a3.039,3.039,0,0,1,2.461-1.133q2.641,0,2.688,3.023V15h-1.9V9.523a1.741,1.741,0,0,0-.348-1.191,1.462,1.462,0,0,0-1.137-.387A1.829,1.829,0,0,0,100.1,8.984V15H98.2V6.547ZM112.18,15a2.93,2.93,0,0,1-.219-.789,3.193,3.193,0,0,1-4.3.219,2.325,2.325,0,0,1-.8-1.8,2.4,2.4,0,0,1,1-2.074,4.865,4.865,0,0,1,2.871-.723H111.9V9.281a1.481,1.481,0,0,0-.367-1.051,1.456,1.456,0,0,0-1.117-.395,1.672,1.672,0,0,0-1.062.324,1,1,0,0,0-.414.824h-1.9a2.107,2.107,0,0,1,.461-1.3,3.071,3.071,0,0,1,1.254-.949,4.4,4.4,0,0,1,1.77-.344,3.547,3.547,0,0,1,2.367.746,2.661,2.661,0,0,1,.906,2.1v3.813a4.321,4.321,0,0,0,.32,1.82V15Zm-2.086-1.367a2.159,2.159,0,0,0,1.059-.273,1.827,1.827,0,0,0,.746-.734V11.031h-1.023a2.8,2.8,0,0,0-1.586.367,1.189,1.189,0,0,0-.531,1.039,1.109,1.109,0,0,0,.363.871A1.407,1.407,0,0,0,110.094,13.633Zm8.07-9.141V6.547h1.492V7.953h-1.492v4.719a1.039,1.039,0,0,0,.191.7.888.888,0,0,0,.684.215,2.925,2.925,0,0,0,.664-.078v1.469a4.676,4.676,0,0,1-1.25.18q-2.188,0-2.187-2.414V7.953h-1.391V6.547h1.391V4.492ZM123.125,15h-1.9V6.547h1.9ZM121.109,4.352a1.008,1.008,0,0,1,.277-.727,1.048,1.048,0,0,1,.793-.289,1.061,1.061,0,0,1,.8.289,1,1,0,0,1,.281.727.977.977,0,0,1-.281.715,1.069,1.069,0,0,1-.8.285,1.056,1.056,0,0,1-.793-.285A.984.984,0,0,1,121.109,4.352Zm7.063,8.242,1.789-6.047h1.961L128.992,15h-1.648l-2.953-8.453h1.969ZM138.039,15a2.93,2.93,0,0,1-.219-.789,3.193,3.193,0,0,1-4.3.219,2.325,2.325,0,0,1-.8-1.8,2.4,2.4,0,0,1,1-2.074,4.865,4.865,0,0,1,2.871-.723h1.164V9.281a1.481,1.481,0,0,0-.367-1.051,1.456,1.456,0,0,0-1.117-.395,1.672,1.672,0,0,0-1.062.324,1,1,0,0,0-.414.824h-1.9a2.107,2.107,0,0,1,.461-1.3,3.071,3.071,0,0,1,1.254-.949,4.4,4.4,0,0,1,1.77-.344,3.547,3.547,0,0,1,2.367.746,2.661,2.661,0,0,1,.906,2.1v3.813a4.321,4.321,0,0,0,.32,1.82V15Zm-2.086-1.367a2.16,2.16,0,0,0,1.059-.273,1.827,1.827,0,0,0,.746-.734V11.031h-1.023a2.8,2.8,0,0,0-1.586.367,1.189,1.189,0,0,0-.531,1.039,1.109,1.109,0,0,0,.363.871A1.407,1.407,0,0,0,135.953,13.633Zm10.43-.93a.861.861,0,0,0-.418-.773,4.445,4.445,0,0,0-1.387-.469,7.129,7.129,0,0,1-1.617-.516,2.158,2.158,0,0,1-1.422-1.992,2.25,2.25,0,0,1,.922-1.828,3.644,3.644,0,0,1,2.344-.734,3.792,3.792,0,0,1,2.449.75,2.38,2.38,0,0,1,.934,1.945h-1.9a1.17,1.17,0,0,0-.406-.91,1.557,1.557,0,0,0-1.078-.363,1.682,1.682,0,0,0-1.02.289.911.911,0,0,0-.395.773.769.769,0,0,0,.367.68,5.049,5.049,0,0,0,1.484.488,7.027,7.027,0,0,1,1.754.586,2.484,2.484,0,0,1,.945.816,2.082,2.082,0,0,1,.309,1.156,2.2,2.2,0,0,1-.945,1.848,4.031,4.031,0,0,1-2.477.707,4.371,4.371,0,0,1-1.852-.375,3.047,3.047,0,0,1-1.266-1.031,2.441,2.441,0,0,1-.453-1.414H143.1a1.338,1.338,0,0,0,.508,1.035,1.973,1.973,0,0,0,1.242.363,1.92,1.92,0,0,0,1.141-.285A.883.883,0,0,0,146.383,12.7Z" transform="translate(743 5052.694)" fill="#12263f"/>
    <path id="Trazado_875581" data-name="Trazado 875581" d="M27.98,5.219H24.434V15H22.473V5.219H18.957V3.625H27.98ZM27.309,10.7A4.984,4.984,0,0,1,27.8,8.457a3.6,3.6,0,0,1,1.383-1.531,3.9,3.9,0,0,1,2.047-.535,3.692,3.692,0,0,1,2.777,1.1,4.333,4.333,0,0,1,1.152,2.922l.008.445a5.029,5.029,0,0,1-.48,2.234,3.551,3.551,0,0,1-1.375,1.523,3.925,3.925,0,0,1-2.066.539,3.667,3.667,0,0,1-2.863-1.191,4.563,4.563,0,0,1-1.074-3.176Zm1.9.164a3.406,3.406,0,0,0,.539,2.043,1.752,1.752,0,0,0,1.5.738,1.733,1.733,0,0,0,1.5-.75,3.762,3.762,0,0,0,.535-2.2,3.362,3.362,0,0,0-.551-2.031,1.856,1.856,0,0,0-2.973-.012A3.691,3.691,0,0,0,29.207,10.859Zm9.352-4.312.055.883a3.042,3.042,0,0,1,2.438-1.039,2.337,2.337,0,0,1,2.32,1.3,3,3,0,0,1,2.594-1.3,2.636,2.636,0,0,1,2.082.773,3.405,3.405,0,0,1,.7,2.281V15h-1.9V9.5A1.681,1.681,0,0,0,46.5,8.32a1.539,1.539,0,0,0-1.164-.375,1.581,1.581,0,0,0-1.059.348,1.833,1.833,0,0,0-.574.91l.008,5.8h-1.9V9.438a1.354,1.354,0,0,0-1.523-1.492,1.671,1.671,0,0,0-1.617.93V15h-1.9V6.547ZM55.746,15a2.93,2.93,0,0,1-.219-.789,3.193,3.193,0,0,1-4.3.219,2.325,2.325,0,0,1-.8-1.8,2.4,2.4,0,0,1,1-2.074A4.865,4.865,0,0,1,54.3,9.836h1.164V9.281A1.481,1.481,0,0,0,55.1,8.23a1.456,1.456,0,0,0-1.117-.395,1.672,1.672,0,0,0-1.062.324,1,1,0,0,0-.414.824h-1.9a2.107,2.107,0,0,1,.461-1.3,3.071,3.071,0,0,1,1.254-.949,4.4,4.4,0,0,1,1.77-.344,3.547,3.547,0,0,1,2.367.746,2.661,2.661,0,0,1,.906,2.1v3.813a4.321,4.321,0,0,0,.32,1.82V15ZM53.66,13.633a2.159,2.159,0,0,0,1.059-.273,1.827,1.827,0,0,0,.746-.734V11.031H54.441a2.8,2.8,0,0,0-1.586.367,1.189,1.189,0,0,0-.531,1.039,1.109,1.109,0,0,0,.363.871A1.407,1.407,0,0,0,53.66,13.633Zm9.32-2.922a5.026,5.026,0,0,1,.906-3.137,2.9,2.9,0,0,1,2.43-1.184,2.759,2.759,0,0,1,2.172.938V3h1.9V15H68.668l-.094-.875A2.8,2.8,0,0,1,66.3,15.156a2.887,2.887,0,0,1-2.4-1.2A5.21,5.21,0,0,1,62.98,10.711Zm1.9.164a3.519,3.519,0,0,0,.5,2.012,1.61,1.61,0,0,0,1.41.723,1.793,1.793,0,0,0,1.7-1.039V8.961A1.766,1.766,0,0,0,66.8,7.945a1.622,1.622,0,0,0-1.422.73A3.918,3.918,0,0,0,64.879,10.875ZM76.09,15.156a3.928,3.928,0,0,1-2.926-1.137,4.124,4.124,0,0,1-1.121-3.027v-.234A5.072,5.072,0,0,1,72.531,8.5,3.716,3.716,0,0,1,73.9,6.945a3.625,3.625,0,0,1,1.969-.555,3.318,3.318,0,0,1,2.668,1.1,4.658,4.658,0,0,1,.941,3.117v.766H73.957a2.539,2.539,0,0,0,.7,1.656,2.1,2.1,0,0,0,1.543.609,2.571,2.571,0,0,0,2.125-1.055l1.023.977a3.418,3.418,0,0,1-1.355,1.176A4.244,4.244,0,0,1,76.09,15.156Zm-.227-7.242a1.6,1.6,0,0,0-1.262.547,2.835,2.835,0,0,0-.613,1.523h3.617V9.844A2.307,2.307,0,0,0,77.1,8.4,1.586,1.586,0,0,0,75.863,7.914Zm8.719,2.8a5.026,5.026,0,0,1,.906-3.137,2.9,2.9,0,0,1,2.43-1.184,2.759,2.759,0,0,1,2.172.938V3h1.9V15H90.27l-.094-.875A2.8,2.8,0,0,1,87.9,15.156a2.887,2.887,0,0,1-2.4-1.2A5.21,5.21,0,0,1,84.582,10.711Zm1.9.164a3.519,3.519,0,0,0,.5,2.012,1.61,1.61,0,0,0,1.41.723,1.793,1.793,0,0,0,1.7-1.039V8.961A1.766,1.766,0,0,0,88.4,7.945a1.622,1.622,0,0,0-1.422.73A3.918,3.918,0,0,0,86.48,10.875Zm11.211,4.281a3.928,3.928,0,0,1-2.926-1.137,4.124,4.124,0,0,1-1.121-3.027v-.234A5.072,5.072,0,0,1,94.133,8.5,3.716,3.716,0,0,1,95.5,6.945a3.625,3.625,0,0,1,1.969-.555,3.318,3.318,0,0,1,2.668,1.1,4.658,4.658,0,0,1,.941,3.117v.766H95.559a2.539,2.539,0,0,0,.7,1.656,2.1,2.1,0,0,0,1.543.609,2.571,2.571,0,0,0,2.125-1.055l1.023.977a3.418,3.418,0,0,1-1.355,1.176A4.244,4.244,0,0,1,97.691,15.156Zm-.227-7.242a1.6,1.6,0,0,0-1.262.547,2.835,2.835,0,0,0-.613,1.523h3.617V9.844A2.307,2.307,0,0,0,98.7,8.4,1.586,1.586,0,0,0,97.465,7.914Zm8.563,5.727a1.716,1.716,0,0,0,1.18-.414,1.415,1.415,0,0,0,.5-1.023H109.5A2.789,2.789,0,0,1,109,13.676a3.228,3.228,0,0,1-1.25,1.082,3.725,3.725,0,0,1-1.7.4,3.6,3.6,0,0,1-2.812-1.148,4.555,4.555,0,0,1-1.039-3.172v-.2a4.479,4.479,0,0,1,1.031-3.09,3.571,3.571,0,0,1,2.813-1.16,3.473,3.473,0,0,1,2.457.879,3.148,3.148,0,0,1,1,2.309h-1.789a1.738,1.738,0,0,0-.5-1.2,1.6,1.6,0,0,0-1.184-.469,1.671,1.671,0,0,0-1.422.668,3.408,3.408,0,0,0-.508,2.027v.3a3.465,3.465,0,0,0,.5,2.051A1.669,1.669,0,0,0,106.027,13.641ZM112.949,15h-1.9V6.547h1.9ZM110.934,4.352a1.008,1.008,0,0,1,.277-.727A1.048,1.048,0,0,1,112,3.336a1.061,1.061,0,0,1,.8.289,1,1,0,0,1,.281.727.977.977,0,0,1-.281.715,1.069,1.069,0,0,1-.8.285,1.056,1.056,0,0,1-.793-.285A.984.984,0,0,1,110.934,4.352Zm8.82,8.352a.861.861,0,0,0-.418-.773,4.445,4.445,0,0,0-1.387-.469,7.129,7.129,0,0,1-1.617-.516,2.158,2.158,0,0,1-1.422-1.992,2.25,2.25,0,0,1,.922-1.828,3.644,3.644,0,0,1,2.344-.734,3.792,3.792,0,0,1,2.449.75,2.38,2.38,0,0,1,.934,1.945h-1.9a1.17,1.17,0,0,0-.406-.91,1.557,1.557,0,0,0-1.078-.363,1.682,1.682,0,0,0-1.02.289.911.911,0,0,0-.395.773.769.769,0,0,0,.367.68,5.049,5.049,0,0,0,1.484.488,7.027,7.027,0,0,1,1.754.586,2.484,2.484,0,0,1,.945.816,2.082,2.082,0,0,1,.309,1.156,2.2,2.2,0,0,1-.945,1.848,4.031,4.031,0,0,1-2.477.707,4.371,4.371,0,0,1-1.852-.375,3.047,3.047,0,0,1-1.266-1.031,2.441,2.441,0,0,1-.453-1.414h1.844a1.338,1.338,0,0,0,.508,1.035,1.973,1.973,0,0,0,1.242.363,1.92,1.92,0,0,0,1.141-.285A.883.883,0,0,0,119.754,12.7Zm5.539,2.3h-1.9V6.547h1.9ZM123.277,4.352a1.008,1.008,0,0,1,.277-.727,1.048,1.048,0,0,1,.793-.289,1.061,1.061,0,0,1,.8.289,1,1,0,0,1,.281.727.977.977,0,0,1-.281.715,1.069,1.069,0,0,1-.8.285,1.056,1.056,0,0,1-.793-.285A.984.984,0,0,1,123.277,4.352ZM127,10.7a4.984,4.984,0,0,1,.492-2.238,3.6,3.6,0,0,1,1.383-1.531,3.9,3.9,0,0,1,2.047-.535,3.692,3.692,0,0,1,2.777,1.1,4.333,4.333,0,0,1,1.152,2.922l.008.445a5.029,5.029,0,0,1-.48,2.234,3.551,3.551,0,0,1-1.375,1.523,3.925,3.925,0,0,1-2.066.539,3.667,3.667,0,0,1-2.863-1.191A4.563,4.563,0,0,1,127,10.789Zm1.9.164a3.406,3.406,0,0,0,.539,2.043,1.752,1.752,0,0,0,1.5.738,1.733,1.733,0,0,0,1.5-.75,3.762,3.762,0,0,0,.535-2.2,3.362,3.362,0,0,0-.551-2.031,1.856,1.856,0,0,0-2.973-.012A3.691,3.691,0,0,0,128.9,10.859ZM131.449,3h2.164l-2.164,2.367-1.523,0Zm6.781,3.547.055.977a3.039,3.039,0,0,1,2.461-1.133q2.641,0,2.688,3.023V15h-1.9V9.523a1.741,1.741,0,0,0-.348-1.191,1.462,1.462,0,0,0-1.137-.387,1.829,1.829,0,0,0-1.711,1.039V15h-1.9V6.547Z" transform="translate(1086 5052.694)" fill="#12263f"/>
    <path id="Trazado_875574" data-name="Trazado 875574" d="M7.04,17H4.5V7.209l-3.032.94V6.084l5.3-1.9H7.04Z" transform="translate(334 4869)" fill="#12263f"/>
    <path id="Trazado_875575" data-name="Trazado 875575" d="M9.642,17H.87V15.26l4.14-4.412A10.213,10.213,0,0,0,6.271,9.222,2.612,2.612,0,0,0,6.68,7.9a1.955,1.955,0,0,0-.431-1.34,1.555,1.555,0,0,0-1.23-.488,1.677,1.677,0,0,0-1.358.593,2.35,2.35,0,0,0-.5,1.56H.615a4.2,4.2,0,0,1,.558-2.136A3.934,3.934,0,0,1,2.751,4.577a4.8,4.8,0,0,1,2.312-.549,4.54,4.54,0,0,1,3.072.949A3.358,3.358,0,0,1,9.229,7.657a4.3,4.3,0,0,1-.492,1.934,10.745,10.745,0,0,1-1.687,2.294L4.14,14.952h5.5Z" transform="translate(675 4869)" fill="#12263f"/>
    <path id="Trazado_875577" data-name="Trazado 875577" d="M3.454,9.477H4.808A1.907,1.907,0,0,0,6.24,8.993,1.771,1.771,0,0,0,6.706,7.71a1.566,1.566,0,0,0-.461-1.2,1.788,1.788,0,0,0-1.27-.431,1.874,1.874,0,0,0-1.222.4,1.279,1.279,0,0,0-.492,1.042H.721a3.124,3.124,0,0,1,.541-1.8A3.6,3.6,0,0,1,2.773,4.476a5.045,5.045,0,0,1,2.14-.448A4.785,4.785,0,0,1,8.095,5,3.314,3.314,0,0,1,9.246,7.675,2.693,2.693,0,0,1,8.71,9.292,3.483,3.483,0,0,1,7.3,10.426a3.18,3.18,0,0,1,1.613,1.16,3.147,3.147,0,0,1,.532,1.828A3.369,3.369,0,0,1,8.2,16.147a5,5,0,0,1-3.292,1.028A4.741,4.741,0,0,1,1.78,16.165,3.3,3.3,0,0,1,.563,13.493H3.1a1.472,1.472,0,0,0,.541,1.178,1.992,1.992,0,0,0,1.332.457,2,2,0,0,0,1.419-.479,1.654,1.654,0,0,0,.514-1.27q0-1.916-2.109-1.916H3.454Z" transform="translate(1015 4869)" fill="#12263f"/>
    <g id="Grupo_1100714" data-name="Grupo 1100714" transform="translate(438.877 4788)" clip-path="url(#clip-path-2)">
      <path id="Trazado_875199" data-name="Trazado 875199" d="M.06,44.66C.06,33.736.176,22.81,0,11.889c-.066-4.141,2.49-7.94,7.933-7.878,14.745.168,29.494.052,44.241.069a4.432,4.432,0,0,0,2.635-.756,19.536,19.536,0,1,1,21.473,32.64,2.379,2.379,0,0,0-1.251,2.39c.074,2.182.027,4.369.02,6.553-.006,1.937-.593,2.813-1.877,2.836-1.3.023-1.917-.858-1.921-2.76,0-1.887-.024-3.774.009-5.661.013-.757-.25-.972-.966-.758a16.792,16.792,0,0,1-6.351.448c-1.314-.117-1.68.19-1.663,1.546.076,6.256.034,12.513.034,18.769,0,5.959-.193,11.925.062,17.873.2,4.581-2.6,8.267-8.086,8.169-12.012-.217-24.032-.041-36.048-.1-1.449-.007-2,.375-1.777,1.811.082.534-.013,1.093.032,1.636A2.99,2.99,0,0,0,19.357,91.6c.394.037.794.027,1.191.027q23.313,0,46.626,0c3.132,0,4.079-.952,4.08-4.074q0-11.917,0-23.834a5.219,5.219,0,0,1,.059-1.334A1.836,1.836,0,0,1,73.129,60.9a1.671,1.671,0,0,1,1.747,1.339,6.948,6.948,0,0,1,.171,1.615q.016,11.917,0,23.834c-.007,4.977-2.759,7.686-7.779,7.687q-23.387,0-46.775,0c-5.084,0-7.724-2.623-7.74-7.677a4.73,4.73,0,0,1,.005-.744c.2-1.285-.261-1.792-1.618-1.672a38.968,38.968,0,0,1-4.168.02A6.653,6.653,0,0,1,.07,78.326C.042,69.885.061,61.443.06,53V44.66M50,7.759H7.811c-3,0-4.01,1-4.01,4.019q0,32.927,0,65.853c0,2.991,1.034,4.012,4.031,4.012q23.242,0,46.484,0c3.3,0,4.286-.969,4.288-4.233q.005-14.08,0-28.159c0-3.427-.006-6.853,0-10.28,0-.676-.049-1.178-.833-1.518a19.154,19.154,0,0,1-8.172-6.723c-.22-.313-.393-.659-.925-.572-3.006.491-6.037.19-9.056.208-8.045.049-16.091.019-24.136.015-2.428,0-2.936-.523-2.939-2.984q0-2.906,0-5.811c0-2.372.484-2.85,2.887-2.851q13.93,0,27.861,0c2.667,0,2.673,0,3.105-2.575A21.44,21.44,0,0,1,50,7.759M65.836,3.752A15.846,15.846,0,1,0,81.486,19.7,15.85,15.85,0,0,0,65.836,3.752M31.173,26.574h12.5c2.451,0,2.357,0,2.474-2.441.07-1.45-.485-1.7-1.781-1.693-8.485.05-16.971.008-25.456.035-3.053.01-2.561-.523-2.689,2.673-.05,1.249.451,1.459,1.549,1.447,4.465-.051,8.932-.021,13.4-.021" transform="translate(0 0.001)" fill="#6a4d23"/>
      <path id="Trazado_875200" data-name="Trazado 875200" d="M241.058,176a1.868,1.868,0,0,1,1.836,1.94,1.861,1.861,0,0,1-3.715-.044,1.871,1.871,0,0,1,1.879-1.9" transform="translate(-167.9 -123.549)" fill="#6a4d23"/>
      <path id="Trazado_875201" data-name="Trazado 875201" d="M60.8,156.838q-7.743,0-15.485,0a8.326,8.326,0,0,1-1.337-.034,1.875,1.875,0,0,1-.052-3.741,6.461,6.461,0,0,1,1.188-.036q15.709,0,31.417,0a7.039,7.039,0,0,1,1.041.02c1.1.166,1.874.72,1.851,1.93-.021,1.131-.768,1.666-1.8,1.829a8.62,8.62,0,0,1-1.338.032q-7.743,0-15.485,0" transform="translate(-29.619 -107.417)" fill="#6a4d23"/>
      <path id="Trazado_875202" data-name="Trazado 875202" d="M60.867,212.426q7.741,0,15.481,0a8.109,8.109,0,0,1,1.483.061,1.729,1.729,0,0,1,1.584,1.842,1.76,1.76,0,0,1-1.638,1.8,6.826,6.826,0,0,1-1.188.038q-15.779,0-31.558,0a5.68,5.68,0,0,1-1.477-.1,1.823,1.823,0,0,1,.054-3.547,6.582,6.582,0,0,1,1.479-.094q7.89-.008,15.779,0" transform="translate(-29.611 -149.121)" fill="#6a4d23"/>
      <path id="Trazado_875203" data-name="Trazado 875203" d="M60.79,186.513q-7.815,0-15.629,0a7.851,7.851,0,0,1-1.483-.062,1.7,1.7,0,0,1-1.489-1.769,1.724,1.724,0,0,1,1.45-1.81,6.339,6.339,0,0,1,1.481-.071q15.7,0,31.408,0a8.4,8.4,0,0,1,1.189.03,1.748,1.748,0,0,1,1.7,1.888,1.7,1.7,0,0,1-1.661,1.762,10.586,10.586,0,0,1-1.338.036q-7.815,0-15.629,0" transform="translate(-29.616 -128.318)" fill="#6a4d23"/>
      <path id="Trazado_875204" data-name="Trazado 875204" d="M60.687,127.28c-5.407,0-10.814-.007-16.221.007a2.09,2.09,0,0,1-2.136-1.03A1.753,1.753,0,0,1,43.5,123.7a8.107,8.107,0,0,1,1.775-.12q15.477-.009,30.954,0c.347,0,.695,0,1.042.01,1.18.044,2.035.5,2.1,1.809.061,1.157-.752,1.877-2.167,1.881-5.506.017-11.012.007-16.519.007" transform="translate(-29.566 -86.747)" fill="#6a4d23"/>
      <path id="Trazado_875205" data-name="Trazado 875205" d="M214.07,59.425c0-1.986.019-3.972-.007-5.958a1.985,1.985,0,0,1,1.835-2.282c1.049-.134,1.922.824,1.936,2.18q.063,6.032,0,12.065c-.014,1.455-.731,2.176-1.914,2.16s-1.832-.769-1.848-2.207c-.022-1.986-.005-3.972-.005-5.958" transform="translate(-150.272 -35.923)" fill="#6a4d23"/>
      <path id="Trazado_875206" data-name="Trazado 875206" d="M217.832,32.929a1.863,1.863,0,0,1-1.857,1.885,1.832,1.832,0,0,1-1.838-1.765,1.85,1.85,0,1,1,3.7-.12" transform="translate(-150.32 -21.816)" fill="#6a4d23"/>
    </g>
    <g id="Grupo_1100716" data-name="Grupo 1100716" transform="translate(786 4786)">
      <g id="Grupo_1100715" data-name="Grupo 1100715" clip-path="url(#clip-path-3)">
        <path id="Trazado_875207" data-name="Trazado 875207" d="M26.369,38.872c1.44-.471,2.9-.613,3.9-1.366a4.926,4.926,0,0,0,1.6-3.857c.1-5.722.031-11.447.053-17.171,0-.789-.322-1.046-1.055-.988a2.774,2.774,0,0,1-3.078-1.525c-.632-1.384.081-2.447.917-3.494,2.336-2.924,4.629-5.883,6.958-8.813C37.4-.53,39.027-.554,40.743,1.6c2.432,3.053,4.829,6.134,7.245,9.2.723.917,1.262,1.844.71,3.076a2.58,2.58,0,0,1-2.85,1.6c-1.093-.1-1.355.348-1.348,1.371.04,5.456.02,10.913.019,16.369a7.1,7.1,0,0,0,1.292,3.9c.713,1.067,2.235,1.094,3.433,1.428.62.173.418-.6.421-.957.026-2.46.041-4.922,0-7.382a5.611,5.611,0,0,1,.81-3.037c2.862-4.887,5.652-9.817,8.519-14.7.529-.9.646-1.453-.457-1.951a2.54,2.54,0,0,1-1.6-2.7,2.723,2.723,0,0,1,2.051-2.389c3.722-1.475,7.423-3,11.15-4.466C72.4.074,73.934,1,74.275,3.378c.561,3.913,1.077,7.833,1.7,11.736a2.859,2.859,0,0,1-1.04,3.128,2.625,2.625,0,0,1-3.16-.084c-.874-.609-1.317-.413-1.826.491-2.307,4.1-4.686,8.154-7.029,12.231a2.715,2.715,0,0,0-.5,1.156c-.043,3.209-.111,6.422.016,9.626.044,1.1,1.229,1.7,2,2.391,1.238,1.1,1.58,2.234.659,3.651-1.4,2.148-1.134,4.087-.159,6.5,1.148,2.845,2.481,4.892,5.6,5.494a1.857,1.857,0,0,1,1.522,2.127q-.059,3.931,0,7.863a1.783,1.783,0,0,1-1.437,2.024c-3.161.621-4.527,2.679-5.715,5.574-1.008,2.456-1.116,4.369.22,6.507a2.468,2.468,0,0,1-.608,3.526c-1.7,1.546-3.308,3.2-4.886,4.87-.9.952-1.869,1.315-2.978.582-2.474-1.633-4.682-1.218-7.4-.131-2.671,1.07-4.265,2.446-4.89,5.146a2.145,2.145,0,0,1-2.458,1.779c-2.458-.07-4.921-.05-7.381-.007-1.154.02-2.063-.3-2.307-1.5-.625-3.082-2.613-4.468-5.473-5.618-2.485-1-4.453-1.209-6.656.216-1.264.817-2.342.553-3.388-.592-1.622-1.775-3.362-3.446-5.1-5.112a1.958,1.958,0,0,1-.471-2.719c1.678-2.521,1.286-4.775.143-7.55-1.071-2.6-2.36-4.191-5.027-4.779-1.424-.314-1.937-1.277-1.888-2.727.079-2.351.056-4.707.008-7.06-.026-1.294.4-2.208,1.724-2.5,2.787-.606,4.148-2.307,5.244-5.008,1.085-2.675,1.46-4.839-.141-7.259a1.978,1.978,0,0,1,.542-2.956c1.722-1.222,1.834-2.907,2.016-4.861A20.518,20.518,0,0,0,9.791,24.979,58.2,58.2,0,0,1,6.08,18.614c-.448-.819-.849-1.119-1.7-.516a2.681,2.681,0,0,1-3.294.118,2.878,2.878,0,0,1-1-3.141c.622-3.9,1.135-7.823,1.7-11.736C2.109,1.038,3.622.085,5.792.925,9.625,2.409,13.428,3.97,17.244,5.5a2.6,2.6,0,0,1,1.87,2.355,2.443,2.443,0,0,1-1.5,2.6c-1.331.57-1,1.256-.456,2.193,2.783,4.748,5.508,9.53,8.291,14.278a6.378,6.378,0,0,1,.941,3.49c-.061,2.772-.019,5.547-.019,8.461M68.824,65.71c0-3.241,0-3.24-3.082-4.416-.1-.038-.2-.09-.3-.119a2.757,2.757,0,0,1-2.134-2.3,16.763,16.763,0,0,0-2.288-5.613,3.641,3.641,0,0,1-.173-4.019c1.363-2.842,1.3-2.871-.961-5.133-2.312-2.311-2.347-2.383-5.281-.978a3.591,3.591,0,0,1-3.89-.185,15.132,15.132,0,0,0-5.158-2.134,3.762,3.762,0,0,1-3.032-2.86c-.977-2.891-1.053-2.865-4.078-2.865-3.411,0-3.459-.018-4.653,3.2a3.36,3.36,0,0,1-2.632,2.438,16.328,16.328,0,0,0-5.459,2.245,3.574,3.574,0,0,1-3.893.143c-2.887-1.386-2.918-1.321-5.146.91-2.359,2.362-2.4,2.383-.943,5.531a3.187,3.187,0,0,1-.145,3.437,15.945,15.945,0,0,0-2.284,5.44,3.75,3.75,0,0,1-2.739,2.948c-3.64,1.411-2.881.348-2.937,4.188-.049,3.394-.036,3.466,3.222,4.628a3.3,3.3,0,0,1,2.4,2.659,15.986,15.986,0,0,0,2.18,5.312,3.648,3.648,0,0,1,.184,4.015c-1.38,2.841-1.306,2.877.933,5.124,2.344,2.351,2.372,2.411,5.4.975a3.41,3.41,0,0,1,3.714.174,15.884,15.884,0,0,0,5.3,2.207,3.6,3.6,0,0,1,2.891,2.594c1.114,3.095,1.175,3.073,4.387,3.073,3.246,0,3.31.022,4.4-3.07a3.581,3.581,0,0,1,2.891-2.593,15.507,15.507,0,0,0,5.159-2.13,3.648,3.648,0,0,1,4-.2c2.86,1.394,2.9,1.321,5.138-.911,2.348-2.337,2.412-2.367.959-5.4a3.42,3.42,0,0,1,.194-3.724,16.444,16.444,0,0,0,2.257-5.452,3.438,3.438,0,0,1,2.552-2.715c3.065-1.122,3.046-1.174,3.046-4.422M61.065,8.076c2.846,2.27,2.85,2.273,1.025,5.439q-4.238,7.354-8.5,14.7a4.745,4.745,0,0,0-.7,2.569c.042,2.672.064,5.345-.007,8.015-.033,1.232.259,1.464,1.416.964,1.519-.656,2.9-1.867,4.846-1.311,0-1.807.073-3.518-.022-5.221A7.154,7.154,0,0,1,60.241,29c2.545-4.262,4.992-8.583,7.474-12.882,1.633-2.829,1.63-2.829,4.524-1.437.067.032.185-.042.39-.095-.446-3.205-.884-6.421-1.351-9.633-.057-.393-.147-.916-.806-.651-3.106,1.248-6.213,2.493-9.406,3.774M16.9,39.127c1.357-1.44,2.447-.63,3.561-.185a9.76,9.76,0,0,1,1.311.592c1.021.6,1.4.356,1.381-.846-.049-2.67-.041-5.342,0-8.012a4.49,4.49,0,0,0-.669-2.416c-2.953-5.073-5.863-10.171-8.826-15.238-1.467-2.508-1.725-3.118,1.047-4.643.06-.033.066-.165.141-.373C11.834,6.8,8.811,5.63,5.817,4.384c-.773-.322-.976.021-1.062.626C4.3,8.22,3.864,11.432,3.4,14.786a7.4,7.4,0,0,0,.748-.264c2.384-1.2,2.615-1.136,3.975,1.218,2.7,4.667,5.38,9.341,8.1,14a4.718,4.718,0,0,1,.7,2.569c-.043,2.123-.013,4.247-.013,6.822m14.625-27c.445.072.638.122.833.132,2.535.127,2.773.379,2.774,2.972,0,4.012-.031,8.025.017,12.036.017,1.478-.667,3.4.3,4.315.953.9,2.862.141,4.339.295,1.2.125,1.546-.3,1.53-1.508-.067-4.867-.028-9.736-.027-14.6,0-3.233,0-3.232,3.222-3.576.061-.007.108-.149.218-.31C42.777,9.392,40.8,6.877,38.825,4.359c-.317-.4-.575-.788-1.076-.144-2.02,2.6-4.068,5.182-6.222,7.916" transform="translate(0 0)" fill="#6a4d23"/>
        <path id="Trazado_875208" data-name="Trazado 875208" d="M79.322,145.554a18.72,18.72,0,1,1-18.707,18.807,18.813,18.813,0,0,1,18.707-18.807m.246,3.237A15.494,15.494,0,1,0,94.878,164.5a15.491,15.491,0,0,0-15.31-15.709" transform="translate(-41.158 -98.832)" fill="#6a4d23"/>
        <path id="Trazado_875209" data-name="Trazado 875209" d="M90.325,192.849a5.31,5.31,0,0,1-3.935-1.7c-1.573-1.526-3.136-3.063-4.65-4.646a4.681,4.681,0,0,1-.129-6.629,4.607,4.607,0,0,1,6.614.062c1.932,1.787,1.933,1.787,3.805-.085,1.663-1.662,3.307-3.345,4.992-4.985,2.093-2.038,4.809-2.118,6.717-.24a4.572,4.572,0,0,1-.141,6.715c-3.335,3.39-6.715,6.736-10.082,10.094a4.156,4.156,0,0,1-3.19,1.417m11.512-15.179a1.2,1.2,0,0,0-.113-.39c-.488-.955-1.544-1-2.53-.032-2.516,2.473-4.987,4.992-7.5,7.472-1.261,1.247-1.907,1.259-3.117.1-.888-.849-1.724-1.753-2.617-2.6a1.389,1.389,0,1,0-1.988,1.937c1.6,1.648,3.227,3.274,4.89,4.859a1.674,1.674,0,0,0,2.651-.113c3.188-3.236,6.417-6.432,9.625-9.648a1.738,1.738,0,0,0,.7-1.589" transform="translate(-54.522 -117.653)" fill="#6a4d23"/>
      </g>
    </g>
    <g id="Grupo_1100718" data-name="Grupo 1100718" transform="translate(1112.003 4781)">
      <g id="Grupo_1100717" data-name="Grupo 1100717" clip-path="url(#clip-path-4)">
        <path id="Trazado_875210" data-name="Trazado 875210" d="M61.52,70.035c-2.827,0-5.653.024-8.479-.008-1.984-.022-2.63-.816-2.354-2.8,2.129-15.315,4.175-30.643,6.481-45.932.383-2.535-1.373-3.574-2.24-5.255-.212-.41-.785-.108-1.2-.043Q43.642,17.6,33.552,19.19a2.727,2.727,0,0,0-2.043,4.038c1.049,1.875,2.165,3.713,3.194,5.6a6.673,6.673,0,0,0,1.915,2.182A16.587,16.587,0,1,1,16.7,30.956,6.211,6.211,0,0,0,18.494,28.9c.938-1.725,1.9-3.444,2.935-5.108a2.747,2.747,0,0,0,.19-3.167,5.464,5.464,0,0,1,8.957-6.012,2.524,2.524,0,0,0,2.689.889c6.54-1.056,13.09-2.058,19.637-3.067a1.667,1.667,0,0,0,1.654-1.391,6.609,6.609,0,0,1,3.608-4.637,2.089,2.089,0,0,0,1.293-2,21.737,21.737,0,0,1,.363-2.736A1.768,1.768,0,0,1,61.682,0,1.807,1.807,0,0,1,63.5,1.733a2.98,2.98,0,0,1,.045.365c.092,2.278.544,4.347,3.007,5.28a.736.736,0,0,1,.395.375c.971,2.647,3.008,1.977,4.978,1.654q8.9-1.455,17.811-2.839A2.054,2.054,0,0,0,91.628,5.2a5.486,5.486,0,1,1,9.88,4.733,2.1,2.1,0,0,0,.117,2.35q1.663,2.76,3.2,5.592a6.267,6.267,0,0,0,1.805,2.039,16.581,16.581,0,1,1-19.917.012A6.208,6.208,0,0,0,88.533,17.9c.965-1.78,2.025-3.509,2.988-5.291.351-.65,1.177-1.254.562-2.14-.57-.822-1.38-.287-2.04-.186-5.822.884-11.637,1.821-17.454,2.742-.485.077-.968.182-1.456.212-1.319.08-2.32.386-2.542,2.006a3.7,3.7,0,0,1-1.232,2.206c-1.463,1.158-1.333,2.53-1.11,4.11Q69.464,44.337,72.6,67.132c.292,2.095-.331,2.878-2.421,2.9-2.887.026-5.776.007-8.664.006M39.513,44.18A12.892,12.892,0,1,0,26.659,57.108,12.922,12.922,0,0,0,39.513,44.18M109.578,33.2A12.893,12.893,0,1,0,96.642,46.045,12.921,12.921,0,0,0,109.578,33.2M61.695,66.336c1.841,0,3.687-.075,5.523.025,1.291.071,1.585-.413,1.378-1.59-.382-2.173-.711-4.355-1.014-6.541Q65.058,40.017,62.535,21.8c-.078-.555.268-1.5-.83-1.537-1.242-.037-.855,1.023-.941,1.618-.884,6.127-1.694,12.264-2.555,18.394Q56.483,52.57,54.7,64.853c-.159,1.091.054,1.57,1.286,1.508,1.9-.1,3.8-.025,5.707-.025M61.647,9.2a3.666,3.666,0,1,0,3.672,3.613A3.718,3.718,0,0,0,61.647,9.2m38.222,7.565a29.581,29.581,0,0,0-1.864-3.349,1.535,1.535,0,0,0-2.516-.11,9.229,9.229,0,0,0-1.85,3.542,19.615,19.615,0,0,1,6.23-.083M29.605,27.647c-1.136-1.194-.7-3.88-3.157-3.654-2.066.19-1.884,2.421-3.156,3.913a30.01,30.01,0,0,1,6.314-.258M96.623,5.513A1.772,1.772,0,0,0,94.9,7.481a1.655,1.655,0,0,0,1.837,1.65A1.676,1.676,0,0,0,98.474,7.2a1.766,1.766,0,0,0-1.851-1.687M28.451,18.383c-.149-1.056-.7-1.756-1.773-1.77a1.675,1.675,0,0,0-1.846,1.826,1.649,1.649,0,0,0,1.733,1.754c1.163.028,1.753-.7,1.885-1.81" transform="translate(-6.331 0)" fill="#6a4d23"/>
        <path id="Trazado_875211" data-name="Trazado 875211" d="M57.073,210.132c2.427.963,4.851,1.935,7.284,2.883a3.145,3.145,0,0,0,1.978-.2q17.629-4.572,35.25-9.172c4.165-1.082,7.78.731,9.031,4.489,1.235,3.71-.634,7.425-4.636,8.978-9.778,3.795-19.576,7.538-29.365,11.3-3.779,1.453-7.592,2.824-11.318,4.4a7.756,7.756,0,0,1-5.159.239c-9.058-2.2-18.143-4.287-27.2-6.475a13.812,13.812,0,0,0-5.1.167c-2.069.256-4.117.718-6.191.893-1.175.1-1.375.563-1.38,1.6-.008,1.973-.579,2.5-2.542,2.5q-7.558.028-15.118,0c-2.04-.007-2.6-.577-2.6-2.651q-.015-15.763,0-31.526c0-2.166.544-2.7,2.735-2.7,4.978-.012,9.956.023,14.933-.018,1.741-.014,2.767.641,2.6,2.47-.129,1.413.757,1.221,1.615,1.236,7.751.135,15.467-.591,23.2-.925,4.664-.2,9.325-.494,13.989-.7A5.977,5.977,0,0,1,65.516,202a6.044,6.044,0,0,1-4.634,6.782c-1.24.337-2.491.635-3.737.951l-.072.4M20.3,213.154c0,3.2.039,6.392-.022,9.587-.021,1.1.368,1.391,1.4,1.211,1.934-.338,3.873-.663,5.822-.9,1.93-.23,3.818-.686,5.828-.2,9.056,2.207,18.139,4.3,27.21,6.45a5.128,5.128,0,0,0,3.222.119q20.418-7.906,40.851-15.769c2.124-.821,3.07-2.5,2.522-4.27-.609-1.969-2.4-2.772-4.767-2.157-9.909,2.581-19.926,4.815-29.69,7.862-5.771,1.8-10.922,1.778-16.141-1.168-3.9-2.2-7.911-2.817-12.257-1.057-2.192.888-3.473.3-3.637-1.032-.266-2.162,1.52-2.2,2.9-2.554,5.406-1.377,10.83-2.69,16.231-4.09,1.858-.482,2.621-2.065,1.793-3.451-.675-1.127-1.766-1.122-2.917-1.085-12.34.4-24.645,1.664-37,1.575-1.027-.007-1.384.267-1.363,1.333.064,3.194.023,6.391.023,9.586m-3.7.356c0-4.539-.013-9.079.011-13.618,0-.842-.07-1.364-1.152-1.347-3.557.059-7.116.05-10.673,0-.954-.012-1.092.414-1.09,1.219q.028,13.526-.007,27.052c0,.963.284,1.267,1.251,1.252,3.311-.051,6.626-.081,9.936.012,1.329.038,1.8-.26,1.762-1.694-.1-4.292-.037-8.587-.037-12.881" transform="translate(0 -122.997)" fill="#6a4d23"/>
        <path id="Trazado_875212" data-name="Trazado 875212" d="M40.6,117.772a1.948,1.948,0,0,1-1.485-.619c-1.183-1.155-2.371-2.308-3.5-3.512a1.746,1.746,0,0,1-.079-2.629c.894-.911,1.846-.7,2.771.079,2.406,2.026,2.413,2.015,4.6-.171q2.6-2.6,5.205-5.191c.9-.9,1.908-1.255,2.893-.278s.642,2-.255,2.893q-4.29,4.287-8.576,8.578a2.456,2.456,0,0,1-1.574.851" transform="translate(-22.074 -66.196)" fill="#6a4d23"/>
        <path id="Trazado_875213" data-name="Trazado 875213" d="M239.733,71.756c-.06,1.077-.854,1.629-1.491,2.273-3.222,3.25-3.225,3.246-.041,6.443.3.3.621.6.905.916a1.854,1.854,0,1,1-2.641,2.594c-1.068-1.013-2.123-2.044-3.116-3.129-.678-.742-1.193-.84-1.914-.04-.984,1.092-2.057,2.107-3.116,3.129a1.861,1.861,0,1,1-2.593-2.64c.986-1.009,1.951-2.044,3-2.981.816-.727.941-1.271.047-2.05-1.061-.924-2.012-1.977-3.007-2.978-.844-.85-1.135-1.833-.257-2.764.948-1,1.944-.709,2.9.152,1.354,1.218,2.476,3.608,3.991,3.462,1.437-.139,2.676-2.282,4.01-3.535a1.862,1.862,0,0,1,2.335-.461,1.8,1.8,0,0,1,.982,1.609" transform="translate(-142.016 -44.121)" fill="#6a4d23"/>
      </g>
    </g>
  </g>
</svg>
