<svg xmlns="http://www.w3.org/2000/svg" xmlns:xlink="http://www.w3.org/1999/xlink" width="400" height="802" viewBox="0 0 400 802">
  <defs>
    <clipPath id="clip-path">
      <rect id="Rectángulo_402258" data-name="Rectángulo 402258" width="36.446" height="31.536" fill="#7a4f00"/>
    </clipPath>
    <clipPath id="clip-path-2">
      <rect id="Rectángulo_402259" data-name="Rectángulo 402259" width="43.621" height="42.956" fill="#7a4f00"/>
    </clipPath>
    <clipPath id="clip-path-3">
      <rect id="Rectángulo_402260" data-name="Rectángulo 402260" width="39.349" height="32.595" fill="#7a4f00"/>
    </clipPath>
    <clipPath id="clip-path-4">
      <rect id="Rectángulo_402261" data-name="Rectángulo 402261" width="35.654" height="36.216" fill="#7a4f00"/>
    </clipPath>
  </defs>
  <g id="img15_1" transform="translate(1893 3772)">
    <rect id="Rectángulo_402262" data-name="Rectángulo 402262" width="400" height="802" transform="translate(-1893 -3772)" fill="#fef7eb"/>
    <g id="Grupo_1100485" data-name="Grupo 1100485" transform="translate(-2175 -12464)">
      <rect id="Rectángulo_402268" data-name="Rectángulo 402268" width="240" height="91" rx="35" transform="translate(373 9086)" fill="#feebcf"/>
      <rect id="Rectángulo_402271" data-name="Rectángulo 402271" width="240" height="91" rx="35" transform="translate(373 9282)" fill="#feebcf"/>
      <rect id="Rectángulo_402269" data-name="Rectángulo 402269" width="240" height="91" rx="35" transform="translate(373 9184)" fill="#feebcf"/>
      <rect id="Rectángulo_402270" data-name="Rectángulo 402270" width="240" height="91" rx="35" transform="translate(373 9380)" fill="#feebcf"/>
      <path id="Trazado_875534" data-name="Trazado 875534" d="M5.492,10.4H2.82V15H1.313V3.625H5.078A4.457,4.457,0,0,1,8.035,4.5,3.148,3.148,0,0,1,9.07,7.047,3.062,3.062,0,0,1,8.5,8.9a3.428,3.428,0,0,1-1.6,1.18L9.57,14.906V15H7.961ZM2.82,9.172h2.3A2.6,2.6,0,0,0,6.9,8.593a1.959,1.959,0,0,0,.66-1.55,2.062,2.062,0,0,0-.629-1.62,2.663,2.663,0,0,0-1.816-.571H2.82Zm11.633,5.984a3.693,3.693,0,0,1-2.8-1.129,4.19,4.19,0,0,1-1.078-3.02v-.266a5.073,5.073,0,0,1,.48-2.246A3.748,3.748,0,0,1,12.4,6.949a3.378,3.378,0,0,1,1.871-.559,3.166,3.166,0,0,1,2.563,1.086,4.7,4.7,0,0,1,.914,3.109v.6H12.023a3,3,0,0,0,.73,2.02,2.3,2.3,0,0,0,1.777.77,2.517,2.517,0,0,0,1.3-.312,3.259,3.259,0,0,0,.93-.828l.883.688A3.55,3.55,0,0,1,14.453,15.156Zm-.18-7.578a1.928,1.928,0,0,0-1.469.637A3.1,3.1,0,0,0,12.07,10H16.3V9.891a2.753,2.753,0,0,0-.594-1.707A1.815,1.815,0,0,0,14.273,7.578ZM20.992,15H19.547V3h1.445Zm7.531,0a3.036,3.036,0,0,1-.2-.891,3.225,3.225,0,0,1-2.406,1.047,2.984,2.984,0,0,1-2.051-.707,2.287,2.287,0,0,1-.8-1.793,2.39,2.39,0,0,1,1-2.051,4.733,4.733,0,0,1,2.824-.73H28.3V9.211A1.623,1.623,0,0,0,27.844,8a1.821,1.821,0,0,0-1.336-.449,2.108,2.108,0,0,0-1.3.391,1.151,1.151,0,0,0-.523.945H23.234a2,2,0,0,1,.449-1.223A3.066,3.066,0,0,1,24.9,6.734a4.1,4.1,0,0,1,1.691-.344,3.342,3.342,0,0,1,2.289.73,2.635,2.635,0,0,1,.859,2.012v3.891a4.757,4.757,0,0,0,.3,1.852V15Zm-2.4-1.1a2.54,2.54,0,0,0,1.289-.352,2.127,2.127,0,0,0,.883-.914V10.9H27.164q-2.656,0-2.656,1.555a1.316,1.316,0,0,0,.453,1.063A1.742,1.742,0,0,0,26.125,13.9Zm9.273.078a2.082,2.082,0,0,0,1.352-.469,1.649,1.649,0,0,0,.641-1.172h1.367a2.621,2.621,0,0,1-.5,1.383,3.293,3.293,0,0,1-1.23,1.047,3.55,3.55,0,0,1-1.629.391A3.482,3.482,0,0,1,32.652,14a4.59,4.59,0,0,1-1.02-3.152v-.242a5.089,5.089,0,0,1,.453-2.2,3.451,3.451,0,0,1,1.3-1.492,3.7,3.7,0,0,1,2-.531,3.39,3.39,0,0,1,2.363.852,3.043,3.043,0,0,1,1,2.211H37.391a1.992,1.992,0,0,0-.621-1.348,1.932,1.932,0,0,0-1.379-.527,2.023,2.023,0,0,0-1.707.793,3.724,3.724,0,0,0-.605,2.293v.273a3.65,3.65,0,0,0,.6,2.25A2.033,2.033,0,0,0,35.4,13.977ZM41.953,15H40.508V6.547h1.445ZM40.391,4.3a.863.863,0,0,1,.215-.594.807.807,0,0,1,.637-.242.819.819,0,0,1,.641.242A.854.854,0,0,1,42.1,4.3a.826.826,0,0,1-.219.586.834.834,0,0,1-.641.234.821.821,0,0,1-.637-.234A.834.834,0,0,1,40.391,4.3ZM43.883,10.7a4.993,4.993,0,0,1,.488-2.234A3.643,3.643,0,0,1,45.73,6.93a3.7,3.7,0,0,1,1.988-.539,3.565,3.565,0,0,1,2.793,1.2,4.6,4.6,0,0,1,1.066,3.18v.1a5.036,5.036,0,0,1-.473,2.215,3.589,3.589,0,0,1-1.352,1.527,3.743,3.743,0,0,1-2.02.547,3.556,3.556,0,0,1-2.785-1.2A4.575,4.575,0,0,1,43.883,10.8Zm1.453.172a3.616,3.616,0,0,0,.652,2.258,2.211,2.211,0,0,0,3.5-.012,3.955,3.955,0,0,0,.648-2.418,3.61,3.61,0,0,0-.66-2.254,2.1,2.1,0,0,0-1.754-.863,2.075,2.075,0,0,0-1.727.852A3.925,3.925,0,0,0,45.336,10.867Zm9.422-4.32L54.8,7.609a3.08,3.08,0,0,1,2.531-1.219q2.68,0,2.7,3.023V15H58.594V9.406a1.946,1.946,0,0,0-.418-1.352A1.675,1.675,0,0,0,56.9,7.617a2.086,2.086,0,0,0-1.234.375,2.546,2.546,0,0,0-.828.984V15H53.391V6.547Zm10.969,8.609a3.693,3.693,0,0,1-2.8-1.129,4.19,4.19,0,0,1-1.078-3.02v-.266a5.073,5.073,0,0,1,.48-2.246,3.748,3.748,0,0,1,1.344-1.547,3.378,3.378,0,0,1,1.871-.559,3.166,3.166,0,0,1,2.563,1.086,4.7,4.7,0,0,1,.914,3.109v.6H63.3a3,3,0,0,0,.73,2.02,2.3,2.3,0,0,0,1.777.77,2.517,2.517,0,0,0,1.3-.312,3.259,3.259,0,0,0,.93-.828l.883.688A3.55,3.55,0,0,1,65.727,15.156Zm-.18-7.578a1.928,1.928,0,0,0-1.469.637A3.1,3.1,0,0,0,63.344,10h4.234V9.891a2.753,2.753,0,0,0-.594-1.707A1.815,1.815,0,0,0,65.547,7.578Zm10.07,5.18a1.064,1.064,0,0,0-.441-.91,4.249,4.249,0,0,0-1.539-.559,7.277,7.277,0,0,1-1.742-.562,2.479,2.479,0,0,1-.953-.781,1.869,1.869,0,0,1-.309-1.078,2.193,2.193,0,0,1,.879-1.758,3.432,3.432,0,0,1,2.246-.719,3.532,3.532,0,0,1,2.332.742,2.357,2.357,0,0,1,.895,1.9H75.531a1.3,1.3,0,0,0-.5-1.023,1.888,1.888,0,0,0-1.27-.43,1.976,1.976,0,0,0-1.234.344,1.082,1.082,0,0,0-.445.9.877.877,0,0,0,.414.789,5.1,5.1,0,0,0,1.5.508,7.8,7.8,0,0,1,1.754.578,2.558,2.558,0,0,1,1,.809,1.988,1.988,0,0,1,.324,1.152,2.163,2.163,0,0,1-.906,1.816,3.8,3.8,0,0,1-2.352.684,4.257,4.257,0,0,1-1.8-.359,2.922,2.922,0,0,1-1.223-1,2.42,2.42,0,0,1-.441-1.395h1.445a1.5,1.5,0,0,0,.582,1.152,2.258,2.258,0,0,0,1.434.426,2.331,2.331,0,0,0,1.316-.332A1.02,1.02,0,0,0,75.617,12.758ZM88.125,15a3.036,3.036,0,0,1-.2-.891,3.225,3.225,0,0,1-2.406,1.047,2.984,2.984,0,0,1-2.051-.707,2.288,2.288,0,0,1-.8-1.793,2.39,2.39,0,0,1,1-2.051,4.733,4.733,0,0,1,2.824-.73H87.9V9.211A1.623,1.623,0,0,0,87.445,8a1.821,1.821,0,0,0-1.336-.449,2.108,2.108,0,0,0-1.3.391,1.151,1.151,0,0,0-.523.945H82.836a2,2,0,0,1,.449-1.223A3.066,3.066,0,0,1,84.5,6.734,4.1,4.1,0,0,1,86.2,6.391a3.342,3.342,0,0,1,2.289.73,2.635,2.635,0,0,1,.859,2.012v3.891a4.757,4.757,0,0,0,.3,1.852V15Zm-2.4-1.1a2.54,2.54,0,0,0,1.289-.352,2.127,2.127,0,0,0,.883-.914V10.9H86.766q-2.656,0-2.656,1.555a1.316,1.316,0,0,0,.453,1.063A1.742,1.742,0,0,0,85.727,13.9Zm10.8-1.141a1.064,1.064,0,0,0-.441-.91,4.249,4.249,0,0,0-1.539-.559,7.277,7.277,0,0,1-1.742-.562,2.479,2.479,0,0,1-.953-.781,1.869,1.869,0,0,1-.309-1.078,2.193,2.193,0,0,1,.879-1.758,3.432,3.432,0,0,1,2.246-.719A3.532,3.532,0,0,1,97,7.133a2.357,2.357,0,0,1,.895,1.9H96.445a1.3,1.3,0,0,0-.5-1.023,1.888,1.888,0,0,0-1.27-.43,1.976,1.976,0,0,0-1.234.344,1.082,1.082,0,0,0-.445.9.877.877,0,0,0,.414.789,5.1,5.1,0,0,0,1.5.508,7.8,7.8,0,0,1,1.754.578,2.558,2.558,0,0,1,1,.809,1.988,1.988,0,0,1,.324,1.152,2.163,2.163,0,0,1-.906,1.816,3.8,3.8,0,0,1-2.352.684,4.257,4.257,0,0,1-1.8-.359,2.922,2.922,0,0,1-1.223-1,2.42,2.42,0,0,1-.441-1.395H92.7a1.5,1.5,0,0,0,.582,1.152,2.258,2.258,0,0,0,1.434.426,2.331,2.331,0,0,0,1.316-.332A1.02,1.02,0,0,0,96.531,12.758Zm6.836,2.4a3.693,3.693,0,0,1-2.8-1.129,4.19,4.19,0,0,1-1.078-3.02v-.266a5.073,5.073,0,0,1,.48-2.246,3.748,3.748,0,0,1,1.344-1.547,3.378,3.378,0,0,1,1.871-.559,3.166,3.166,0,0,1,2.563,1.086,4.7,4.7,0,0,1,.914,3.109v.6h-5.727a3,3,0,0,0,.73,2.02,2.3,2.3,0,0,0,1.777.77,2.517,2.517,0,0,0,1.3-.312,3.259,3.259,0,0,0,.93-.828l.883.688A3.55,3.55,0,0,1,103.367,15.156Zm-.18-7.578a1.928,1.928,0,0,0-1.469.637A3.1,3.1,0,0,0,100.984,10h4.234V9.891a2.753,2.753,0,0,0-.594-1.707A1.815,1.815,0,0,0,103.188,7.578Zm9.234.266a4.331,4.331,0,0,0-.711-.055A1.9,1.9,0,0,0,109.781,9v6h-1.445V6.547h1.406l.023.977a2.251,2.251,0,0,1,2.016-1.133,1.477,1.477,0,0,1,.641.109ZM116.1,4.5V6.547h1.578V7.664H116.1v5.249a1.173,1.173,0,0,0,.211.763.888.888,0,0,0,.719.254,3.5,3.5,0,0,0,.688-.094V15a4.215,4.215,0,0,1-1.109.155,1.8,1.8,0,0,1-1.461-.586,2.517,2.517,0,0,1-.492-1.664V7.664h-1.539V6.547h1.539V4.5ZM120.938,15h-1.445V6.547h1.445ZM119.375,4.3a.863.863,0,0,1,.215-.594.807.807,0,0,1,.637-.242.819.819,0,0,1,.641.242.854.854,0,0,1,.219.594.826.826,0,0,1-.219.586.834.834,0,0,1-.641.234.821.821,0,0,1-.637-.234A.834.834,0,0,1,119.375,4.3Zm6.664,8.734,2.094-6.492h1.477L126.578,15h-1.1l-3.062-8.453h1.477ZM136.1,15a3.036,3.036,0,0,1-.2-.891,3.225,3.225,0,0,1-2.406,1.047,2.984,2.984,0,0,1-2.051-.707,2.287,2.287,0,0,1-.8-1.793,2.39,2.39,0,0,1,1-2.051,4.733,4.733,0,0,1,2.824-.73h1.406V9.211A1.623,1.623,0,0,0,135.422,8a1.821,1.821,0,0,0-1.336-.449,2.107,2.107,0,0,0-1.3.391,1.151,1.151,0,0,0-.523.945h-1.453a2,2,0,0,1,.449-1.223,3.066,3.066,0,0,1,1.219-.934,4.1,4.1,0,0,1,1.691-.344,3.342,3.342,0,0,1,2.289.73,2.635,2.635,0,0,1,.859,2.012v3.891a4.757,4.757,0,0,0,.3,1.852V15Zm-2.4-1.1a2.54,2.54,0,0,0,1.289-.352,2.127,2.127,0,0,0,.883-.914V10.9h-1.133q-2.656,0-2.656,1.555a1.316,1.316,0,0,0,.453,1.063A1.742,1.742,0,0,0,133.7,13.9Zm10.8-1.141a1.064,1.064,0,0,0-.441-.91,4.249,4.249,0,0,0-1.539-.559,7.277,7.277,0,0,1-1.742-.562,2.479,2.479,0,0,1-.953-.781,1.869,1.869,0,0,1-.309-1.078,2.193,2.193,0,0,1,.879-1.758,3.432,3.432,0,0,1,2.246-.719,3.532,3.532,0,0,1,2.332.742,2.357,2.357,0,0,1,.895,1.9h-1.453a1.3,1.3,0,0,0-.5-1.023,1.888,1.888,0,0,0-1.27-.43,1.976,1.976,0,0,0-1.234.344,1.082,1.082,0,0,0-.445.9.877.877,0,0,0,.414.789,5.1,5.1,0,0,0,1.5.508,7.8,7.8,0,0,1,1.754.578,2.558,2.558,0,0,1,1,.809,1.988,1.988,0,0,1,.324,1.152,2.163,2.163,0,0,1-.906,1.816,3.8,3.8,0,0,1-2.352.684,4.257,4.257,0,0,1-1.8-.359,2.922,2.922,0,0,1-1.223-1,2.42,2.42,0,0,1-.441-1.395h1.445a1.5,1.5,0,0,0,.582,1.152,2.258,2.258,0,0,0,1.434.426,2.331,2.331,0,0,0,1.316-.332A1.02,1.02,0,0,0,144.508,12.758Zm10.055.125,1.969-6.336h1.547l-3.4,9.758q-.789,2.109-2.508,2.109l-.273-.023-.539-.1V17.117l.391.031a1.923,1.923,0,0,0,1.145-.3,2.148,2.148,0,0,0,.676-1.086l.32-.859-3.016-8.359h1.578ZM.742,34.7a4.952,4.952,0,0,1,.922-3.129,2.915,2.915,0,0,1,2.414-1.184A2.932,2.932,0,0,1,6.43,31.406V27H7.875V39H6.547l-.07-.906a2.943,2.943,0,0,1-2.414,1.063,2.887,2.887,0,0,1-2.395-1.2,5.008,5.008,0,0,1-.926-3.141Zm1.445.164a3.749,3.749,0,0,0,.594,2.25,1.92,1.92,0,0,0,1.641.813A2.108,2.108,0,0,0,6.43,36.7V32.813a2.125,2.125,0,0,0-1.992-1.2,1.929,1.929,0,0,0-1.656.82A4.128,4.128,0,0,0,2.188,34.867Zm11.438,4.289a3.693,3.693,0,0,1-2.8-1.129,4.19,4.19,0,0,1-1.078-3.02v-.266a5.073,5.073,0,0,1,.48-2.246,3.748,3.748,0,0,1,1.344-1.547,3.378,3.378,0,0,1,1.871-.559,3.166,3.166,0,0,1,2.563,1.086,4.7,4.7,0,0,1,.914,3.109v.6H11.2a3,3,0,0,0,.73,2.02,2.3,2.3,0,0,0,1.777.77,2.517,2.517,0,0,0,1.3-.312,3.258,3.258,0,0,0,.93-.828l.883.688A3.55,3.55,0,0,1,13.625,39.156Zm-.18-7.578a1.928,1.928,0,0,0-1.469.637A3.1,3.1,0,0,0,11.242,34h4.234v-.109a2.753,2.753,0,0,0-.594-1.707A1.815,1.815,0,0,0,13.445,31.578Zm12.5,6.4a2.082,2.082,0,0,0,1.352-.469,1.649,1.649,0,0,0,.641-1.172H29.3a2.621,2.621,0,0,1-.5,1.383,3.293,3.293,0,0,1-1.23,1.047,3.55,3.55,0,0,1-1.629.391A3.482,3.482,0,0,1,23.2,38a4.59,4.59,0,0,1-1.02-3.152v-.242a5.089,5.089,0,0,1,.453-2.2,3.451,3.451,0,0,1,1.3-1.492,3.7,3.7,0,0,1,2-.531,3.39,3.39,0,0,1,2.363.852,3.043,3.043,0,0,1,1,2.211H27.938a1.992,1.992,0,0,0-.621-1.348,1.932,1.932,0,0,0-1.379-.527,2.023,2.023,0,0,0-1.707.793,3.724,3.724,0,0,0-.605,2.293v.273a3.65,3.65,0,0,0,.6,2.25A2.033,2.033,0,0,0,25.945,37.977Zm4.6-3.281a4.993,4.993,0,0,1,.488-2.234,3.643,3.643,0,0,1,1.359-1.531,3.7,3.7,0,0,1,1.988-.539,3.565,3.565,0,0,1,2.793,1.2,4.6,4.6,0,0,1,1.066,3.18v.1a5.036,5.036,0,0,1-.473,2.215,3.589,3.589,0,0,1-1.352,1.527,3.743,3.743,0,0,1-2.02.547,3.556,3.556,0,0,1-2.785-1.2A4.575,4.575,0,0,1,30.547,34.8ZM32,34.867a3.616,3.616,0,0,0,.652,2.258,2.211,2.211,0,0,0,3.5-.012A3.955,3.955,0,0,0,36.8,34.7a3.61,3.61,0,0,0-.66-2.254,2.1,2.1,0,0,0-1.754-.863,2.075,2.075,0,0,0-1.727.852A3.925,3.925,0,0,0,32,34.867Zm9.422-4.32.047,1.063A3.08,3.08,0,0,1,44,30.391q2.68,0,2.7,3.023V39H45.258V33.406a1.946,1.946,0,0,0-.418-1.352,1.675,1.675,0,0,0-1.277-.437,2.086,2.086,0,0,0-1.234.375,2.546,2.546,0,0,0-.828.984V39H40.055V30.547ZM49.367,39V31.664H48.031V30.547h1.336v-.719a2.937,2.937,0,0,1,.809-2.2,3.136,3.136,0,0,1,2.285-.789,6.881,6.881,0,0,1,2.211.477l-.242,1.219a5.008,5.008,0,0,0-1.859-.391,1.819,1.819,0,0,0-1.34.418,1.723,1.723,0,0,0-.41,1.254v.734h1.727v1.117H50.82V39Zm6.023,0H53.938V30.547h1.453Zm7.57,0a3.036,3.036,0,0,1-.2-.891,3.225,3.225,0,0,1-2.406,1.047,2.984,2.984,0,0,1-2.051-.707,2.287,2.287,0,0,1-.8-1.793,2.39,2.39,0,0,1,1-2.051,4.733,4.733,0,0,1,2.824-.73h1.406v-.664A1.623,1.623,0,0,0,62.281,32a1.821,1.821,0,0,0-1.336-.449,2.107,2.107,0,0,0-1.3.391,1.151,1.151,0,0,0-.523.945H57.672a2,2,0,0,1,.449-1.223,3.066,3.066,0,0,1,1.219-.934,4.1,4.1,0,0,1,1.691-.344,3.342,3.342,0,0,1,2.289.73,2.635,2.635,0,0,1,.859,2.012v3.891a4.757,4.757,0,0,0,.3,1.852V39Zm-2.4-1.1a2.54,2.54,0,0,0,1.289-.352,2.127,2.127,0,0,0,.883-.914V34.9H61.6q-2.656,0-2.656,1.555a1.316,1.316,0,0,0,.453,1.063A1.742,1.742,0,0,0,60.563,37.9Zm7.25-7.352.047,1.063a3.08,3.08,0,0,1,2.531-1.219q2.68,0,2.7,3.023V39H71.648V33.406a1.946,1.946,0,0,0-.418-1.352,1.675,1.675,0,0,0-1.277-.437,2.086,2.086,0,0,0-1.234.375,2.546,2.546,0,0,0-.828.984V39H66.445V30.547Zm8.82,7.273h4.945V39H74.867V37.938l4.664-6.2H74.938v-1.2h6.406V31.57ZM88.422,39a3.036,3.036,0,0,1-.2-.891,3.225,3.225,0,0,1-2.406,1.047,2.984,2.984,0,0,1-2.051-.707,2.288,2.288,0,0,1-.8-1.793,2.39,2.39,0,0,1,1-2.051,4.733,4.733,0,0,1,2.824-.73H88.2v-.664A1.623,1.623,0,0,0,87.742,32a1.821,1.821,0,0,0-1.336-.449,2.108,2.108,0,0,0-1.3.391,1.151,1.151,0,0,0-.523.945H83.133a2,2,0,0,1,.449-1.223,3.066,3.066,0,0,1,1.219-.934,4.1,4.1,0,0,1,1.691-.344,3.342,3.342,0,0,1,2.289.73,2.635,2.635,0,0,1,.859,2.012v3.891a4.757,4.757,0,0,0,.3,1.852V39Zm-2.4-1.1a2.54,2.54,0,0,0,1.289-.352,2.127,2.127,0,0,0,.883-.914V34.9H87.063q-2.656,0-2.656,1.555a1.316,1.316,0,0,0,.453,1.063A1.742,1.742,0,0,0,86.023,37.9Zm13.234.078a2.082,2.082,0,0,0,1.352-.469,1.649,1.649,0,0,0,.641-1.172h1.367a2.621,2.621,0,0,1-.5,1.383,3.293,3.293,0,0,1-1.23,1.047,3.55,3.55,0,0,1-1.629.391A3.482,3.482,0,0,1,96.512,38a4.59,4.59,0,0,1-1.02-3.152v-.242a5.089,5.089,0,0,1,.453-2.2,3.451,3.451,0,0,1,1.3-1.492,3.7,3.7,0,0,1,2-.531,3.39,3.39,0,0,1,2.363.852,3.043,3.043,0,0,1,1,2.211H101.25a1.992,1.992,0,0,0-.621-1.348,1.932,1.932,0,0,0-1.379-.527,2.023,2.023,0,0,0-1.707.793,3.724,3.724,0,0,0-.605,2.293v.273a3.65,3.65,0,0,0,.6,2.25A2.033,2.033,0,0,0,99.258,37.977Zm4.6-3.281a4.993,4.993,0,0,1,.488-2.234,3.643,3.643,0,0,1,1.359-1.531,3.7,3.7,0,0,1,1.988-.539,3.565,3.565,0,0,1,2.793,1.2,4.6,4.6,0,0,1,1.066,3.18v.1a5.036,5.036,0,0,1-.473,2.215,3.589,3.589,0,0,1-1.352,1.527,3.743,3.743,0,0,1-2.02.547,3.556,3.556,0,0,1-2.785-1.2,4.575,4.575,0,0,1-1.066-3.164Zm1.453.172a3.616,3.616,0,0,0,.652,2.258,2.211,2.211,0,0,0,3.5-.012,3.955,3.955,0,0,0,.648-2.418,3.61,3.61,0,0,0-.66-2.254,2.1,2.1,0,0,0-1.754-.863,2.075,2.075,0,0,0-1.727.852A3.925,3.925,0,0,0,105.313,34.867Zm9.422-4.32.047,1.063a3.08,3.08,0,0,1,2.531-1.219q2.68,0,2.7,3.023V39H118.57V33.406a1.946,1.946,0,0,0-.418-1.352,1.675,1.675,0,0,0-1.277-.437,2.086,2.086,0,0,0-1.234.375,2.546,2.546,0,0,0-.828.984V39h-1.445V30.547ZM128.117,28.5v2.047H129.7v1.117h-1.578v5.249a1.173,1.173,0,0,0,.211.763.888.888,0,0,0,.719.254,3.5,3.5,0,0,0,.688-.094V39a4.215,4.215,0,0,1-1.109.155,1.8,1.8,0,0,1-1.461-.586,2.517,2.517,0,0,1-.492-1.664V31.664h-1.539V30.547h1.539V28.5Zm2.727,6.2a4.993,4.993,0,0,1,.488-2.234,3.642,3.642,0,0,1,1.359-1.531,3.7,3.7,0,0,1,1.988-.539,3.565,3.565,0,0,1,2.793,1.2,4.6,4.6,0,0,1,1.066,3.18v.1a5.036,5.036,0,0,1-.473,2.215,3.589,3.589,0,0,1-1.352,1.527,3.743,3.743,0,0,1-2.02.547,3.556,3.556,0,0,1-2.785-1.2,4.575,4.575,0,0,1-1.066-3.164Zm1.453.172a3.616,3.616,0,0,0,.652,2.258,2.211,2.211,0,0,0,3.5-.012,3.954,3.954,0,0,0,.648-2.418,3.61,3.61,0,0,0-.66-2.254,2.1,2.1,0,0,0-1.754-.863,2.075,2.075,0,0,0-1.727.852A3.925,3.925,0,0,0,132.3,34.867ZM140,34.7a4.952,4.952,0,0,1,.922-3.129,3.137,3.137,0,0,1,4.766-.168V27h1.445V39H145.8l-.07-.906a2.943,2.943,0,0,1-2.414,1.063,2.887,2.887,0,0,1-2.395-1.2A5.008,5.008,0,0,1,140,34.813Zm1.445.164a3.749,3.749,0,0,0,.594,2.25,1.919,1.919,0,0,0,1.641.813,2.108,2.108,0,0,0,2.008-1.234V32.813a2.125,2.125,0,0,0-1.992-1.2,1.929,1.929,0,0,0-1.656.82A4.128,4.128,0,0,0,141.445,34.867Zm7.547-.172a4.993,4.993,0,0,1,.488-2.234,3.642,3.642,0,0,1,1.359-1.531,3.7,3.7,0,0,1,1.988-.539,3.565,3.565,0,0,1,2.793,1.2,4.6,4.6,0,0,1,1.066,3.18v.1a5.036,5.036,0,0,1-.473,2.215,3.589,3.589,0,0,1-1.352,1.527,3.743,3.743,0,0,1-2.02.547,3.556,3.556,0,0,1-2.785-1.2,4.575,4.575,0,0,1-1.066-3.164Zm1.453.172a3.616,3.616,0,0,0,.652,2.258,2.211,2.211,0,0,0,3.5-.012,3.954,3.954,0,0,0,.648-2.418,3.61,3.61,0,0,0-.66-2.254,2.1,2.1,0,0,0-1.754-.863,2.075,2.075,0,0,0-1.727.852A3.925,3.925,0,0,0,150.445,34.867Zm12.977,1.891a1.064,1.064,0,0,0-.441-.91,4.249,4.249,0,0,0-1.539-.559,7.277,7.277,0,0,1-1.742-.562,2.479,2.479,0,0,1-.953-.781,1.869,1.869,0,0,1-.309-1.078,2.193,2.193,0,0,1,.879-1.758,3.432,3.432,0,0,1,2.246-.719,3.532,3.532,0,0,1,2.332.742,2.357,2.357,0,0,1,.895,1.9h-1.453a1.3,1.3,0,0,0-.5-1.023,1.888,1.888,0,0,0-1.27-.43,1.976,1.976,0,0,0-1.234.344,1.082,1.082,0,0,0-.445.9.877.877,0,0,0,.414.789,5.1,5.1,0,0,0,1.5.508,7.8,7.8,0,0,1,1.754.578,2.558,2.558,0,0,1,1,.809,1.988,1.988,0,0,1,.324,1.152,2.163,2.163,0,0,1-.906,1.816,3.8,3.8,0,0,1-2.352.684,4.257,4.257,0,0,1-1.8-.359,2.922,2.922,0,0,1-1.223-1,2.42,2.42,0,0,1-.441-1.395h1.445a1.5,1.5,0,0,0,.582,1.152,2.258,2.258,0,0,0,1.434.426,2.331,2.331,0,0,0,1.316-.332A1.02,1.02,0,0,0,163.422,36.758ZM2.664,63H1.219V51H2.664Zm1.93-4.3a4.993,4.993,0,0,1,.488-2.234A3.643,3.643,0,0,1,6.441,54.93a3.7,3.7,0,0,1,1.988-.539,3.565,3.565,0,0,1,2.793,1.2,4.6,4.6,0,0,1,1.066,3.18v.1a5.036,5.036,0,0,1-.473,2.215,3.589,3.589,0,0,1-1.352,1.527,3.743,3.743,0,0,1-2.02.547,3.556,3.556,0,0,1-2.785-1.2A4.575,4.575,0,0,1,4.594,58.8Zm1.453.172A3.616,3.616,0,0,0,6.7,61.125a2.088,2.088,0,0,0,1.746.852,2.075,2.075,0,0,0,1.75-.863,3.955,3.955,0,0,0,.648-2.418,3.61,3.61,0,0,0-.66-2.254,2.1,2.1,0,0,0-1.754-.863A2.075,2.075,0,0,0,6.7,56.43,3.925,3.925,0,0,0,6.047,58.867Zm12.977,1.891a1.064,1.064,0,0,0-.441-.91,4.249,4.249,0,0,0-1.539-.559,7.277,7.277,0,0,1-1.742-.562,2.479,2.479,0,0,1-.953-.781,1.869,1.869,0,0,1-.309-1.078,2.193,2.193,0,0,1,.879-1.758,3.432,3.432,0,0,1,2.246-.719,3.532,3.532,0,0,1,2.332.742,2.357,2.357,0,0,1,.895,1.9H18.938a1.3,1.3,0,0,0-.5-1.023,1.888,1.888,0,0,0-1.27-.43,1.976,1.976,0,0,0-1.234.344,1.082,1.082,0,0,0-.445.9.877.877,0,0,0,.414.789,5.1,5.1,0,0,0,1.5.508,7.8,7.8,0,0,1,1.754.578,2.558,2.558,0,0,1,1,.809,1.988,1.988,0,0,1,.324,1.152,2.163,2.163,0,0,1-.906,1.816,3.8,3.8,0,0,1-2.352.684,4.257,4.257,0,0,1-1.8-.359,2.922,2.922,0,0,1-1.223-1A2.42,2.42,0,0,1,13.75,60.4H15.2a1.5,1.5,0,0,0,.582,1.152,2.258,2.258,0,0,0,1.434.426,2.331,2.331,0,0,0,1.316-.332A1.02,1.02,0,0,0,19.023,60.758ZM31.531,63a3.036,3.036,0,0,1-.2-.891,3.225,3.225,0,0,1-2.406,1.047,2.984,2.984,0,0,1-2.051-.707,2.287,2.287,0,0,1-.8-1.793,2.39,2.39,0,0,1,1-2.051,4.733,4.733,0,0,1,2.824-.73H31.3v-.664A1.623,1.623,0,0,0,30.852,56a1.821,1.821,0,0,0-1.336-.449,2.107,2.107,0,0,0-1.3.391,1.151,1.151,0,0,0-.523.945H26.242a2,2,0,0,1,.449-1.223,3.066,3.066,0,0,1,1.219-.934,4.1,4.1,0,0,1,1.691-.344,3.342,3.342,0,0,1,2.289.73,2.635,2.635,0,0,1,.859,2.012v3.891a4.757,4.757,0,0,0,.3,1.852V63Zm-2.4-1.1a2.54,2.54,0,0,0,1.289-.352,2.127,2.127,0,0,0,.883-.914V58.9H30.172q-2.656,0-2.656,1.555a1.316,1.316,0,0,0,.453,1.063A1.742,1.742,0,0,0,29.133,61.9Zm9.273.078a2.082,2.082,0,0,0,1.352-.469,1.649,1.649,0,0,0,.641-1.172h1.367a2.621,2.621,0,0,1-.5,1.383,3.293,3.293,0,0,1-1.23,1.047,3.55,3.55,0,0,1-1.629.391A3.482,3.482,0,0,1,35.66,62a4.59,4.59,0,0,1-1.02-3.152v-.242a5.089,5.089,0,0,1,.453-2.2,3.451,3.451,0,0,1,1.3-1.492,3.7,3.7,0,0,1,2-.531,3.39,3.39,0,0,1,2.363.852,3.043,3.043,0,0,1,1,2.211H40.4a1.992,1.992,0,0,0-.621-1.348,1.932,1.932,0,0,0-1.379-.527,2.023,2.023,0,0,0-1.707.793,3.724,3.724,0,0,0-.605,2.293v.273a3.65,3.65,0,0,0,.6,2.25A2.033,2.033,0,0,0,38.406,61.977ZM45.352,52.5v2.047H46.93v1.117H45.352v5.249a1.173,1.173,0,0,0,.211.763.888.888,0,0,0,.719.254,3.5,3.5,0,0,0,.688-.094V63a4.215,4.215,0,0,1-1.109.155A1.8,1.8,0,0,1,44.4,62.57a2.517,2.517,0,0,1-.492-1.664V55.664H42.367V54.547h1.539V52.5Zm2.727,6.2a4.993,4.993,0,0,1,.488-2.234,3.643,3.643,0,0,1,1.359-1.531,3.7,3.7,0,0,1,1.988-.539,3.565,3.565,0,0,1,2.793,1.2,4.6,4.6,0,0,1,1.066,3.18v.1a5.036,5.036,0,0,1-.473,2.215,3.589,3.589,0,0,1-1.352,1.527,3.743,3.743,0,0,1-2.02.547,3.556,3.556,0,0,1-2.785-1.2A4.575,4.575,0,0,1,48.078,58.8Zm1.453.172a3.616,3.616,0,0,0,.652,2.258,2.211,2.211,0,0,0,3.5-.012,3.955,3.955,0,0,0,.648-2.418,3.61,3.61,0,0,0-.66-2.254,2.1,2.1,0,0,0-1.754-.863,2.075,2.075,0,0,0-1.727.852A3.925,3.925,0,0,0,49.531,58.867Zm12.141-3.023a4.331,4.331,0,0,0-.711-.055A1.9,1.9,0,0,0,59.031,57v6H57.586V54.547h1.406l.023.977a2.251,2.251,0,0,1,2.016-1.133,1.477,1.477,0,0,1,.641.109Zm4.688,7.313a3.693,3.693,0,0,1-2.8-1.129,4.19,4.19,0,0,1-1.078-3.02v-.266a5.073,5.073,0,0,1,.48-2.246,3.748,3.748,0,0,1,1.344-1.547,3.378,3.378,0,0,1,1.871-.559,3.166,3.166,0,0,1,2.563,1.086,4.7,4.7,0,0,1,.914,3.109v.6H63.93a3,3,0,0,0,.73,2.02,2.3,2.3,0,0,0,1.777.77,2.517,2.517,0,0,0,1.3-.312,3.259,3.259,0,0,0,.93-.828l.883.688A3.55,3.55,0,0,1,66.359,63.156Zm-.18-7.578a1.928,1.928,0,0,0-1.469.637A3.1,3.1,0,0,0,63.977,58h4.234v-.109a2.753,2.753,0,0,0-.594-1.707A1.815,1.815,0,0,0,66.18,55.578Zm10.07,5.18a1.064,1.064,0,0,0-.441-.91,4.249,4.249,0,0,0-1.539-.559,7.277,7.277,0,0,1-1.742-.562,2.479,2.479,0,0,1-.953-.781,1.869,1.869,0,0,1-.309-1.078,2.193,2.193,0,0,1,.879-1.758,3.432,3.432,0,0,1,2.246-.719,3.532,3.532,0,0,1,2.332.742,2.357,2.357,0,0,1,.895,1.9H76.164a1.3,1.3,0,0,0-.5-1.023,1.888,1.888,0,0,0-1.27-.43,1.976,1.976,0,0,0-1.234.344,1.082,1.082,0,0,0-.445.9.877.877,0,0,0,.414.789,5.1,5.1,0,0,0,1.5.508,7.8,7.8,0,0,1,1.754.578,2.558,2.558,0,0,1,1,.809,1.988,1.988,0,0,1,.324,1.152,2.163,2.163,0,0,1-.906,1.816,3.8,3.8,0,0,1-2.352.684,4.257,4.257,0,0,1-1.8-.359,2.922,2.922,0,0,1-1.223-1,2.42,2.42,0,0,1-.441-1.395h1.445A1.5,1.5,0,0,0,73,61.551a2.258,2.258,0,0,0,1.434.426,2.331,2.331,0,0,0,1.316-.332A1.02,1.02,0,0,0,76.25,60.758ZM85.109,63H83.664V51h1.445Zm1.93-4.3a4.993,4.993,0,0,1,.488-2.234,3.643,3.643,0,0,1,1.359-1.531,3.7,3.7,0,0,1,1.988-.539,3.565,3.565,0,0,1,2.793,1.2,4.6,4.6,0,0,1,1.066,3.18v.1a5.036,5.036,0,0,1-.473,2.215,3.589,3.589,0,0,1-1.352,1.527,3.743,3.743,0,0,1-2.02.547,3.556,3.556,0,0,1-2.785-1.2A4.575,4.575,0,0,1,87.039,58.8Zm1.453.172a3.616,3.616,0,0,0,.652,2.258,2.211,2.211,0,0,0,3.5-.012,3.955,3.955,0,0,0,.648-2.418,3.61,3.61,0,0,0-.66-2.254,2.1,2.1,0,0,0-1.754-.863,2.075,2.075,0,0,0-1.727.852A3.925,3.925,0,0,0,88.492,58.867Zm11.445,3.109a2.082,2.082,0,0,0,1.352-.469,1.649,1.649,0,0,0,.641-1.172H103.3a2.621,2.621,0,0,1-.5,1.383,3.293,3.293,0,0,1-1.23,1.047,3.55,3.55,0,0,1-1.629.391A3.482,3.482,0,0,1,97.191,62a4.59,4.59,0,0,1-1.02-3.152v-.242a5.089,5.089,0,0,1,.453-2.2,3.451,3.451,0,0,1,1.3-1.492,3.7,3.7,0,0,1,2-.531,3.39,3.39,0,0,1,2.363.852,3.043,3.043,0,0,1,1,2.211H101.93a1.992,1.992,0,0,0-.621-1.348,1.932,1.932,0,0,0-1.379-.527,2.023,2.023,0,0,0-1.707.793,3.724,3.724,0,0,0-.605,2.293v.273a3.65,3.65,0,0,0,.6,2.25A2.033,2.033,0,0,0,99.938,61.977ZM110.141,63a3.036,3.036,0,0,1-.2-.891,3.225,3.225,0,0,1-2.406,1.047,2.984,2.984,0,0,1-2.051-.707,2.288,2.288,0,0,1-.8-1.793,2.39,2.39,0,0,1,1-2.051,4.733,4.733,0,0,1,2.824-.73h1.406v-.664A1.623,1.623,0,0,0,109.461,56a1.821,1.821,0,0,0-1.336-.449,2.107,2.107,0,0,0-1.3.391,1.151,1.151,0,0,0-.523.945h-1.453a2,2,0,0,1,.449-1.223,3.066,3.066,0,0,1,1.219-.934,4.1,4.1,0,0,1,1.691-.344,3.342,3.342,0,0,1,2.289.73,2.635,2.635,0,0,1,.859,2.012v3.891a4.757,4.757,0,0,0,.3,1.852V63Zm-2.4-1.1a2.54,2.54,0,0,0,1.289-.352,2.127,2.127,0,0,0,.883-.914V58.9h-1.133q-2.656,0-2.656,1.555a1.316,1.316,0,0,0,.453,1.063A1.742,1.742,0,0,0,107.742,61.9ZM115.2,63H113.75V51H115.2Zm5.82.156a3.693,3.693,0,0,1-2.8-1.129,4.19,4.19,0,0,1-1.078-3.02v-.266a5.073,5.073,0,0,1,.48-2.246,3.748,3.748,0,0,1,1.344-1.547,3.378,3.378,0,0,1,1.871-.559,3.166,3.166,0,0,1,2.563,1.086,4.7,4.7,0,0,1,.914,3.109v.6h-5.727a3,3,0,0,0,.73,2.02,2.3,2.3,0,0,0,1.777.77,2.517,2.517,0,0,0,1.3-.312,3.259,3.259,0,0,0,.93-.828l.883.688A3.55,3.55,0,0,1,121.016,63.156Zm-.18-7.578a1.928,1.928,0,0,0-1.469.637A3.1,3.1,0,0,0,118.633,58h4.234v-.109a2.753,2.753,0,0,0-.594-1.707A1.815,1.815,0,0,0,120.836,55.578Zm10.07,5.18a1.064,1.064,0,0,0-.441-.91,4.249,4.249,0,0,0-1.539-.559,7.277,7.277,0,0,1-1.742-.562,2.479,2.479,0,0,1-.953-.781,1.869,1.869,0,0,1-.309-1.078,2.193,2.193,0,0,1,.879-1.758,3.432,3.432,0,0,1,2.246-.719,3.532,3.532,0,0,1,2.332.742,2.357,2.357,0,0,1,.895,1.9H130.82a1.3,1.3,0,0,0-.5-1.023,1.888,1.888,0,0,0-1.27-.43,1.976,1.976,0,0,0-1.234.344,1.082,1.082,0,0,0-.445.9.877.877,0,0,0,.414.789,5.1,5.1,0,0,0,1.5.508,7.8,7.8,0,0,1,1.754.578,2.558,2.558,0,0,1,1,.809,1.988,1.988,0,0,1,.324,1.152,2.163,2.163,0,0,1-.906,1.816,3.8,3.8,0,0,1-2.352.684,4.257,4.257,0,0,1-1.8-.359,2.922,2.922,0,0,1-1.223-1,2.42,2.42,0,0,1-.441-1.395h1.445a1.5,1.5,0,0,0,.582,1.152,2.258,2.258,0,0,0,1.434.426,2.331,2.331,0,0,0,1.316-.332A1.02,1.02,0,0,0,130.906,60.758Z" transform="translate(419 9097)" fill="#12263f"/>
      <path id="Trazado_875538" data-name="Trazado 875538" d="M36.723,10.547V15h-1.5V3.625h4.2a4.215,4.215,0,0,1,2.926.953A3.231,3.231,0,0,1,43.4,7.1a3.189,3.189,0,0,1-1.035,2.551,4.4,4.4,0,0,1-2.965.895Zm0-1.227h2.7a2.7,2.7,0,0,0,1.844-.567,2.075,2.075,0,0,0,.641-1.64,2.143,2.143,0,0,0-.641-1.628A2.525,2.525,0,0,0,39.5,4.852H36.723ZM49.176,7.844a4.331,4.331,0,0,0-.711-.055A1.9,1.9,0,0,0,46.535,9v6H45.09V6.547H46.5l.023.977a2.251,2.251,0,0,1,2.016-1.133,1.477,1.477,0,0,1,.641.109Zm.789,2.852a4.993,4.993,0,0,1,.488-2.234A3.643,3.643,0,0,1,51.813,6.93,3.7,3.7,0,0,1,53.8,6.391a3.565,3.565,0,0,1,2.793,1.2,4.6,4.6,0,0,1,1.066,3.18v.1a5.036,5.036,0,0,1-.473,2.215,3.589,3.589,0,0,1-1.352,1.527,3.743,3.743,0,0,1-2.02.547,3.556,3.556,0,0,1-2.785-1.2A4.575,4.575,0,0,1,49.965,10.8Zm1.453.172a3.616,3.616,0,0,0,.652,2.258,2.211,2.211,0,0,0,3.5-.012,3.955,3.955,0,0,0,.648-2.418,3.61,3.61,0,0,0-.66-2.254A2.1,2.1,0,0,0,53.8,7.578a2.075,2.075,0,0,0-1.727.852A3.925,3.925,0,0,0,51.418,10.867Zm7.711-.164a4.968,4.968,0,0,1,.914-3.145,3.151,3.151,0,0,1,4.836-.074l.07-.937h1.32V14.8a3.439,3.439,0,0,1-.973,2.586,3.589,3.589,0,0,1-2.613.945,4.348,4.348,0,0,1-1.789-.391,3.08,3.08,0,0,1-1.336-1.07l.75-.867a2.826,2.826,0,0,0,2.273,1.148,2.214,2.214,0,0,0,1.645-.594,2.269,2.269,0,0,0,.59-1.672v-.727a2.971,2.971,0,0,1-2.367,1,2.887,2.887,0,0,1-2.4-1.2A5.224,5.224,0,0,1,59.129,10.7Zm1.453.164a3.79,3.79,0,0,0,.586,2.246,1.9,1.9,0,0,0,1.641.816,2.117,2.117,0,0,0,2.008-1.242V8.828a2.142,2.142,0,0,0-1.992-1.211,1.921,1.921,0,0,0-1.648.82A4.128,4.128,0,0,0,60.582,10.867ZM72.535,7.844a4.331,4.331,0,0,0-.711-.055A1.9,1.9,0,0,0,69.895,9v6H68.449V6.547h1.406l.023.977a2.251,2.251,0,0,1,2.016-1.133,1.477,1.477,0,0,1,.641.109ZM78.77,15a3.036,3.036,0,0,1-.2-.891,3.225,3.225,0,0,1-2.406,1.047,2.984,2.984,0,0,1-2.051-.707,2.288,2.288,0,0,1-.8-1.793,2.39,2.39,0,0,1,1-2.051,4.733,4.733,0,0,1,2.824-.73h1.406V9.211A1.623,1.623,0,0,0,78.09,8a1.821,1.821,0,0,0-1.336-.449,2.108,2.108,0,0,0-1.3.391,1.151,1.151,0,0,0-.523.945H73.48a2,2,0,0,1,.449-1.223,3.066,3.066,0,0,1,1.219-.934,4.1,4.1,0,0,1,1.691-.344,3.342,3.342,0,0,1,2.289.73,2.635,2.635,0,0,1,.859,2.012v3.891a4.757,4.757,0,0,0,.3,1.852V15Zm-2.4-1.1a2.54,2.54,0,0,0,1.289-.352,2.127,2.127,0,0,0,.883-.914V10.9H77.41q-2.656,0-2.656,1.555a1.316,1.316,0,0,0,.453,1.063A1.742,1.742,0,0,0,76.371,13.9Zm7.242-7.352.039.938A3.122,3.122,0,0,1,86.16,6.391,2.417,2.417,0,0,1,88.574,7.75a3.2,3.2,0,0,1,1.1-.984,3.242,3.242,0,0,1,1.6-.375q2.781,0,2.828,2.945V15H92.652V9.422a1.941,1.941,0,0,0-.414-1.355,1.823,1.823,0,0,0-1.391-.449,1.916,1.916,0,0,0-1.336.48,1.949,1.949,0,0,0-.617,1.293V15H87.441V9.461a1.613,1.613,0,0,0-1.8-1.844,1.934,1.934,0,0,0-1.945,1.211V15H82.246V6.547ZM101.5,15a3.036,3.036,0,0,1-.2-.891,3.225,3.225,0,0,1-2.406,1.047,2.984,2.984,0,0,1-2.051-.707,2.288,2.288,0,0,1-.8-1.793,2.39,2.39,0,0,1,1-2.051,4.733,4.733,0,0,1,2.824-.73h1.406V9.211A1.623,1.623,0,0,0,100.816,8a1.821,1.821,0,0,0-1.336-.449,2.108,2.108,0,0,0-1.3.391,1.151,1.151,0,0,0-.523.945H96.207a2,2,0,0,1,.449-1.223,3.066,3.066,0,0,1,1.219-.934,4.1,4.1,0,0,1,1.691-.344,3.342,3.342,0,0,1,2.289.73,2.635,2.635,0,0,1,.859,2.012v3.891a4.757,4.757,0,0,0,.3,1.852V15Zm-2.4-1.1a2.54,2.54,0,0,0,1.289-.352,2.127,2.127,0,0,0,.883-.914V10.9h-1.133q-2.656,0-2.656,1.555a1.316,1.316,0,0,0,.453,1.063A1.742,1.742,0,0,0,99.1,13.9Zm9.273.078a2.082,2.082,0,0,0,1.352-.469,1.649,1.649,0,0,0,.641-1.172h1.367a2.621,2.621,0,0,1-.5,1.383A3.293,3.293,0,0,1,110,14.766a3.55,3.55,0,0,1-1.629.391A3.482,3.482,0,0,1,105.625,14a4.59,4.59,0,0,1-1.02-3.152v-.242a5.089,5.089,0,0,1,.453-2.2,3.451,3.451,0,0,1,1.3-1.492,3.7,3.7,0,0,1,2-.531,3.39,3.39,0,0,1,2.363.852,3.043,3.043,0,0,1,1,2.211h-1.367a1.992,1.992,0,0,0-.621-1.348,1.932,1.932,0,0,0-1.379-.527,2.023,2.023,0,0,0-1.707.793,3.724,3.724,0,0,0-.605,2.293v.273a3.65,3.65,0,0,0,.6,2.25A2.033,2.033,0,0,0,108.371,13.977ZM114.926,15H113.48V6.547h1.445ZM113.363,4.3a.863.863,0,0,1,.215-.594.807.807,0,0,1,.637-.242.819.819,0,0,1,.641.242.854.854,0,0,1,.219.594.826.826,0,0,1-.219.586.834.834,0,0,1-.641.234.821.821,0,0,1-.637-.234A.834.834,0,0,1,113.363,4.3Zm3.492,6.391a4.993,4.993,0,0,1,.488-2.234A3.643,3.643,0,0,1,118.7,6.93a3.7,3.7,0,0,1,1.988-.539,3.565,3.565,0,0,1,2.793,1.2,4.6,4.6,0,0,1,1.066,3.18v.1a5.036,5.036,0,0,1-.473,2.215,3.589,3.589,0,0,1-1.352,1.527,3.743,3.743,0,0,1-2.02.547,3.556,3.556,0,0,1-2.785-1.2,4.575,4.575,0,0,1-1.066-3.164Zm1.453.172a3.616,3.616,0,0,0,.652,2.258,2.211,2.211,0,0,0,3.5-.012,3.955,3.955,0,0,0,.648-2.418,3.61,3.61,0,0,0-.66-2.254,2.1,2.1,0,0,0-1.754-.863,2.075,2.075,0,0,0-1.727.852A3.925,3.925,0,0,0,118.309,10.867ZM121.348,3h1.75L121,5.3l-1.164,0Zm6.383,3.547.047,1.063a3.08,3.08,0,0,1,2.531-1.219q2.68,0,2.7,3.023V15h-1.445V9.406a1.946,1.946,0,0,0-.418-1.352,1.675,1.675,0,0,0-1.277-.437,2.086,2.086,0,0,0-1.234.375,2.546,2.546,0,0,0-.828.984V15h-1.445V6.547ZM45.992,37.977a2.082,2.082,0,0,0,1.352-.469,1.649,1.649,0,0,0,.641-1.172h1.367a2.621,2.621,0,0,1-.5,1.383,3.293,3.293,0,0,1-1.23,1.047,3.55,3.55,0,0,1-1.629.391A3.482,3.482,0,0,1,43.246,38a4.59,4.59,0,0,1-1.02-3.152v-.242a5.089,5.089,0,0,1,.453-2.2,3.451,3.451,0,0,1,1.3-1.492,3.7,3.7,0,0,1,2-.531,3.39,3.39,0,0,1,2.363.852,3.043,3.043,0,0,1,1,2.211H47.984a1.992,1.992,0,0,0-.621-1.348,1.932,1.932,0,0,0-1.379-.527,2.023,2.023,0,0,0-1.707.793,3.724,3.724,0,0,0-.605,2.293v.273a3.65,3.65,0,0,0,.6,2.25A2.033,2.033,0,0,0,45.992,37.977Zm4.6-3.281a4.993,4.993,0,0,1,.488-2.234,3.643,3.643,0,0,1,1.359-1.531,3.7,3.7,0,0,1,1.988-.539,3.565,3.565,0,0,1,2.793,1.2,4.6,4.6,0,0,1,1.066,3.18v.1a5.036,5.036,0,0,1-.473,2.215,3.589,3.589,0,0,1-1.352,1.527,3.743,3.743,0,0,1-2.02.547,3.556,3.556,0,0,1-2.785-1.2A4.575,4.575,0,0,1,50.594,34.8Zm1.453.172a3.616,3.616,0,0,0,.652,2.258,2.211,2.211,0,0,0,3.5-.012,3.955,3.955,0,0,0,.648-2.418,3.61,3.61,0,0,0-.66-2.254,2.1,2.1,0,0,0-1.754-.863,2.075,2.075,0,0,0-1.727.852A3.925,3.925,0,0,0,52.047,34.867Zm9.414-4.32.039.938a3.122,3.122,0,0,1,2.508-1.094,2.417,2.417,0,0,1,2.414,1.359,3.2,3.2,0,0,1,1.1-.984,3.242,3.242,0,0,1,1.6-.375q2.781,0,2.828,2.945V39H70.5V33.422a1.941,1.941,0,0,0-.414-1.355,1.823,1.823,0,0,0-1.391-.449,1.916,1.916,0,0,0-1.336.48,1.949,1.949,0,0,0-.617,1.293V39H65.289V33.461a1.613,1.613,0,0,0-1.8-1.844,1.934,1.934,0,0,0-1.945,1.211V39H60.094V30.547Zm17.883,7.617a3.07,3.07,0,0,1-2.477.992,2.628,2.628,0,0,1-2.059-.785,3.4,3.4,0,0,1-.715-2.324v-5.5h1.445v5.461q0,1.922,1.563,1.922A2.163,2.163,0,0,0,79.3,36.7V30.547H80.75V39H79.375Zm4.969-7.617.047,1.063a3.08,3.08,0,0,1,2.531-1.219q2.68,0,2.7,3.023V39H88.148V33.406a1.946,1.946,0,0,0-.418-1.352,1.675,1.675,0,0,0-1.277-.437,2.086,2.086,0,0,0-1.234.375,2.546,2.546,0,0,0-.828.984V39H82.945V30.547ZM93.344,39H91.9V30.547h1.445ZM91.781,28.3A.863.863,0,0,1,92,27.711a.807.807,0,0,1,.637-.242.819.819,0,0,1,.641.242.854.854,0,0,1,.219.594.826.826,0,0,1-.219.586.834.834,0,0,1-.641.234A.821.821,0,0,1,92,28.891.834.834,0,0,1,91.781,28.3Zm5.836.2v2.047H99.2v1.117H97.617v5.249a1.173,1.173,0,0,0,.211.763.888.888,0,0,0,.719.254,3.5,3.5,0,0,0,.688-.094V39a4.215,4.215,0,0,1-1.109.155,1.8,1.8,0,0,1-1.461-.586,2.517,2.517,0,0,1-.492-1.664V31.664H94.633V30.547h1.539V28.5ZM106.1,39a3.036,3.036,0,0,1-.2-.891,3.225,3.225,0,0,1-2.406,1.047,2.984,2.984,0,0,1-2.051-.707,2.288,2.288,0,0,1-.8-1.793,2.39,2.39,0,0,1,1-2.051,4.733,4.733,0,0,1,2.824-.73h1.406v-.664A1.623,1.623,0,0,0,105.422,32a1.821,1.821,0,0,0-1.336-.449,2.108,2.108,0,0,0-1.3.391,1.151,1.151,0,0,0-.523.945h-1.453a2,2,0,0,1,.449-1.223,3.066,3.066,0,0,1,1.219-.934,4.1,4.1,0,0,1,1.691-.344,3.342,3.342,0,0,1,2.289.73,2.635,2.635,0,0,1,.859,2.012v3.891a4.757,4.757,0,0,0,.3,1.852V39Zm-2.4-1.1a2.54,2.54,0,0,0,1.289-.352,2.127,2.127,0,0,0,.883-.914V34.9h-1.133q-2.656,0-2.656,1.555a1.316,1.316,0,0,0,.453,1.063A1.742,1.742,0,0,0,103.7,37.9Zm9.969-6.055a4.331,4.331,0,0,0-.711-.055A1.9,1.9,0,0,0,111.031,33v6h-1.445V30.547h1.406l.023.977a2.251,2.251,0,0,1,2.016-1.133,1.477,1.477,0,0,1,.641.109ZM116.57,39h-1.445V30.547h1.445Zm-1.562-10.7a.863.863,0,0,1,.215-.594.807.807,0,0,1,.637-.242.819.819,0,0,1,.641.242.854.854,0,0,1,.219.594.826.826,0,0,1-.219.586.834.834,0,0,1-.641.234.821.821,0,0,1-.637-.234A.834.834,0,0,1,115.008,28.3ZM124.1,39a3.036,3.036,0,0,1-.2-.891,3.225,3.225,0,0,1-2.406,1.047,2.984,2.984,0,0,1-2.051-.707,2.288,2.288,0,0,1-.8-1.793,2.39,2.39,0,0,1,1-2.051,4.733,4.733,0,0,1,2.824-.73h1.406v-.664A1.623,1.623,0,0,0,123.422,32a1.821,1.821,0,0,0-1.336-.449,2.108,2.108,0,0,0-1.3.391,1.151,1.151,0,0,0-.523.945h-1.453a2,2,0,0,1,.449-1.223,3.066,3.066,0,0,1,1.219-.934,4.1,4.1,0,0,1,1.691-.344,3.342,3.342,0,0,1,2.289.73,2.635,2.635,0,0,1,.859,2.012v3.891a4.757,4.757,0,0,0,.3,1.852V39Zm-2.4-1.1a2.54,2.54,0,0,0,1.289-.352,2.127,2.127,0,0,0,.883-.914V34.9h-1.133q-2.656,0-2.656,1.555a1.316,1.316,0,0,0,.453,1.063A1.742,1.742,0,0,0,121.7,37.9Z" transform="translate(419 9305)" fill="#12263f"/>
      <path id="Trazado_875536" data-name="Trazado 875536" d="M44.109,11.391a4.185,4.185,0,0,1-1.332,2.785,4.365,4.365,0,0,1-2.98.98,4.008,4.008,0,0,1-3.23-1.445,5.815,5.815,0,0,1-1.215-3.867V8.75a6.481,6.481,0,0,1,.566-2.789,4.231,4.231,0,0,1,1.605-1.848,4.47,4.47,0,0,1,2.406-.645A4.11,4.11,0,0,1,42.836,4.48a4.235,4.235,0,0,1,1.273,2.8H42.6a3.268,3.268,0,0,0-.848-1.975A2.565,2.565,0,0,0,39.93,4.7a2.684,2.684,0,0,0-2.254,1.063,4.882,4.882,0,0,0-.816,3.026v1.1a5.018,5.018,0,0,0,.773,2.948A2.5,2.5,0,0,0,39.8,13.93a2.887,2.887,0,0,0,1.918-.566,3.143,3.143,0,0,0,.887-1.973Zm1.438-.7a4.993,4.993,0,0,1,.488-2.234A3.643,3.643,0,0,1,47.395,6.93a3.7,3.7,0,0,1,1.988-.539,3.565,3.565,0,0,1,2.793,1.2,4.6,4.6,0,0,1,1.066,3.18v.1a5.036,5.036,0,0,1-.473,2.215,3.589,3.589,0,0,1-1.352,1.527,3.743,3.743,0,0,1-2.02.547,3.556,3.556,0,0,1-2.785-1.2A4.575,4.575,0,0,1,45.547,10.8ZM47,10.867a3.616,3.616,0,0,0,.652,2.258,2.211,2.211,0,0,0,3.5-.012A3.955,3.955,0,0,0,51.8,10.7a3.61,3.61,0,0,0-.66-2.254,2.1,2.1,0,0,0-1.754-.863,2.075,2.075,0,0,0-1.727.852A3.925,3.925,0,0,0,47,10.867Zm9.422-4.32.047,1.063A3.08,3.08,0,0,1,59,6.391q2.68,0,2.7,3.023V15H60.258V9.406a1.946,1.946,0,0,0-.418-1.352,1.675,1.675,0,0,0-1.277-.437,2.086,2.086,0,0,0-1.234.375,2.546,2.546,0,0,0-.828.984V15H55.055V6.547ZM63.5,10.7a4.993,4.993,0,0,1,.488-2.234A3.643,3.643,0,0,1,65.348,6.93a3.7,3.7,0,0,1,1.988-.539,3.565,3.565,0,0,1,2.793,1.2,4.6,4.6,0,0,1,1.066,3.18v.1a5.036,5.036,0,0,1-.473,2.215,3.589,3.589,0,0,1-1.352,1.527,3.743,3.743,0,0,1-2.02.547,3.556,3.556,0,0,1-2.785-1.2A4.575,4.575,0,0,1,63.5,10.8Zm1.453.172a3.616,3.616,0,0,0,.652,2.258,2.211,2.211,0,0,0,3.5-.012A3.955,3.955,0,0,0,69.75,10.7a3.61,3.61,0,0,0-.66-2.254,2.1,2.1,0,0,0-1.754-.863,2.075,2.075,0,0,0-1.727.852A3.925,3.925,0,0,0,64.953,10.867ZM76.4,13.977a2.082,2.082,0,0,0,1.352-.469,1.649,1.649,0,0,0,.641-1.172h1.367a2.621,2.621,0,0,1-.5,1.383,3.293,3.293,0,0,1-1.23,1.047,3.55,3.55,0,0,1-1.629.391A3.482,3.482,0,0,1,73.652,14a4.59,4.59,0,0,1-1.02-3.152v-.242a5.089,5.089,0,0,1,.453-2.2,3.451,3.451,0,0,1,1.3-1.492,3.7,3.7,0,0,1,2-.531,3.39,3.39,0,0,1,2.363.852,3.043,3.043,0,0,1,1,2.211H78.391a1.992,1.992,0,0,0-.621-1.348,1.932,1.932,0,0,0-1.379-.527,2.023,2.023,0,0,0-1.707.793,3.724,3.724,0,0,0-.605,2.293v.273a3.65,3.65,0,0,0,.6,2.25A2.033,2.033,0,0,0,76.4,13.977ZM82.953,15H81.508V6.547h1.445ZM81.391,4.3a.863.863,0,0,1,.215-.594.807.807,0,0,1,.637-.242.819.819,0,0,1,.641.242A.854.854,0,0,1,83.1,4.3a.826.826,0,0,1-.219.586.834.834,0,0,1-.641.234.821.821,0,0,1-.637-.234A.834.834,0,0,1,81.391,4.3Zm5.234,2.242.039.938a3.122,3.122,0,0,1,2.508-1.094A2.417,2.417,0,0,1,91.586,7.75a3.2,3.2,0,0,1,1.1-.984,3.242,3.242,0,0,1,1.6-.375q2.781,0,2.828,2.945V15H95.664V9.422a1.941,1.941,0,0,0-.414-1.355,1.823,1.823,0,0,0-1.391-.449,1.916,1.916,0,0,0-1.336.48,1.949,1.949,0,0,0-.617,1.293V15H90.453V9.461a1.613,1.613,0,0,0-1.8-1.844A1.934,1.934,0,0,0,86.7,8.828V15H85.258V6.547ZM100.859,15H99.414V6.547h1.445ZM99.3,4.3a.863.863,0,0,1,.215-.594.807.807,0,0,1,.637-.242.819.819,0,0,1,.641.242.854.854,0,0,1,.219.594.826.826,0,0,1-.219.586.834.834,0,0,1-.641.234.821.821,0,0,1-.637-.234A.834.834,0,0,1,99.3,4.3Zm7.383,10.852a3.693,3.693,0,0,1-2.8-1.129,4.19,4.19,0,0,1-1.078-3.02v-.266a5.073,5.073,0,0,1,.48-2.246,3.748,3.748,0,0,1,1.344-1.547,3.378,3.378,0,0,1,1.871-.559,3.166,3.166,0,0,1,2.563,1.086,4.7,4.7,0,0,1,.914,3.109v.6H104.25a3,3,0,0,0,.73,2.02,2.3,2.3,0,0,0,1.777.77,2.517,2.517,0,0,0,1.3-.312,3.259,3.259,0,0,0,.93-.828l.883.688A3.55,3.55,0,0,1,106.68,15.156Zm-.18-7.578a1.928,1.928,0,0,0-1.469.637A3.1,3.1,0,0,0,104.3,10h4.234V9.891a2.753,2.753,0,0,0-.594-1.707A1.815,1.815,0,0,0,106.5,7.578Zm6.516-1.031.047,1.063a3.08,3.08,0,0,1,2.531-1.219q2.68,0,2.7,3.023V15h-1.445V9.406a1.946,1.946,0,0,0-.418-1.352,1.675,1.675,0,0,0-1.277-.437,2.086,2.086,0,0,0-1.234.375,2.546,2.546,0,0,0-.828.984V15h-1.445V6.547ZM122.438,4.5V6.547h1.578V7.664h-1.578v5.249a1.173,1.173,0,0,0,.211.763.888.888,0,0,0,.719.254,3.5,3.5,0,0,0,.688-.094V15a4.215,4.215,0,0,1-1.109.155,1.8,1.8,0,0,1-1.461-.586,2.517,2.517,0,0,1-.492-1.664V7.664h-1.539V6.547h1.539V4.5Zm2.727,6.2a4.993,4.993,0,0,1,.488-2.234,3.643,3.643,0,0,1,1.359-1.531A3.7,3.7,0,0,1,129,6.391a3.565,3.565,0,0,1,2.793,1.2,4.6,4.6,0,0,1,1.066,3.18v.1a5.036,5.036,0,0,1-.473,2.215,3.589,3.589,0,0,1-1.352,1.527,3.743,3.743,0,0,1-2.02.547,3.556,3.556,0,0,1-2.785-1.2,4.575,4.575,0,0,1-1.066-3.164Zm1.453.172a3.616,3.616,0,0,0,.652,2.258,2.211,2.211,0,0,0,3.5-.012,3.954,3.954,0,0,0,.648-2.418,3.61,3.61,0,0,0-.66-2.254A2.1,2.1,0,0,0,129,7.578a2.075,2.075,0,0,0-1.727.852A3.925,3.925,0,0,0,126.617,10.867ZM47.352,37.977a2.082,2.082,0,0,0,1.352-.469,1.649,1.649,0,0,0,.641-1.172h1.367a2.621,2.621,0,0,1-.5,1.383,3.293,3.293,0,0,1-1.23,1.047,3.55,3.55,0,0,1-1.629.391A3.482,3.482,0,0,1,44.605,38a4.59,4.59,0,0,1-1.02-3.152v-.242a5.089,5.089,0,0,1,.453-2.2,3.451,3.451,0,0,1,1.3-1.492,3.7,3.7,0,0,1,2-.531,3.39,3.39,0,0,1,2.363.852,3.043,3.043,0,0,1,1,2.211H49.344a1.992,1.992,0,0,0-.621-1.348,1.932,1.932,0,0,0-1.379-.527,2.023,2.023,0,0,0-1.707.793,3.724,3.724,0,0,0-.605,2.293v.273a3.65,3.65,0,0,0,.6,2.25A2.033,2.033,0,0,0,47.352,37.977Zm4.6-3.281a4.993,4.993,0,0,1,.488-2.234A3.643,3.643,0,0,1,53.8,30.93a3.7,3.7,0,0,1,1.988-.539,3.565,3.565,0,0,1,2.793,1.2,4.6,4.6,0,0,1,1.066,3.18v.1a5.036,5.036,0,0,1-.473,2.215,3.589,3.589,0,0,1-1.352,1.527,3.743,3.743,0,0,1-2.02.547,3.556,3.556,0,0,1-2.785-1.2A4.575,4.575,0,0,1,51.953,34.8Zm1.453.172a3.616,3.616,0,0,0,.652,2.258,2.211,2.211,0,0,0,3.5-.012A3.955,3.955,0,0,0,58.2,34.7a3.61,3.61,0,0,0-.66-2.254,2.1,2.1,0,0,0-1.754-.863,2.075,2.075,0,0,0-1.727.852A3.925,3.925,0,0,0,53.406,34.867Zm9.414-4.32.039.938a3.122,3.122,0,0,1,2.508-1.094,2.417,2.417,0,0,1,2.414,1.359,3.2,3.2,0,0,1,1.1-.984,3.242,3.242,0,0,1,1.6-.375q2.781,0,2.828,2.945V39H71.859V33.422a1.941,1.941,0,0,0-.414-1.355,1.823,1.823,0,0,0-1.391-.449,1.916,1.916,0,0,0-1.336.48,1.949,1.949,0,0,0-.617,1.293V39H66.648V33.461a1.613,1.613,0,0,0-1.8-1.844A1.934,1.934,0,0,0,62.9,32.828V39H61.453V30.547Zm19.8,4.32a5.062,5.062,0,0,1-.883,3.109,2.829,2.829,0,0,1-2.391,1.18,3.1,3.1,0,0,1-2.422-.977v4.07H75.484v-11.7H76.8l.07.938a2.977,2.977,0,0,1,2.453-1.094,2.882,2.882,0,0,1,2.41,1.148,5.117,5.117,0,0,1,.887,3.2ZM81.18,34.7a3.735,3.735,0,0,0-.609-2.258,1.963,1.963,0,0,0-1.672-.828,2.125,2.125,0,0,0-1.969,1.164V36.82a2.129,2.129,0,0,0,1.984,1.156,1.954,1.954,0,0,0,1.652-.824A4.077,4.077,0,0,0,81.18,34.7Zm8.5,4.3a3.036,3.036,0,0,1-.2-.891,3.225,3.225,0,0,1-2.406,1.047,2.984,2.984,0,0,1-2.051-.707,2.288,2.288,0,0,1-.8-1.793,2.39,2.39,0,0,1,1-2.051,4.733,4.733,0,0,1,2.824-.73h1.406v-.664A1.623,1.623,0,0,0,89,32a1.821,1.821,0,0,0-1.336-.449,2.108,2.108,0,0,0-1.3.391,1.151,1.151,0,0,0-.523.945H84.391a2,2,0,0,1,.449-1.223,3.066,3.066,0,0,1,1.219-.934,4.1,4.1,0,0,1,1.691-.344,3.342,3.342,0,0,1,2.289.73,2.635,2.635,0,0,1,.859,2.012v3.891a4.757,4.757,0,0,0,.3,1.852V39Zm-2.4-1.1a2.54,2.54,0,0,0,1.289-.352,2.127,2.127,0,0,0,.883-.914V34.9H88.32q-2.656,0-2.656,1.555a1.316,1.316,0,0,0,.453,1.063A1.742,1.742,0,0,0,87.281,37.9Zm9.969-6.055a4.331,4.331,0,0,0-.711-.055A1.9,1.9,0,0,0,94.609,33v6H93.164V30.547H94.57l.023.977a2.251,2.251,0,0,1,2.016-1.133,1.477,1.477,0,0,1,.641.109Zm3.68-3.344v2.047h1.578v1.117H100.93v5.249a1.173,1.173,0,0,0,.211.763.888.888,0,0,0,.719.254,3.5,3.5,0,0,0,.688-.094V39a4.215,4.215,0,0,1-1.109.155,1.8,1.8,0,0,1-1.461-.586,2.517,2.517,0,0,1-.492-1.664V31.664H97.945V30.547h1.539V28.5ZM105.766,39H104.32V30.547h1.445ZM104.2,28.3a.863.863,0,0,1,.215-.594.807.807,0,0,1,.637-.242.819.819,0,0,1,.641.242.854.854,0,0,1,.219.594.826.826,0,0,1-.219.586.834.834,0,0,1-.641.234.821.821,0,0,1-.637-.234A.834.834,0,0,1,104.2,28.3Zm3.523,6.4a4.952,4.952,0,0,1,.922-3.129,3.137,3.137,0,0,1,4.766-.168V27h1.445V39h-1.328l-.07-.906a2.943,2.943,0,0,1-2.414,1.063,2.887,2.887,0,0,1-2.395-1.2,5.008,5.008,0,0,1-.926-3.141Zm1.445.164a3.749,3.749,0,0,0,.594,2.25,1.92,1.92,0,0,0,1.641.813,2.108,2.108,0,0,0,2.008-1.234V32.813a2.125,2.125,0,0,0-1.992-1.2,1.929,1.929,0,0,0-1.656.82A4.128,4.128,0,0,0,109.172,34.867Zm7.547-.172a4.993,4.993,0,0,1,.488-2.234,3.643,3.643,0,0,1,1.359-1.531,3.7,3.7,0,0,1,1.988-.539,3.565,3.565,0,0,1,2.793,1.2,4.6,4.6,0,0,1,1.066,3.18v.1a5.036,5.036,0,0,1-.473,2.215,3.589,3.589,0,0,1-1.352,1.527,3.743,3.743,0,0,1-2.02.547,3.556,3.556,0,0,1-2.785-1.2,4.575,4.575,0,0,1-1.066-3.164Zm1.453.172a3.616,3.616,0,0,0,.652,2.258,2.211,2.211,0,0,0,3.5-.012,3.955,3.955,0,0,0,.648-2.418,3.61,3.61,0,0,0-.66-2.254,2.1,2.1,0,0,0-1.754-.863,2.075,2.075,0,0,0-1.727.852A3.925,3.925,0,0,0,118.172,34.867Z" transform="translate(419 9207)" fill="#12263f"/>
      <path id="Trazado_875540" data-name="Trazado 875540" d="M53.328,9.742H48.4v4.031h5.727V15H46.9V3.625h7.148V4.852H48.4V8.516h4.93Zm5.023,3.3,2.094-6.492h1.477L58.891,15h-1.1L54.727,6.547H56.2ZM68.414,15a3.036,3.036,0,0,1-.2-.891A3.225,3.225,0,0,1,65.8,15.156a2.984,2.984,0,0,1-2.051-.707,2.287,2.287,0,0,1-.8-1.793,2.39,2.39,0,0,1,1-2.051,4.733,4.733,0,0,1,2.824-.73h1.406V9.211A1.623,1.623,0,0,0,67.734,8,1.821,1.821,0,0,0,66.4,7.555a2.108,2.108,0,0,0-1.3.391,1.151,1.151,0,0,0-.523.945H63.125a2,2,0,0,1,.449-1.223,3.066,3.066,0,0,1,1.219-.934,4.1,4.1,0,0,1,1.691-.344,3.342,3.342,0,0,1,2.289.73,2.635,2.635,0,0,1,.859,2.012v3.891a4.757,4.757,0,0,0,.3,1.852V15Zm-2.4-1.1a2.54,2.54,0,0,0,1.289-.352,2.127,2.127,0,0,0,.883-.914V10.9H67.055q-2.656,0-2.656,1.555a1.316,1.316,0,0,0,.453,1.063A1.742,1.742,0,0,0,66.016,13.9ZM73.469,15H72.023V3h1.445ZM81,14.164a3.07,3.07,0,0,1-2.477.992,2.628,2.628,0,0,1-2.059-.785,3.4,3.4,0,0,1-.715-2.324v-5.5H77.2v5.461q0,1.922,1.563,1.922a2.163,2.163,0,0,0,2.2-1.234V6.547h1.445V15H81.031ZM89.82,15a3.036,3.036,0,0,1-.2-.891,3.225,3.225,0,0,1-2.406,1.047,2.984,2.984,0,0,1-2.051-.707,2.288,2.288,0,0,1-.8-1.793,2.39,2.39,0,0,1,1-2.051,4.733,4.733,0,0,1,2.824-.73h1.406V9.211A1.623,1.623,0,0,0,89.141,8,1.821,1.821,0,0,0,87.8,7.555a2.108,2.108,0,0,0-1.3.391,1.151,1.151,0,0,0-.523.945H84.531a2,2,0,0,1,.449-1.223A3.066,3.066,0,0,1,86.2,6.734a4.1,4.1,0,0,1,1.691-.344,3.342,3.342,0,0,1,2.289.73,2.635,2.635,0,0,1,.859,2.012v3.891a4.757,4.757,0,0,0,.3,1.852V15Zm-2.4-1.1a2.54,2.54,0,0,0,1.289-.352,2.127,2.127,0,0,0,.883-.914V10.9H88.461q-2.656,0-2.656,1.555a1.316,1.316,0,0,0,.453,1.063A1.742,1.742,0,0,0,87.422,13.9Zm9.273.078a2.082,2.082,0,0,0,1.352-.469,1.649,1.649,0,0,0,.641-1.172h1.367a2.621,2.621,0,0,1-.5,1.383,3.293,3.293,0,0,1-1.23,1.047,3.55,3.55,0,0,1-1.629.391A3.482,3.482,0,0,1,93.949,14a4.59,4.59,0,0,1-1.02-3.152v-.242a5.089,5.089,0,0,1,.453-2.2,3.451,3.451,0,0,1,1.3-1.492,3.7,3.7,0,0,1,2-.531,3.39,3.39,0,0,1,2.363.852,3.043,3.043,0,0,1,1,2.211H98.688a1.992,1.992,0,0,0-.621-1.348,1.932,1.932,0,0,0-1.379-.527,2.023,2.023,0,0,0-1.707.793,3.724,3.724,0,0,0-.605,2.293v.273a3.65,3.65,0,0,0,.6,2.25A2.033,2.033,0,0,0,96.7,13.977ZM103.25,15H101.8V6.547h1.445ZM101.688,4.3a.863.863,0,0,1,.215-.594.807.807,0,0,1,.637-.242.819.819,0,0,1,.641.242.854.854,0,0,1,.219.594.826.826,0,0,1-.219.586.834.834,0,0,1-.641.234.821.821,0,0,1-.637-.234A.834.834,0,0,1,101.688,4.3ZM105.18,10.7a4.993,4.993,0,0,1,.488-2.234,3.643,3.643,0,0,1,1.359-1.531,3.7,3.7,0,0,1,1.988-.539,3.565,3.565,0,0,1,2.793,1.2,4.6,4.6,0,0,1,1.066,3.18v.1a5.036,5.036,0,0,1-.473,2.215,3.589,3.589,0,0,1-1.352,1.527,3.743,3.743,0,0,1-2.02.547,3.556,3.556,0,0,1-2.785-1.2A4.575,4.575,0,0,1,105.18,10.8Zm1.453.172a3.616,3.616,0,0,0,.652,2.258,2.211,2.211,0,0,0,3.5-.012,3.955,3.955,0,0,0,.648-2.418,3.61,3.61,0,0,0-.66-2.254,2.1,2.1,0,0,0-1.754-.863,2.075,2.075,0,0,0-1.727.852A3.925,3.925,0,0,0,106.633,10.867ZM109.672,3h1.75l-2.094,2.3-1.164,0Zm6.383,3.547.047,1.063a3.08,3.08,0,0,1,2.531-1.219q2.68,0,2.7,3.023V15h-1.445V9.406a1.946,1.946,0,0,0-.418-1.352,1.675,1.675,0,0,0-1.277-.437,2.086,2.086,0,0,0-1.234.375,2.546,2.546,0,0,0-.828.984V15h-1.445V6.547ZM45.992,37.977a2.082,2.082,0,0,0,1.352-.469,1.649,1.649,0,0,0,.641-1.172h1.367a2.621,2.621,0,0,1-.5,1.383,3.293,3.293,0,0,1-1.23,1.047,3.55,3.55,0,0,1-1.629.391A3.482,3.482,0,0,1,43.246,38a4.59,4.59,0,0,1-1.02-3.152v-.242a5.089,5.089,0,0,1,.453-2.2,3.451,3.451,0,0,1,1.3-1.492,3.7,3.7,0,0,1,2-.531,3.39,3.39,0,0,1,2.363.852,3.043,3.043,0,0,1,1,2.211H47.984a1.992,1.992,0,0,0-.621-1.348,1.932,1.932,0,0,0-1.379-.527,2.023,2.023,0,0,0-1.707.793,3.724,3.724,0,0,0-.605,2.293v.273a3.65,3.65,0,0,0,.6,2.25A2.033,2.033,0,0,0,45.992,37.977Zm4.6-3.281a4.993,4.993,0,0,1,.488-2.234,3.643,3.643,0,0,1,1.359-1.531,3.7,3.7,0,0,1,1.988-.539,3.565,3.565,0,0,1,2.793,1.2,4.6,4.6,0,0,1,1.066,3.18v.1a5.036,5.036,0,0,1-.473,2.215,3.589,3.589,0,0,1-1.352,1.527,3.743,3.743,0,0,1-2.02.547,3.556,3.556,0,0,1-2.785-1.2A4.575,4.575,0,0,1,50.594,34.8Zm1.453.172a3.616,3.616,0,0,0,.652,2.258,2.211,2.211,0,0,0,3.5-.012,3.955,3.955,0,0,0,.648-2.418,3.61,3.61,0,0,0-.66-2.254,2.1,2.1,0,0,0-1.754-.863,2.075,2.075,0,0,0-1.727.852A3.925,3.925,0,0,0,52.047,34.867Zm9.414-4.32.039.938a3.122,3.122,0,0,1,2.508-1.094,2.417,2.417,0,0,1,2.414,1.359,3.2,3.2,0,0,1,1.1-.984,3.242,3.242,0,0,1,1.6-.375q2.781,0,2.828,2.945V39H70.5V33.422a1.941,1.941,0,0,0-.414-1.355,1.823,1.823,0,0,0-1.391-.449,1.916,1.916,0,0,0-1.336.48,1.949,1.949,0,0,0-.617,1.293V39H65.289V33.461a1.613,1.613,0,0,0-1.8-1.844,1.934,1.934,0,0,0-1.945,1.211V39H60.094V30.547Zm17.883,7.617a3.07,3.07,0,0,1-2.477.992,2.628,2.628,0,0,1-2.059-.785,3.4,3.4,0,0,1-.715-2.324v-5.5h1.445v5.461q0,1.922,1.563,1.922A2.163,2.163,0,0,0,79.3,36.7V30.547H80.75V39H79.375Zm4.969-7.617.047,1.063a3.08,3.08,0,0,1,2.531-1.219q2.68,0,2.7,3.023V39H88.148V33.406a1.946,1.946,0,0,0-.418-1.352,1.675,1.675,0,0,0-1.277-.437,2.086,2.086,0,0,0-1.234.375,2.546,2.546,0,0,0-.828.984V39H82.945V30.547ZM93.344,39H91.9V30.547h1.445ZM91.781,28.3A.863.863,0,0,1,92,27.711a.807.807,0,0,1,.637-.242.819.819,0,0,1,.641.242.854.854,0,0,1,.219.594.826.826,0,0,1-.219.586.834.834,0,0,1-.641.234A.821.821,0,0,1,92,28.891.834.834,0,0,1,91.781,28.3Zm5.836.2v2.047H99.2v1.117H97.617v5.249a1.173,1.173,0,0,0,.211.763.888.888,0,0,0,.719.254,3.5,3.5,0,0,0,.688-.094V39a4.215,4.215,0,0,1-1.109.155,1.8,1.8,0,0,1-1.461-.586,2.517,2.517,0,0,1-.492-1.664V31.664H94.633V30.547h1.539V28.5ZM106.1,39a3.036,3.036,0,0,1-.2-.891,3.225,3.225,0,0,1-2.406,1.047,2.984,2.984,0,0,1-2.051-.707,2.288,2.288,0,0,1-.8-1.793,2.39,2.39,0,0,1,1-2.051,4.733,4.733,0,0,1,2.824-.73h1.406v-.664A1.623,1.623,0,0,0,105.422,32a1.821,1.821,0,0,0-1.336-.449,2.108,2.108,0,0,0-1.3.391,1.151,1.151,0,0,0-.523.945h-1.453a2,2,0,0,1,.449-1.223,3.066,3.066,0,0,1,1.219-.934,4.1,4.1,0,0,1,1.691-.344,3.342,3.342,0,0,1,2.289.73,2.635,2.635,0,0,1,.859,2.012v3.891a4.757,4.757,0,0,0,.3,1.852V39Zm-2.4-1.1a2.54,2.54,0,0,0,1.289-.352,2.127,2.127,0,0,0,.883-.914V34.9h-1.133q-2.656,0-2.656,1.555a1.316,1.316,0,0,0,.453,1.063A1.742,1.742,0,0,0,103.7,37.9Zm9.969-6.055a4.331,4.331,0,0,0-.711-.055A1.9,1.9,0,0,0,111.031,33v6h-1.445V30.547h1.406l.023.977a2.251,2.251,0,0,1,2.016-1.133,1.477,1.477,0,0,1,.641.109ZM116.57,39h-1.445V30.547h1.445Zm-1.562-10.7a.863.863,0,0,1,.215-.594.807.807,0,0,1,.637-.242.819.819,0,0,1,.641.242.854.854,0,0,1,.219.594.826.826,0,0,1-.219.586.834.834,0,0,1-.641.234.821.821,0,0,1-.637-.234A.834.834,0,0,1,115.008,28.3ZM124.1,39a3.036,3.036,0,0,1-.2-.891,3.225,3.225,0,0,1-2.406,1.047,2.984,2.984,0,0,1-2.051-.707,2.288,2.288,0,0,1-.8-1.793,2.39,2.39,0,0,1,1-2.051,4.733,4.733,0,0,1,2.824-.73h1.406v-.664A1.623,1.623,0,0,0,123.422,32a1.821,1.821,0,0,0-1.336-.449,2.108,2.108,0,0,0-1.3.391,1.151,1.151,0,0,0-.523.945h-1.453a2,2,0,0,1,.449-1.223,3.066,3.066,0,0,1,1.219-.934,4.1,4.1,0,0,1,1.691-.344,3.342,3.342,0,0,1,2.289.73,2.635,2.635,0,0,1,.859,2.012v3.891a4.757,4.757,0,0,0,.3,1.852V39Zm-2.4-1.1a2.54,2.54,0,0,0,1.289-.352,2.127,2.127,0,0,0,.883-.914V34.9h-1.133q-2.656,0-2.656,1.555a1.316,1.316,0,0,0,.453,1.063A1.742,1.742,0,0,0,121.7,37.9Z" transform="translate(419 9403)" fill="#12263f"/>
      <circle id="Elipse_11570" data-name="Elipse 11570" cx="28.5" cy="28.5" r="28.5" transform="translate(352 9103)" fill="#ffb937"/>
      <circle id="Elipse_11573" data-name="Elipse 11573" cx="28.5" cy="28.5" r="28.5" transform="translate(352 9299)" fill="#ffb937"/>
      <circle id="Elipse_11571" data-name="Elipse 11571" cx="28.5" cy="28.5" r="28.5" transform="translate(352 9201)" fill="#ffb937"/>
      <circle id="Elipse_11572" data-name="Elipse 11572" cx="28.5" cy="28.5" r="28.5" transform="translate(352 9397)" fill="#ffb937"/>
      <path id="Trazado_875533" data-name="Trazado 875533" d="M7.04,17H4.5V7.209l-3.032.94V6.084l5.3-1.9H7.04Z" transform="translate(376 9121)" fill="#12263f"/>
      <path id="Trazado_875537" data-name="Trazado 875537" d="M3.454,9.477H4.808A1.907,1.907,0,0,0,6.24,8.993,1.771,1.771,0,0,0,6.706,7.71a1.566,1.566,0,0,0-.461-1.2,1.788,1.788,0,0,0-1.27-.431,1.874,1.874,0,0,0-1.222.4,1.279,1.279,0,0,0-.492,1.042H.721a3.124,3.124,0,0,1,.541-1.8A3.6,3.6,0,0,1,2.773,4.476a5.045,5.045,0,0,1,2.14-.448A4.785,4.785,0,0,1,8.095,5,3.314,3.314,0,0,1,9.246,7.675,2.693,2.693,0,0,1,8.71,9.292,3.483,3.483,0,0,1,7.3,10.426a3.18,3.18,0,0,1,1.613,1.16,3.147,3.147,0,0,1,.532,1.828A3.369,3.369,0,0,1,8.2,16.147a5,5,0,0,1-3.292,1.028A4.741,4.741,0,0,1,1.78,16.165,3.3,3.3,0,0,1,.563,13.493H3.1a1.472,1.472,0,0,0,.541,1.178,1.992,1.992,0,0,0,1.332.457,2,2,0,0,0,1.419-.479,1.654,1.654,0,0,0,.514-1.27q0-1.916-2.109-1.916H3.454Z" transform="translate(376 9317)" fill="#12263f"/>
      <path id="Trazado_875535" data-name="Trazado 875535" d="M9.642,17H.87V15.26l4.14-4.412A10.213,10.213,0,0,0,6.271,9.222,2.612,2.612,0,0,0,6.68,7.9a1.955,1.955,0,0,0-.431-1.34,1.555,1.555,0,0,0-1.23-.488,1.677,1.677,0,0,0-1.358.593,2.35,2.35,0,0,0-.5,1.56H.615a4.2,4.2,0,0,1,.558-2.136A3.934,3.934,0,0,1,2.751,4.577a4.8,4.8,0,0,1,2.312-.549,4.54,4.54,0,0,1,3.072.949A3.358,3.358,0,0,1,9.229,7.657a4.3,4.3,0,0,1-.492,1.934,10.745,10.745,0,0,1-1.687,2.294L4.14,14.952h5.5Z" transform="translate(376 9219)" fill="#12263f"/>
      <path id="Trazado_875539" data-name="Trazado 875539" d="M3.454,9.477H4.808A1.907,1.907,0,0,0,6.24,8.993,1.771,1.771,0,0,0,6.706,7.71a1.566,1.566,0,0,0-.461-1.2,1.788,1.788,0,0,0-1.27-.431,1.874,1.874,0,0,0-1.222.4,1.279,1.279,0,0,0-.492,1.042H.721a3.124,3.124,0,0,1,.541-1.8A3.6,3.6,0,0,1,2.773,4.476a5.045,5.045,0,0,1,2.14-.448A4.785,4.785,0,0,1,8.095,5,3.314,3.314,0,0,1,9.246,7.675,2.693,2.693,0,0,1,8.71,9.292,3.483,3.483,0,0,1,7.3,10.426a3.18,3.18,0,0,1,1.613,1.16,3.147,3.147,0,0,1,.532,1.828A3.369,3.369,0,0,1,8.2,16.147a5,5,0,0,1-3.292,1.028A4.741,4.741,0,0,1,1.78,16.165,3.3,3.3,0,0,1,.563,13.493H3.1a1.472,1.472,0,0,0,.541,1.178,1.992,1.992,0,0,0,1.332.457,2,2,0,0,0,1.419-.479,1.654,1.654,0,0,0,.514-1.27q0-1.916-2.109-1.916H3.454Z" transform="translate(376 9415)" fill="#12263f"/>
    </g>
    <g id="Grupo_1100486" data-name="Grupo 1100486" transform="translate(-2185.684 -12447)">
      <g id="Grupo_1100475" data-name="Grupo 1100475" transform="translate(334.597 8714.11)">
        <g id="Grupo_1100442" data-name="Grupo 1100442" transform="translate(0 0)">
          <path id="Trazado_874340" data-name="Trazado 874340" d="M210.839,6a72.853,72.853,0,1,0,0,145.706h72.853V78.852A72.936,72.936,0,0,0,210.839,6M253.55,121.563H210.839A42.711,42.711,0,1,1,253.55,78.852Z" transform="translate(-137.986 -5.999)" fill="#ffb937"/>
          <path id="Trazado_874341" data-name="Trazado 874341" d="M441.333,78.853a72.853,72.853,0,1,0-145.706,0v72.853H368.48a72.936,72.936,0,0,0,72.853-72.853m-115.564,0a42.711,42.711,0,1,1,42.711,42.711H325.768Z" transform="translate(-125.93 -5.999)" fill="#ffce73"/>
          <path id="Trazado_874342" data-name="Trazado 874342" d="M137.986,236.492a72.853,72.853,0,1,0,145.706,0V163.639H210.839a72.936,72.936,0,0,0-72.853,72.853m115.564,0a42.711,42.711,0,1,1-42.711-42.711H253.55Z" transform="translate(-137.986 6.057)" fill="#ffce73"/>
          <path id="Trazado_874343" data-name="Trazado 874343" d="M368.479,163.639H295.626v72.853a72.853,72.853,0,1,0,72.853-72.853m0,115.564a42.76,42.76,0,0,1-42.711-42.711V193.78h42.711a42.711,42.711,0,0,1,0,85.423" transform="translate(-125.93 6.057)" fill="#ffb937"/>
          <path id="Trazado_874344" data-name="Trazado 874344" d="M208.75,48.294a28.469,28.469,0,1,0,28.469,28.469A28.468,28.468,0,0,0,208.75,48.294" transform="translate(-134.751 -2.764)" fill="#ffb937"/>
          <path id="Trazado_874345" data-name="Trazado 874345" d="M392.89,76.763a28.469,28.469,0,1,0-28.469,28.469A28.468,28.468,0,0,0,392.89,76.763" transform="translate(-122.846 -2.764)" fill="#ffce73"/>
          <path id="Trazado_874346" data-name="Trazado 874346" d="M180.28,233.34a28.469,28.469,0,1,0,28.469-28.469A28.468,28.468,0,0,0,180.28,233.34" transform="translate(-134.751 9.21)" fill="#ffce73"/>
          <path id="Trazado_874347" data-name="Trazado 874347" d="M364.422,204.87a28.469,28.469,0,1,0,28.469,28.469,28.468,28.468,0,0,0-28.469-28.469" transform="translate(-122.846 9.21)" fill="#ffb937"/>
        </g>
      </g>
      <g id="Grupo_1100477" data-name="Grupo 1100477" transform="translate(420.519 8708.591)">
        <path id="Trazado_874352" data-name="Trazado 874352" d="M-2834.865-3935h41.68" transform="translate(2881.409 3940.52)" fill="none" stroke="#ffce73" stroke-linecap="round" stroke-width="8"/>
        <g id="Polígono_6" data-name="Polígono 6" transform="translate(97.015 -6.394) rotate(90)" fill="#ffce73" stroke-linecap="round" stroke-linejoin="round">
          <path d="M 22.97406387329102 20.75058174133301 L 0.8535388708114624 20.75058174133301 L 11.9138011932373 1.022451400756836 L 22.97406387329102 20.75058174133301 Z" stroke="none"/>
          <path d="M 11.9138011932373 2.044883728027344 L 1.707067489624023 20.25058174133301 L 22.12053680419922 20.25058174133301 L 11.9138011932373 2.044883728027344 M 11.9138011932373 0 L 23.82760047912598 21.25058174133301 L 1.9073486328125e-06 21.25058174133301 L 11.9138011932373 0 Z" stroke="none" fill="#ffce73"/>
        </g>
      </g>
      <g id="Grupo_1100483" data-name="Grupo 1100483" transform="translate(655.52 8800.031) rotate(90)">
        <path id="Trazado_874352-2" data-name="Trazado 874352" d="M-2834.865-3935h41.68" transform="translate(2881.409 3940.52)" fill="none" stroke="#ffce73" stroke-linecap="round" stroke-width="8"/>
        <g id="Polígono_6-2" data-name="Polígono 6" transform="translate(97.015 -6.394) rotate(90)" fill="#ffce73" stroke-linecap="round" stroke-linejoin="round">
          <path d="M 22.97406387329102 20.75058174133301 L 0.8535388708114624 20.75058174133301 L 11.9138011932373 1.022451400756836 L 22.97406387329102 20.75058174133301 Z" stroke="none"/>
          <path d="M 11.9138011932373 2.044883728027344 L 1.707067489624023 20.25058174133301 L 22.12053680419922 20.25058174133301 L 11.9138011932373 2.044883728027344 M 11.9138011932373 0 L 23.82760047912598 21.25058174133301 L 1.9073486328125e-06 21.25058174133301 L 11.9138011932373 0 Z" stroke="none" fill="#ffce73"/>
        </g>
      </g>
      <g id="Grupo_1100484" data-name="Grupo 1100484" transform="translate(329.078 8943.59) rotate(-90)">
        <path id="Trazado_874352-3" data-name="Trazado 874352" d="M-2834.865-3935h41.68" transform="translate(2881.409 3940.52)" fill="none" stroke="#ffce73" stroke-linecap="round" stroke-width="8"/>
        <g id="Polígono_6-3" data-name="Polígono 6" transform="translate(97.015 -6.394) rotate(90)" fill="#ffce73" stroke-linecap="round" stroke-linejoin="round">
          <path d="M 22.97406387329102 20.75058174133301 L 0.8535388708114624 20.75058174133301 L 11.9138011932373 1.022451400756836 L 22.97406387329102 20.75058174133301 Z" stroke="none"/>
          <path d="M 11.9138011932373 2.044883728027344 L 1.707067489624023 20.25058174133301 L 22.12053680419922 20.25058174133301 L 11.9138011932373 2.044883728027344 M 11.9138011932373 0 L 23.82760047912598 21.25058174133301 L 1.9073486328125e-06 21.25058174133301 L 11.9138011932373 0 Z" stroke="none" fill="#ffce73"/>
        </g>
      </g>
      <g id="Grupo_1100482" data-name="Grupo 1100482" transform="translate(564.078 9035.032) rotate(180)">
        <path id="Trazado_874352-4" data-name="Trazado 874352" d="M-2834.865-3935h41.68" transform="translate(2881.409 3940.52)" fill="none" stroke="#ffce73" stroke-linecap="round" stroke-width="8"/>
        <g id="Polígono_6-4" data-name="Polígono 6" transform="translate(97.015 -6.394) rotate(90)" fill="#ffce73" stroke-linecap="round" stroke-linejoin="round">
          <path d="M 22.97406387329102 20.75058174133301 L 0.8535388708114624 20.75058174133301 L 11.9138011932373 1.022451400756836 L 22.97406387329102 20.75058174133301 Z" stroke="none"/>
          <path d="M 11.9138011932373 2.044883728027344 L 1.707067489624023 20.25058174133301 L 22.12053680419922 20.25058174133301 L 11.9138011932373 2.044883728027344 M 11.9138011932373 0 L 23.82760047912598 21.25058174133301 L 1.9073486328125e-06 21.25058174133301 L 11.9138011932373 0 Z" stroke="none" fill="#ffce73"/>
        </g>
      </g>
      <g id="Grupo_1100481" data-name="Grupo 1100481" transform="translate(557.745 8773.958)">
        <g id="Grupo_1100453" data-name="Grupo 1100453" transform="translate(0)" clip-path="url(#clip-path)">
          <path id="Trazado_874353" data-name="Trazado 874353" d="M1.947,14.1c0-.8-.019-1.6.008-2.4a1.072,1.072,0,0,0-.381-.9C1.1,10.357.67,9.866.189,9.433-.089,9.183-.038,9.039.2,8.8Q4.5,4.523,8.779.222c.254-.255.442-.332.662,0A1.488,1.488,0,0,0,10.885.8C12.239.767,13.6.83,14.948.772a1.871,1.871,0,0,1,1.586.674c.729.789.752.768-.01,1.53q-1.882,1.882-3.765,3.763a3.685,3.685,0,0,0-1.035,3.83,3.614,3.614,0,0,0,2.988,2.672,3.626,3.626,0,0,0,3.345-1.07c1.037-1.013,2.065-2.036,3.072-3.079.279-.289.425-.288.709,0q5.874,5.9,11.77,11.785a1.673,1.673,0,0,1,.1,2.489,1.638,1.638,0,0,1-2.435-.143q-4.557-4.549-9.1-9.112c-.326-.328-.534-.4-.838-.006a4.154,4.154,0,0,1-.727.727c-.381.295-.277.494.019.788q3.84,3.81,7.656,7.644a2.75,2.75,0,0,1,.669.848,1.67,1.67,0,0,1-.565,1.99,1.648,1.648,0,0,1-2.062-.129c-.642-.6-1.25-1.233-1.87-1.853-2.064-2.064-4.135-4.122-6.184-6.2-.307-.312-.483-.323-.754.01-.334.411-1.024.721-1.007,1.167.015.384.636.75,1,1.113q2.931,2.937,5.867,5.868a1.637,1.637,0,0,1,.489,1.717,1.572,1.572,0,0,1-1.292,1.155,1.739,1.739,0,0,1-1.631-.623c-2.141-2.15-4.3-4.282-6.424-6.447-.377-.384-.605-.465-.951,0-.283.377-.9.632-.911,1.044s.571.706.9,1.04c1.5,1.518,3.02,3.024,4.531,4.534a2.2,2.2,0,0,1,.616.88,1.641,1.641,0,0,1-.519,1.806,1.658,1.658,0,0,1-1.926.1,3.733,3.733,0,0,1-.559-.487q-6.7-6.695-13.4-13.388a1.115,1.115,0,0,1-.367-.9c.025-.8.008-1.6.008-2.4" transform="translate(0 -0.001)" fill="#7a4f00"/>
          <path id="Trazado_874354" data-name="Trazado 874354" d="M128.843,6.986c.782,0,1.564-.017,2.346.007a1.068,1.068,0,0,0,.9-.362c.464-.5.974-.967,1.445-1.466.191-.2.31-.191.5,0q4.058,4.071,8.131,8.128c.211.21.24.37-.009.542a1.648,1.648,0,0,0-.638,1.589c.041,1.467.015,2.937.01,4.405,0,.185.068.4-.08.55-.585.6-1.175,1.2-1.777,1.781-.259.251-.369-.073-.487-.191q-2.923-2.9-5.828-5.821c-1.874-1.874-3.758-3.739-5.615-5.63-.311-.316-.461-.281-.748.012-1.482,1.511-2.982,3-4.486,4.5a1.673,1.673,0,0,1-2.179.3,1.613,1.613,0,0,1-.32-2.447c1.874-1.927,3.792-3.81,5.686-5.718a.706.706,0,0,1,.574-.173h2.575" transform="translate(-105.888 -4.443)" fill="#7a4f00"/>
        </g>
      </g>
      <g id="Grupo_1100479" data-name="Grupo 1100479" transform="translate(554.157 8935.491)">
        <g id="Grupo_1100455" data-name="Grupo 1100455" transform="translate(0)" clip-path="url(#clip-path-2)">
          <path id="Trazado_874355" data-name="Trazado 874355" d="M82.786,88.235V83.873c0-1.172.009-2.345-.005-3.517a.782.782,0,0,1,.407-.793,1.992,1.992,0,0,0,.9-2.369,2.091,2.091,0,0,0-4-.044A2.043,2.043,0,0,0,81,79.584c.226.151.4.266.393.585-.016,1.8-.008,3.609-.008,5.566-1.189-.683-2.307-1.29-3.383-1.964-.353-.221-.158-1.093.251-1.366a2.038,2.038,0,0,0,.986-2.1,1.983,1.983,0,0,0-1.411-1.683,2.075,2.075,0,0,0-2.519,1,2.005,2.005,0,0,0,.581,2.634,1.026,1.026,0,0,1,.571,1.129,1.517,1.517,0,0,0,1.015,1.762c1.17.588,2.281,1.294,3.43,1.926a.811.811,0,0,1,.491.821q-.034,3.482,0,6.964c0,.436-.121.567-.553.55-.819-.033-1.641-.026-2.461,0-.385.012-.6-.093-.515-.5.248-1.237-.295-1.815-1.425-2.391a11.8,11.8,0,0,1-6.17-12.428A11.966,11.966,0,1,1,87.062,92.872a1.053,1.053,0,0,0-.773,1.172c.061,1.347.018,1.349-1.333,1.349-.563,0-1.126-.017-1.688.006-.354.014-.5-.083-.49-.467q.03-2.215,0-4.431a.91.91,0,0,1,.4-.761c1.286-1.093,2.536-2.23,3.859-3.276a1.738,1.738,0,0,0,.672-1.718.931.931,0,0,1,.494-1.03,1.959,1.959,0,0,0,.8-2.342,2.1,2.1,0,1,0-3.224,2.344,1.108,1.108,0,0,1,.092,1.877c-.976.841-1.958,1.675-3.086,2.64" transform="translate(-60.27 -60.208)" fill="#7a4f00"/>
          <path id="Trazado_874356" data-name="Trazado 874356" d="M129.174,259.979c1.243,0,2.485.014,3.728-.008.393-.007.539.1.519.51a9.423,9.423,0,0,1-.305,3.2,4.218,4.218,0,0,1-8.137-1.335c-.03-.632.011-1.267-.019-1.9-.018-.381.129-.475.487-.47,1.242.018,2.485.007,3.728.007" transform="translate(-107.376 -223.391)" fill="#7a4f00"/>
          <path id="Trazado_874357" data-name="Trazado 874357" d="M45.212,43.237c-.493.815.266,1.234.77,1.753a13.7,13.7,0,0,0,1.148,1.134c.463.376.35.628-.022.988-.355.344-.6.522-.989.039-.334-.417-.766-.756-1.129-1.153a1.871,1.871,0,0,0-1.879-.815,1.985,1.985,0,0,1-2.118-2.034,2.117,2.117,0,0,1,2.13-2.142,2.147,2.147,0,0,1,2.089,2.229" transform="translate(-35.225 -35.238)" fill="#7a4f00"/>
          <path id="Trazado_874358" data-name="Trazado 874358" d="M227.366,41a2.127,2.127,0,0,1,2.068,2.338,2.085,2.085,0,0,1-2.448,1.84,1,1,0,0,0-1.085.358c-.558.6-1.174,1.145-1.727,1.748-.42.457-.607.036-.819-.186s-.667-.387-.206-.818c.633-.591,1.223-1.227,1.846-1.828a.839.839,0,0,0,.279-.912A2.092,2.092,0,0,1,227.366,41" transform="translate(-191.58 -35.23)" fill="#7a4f00"/>
          <path id="Trazado_874359" data-name="Trazado 874359" d="M40.979,227.537a2.124,2.124,0,0,1,2.461-2.25,1,1,0,0,0,1.085-.36c.56-.6,1.173-1.146,1.728-1.748.423-.458.605-.028.819.19s.66.39.2.818c-.634.59-1.223,1.227-1.847,1.828a.828.828,0,0,0-.279.913,1.94,1.94,0,0,1-.794,2.1,1.968,1.968,0,0,1-2.242.182,2,2,0,0,1-1.133-1.678" transform="translate(-35.213 -191.602)" fill="#7a4f00"/>
          <path id="Trazado_874360" data-name="Trazado 874360" d="M229.469,227.425a2.127,2.127,0,0,1-2.322,2.085,2.076,2.076,0,0,1-1.853-2.434,1.043,1.043,0,0,0-.4-1.137c-.577-.547-1.108-1.144-1.695-1.68-.5-.456,0-.63.21-.87s.428-.577.823-.131c.543.611,1.161,1.155,1.724,1.749a.946.946,0,0,0,1.025.337,2.082,2.082,0,0,1,2.487,2.082" transform="translate(-191.609 -191.653)" fill="#7a4f00"/>
          <path id="Trazado_874361" data-name="Trazado 874361" d="M141.3,5.913c0-.211-.009-.422,0-.632a1.578,1.578,0,0,0-.687-1.648A1.991,1.991,0,0,1,140.53.6,2.109,2.109,0,0,1,143.6.727a2.033,2.033,0,0,1-.326,3.03,1.166,1.166,0,0,0-.568,1.206c.029.7-.032,1.408.02,2.107.042.568-.162.689-.7.7-.575.009-.812-.131-.733-.731a8.767,8.767,0,0,0,.009-1.123" transform="translate(-120.191 0.001)" fill="#7a4f00"/>
          <path id="Trazado_874362" data-name="Trazado 874362" d="M5.867,142.812c-.257,0-.516.017-.772,0a1.329,1.329,0,0,0-1.393.619,2.013,2.013,0,0,1-3.033.217,2.107,2.107,0,0,1,.043-3.116,2.034,2.034,0,0,1,3.033.3,1.179,1.179,0,0,0,1.2.585c.794-.039,1.592.011,2.387-.016.581-.02.425.391.4.67s.256.768-.391.75c-.491-.013-.983,0-1.475,0" transform="translate(0 -120.291)" fill="#7a4f00"/>
          <path id="Trazado_874363" data-name="Trazado 874363" d="M256.779,141.348c.234,0,.469-.016.7,0a1.524,1.524,0,0,0,1.572-.684,2,2,0,0,1,3.032-.089,2.1,2.1,0,0,1-.074,3.015,2.018,2.018,0,0,1-3.031-.231,1.309,1.309,0,0,0-1.326-.612c-.7.04-1.406-.037-2.1.023-.606.052-.63-.255-.609-.7.019-.4-.076-.814.576-.732a10.079,10.079,0,0,0,1.261.01" transform="translate(-219.066 -120.238)" fill="#7a4f00"/>
        </g>
      </g>
      <g id="Grupo_1100480" data-name="Grupo 1100480" transform="translate(389.04 8940.673)">
        <g id="Grupo_1100457" data-name="Grupo 1100457" transform="translate(0)" clip-path="url(#clip-path-3)">
          <path id="Trazado_874364" data-name="Trazado 874364" d="M76.618,89.19c0-1.61,0-3.219,0-4.829a3.692,3.692,0,0,1,1.208-2.827Q81.6,78,85.379,74.465c.3-.282.484-.295.789-.007q3.789,3.572,7.6,7.117a3.732,3.732,0,0,1,1.162,2.851c.007,3.242.015,6.485,0,9.727a2.243,2.243,0,0,1-2.469,2.424c-.989.006-1.979-.036-2.966.015-.6.031-.72-.2-.713-.746.027-1.954.032-3.909-.007-5.863a2.972,2.972,0,0,0-2.285-2.777,3.052,3.052,0,0,0-3.358,1.459,3.529,3.529,0,0,0-.379,1.8c0,1.794-.02,3.587.011,5.381.01.549-.108.777-.713.747-1.032-.051-2.069,0-3.1-.017a2.217,2.217,0,0,1-2.329-2.349c-.012-1.679,0-3.357,0-5.036" transform="translate(-66.04 -63.999)" fill="#7a4f00"/>
          <path id="Trazado_874365" data-name="Trazado 874365" d="M63.4,9.978a1.067,1.067,0,0,1,.576-.995,1.024,1.024,0,0,1,1.16.108q3.484,2.227,6.973,4.447a4.011,4.011,0,0,0,3.29.574,5.392,5.392,0,0,0,1.539-.753q3.28-2.1,6.561-4.2a1.182,1.182,0,0,1,1.22-.222A1.05,1.05,0,0,1,85,10.716c-1.17,1.266-2.366,2.508-3.537,3.773a14.2,14.2,0,0,0-3.084,4.773c-.171.471-.33.3-.558.085-1.005-.944-2.025-1.874-3.015-2.834-.315-.305-.514-.313-.834,0-.987.963-2.011,1.888-3.013,2.836-.244.231-.406.354-.564-.083A15.716,15.716,0,0,0,66.8,13.929q-1.488-1.583-2.983-3.159a1.066,1.066,0,0,1-.417-.792" transform="translate(-54.65 -7.626)" fill="#7a4f00"/>
          <path id="Trazado_874366" data-name="Trazado 874366" d="M206.167,74.93a1.062,1.062,0,0,1-.657-.2A12.52,12.52,0,0,0,200,73.142c-.342-.012-.433-.155-.423-.463.014-.436-.023-.875.007-1.31a5.312,5.312,0,0,0-1.995-4.613c-1.193-1.033-1.158-1.07-.165-2.29a29.724,29.724,0,0,1,5.73-5.544c.472-.337.937-.525,1.428-.086.436.391.415.851-.063,1.464a12.837,12.837,0,0,0-1.843,3.058,5.993,5.993,0,0,0,.558,5.843,27.217,27.217,0,0,0,3.5,3.979.955.955,0,0,1-.068,1.586.705.705,0,0,1-.5.163" transform="translate(-169.54 -50.495)" fill="#7a4f00"/>
          <path id="Trazado_874367" data-name="Trazado 874367" d="M18.508,65.844a8.227,8.227,0,0,0-1.48-4.33,14.782,14.782,0,0,0-.885-1.231c-.387-.481-.584-.977-.088-1.47s1-.262,1.483.091a26.783,26.783,0,0,1,2.5,2.06,36.663,36.663,0,0,1,3.82,4.255c.269.345.29.556-.062.841-.428.346-.821.738-1.214,1.124a4.64,4.64,0,0,0-1.5,3.506c.011.644-.014,1.288,0,1.931.01.361-.132.466-.483.48a12.241,12.241,0,0,0-5.258,1.483c-.142.075-.287.146-.433.212a.905.905,0,0,1-1.2-.352.838.838,0,0,1,.1-1.184c.913-.94,1.86-1.848,2.694-2.861a7.349,7.349,0,0,0,2-4.555" transform="translate(-11.646 -50.451)" fill="#7a4f00"/>
          <path id="Trazado_874368" data-name="Trazado 874368" d="M2.889,100.676a2.918,2.918,0,1,1,.085-5.835,2.918,2.918,0,1,1-.085,5.835" transform="translate(0 -81.75)" fill="#7a4f00"/>
          <path id="Trazado_874369" data-name="Trazado 874369" d="M245.531,99.776a2.923,2.923,0,1,1,2.924-2.928,2.916,2.916,0,0,1-2.924,2.928" transform="translate(-209.106 -80.964)" fill="#7a4f00"/>
          <path id="Trazado_874370" data-name="Trazado 874370" d="M127.221,2.915a2.912,2.912,0,1,1-5.823-.031,2.912,2.912,0,0,1,5.823.031" transform="translate(-104.641 0)" fill="#7a4f00"/>
        </g>
      </g>
      <g id="Grupo_1100478" data-name="Grupo 1100478" transform="translate(389.793 8769.227)">
        <g id="Grupo_1100459" data-name="Grupo 1100459" transform="translate(0)" clip-path="url(#clip-path-4)">
          <path id="Trazado_874371" data-name="Trazado 874371" d="M20.849,30.491a14.654,14.654,0,0,1-7.332-1.823c-.336-.185-.5-.144-.716.165-1.272,1.809-2.525,3.634-3.859,5.395A4.934,4.934,0,0,1,.407,33.117,5.069,5.069,0,0,1,2,27.1c1.726-1.3,3.475-2.577,5.23-3.841.345-.249.38-.423.177-.81A15.28,15.28,0,0,1,18.159.22,15.005,15.005,0,0,1,35.442,12.713,15.063,15.063,0,0,1,20.849,30.491M10.713,15.229A10.032,10.032,0,0,0,20.6,25.34,10.121,10.121,0,0,0,20.718,5.1a10.1,10.1,0,0,0-10,10.129" transform="translate(0 0)" fill="#7a4f00"/>
          <path id="Trazado_874372" data-name="Trazado 874372" d="M132.5,71.842a1.009,1.009,0,0,1-.452.861.585.585,0,0,0-.159.768c.205.575.432.905,1.118.832.5-.054.821.312.851.843.026.451.023.9.015,1.356-.013.835-.294,1.119-1.106,1.145-.284.009-.606-.084-.688.358-.079.427-.567.794.011,1.281.62.522.574.992,0,1.585-.272.283-.545.566-.827.838a.9.9,0,0,1-1.456,0c-.159-.147-.277-.446-.51-.385a5.122,5.122,0,0,0-1.07.458c-.144.076-.069.277-.073.421-.027,1.008-.272,1.253-1.272,1.255-.315,0-.631,0-.946,0-.766-.009-1.081-.312-1.1-1.1-.006-.354.01-.656-.438-.774-.424-.113-.775-.453-1.211.081-.489.6-.951.547-1.518-.012q-.4-.393-.787-.8a.954.954,0,0,1-.017-1.559c.191-.207.508-.364.27-.745s-.184-1-.953-.925-1.059-.321-1.067-1.1q-.006-.565,0-1.131c.008-.78.314-1.1,1.075-1.111.306-.006.632.08.733-.384.094-.435.521-.809-.037-1.283-.594-.5-.552-.973-.01-1.541.284-.3.57-.594.867-.878a.909.909,0,0,1,1.42,0c.21.184.336.6.76.34s1.039-.234.935-1.059c-.084-.67.3-.972.994-1,.426-.015.854-.016,1.28,0,.706.026.991.338,1.018,1.057.011.292-.133.654.341.755.438.093.818.592,1.307-.029.463-.588.951-.546,1.481-.032.309.3.6.611.9.923a.89.89,0,0,1,.311.7m-6,7.321a3.181,3.181,0,0,0,3.168-3.184,3.263,3.263,0,0,0-3.19-3.251A3.2,3.2,0,0,0,123.341,76a3.136,3.136,0,0,0,3.164,3.164" transform="translate(-105.852 -60.713)" fill="#7a4f00"/>
        </g>
      </g>
      <circle id="Elipse_11566" data-name="Elipse 11566" cx="28.5" cy="28.5" r="28.5" transform="translate(605 8702)" fill="#ffe7ba"/>
      <circle id="Elipse_11569" data-name="Elipse 11569" cx="28.5" cy="28.5" r="28.5" transform="translate(323 8702)" fill="#ffe7ba"/>
      <circle id="Elipse_11567" data-name="Elipse 11567" cx="28.5" cy="28.5" r="28.5" transform="translate(605 8984)" fill="#ffe7ba"/>
      <circle id="Elipse_11568" data-name="Elipse 11568" cx="28.5" cy="28.5" r="28.5" transform="translate(323 8985)" fill="#ffe7ba"/>
      <path id="Trazado_875530" data-name="Trazado 875530" d="M7.04,17H4.5V7.209l-3.032.94V6.084l5.3-1.9H7.04Z" transform="translate(629 8720)" fill="#12263f"/>
      <path id="Trazado_875529" data-name="Trazado 875529" d="M8.385,12.184h1.45v2.048H8.385V17H5.845V14.231H.6l-.114-1.6L5.818,4.2H8.385Zm-5.37,0h2.83V7.666l-.167.29Z" transform="translate(347 8720)" fill="#12263f"/>
      <path id="Trazado_875531" data-name="Trazado 875531" d="M9.642,17H.87V15.26l4.14-4.412A10.213,10.213,0,0,0,6.271,9.222,2.612,2.612,0,0,0,6.68,7.9a1.955,1.955,0,0,0-.431-1.34,1.555,1.555,0,0,0-1.23-.488,1.677,1.677,0,0,0-1.358.593,2.35,2.35,0,0,0-.5,1.56H.615a4.2,4.2,0,0,1,.558-2.136A3.934,3.934,0,0,1,2.751,4.577a4.8,4.8,0,0,1,2.312-.549,4.54,4.54,0,0,1,3.072.949A3.358,3.358,0,0,1,9.229,7.657a4.3,4.3,0,0,1-.492,1.934,10.745,10.745,0,0,1-1.687,2.294L4.14,14.952h5.5Z" transform="translate(629 9002)" fill="#12263f"/>
      <path id="Trazado_875532" data-name="Trazado 875532" d="M3.454,9.477H4.808A1.907,1.907,0,0,0,6.24,8.993,1.771,1.771,0,0,0,6.706,7.71a1.566,1.566,0,0,0-.461-1.2,1.788,1.788,0,0,0-1.27-.431,1.874,1.874,0,0,0-1.222.4,1.279,1.279,0,0,0-.492,1.042H.721a3.124,3.124,0,0,1,.541-1.8A3.6,3.6,0,0,1,2.773,4.476a5.045,5.045,0,0,1,2.14-.448A4.785,4.785,0,0,1,8.095,5,3.314,3.314,0,0,1,9.246,7.675,2.693,2.693,0,0,1,8.71,9.292,3.483,3.483,0,0,1,7.3,10.426a3.18,3.18,0,0,1,1.613,1.16,3.147,3.147,0,0,1,.532,1.828A3.369,3.369,0,0,1,8.2,16.147a5,5,0,0,1-3.292,1.028A4.741,4.741,0,0,1,1.78,16.165,3.3,3.3,0,0,1,.563,13.493H3.1a1.472,1.472,0,0,0,.541,1.178,1.992,1.992,0,0,0,1.332.457,2,2,0,0,0,1.419-.479,1.654,1.654,0,0,0,.514-1.27q0-1.916-2.109-1.916H3.454Z" transform="translate(347 9003)" fill="#12263f"/>
    </g>
  </g>
</svg>
