<svg xmlns="http://www.w3.org/2000/svg" xmlns:xlink="http://www.w3.org/1999/xlink" width="1030" height="488" viewBox="0 0 1030 488">
  <defs>
    <clipPath id="clip-path">
      <rect id="Rectángulo_402258" data-name="Rectángulo 402258" width="46.222" height="39.994" fill="#7a4f00"/>
    </clipPath>
    <clipPath id="clip-path-2">
      <rect id="Rectángulo_402259" data-name="Rectángulo 402259" width="55.321" height="54.478" fill="#7a4f00"/>
    </clipPath>
    <clipPath id="clip-path-3">
      <rect id="Rectángulo_402260" data-name="Rectángulo 402260" width="49.904" height="41.338" fill="#7a4f00"/>
    </clipPath>
    <clipPath id="clip-path-4">
      <rect id="Rectángulo_402261" data-name="Rectángulo 402261" width="45.217" height="45.93" fill="#7a4f00"/>
    </clipPath>
  </defs>
  <g id="img15" transform="translate(-285 -7718)">
    <path id="Trazado_875079" data-name="Trazado 875079" d="M0,0H1030V488H0Z" transform="translate(285 7718)" fill="#fef7eb"/>
    <g id="Grupo_1100441" data-name="Grupo 1100441" transform="translate(462.014 7756.001)">
      <g id="Grupo_1100442" data-name="Grupo 1100442" transform="translate(137.986 5.999)">
        <path id="Trazado_874340" data-name="Trazado 874340" d="M230.379,6a92.393,92.393,0,1,0,0,184.787h92.393V98.392A92.5,92.5,0,0,0,230.379,6M284.547,152.56H230.379a54.167,54.167,0,1,1,54.167-54.167Z" transform="translate(-137.986 -5.999)" fill="#ffb937"/>
        <path id="Trazado_874341" data-name="Trazado 874341" d="M480.414,98.393a92.393,92.393,0,1,0-184.787,0v92.393H388.02a92.5,92.5,0,0,0,92.393-92.393m-146.561,0a54.167,54.167,0,1,1,54.167,54.167H333.853Z" transform="translate(-80.414 -5.999)" fill="#ffce73"/>
        <path id="Trazado_874342" data-name="Trazado 874342" d="M137.986,256.032a92.393,92.393,0,1,0,184.787,0V163.639H230.379a92.5,92.5,0,0,0-92.393,92.393m146.561,0a54.167,54.167,0,1,1-54.167-54.167h54.167Z" transform="translate(-137.986 51.573)" fill="#ffce73"/>
        <path id="Trazado_874343" data-name="Trazado 874343" d="M388.019,163.639H295.626v92.393a92.393,92.393,0,1,0,92.393-92.393m0,146.561a54.229,54.229,0,0,1-54.168-54.168V201.865h54.168a54.167,54.167,0,0,1,0,108.335" transform="translate(-80.414 51.573)" fill="#ffb937"/>
        <path id="Trazado_874344" data-name="Trazado 874344" d="M216.385,48.294a36.105,36.105,0,1,0,36.1,36.1,36.1,36.1,0,0,0-36.1-36.1" transform="translate(-122.539 9.448)" fill="#ffb937"/>
        <path id="Trazado_874345" data-name="Trazado 874345" d="M408.162,84.4a36.105,36.105,0,1,0-36.1,36.1,36.1,36.1,0,0,0,36.1-36.1" transform="translate(-65.687 9.448)" fill="#ffce73"/>
        <path id="Trazado_874346" data-name="Trazado 874346" d="M180.28,240.975a36.105,36.105,0,1,0,36.1-36.1,36.1,36.1,0,0,0-36.1,36.1" transform="translate(-122.54 66.631)" fill="#ffce73"/>
        <path id="Trazado_874347" data-name="Trazado 874347" d="M372.057,204.87a36.105,36.105,0,1,0,36.1,36.1,36.1,36.1,0,0,0-36.1-36.1" transform="translate(-65.686 66.631)" fill="#ffb937"/>
      </g>
    </g>
    <rect id="Rectángulo_402254" data-name="Rectángulo 402254" width="240" height="91" rx="35" transform="translate(1041 7835)" fill="#feebcf"/>
    <rect id="Rectángulo_402256" data-name="Rectángulo 402256" width="240" height="91" rx="35" transform="translate(319 7835)" fill="#feebcf"/>
    <rect id="Rectángulo_402257" data-name="Rectángulo 402257" width="240" height="91" rx="35" transform="translate(319 7998)" fill="#feebcf"/>
    <rect id="Rectángulo_402255" data-name="Rectángulo 402255" width="240" height="91" rx="35" transform="translate(1041 7998)" fill="#feebcf"/>
    <path id="Trazado_875526" data-name="Trazado 875526" d="M5.492,10.4H2.82V15H1.313V3.625H5.078A4.457,4.457,0,0,1,8.035,4.5,3.148,3.148,0,0,1,9.07,7.047,3.062,3.062,0,0,1,8.5,8.9a3.428,3.428,0,0,1-1.6,1.18L9.57,14.906V15H7.961ZM2.82,9.172h2.3A2.6,2.6,0,0,0,6.9,8.593a1.959,1.959,0,0,0,.66-1.55,2.062,2.062,0,0,0-.629-1.62,2.663,2.663,0,0,0-1.816-.571H2.82Zm11.633,5.984a3.693,3.693,0,0,1-2.8-1.129,4.19,4.19,0,0,1-1.078-3.02v-.266a5.073,5.073,0,0,1,.48-2.246A3.748,3.748,0,0,1,12.4,6.949a3.378,3.378,0,0,1,1.871-.559,3.166,3.166,0,0,1,2.563,1.086,4.7,4.7,0,0,1,.914,3.109v.6H12.023a3,3,0,0,0,.73,2.02,2.3,2.3,0,0,0,1.777.77,2.517,2.517,0,0,0,1.3-.312,3.259,3.259,0,0,0,.93-.828l.883.688A3.55,3.55,0,0,1,14.453,15.156Zm-.18-7.578a1.928,1.928,0,0,0-1.469.637A3.1,3.1,0,0,0,12.07,10H16.3V9.891a2.753,2.753,0,0,0-.594-1.707A1.815,1.815,0,0,0,14.273,7.578ZM20.992,15H19.547V3h1.445Zm7.531,0a3.036,3.036,0,0,1-.2-.891,3.225,3.225,0,0,1-2.406,1.047,2.984,2.984,0,0,1-2.051-.707,2.287,2.287,0,0,1-.8-1.793,2.39,2.39,0,0,1,1-2.051,4.733,4.733,0,0,1,2.824-.73H28.3V9.211A1.623,1.623,0,0,0,27.844,8a1.821,1.821,0,0,0-1.336-.449,2.108,2.108,0,0,0-1.3.391,1.151,1.151,0,0,0-.523.945H23.234a2,2,0,0,1,.449-1.223A3.066,3.066,0,0,1,24.9,6.734a4.1,4.1,0,0,1,1.691-.344,3.342,3.342,0,0,1,2.289.73,2.635,2.635,0,0,1,.859,2.012v3.891a4.757,4.757,0,0,0,.3,1.852V15Zm-2.4-1.1a2.54,2.54,0,0,0,1.289-.352,2.127,2.127,0,0,0,.883-.914V10.9H27.164q-2.656,0-2.656,1.555a1.316,1.316,0,0,0,.453,1.063A1.742,1.742,0,0,0,26.125,13.9Zm9.273.078a2.082,2.082,0,0,0,1.352-.469,1.649,1.649,0,0,0,.641-1.172h1.367a2.621,2.621,0,0,1-.5,1.383,3.293,3.293,0,0,1-1.23,1.047,3.55,3.55,0,0,1-1.629.391A3.482,3.482,0,0,1,32.652,14a4.59,4.59,0,0,1-1.02-3.152v-.242a5.089,5.089,0,0,1,.453-2.2,3.451,3.451,0,0,1,1.3-1.492,3.7,3.7,0,0,1,2-.531,3.39,3.39,0,0,1,2.363.852,3.043,3.043,0,0,1,1,2.211H37.391a1.992,1.992,0,0,0-.621-1.348,1.932,1.932,0,0,0-1.379-.527,2.023,2.023,0,0,0-1.707.793,3.724,3.724,0,0,0-.605,2.293v.273a3.65,3.65,0,0,0,.6,2.25A2.033,2.033,0,0,0,35.4,13.977ZM41.953,15H40.508V6.547h1.445ZM40.391,4.3a.863.863,0,0,1,.215-.594.807.807,0,0,1,.637-.242.819.819,0,0,1,.641.242A.854.854,0,0,1,42.1,4.3a.826.826,0,0,1-.219.586.834.834,0,0,1-.641.234.821.821,0,0,1-.637-.234A.834.834,0,0,1,40.391,4.3ZM43.883,10.7a4.993,4.993,0,0,1,.488-2.234A3.643,3.643,0,0,1,45.73,6.93a3.7,3.7,0,0,1,1.988-.539,3.565,3.565,0,0,1,2.793,1.2,4.6,4.6,0,0,1,1.066,3.18v.1a5.036,5.036,0,0,1-.473,2.215,3.589,3.589,0,0,1-1.352,1.527,3.743,3.743,0,0,1-2.02.547,3.556,3.556,0,0,1-2.785-1.2A4.575,4.575,0,0,1,43.883,10.8Zm1.453.172a3.616,3.616,0,0,0,.652,2.258,2.211,2.211,0,0,0,3.5-.012,3.955,3.955,0,0,0,.648-2.418,3.61,3.61,0,0,0-.66-2.254,2.1,2.1,0,0,0-1.754-.863,2.075,2.075,0,0,0-1.727.852A3.925,3.925,0,0,0,45.336,10.867Zm9.422-4.32L54.8,7.609a3.08,3.08,0,0,1,2.531-1.219q2.68,0,2.7,3.023V15H58.594V9.406a1.946,1.946,0,0,0-.418-1.352A1.675,1.675,0,0,0,56.9,7.617a2.086,2.086,0,0,0-1.234.375,2.546,2.546,0,0,0-.828.984V15H53.391V6.547Zm10.969,8.609a3.693,3.693,0,0,1-2.8-1.129,4.19,4.19,0,0,1-1.078-3.02v-.266a5.073,5.073,0,0,1,.48-2.246,3.748,3.748,0,0,1,1.344-1.547,3.378,3.378,0,0,1,1.871-.559,3.166,3.166,0,0,1,2.563,1.086,4.7,4.7,0,0,1,.914,3.109v.6H63.3a3,3,0,0,0,.73,2.02,2.3,2.3,0,0,0,1.777.77,2.517,2.517,0,0,0,1.3-.312,3.259,3.259,0,0,0,.93-.828l.883.688A3.55,3.55,0,0,1,65.727,15.156Zm-.18-7.578a1.928,1.928,0,0,0-1.469.637A3.1,3.1,0,0,0,63.344,10h4.234V9.891a2.753,2.753,0,0,0-.594-1.707A1.815,1.815,0,0,0,65.547,7.578Zm10.07,5.18a1.064,1.064,0,0,0-.441-.91,4.249,4.249,0,0,0-1.539-.559,7.277,7.277,0,0,1-1.742-.562,2.479,2.479,0,0,1-.953-.781,1.869,1.869,0,0,1-.309-1.078,2.193,2.193,0,0,1,.879-1.758,3.432,3.432,0,0,1,2.246-.719,3.532,3.532,0,0,1,2.332.742,2.357,2.357,0,0,1,.895,1.9H75.531a1.3,1.3,0,0,0-.5-1.023,1.888,1.888,0,0,0-1.27-.43,1.976,1.976,0,0,0-1.234.344,1.082,1.082,0,0,0-.445.9.877.877,0,0,0,.414.789,5.1,5.1,0,0,0,1.5.508,7.8,7.8,0,0,1,1.754.578,2.558,2.558,0,0,1,1,.809,1.988,1.988,0,0,1,.324,1.152,2.163,2.163,0,0,1-.906,1.816,3.8,3.8,0,0,1-2.352.684,4.257,4.257,0,0,1-1.8-.359,2.922,2.922,0,0,1-1.223-1,2.42,2.42,0,0,1-.441-1.395h1.445a1.5,1.5,0,0,0,.582,1.152,2.258,2.258,0,0,0,1.434.426,2.331,2.331,0,0,0,1.316-.332A1.02,1.02,0,0,0,75.617,12.758ZM88.125,15a3.036,3.036,0,0,1-.2-.891,3.225,3.225,0,0,1-2.406,1.047,2.984,2.984,0,0,1-2.051-.707,2.288,2.288,0,0,1-.8-1.793,2.39,2.39,0,0,1,1-2.051,4.733,4.733,0,0,1,2.824-.73H87.9V9.211A1.623,1.623,0,0,0,87.445,8a1.821,1.821,0,0,0-1.336-.449,2.108,2.108,0,0,0-1.3.391,1.151,1.151,0,0,0-.523.945H82.836a2,2,0,0,1,.449-1.223A3.066,3.066,0,0,1,84.5,6.734,4.1,4.1,0,0,1,86.2,6.391a3.342,3.342,0,0,1,2.289.73,2.635,2.635,0,0,1,.859,2.012v3.891a4.757,4.757,0,0,0,.3,1.852V15Zm-2.4-1.1a2.54,2.54,0,0,0,1.289-.352,2.127,2.127,0,0,0,.883-.914V10.9H86.766q-2.656,0-2.656,1.555a1.316,1.316,0,0,0,.453,1.063A1.742,1.742,0,0,0,85.727,13.9Zm10.8-1.141a1.064,1.064,0,0,0-.441-.91,4.249,4.249,0,0,0-1.539-.559,7.277,7.277,0,0,1-1.742-.562,2.479,2.479,0,0,1-.953-.781,1.869,1.869,0,0,1-.309-1.078,2.193,2.193,0,0,1,.879-1.758,3.432,3.432,0,0,1,2.246-.719A3.532,3.532,0,0,1,97,7.133a2.357,2.357,0,0,1,.895,1.9H96.445a1.3,1.3,0,0,0-.5-1.023,1.888,1.888,0,0,0-1.27-.43,1.976,1.976,0,0,0-1.234.344,1.082,1.082,0,0,0-.445.9.877.877,0,0,0,.414.789,5.1,5.1,0,0,0,1.5.508,7.8,7.8,0,0,1,1.754.578,2.558,2.558,0,0,1,1,.809,1.988,1.988,0,0,1,.324,1.152,2.163,2.163,0,0,1-.906,1.816,3.8,3.8,0,0,1-2.352.684,4.257,4.257,0,0,1-1.8-.359,2.922,2.922,0,0,1-1.223-1,2.42,2.42,0,0,1-.441-1.395H92.7a1.5,1.5,0,0,0,.582,1.152,2.258,2.258,0,0,0,1.434.426,2.331,2.331,0,0,0,1.316-.332A1.02,1.02,0,0,0,96.531,12.758Zm6.836,2.4a3.693,3.693,0,0,1-2.8-1.129,4.19,4.19,0,0,1-1.078-3.02v-.266a5.073,5.073,0,0,1,.48-2.246,3.748,3.748,0,0,1,1.344-1.547,3.378,3.378,0,0,1,1.871-.559,3.166,3.166,0,0,1,2.563,1.086,4.7,4.7,0,0,1,.914,3.109v.6h-5.727a3,3,0,0,0,.73,2.02,2.3,2.3,0,0,0,1.777.77,2.517,2.517,0,0,0,1.3-.312,3.259,3.259,0,0,0,.93-.828l.883.688A3.55,3.55,0,0,1,103.367,15.156Zm-.18-7.578a1.928,1.928,0,0,0-1.469.637A3.1,3.1,0,0,0,100.984,10h4.234V9.891a2.753,2.753,0,0,0-.594-1.707A1.815,1.815,0,0,0,103.188,7.578Zm9.234.266a4.331,4.331,0,0,0-.711-.055A1.9,1.9,0,0,0,109.781,9v6h-1.445V6.547h1.406l.023.977a2.251,2.251,0,0,1,2.016-1.133,1.477,1.477,0,0,1,.641.109ZM116.1,4.5V6.547h1.578V7.664H116.1v5.249a1.173,1.173,0,0,0,.211.763.888.888,0,0,0,.719.254,3.5,3.5,0,0,0,.688-.094V15a4.215,4.215,0,0,1-1.109.155,1.8,1.8,0,0,1-1.461-.586,2.517,2.517,0,0,1-.492-1.664V7.664h-1.539V6.547h1.539V4.5ZM120.938,15h-1.445V6.547h1.445ZM119.375,4.3a.863.863,0,0,1,.215-.594.807.807,0,0,1,.637-.242.819.819,0,0,1,.641.242.854.854,0,0,1,.219.594.826.826,0,0,1-.219.586.834.834,0,0,1-.641.234.821.821,0,0,1-.637-.234A.834.834,0,0,1,119.375,4.3Zm6.664,8.734,2.094-6.492h1.477L126.578,15h-1.1l-3.062-8.453h1.477ZM136.1,15a3.036,3.036,0,0,1-.2-.891,3.225,3.225,0,0,1-2.406,1.047,2.984,2.984,0,0,1-2.051-.707,2.287,2.287,0,0,1-.8-1.793,2.39,2.39,0,0,1,1-2.051,4.733,4.733,0,0,1,2.824-.73h1.406V9.211A1.623,1.623,0,0,0,135.422,8a1.821,1.821,0,0,0-1.336-.449,2.107,2.107,0,0,0-1.3.391,1.151,1.151,0,0,0-.523.945h-1.453a2,2,0,0,1,.449-1.223,3.066,3.066,0,0,1,1.219-.934,4.1,4.1,0,0,1,1.691-.344,3.342,3.342,0,0,1,2.289.73,2.635,2.635,0,0,1,.859,2.012v3.891a4.757,4.757,0,0,0,.3,1.852V15Zm-2.4-1.1a2.54,2.54,0,0,0,1.289-.352,2.127,2.127,0,0,0,.883-.914V10.9h-1.133q-2.656,0-2.656,1.555a1.316,1.316,0,0,0,.453,1.063A1.742,1.742,0,0,0,133.7,13.9Zm10.8-1.141a1.064,1.064,0,0,0-.441-.91,4.249,4.249,0,0,0-1.539-.559,7.277,7.277,0,0,1-1.742-.562,2.479,2.479,0,0,1-.953-.781,1.869,1.869,0,0,1-.309-1.078,2.193,2.193,0,0,1,.879-1.758,3.432,3.432,0,0,1,2.246-.719,3.532,3.532,0,0,1,2.332.742,2.357,2.357,0,0,1,.895,1.9h-1.453a1.3,1.3,0,0,0-.5-1.023,1.888,1.888,0,0,0-1.27-.43,1.976,1.976,0,0,0-1.234.344,1.082,1.082,0,0,0-.445.9.877.877,0,0,0,.414.789,5.1,5.1,0,0,0,1.5.508,7.8,7.8,0,0,1,1.754.578,2.558,2.558,0,0,1,1,.809,1.988,1.988,0,0,1,.324,1.152,2.163,2.163,0,0,1-.906,1.816,3.8,3.8,0,0,1-2.352.684,4.257,4.257,0,0,1-1.8-.359,2.922,2.922,0,0,1-1.223-1,2.42,2.42,0,0,1-.441-1.395h1.445a1.5,1.5,0,0,0,.582,1.152,2.258,2.258,0,0,0,1.434.426,2.331,2.331,0,0,0,1.316-.332A1.02,1.02,0,0,0,144.508,12.758Zm10.055.125,1.969-6.336h1.547l-3.4,9.758q-.789,2.109-2.508,2.109l-.273-.023-.539-.1V17.117l.391.031a1.923,1.923,0,0,0,1.145-.3,2.148,2.148,0,0,0,.676-1.086l.32-.859-3.016-8.359h1.578ZM.742,34.7a4.952,4.952,0,0,1,.922-3.129,2.915,2.915,0,0,1,2.414-1.184A2.932,2.932,0,0,1,6.43,31.406V27H7.875V39H6.547l-.07-.906a2.943,2.943,0,0,1-2.414,1.063,2.887,2.887,0,0,1-2.395-1.2,5.008,5.008,0,0,1-.926-3.141Zm1.445.164a3.749,3.749,0,0,0,.594,2.25,1.92,1.92,0,0,0,1.641.813A2.108,2.108,0,0,0,6.43,36.7V32.813a2.125,2.125,0,0,0-1.992-1.2,1.929,1.929,0,0,0-1.656.82A4.128,4.128,0,0,0,2.188,34.867Zm11.438,4.289a3.693,3.693,0,0,1-2.8-1.129,4.19,4.19,0,0,1-1.078-3.02v-.266a5.073,5.073,0,0,1,.48-2.246,3.748,3.748,0,0,1,1.344-1.547,3.378,3.378,0,0,1,1.871-.559,3.166,3.166,0,0,1,2.563,1.086,4.7,4.7,0,0,1,.914,3.109v.6H11.2a3,3,0,0,0,.73,2.02,2.3,2.3,0,0,0,1.777.77,2.517,2.517,0,0,0,1.3-.312,3.258,3.258,0,0,0,.93-.828l.883.688A3.55,3.55,0,0,1,13.625,39.156Zm-.18-7.578a1.928,1.928,0,0,0-1.469.637A3.1,3.1,0,0,0,11.242,34h4.234v-.109a2.753,2.753,0,0,0-.594-1.707A1.815,1.815,0,0,0,13.445,31.578Zm12.5,6.4a2.082,2.082,0,0,0,1.352-.469,1.649,1.649,0,0,0,.641-1.172H29.3a2.621,2.621,0,0,1-.5,1.383,3.293,3.293,0,0,1-1.23,1.047,3.55,3.55,0,0,1-1.629.391A3.482,3.482,0,0,1,23.2,38a4.59,4.59,0,0,1-1.02-3.152v-.242a5.089,5.089,0,0,1,.453-2.2,3.451,3.451,0,0,1,1.3-1.492,3.7,3.7,0,0,1,2-.531,3.39,3.39,0,0,1,2.363.852,3.043,3.043,0,0,1,1,2.211H27.938a1.992,1.992,0,0,0-.621-1.348,1.932,1.932,0,0,0-1.379-.527,2.023,2.023,0,0,0-1.707.793,3.724,3.724,0,0,0-.605,2.293v.273a3.65,3.65,0,0,0,.6,2.25A2.033,2.033,0,0,0,25.945,37.977Zm4.6-3.281a4.993,4.993,0,0,1,.488-2.234,3.643,3.643,0,0,1,1.359-1.531,3.7,3.7,0,0,1,1.988-.539,3.565,3.565,0,0,1,2.793,1.2,4.6,4.6,0,0,1,1.066,3.18v.1a5.036,5.036,0,0,1-.473,2.215,3.589,3.589,0,0,1-1.352,1.527,3.743,3.743,0,0,1-2.02.547,3.556,3.556,0,0,1-2.785-1.2A4.575,4.575,0,0,1,30.547,34.8ZM32,34.867a3.616,3.616,0,0,0,.652,2.258,2.211,2.211,0,0,0,3.5-.012A3.955,3.955,0,0,0,36.8,34.7a3.61,3.61,0,0,0-.66-2.254,2.1,2.1,0,0,0-1.754-.863,2.075,2.075,0,0,0-1.727.852A3.925,3.925,0,0,0,32,34.867Zm9.422-4.32.047,1.063A3.08,3.08,0,0,1,44,30.391q2.68,0,2.7,3.023V39H45.258V33.406a1.946,1.946,0,0,0-.418-1.352,1.675,1.675,0,0,0-1.277-.437,2.086,2.086,0,0,0-1.234.375,2.546,2.546,0,0,0-.828.984V39H40.055V30.547ZM49.367,39V31.664H48.031V30.547h1.336v-.719a2.937,2.937,0,0,1,.809-2.2,3.136,3.136,0,0,1,2.285-.789,6.881,6.881,0,0,1,2.211.477l-.242,1.219a5.008,5.008,0,0,0-1.859-.391,1.819,1.819,0,0,0-1.34.418,1.723,1.723,0,0,0-.41,1.254v.734h1.727v1.117H50.82V39Zm6.023,0H53.938V30.547h1.453Zm7.57,0a3.036,3.036,0,0,1-.2-.891,3.225,3.225,0,0,1-2.406,1.047,2.984,2.984,0,0,1-2.051-.707,2.287,2.287,0,0,1-.8-1.793,2.39,2.39,0,0,1,1-2.051,4.733,4.733,0,0,1,2.824-.73h1.406v-.664A1.623,1.623,0,0,0,62.281,32a1.821,1.821,0,0,0-1.336-.449,2.107,2.107,0,0,0-1.3.391,1.151,1.151,0,0,0-.523.945H57.672a2,2,0,0,1,.449-1.223,3.066,3.066,0,0,1,1.219-.934,4.1,4.1,0,0,1,1.691-.344,3.342,3.342,0,0,1,2.289.73,2.635,2.635,0,0,1,.859,2.012v3.891a4.757,4.757,0,0,0,.3,1.852V39Zm-2.4-1.1a2.54,2.54,0,0,0,1.289-.352,2.127,2.127,0,0,0,.883-.914V34.9H61.6q-2.656,0-2.656,1.555a1.316,1.316,0,0,0,.453,1.063A1.742,1.742,0,0,0,60.563,37.9Zm7.25-7.352.047,1.063a3.08,3.08,0,0,1,2.531-1.219q2.68,0,2.7,3.023V39H71.648V33.406a1.946,1.946,0,0,0-.418-1.352,1.675,1.675,0,0,0-1.277-.437,2.086,2.086,0,0,0-1.234.375,2.546,2.546,0,0,0-.828.984V39H66.445V30.547Zm8.82,7.273h4.945V39H74.867V37.938l4.664-6.2H74.938v-1.2h6.406V31.57ZM88.422,39a3.036,3.036,0,0,1-.2-.891,3.225,3.225,0,0,1-2.406,1.047,2.984,2.984,0,0,1-2.051-.707,2.288,2.288,0,0,1-.8-1.793,2.39,2.39,0,0,1,1-2.051,4.733,4.733,0,0,1,2.824-.73H88.2v-.664A1.623,1.623,0,0,0,87.742,32a1.821,1.821,0,0,0-1.336-.449,2.108,2.108,0,0,0-1.3.391,1.151,1.151,0,0,0-.523.945H83.133a2,2,0,0,1,.449-1.223,3.066,3.066,0,0,1,1.219-.934,4.1,4.1,0,0,1,1.691-.344,3.342,3.342,0,0,1,2.289.73,2.635,2.635,0,0,1,.859,2.012v3.891a4.757,4.757,0,0,0,.3,1.852V39Zm-2.4-1.1a2.54,2.54,0,0,0,1.289-.352,2.127,2.127,0,0,0,.883-.914V34.9H87.063q-2.656,0-2.656,1.555a1.316,1.316,0,0,0,.453,1.063A1.742,1.742,0,0,0,86.023,37.9Zm13.234.078a2.082,2.082,0,0,0,1.352-.469,1.649,1.649,0,0,0,.641-1.172h1.367a2.621,2.621,0,0,1-.5,1.383,3.293,3.293,0,0,1-1.23,1.047,3.55,3.55,0,0,1-1.629.391A3.482,3.482,0,0,1,96.512,38a4.59,4.59,0,0,1-1.02-3.152v-.242a5.089,5.089,0,0,1,.453-2.2,3.451,3.451,0,0,1,1.3-1.492,3.7,3.7,0,0,1,2-.531,3.39,3.39,0,0,1,2.363.852,3.043,3.043,0,0,1,1,2.211H101.25a1.992,1.992,0,0,0-.621-1.348,1.932,1.932,0,0,0-1.379-.527,2.023,2.023,0,0,0-1.707.793,3.724,3.724,0,0,0-.605,2.293v.273a3.65,3.65,0,0,0,.6,2.25A2.033,2.033,0,0,0,99.258,37.977Zm4.6-3.281a4.993,4.993,0,0,1,.488-2.234,3.643,3.643,0,0,1,1.359-1.531,3.7,3.7,0,0,1,1.988-.539,3.565,3.565,0,0,1,2.793,1.2,4.6,4.6,0,0,1,1.066,3.18v.1a5.036,5.036,0,0,1-.473,2.215,3.589,3.589,0,0,1-1.352,1.527,3.743,3.743,0,0,1-2.02.547,3.556,3.556,0,0,1-2.785-1.2,4.575,4.575,0,0,1-1.066-3.164Zm1.453.172a3.616,3.616,0,0,0,.652,2.258,2.211,2.211,0,0,0,3.5-.012,3.955,3.955,0,0,0,.648-2.418,3.61,3.61,0,0,0-.66-2.254,2.1,2.1,0,0,0-1.754-.863,2.075,2.075,0,0,0-1.727.852A3.925,3.925,0,0,0,105.313,34.867Zm9.422-4.32.047,1.063a3.08,3.08,0,0,1,2.531-1.219q2.68,0,2.7,3.023V39H118.57V33.406a1.946,1.946,0,0,0-.418-1.352,1.675,1.675,0,0,0-1.277-.437,2.086,2.086,0,0,0-1.234.375,2.546,2.546,0,0,0-.828.984V39h-1.445V30.547ZM128.117,28.5v2.047H129.7v1.117h-1.578v5.249a1.173,1.173,0,0,0,.211.763.888.888,0,0,0,.719.254,3.5,3.5,0,0,0,.688-.094V39a4.215,4.215,0,0,1-1.109.155,1.8,1.8,0,0,1-1.461-.586,2.517,2.517,0,0,1-.492-1.664V31.664h-1.539V30.547h1.539V28.5Zm2.727,6.2a4.993,4.993,0,0,1,.488-2.234,3.642,3.642,0,0,1,1.359-1.531,3.7,3.7,0,0,1,1.988-.539,3.565,3.565,0,0,1,2.793,1.2,4.6,4.6,0,0,1,1.066,3.18v.1a5.036,5.036,0,0,1-.473,2.215,3.589,3.589,0,0,1-1.352,1.527,3.743,3.743,0,0,1-2.02.547,3.556,3.556,0,0,1-2.785-1.2,4.575,4.575,0,0,1-1.066-3.164Zm1.453.172a3.616,3.616,0,0,0,.652,2.258,2.211,2.211,0,0,0,3.5-.012,3.954,3.954,0,0,0,.648-2.418,3.61,3.61,0,0,0-.66-2.254,2.1,2.1,0,0,0-1.754-.863,2.075,2.075,0,0,0-1.727.852A3.925,3.925,0,0,0,132.3,34.867ZM140,34.7a4.952,4.952,0,0,1,.922-3.129,3.137,3.137,0,0,1,4.766-.168V27h1.445V39H145.8l-.07-.906a2.943,2.943,0,0,1-2.414,1.063,2.887,2.887,0,0,1-2.395-1.2A5.008,5.008,0,0,1,140,34.813Zm1.445.164a3.749,3.749,0,0,0,.594,2.25,1.919,1.919,0,0,0,1.641.813,2.108,2.108,0,0,0,2.008-1.234V32.813a2.125,2.125,0,0,0-1.992-1.2,1.929,1.929,0,0,0-1.656.82A4.128,4.128,0,0,0,141.445,34.867Zm7.547-.172a4.993,4.993,0,0,1,.488-2.234,3.642,3.642,0,0,1,1.359-1.531,3.7,3.7,0,0,1,1.988-.539,3.565,3.565,0,0,1,2.793,1.2,4.6,4.6,0,0,1,1.066,3.18v.1a5.036,5.036,0,0,1-.473,2.215,3.589,3.589,0,0,1-1.352,1.527,3.743,3.743,0,0,1-2.02.547,3.556,3.556,0,0,1-2.785-1.2,4.575,4.575,0,0,1-1.066-3.164Zm1.453.172a3.616,3.616,0,0,0,.652,2.258,2.211,2.211,0,0,0,3.5-.012,3.954,3.954,0,0,0,.648-2.418,3.61,3.61,0,0,0-.66-2.254,2.1,2.1,0,0,0-1.754-.863,2.075,2.075,0,0,0-1.727.852A3.925,3.925,0,0,0,150.445,34.867Zm12.977,1.891a1.064,1.064,0,0,0-.441-.91,4.249,4.249,0,0,0-1.539-.559,7.277,7.277,0,0,1-1.742-.562,2.479,2.479,0,0,1-.953-.781,1.869,1.869,0,0,1-.309-1.078,2.193,2.193,0,0,1,.879-1.758,3.432,3.432,0,0,1,2.246-.719,3.532,3.532,0,0,1,2.332.742,2.357,2.357,0,0,1,.895,1.9h-1.453a1.3,1.3,0,0,0-.5-1.023,1.888,1.888,0,0,0-1.27-.43,1.976,1.976,0,0,0-1.234.344,1.082,1.082,0,0,0-.445.9.877.877,0,0,0,.414.789,5.1,5.1,0,0,0,1.5.508,7.8,7.8,0,0,1,1.754.578,2.558,2.558,0,0,1,1,.809,1.988,1.988,0,0,1,.324,1.152,2.163,2.163,0,0,1-.906,1.816,3.8,3.8,0,0,1-2.352.684,4.257,4.257,0,0,1-1.8-.359,2.922,2.922,0,0,1-1.223-1,2.42,2.42,0,0,1-.441-1.395h1.445a1.5,1.5,0,0,0,.582,1.152,2.258,2.258,0,0,0,1.434.426,2.331,2.331,0,0,0,1.316-.332A1.02,1.02,0,0,0,163.422,36.758ZM2.664,63H1.219V51H2.664Zm1.93-4.3a4.993,4.993,0,0,1,.488-2.234A3.643,3.643,0,0,1,6.441,54.93a3.7,3.7,0,0,1,1.988-.539,3.565,3.565,0,0,1,2.793,1.2,4.6,4.6,0,0,1,1.066,3.18v.1a5.036,5.036,0,0,1-.473,2.215,3.589,3.589,0,0,1-1.352,1.527,3.743,3.743,0,0,1-2.02.547,3.556,3.556,0,0,1-2.785-1.2A4.575,4.575,0,0,1,4.594,58.8Zm1.453.172A3.616,3.616,0,0,0,6.7,61.125a2.088,2.088,0,0,0,1.746.852,2.075,2.075,0,0,0,1.75-.863,3.955,3.955,0,0,0,.648-2.418,3.61,3.61,0,0,0-.66-2.254,2.1,2.1,0,0,0-1.754-.863A2.075,2.075,0,0,0,6.7,56.43,3.925,3.925,0,0,0,6.047,58.867Zm12.977,1.891a1.064,1.064,0,0,0-.441-.91,4.249,4.249,0,0,0-1.539-.559,7.277,7.277,0,0,1-1.742-.562,2.479,2.479,0,0,1-.953-.781,1.869,1.869,0,0,1-.309-1.078,2.193,2.193,0,0,1,.879-1.758,3.432,3.432,0,0,1,2.246-.719,3.532,3.532,0,0,1,2.332.742,2.357,2.357,0,0,1,.895,1.9H18.938a1.3,1.3,0,0,0-.5-1.023,1.888,1.888,0,0,0-1.27-.43,1.976,1.976,0,0,0-1.234.344,1.082,1.082,0,0,0-.445.9.877.877,0,0,0,.414.789,5.1,5.1,0,0,0,1.5.508,7.8,7.8,0,0,1,1.754.578,2.558,2.558,0,0,1,1,.809,1.988,1.988,0,0,1,.324,1.152,2.163,2.163,0,0,1-.906,1.816,3.8,3.8,0,0,1-2.352.684,4.257,4.257,0,0,1-1.8-.359,2.922,2.922,0,0,1-1.223-1A2.42,2.42,0,0,1,13.75,60.4H15.2a1.5,1.5,0,0,0,.582,1.152,2.258,2.258,0,0,0,1.434.426,2.331,2.331,0,0,0,1.316-.332A1.02,1.02,0,0,0,19.023,60.758ZM31.531,63a3.036,3.036,0,0,1-.2-.891,3.225,3.225,0,0,1-2.406,1.047,2.984,2.984,0,0,1-2.051-.707,2.287,2.287,0,0,1-.8-1.793,2.39,2.39,0,0,1,1-2.051,4.733,4.733,0,0,1,2.824-.73H31.3v-.664A1.623,1.623,0,0,0,30.852,56a1.821,1.821,0,0,0-1.336-.449,2.107,2.107,0,0,0-1.3.391,1.151,1.151,0,0,0-.523.945H26.242a2,2,0,0,1,.449-1.223,3.066,3.066,0,0,1,1.219-.934,4.1,4.1,0,0,1,1.691-.344,3.342,3.342,0,0,1,2.289.73,2.635,2.635,0,0,1,.859,2.012v3.891a4.757,4.757,0,0,0,.3,1.852V63Zm-2.4-1.1a2.54,2.54,0,0,0,1.289-.352,2.127,2.127,0,0,0,.883-.914V58.9H30.172q-2.656,0-2.656,1.555a1.316,1.316,0,0,0,.453,1.063A1.742,1.742,0,0,0,29.133,61.9Zm9.273.078a2.082,2.082,0,0,0,1.352-.469,1.649,1.649,0,0,0,.641-1.172h1.367a2.621,2.621,0,0,1-.5,1.383,3.293,3.293,0,0,1-1.23,1.047,3.55,3.55,0,0,1-1.629.391A3.482,3.482,0,0,1,35.66,62a4.59,4.59,0,0,1-1.02-3.152v-.242a5.089,5.089,0,0,1,.453-2.2,3.451,3.451,0,0,1,1.3-1.492,3.7,3.7,0,0,1,2-.531,3.39,3.39,0,0,1,2.363.852,3.043,3.043,0,0,1,1,2.211H40.4a1.992,1.992,0,0,0-.621-1.348,1.932,1.932,0,0,0-1.379-.527,2.023,2.023,0,0,0-1.707.793,3.724,3.724,0,0,0-.605,2.293v.273a3.65,3.65,0,0,0,.6,2.25A2.033,2.033,0,0,0,38.406,61.977ZM45.352,52.5v2.047H46.93v1.117H45.352v5.249a1.173,1.173,0,0,0,.211.763.888.888,0,0,0,.719.254,3.5,3.5,0,0,0,.688-.094V63a4.215,4.215,0,0,1-1.109.155A1.8,1.8,0,0,1,44.4,62.57a2.517,2.517,0,0,1-.492-1.664V55.664H42.367V54.547h1.539V52.5Zm2.727,6.2a4.993,4.993,0,0,1,.488-2.234,3.643,3.643,0,0,1,1.359-1.531,3.7,3.7,0,0,1,1.988-.539,3.565,3.565,0,0,1,2.793,1.2,4.6,4.6,0,0,1,1.066,3.18v.1a5.036,5.036,0,0,1-.473,2.215,3.589,3.589,0,0,1-1.352,1.527,3.743,3.743,0,0,1-2.02.547,3.556,3.556,0,0,1-2.785-1.2A4.575,4.575,0,0,1,48.078,58.8Zm1.453.172a3.616,3.616,0,0,0,.652,2.258,2.211,2.211,0,0,0,3.5-.012,3.955,3.955,0,0,0,.648-2.418,3.61,3.61,0,0,0-.66-2.254,2.1,2.1,0,0,0-1.754-.863,2.075,2.075,0,0,0-1.727.852A3.925,3.925,0,0,0,49.531,58.867Zm12.141-3.023a4.331,4.331,0,0,0-.711-.055A1.9,1.9,0,0,0,59.031,57v6H57.586V54.547h1.406l.023.977a2.251,2.251,0,0,1,2.016-1.133,1.477,1.477,0,0,1,.641.109Zm4.688,7.313a3.693,3.693,0,0,1-2.8-1.129,4.19,4.19,0,0,1-1.078-3.02v-.266a5.073,5.073,0,0,1,.48-2.246,3.748,3.748,0,0,1,1.344-1.547,3.378,3.378,0,0,1,1.871-.559,3.166,3.166,0,0,1,2.563,1.086,4.7,4.7,0,0,1,.914,3.109v.6H63.93a3,3,0,0,0,.73,2.02,2.3,2.3,0,0,0,1.777.77,2.517,2.517,0,0,0,1.3-.312,3.259,3.259,0,0,0,.93-.828l.883.688A3.55,3.55,0,0,1,66.359,63.156Zm-.18-7.578a1.928,1.928,0,0,0-1.469.637A3.1,3.1,0,0,0,63.977,58h4.234v-.109a2.753,2.753,0,0,0-.594-1.707A1.815,1.815,0,0,0,66.18,55.578Zm10.07,5.18a1.064,1.064,0,0,0-.441-.91,4.249,4.249,0,0,0-1.539-.559,7.277,7.277,0,0,1-1.742-.562,2.479,2.479,0,0,1-.953-.781,1.869,1.869,0,0,1-.309-1.078,2.193,2.193,0,0,1,.879-1.758,3.432,3.432,0,0,1,2.246-.719,3.532,3.532,0,0,1,2.332.742,2.357,2.357,0,0,1,.895,1.9H76.164a1.3,1.3,0,0,0-.5-1.023,1.888,1.888,0,0,0-1.27-.43,1.976,1.976,0,0,0-1.234.344,1.082,1.082,0,0,0-.445.9.877.877,0,0,0,.414.789,5.1,5.1,0,0,0,1.5.508,7.8,7.8,0,0,1,1.754.578,2.558,2.558,0,0,1,1,.809,1.988,1.988,0,0,1,.324,1.152,2.163,2.163,0,0,1-.906,1.816,3.8,3.8,0,0,1-2.352.684,4.257,4.257,0,0,1-1.8-.359,2.922,2.922,0,0,1-1.223-1,2.42,2.42,0,0,1-.441-1.395h1.445A1.5,1.5,0,0,0,73,61.551a2.258,2.258,0,0,0,1.434.426,2.331,2.331,0,0,0,1.316-.332A1.02,1.02,0,0,0,76.25,60.758ZM85.109,63H83.664V51h1.445Zm1.93-4.3a4.993,4.993,0,0,1,.488-2.234,3.643,3.643,0,0,1,1.359-1.531,3.7,3.7,0,0,1,1.988-.539,3.565,3.565,0,0,1,2.793,1.2,4.6,4.6,0,0,1,1.066,3.18v.1a5.036,5.036,0,0,1-.473,2.215,3.589,3.589,0,0,1-1.352,1.527,3.743,3.743,0,0,1-2.02.547,3.556,3.556,0,0,1-2.785-1.2A4.575,4.575,0,0,1,87.039,58.8Zm1.453.172a3.616,3.616,0,0,0,.652,2.258,2.211,2.211,0,0,0,3.5-.012,3.955,3.955,0,0,0,.648-2.418,3.61,3.61,0,0,0-.66-2.254,2.1,2.1,0,0,0-1.754-.863,2.075,2.075,0,0,0-1.727.852A3.925,3.925,0,0,0,88.492,58.867Zm11.445,3.109a2.082,2.082,0,0,0,1.352-.469,1.649,1.649,0,0,0,.641-1.172H103.3a2.621,2.621,0,0,1-.5,1.383,3.293,3.293,0,0,1-1.23,1.047,3.55,3.55,0,0,1-1.629.391A3.482,3.482,0,0,1,97.191,62a4.59,4.59,0,0,1-1.02-3.152v-.242a5.089,5.089,0,0,1,.453-2.2,3.451,3.451,0,0,1,1.3-1.492,3.7,3.7,0,0,1,2-.531,3.39,3.39,0,0,1,2.363.852,3.043,3.043,0,0,1,1,2.211H101.93a1.992,1.992,0,0,0-.621-1.348,1.932,1.932,0,0,0-1.379-.527,2.023,2.023,0,0,0-1.707.793,3.724,3.724,0,0,0-.605,2.293v.273a3.65,3.65,0,0,0,.6,2.25A2.033,2.033,0,0,0,99.938,61.977ZM110.141,63a3.036,3.036,0,0,1-.2-.891,3.225,3.225,0,0,1-2.406,1.047,2.984,2.984,0,0,1-2.051-.707,2.288,2.288,0,0,1-.8-1.793,2.39,2.39,0,0,1,1-2.051,4.733,4.733,0,0,1,2.824-.73h1.406v-.664A1.623,1.623,0,0,0,109.461,56a1.821,1.821,0,0,0-1.336-.449,2.107,2.107,0,0,0-1.3.391,1.151,1.151,0,0,0-.523.945h-1.453a2,2,0,0,1,.449-1.223,3.066,3.066,0,0,1,1.219-.934,4.1,4.1,0,0,1,1.691-.344,3.342,3.342,0,0,1,2.289.73,2.635,2.635,0,0,1,.859,2.012v3.891a4.757,4.757,0,0,0,.3,1.852V63Zm-2.4-1.1a2.54,2.54,0,0,0,1.289-.352,2.127,2.127,0,0,0,.883-.914V58.9h-1.133q-2.656,0-2.656,1.555a1.316,1.316,0,0,0,.453,1.063A1.742,1.742,0,0,0,107.742,61.9ZM115.2,63H113.75V51H115.2Zm5.82.156a3.693,3.693,0,0,1-2.8-1.129,4.19,4.19,0,0,1-1.078-3.02v-.266a5.073,5.073,0,0,1,.48-2.246,3.748,3.748,0,0,1,1.344-1.547,3.378,3.378,0,0,1,1.871-.559,3.166,3.166,0,0,1,2.563,1.086,4.7,4.7,0,0,1,.914,3.109v.6h-5.727a3,3,0,0,0,.73,2.02,2.3,2.3,0,0,0,1.777.77,2.517,2.517,0,0,0,1.3-.312,3.259,3.259,0,0,0,.93-.828l.883.688A3.55,3.55,0,0,1,121.016,63.156Zm-.18-7.578a1.928,1.928,0,0,0-1.469.637A3.1,3.1,0,0,0,118.633,58h4.234v-.109a2.753,2.753,0,0,0-.594-1.707A1.815,1.815,0,0,0,120.836,55.578Zm10.07,5.18a1.064,1.064,0,0,0-.441-.91,4.249,4.249,0,0,0-1.539-.559,7.277,7.277,0,0,1-1.742-.562,2.479,2.479,0,0,1-.953-.781,1.869,1.869,0,0,1-.309-1.078,2.193,2.193,0,0,1,.879-1.758,3.432,3.432,0,0,1,2.246-.719,3.532,3.532,0,0,1,2.332.742,2.357,2.357,0,0,1,.895,1.9H130.82a1.3,1.3,0,0,0-.5-1.023,1.888,1.888,0,0,0-1.27-.43,1.976,1.976,0,0,0-1.234.344,1.082,1.082,0,0,0-.445.9.877.877,0,0,0,.414.789,5.1,5.1,0,0,0,1.5.508,7.8,7.8,0,0,1,1.754.578,2.558,2.558,0,0,1,1,.809,1.988,1.988,0,0,1,.324,1.152,2.163,2.163,0,0,1-.906,1.816,3.8,3.8,0,0,1-2.352.684,4.257,4.257,0,0,1-1.8-.359,2.922,2.922,0,0,1-1.223-1,2.42,2.42,0,0,1-.441-1.395h1.445a1.5,1.5,0,0,0,.582,1.152,2.258,2.258,0,0,0,1.434.426,2.331,2.331,0,0,0,1.316-.332A1.02,1.02,0,0,0,130.906,60.758Z" transform="translate(1087 7846)" fill="#12263f"/>
    <path id="Trazado_875521" data-name="Trazado 875521" d="M53.328,9.742H48.4v4.031h5.727V15H46.9V3.625h7.148V4.852H48.4V8.516h4.93Zm5.023,3.3,2.094-6.492h1.477L58.891,15h-1.1L54.727,6.547H56.2ZM68.414,15a3.036,3.036,0,0,1-.2-.891A3.225,3.225,0,0,1,65.8,15.156a2.984,2.984,0,0,1-2.051-.707,2.287,2.287,0,0,1-.8-1.793,2.39,2.39,0,0,1,1-2.051,4.733,4.733,0,0,1,2.824-.73h1.406V9.211A1.623,1.623,0,0,0,67.734,8,1.821,1.821,0,0,0,66.4,7.555a2.108,2.108,0,0,0-1.3.391,1.151,1.151,0,0,0-.523.945H63.125a2,2,0,0,1,.449-1.223,3.066,3.066,0,0,1,1.219-.934,4.1,4.1,0,0,1,1.691-.344,3.342,3.342,0,0,1,2.289.73,2.635,2.635,0,0,1,.859,2.012v3.891a4.757,4.757,0,0,0,.3,1.852V15Zm-2.4-1.1a2.54,2.54,0,0,0,1.289-.352,2.127,2.127,0,0,0,.883-.914V10.9H67.055q-2.656,0-2.656,1.555a1.316,1.316,0,0,0,.453,1.063A1.742,1.742,0,0,0,66.016,13.9ZM73.469,15H72.023V3h1.445ZM81,14.164a3.07,3.07,0,0,1-2.477.992,2.628,2.628,0,0,1-2.059-.785,3.4,3.4,0,0,1-.715-2.324v-5.5H77.2v5.461q0,1.922,1.563,1.922a2.163,2.163,0,0,0,2.2-1.234V6.547h1.445V15H81.031ZM89.82,15a3.036,3.036,0,0,1-.2-.891,3.225,3.225,0,0,1-2.406,1.047,2.984,2.984,0,0,1-2.051-.707,2.288,2.288,0,0,1-.8-1.793,2.39,2.39,0,0,1,1-2.051,4.733,4.733,0,0,1,2.824-.73h1.406V9.211A1.623,1.623,0,0,0,89.141,8,1.821,1.821,0,0,0,87.8,7.555a2.108,2.108,0,0,0-1.3.391,1.151,1.151,0,0,0-.523.945H84.531a2,2,0,0,1,.449-1.223A3.066,3.066,0,0,1,86.2,6.734a4.1,4.1,0,0,1,1.691-.344,3.342,3.342,0,0,1,2.289.73,2.635,2.635,0,0,1,.859,2.012v3.891a4.757,4.757,0,0,0,.3,1.852V15Zm-2.4-1.1a2.54,2.54,0,0,0,1.289-.352,2.127,2.127,0,0,0,.883-.914V10.9H88.461q-2.656,0-2.656,1.555a1.316,1.316,0,0,0,.453,1.063A1.742,1.742,0,0,0,87.422,13.9Zm9.273.078a2.082,2.082,0,0,0,1.352-.469,1.649,1.649,0,0,0,.641-1.172h1.367a2.621,2.621,0,0,1-.5,1.383,3.293,3.293,0,0,1-1.23,1.047,3.55,3.55,0,0,1-1.629.391A3.482,3.482,0,0,1,93.949,14a4.59,4.59,0,0,1-1.02-3.152v-.242a5.089,5.089,0,0,1,.453-2.2,3.451,3.451,0,0,1,1.3-1.492,3.7,3.7,0,0,1,2-.531,3.39,3.39,0,0,1,2.363.852,3.043,3.043,0,0,1,1,2.211H98.688a1.992,1.992,0,0,0-.621-1.348,1.932,1.932,0,0,0-1.379-.527,2.023,2.023,0,0,0-1.707.793,3.724,3.724,0,0,0-.605,2.293v.273a3.65,3.65,0,0,0,.6,2.25A2.033,2.033,0,0,0,96.7,13.977ZM103.25,15H101.8V6.547h1.445ZM101.688,4.3a.863.863,0,0,1,.215-.594.807.807,0,0,1,.637-.242.819.819,0,0,1,.641.242.854.854,0,0,1,.219.594.826.826,0,0,1-.219.586.834.834,0,0,1-.641.234.821.821,0,0,1-.637-.234A.834.834,0,0,1,101.688,4.3ZM105.18,10.7a4.993,4.993,0,0,1,.488-2.234,3.643,3.643,0,0,1,1.359-1.531,3.7,3.7,0,0,1,1.988-.539,3.565,3.565,0,0,1,2.793,1.2,4.6,4.6,0,0,1,1.066,3.18v.1a5.036,5.036,0,0,1-.473,2.215,3.589,3.589,0,0,1-1.352,1.527,3.743,3.743,0,0,1-2.02.547,3.556,3.556,0,0,1-2.785-1.2A4.575,4.575,0,0,1,105.18,10.8Zm1.453.172a3.616,3.616,0,0,0,.652,2.258,2.211,2.211,0,0,0,3.5-.012,3.955,3.955,0,0,0,.648-2.418,3.61,3.61,0,0,0-.66-2.254,2.1,2.1,0,0,0-1.754-.863,2.075,2.075,0,0,0-1.727.852A3.925,3.925,0,0,0,106.633,10.867ZM109.672,3h1.75l-2.094,2.3-1.164,0Zm6.383,3.547.047,1.063a3.08,3.08,0,0,1,2.531-1.219q2.68,0,2.7,3.023V15h-1.445V9.406a1.946,1.946,0,0,0-.418-1.352,1.675,1.675,0,0,0-1.277-.437,2.086,2.086,0,0,0-1.234.375,2.546,2.546,0,0,0-.828.984V15h-1.445V6.547ZM45.992,37.977a2.082,2.082,0,0,0,1.352-.469,1.649,1.649,0,0,0,.641-1.172h1.367a2.621,2.621,0,0,1-.5,1.383,3.293,3.293,0,0,1-1.23,1.047,3.55,3.55,0,0,1-1.629.391A3.482,3.482,0,0,1,43.246,38a4.59,4.59,0,0,1-1.02-3.152v-.242a5.089,5.089,0,0,1,.453-2.2,3.451,3.451,0,0,1,1.3-1.492,3.7,3.7,0,0,1,2-.531,3.39,3.39,0,0,1,2.363.852,3.043,3.043,0,0,1,1,2.211H47.984a1.992,1.992,0,0,0-.621-1.348,1.932,1.932,0,0,0-1.379-.527,2.023,2.023,0,0,0-1.707.793,3.724,3.724,0,0,0-.605,2.293v.273a3.65,3.65,0,0,0,.6,2.25A2.033,2.033,0,0,0,45.992,37.977Zm4.6-3.281a4.993,4.993,0,0,1,.488-2.234,3.643,3.643,0,0,1,1.359-1.531,3.7,3.7,0,0,1,1.988-.539,3.565,3.565,0,0,1,2.793,1.2,4.6,4.6,0,0,1,1.066,3.18v.1a5.036,5.036,0,0,1-.473,2.215,3.589,3.589,0,0,1-1.352,1.527,3.743,3.743,0,0,1-2.02.547,3.556,3.556,0,0,1-2.785-1.2A4.575,4.575,0,0,1,50.594,34.8Zm1.453.172a3.616,3.616,0,0,0,.652,2.258,2.211,2.211,0,0,0,3.5-.012,3.955,3.955,0,0,0,.648-2.418,3.61,3.61,0,0,0-.66-2.254,2.1,2.1,0,0,0-1.754-.863,2.075,2.075,0,0,0-1.727.852A3.925,3.925,0,0,0,52.047,34.867Zm9.414-4.32.039.938a3.122,3.122,0,0,1,2.508-1.094,2.417,2.417,0,0,1,2.414,1.359,3.2,3.2,0,0,1,1.1-.984,3.242,3.242,0,0,1,1.6-.375q2.781,0,2.828,2.945V39H70.5V33.422a1.941,1.941,0,0,0-.414-1.355,1.823,1.823,0,0,0-1.391-.449,1.916,1.916,0,0,0-1.336.48,1.949,1.949,0,0,0-.617,1.293V39H65.289V33.461a1.613,1.613,0,0,0-1.8-1.844,1.934,1.934,0,0,0-1.945,1.211V39H60.094V30.547Zm17.883,7.617a3.07,3.07,0,0,1-2.477.992,2.628,2.628,0,0,1-2.059-.785,3.4,3.4,0,0,1-.715-2.324v-5.5h1.445v5.461q0,1.922,1.563,1.922A2.163,2.163,0,0,0,79.3,36.7V30.547H80.75V39H79.375Zm4.969-7.617.047,1.063a3.08,3.08,0,0,1,2.531-1.219q2.68,0,2.7,3.023V39H88.148V33.406a1.946,1.946,0,0,0-.418-1.352,1.675,1.675,0,0,0-1.277-.437,2.086,2.086,0,0,0-1.234.375,2.546,2.546,0,0,0-.828.984V39H82.945V30.547ZM93.344,39H91.9V30.547h1.445ZM91.781,28.3A.863.863,0,0,1,92,27.711a.807.807,0,0,1,.637-.242.819.819,0,0,1,.641.242.854.854,0,0,1,.219.594.826.826,0,0,1-.219.586.834.834,0,0,1-.641.234A.821.821,0,0,1,92,28.891.834.834,0,0,1,91.781,28.3Zm5.836.2v2.047H99.2v1.117H97.617v5.249a1.173,1.173,0,0,0,.211.763.888.888,0,0,0,.719.254,3.5,3.5,0,0,0,.688-.094V39a4.215,4.215,0,0,1-1.109.155,1.8,1.8,0,0,1-1.461-.586,2.517,2.517,0,0,1-.492-1.664V31.664H94.633V30.547h1.539V28.5ZM106.1,39a3.036,3.036,0,0,1-.2-.891,3.225,3.225,0,0,1-2.406,1.047,2.984,2.984,0,0,1-2.051-.707,2.288,2.288,0,0,1-.8-1.793,2.39,2.39,0,0,1,1-2.051,4.733,4.733,0,0,1,2.824-.73h1.406v-.664A1.623,1.623,0,0,0,105.422,32a1.821,1.821,0,0,0-1.336-.449,2.108,2.108,0,0,0-1.3.391,1.151,1.151,0,0,0-.523.945h-1.453a2,2,0,0,1,.449-1.223,3.066,3.066,0,0,1,1.219-.934,4.1,4.1,0,0,1,1.691-.344,3.342,3.342,0,0,1,2.289.73,2.635,2.635,0,0,1,.859,2.012v3.891a4.757,4.757,0,0,0,.3,1.852V39Zm-2.4-1.1a2.54,2.54,0,0,0,1.289-.352,2.127,2.127,0,0,0,.883-.914V34.9h-1.133q-2.656,0-2.656,1.555a1.316,1.316,0,0,0,.453,1.063A1.742,1.742,0,0,0,103.7,37.9Zm9.969-6.055a4.331,4.331,0,0,0-.711-.055A1.9,1.9,0,0,0,111.031,33v6h-1.445V30.547h1.406l.023.977a2.251,2.251,0,0,1,2.016-1.133,1.477,1.477,0,0,1,.641.109ZM116.57,39h-1.445V30.547h1.445Zm-1.562-10.7a.863.863,0,0,1,.215-.594.807.807,0,0,1,.637-.242.819.819,0,0,1,.641.242.854.854,0,0,1,.219.594.826.826,0,0,1-.219.586.834.834,0,0,1-.641.234.821.821,0,0,1-.637-.234A.834.834,0,0,1,115.008,28.3ZM124.1,39a3.036,3.036,0,0,1-.2-.891,3.225,3.225,0,0,1-2.406,1.047,2.984,2.984,0,0,1-2.051-.707,2.288,2.288,0,0,1-.8-1.793,2.39,2.39,0,0,1,1-2.051,4.733,4.733,0,0,1,2.824-.73h1.406v-.664A1.623,1.623,0,0,0,123.422,32a1.821,1.821,0,0,0-1.336-.449,2.108,2.108,0,0,0-1.3.391,1.151,1.151,0,0,0-.523.945h-1.453a2,2,0,0,1,.449-1.223,3.066,3.066,0,0,1,1.219-.934,4.1,4.1,0,0,1,1.691-.344,3.342,3.342,0,0,1,2.289.73,2.635,2.635,0,0,1,.859,2.012v3.891a4.757,4.757,0,0,0,.3,1.852V39Zm-2.4-1.1a2.54,2.54,0,0,0,1.289-.352,2.127,2.127,0,0,0,.883-.914V34.9h-1.133q-2.656,0-2.656,1.555a1.316,1.316,0,0,0,.453,1.063A1.742,1.742,0,0,0,121.7,37.9Z" transform="translate(345 7858)" fill="#12263f"/>
    <path id="Trazado_875524" data-name="Trazado 875524" d="M36.723,10.547V15h-1.5V3.625h4.2a4.215,4.215,0,0,1,2.926.953A3.231,3.231,0,0,1,43.4,7.1a3.189,3.189,0,0,1-1.035,2.551,4.4,4.4,0,0,1-2.965.895Zm0-1.227h2.7a2.7,2.7,0,0,0,1.844-.567,2.075,2.075,0,0,0,.641-1.64,2.143,2.143,0,0,0-.641-1.628A2.525,2.525,0,0,0,39.5,4.852H36.723ZM49.176,7.844a4.331,4.331,0,0,0-.711-.055A1.9,1.9,0,0,0,46.535,9v6H45.09V6.547H46.5l.023.977a2.251,2.251,0,0,1,2.016-1.133,1.477,1.477,0,0,1,.641.109Zm.789,2.852a4.993,4.993,0,0,1,.488-2.234A3.643,3.643,0,0,1,51.813,6.93,3.7,3.7,0,0,1,53.8,6.391a3.565,3.565,0,0,1,2.793,1.2,4.6,4.6,0,0,1,1.066,3.18v.1a5.036,5.036,0,0,1-.473,2.215,3.589,3.589,0,0,1-1.352,1.527,3.743,3.743,0,0,1-2.02.547,3.556,3.556,0,0,1-2.785-1.2A4.575,4.575,0,0,1,49.965,10.8Zm1.453.172a3.616,3.616,0,0,0,.652,2.258,2.211,2.211,0,0,0,3.5-.012,3.955,3.955,0,0,0,.648-2.418,3.61,3.61,0,0,0-.66-2.254A2.1,2.1,0,0,0,53.8,7.578a2.075,2.075,0,0,0-1.727.852A3.925,3.925,0,0,0,51.418,10.867Zm7.711-.164a4.968,4.968,0,0,1,.914-3.145,3.151,3.151,0,0,1,4.836-.074l.07-.937h1.32V14.8a3.439,3.439,0,0,1-.973,2.586,3.589,3.589,0,0,1-2.613.945,4.348,4.348,0,0,1-1.789-.391,3.08,3.08,0,0,1-1.336-1.07l.75-.867a2.826,2.826,0,0,0,2.273,1.148,2.214,2.214,0,0,0,1.645-.594,2.269,2.269,0,0,0,.59-1.672v-.727a2.971,2.971,0,0,1-2.367,1,2.887,2.887,0,0,1-2.4-1.2A5.224,5.224,0,0,1,59.129,10.7Zm1.453.164a3.79,3.79,0,0,0,.586,2.246,1.9,1.9,0,0,0,1.641.816,2.117,2.117,0,0,0,2.008-1.242V8.828a2.142,2.142,0,0,0-1.992-1.211,1.921,1.921,0,0,0-1.648.82A4.128,4.128,0,0,0,60.582,10.867ZM72.535,7.844a4.331,4.331,0,0,0-.711-.055A1.9,1.9,0,0,0,69.895,9v6H68.449V6.547h1.406l.023.977a2.251,2.251,0,0,1,2.016-1.133,1.477,1.477,0,0,1,.641.109ZM78.77,15a3.036,3.036,0,0,1-.2-.891,3.225,3.225,0,0,1-2.406,1.047,2.984,2.984,0,0,1-2.051-.707,2.288,2.288,0,0,1-.8-1.793,2.39,2.39,0,0,1,1-2.051,4.733,4.733,0,0,1,2.824-.73h1.406V9.211A1.623,1.623,0,0,0,78.09,8a1.821,1.821,0,0,0-1.336-.449,2.108,2.108,0,0,0-1.3.391,1.151,1.151,0,0,0-.523.945H73.48a2,2,0,0,1,.449-1.223,3.066,3.066,0,0,1,1.219-.934,4.1,4.1,0,0,1,1.691-.344,3.342,3.342,0,0,1,2.289.73,2.635,2.635,0,0,1,.859,2.012v3.891a4.757,4.757,0,0,0,.3,1.852V15Zm-2.4-1.1a2.54,2.54,0,0,0,1.289-.352,2.127,2.127,0,0,0,.883-.914V10.9H77.41q-2.656,0-2.656,1.555a1.316,1.316,0,0,0,.453,1.063A1.742,1.742,0,0,0,76.371,13.9Zm7.242-7.352.039.938A3.122,3.122,0,0,1,86.16,6.391,2.417,2.417,0,0,1,88.574,7.75a3.2,3.2,0,0,1,1.1-.984,3.242,3.242,0,0,1,1.6-.375q2.781,0,2.828,2.945V15H92.652V9.422a1.941,1.941,0,0,0-.414-1.355,1.823,1.823,0,0,0-1.391-.449,1.916,1.916,0,0,0-1.336.48,1.949,1.949,0,0,0-.617,1.293V15H87.441V9.461a1.613,1.613,0,0,0-1.8-1.844,1.934,1.934,0,0,0-1.945,1.211V15H82.246V6.547ZM101.5,15a3.036,3.036,0,0,1-.2-.891,3.225,3.225,0,0,1-2.406,1.047,2.984,2.984,0,0,1-2.051-.707,2.288,2.288,0,0,1-.8-1.793,2.39,2.39,0,0,1,1-2.051,4.733,4.733,0,0,1,2.824-.73h1.406V9.211A1.623,1.623,0,0,0,100.816,8a1.821,1.821,0,0,0-1.336-.449,2.108,2.108,0,0,0-1.3.391,1.151,1.151,0,0,0-.523.945H96.207a2,2,0,0,1,.449-1.223,3.066,3.066,0,0,1,1.219-.934,4.1,4.1,0,0,1,1.691-.344,3.342,3.342,0,0,1,2.289.73,2.635,2.635,0,0,1,.859,2.012v3.891a4.757,4.757,0,0,0,.3,1.852V15Zm-2.4-1.1a2.54,2.54,0,0,0,1.289-.352,2.127,2.127,0,0,0,.883-.914V10.9h-1.133q-2.656,0-2.656,1.555a1.316,1.316,0,0,0,.453,1.063A1.742,1.742,0,0,0,99.1,13.9Zm9.273.078a2.082,2.082,0,0,0,1.352-.469,1.649,1.649,0,0,0,.641-1.172h1.367a2.621,2.621,0,0,1-.5,1.383A3.293,3.293,0,0,1,110,14.766a3.55,3.55,0,0,1-1.629.391A3.482,3.482,0,0,1,105.625,14a4.59,4.59,0,0,1-1.02-3.152v-.242a5.089,5.089,0,0,1,.453-2.2,3.451,3.451,0,0,1,1.3-1.492,3.7,3.7,0,0,1,2-.531,3.39,3.39,0,0,1,2.363.852,3.043,3.043,0,0,1,1,2.211h-1.367a1.992,1.992,0,0,0-.621-1.348,1.932,1.932,0,0,0-1.379-.527,2.023,2.023,0,0,0-1.707.793,3.724,3.724,0,0,0-.605,2.293v.273a3.65,3.65,0,0,0,.6,2.25A2.033,2.033,0,0,0,108.371,13.977ZM114.926,15H113.48V6.547h1.445ZM113.363,4.3a.863.863,0,0,1,.215-.594.807.807,0,0,1,.637-.242.819.819,0,0,1,.641.242.854.854,0,0,1,.219.594.826.826,0,0,1-.219.586.834.834,0,0,1-.641.234.821.821,0,0,1-.637-.234A.834.834,0,0,1,113.363,4.3Zm3.492,6.391a4.993,4.993,0,0,1,.488-2.234A3.643,3.643,0,0,1,118.7,6.93a3.7,3.7,0,0,1,1.988-.539,3.565,3.565,0,0,1,2.793,1.2,4.6,4.6,0,0,1,1.066,3.18v.1a5.036,5.036,0,0,1-.473,2.215,3.589,3.589,0,0,1-1.352,1.527,3.743,3.743,0,0,1-2.02.547,3.556,3.556,0,0,1-2.785-1.2,4.575,4.575,0,0,1-1.066-3.164Zm1.453.172a3.616,3.616,0,0,0,.652,2.258,2.211,2.211,0,0,0,3.5-.012,3.955,3.955,0,0,0,.648-2.418,3.61,3.61,0,0,0-.66-2.254,2.1,2.1,0,0,0-1.754-.863,2.075,2.075,0,0,0-1.727.852A3.925,3.925,0,0,0,118.309,10.867ZM121.348,3h1.75L121,5.3l-1.164,0Zm6.383,3.547.047,1.063a3.08,3.08,0,0,1,2.531-1.219q2.68,0,2.7,3.023V15h-1.445V9.406a1.946,1.946,0,0,0-.418-1.352,1.675,1.675,0,0,0-1.277-.437,2.086,2.086,0,0,0-1.234.375,2.546,2.546,0,0,0-.828.984V15h-1.445V6.547ZM45.992,37.977a2.082,2.082,0,0,0,1.352-.469,1.649,1.649,0,0,0,.641-1.172h1.367a2.621,2.621,0,0,1-.5,1.383,3.293,3.293,0,0,1-1.23,1.047,3.55,3.55,0,0,1-1.629.391A3.482,3.482,0,0,1,43.246,38a4.59,4.59,0,0,1-1.02-3.152v-.242a5.089,5.089,0,0,1,.453-2.2,3.451,3.451,0,0,1,1.3-1.492,3.7,3.7,0,0,1,2-.531,3.39,3.39,0,0,1,2.363.852,3.043,3.043,0,0,1,1,2.211H47.984a1.992,1.992,0,0,0-.621-1.348,1.932,1.932,0,0,0-1.379-.527,2.023,2.023,0,0,0-1.707.793,3.724,3.724,0,0,0-.605,2.293v.273a3.65,3.65,0,0,0,.6,2.25A2.033,2.033,0,0,0,45.992,37.977Zm4.6-3.281a4.993,4.993,0,0,1,.488-2.234,3.643,3.643,0,0,1,1.359-1.531,3.7,3.7,0,0,1,1.988-.539,3.565,3.565,0,0,1,2.793,1.2,4.6,4.6,0,0,1,1.066,3.18v.1a5.036,5.036,0,0,1-.473,2.215,3.589,3.589,0,0,1-1.352,1.527,3.743,3.743,0,0,1-2.02.547,3.556,3.556,0,0,1-2.785-1.2A4.575,4.575,0,0,1,50.594,34.8Zm1.453.172a3.616,3.616,0,0,0,.652,2.258,2.211,2.211,0,0,0,3.5-.012,3.955,3.955,0,0,0,.648-2.418,3.61,3.61,0,0,0-.66-2.254,2.1,2.1,0,0,0-1.754-.863,2.075,2.075,0,0,0-1.727.852A3.925,3.925,0,0,0,52.047,34.867Zm9.414-4.32.039.938a3.122,3.122,0,0,1,2.508-1.094,2.417,2.417,0,0,1,2.414,1.359,3.2,3.2,0,0,1,1.1-.984,3.242,3.242,0,0,1,1.6-.375q2.781,0,2.828,2.945V39H70.5V33.422a1.941,1.941,0,0,0-.414-1.355,1.823,1.823,0,0,0-1.391-.449,1.916,1.916,0,0,0-1.336.48,1.949,1.949,0,0,0-.617,1.293V39H65.289V33.461a1.613,1.613,0,0,0-1.8-1.844,1.934,1.934,0,0,0-1.945,1.211V39H60.094V30.547Zm17.883,7.617a3.07,3.07,0,0,1-2.477.992,2.628,2.628,0,0,1-2.059-.785,3.4,3.4,0,0,1-.715-2.324v-5.5h1.445v5.461q0,1.922,1.563,1.922A2.163,2.163,0,0,0,79.3,36.7V30.547H80.75V39H79.375Zm4.969-7.617.047,1.063a3.08,3.08,0,0,1,2.531-1.219q2.68,0,2.7,3.023V39H88.148V33.406a1.946,1.946,0,0,0-.418-1.352,1.675,1.675,0,0,0-1.277-.437,2.086,2.086,0,0,0-1.234.375,2.546,2.546,0,0,0-.828.984V39H82.945V30.547ZM93.344,39H91.9V30.547h1.445ZM91.781,28.3A.863.863,0,0,1,92,27.711a.807.807,0,0,1,.637-.242.819.819,0,0,1,.641.242.854.854,0,0,1,.219.594.826.826,0,0,1-.219.586.834.834,0,0,1-.641.234A.821.821,0,0,1,92,28.891.834.834,0,0,1,91.781,28.3Zm5.836.2v2.047H99.2v1.117H97.617v5.249a1.173,1.173,0,0,0,.211.763.888.888,0,0,0,.719.254,3.5,3.5,0,0,0,.688-.094V39a4.215,4.215,0,0,1-1.109.155,1.8,1.8,0,0,1-1.461-.586,2.517,2.517,0,0,1-.492-1.664V31.664H94.633V30.547h1.539V28.5ZM106.1,39a3.036,3.036,0,0,1-.2-.891,3.225,3.225,0,0,1-2.406,1.047,2.984,2.984,0,0,1-2.051-.707,2.288,2.288,0,0,1-.8-1.793,2.39,2.39,0,0,1,1-2.051,4.733,4.733,0,0,1,2.824-.73h1.406v-.664A1.623,1.623,0,0,0,105.422,32a1.821,1.821,0,0,0-1.336-.449,2.108,2.108,0,0,0-1.3.391,1.151,1.151,0,0,0-.523.945h-1.453a2,2,0,0,1,.449-1.223,3.066,3.066,0,0,1,1.219-.934,4.1,4.1,0,0,1,1.691-.344,3.342,3.342,0,0,1,2.289.73,2.635,2.635,0,0,1,.859,2.012v3.891a4.757,4.757,0,0,0,.3,1.852V39Zm-2.4-1.1a2.54,2.54,0,0,0,1.289-.352,2.127,2.127,0,0,0,.883-.914V34.9h-1.133q-2.656,0-2.656,1.555a1.316,1.316,0,0,0,.453,1.063A1.742,1.742,0,0,0,103.7,37.9Zm9.969-6.055a4.331,4.331,0,0,0-.711-.055A1.9,1.9,0,0,0,111.031,33v6h-1.445V30.547h1.406l.023.977a2.251,2.251,0,0,1,2.016-1.133,1.477,1.477,0,0,1,.641.109ZM116.57,39h-1.445V30.547h1.445Zm-1.562-10.7a.863.863,0,0,1,.215-.594.807.807,0,0,1,.637-.242.819.819,0,0,1,.641.242.854.854,0,0,1,.219.594.826.826,0,0,1-.219.586.834.834,0,0,1-.641.234.821.821,0,0,1-.637-.234A.834.834,0,0,1,115.008,28.3ZM124.1,39a3.036,3.036,0,0,1-.2-.891,3.225,3.225,0,0,1-2.406,1.047,2.984,2.984,0,0,1-2.051-.707,2.288,2.288,0,0,1-.8-1.793,2.39,2.39,0,0,1,1-2.051,4.733,4.733,0,0,1,2.824-.73h1.406v-.664A1.623,1.623,0,0,0,123.422,32a1.821,1.821,0,0,0-1.336-.449,2.108,2.108,0,0,0-1.3.391,1.151,1.151,0,0,0-.523.945h-1.453a2,2,0,0,1,.449-1.223,3.066,3.066,0,0,1,1.219-.934,4.1,4.1,0,0,1,1.691-.344,3.342,3.342,0,0,1,2.289.73,2.635,2.635,0,0,1,.859,2.012v3.891a4.757,4.757,0,0,0,.3,1.852V39Zm-2.4-1.1a2.54,2.54,0,0,0,1.289-.352,2.127,2.127,0,0,0,.883-.914V34.9h-1.133q-2.656,0-2.656,1.555a1.316,1.316,0,0,0,.453,1.063A1.742,1.742,0,0,0,121.7,37.9Z" transform="translate(345 8021)" fill="#12263f"/>
    <path id="Trazado_875528" data-name="Trazado 875528" d="M44.109,11.391a4.185,4.185,0,0,1-1.332,2.785,4.365,4.365,0,0,1-2.98.98,4.008,4.008,0,0,1-3.23-1.445,5.815,5.815,0,0,1-1.215-3.867V8.75a6.481,6.481,0,0,1,.566-2.789,4.231,4.231,0,0,1,1.605-1.848,4.47,4.47,0,0,1,2.406-.645A4.11,4.11,0,0,1,42.836,4.48a4.235,4.235,0,0,1,1.273,2.8H42.6a3.268,3.268,0,0,0-.848-1.975A2.565,2.565,0,0,0,39.93,4.7a2.684,2.684,0,0,0-2.254,1.063,4.882,4.882,0,0,0-.816,3.026v1.1a5.018,5.018,0,0,0,.773,2.948A2.5,2.5,0,0,0,39.8,13.93a2.887,2.887,0,0,0,1.918-.566,3.143,3.143,0,0,0,.887-1.973Zm1.438-.7a4.993,4.993,0,0,1,.488-2.234A3.643,3.643,0,0,1,47.395,6.93a3.7,3.7,0,0,1,1.988-.539,3.565,3.565,0,0,1,2.793,1.2,4.6,4.6,0,0,1,1.066,3.18v.1a5.036,5.036,0,0,1-.473,2.215,3.589,3.589,0,0,1-1.352,1.527,3.743,3.743,0,0,1-2.02.547,3.556,3.556,0,0,1-2.785-1.2A4.575,4.575,0,0,1,45.547,10.8ZM47,10.867a3.616,3.616,0,0,0,.652,2.258,2.211,2.211,0,0,0,3.5-.012A3.955,3.955,0,0,0,51.8,10.7a3.61,3.61,0,0,0-.66-2.254,2.1,2.1,0,0,0-1.754-.863,2.075,2.075,0,0,0-1.727.852A3.925,3.925,0,0,0,47,10.867Zm9.422-4.32.047,1.063A3.08,3.08,0,0,1,59,6.391q2.68,0,2.7,3.023V15H60.258V9.406a1.946,1.946,0,0,0-.418-1.352,1.675,1.675,0,0,0-1.277-.437,2.086,2.086,0,0,0-1.234.375,2.546,2.546,0,0,0-.828.984V15H55.055V6.547ZM63.5,10.7a4.993,4.993,0,0,1,.488-2.234A3.643,3.643,0,0,1,65.348,6.93a3.7,3.7,0,0,1,1.988-.539,3.565,3.565,0,0,1,2.793,1.2,4.6,4.6,0,0,1,1.066,3.18v.1a5.036,5.036,0,0,1-.473,2.215,3.589,3.589,0,0,1-1.352,1.527,3.743,3.743,0,0,1-2.02.547,3.556,3.556,0,0,1-2.785-1.2A4.575,4.575,0,0,1,63.5,10.8Zm1.453.172a3.616,3.616,0,0,0,.652,2.258,2.211,2.211,0,0,0,3.5-.012A3.955,3.955,0,0,0,69.75,10.7a3.61,3.61,0,0,0-.66-2.254,2.1,2.1,0,0,0-1.754-.863,2.075,2.075,0,0,0-1.727.852A3.925,3.925,0,0,0,64.953,10.867ZM76.4,13.977a2.082,2.082,0,0,0,1.352-.469,1.649,1.649,0,0,0,.641-1.172h1.367a2.621,2.621,0,0,1-.5,1.383,3.293,3.293,0,0,1-1.23,1.047,3.55,3.55,0,0,1-1.629.391A3.482,3.482,0,0,1,73.652,14a4.59,4.59,0,0,1-1.02-3.152v-.242a5.089,5.089,0,0,1,.453-2.2,3.451,3.451,0,0,1,1.3-1.492,3.7,3.7,0,0,1,2-.531,3.39,3.39,0,0,1,2.363.852,3.043,3.043,0,0,1,1,2.211H78.391a1.992,1.992,0,0,0-.621-1.348,1.932,1.932,0,0,0-1.379-.527,2.023,2.023,0,0,0-1.707.793,3.724,3.724,0,0,0-.605,2.293v.273a3.65,3.65,0,0,0,.6,2.25A2.033,2.033,0,0,0,76.4,13.977ZM82.953,15H81.508V6.547h1.445ZM81.391,4.3a.863.863,0,0,1,.215-.594.807.807,0,0,1,.637-.242.819.819,0,0,1,.641.242A.854.854,0,0,1,83.1,4.3a.826.826,0,0,1-.219.586.834.834,0,0,1-.641.234.821.821,0,0,1-.637-.234A.834.834,0,0,1,81.391,4.3Zm5.234,2.242.039.938a3.122,3.122,0,0,1,2.508-1.094A2.417,2.417,0,0,1,91.586,7.75a3.2,3.2,0,0,1,1.1-.984,3.242,3.242,0,0,1,1.6-.375q2.781,0,2.828,2.945V15H95.664V9.422a1.941,1.941,0,0,0-.414-1.355,1.823,1.823,0,0,0-1.391-.449,1.916,1.916,0,0,0-1.336.48,1.949,1.949,0,0,0-.617,1.293V15H90.453V9.461a1.613,1.613,0,0,0-1.8-1.844A1.934,1.934,0,0,0,86.7,8.828V15H85.258V6.547ZM100.859,15H99.414V6.547h1.445ZM99.3,4.3a.863.863,0,0,1,.215-.594.807.807,0,0,1,.637-.242.819.819,0,0,1,.641.242.854.854,0,0,1,.219.594.826.826,0,0,1-.219.586.834.834,0,0,1-.641.234.821.821,0,0,1-.637-.234A.834.834,0,0,1,99.3,4.3Zm7.383,10.852a3.693,3.693,0,0,1-2.8-1.129,4.19,4.19,0,0,1-1.078-3.02v-.266a5.073,5.073,0,0,1,.48-2.246,3.748,3.748,0,0,1,1.344-1.547,3.378,3.378,0,0,1,1.871-.559,3.166,3.166,0,0,1,2.563,1.086,4.7,4.7,0,0,1,.914,3.109v.6H104.25a3,3,0,0,0,.73,2.02,2.3,2.3,0,0,0,1.777.77,2.517,2.517,0,0,0,1.3-.312,3.259,3.259,0,0,0,.93-.828l.883.688A3.55,3.55,0,0,1,106.68,15.156Zm-.18-7.578a1.928,1.928,0,0,0-1.469.637A3.1,3.1,0,0,0,104.3,10h4.234V9.891a2.753,2.753,0,0,0-.594-1.707A1.815,1.815,0,0,0,106.5,7.578Zm6.516-1.031.047,1.063a3.08,3.08,0,0,1,2.531-1.219q2.68,0,2.7,3.023V15h-1.445V9.406a1.946,1.946,0,0,0-.418-1.352,1.675,1.675,0,0,0-1.277-.437,2.086,2.086,0,0,0-1.234.375,2.546,2.546,0,0,0-.828.984V15h-1.445V6.547ZM122.438,4.5V6.547h1.578V7.664h-1.578v5.249a1.173,1.173,0,0,0,.211.763.888.888,0,0,0,.719.254,3.5,3.5,0,0,0,.688-.094V15a4.215,4.215,0,0,1-1.109.155,1.8,1.8,0,0,1-1.461-.586,2.517,2.517,0,0,1-.492-1.664V7.664h-1.539V6.547h1.539V4.5Zm2.727,6.2a4.993,4.993,0,0,1,.488-2.234,3.643,3.643,0,0,1,1.359-1.531A3.7,3.7,0,0,1,129,6.391a3.565,3.565,0,0,1,2.793,1.2,4.6,4.6,0,0,1,1.066,3.18v.1a5.036,5.036,0,0,1-.473,2.215,3.589,3.589,0,0,1-1.352,1.527,3.743,3.743,0,0,1-2.02.547,3.556,3.556,0,0,1-2.785-1.2,4.575,4.575,0,0,1-1.066-3.164Zm1.453.172a3.616,3.616,0,0,0,.652,2.258,2.211,2.211,0,0,0,3.5-.012,3.954,3.954,0,0,0,.648-2.418,3.61,3.61,0,0,0-.66-2.254A2.1,2.1,0,0,0,129,7.578a2.075,2.075,0,0,0-1.727.852A3.925,3.925,0,0,0,126.617,10.867ZM47.352,37.977a2.082,2.082,0,0,0,1.352-.469,1.649,1.649,0,0,0,.641-1.172h1.367a2.621,2.621,0,0,1-.5,1.383,3.293,3.293,0,0,1-1.23,1.047,3.55,3.55,0,0,1-1.629.391A3.482,3.482,0,0,1,44.605,38a4.59,4.59,0,0,1-1.02-3.152v-.242a5.089,5.089,0,0,1,.453-2.2,3.451,3.451,0,0,1,1.3-1.492,3.7,3.7,0,0,1,2-.531,3.39,3.39,0,0,1,2.363.852,3.043,3.043,0,0,1,1,2.211H49.344a1.992,1.992,0,0,0-.621-1.348,1.932,1.932,0,0,0-1.379-.527,2.023,2.023,0,0,0-1.707.793,3.724,3.724,0,0,0-.605,2.293v.273a3.65,3.65,0,0,0,.6,2.25A2.033,2.033,0,0,0,47.352,37.977Zm4.6-3.281a4.993,4.993,0,0,1,.488-2.234A3.643,3.643,0,0,1,53.8,30.93a3.7,3.7,0,0,1,1.988-.539,3.565,3.565,0,0,1,2.793,1.2,4.6,4.6,0,0,1,1.066,3.18v.1a5.036,5.036,0,0,1-.473,2.215,3.589,3.589,0,0,1-1.352,1.527,3.743,3.743,0,0,1-2.02.547,3.556,3.556,0,0,1-2.785-1.2A4.575,4.575,0,0,1,51.953,34.8Zm1.453.172a3.616,3.616,0,0,0,.652,2.258,2.211,2.211,0,0,0,3.5-.012A3.955,3.955,0,0,0,58.2,34.7a3.61,3.61,0,0,0-.66-2.254,2.1,2.1,0,0,0-1.754-.863,2.075,2.075,0,0,0-1.727.852A3.925,3.925,0,0,0,53.406,34.867Zm9.414-4.32.039.938a3.122,3.122,0,0,1,2.508-1.094,2.417,2.417,0,0,1,2.414,1.359,3.2,3.2,0,0,1,1.1-.984,3.242,3.242,0,0,1,1.6-.375q2.781,0,2.828,2.945V39H71.859V33.422a1.941,1.941,0,0,0-.414-1.355,1.823,1.823,0,0,0-1.391-.449,1.916,1.916,0,0,0-1.336.48,1.949,1.949,0,0,0-.617,1.293V39H66.648V33.461a1.613,1.613,0,0,0-1.8-1.844A1.934,1.934,0,0,0,62.9,32.828V39H61.453V30.547Zm19.8,4.32a5.062,5.062,0,0,1-.883,3.109,2.829,2.829,0,0,1-2.391,1.18,3.1,3.1,0,0,1-2.422-.977v4.07H75.484v-11.7H76.8l.07.938a2.977,2.977,0,0,1,2.453-1.094,2.882,2.882,0,0,1,2.41,1.148,5.117,5.117,0,0,1,.887,3.2ZM81.18,34.7a3.735,3.735,0,0,0-.609-2.258,1.963,1.963,0,0,0-1.672-.828,2.125,2.125,0,0,0-1.969,1.164V36.82a2.129,2.129,0,0,0,1.984,1.156,1.954,1.954,0,0,0,1.652-.824A4.077,4.077,0,0,0,81.18,34.7Zm8.5,4.3a3.036,3.036,0,0,1-.2-.891,3.225,3.225,0,0,1-2.406,1.047,2.984,2.984,0,0,1-2.051-.707,2.288,2.288,0,0,1-.8-1.793,2.39,2.39,0,0,1,1-2.051,4.733,4.733,0,0,1,2.824-.73h1.406v-.664A1.623,1.623,0,0,0,89,32a1.821,1.821,0,0,0-1.336-.449,2.108,2.108,0,0,0-1.3.391,1.151,1.151,0,0,0-.523.945H84.391a2,2,0,0,1,.449-1.223,3.066,3.066,0,0,1,1.219-.934,4.1,4.1,0,0,1,1.691-.344,3.342,3.342,0,0,1,2.289.73,2.635,2.635,0,0,1,.859,2.012v3.891a4.757,4.757,0,0,0,.3,1.852V39Zm-2.4-1.1a2.54,2.54,0,0,0,1.289-.352,2.127,2.127,0,0,0,.883-.914V34.9H88.32q-2.656,0-2.656,1.555a1.316,1.316,0,0,0,.453,1.063A1.742,1.742,0,0,0,87.281,37.9Zm9.969-6.055a4.331,4.331,0,0,0-.711-.055A1.9,1.9,0,0,0,94.609,33v6H93.164V30.547H94.57l.023.977a2.251,2.251,0,0,1,2.016-1.133,1.477,1.477,0,0,1,.641.109Zm3.68-3.344v2.047h1.578v1.117H100.93v5.249a1.173,1.173,0,0,0,.211.763.888.888,0,0,0,.719.254,3.5,3.5,0,0,0,.688-.094V39a4.215,4.215,0,0,1-1.109.155,1.8,1.8,0,0,1-1.461-.586,2.517,2.517,0,0,1-.492-1.664V31.664H97.945V30.547h1.539V28.5ZM105.766,39H104.32V30.547h1.445ZM104.2,28.3a.863.863,0,0,1,.215-.594.807.807,0,0,1,.637-.242.819.819,0,0,1,.641.242.854.854,0,0,1,.219.594.826.826,0,0,1-.219.586.834.834,0,0,1-.641.234.821.821,0,0,1-.637-.234A.834.834,0,0,1,104.2,28.3Zm3.523,6.4a4.952,4.952,0,0,1,.922-3.129,3.137,3.137,0,0,1,4.766-.168V27h1.445V39h-1.328l-.07-.906a2.943,2.943,0,0,1-2.414,1.063,2.887,2.887,0,0,1-2.395-1.2,5.008,5.008,0,0,1-.926-3.141Zm1.445.164a3.749,3.749,0,0,0,.594,2.25,1.92,1.92,0,0,0,1.641.813,2.108,2.108,0,0,0,2.008-1.234V32.813a2.125,2.125,0,0,0-1.992-1.2,1.929,1.929,0,0,0-1.656.82A4.128,4.128,0,0,0,109.172,34.867Zm7.547-.172a4.993,4.993,0,0,1,.488-2.234,3.643,3.643,0,0,1,1.359-1.531,3.7,3.7,0,0,1,1.988-.539,3.565,3.565,0,0,1,2.793,1.2,4.6,4.6,0,0,1,1.066,3.18v.1a5.036,5.036,0,0,1-.473,2.215,3.589,3.589,0,0,1-1.352,1.527,3.743,3.743,0,0,1-2.02.547,3.556,3.556,0,0,1-2.785-1.2,4.575,4.575,0,0,1-1.066-3.164Zm1.453.172a3.616,3.616,0,0,0,.652,2.258,2.211,2.211,0,0,0,3.5-.012,3.955,3.955,0,0,0,.648-2.418,3.61,3.61,0,0,0-.66-2.254,2.1,2.1,0,0,0-1.754-.863,2.075,2.075,0,0,0-1.727.852A3.925,3.925,0,0,0,118.172,34.867Z" transform="translate(1087 8021)" fill="#12263f"/>
    <circle id="Elipse_11553" data-name="Elipse 11553" cx="28.5" cy="28.5" r="28.5" transform="translate(1020 7852)" fill="#ffb937"/>
    <circle id="Elipse_11560" data-name="Elipse 11560" cx="28.5" cy="28.5" r="28.5" transform="translate(523 7852)" fill="#ffb937"/>
    <circle id="Elipse_11561" data-name="Elipse 11561" cx="28.5" cy="28.5" r="28.5" transform="translate(523 8015)" fill="#ffb937"/>
    <circle id="Elipse_11556" data-name="Elipse 11556" cx="28.5" cy="28.5" r="28.5" transform="translate(1020 8015)" fill="#ffb937"/>
    <path id="Trazado_875525" data-name="Trazado 875525" d="M7.04,17H4.5V7.209l-3.032.94V6.084l5.3-1.9H7.04Z" transform="translate(1044 7870)" fill="#12263f"/>
    <path id="Trazado_875522" data-name="Trazado 875522" d="M8.385,12.184h1.45v2.048H8.385V17H5.845V14.231H.6l-.114-1.6L5.818,4.2H8.385Zm-5.37,0h2.83V7.666l-.167.29Z" transform="translate(547 7870)" fill="#12263f"/>
    <path id="Trazado_875523" data-name="Trazado 875523" d="M3.454,9.477H4.808A1.907,1.907,0,0,0,6.24,8.993,1.771,1.771,0,0,0,6.706,7.71a1.566,1.566,0,0,0-.461-1.2,1.788,1.788,0,0,0-1.27-.431,1.874,1.874,0,0,0-1.222.4,1.279,1.279,0,0,0-.492,1.042H.721a3.124,3.124,0,0,1,.541-1.8A3.6,3.6,0,0,1,2.773,4.476a5.045,5.045,0,0,1,2.14-.448A4.785,4.785,0,0,1,8.095,5,3.314,3.314,0,0,1,9.246,7.675,2.693,2.693,0,0,1,8.71,9.292,3.483,3.483,0,0,1,7.3,10.426a3.18,3.18,0,0,1,1.613,1.16,3.147,3.147,0,0,1,.532,1.828A3.369,3.369,0,0,1,8.2,16.147a5,5,0,0,1-3.292,1.028A4.741,4.741,0,0,1,1.78,16.165,3.3,3.3,0,0,1,.563,13.493H3.1a1.472,1.472,0,0,0,.541,1.178,1.992,1.992,0,0,0,1.332.457,2,2,0,0,0,1.419-.479,1.654,1.654,0,0,0,.514-1.27q0-1.916-2.109-1.916H3.454Z" transform="translate(547 8033)" fill="#12263f"/>
    <path id="Trazado_875527" data-name="Trazado 875527" d="M9.642,17H.87V15.26l4.14-4.412A10.213,10.213,0,0,0,6.271,9.222,2.612,2.612,0,0,0,6.68,7.9a1.955,1.955,0,0,0-.431-1.34,1.555,1.555,0,0,0-1.23-.488,1.677,1.677,0,0,0-1.358.593,2.35,2.35,0,0,0-.5,1.56H.615a4.2,4.2,0,0,1,.558-2.136A3.934,3.934,0,0,1,2.751,4.577a4.8,4.8,0,0,1,2.312-.549,4.54,4.54,0,0,1,3.072.949A3.358,3.358,0,0,1,9.229,7.657a4.3,4.3,0,0,1-.492,1.934,10.745,10.745,0,0,1-1.687,2.294L4.14,14.952h5.5Z" transform="translate(1044 8033)" fill="#12263f"/>
    <g id="Grupo_1100445" data-name="Grupo 1100445" transform="translate(0 -44)">
      <path id="Trazado_874348" data-name="Trazado 874348" d="M-2659-3891h246.671v70.9" transform="translate(3574 11700)" fill="none" stroke="#ffce73" stroke-linecap="round" stroke-linejoin="round" stroke-width="6"/>
    </g>
    <g id="Grupo_1100446" data-name="Grupo 1100446" transform="translate(915 8082)">
      <path id="Trazado_874348-2" data-name="Trazado 874348" d="M-2659-3820.1h246.671v-67.138" transform="translate(2659 3897.099)" fill="none" stroke="#ffb937" stroke-linecap="round" stroke-linejoin="round" stroke-width="6"/>
    </g>
    <g id="Grupo_1100443" data-name="Grupo 1100443" transform="translate(-105 -44)">
      <path id="Trazado_874351" data-name="Trazado 874351" d="M-2401.329-3891H-2647v66.9" transform="translate(3191.329 11700)" fill="none" stroke="#ffb937" stroke-linecap="round" stroke-linejoin="round" stroke-width="6"/>
    </g>
    <g id="Grupo_1100447" data-name="Grupo 1100447" transform="translate(433 8082)">
      <g id="Grupo_1100443-2" data-name="Grupo 1100443">
        <path id="Trazado_874351-2" data-name="Trazado 874351" d="M-2401.329-3820.1H-2647V-3891" transform="translate(2653.329 3897.099)" fill="none" stroke="#ffce73" stroke-linecap="round" stroke-linejoin="round" stroke-width="6"/>
      </g>
    </g>
    <g id="Grupo_1100448" data-name="Grupo 1100448" transform="translate(-4.5)">
      <path id="Trazado_874352" data-name="Trazado 874352" d="M-2834.864-3935h111.887" transform="translate(3579.364 11700)" fill="none" stroke="#ffce73" stroke-linecap="round" stroke-width="6"/>
      <g id="Polígono_6" data-name="Polígono 6" transform="translate(865 7758) rotate(90)" fill="#ffce73" stroke-linecap="round" stroke-linejoin="round">
        <path d="M 14.13429927825928 12.5 L 0.8657020330429077 12.5 L 7.500000476837158 1.00054931640625 L 14.13429927825928 12.5 Z" stroke="none"/>
        <path d="M 7.500000476837158 2.001115798950195 L 1.731413841247559 12 L 13.26858711242676 12 L 7.500000476837158 2.001115798950195 M 7.500000476837158 0 L 15 13 L 9.5367431640625e-07 13 L 7.500000476837158 0 Z" stroke="none" fill="#ffce73"/>
      </g>
    </g>
    <g id="Grupo_1100449" data-name="Grupo 1100449" transform="translate(1605 15922.5) rotate(180)">
      <path id="Trazado_874352-2" data-name="Trazado 874352" d="M-2834.864-3935h111.887" transform="translate(3579.364 11700)" fill="none" stroke="#ffce73" stroke-linecap="round" stroke-width="6"/>
      <g id="Polígono_6-2" data-name="Polígono 6" transform="translate(865 7758) rotate(90)" fill="#ffce73" stroke-linecap="round" stroke-linejoin="round">
        <path d="M 14.13429927825928 12.5 L 0.8657020330429077 12.5 L 7.500000476837158 1.00054931640625 L 14.13429927825928 12.5 Z" stroke="none"/>
        <path d="M 7.500000476837158 2.001115798950195 L 1.731413841247559 12 L 13.26858711242676 12 L 7.500000476837158 2.001115798950195 M 7.500000476837158 0 L 15 13 L 9.5367431640625e-07 13 L 7.500000476837158 0 Z" stroke="none" fill="#ffce73"/>
      </g>
    </g>
    <g id="Polígono_7" data-name="Polígono 7" transform="translate(1169 7842) rotate(180)" fill="#ffce73" stroke-linecap="round" stroke-linejoin="round">
      <path d="M 14.13429927825928 12.5 L 0.8657020330429077 12.5 L 7.500000476837158 1.00054931640625 L 14.13429927825928 12.5 Z" stroke="none"/>
      <path d="M 7.500000476837158 2.001115798950195 L 1.731413841247559 12 L 13.26858711242676 12 L 7.500000476837158 2.001115798950195 M 7.500000476837158 0 L 15 13 L 9.5367431640625e-07 13 L 7.500000476837158 0 Z" stroke="none" fill="#ffce73"/>
    </g>
    <g id="Grupo_1100451" data-name="Grupo 1100451" transform="translate(0 1.908)">
      <g id="Grupo_1100450" data-name="Grupo 1100450" transform="translate(0 92.1)">
        <path id="Trazado_874348-3" data-name="Trazado 874348" d="M-2412.329-3855.009v34.91" transform="translate(3574 11700)" fill="none" stroke="#ffce73" stroke-linecap="round" stroke-linejoin="round" stroke-width="6"/>
      </g>
      <g id="Polígono_8" data-name="Polígono 8" transform="translate(1169 7983) rotate(180)" fill="#ffce73" stroke-linecap="round" stroke-linejoin="round">
        <path d="M 14.13429927825928 12.5 L 0.8657020330429077 12.5 L 7.500000476837158 1.00054931640625 L 14.13429927825928 12.5 Z" stroke="none"/>
        <path d="M 7.500000476837158 2.001115798950195 L 1.731413841247559 12 L 13.26858711242676 12 L 7.500000476837158 2.001115798950195 M 7.500000476837158 0 L 15 13 L 9.5367431640625e-07 13 L 7.500000476837158 0 Z" stroke="none" fill="#ffce73"/>
      </g>
    </g>
    <g id="Grupo_1100452" data-name="Grupo 1100452" transform="translate(1600 15922) rotate(180)">
      <g id="Grupo_1100450-2" data-name="Grupo 1100450" transform="translate(0 92.1)">
        <path id="Trazado_874348-4" data-name="Trazado 874348" d="M-2412.329-3855.009v34.91" transform="translate(3574 11700)" fill="none" stroke="#ffce73" stroke-linecap="round" stroke-linejoin="round" stroke-width="6"/>
      </g>
      <g id="Polígono_8-2" data-name="Polígono 8" transform="translate(1169 7983) rotate(180)" fill="#ffce73" stroke-linecap="round" stroke-linejoin="round">
        <path d="M 14.13429927825928 12.5 L 0.8657020330429077 12.5 L 7.500000476837158 1.00054931640625 L 14.13429927825928 12.5 Z" stroke="none"/>
        <path d="M 7.500000476837158 2.001115798950195 L 1.731413841247559 12 L 13.26858711242676 12 L 7.500000476837158 2.001115798950195 M 7.500000476837158 0 L 15 13 L 9.5367431640625e-07 13 L 7.500000476837158 0 Z" stroke="none" fill="#ffce73"/>
      </g>
    </g>
    <g id="Polígono_9" data-name="Polígono 9" transform="translate(432 8079)" fill="#ffce73" stroke-linecap="round" stroke-linejoin="round">
      <path d="M 14.13429927825928 12.5 L 0.8657020330429077 12.5 L 7.500000476837158 1.00054931640625 L 14.13429927825928 12.5 Z" stroke="none"/>
      <path d="M 7.500000476837158 2.001115798950195 L 1.731413841247559 12 L 13.26858711242676 12 L 7.500000476837158 2.001115798950195 M 7.500000476837158 0 L 15 13 L 9.5367431640625e-07 13 L 7.500000476837158 0 Z" stroke="none" fill="#ffce73"/>
    </g>
    <g id="Grupo_1100454" data-name="Grupo 1100454" transform="translate(883 7837.901)">
      <g id="Grupo_1100453" data-name="Grupo 1100453" clip-path="url(#clip-path)">
        <path id="Trazado_874353" data-name="Trazado 874353" d="M2.469,17.878c0-1.016-.025-2.034.011-3.049A1.359,1.359,0,0,0,2,13.693c-.6-.559-1.147-1.181-1.758-1.731-.352-.317-.288-.5.014-.8Q5.707,5.736,11.133.282c.322-.324.56-.421.839-.005a1.887,1.887,0,0,0,1.831.737c1.717-.041,3.438.039,5.153-.035a2.373,2.373,0,0,1,2.011.854c.925,1,.954.974-.013,1.941Q18.568,6.16,16.181,8.546A4.674,4.674,0,0,0,14.867,13.4a4.583,4.583,0,0,0,3.79,3.388A4.6,4.6,0,0,0,22.9,15.434c1.316-1.284,2.619-2.582,3.9-3.9.354-.367.539-.365.9,0q7.45,7.487,14.927,14.947a2.122,2.122,0,0,1,.133,3.157,2.077,2.077,0,0,1-3.088-.182Q33.888,23.68,28.127,17.893c-.413-.417-.677-.5-1.063-.008a5.268,5.268,0,0,1-.922.922c-.484.374-.352.627.024,1q4.87,4.831,9.709,9.694a3.487,3.487,0,0,1,.848,1.075,2.119,2.119,0,0,1-.717,2.524,2.09,2.09,0,0,1-2.615-.163c-.814-.759-1.585-1.563-2.372-2.35-2.618-2.618-5.245-5.228-7.843-7.865-.389-.4-.612-.41-.956.012-.424.521-1.3.914-1.277,1.479.019.487.807.951,1.267,1.412q3.717,3.724,7.441,7.442a2.076,2.076,0,0,1,.621,2.178,1.994,1.994,0,0,1-1.638,1.465,2.206,2.206,0,0,1-2.068-.79c-2.715-2.726-5.453-5.43-8.148-8.176-.478-.487-.768-.59-1.206-.006-.359.478-1.137.8-1.155,1.324s.724.9,1.143,1.319c1.907,1.925,3.83,3.835,5.746,5.75a2.792,2.792,0,0,1,.781,1.116,2.081,2.081,0,0,1-.659,2.291,2.1,2.1,0,0,1-2.442.128,4.734,4.734,0,0,1-.709-.618q-8.5-8.49-16.994-16.979a1.415,1.415,0,0,1-.465-1.14c.032-1.015.01-2.032.01-3.049" transform="translate(0 -0.001)" fill="#7a4f00"/>
        <path id="Trazado_874354" data-name="Trazado 874354" d="M131.327,7.514c.992,0,1.984-.021,2.975.009a1.355,1.355,0,0,0,1.143-.459c.588-.64,1.235-1.227,1.832-1.86.243-.257.393-.242.635,0q5.146,5.164,10.312,10.308c.268.266.3.469-.011.687a2.09,2.09,0,0,0-.81,2.015c.052,1.861.019,3.724.013,5.587,0,.235.086.506-.1.7-.742.761-1.49,1.518-2.254,2.258-.329.319-.468-.093-.618-.242q-3.707-3.68-7.392-7.382c-2.377-2.377-4.766-4.742-7.121-7.139-.394-.4-.584-.356-.949.016-1.879,1.917-3.782,3.811-5.689,5.7a2.122,2.122,0,0,1-2.764.379,2.046,2.046,0,0,1-.406-3.1c2.376-2.444,4.81-4.832,7.21-7.252a.9.9,0,0,1,.728-.22h3.265" transform="translate(-102.215 -4.289)" fill="#7a4f00"/>
      </g>
    </g>
    <g id="Grupo_1100456" data-name="Grupo 1100456" transform="translate(878.45 8042.762)">
      <g id="Grupo_1100455" data-name="Grupo 1100455" clip-path="url(#clip-path-2)">
        <path id="Trazado_874355" data-name="Trazado 874355" d="M86.178,93.108V87.576c0-1.487.012-2.974-.007-4.46a.991.991,0,0,1,.517-1.006,2.527,2.527,0,0,0,1.145-3,2.652,2.652,0,0,0-5.073-.055,2.591,2.591,0,0,0,1.151,3.087c.286.191.5.338.5.743-.02,2.288-.01,4.577-.01,7.059-1.508-.866-2.926-1.637-4.291-2.491-.447-.28-.2-1.386.318-1.732a2.584,2.584,0,0,0,1.25-2.663,2.515,2.515,0,0,0-1.789-2.135,2.631,2.631,0,0,0-3.2,1.262,2.543,2.543,0,0,0,.736,3.34,1.3,1.3,0,0,1,.724,1.432,1.924,1.924,0,0,0,1.287,2.234c1.484.746,2.893,1.641,4.35,2.443a1.028,1.028,0,0,1,.623,1.041q-.043,4.415,0,8.831c0,.553-.153.719-.7.7-1.039-.041-2.082-.034-3.121,0-.489.015-.757-.118-.653-.638.314-1.568-.374-2.3-1.807-3.032-5.76-2.934-8.745-9.14-7.825-15.761A15.176,15.176,0,1,1,91.6,98.989a1.336,1.336,0,0,0-.98,1.486c.077,1.708.023,1.711-1.691,1.711-.714,0-1.428-.022-2.141.007-.45.018-.628-.106-.622-.592q.037-2.81,0-5.62a1.154,1.154,0,0,1,.509-.965c1.631-1.386,3.217-2.828,4.894-4.155a2.2,2.2,0,0,0,.852-2.179,1.18,1.18,0,0,1,.627-1.306,2.485,2.485,0,0,0,1.014-2.97,2.659,2.659,0,1,0-4.088,2.973,1.4,1.4,0,0,1,.117,2.381c-1.238,1.066-2.483,2.124-3.914,3.348" transform="translate(-57.623 -57.563)" fill="#7a4f00"/>
        <path id="Trazado_874356" data-name="Trazado 874356" d="M130.3,259.982c1.576,0,3.152.017,4.728-.01.5-.009.683.13.658.647a11.95,11.95,0,0,1-.387,4.053,5.349,5.349,0,0,1-10.32-1.694c-.038-.8.014-1.606-.024-2.408-.022-.484.164-.6.617-.6,1.576.022,3.152.009,4.728.009" transform="translate(-102.66 -213.58)" fill="#7a4f00"/>
        <path id="Trazado_874357" data-name="Trazado 874357" d="M46.344,43.835c-.626,1.034.337,1.565.977,2.224A17.376,17.376,0,0,0,48.776,47.5c.587.477.444.8-.028,1.254-.45.436-.763.661-1.254.049-.424-.529-.972-.958-1.432-1.462A2.372,2.372,0,0,0,43.679,46.3a2.517,2.517,0,0,1-2.686-2.58,2.685,2.685,0,0,1,2.7-2.716,2.722,2.722,0,0,1,2.65,2.827" transform="translate(-33.678 -33.69)" fill="#7a4f00"/>
        <path id="Trazado_874358" data-name="Trazado 874358" d="M228.551,41a2.7,2.7,0,0,1,2.622,2.965,2.644,2.644,0,0,1-3.1,2.334,1.263,1.263,0,0,0-1.376.453c-.708.759-1.488,1.452-2.191,2.216-.533.58-.77.046-1.039-.235s-.846-.491-.261-1.037c.8-.749,1.551-1.556,2.341-2.319a1.064,1.064,0,0,0,.354-1.157A2.653,2.653,0,0,1,228.551,41" transform="translate(-183.166 -33.683)" fill="#7a4f00"/>
        <path id="Trazado_874359" data-name="Trazado 874359" d="M40.979,228.76a2.694,2.694,0,0,1,3.121-2.854,1.268,1.268,0,0,0,1.375-.457c.71-.758,1.488-1.453,2.192-2.216.536-.581.767-.035,1.039.241s.838.494.255,1.037c-.8.748-1.551,1.556-2.342,2.318a1.05,1.05,0,0,0-.354,1.158,2.461,2.461,0,0,1-1.006,2.668,2.5,2.5,0,0,1-2.843.231,2.542,2.542,0,0,1-1.436-2.128" transform="translate(-33.666 -183.187)" fill="#7a4f00"/>
        <path id="Trazado_874360" data-name="Trazado 874360" d="M231.208,228.6a2.7,2.7,0,0,1-2.945,2.644,2.633,2.633,0,0,1-2.35-3.087,1.323,1.323,0,0,0-.507-1.442c-.732-.694-1.406-1.45-2.15-2.131-.633-.579,0-.8.267-1.1.28-.32.542-.731,1.044-.167.689.775,1.473,1.465,2.187,2.219a1.2,1.2,0,0,0,1.3.427,2.641,2.641,0,0,1,3.154,2.64" transform="translate(-183.194 -183.236)" fill="#7a4f00"/>
        <path id="Trazado_874361" data-name="Trazado 874361" d="M141.682,7.5c0-.267-.012-.535,0-.8a2,2,0,0,0-.872-2.089,2.525,2.525,0,0,1-.106-3.848,2.675,2.675,0,0,1,3.89.161,2.579,2.579,0,0,1-.414,3.843,1.478,1.478,0,0,0-.72,1.53c.037.89-.041,1.786.025,2.672.054.72-.205.874-.887.885-.729.011-1.029-.166-.93-.927a11.117,11.117,0,0,0,.011-1.425" transform="translate(-114.912 0.001)" fill="#7a4f00"/>
        <path id="Trazado_874362" data-name="Trazado 874362" d="M7.44,143.57c-.327,0-.655.021-.979,0a1.686,1.686,0,0,0-1.767.785,2.553,2.553,0,0,1-3.847.275A2.672,2.672,0,0,1,.9,140.674a2.579,2.579,0,0,1,3.846.377,1.5,1.5,0,0,0,1.519.742c1.007-.049,2.019.014,3.028-.021.737-.026.539.5.512.849s.324.974-.5.951c-.623-.017-1.247,0-1.87,0" transform="translate(0 -115.008)" fill="#7a4f00"/>
        <path id="Trazado_874363" data-name="Trazado 874363" d="M257.273,141.73c.3,0,.595-.021.889,0a1.933,1.933,0,0,0,1.994-.867,2.534,2.534,0,0,1,3.845-.113,2.663,2.663,0,0,1-.094,3.824,2.56,2.56,0,0,1-3.844-.294,1.66,1.66,0,0,0-1.682-.776c-.887.051-1.784-.046-2.667.03-.769.066-.8-.323-.772-.892.024-.505-.1-1.033.731-.928a12.783,12.783,0,0,0,1.6.012" transform="translate(-209.444 -114.957)" fill="#7a4f00"/>
      </g>
    </g>
    <g id="Grupo_1100458" data-name="Grupo 1100458" transform="translate(669.045 8049.332)">
      <g id="Grupo_1100457" data-name="Grupo 1100457" clip-path="url(#clip-path-3)">
        <path id="Trazado_874364" data-name="Trazado 874364" d="M76.619,93.2c0-2.041,0-4.083,0-6.124a4.682,4.682,0,0,1,1.533-3.586q4.793-4.479,9.579-8.965c.379-.357.614-.374,1-.008q4.805,4.53,9.642,9.026a4.733,4.733,0,0,1,1.474,3.615c.009,4.112.019,8.224,0,12.336a2.844,2.844,0,0,1-3.131,3.074c-1.254.007-2.51-.046-3.761.019-.764.04-.913-.248-.9-.946.035-2.478.041-4.958-.009-7.436a3.769,3.769,0,0,0-2.9-3.522,3.871,3.871,0,0,0-4.258,1.851,4.476,4.476,0,0,0-.48,2.282c0,2.275-.026,4.55.014,6.824.012.7-.138.985-.9.947-1.309-.065-2.624-.006-3.936-.022a2.812,2.812,0,0,1-2.954-2.979c-.016-2.129,0-4.258,0-6.387" transform="translate(-63.203 -61.251)" fill="#7a4f00"/>
        <path id="Trazado_874365" data-name="Trazado 874365" d="M63.4,10.281a1.354,1.354,0,0,1,.731-1.261,1.3,1.3,0,0,1,1.471.137q4.419,2.825,8.843,5.64a5.086,5.086,0,0,0,4.173.729,6.838,6.838,0,0,0,1.952-.954q4.16-2.661,8.321-5.32a1.5,1.5,0,0,1,1.547-.282,1.332,1.332,0,0,1,.345,2.248C89.3,12.823,87.788,14.4,86.3,16a18,18,0,0,0-3.911,6.054c-.216.6-.419.378-.707.107-1.275-1.2-2.568-2.376-3.823-3.594-.4-.387-.651-.4-1.057,0-1.252,1.221-2.551,2.394-3.821,3.6-.309.293-.515.448-.715-.1a19.932,19.932,0,0,0-4.55-6.769q-1.887-2.007-3.784-4.006a1.352,1.352,0,0,1-.529-1" transform="translate(-52.303 -7.298)" fill="#7a4f00"/>
        <path id="Trazado_874366" data-name="Trazado 874366" d="M208.709,79.315a1.347,1.347,0,0,1-.833-.258,15.878,15.878,0,0,0-6.986-2.009c-.434-.015-.549-.2-.536-.587.018-.553-.029-1.11.009-1.661a6.737,6.737,0,0,0-2.529-5.85c-1.513-1.31-1.468-1.357-.21-2.9a37.7,37.7,0,0,1,7.267-7.031c.6-.428,1.188-.666,1.811-.109.553.5.526,1.079-.08,1.856a16.28,16.28,0,0,0-2.337,3.878,7.6,7.6,0,0,0,.708,7.411A34.517,34.517,0,0,0,209.43,77.1a1.212,1.212,0,0,1-.086,2.011.894.894,0,0,1-.636.207" transform="translate(-162.258 -48.326)" fill="#7a4f00"/>
        <path id="Trazado_874367" data-name="Trazado 874367" d="M19.848,67.805a10.433,10.433,0,0,0-1.876-5.491,18.747,18.747,0,0,0-1.122-1.561c-.491-.61-.741-1.24-.111-1.864s1.268-.333,1.88.115a33.966,33.966,0,0,1,3.17,2.613,46.5,46.5,0,0,1,4.845,5.4c.342.438.367.705-.079,1.066-.542.439-1.041.935-1.54,1.425a5.885,5.885,0,0,0-1.9,4.447c.013.816-.018,1.634.006,2.449.013.458-.167.591-.613.608a15.524,15.524,0,0,0-6.668,1.88c-.18.095-.364.185-.549.269a1.148,1.148,0,0,1-1.525-.447,1.062,1.062,0,0,1,.124-1.5c1.157-1.192,2.359-2.343,3.417-3.629a9.32,9.32,0,0,0,2.542-5.776" transform="translate(-11.146 -48.284)" fill="#7a4f00"/>
        <path id="Trazado_874368" data-name="Trazado 874368" d="M3.663,102.241a3.7,3.7,0,1,1,.108-7.4,3.7,3.7,0,1,1-.108,7.4" transform="translate(0 -78.239)" fill="#7a4f00"/>
        <path id="Trazado_874369" data-name="Trazado 874369" d="M246.319,101.344a3.707,3.707,0,1,1,3.709-3.714,3.7,3.7,0,0,1-3.709,3.714" transform="translate(-200.125 -77.487)" fill="#7a4f00"/>
        <path id="Trazado_874370" data-name="Trazado 874370" d="M128.783,3.7a3.693,3.693,0,1,1-7.385-.039,3.693,3.693,0,0,1,7.385.039" transform="translate(-100.147 0)" fill="#7a4f00"/>
      </g>
    </g>
    <g id="Grupo_1100460" data-name="Grupo 1100460" transform="translate(670 7831.901)">
      <g id="Grupo_1100459" data-name="Grupo 1100459" clip-path="url(#clip-path-4)">
        <path id="Trazado_874371" data-name="Trazado 874371" d="M26.441,38.669a18.585,18.585,0,0,1-9.3-2.312c-.426-.234-.632-.182-.908.209-1.614,2.294-3.2,4.608-4.894,6.842A6.257,6.257,0,0,1,.516,42,6.429,6.429,0,0,1,2.53,34.364c2.19-1.653,4.407-3.268,6.633-4.871.438-.315.482-.536.225-1.027A19.379,19.379,0,0,1,23.03.279,19.03,19.03,0,0,1,44.948,16.123,19.1,19.1,0,0,1,26.441,38.669M13.587,19.314A12.723,12.723,0,0,0,26.122,32.136a12.835,12.835,0,0,0,.153-25.667A12.811,12.811,0,0,0,13.587,19.314" transform="translate(0 0)" fill="#7a4f00"/>
        <path id="Trazado_874372" data-name="Trazado 874372" d="M136.089,72.75a1.28,1.28,0,0,1-.573,1.092.742.742,0,0,0-.2.974c.26.729.548,1.148,1.418,1.055.639-.069,1.041.4,1.08,1.07.032.572.029,1.147.019,1.72-.017,1.058-.373,1.419-1.4,1.452-.361.011-.768-.107-.872.454-.1.541-.719,1.007.014,1.624.786.662.728,1.258.005,2.01-.345.359-.691.718-1.049,1.063a1.147,1.147,0,0,1-1.846,0c-.2-.186-.351-.566-.647-.488a6.5,6.5,0,0,0-1.357.58c-.183.1-.087.351-.092.534-.034,1.279-.345,1.589-1.614,1.592-.4,0-.8,0-1.2,0-.972-.012-1.371-.4-1.389-1.389-.008-.449.012-.831-.555-.982-.537-.143-.982-.575-1.536.1-.62.758-1.205.693-1.925-.015q-.507-.5-1-1.014a1.21,1.21,0,0,1-.022-1.978c.243-.263.644-.462.342-.944s-.234-1.267-1.209-1.174c-.958.092-1.343-.407-1.353-1.4q-.007-.717,0-1.434c.01-.99.4-1.39,1.364-1.409.389-.008.8.1.929-.486.119-.552.661-1.026-.047-1.627-.754-.64-.7-1.233-.013-1.955.36-.378.723-.753,1.1-1.113a1.153,1.153,0,0,1,1.8-.005c.267.234.426.759.964.431s1.317-.3,1.186-1.343c-.107-.849.385-1.233,1.261-1.265.54-.02,1.083-.02,1.623,0,.9.033,1.257.429,1.291,1.34.014.37-.169.83.432.957.556.118,1.037.751,1.657-.037.587-.746,1.206-.692,1.878-.04.391.379.767.775,1.143,1.17a1.129,1.129,0,0,1,.394.884m-7.6,9.284A4.034,4.034,0,0,0,132.5,78a4.138,4.138,0,0,0-4.045-4.123,4.053,4.053,0,0,0-3.985,4.148,3.977,3.977,0,0,0,4.013,4.012" transform="translate(-102.293 -58.636)" fill="#7a4f00"/>
      </g>
    </g>
  </g>
</svg>
