<svg xmlns="http://www.w3.org/2000/svg" xmlns:xlink="http://www.w3.org/1999/xlink" width="190" height="259.602" viewBox="0 0 190 259.602">
  <defs>
    <clipPath id="clip-path">
      <rect id="Rectángulo_402568" data-name="Rectángulo 402568" width="152.846" height="256.538" fill="none"/>
    </clipPath>
  </defs>
  <g id="img2" transform="translate(-290 -1083.437)">
    <g id="Grupo_1100699" data-name="Grupo 1100699" transform="translate(-105 10.437)">
      <circle id="Elipse_11578" data-name="Elipse 11578" cx="65.5" cy="65.5" r="65.5" transform="translate(454 1073)" fill="#fff"/>
      <circle id="Elipse_11577" data-name="Elipse 11577" cx="87.5" cy="87.5" r="87.5" transform="translate(395 1143.149)" fill="#fef7eb"/>
    </g>
    <g id="Grupo_1100707" data-name="Grupo 1100707" transform="translate(317.486 1086.5)">
      <g id="Grupo_1100706" data-name="Grupo 1100706" clip-path="url(#clip-path)">
        <path id="Trazado_875104" data-name="Trazado 875104" d="M153.172,386.432c0,2.7-32.062,4.889-71.613,4.889s-71.612-2.189-71.612-4.889,32.062-4.89,71.612-4.89,71.613,2.189,71.613,4.89" transform="translate(-3.514 -134.783)" fill="#bfc6d8"/>
        <path id="Trazado_875105" data-name="Trazado 875105" d="M219.717,359.835l1.694,10.947c-1.995,2.616-4.992,3.207-8.761,2.234l-2.885-6.2Z" transform="translate(-74.102 -127.115)" fill="#363440"/>
        <path id="Trazado_875106" data-name="Trazado 875106" d="M176.9,359.835l1.694,10.947c-2,2.616-4.992,3.207-8.761,2.234l-2.885-6.2Z" transform="translate(-58.977 -127.115)" fill="#363440"/>
        <path id="Trazado_875107" data-name="Trazado 875107" d="M140.026,271.42l-6.749,7.852,3.578,3.4,2.942-4.062,13.531,44.816a6.263,6.263,0,0,0,5.966,4.453l32.045.162-3.961,4.457,3.569,1.932,6.959-8.01-.011-.014a6.265,6.265,0,0,0,1.764-6.429c-3.831-12.686-11.108-36.787-14.1-46.7a6.265,6.265,0,0,0-5.966-4.453l-34.337-.173a6.266,6.266,0,0,0-5.051,2.516c-.061.083-.121.167-.178.252" transform="translate(-47.081 -94.904)" fill="#537ac1"/>
        <path id="Trazado_875108" data-name="Trazado 875108" d="M141.754,273.281l-3.037,3.534,38.459.112a5.22,5.22,0,0,1,4.934,3.559l6.7,19.966a1.771,1.771,0,0,0,3.359-1.127l-6.7-19.966a8.764,8.764,0,0,0-8.282-5.975Z" transform="translate(-49.003 -96.539)" fill="#425da2"/>
        <path id="Trazado_875109" data-name="Trazado 875109" d="M177.117,286.293a5.89,5.89,0,0,0-5.609-4.187l-35.121-.177a5.89,5.89,0,0,0-5.668,7.592l14.327,47.453a5.89,5.89,0,0,0,5.609,4.187l35.121.177a5.89,5.89,0,0,0,5.668-7.592l-14.327-47.453" transform="translate(-46.089 -99.594)" fill="#7299e0"/>
        <path id="Trazado_875110" data-name="Trazado 875110" d="M189.158,338.649a4.4,4.4,0,0,0-4.248-3.243H156.724a4.4,4.4,0,0,0-4.248,5.565l2.429,8.89a4.4,4.4,0,0,0,4.248,3.243h28.186a4.4,4.4,0,0,0,4.248-5.565l-2.43-8.889" transform="translate(-53.808 -118.485)" fill="#8aaae5"/>
        <path id="Trazado_875111" data-name="Trazado 875111" d="M175.973,289.682a2.4,2.4,0,0,0-2.293-1.691H142.464a2.4,2.4,0,0,0-2.291,3.122c.474,1.506,1.023,3.254,1.417,4.507a2.4,2.4,0,0,0,2.288,1.681l31.207.041a2.4,2.4,0,0,0,2.3-3.112l-1.409-4.549" transform="translate(-49.479 -101.735)" fill="#425da2"/>
        <path id="Trazado_875112" data-name="Trazado 875112" d="M168.37,276.386l-9.468-31.5a1.77,1.77,0,0,0-1.721-1.261l-19.566.273a1.772,1.772,0,0,0-1.672,2.28l9.339,31.11a1.771,1.771,0,1,0,3.393-1.018l-8.664-28.863,15.883-.222,9.084,30.22a1.771,1.771,0,1,0,3.392-1.02" transform="translate(-47.997 -86.063)" fill="#373541"/>
        <path id="Trazado_875113" data-name="Trazado 875113" d="M131.056,221.544s4.117,7.8,4.362,9.325a8.272,8.272,0,0,0,3.029,5.519c2.416,2.148,7.945,4.2,9.449,2.773.749-.713-3.859-3.932-3.859-3.932s-.051-.985,2.075-.935c1.212.028,6.524.737,6.945.5s.828-2.093-.118-3.675-8.4-3.615-9.951-4.367-2.982-7.3-3.736-9.131Z" transform="translate(-46.297 -76.876)" fill="#fba598"/>
        <path id="Trazado_875114" data-name="Trazado 875114" d="M132.726,224.795a23.911,23.911,0,0,0,8.254-1.737c-.715-2.084-1.32-4.449-1.727-5.438l-8.2,3.924s.774,1.466,1.67,3.251" transform="translate(-46.297 -76.876)" fill="#ef8b83"/>
        <path id="Trazado_875115" data-name="Trazado 875115" d="M133.719,344.108s-4.028,29.354,5.329,28.682c7.518-.54,8.565-8.705,7.859-16.78-.642-7.329-2.705-14.685-6.056-16.342Z" transform="translate(-46.933 -119.991)" fill="#cb4645"/>
        <path id="Trazado_875116" data-name="Trazado 875116" d="M147.247,369.308c.2,7.056-1.389,13.477-8.027,13.953-3.655.263-5.267-4.056-5.875-9.415.9,3.677,2.613,7.8,5.713,7.112,4.29-.951,7.081-5.175,8.189-11.65" transform="translate(-47.105 -130.461)" fill="#652924"/>
        <path id="Trazado_875117" data-name="Trazado 875117" d="M125.574,335.992s6.065,7.916,7.763,8.92,6.31.83,5.957-7.139l-5.208-9.862Z" transform="translate(-44.36 -115.838)" fill="#fba598"/>
        <path id="Trazado_875118" data-name="Trazado 875118" d="M52.034,365.8s-5.821,2.59-10.725,4.468a11.109,11.109,0,0,0-7.537,11.452l34.6-2.649s-2.077-11.166-4.495-14.131Z" transform="translate(-11.922 -128.917)" fill="#cb4645"/>
        <path id="Trazado_875119" data-name="Trazado 875119" d="M67.423,380.02c.59,2.458.947,4.376.947,4.376l-34.6,2.649A12.431,12.431,0,0,1,34,383.751c8.526-1,25.419-2.857,33.419-3.731" transform="translate(-11.922 -134.245)" fill="#652924"/>
        <path id="Trazado_875120" data-name="Trazado 875120" d="M59.007,346.594s.508,13.075.772,13.913,4.16,1.936,12.9-1.235l-.023-12.737Z" transform="translate(-20.845 -122.416)" fill="#fba598"/>
        <path id="Trazado_875121" data-name="Trazado 875121" d="M44.632,173.6s-8.977,10.731-9.31,24.219,7,93.01,7,93.01,15.8.216,23.484-2.421l-1.5-57.363s6.318,23.221,10.647,30.728,14.791,23.671,14.791,23.671,13.168-1.524,17.686-13.1c0,0-12.7-26.372-13.739-34.793-1.491-12.062-4.251-47.625-12.781-59.866Z" transform="translate(-12.474 -61.326)" fill="#312e40"/>
        <path id="Trazado_875122" data-name="Trazado 875122" d="M74.694,287.882l-.938-35.928s.074.273.211.768l-.1-.863-5.455-17.5-6.339-1.574a371.344,371.344,0,0,1,12.624,55.093" transform="translate(-21.927 -82.235)" fill="#22202d"/>
        <path id="Trazado_875123" data-name="Trazado 875123" d="M69.872,210.222c2.544-.737,5.224-2.685,5.263-7.264.036-4.223.968-21.756.968-21.756a.615.615,0,0,0-1.228-.065s-.933,17.578-.969,21.811c-.031,3.7-2.1,5.362-4.157,6.028A104.24,104.24,0,0,1,71.159,181.3a.614.614,0,1,0-1.2-.254,104.871,104.871,0,0,0-1.228,30.025.615.615,0,0,0,1.221-.142q-.041-.351-.079-.7" transform="translate(-24.075 -63.783)" fill="#22202d"/>
        <path id="Trazado_875124" data-name="Trazado 875124" d="M98.191,181.176a20.992,20.992,0,0,0,2.082,8.589c1.422,2.555,3.772,4.487,7.64,3.868a.614.614,0,0,0-.194-1.213,5.783,5.783,0,0,1-6.372-3.252,19.443,19.443,0,0,1-1.928-8,.614.614,0,1,0-1.228.012" transform="translate(-34.687 -63.783)" fill="#22202d"/>
        <path id="Trazado_875125" data-name="Trazado 875125" d="M46.45,179.561a19.094,19.094,0,0,1-2.4,6.268A7.719,7.719,0,0,1,38.7,189.7a.615.615,0,0,0,.171,1.217,8.928,8.928,0,0,0,6.222-4.43,20.5,20.5,0,0,0,2.573-6.725.615.615,0,0,0-1.213-.2" transform="translate(-13.483 -63.25)" fill="#22202d"/>
        <path id="Trazado_875126" data-name="Trazado 875126" d="M18.323,81.469s1.279-8.9,1.88-9.985,7.52-11.185,8.1-13.2-8.576-9.1-10.169-6.481-.938,1.766-.938,1.766-2.43-.735-3.105.34a7.093,7.093,0,0,0-.822,2.654s-2.311.131-2.71,1.35a7.355,7.355,0,0,0-.375,2.217,2.765,2.765,0,0,0-2.061.351c-.876.638-4.023,5.332-3.2,6.027s4.367-2.41,4.95-2.631,1.3.9,1.872,1.255c0,0-1.308,4.228.261,6.5L8.392,81.969Z" transform="translate(-1.69 -18.097)" fill="#fb9c8d"/>
        <path id="Trazado_875127" data-name="Trazado 875127" d="M13.117,66.063s-.565,4.891.915,5.2c1.421.3,1.777-2.736,1.777-2.736" transform="translate(-4.596 -23.337)" fill="#fb9c8d"/>
        <path id="Trazado_875128" data-name="Trazado 875128" d="M12.546,65.817a15.584,15.584,0,0,0,.07,4.064A2.759,2.759,0,0,0,13.092,71a1.143,1.143,0,0,0,.662.424A1.524,1.524,0,0,0,15.4,70.4a7.144,7.144,0,0,0,.575-2.026.372.372,0,1,0-.739-.087,6.206,6.206,0,0,1-.5,1.777c-.191.378-.432.722-.831.638a.493.493,0,0,1-.3-.252,2.339,2.339,0,0,1-.266-.726,14.5,14.5,0,0,1-.058-3.818.372.372,0,1,0-.739-.085" transform="translate(-4.394 -23.134)" fill="#dd5f5f"/>
        <path id="Trazado_875129" data-name="Trazado 875129" d="M17.69,60.645s-1.16,6.868.6,7c2.03.149,2.192-3.493,2.192-3.493" transform="translate(-6.116 -21.423)" fill="#fb9c8d"/>
        <path id="Trazado_875130" data-name="Trazado 875130" d="M17.12,60.38a24.727,24.727,0,0,0-.31,5.537,3.222,3.222,0,0,0,.457,1.425,1.04,1.04,0,0,0,.788.468,2.055,2.055,0,0,0,2.011-1.376,7.481,7.481,0,0,0,.579-2.472.372.372,0,0,0-.743-.033,6.549,6.549,0,0,1-.507,2.184,1.352,1.352,0,0,1-1.286.955c-.14-.01-.228-.123-.3-.27a2.981,2.981,0,0,1-.256-.975,23.578,23.578,0,0,1,.305-5.321.372.372,0,0,0-.733-.124" transform="translate(-5.914 -21.22)" fill="#dd5f5f"/>
        <path id="Trazado_875131" data-name="Trazado 875131" d="M22.955,55.6s-2.784,6.086-1.464,6.739c2.366,1.171,5.1-5.541,5.1-5.541" transform="translate(-7.466 -19.643)" fill="#fb9c8d"/>
        <path id="Trazado_875132" data-name="Trazado 875132" d="M22.414,55.246a27.918,27.918,0,0,0-1.757,5.084,3.742,3.742,0,0,0-.039,1.447.987.987,0,0,0,.506.7,2.236,2.236,0,0,0,2.569-.748,18.229,18.229,0,0,0,3.04-4.986.372.372,0,0,0-.689-.281,17.108,17.108,0,0,1-2.87,4.734c-.561.547-1.144.9-1.72.614-.1-.05-.117-.179-.136-.333a3.587,3.587,0,0,1,.071-1.011,26.8,26.8,0,0,1,1.7-4.907.372.372,0,1,0-.676-.309" transform="translate(-7.264 -19.439)" fill="#dd5f5f"/>
        <path id="Trazado_875133" data-name="Trazado 875133" d="M38.125,98.213c-6.2.357-20.39,5.818-22.088,6.9l1.844-17.088s-5.489,1.946-13.388,3.855c0,0-5.108,19.719-4.432,25.456.68,5.777,3.547,7.214,6.974,7.112s21.04-1.549,21.04-1.549c8.924-4.081,10.7-13.479,10.05-24.69" transform="translate(0 -31.097)" fill="#ffd568"/>
        <path id="Trazado_875134" data-name="Trazado 875134" d="M43.406,127.1c-.037,5.993-.022,22.808,1.735,24.448,5.36,5,35.154,4.116,38.44,1.876,1.085-.74,2.178-3.151,2.256-5.16l1.928-44.951C76.63,100.125,71.089,99.9,71.089,99.9s-11.98,2.178-17.633,2.5c-5.465,4.609-10,16.384-10.05,24.69" transform="translate(-15.331 -35.292)" fill="#fcc158"/>
        <path id="Trazado_875135" data-name="Trazado 875135" d="M107.307,150.121c1.341,4.182,13.873,33.286,13.873,33.286s8.7-1.217,12.079-6.312c0,0-6.619-35.81-8.41-44.451s-3.5-24.01-15.613-27.475c0,0-9.961,19.911-1.928,44.951" transform="translate(-36.801 -37.152)" fill="#ffd568"/>
        <path id="Trazado_875136" data-name="Trazado 875136" d="M60.448,56.932S28.679,46.517,23.688,25.674,41.666-.484,50.369.034C62.1.731,68.5,3.946,76.729,11.348,81.943,16.035,84.052,23.432,90.5,28.38c5.512,4.234,19.365,10.715,17.641,18.533-1.626,7.374-8.393,13.906-30.117,12.378Z" transform="translate(-8.12 0)" fill="#ca8150"/>
        <path id="Trazado_875137" data-name="Trazado 875137" d="M23.842,26.283q-.081-.3-.154-.609C18.7,4.83,41.666-.484,50.369.034c6.73.4,11.7,1.628,16.276,4a40.11,40.11,0,0,0-18.692-1.77C38.737,3.822,29.066,8.622,25.72,17.844a38.035,38.035,0,0,0-1.878,8.439" transform="translate(-8.12 0)" fill="#cf9a60"/>
        <path id="Trazado_875138" data-name="Trazado 875138" d="M81.856,44.564C93.08,47.306,101.344,53.01,100.3,57.293s-11.009,5.535-22.234,2.794-19.489-8.446-18.442-12.73,11.009-5.535,22.234-2.793" transform="translate(-21.03 -15.229)" fill="#ad6438"/>
        <path id="Trazado_875139" data-name="Trazado 875139" d="M66.742,42.639s-6.522,1.767-8.786,9.813S55.337,66.2,56.04,68.856s3.747,5.909-.1,10.281-3.7,7.467-2.2,12.028,2.66,7.33-1.48,9.843c0,0,10.074,2.542,12.111-6.242S63.108,84.56,66.732,81.612c7.127-5.8,1.854-9.047,1.74-13.432s-1.73-25.542-1.73-25.542" transform="translate(-18.462 -15.063)" fill="#2c2637"/>
        <path id="Trazado_875140" data-name="Trazado 875140" d="M76.633,90.033s.646,7.5-2.859,7.679c0,0-1.643,8.236,3.8,8.421,6.268.214,12.692-7.945,12.692-7.945s-4.128-.409-.615-11.876Z" transform="translate(-25.979 -30.49)" fill="#fba598"/>
        <path id="Trazado_875141" data-name="Trazado 875141" d="M77.418,95.707A15.476,15.476,0,0,0,78,90.033l13.021-3.721A32.459,32.459,0,0,0,89.7,92.325c-3.231,2.244-7.674,4.323-12.278,3.382" transform="translate(-27.349 -30.49)" fill="#ef8b83"/>
        <path id="Trazado_875142" data-name="Trazado 875142" d="M81.888,40.632C90.032,42.564,94.4,52.018,91.864,61.28,88.872,72.205,80.473,75.3,73.072,74.682c-4.657-.391-11.464-5.185-8.417-20.087,3.335-16.313,9.088-15.9,17.233-13.963" transform="translate(-22.572 -14.023)" fill="#fba598"/>
        <path id="Trazado_875143" data-name="Trazado 875143" d="M68.3,47.179c2.9-7.3,6.927-8.069,12.083-7.191l6.736,2.168a14.94,14.94,0,0,1,6.418,9.6c-11.279-6.216-20.725-5.5-25.237-4.572" transform="translate(-24.129 -14.023)" fill="#ef8b83"/>
        <path id="Trazado_875144" data-name="Trazado 875144" d="M99.136,45.49A44.774,44.774,0,0,1,99.1,64.448c-2.337,9.649-5.779,12.83-4.919,17.086s4.272,5.651,2.044,12.167c-2.392,7,1.263,12.862,8.509,11.282,0,0-3.655-2.633-.079-8.327s3.41-7.264,2.407-12.85-2.048-3.772.048-10,3.75-11.2,1.275-19.959-9.243-8.355-9.243-8.355" transform="translate(-33.221 -16.069)" fill="#2c2637"/>
        <path id="Trazado_875145" data-name="Trazado 875145" d="M51.608,42.809c11.22-6.87,39.415-4.036,48.673,13.439L98.152,39.526l-27.593-14.5L54.926,32.011Z" transform="translate(-18.231 -8.842)" fill="#ca8150"/>
        <path id="Trazado_875146" data-name="Trazado 875146" d="M58.972,136a213.607,213.607,0,0,1,10.846-35.574.614.614,0,0,0-1.141-.455A214.746,214.746,0,0,0,57.77,135.746a.614.614,0,0,0,1.2.252" transform="translate(-20.403 -35.178)" fill="#224468"/>
        <path id="Trazado_875147" data-name="Trazado 875147" d="M88.112,136.3c2.456-11.1,4.424-22.866,6.193-34.91a.614.614,0,1,0-1.216-.179c-1.764,12.014-3.728,23.753-6.177,34.823a.614.614,0,0,0,1.2.265" transform="translate(-30.697 -35.569)" fill="#224468"/>
        <path id="Trazado_875148" data-name="Trazado 875148" d="M80.821,155.493a3.083,3.083,0,0,0-2.931-3.226l-14.47-.693a3.083,3.083,0,0,0-3.226,2.932c-.121,2.526-.291,6.087-.412,8.613a3.083,3.083,0,0,0,2.931,3.226l14.47.693a3.083,3.083,0,0,0,3.226-2.931c.121-2.527.291-6.086.412-8.613" transform="translate(-21.117 -53.544)" fill="#356aa3"/>
        <path id="Trazado_875149" data-name="Trazado 875149" d="M76.372,155.28a3.084,3.084,0,0,0-2.932-3.226l-14.47-.693a3.083,3.083,0,0,0-3.226,2.932c-.121,2.526-.292,6.086-.413,8.613a3.082,3.082,0,0,0,2.932,3.226l14.47.693a3.082,3.082,0,0,0,3.226-2.931c.121-2.527.292-6.086.413-8.613" transform="translate(-19.545 -53.468)" fill="#3e7cbf"/>
        <path id="Trazado_875150" data-name="Trazado 875150" d="M64.9,163.142a4.4,4.4,0,0,1,.305-6.378l.058-1.213,3.482.167v.023a4.407,4.407,0,0,1-.419,8.759v.023l-3.482-.166Z" transform="translate(-22.495 -54.95)" fill="#316398"/>
        <path id="Trazado_875151" data-name="Trazado 875151" d="M63.607,155.548a4.407,4.407,0,1,1-4.613,4.192,4.41,4.41,0,0,1,4.613-4.192" transform="translate(-20.838 -54.947)" fill="#6798ce"/>
        <path id="Trazado_875152" data-name="Trazado 875152" d="M64.066,156.971a3.486,3.486,0,1,1-3.649,3.316,3.489,3.489,0,0,1,3.649-3.316" transform="translate(-21.341 -55.45)" fill="#22202d"/>
        <path id="Trazado_875153" data-name="Trazado 875153" d="M63.378,158.7a.838.838,0,1,1-.877.8.838.838,0,0,1,.877-.8" transform="translate(-22.079 -56.063)" fill="#fff"/>
        <path id="Trazado_875154" data-name="Trazado 875154" d="M82.1,155.088a.268.268,0,0,0-.255-.28l-3.926-.188a.268.268,0,0,0-.281.255c-.017.371-.05,1.035-.067,1.406a.268.268,0,0,0,.255.281l3.926.188a.268.268,0,0,0,.281-.255c.017-.371.049-1.035.067-1.406" transform="translate(-27.404 -54.621)" fill="#28507b"/>
        <path id="Trazado_875155" data-name="Trazado 875155" d="M81.938,155.554a.2.2,0,0,0-.192-.211l-3.313-.158a.2.2,0,0,0-.211.192c-.01.208-.025.529-.036.737a.2.2,0,0,0,.192.211l3.314.158a.2.2,0,0,0,.211-.192c.01-.208.026-.529.036-.737" transform="translate(-27.62 -54.82)" fill="#22202d"/>
        <path id="Trazado_875156" data-name="Trazado 875156" d="M80.945,155.8a.176.176,0,0,0-.046-.128.179.179,0,0,0-.123-.058l-1.852-.089a.177.177,0,0,0-.186.169v.012a.177.177,0,0,0,.046.128.175.175,0,0,0,.123.058l1.852.089a.177.177,0,0,0,.186-.169V155.8" transform="translate(-27.815 -54.939)" fill="#fff"/>
        <path id="Trazado_875157" data-name="Trazado 875157" d="M90.386,55.93l.2-1.575a4.188,4.188,0,0,1,4.958,3.124,6.691,6.691,0,0,0-5.158-1.549" transform="translate(-31.93 -19.175)" fill="#403a4a"/>
        <path id="Trazado_875158" data-name="Trazado 875158" d="M72.261,56.623,71.9,54.816a3.971,3.971,0,0,0-4.78,2.54,5.116,5.116,0,0,1,5.146-.733" transform="translate(-23.709 -19.324)" fill="#403a4a"/>
        <path id="Trazado_875159" data-name="Trazado 875159" d="M77.473,79.065a27.83,27.83,0,0,0,7.3-1.8s.958,4.419-2.692,5.14-4.6-3.342-4.6-3.342" transform="translate(-27.368 -27.296)" fill="#fff"/>
        <path id="Trazado_875160" data-name="Trazado 875160" d="M75.669,60.333a7.592,7.592,0,0,1-.935,8.323.986.986,0,0,0-.239.612,3,3,0,0,0,1.174,2.663,2.829,2.829,0,0,1-2.152-2.793.972.972,0,0,1,.352-.733c.854-.768,3.194-3.353,1.8-8.072" transform="translate(-25.97 -21.313)" fill="#dd5f5f"/>
        <path id="Trazado_875161" data-name="Trazado 875161" d="M71.524,64.8a1.143,1.143,0,1,1-.952,1.127,1.05,1.05,0,0,1,.952-1.127" transform="translate(-24.93 -22.89)" fill="#203a5a"/>
        <path id="Trazado_875162" data-name="Trazado 875162" d="M91.337,65.816a1.143,1.143,0,1,1-.952,1.127,1.05,1.05,0,0,1,.952-1.127" transform="translate(-31.929 -23.25)" fill="#203a5a"/>
        <path id="Trazado_875163" data-name="Trazado 875163" d="M31.139,63.709s3.643-9.957,2.908-10.751c-1.857-2.006-5.22,4.871-6.58,7.666a8.185,8.185,0,0,0-4.481,7.182" transform="translate(-8.12 -18.58)" fill="#fb9c8d"/>
        <path id="Trazado_875164" data-name="Trazado 875164" d="M33.55,52.982a1.638,1.638,0,0,1,.019.254,5.75,5.75,0,0,1-.111.869,87.092,87.092,0,0,1-2.872,9.269.372.372,0,0,0,.7.255,88.592,88.592,0,0,0,2.9-9.387,4.654,4.654,0,0,0,.111-1.3.792.792,0,0,0-.183-.442c-.7-.757-1.58-.6-2.5.216-1.705,1.5-3.639,5.393-4.627,7.42a8.612,8.612,0,0,0-4.576,7.439.372.372,0,1,0,.742.05A7.842,7.842,0,0,1,27.4,60.762a.37.37,0,0,0,.193-.181c.936-1.925,2.826-5.823,4.508-7.308.537-.474,1.032-.709,1.444-.291" transform="translate(-7.917 -18.373)" fill="#dd5f5f"/>
      </g>
    </g>
  </g>
</svg>
