<svg xmlns="http://www.w3.org/2000/svg" xmlns:xlink="http://www.w3.org/1999/xlink" width="295" height="194" viewBox="0 0 295 194">
  <defs>
    <clipPath id="clip-path">
      <rect id="Rectángulo_401698" data-name="Rectángulo 401698" width="295" height="194" transform="translate(180 9554)" fill="#feebcf" stroke="#707070" stroke-width="1"/>
    </clipPath>
    <clipPath id="clip-path-2">
      <rect id="Rectángulo_402161" data-name="Rectángulo 402161" width="261.621" height="193.606" fill="none"/>
    </clipPath>
    <clipPath id="clip-path-6">
      <rect id="Rectángulo_402145" data-name="Rectángulo 402145" width="36.671" height="20.346" fill="none"/>
    </clipPath>
    <clipPath id="clip-path-7">
      <rect id="Rectángulo_402146" data-name="Rectángulo 402146" width="5.828" height="5.828" fill="none"/>
    </clipPath>
    <clipPath id="clip-path-9">
      <rect id="Rectángulo_402150" data-name="Rectángulo 402150" width="2.713" height="2.184" fill="none"/>
    </clipPath>
    <clipPath id="clip-path-10">
      <rect id="Rectángulo_402151" data-name="Rectángulo 402151" width="12.654" height="1.261" fill="none"/>
    </clipPath>
    <clipPath id="clip-path-11">
      <rect id="Rectángulo_402152" data-name="Rectángulo 402152" width="7.122" height="7.52" fill="none"/>
    </clipPath>
    <clipPath id="clip-path-13">
      <rect id="Rectángulo_402154" data-name="Rectángulo 402154" width="2.039" height="2.874" fill="none"/>
    </clipPath>
    <clipPath id="clip-path-14">
      <rect id="Rectángulo_402155" data-name="Rectángulo 402155" width="8.337" height="6.948" fill="none"/>
    </clipPath>
    <clipPath id="clip-path-15">
      <rect id="Rectángulo_402156" data-name="Rectángulo 402156" width="2.332" height="1.795" fill="none"/>
    </clipPath>
    <clipPath id="clip-path-16">
      <rect id="Rectángulo_402157" data-name="Rectángulo 402157" width="10.743" height="1.153" fill="none"/>
    </clipPath>
    <clipPath id="clip-path-17">
      <rect id="Rectángulo_402158" data-name="Rectángulo 402158" width="9.832" height="9.741" fill="none"/>
    </clipPath>
  </defs>
  <g id="img23" transform="translate(-180 -9554)" clip-path="url(#clip-path)">
    <g id="Grupo_1100346" data-name="Grupo 1100346" transform="translate(197 9554)">
      <g id="Grupo_1100345" data-name="Grupo 1100345" clip-path="url(#clip-path-2)">
        <g id="Grupo_1100304" data-name="Grupo 1100304">
          <g id="Grupo_1100303" data-name="Grupo 1100303" clip-path="url(#clip-path-2)">
            <path id="Trazado_873710" data-name="Trazado 873710" d="M84.316,247.873a1.866,1.866,0,0,0,.8-.536,1.713,1.713,0,0,0,.389-1.076,2.789,2.789,0,0,0-.128-.736l-.212-.842-2.5-10.092q-.393-1.6-.822-3.346l-.437-1.78a5.184,5.184,0,0,0-.253-.876,1.553,1.553,0,0,0-.585-.647,1.468,1.468,0,0,0-.853-.211,7.725,7.725,0,0,0-.941.217l-1.966.511-4.1,1.065-18.281,4.725a1.539,1.539,0,0,0-1.1,1.742l.571,2.384,1.133,4.682c.741,3.069,1.456,6.031,2.137,8.853l.253,1.052a1.619,1.619,0,0,0,.457.855,1.471,1.471,0,0,0,.851.4,2.562,2.562,0,0,0,.968-.147l3.876-.991,6.957-1.772,10.08-2.545,2.745-.676.716-.168a1.519,1.519,0,0,1,.247-.047,1.347,1.347,0,0,1-.238.078l-.708.2-2.73.735L70.586,251.53l-6.948,1.811-3.872,1.006a2.807,2.807,0,0,1-1.071.159,1.766,1.766,0,0,1-1.019-.48,1.911,1.911,0,0,1-.542-1l-.256-1.05c-.687-2.82-1.408-5.78-2.156-8.849q-.56-2.3-1.138-4.681l-.577-2.408a1.861,1.861,0,0,1,1.333-2.106l18.287-4.7,4.108-1.052,1.968-.5a7.579,7.579,0,0,1,.992-.221,1.744,1.744,0,0,1,1.01.254,1.816,1.816,0,0,1,.682.76,5.307,5.307,0,0,1,.268.93q.217.909.427,1.782l.8,3.35,2.4,10.116.2.846a2.823,2.823,0,0,1,.116.763,1.77,1.77,0,0,1-.436,1.117,1.615,1.615,0,0,1-.605.426.943.943,0,0,1-.242.068" transform="translate(-29.503 -126.666)" fill="#e0e0e0"/>
            <path id="Trazado_873711" data-name="Trazado 873711" d="M86.388,252.012l3.919,1.184-2.938,2.923-2.939,2.924-.98-4.107-.981-4.107Z" transform="translate(-45.925 -139.682)" fill="#e0e0e0"/>
            <rect id="Rectángulo_402137" data-name="Rectángulo 402137" width="39.798" height="31.817" transform="matrix(0.985, -0.172, 0.172, 0.985, 216.933, 127.802)" fill="#ebebeb"/>
            <rect id="Rectángulo_402138" data-name="Rectángulo 402138" width="37.002" height="27.811" transform="translate(218.63 129.538) rotate(-9.928)" fill="#f5f5f5"/>
            <path id="Trazado_873712" data-name="Trazado 873712" d="M504.21,329.954l9.75-19.257,9.751,9.274,4.351-6.632,12.6,10.235Z" transform="translate(-280.785 -173.022)" fill="#e0e0e0"/>
            <path id="Trazado_873713" data-name="Trazado 873713" d="M543.469,298.522a2.913,2.913,0,1,1-3.372-2.368,2.913,2.913,0,0,1,3.372,2.368" transform="translate(-299.427 -164.898)" fill="#e0e0e0"/>
            <rect id="Rectángulo_402139" data-name="Rectángulo 402139" width="21.397" height="26.763" transform="translate(123.81 152.109) rotate(-71.276)" fill="#ebebeb"/>
            <rect id="Rectángulo_402140" data-name="Rectángulo 402140" width="18.703" height="24.883" transform="translate(125.116 151.13) rotate(-71.277)" fill="#f5f5f5"/>
            <path id="Trazado_873714" data-name="Trazado 873714" d="M282.353,330.729l11.963-8.22,2.764,8.616,4.706-2.51,4.133,10.1Z" transform="translate(-157.237 -179.599)" fill="#e0e0e0"/>
            <path id="Trazado_873715" data-name="Trazado 873715" d="M321.977,321.767a1.959,1.959,0,1,1-1.227-2.485,1.959,1.959,0,0,1,1.227,2.485" transform="translate(-177.178 -177.744)" fill="#e0e0e0"/>
            <path id="Trazado_873716" data-name="Trazado 873716" d="M466.259,16.665a17.832,17.832,0,1,1,16.626,18.962,17.832,17.832,0,0,1-16.626-18.962" transform="translate(-259.629 0)" fill="#e0e0e0"/>
            <path id="Trazado_873717" data-name="Trazado 873717" d="M514.292,28.274a3.571,3.571,0,0,1-.63.042l-1.733.035c-1.471.02-3.52.034-5.833.038h-.114v-.115c0-.37,0-.76,0-1.157,0-2.583.013-4.921.034-6.614.015-.816.027-1.491.036-2a4.515,4.515,0,0,1,.045-.735,4.482,4.482,0,0,1,.045.735c.009.513.022,1.188.037,2,.021,1.693.034,4.031.034,6.614,0,.4,0,.787,0,1.157l-.114-.114c2.313,0,4.362.017,5.833.038l1.733.035a3.571,3.571,0,0,1,.63.042" transform="translate(-281.771 -9.893)" fill="#fafafa"/>
            <path id="Trazado_873718" data-name="Trazado 873718" d="M506.219,6.611a4.965,4.965,0,0,1,.115,1.5,4.964,4.964,0,0,1-.115,1.5,4.961,4.961,0,0,1-.115-1.5,4.961,4.961,0,0,1,.115-1.5" transform="translate(-281.84 -3.682)" fill="#fafafa"/>
            <path id="Trazado_873719" data-name="Trazado 873719" d="M522.073,12.037a4.817,4.817,0,0,1-.962,1.126,4.805,4.805,0,0,1-1.126.962A4.818,4.818,0,0,1,520.947,13a4.819,4.819,0,0,1,1.125-.962" transform="translate(-289.568 -6.701)" fill="#fafafa"/>
            <path id="Trazado_873720" data-name="Trazado 873720" d="M532.249,23.743a6.224,6.224,0,0,1-1.229.82,6.206,6.206,0,0,1-1.294.713,3.959,3.959,0,0,1,1.174-.91,3.958,3.958,0,0,1,1.349-.623" transform="translate(-294.994 -13.218)" fill="#fafafa"/>
            <path id="Trazado_873721" data-name="Trazado 873721" d="M536.571,40.988a18.163,18.163,0,0,1-4.085,0,18.163,18.163,0,0,1,4.085,0" transform="translate(-296.531 -22.761)" fill="#fafafa"/>
            <path id="Trazado_873722" data-name="Trazado 873722" d="M472.935,40.373a16.209,16.209,0,0,1-3.858,0,16.208,16.208,0,0,1,3.858,0" transform="translate(-261.22 -22.419)" fill="#fafafa"/>
            <path id="Trazado_873723" data-name="Trazado 873723" d="M478.457,53.454A8.456,8.456,0,0,1,477,54.776a8.442,8.442,0,0,1-1.6,1.143,8.529,8.529,0,0,1,1.458-1.323,8.494,8.494,0,0,1,1.6-1.142" transform="translate(-264.739 -29.766)" fill="#fafafa"/>
            <path id="Trazado_873724" data-name="Trazado 873724" d="M490.881,63.463a13.081,13.081,0,0,1-.992,1.72,13.132,13.132,0,0,1-1.053,1.683,10.192,10.192,0,0,1,2.045-3.4" transform="translate(-272.22 -35.341)" fill="#fafafa"/>
            <path id="Trazado_873725" data-name="Trazado 873725" d="M506.219,71.238A9.137,9.137,0,0,1,506.1,69.2a9.136,9.136,0,0,1,.115-2.043,9.143,9.143,0,0,1,.115,2.043,9.144,9.144,0,0,1-.115,2.042" transform="translate(-281.84 -37.396)" fill="#fafafa"/>
            <path id="Trazado_873726" data-name="Trazado 873726" d="M522.389,66.878a8.806,8.806,0,0,1-3.057-2.665,18.887,18.887,0,0,1,1.525,1.337,18.738,18.738,0,0,1,1.532,1.328" transform="translate(-289.204 -35.758)" fill="#fafafa"/>
            <path id="Trazado_873727" data-name="Trazado 873727" d="M532.361,56.988a7.09,7.09,0,0,1-1.352-1.189,7.1,7.1,0,0,1-1.19-1.353,7.1,7.1,0,0,1,1.353,1.19,7.089,7.089,0,0,1,1.189,1.352" transform="translate(-295.044 -30.318)" fill="#fafafa"/>
            <path id="Trazado_873728" data-name="Trazado 873728" d="M479.083,25.324a5.46,5.46,0,0,1-1.194-1.03,5.467,5.467,0,0,1-1.03-1.194,5.461,5.461,0,0,1,1.193,1.03,5.457,5.457,0,0,1,1.031,1.194" transform="translate(-265.552 -12.862)" fill="#fafafa"/>
            <path id="Trazado_873729" data-name="Trazado 873729" d="M490.642,13.264a5.244,5.244,0,0,1-1.173-1,5.232,5.232,0,0,1-1.01-1.169,5.25,5.25,0,0,1,1.173,1.005,5.251,5.251,0,0,1,1.01,1.169" transform="translate(-272.011 -6.174)" fill="#fafafa"/>
          </g>
        </g>
        <g id="Grupo_1100306" data-name="Grupo 1100306">
          <g id="Grupo_1100305" data-name="Grupo 1100305" clip-path="url(#clip-path-2)">
            <path id="Trazado_873730" data-name="Trazado 873730" d="M260.372,426.187c0,.064-52.494.115-117.233.115-64.761,0-117.244-.051-117.244-.115s52.482-.115,117.244-.115c64.739,0,117.233.051,117.233.115" transform="translate(-14.421 -237.271)" fill="#263238"/>
          </g>
        </g>
        <rect id="Rectángulo_402143" data-name="Rectángulo 402143" width="31.817" height="39.798" transform="translate(14.202 47.25) rotate(-82.33)" fill="#ebebeb"/>
        <g id="Grupo_1100314" data-name="Grupo 1100314">
          <g id="Grupo_1100313" data-name="Grupo 1100313" clip-path="url(#clip-path-2)">
            <path id="Trazado_873731" data-name="Trazado 873731" d="M75.576,40.637s-.067,0-.192-.02l-.554-.069-2.144-.276-8.079-1.06L36.121,35.427l.116-.088L32,66.87v0l-.1-.129,39.439,5.331-.108.082c1.3-9.492,2.376-17.36,3.129-22.863.381-2.751.68-4.91.885-6.388.1-.734.183-1.3.238-1.685s.089-.584.089-.584-.019.189-.066.566l-.214,1.67c-.193,1.475-.475,3.629-.834,6.374-.732,5.52-1.777,13.414-3.038,22.936l-.013.1-.1-.013L31.872,66.972l-.114-.016.016-.114v0c1.538-11.384,2.991-22.143,4.258-31.527l.014-.1.1.014,28.539,3.9,8.048,1.111,2.121.3.541.079c.121.018.179.03.179.03" transform="translate(-17.685 -19.607)" fill="#263238"/>
            <rect id="Rectángulo_402144" data-name="Rectángulo 402144" width="27.811" height="37.002" transform="translate(15.829 45.449) rotate(-82.331)" fill="#ffb937"/>
            <path id="Trazado_873732" data-name="Trazado 873732" d="M35.723,83.2,50.838,67.794l6.49,11.787,6.153-5.005L72.394,88.14Z" transform="translate(-19.893 -37.753)" fill="#ffb937"/>
            <path id="Trazado_873733" data-name="Trazado 873733" d="M88.686,62.342a2.913,2.913,0,1,1-2.5-3.276,2.914,2.914,0,0,1,2.5,3.276" transform="translate(-46.157 -32.878)" fill="#ffb937"/>
            <g id="Grupo_1100309" data-name="Grupo 1100309" transform="translate(15.83 30.041)" opacity="0.2">
              <g id="Grupo_1100308" data-name="Grupo 1100308">
                <g id="Grupo_1100307" data-name="Grupo 1100307" clip-path="url(#clip-path-6)">
                  <path id="Trazado_873734" data-name="Trazado 873734" d="M35.723,83.2,50.838,67.794l6.49,11.787,6.153-5.005L72.394,88.14Z" transform="translate(-35.723 -67.794)"/>
                </g>
              </g>
            </g>
            <g id="Grupo_1100312" data-name="Grupo 1100312" transform="translate(36.728 26.161)" opacity="0.2">
              <g id="Grupo_1100311" data-name="Grupo 1100311">
                <g id="Grupo_1100310" data-name="Grupo 1100310" clip-path="url(#clip-path-7)">
                  <path id="Trazado_873735" data-name="Trazado 873735" d="M88.686,62.342a2.913,2.913,0,1,1-2.5-3.276,2.914,2.914,0,0,1,2.5,3.276" transform="translate(-82.885 -59.039)"/>
                </g>
              </g>
            </g>
            <rect id="Rectángulo_402147" data-name="Rectángulo 402147" width="162.806" height="106.598" transform="translate(52.434 15.514)" fill="#fafafa"/>
            <path id="Trazado_873736" data-name="Trazado 873736" d="M282.262,51.784c0,.064-36.449.115-81.4.115-44.968,0-81.409-.051-81.409-.115s36.441-.115,81.409-.115c44.952,0,81.4.051,81.4.115" transform="translate(-66.521 -28.773)" fill="#263238"/>
            <path id="Trazado_873737" data-name="Trazado 873737" d="M129,42.907a.933.933,0,1,1-.933-.933.933.933,0,0,1,.933.933" transform="translate(-70.799 -23.375)" fill="#263238"/>
            <path id="Trazado_873738" data-name="Trazado 873738" d="M136.611,42.907a.933.933,0,1,1-.933-.933.933.933,0,0,1,.933.933" transform="translate(-75.037 -23.375)" fill="#263238"/>
            <path id="Trazado_873739" data-name="Trazado 873739" d="M144.222,42.907a.933.933,0,1,1-.933-.933.933.933,0,0,1,.933.933" transform="translate(-79.275 -23.375)" fill="#263238"/>
            <rect id="Rectángulo_402148" data-name="Rectángulo 402148" width="55.561" height="3.067" transform="translate(106.785 28.661)" fill="#ebebeb"/>
            <path id="Trazado_873740" data-name="Trazado 873740" d="M282.691,161c0-.694-.034-29.739-.087-77.342l.087.087-145.975.028h-.011l.116-.115c0,27.311-.005,53.474-.008,77.342l-.108-.108L282.691,161l-145.986.108H136.6V161c0-23.868,0-50.031-.007-77.342v-.115h.126l145.975.028h.087v.087c-.053,47.6-.086,76.648-.087,77.342" transform="translate(-76.064 -46.526)" fill="#263238"/>
            <path id="Trazado_873741" data-name="Trazado 873741" d="M177.341,160.8c-.064,0-.065-17.314,0-38.668s.164-38.671.227-38.671.065,17.311,0,38.671-.164,38.668-.228,38.667" transform="translate(-98.73 -46.477)" fill="#263238"/>
            <path id="Trazado_873742" data-name="Trazado 873742" d="M226.217,160.94c-.064,0-.065-17.314,0-38.668s.164-38.671.227-38.671.065,17.311,0,38.671-.164,38.667-.228,38.667" transform="translate(-125.949 -46.556)" fill="#263238"/>
            <path id="Trazado_873743" data-name="Trazado 873743" d="M275.092,161.082c-.064,0-.065-17.315,0-38.668s.164-38.671.227-38.671.065,17.311,0,38.671-.164,38.667-.228,38.667" transform="translate(-153.166 -46.635)" fill="#263238"/>
            <path id="Trazado_873744" data-name="Trazado 873744" d="M323.968,161.223c-.064,0-.065-17.315,0-38.668s.164-38.671.227-38.671.065,17.311,0,38.671-.164,38.667-.228,38.667" transform="translate(-180.384 -46.713)" fill="#263238"/>
            <path id="Trazado_873745" data-name="Trazado 873745" d="M372.843,161.365c-.064,0-.065-17.315,0-38.668s.164-38.671.227-38.671.065,17.311,0,38.671-.164,38.667-.228,38.667" transform="translate(-207.602 -46.792)" fill="#263238"/>
            <path id="Trazado_873746" data-name="Trazado 873746" d="M421.718,161.507c-.064,0-.065-17.315,0-38.668s.164-38.671.227-38.671.065,17.311,0,38.671-.164,38.667-.227,38.667" transform="translate(-234.819 -46.872)" fill="#263238"/>
            <path id="Trazado_873747" data-name="Trazado 873747" d="M283.051,125.862c0,.064-32.644.115-72.9.115s-72.911-.051-72.911-.115,32.638-.115,72.911-.115,72.9.051,72.9.115" transform="translate(-76.425 -70.026)" fill="#263238"/>
            <path id="Trazado_873748" data-name="Trazado 873748" d="M283.051,170.58c0,.064-32.644.115-72.9.115s-72.911-.051-72.911-.115,32.638-.115,72.911-.115,72.9.051,72.9.115" transform="translate(-76.425 -94.929)" fill="#263238"/>
            <path id="Trazado_873749" data-name="Trazado 873749" d="M283.051,215.3c0,.064-32.644.115-72.9.115s-72.911-.051-72.911-.115,32.638-.115,72.911-.115,72.9.051,72.9.115" transform="translate(-76.425 -119.832)" fill="#263238"/>
            <path id="Trazado_873750" data-name="Trazado 873750" d="M139.218,219.423s-1.728,11.219.068,18.21l17.279-.63s-3.544-11.162-1.3-16.741Z" transform="translate(-77.111 -122.192)" fill="#ebebeb"/>
            <path id="Trazado_873751" data-name="Trazado 873751" d="M140.311,218.5s.117,13.785.818,17.99l17.289-.818s-1.519-13.551-.935-17.173Z" transform="translate(-78.136 -121.677)" fill="#ffb937"/>
            <path id="Trazado_873752" data-name="Trazado 873752" d="M158.6,231.541c0,.064-2.59.272-5.794.464s-5.8.3-5.808.234,2.59-.272,5.794-.464,5.8-.3,5.808-.234" transform="translate(-81.863 -128.93)" fill="#fff"/>
            <path id="Trazado_873753" data-name="Trazado 873753" d="M158.615,238.13c0,.064-2.59.272-5.794.464s-5.8.3-5.808.234,2.59-.272,5.794-.464,5.8-.3,5.808-.234" transform="translate(-81.869 -132.6)" fill="#fff"/>
            <path id="Trazado_873754" data-name="Trazado 873754" d="M158.256,244.583a4.085,4.085,0,0,1-.963.14c-.6.057-1.422.12-2.335.175s-1.74.092-2.339.107a4.073,4.073,0,0,1-.973-.023,4.105,4.105,0,0,1,.963-.14c.6-.057,1.422-.119,2.335-.174s1.74-.092,2.339-.107a4.093,4.093,0,0,1,.973.023" transform="translate(-84.449 -136.187)" fill="#fff"/>
            <path id="Trazado_873755" data-name="Trazado 873755" d="M228.761,88.187s-1.419,11.678.377,18.668l16.988-.867s-3.562-11.383-1.317-16.963Z" transform="translate(-127.096 -49.11)" fill="#ebebeb"/>
            <path id="Trazado_873756" data-name="Trazado 873756" d="M229.583,87.261s.117,13.785.818,17.99l17.289-.818s-1.519-13.551-.935-17.172Z" transform="translate(-127.85 -48.594)" fill="#ffb937"/>
            <path id="Trazado_873757" data-name="Trazado 873757" d="M247.876,100.3c0,.064-2.59.272-5.794.464s-5.8.3-5.808.234,2.59-.271,5.794-.464,5.8-.3,5.808-.234" transform="translate(-131.576 -55.847)" fill="#fff"/>
            <path id="Trazado_873758" data-name="Trazado 873758" d="M247.887,106.894c0,.064-2.59.272-5.794.464s-5.8.3-5.808.234,2.59-.272,5.794-.464,5.8-.3,5.808-.234" transform="translate(-131.583 -59.517)" fill="#fff"/>
            <path id="Trazado_873759" data-name="Trazado 873759" d="M247.527,113.347a4.09,4.09,0,0,1-.963.14c-.6.057-1.422.12-2.334.175s-1.741.091-2.34.107a4.076,4.076,0,0,1-.973-.023,4.106,4.106,0,0,1,.963-.14c.6-.057,1.422-.119,2.335-.174s1.74-.092,2.339-.107a4.1,4.1,0,0,1,.974.023" transform="translate(-134.162 -63.104)" fill="#fff"/>
            <path id="Trazado_873760" data-name="Trazado 873760" d="M280.138,217.676s-1.4,12.768.4,19.758l17.06-.746s-3.656-12.595-1.411-18.174Z" transform="translate(-155.715 -121.22)" fill="#ebebeb"/>
            <path id="Trazado_873761" data-name="Trazado 873761" d="M280.943,216.75s.117,13.785.817,17.99l17.29-.818s-1.519-13.551-.935-17.172Z" transform="translate(-156.452 -120.704)" fill="#ffb937"/>
            <path id="Trazado_873762" data-name="Trazado 873762" d="M299.235,229.794c0,.064-2.59.272-5.794.464s-5.8.3-5.808.234,2.59-.272,5.794-.464,5.8-.3,5.808-.234" transform="translate(-160.177 -127.957)" fill="#fff"/>
            <path id="Trazado_873763" data-name="Trazado 873763" d="M299.246,236.383c0,.064-2.59.272-5.794.464s-5.8.3-5.808.234,2.59-.272,5.794-.464,5.8-.3,5.807-.234" transform="translate(-160.183 -131.626)" fill="#fff"/>
            <path id="Trazado_873764" data-name="Trazado 873764" d="M298.887,242.836a4.083,4.083,0,0,1-.963.14c-.6.057-1.422.12-2.335.175s-1.74.092-2.339.107a4.074,4.074,0,0,1-.973-.023,4.106,4.106,0,0,1,.963-.14c.6-.057,1.422-.119,2.335-.174s1.74-.092,2.339-.107a4.066,4.066,0,0,1,.973.023" transform="translate(-162.763 -135.213)" fill="#fff"/>
            <path id="Trazado_873765" data-name="Trazado 873765" d="M426.841,130.011s-1.772,10.961.023,17.952l17.324-.372s-3.545-11.162-1.3-16.742Z" transform="translate(-237.265 -72.401)" fill="#ebebeb"/>
            <path id="Trazado_873766" data-name="Trazado 873766" d="M427.975,129.085s.117,13.785.818,17.99l17.289-.818s-1.519-13.551-.935-17.172Z" transform="translate(-238.331 -71.885)" fill="#ffb937"/>
            <path id="Trazado_873767" data-name="Trazado 873767" d="M446.268,142.128c0,.064-2.59.272-5.794.464s-5.8.3-5.808.234,2.59-.271,5.794-.464,5.8-.3,5.808-.234" transform="translate(-242.057 -79.138)" fill="#fff"/>
            <path id="Trazado_873768" data-name="Trazado 873768" d="M446.278,148.717c0,.064-2.59.272-5.794.464s-5.8.3-5.808.234,2.59-.272,5.794-.464,5.8-.3,5.808-.234" transform="translate(-242.063 -82.807)" fill="#fff"/>
            <path id="Trazado_873769" data-name="Trazado 873769" d="M445.919,155.171a4.081,4.081,0,0,1-.963.14c-.6.057-1.422.12-2.335.174s-1.74.092-2.339.107a4.075,4.075,0,0,1-.973-.023,4.111,4.111,0,0,1,.963-.14c.6-.057,1.422-.119,2.335-.174s1.74-.092,2.339-.107a4.1,4.1,0,0,1,.973.023" transform="translate(-244.643 -86.395)" fill="#fff"/>
            <path id="Trazado_873770" data-name="Trazado 873770" d="M327.8,175.343s-1.772,10.961.023,17.952l17.324-.372s-3.545-11.162-1.3-16.741Z" transform="translate(-182.11 -97.645)" fill="#ebebeb"/>
            <path id="Trazado_873771" data-name="Trazado 873771" d="M328.935,174.417s.117,13.785.818,17.99l17.289-.818s-1.519-13.551-.935-17.172Z" transform="translate(-183.178 -97.129)" fill="#ffb937"/>
            <path id="Trazado_873772" data-name="Trazado 873772" d="M347.227,187.46c0,.064-2.59.272-5.794.464s-5.8.3-5.808.234,2.59-.272,5.794-.464,5.8-.3,5.808-.234" transform="translate(-186.903 -104.382)" fill="#fff"/>
            <path id="Trazado_873773" data-name="Trazado 873773" d="M347.238,194.049c0,.064-2.59.272-5.794.464s-5.8.3-5.808.234,2.59-.271,5.794-.464,5.8-.3,5.807-.234" transform="translate(-186.909 -108.052)" fill="#fff"/>
            <path id="Trazado_873774" data-name="Trazado 873774" d="M346.879,200.5a4.085,4.085,0,0,1-.963.14c-.6.057-1.422.12-2.335.175s-1.74.091-2.339.107a4.073,4.073,0,0,1-.973-.023,4.106,4.106,0,0,1,.963-.14c.6-.057,1.422-.119,2.335-.174s1.74-.092,2.339-.107a4.063,4.063,0,0,1,.973.023" transform="translate(-189.489 -111.639)" fill="#fff"/>
            <path id="Trazado_873775" data-name="Trazado 873775" d="M401.836,134.849l-9.18,4.722-4.437-.629,2.375-4.209,9.682-3.411Z" transform="translate(-216.192 -73.13)" fill="#ebebeb"/>
            <path id="Trazado_873776" data-name="Trazado 873776" d="M387.358,137.472l2.249-3.62,9.946-3.613,2,3.929-9.643,3.852Z" transform="translate(-215.712 -72.528)" fill="#455a64"/>
            <path id="Trazado_873777" data-name="Trazado 873777" d="M403.919,135.5a5.88,5.88,0,0,1-.965.437c-.6.247-1.443.578-2.373.934l-2.389.893c-.608.222-1.007.355-.983.343a16.707,16.707,0,0,1,3.289-1.451,23.356,23.356,0,0,1,3.42-1.155" transform="translate(-221.197 -75.455)" fill="#fff"/>
            <path id="Trazado_873778" data-name="Trazado 873778" d="M403.288,139.525a13.808,13.808,0,0,1-4.425,1.648,101.743,101.743,0,0,1,4.425-1.648" transform="translate(-222.119 -77.695)" fill="#fff"/>
            <path id="Trazado_873779" data-name="Trazado 873779" d="M139.561,128.591s-1.594,15.436.526,18.67l16.034-.989-.853-17.149Z" transform="translate(-77.398 -71.61)" fill="#e0e0e0"/>
            <path id="Trazado_873780" data-name="Trazado 873780" d="M140.283,128.591s.114,13.429.8,17.525l16.842-.8s-1.48-13.2-.911-16.728Z" transform="translate(-78.121 -71.61)" fill="#455a64"/>
            <path id="Trazado_873781" data-name="Trazado 873781" d="M154.264,132.855a.239.239,0,0,1,.062-.006l.182-.007a4.124,4.124,0,0,1,.7.035,3.835,3.835,0,0,1,1.071.319,3.508,3.508,0,0,1,1.166.922,4.053,4.053,0,0,1,.807,1.622,3.915,3.915,0,0,1-.177,2.081,6.12,6.12,0,0,1-.473,1.04,11.083,11.083,0,0,0-.539,1.051,9.009,9.009,0,0,0-.681,2.39l-.008.056h-.054l-1.663.027-1.745.027h-.062l0-.063a4.985,4.985,0,0,0-.809-2.3c-.2-.345-.423-.668-.631-1a9.939,9.939,0,0,1-.592-.965,3.249,3.249,0,0,1-.264-2.051,4.366,4.366,0,0,1,.65-1.678,3.248,3.248,0,0,1,1.1-.987,4.1,4.1,0,0,1,1.034-.4,4.332,4.332,0,0,1,.688-.112c.079,0,.14-.008.18-.007a.22.22,0,0,1,.062,0,.277.277,0,0,1-.061.008l-.179.019a5.069,5.069,0,0,0-.678.133,4.177,4.177,0,0,0-1.013.413,3.2,3.2,0,0,0-1.06.977,4.314,4.314,0,0,0-.62,1.647,3.152,3.152,0,0,0,.266,1.985,9.951,9.951,0,0,0,.59.952c.206.322.43.649.635,1a5.08,5.08,0,0,1,.831,2.361l-.064-.062,1.744-.028,1.663-.026-.062.057a9.075,9.075,0,0,1,.7-2.426,11.059,11.059,0,0,1,.548-1.059,6.068,6.068,0,0,0,.469-1.019,3.82,3.82,0,0,0,.185-2.024,3.987,3.987,0,0,0-.775-1.589,3.471,3.471,0,0,0-1.13-.916,3.886,3.886,0,0,0-1.048-.332,4.7,4.7,0,0,0-.694-.057l-.181,0a.23.23,0,0,1-.062-.006" transform="translate(-83.806 -73.975)" fill="#fff"/>
            <path id="Trazado_873782" data-name="Trazado 873782" d="M157.311,146.248s0-.018-.011-.053-.015-.089-.025-.156l-.092-.6c-.076-.523-.188-1.28-.263-2.222-.018-.236-.035-.483-.044-.74s-.02-.526,0-.805a2.244,2.244,0,0,1,.19-.842,1.276,1.276,0,0,1,.643-.643.86.86,0,0,1,.917.174.642.642,0,0,1,.2.461.82.82,0,0,1-.172.483,1.1,1.1,0,0,1-.4.327,2.141,2.141,0,0,1-.5.166,6.028,6.028,0,0,1-1.063.124,6.172,6.172,0,0,1-1.07-.051,2.024,2.024,0,0,1-.507-.147,1.3,1.3,0,0,1-.424-.3.983.983,0,0,1-.245-.451.76.76,0,0,1,.06-.5.676.676,0,0,1,.352-.343.608.608,0,0,1,.479.022.905.905,0,0,1,.358.3,1.244,1.244,0,0,1,.179.419,5.074,5.074,0,0,1,.085.859c.029.554.056,1.071.081,1.543.047.942.086,1.7.113,2.234.012.262.021.466.028.607,0,.068,0,.121.006.158s0,.054,0,.054,0-.018-.006-.054-.006-.09-.011-.158c-.009-.141-.021-.345-.038-.607-.031-.529-.075-1.292-.129-2.232-.027-.472-.055-.988-.087-1.542a5.022,5.022,0,0,0-.086-.851,1.2,1.2,0,0,0-.173-.4.856.856,0,0,0-.339-.287.56.56,0,0,0-.441-.021.629.629,0,0,0-.325.319.712.712,0,0,0-.055.466.933.933,0,0,0,.232.426,1.522,1.522,0,0,0,.9.432,6.173,6.173,0,0,0,1.06.051,5.992,5.992,0,0,0,1.054-.122,2.1,2.1,0,0,0,.488-.161,1.051,1.051,0,0,0,.387-.312.77.77,0,0,0,.163-.452.589.589,0,0,0-.181-.425.81.81,0,0,0-.864-.165,1.23,1.23,0,0,0-.619.618,2.209,2.209,0,0,0-.188.825c-.016.276-.006.544,0,.8s.023.5.04.739c.07.941.177,1.7.246,2.221l.082.6.02.157c0,.035.005.054.005.054" transform="translate(-85.99 -78.013)" fill="#fff"/>
            <path id="Trazado_873783" data-name="Trazado 873783" d="M155.935,153.988c.008.008.022.209.044.56q.031.61.075,1.459l-.014-.035,1.134,1.306-.059-.025,1.311-.074-.055.028.653-.8.327-.4-.017.051c-.018-.768-.035-1.5-.05-2.159l.071.068-2.449.027H156.2a1.954,1.954,0,0,1-.264-.01,1.223,1.223,0,0,1,.234-.022l.691-.036,2.493-.1.07,0,0,.071c.02.663.042,1.391.065,2.158v.029l-.018.023-.327.4-.654.8-.022.026-.034,0-1.311.064-.036,0-.023-.027-1.112-1.325-.014-.016v-.02q-.009-.872-.015-1.5a4.433,4.433,0,0,1,.011-.526" transform="translate(-86.831 -85.664)" fill="#fff"/>
            <path id="Trazado_873784" data-name="Trazado 873784" d="M159.473,157.939a.755.755,0,0,1-.125-.053c-.078-.035-.194-.085-.34-.135a3.318,3.318,0,0,0-2.355.072c-.143.058-.255.114-.331.155a.752.752,0,0,1-.121.06.6.6,0,0,1,.111-.078,2.678,2.678,0,0,1,.327-.171,3.144,3.144,0,0,1,2.382-.073,2.756,2.756,0,0,1,.337.151.614.614,0,0,1,.115.071" transform="translate(-86.986 -87.719)" fill="#fff"/>
            <path id="Trazado_873785" data-name="Trazado 873785" d="M159.472,156.757a.752.752,0,0,1-.125-.053c-.078-.035-.194-.084-.34-.134a3.315,3.315,0,0,0-2.355.072c-.143.059-.255.114-.331.155a.749.749,0,0,1-.121.06.6.6,0,0,1,.111-.078,2.678,2.678,0,0,1,.327-.171,3.149,3.149,0,0,1,2.382-.073,2.725,2.725,0,0,1,.337.151.614.614,0,0,1,.115.071" transform="translate(-86.985 -87.06)" fill="#fff"/>
            <path id="Trazado_873786" data-name="Trazado 873786" d="M159.4,155.631a.77.77,0,0,1-.125-.052,3.629,3.629,0,0,0-.34-.135,3.315,3.315,0,0,0-2.355.072c-.143.058-.255.114-.331.155a.752.752,0,0,1-.121.06.6.6,0,0,1,.111-.078,2.677,2.677,0,0,1,.327-.171,3.149,3.149,0,0,1,2.382-.073,2.759,2.759,0,0,1,.337.151.635.635,0,0,1,.115.071" transform="translate(-86.946 -86.433)" fill="#fff"/>
            <path id="Trazado_873787" data-name="Trazado 873787" d="M232.342,211.769c.026.008-.016.206-.218.442a2.68,2.68,0,0,1-.969.671,2.935,2.935,0,0,1-1.614.3c-.009-.073.717-.162,1.523-.509a3.6,3.6,0,0,0,.944-.573c.213-.187.3-.344.335-.329" transform="translate(-127.827 -117.929)" fill="#ffb937"/>
            <path id="Trazado_873788" data-name="Trazado 873788" d="M282.123,141.432c0-.748-.036-41.558-.092-106.6l.092.092-162.793.024h-.013l.115-.116c0,37.9-.007,73.976-.009,106.6l-.106-.106,162.806.106-162.806.106h-.106v-.106c0-32.622-.006-68.694-.009-106.6v-.115h.128l162.793.023h.092v.092c-.056,65.04-.091,105.85-.092,106.6" transform="translate(-66.381 -19.334)" fill="#263238"/>
            <path id="Trazado_873789" data-name="Trazado 873789" d="M393.015,232.589l-3.2-5.457-3.038,5.457H343.7V255.11h67.077V232.589Z" transform="translate(-191.4 -126.485)" fill="#ffb937"/>
            <path id="Trazado_873790" data-name="Trazado 873790" d="M362.308,257.28a3.3,3.3,0,0,0,1.994-3.04,3.1,3.1,0,1,0-6.2-.081,3.3,3.3,0,0,0,1.948,3.1c-4.775.678-4.6,5.862-4.6,5.862l11.275.148s.3-5.237-4.419-5.991" transform="translate(-197.944 -139.718)" fill="#fafafa"/>
            <path id="Trazado_873791" data-name="Trazado 873791" d="M429.746,254.366c0,.064-8.561.115-19.12.115s-19.121-.051-19.121-.115,8.559-.115,19.121-.115,19.12.051,19.12.115" transform="translate(-218.022 -141.587)" fill="#fafafa"/>
            <path id="Trazado_873792" data-name="Trazado 873792" d="M429.746,262.115c0,.064-8.561.115-19.12.115s-19.121-.051-19.121-.115,8.559-.115,19.121-.115,19.12.051,19.12.115" transform="translate(-218.022 -145.903)" fill="#fafafa"/>
            <path id="Trazado_873793" data-name="Trazado 873793" d="M429.746,269.865c0,.064-8.561.115-19.12.115s-19.121-.051-19.121-.115,8.559-.115,19.121-.115,19.12.051,19.12.115" transform="translate(-218.022 -150.219)" fill="#fafafa"/>
            <path id="Trazado_873794" data-name="Trazado 873794" d="M410.626,277.535c0,.064-4.281.115-9.56.115s-9.561-.051-9.561-.115,4.28-.115,9.561-.115,9.56.051,9.56.115" transform="translate(-218.022 -154.49)" fill="#fafafa"/>
          </g>
        </g>
        <g id="Grupo_1100325" data-name="Grupo 1100325">
          <g id="Grupo_1100324" data-name="Grupo 1100324" clip-path="url(#clip-path-2)">
            <path id="Trazado_873795" data-name="Trazado 873795" d="M480.233,134.825a2.064,2.064,0,0,1-.471-1.892c-.476-.249-.52-.672-.52-1.21a3.3,3.3,0,0,1,.465-1.527,4.425,4.425,0,0,1,1.727-1.892,2.3,2.3,0,0,1,2.454.108,2.978,2.978,0,0,1,4.265-.3,3.27,3.27,0,0,0,.647.589,3.565,3.565,0,0,0,1.433.192,2.514,2.514,0,0,1,2.08,3.49,2.713,2.713,0,0,1,1.153,2.082,7.9,7.9,0,0,1-.278,2.442,5.634,5.634,0,0,1-1.172,2.763,2.876,2.876,0,0,1-1.839.868,2.934,2.934,0,0,1-2.573-1.21" transform="translate(-266.881 -70.921)" fill="#263238"/>
            <path id="Trazado_873796" data-name="Trazado 873796" d="M491.767,156.351l-7.943-.364c-.045-.843.385-6.057.385-6.057a3.6,3.6,0,0,1-3.039-3.469c-.037-3,.483-9.895.483-9.895a10.432,10.432,0,0,1,10.483,1.318l.445.342Z" transform="translate(-267.953 -75.578)" fill="#b78876"/>
            <path id="Trazado_873797" data-name="Trazado 873797" d="M488.012,166.294a6.982,6.982,0,0,0,3.914-1.112,3.7,3.7,0,0,1-3.921,1.89Z" transform="translate(-271.761 -91.987)" fill="#aa6550"/>
            <path id="Trazado_873798" data-name="Trazado 873798" d="M505.943,148.276c.051-.022,2.063-.61,2,1.442a1.543,1.543,0,0,1-2.114,1.5c0-.059.117-2.946.117-2.946" transform="translate(-281.685 -82.519)" fill="#b78876"/>
            <path id="Trazado_873799" data-name="Trazado 873799" d="M507.294,151.31c.009-.006.035.026.094.056a.36.36,0,0,0,.267.014.885.885,0,0,0,.435-.781,1.183,1.183,0,0,0-.084-.515.414.414,0,0,0-.26-.283.182.182,0,0,0-.214.091c-.03.056-.018.1-.029.1s-.043-.036-.024-.12a.229.229,0,0,1,.085-.126.27.27,0,0,1,.2-.046.5.5,0,0,1,.363.33,1.212,1.212,0,0,1,.105.576.928.928,0,0,1-.549.869.382.382,0,0,1-.325-.065c-.062-.053-.071-.1-.064-.1" transform="translate(-282.501 -83.364)" fill="#aa6550"/>
            <path id="Trazado_873800" data-name="Trazado 873800" d="M483.756,147.762a.429.429,0,0,0,.413.432.41.41,0,0,0,.442-.386.429.429,0,0,0-.413-.433.41.41,0,0,0-.442.387" transform="translate(-269.394 -82.07)" fill="#263238"/>
            <path id="Trazado_873801" data-name="Trazado 873801" d="M483.536,146.595c.053.056.378-.184.839-.183s.8.232.849.175c.024-.025-.03-.126-.177-.233a1.175,1.175,0,0,0-.68-.21,1.13,1.13,0,0,0-.668.216c-.142.109-.19.21-.164.235" transform="translate(-269.268 -81.385)" fill="#263238"/>
            <path id="Trazado_873802" data-name="Trazado 873802" d="M493.952,148.006a.429.429,0,0,0,.413.432.41.41,0,0,0,.442-.386.429.429,0,0,0-.413-.433.41.41,0,0,0-.442.387" transform="translate(-275.072 -82.206)" fill="#263238"/>
            <path id="Trazado_873803" data-name="Trazado 873803" d="M493.769,146.789c.053.056.378-.184.839-.183s.8.232.849.175c.025-.025-.029-.126-.177-.233a1.177,1.177,0,0,0-.68-.21,1.128,1.128,0,0,0-.668.216c-.142.109-.19.21-.164.235" transform="translate(-274.967 -81.493)" fill="#263238"/>
            <path id="Trazado_873804" data-name="Trazado 873804" d="M488.523,150.245a3.055,3.055,0,0,0-.749-.135c-.118-.012-.229-.035-.249-.116a.6.6,0,0,1,.078-.349l.349-.9a15.46,15.46,0,0,0,.782-2.346,15.47,15.47,0,0,0-.97,2.278q-.174.473-.334.9a.685.685,0,0,0-.061.462.3.3,0,0,0,.194.172.8.8,0,0,0,.2.028,2.994,2.994,0,0,0,.759,0" transform="translate(-271.394 -81.528)" fill="#263238"/>
            <path id="Trazado_873805" data-name="Trazado 873805" d="M491.216,155.8c-.075,0-.076.5-.5.852s-.962.3-.966.37c-.007.031.119.1.344.1a1.248,1.248,0,0,0,.806-.28,1.086,1.086,0,0,0,.391-.714c.019-.21-.037-.334-.071-.331" transform="translate(-272.73 -86.76)" fill="#263238"/>
            <path id="Trazado_873806" data-name="Trazado 873806" d="M493.507,142.84c.046.125.506.066,1.047.131s.979.213,1.051.1c.032-.054-.044-.171-.221-.293a1.834,1.834,0,0,0-1.6-.177c-.2.08-.3.179-.279.238" transform="translate(-274.823 -79.352)" fill="#263238"/>
            <path id="Trazado_873807" data-name="Trazado 873807" d="M483.913,143.548c.081.1.4,0,.781-.009s.705.07.78-.039c.033-.053-.018-.158-.16-.257a1.132,1.132,0,0,0-1.258.039c-.135.108-.18.216-.144.267" transform="translate(-269.475 -79.673)" fill="#263238"/>
            <path id="Trazado_873808" data-name="Trazado 873808" d="M492.1,136.661a21.739,21.739,0,0,1,0,2.708c-.023.13-.36.476-.39.6-.176.76-.492,1.086-.944.3a6.876,6.876,0,0,1-.353-1.48l-.546-2.772a4.8,4.8,0,0,1-2.282.541,2.334,2.334,0,0,1-1.951-1.151,2.421,2.421,0,0,1-3.756.493,1.011,1.011,0,0,1-1.337.285,1.2,1.2,0,0,1-.487-1.324,2.311,2.311,0,0,1,1.721-1.345,11.073,11.073,0,0,1,8.579,1.324,4.356,4.356,0,0,1,1.036.781c.293.32.7.7.712,1.13" transform="translate(-267.307 -74.15)" fill="#263238"/>
            <path id="Trazado_873809" data-name="Trazado 873809" d="M457.509,188.449l3.069-8.347a7.969,7.969,0,0,0-6.115-5.073,20.153,20.153,0,0,0-3.186-.61h0a6.268,6.268,0,0,1-7.651.094l-.109-.082c-.307.037-.715.077-1.226.137l-.1.012a7.486,7.486,0,0,0-3.513,1.4v-.005l-15.984,9.541-9.386-7.136-4.756,3.727s12.3,12.3,13.492,12.589c.826.2,9.029-4.275,14-7.05-.2,2.978-1.314,19.528-1.26,21.79h22.839L457.64,199l0-2.841Z" transform="translate(-227.515 -97.131)" fill="#455a64"/>
            <path id="Trazado_873810" data-name="Trazado 873810" d="M498.914,204.9s11.124,4.9,12.187,5.136c3.529.775,6.774-2.185,6.258-4.972-.268-1.449-6.528-18.658-6.528-18.658l-4.488,6.679,2.238,8.758-6.767-.865Z" transform="translate(-277.836 -103.805)" fill="#455a64"/>
            <path id="Trazado_873811" data-name="Trazado 873811" d="M508.77,227.489a.893.893,0,0,0-.179-.1l-.532-.259-1.994-.931-6.81-3.108.046.139,1.3-2.331.81-1.452-.1.051,8.142.8,2.42.217.654.049a1.015,1.015,0,0,0,.228,0,1.045,1.045,0,0,0-.225-.042l-.65-.084-2.414-.278-8.135-.866-.066-.007-.033.058-.811,1.451-1.3,2.333-.053.1.1.044,6.839,3.045,2.019.877.546.228a.876.876,0,0,0,.195.068" transform="translate(-277.924 -122.118)" fill="#263238"/>
            <path id="Trazado_873812" data-name="Trazado 873812" d="M491.015,212.752l.953-4.636s-11.73-.153-11.6.054,1.24,10.63,1.24,10.63,8.248-.313,7.945-.284Z" transform="translate(-267.507 -115.865)" fill="#263238"/>
            <path id="Trazado_873813" data-name="Trazado 873813" d="M492.693,213.877h0a1.091,1.091,0,0,0-1.02.7,2.36,2.36,0,0,1-.7,1.111,2.465,2.465,0,0,1-1.855.274c-.464-.227-2.319-1.9-2.643-1.711s-.6.6-.278.974,2.041,1.484,1.716,1.855-3.942-1.262-4.5-1.118-.881.486-.557.709,2.782,1.15,2.922,1.475c0,0-3.71-.974-3.849-.742s-.371.6,0,.742,3.571.974,3.849,1.114a6.764,6.764,0,0,0,1.43.417,15.289,15.289,0,0,1,1.495.474,3.275,3.275,0,0,0,2.307-.062l.375-.153a1.472,1.472,0,0,0,.915-1.452l-.076-1.265.4-1.044Z" transform="translate(-268.268 -119.104)" fill="#b78876"/>
            <path id="Trazado_873814" data-name="Trazado 873814" d="M519.009,206.2c-.064,0-.115-2.664-.115-5.949s.051-5.95.115-5.95.115,2.663.115,5.95-.051,5.949-.115,5.949" transform="translate(-288.962 -108.204)" fill="#263238"/>
            <path id="Trazado_873815" data-name="Trazado 873815" d="M470.324,188.309a2.529,2.529,0,0,1,.016.549c-.012.4-.026.9-.043,1.489-.047,1.257-.127,2.992-.23,4.907s-.209,3.65-.3,4.9c-.046.59-.085,1.087-.117,1.485a2.482,2.482,0,0,1-.074.543,2.468,2.468,0,0,1-.016-.547c.012-.4.026-.9.043-1.488.047-1.257.127-2.993.23-4.91s.209-3.65.3-4.9c.046-.59.085-1.087.117-1.484a2.461,2.461,0,0,1,.074-.542" transform="translate(-261.489 -104.866)" fill="#263238"/>
            <path id="Trazado_873816" data-name="Trazado 873816" d="M492.545,194.157c0,.064-4.652.115-10.389.115s-10.39-.051-10.39-.115,4.651-.115,10.39-.115,10.389.051,10.389.115" transform="translate(-262.717 -108.058)" fill="#fff"/>
            <path id="Trazado_873817" data-name="Trazado 873817" d="M492.233,196.773c0,.064-4.723.116-10.547.116s-10.548-.051-10.548-.116,4.721-.115,10.548-.115,10.547.051,10.547.115" transform="translate(-262.368 -109.515)" fill="#fff"/>
            <path id="Trazado_873818" data-name="Trazado 873818" d="M493.028,200.126c0,.064-4.652.115-10.389.115s-10.39-.051-10.39-.115,4.651-.115,10.39-.115,10.389.051,10.389.115" transform="translate(-262.986 -111.382)" fill="#fff"/>
            <path id="Trazado_873819" data-name="Trazado 873819" d="M512.4,221.182a83.816,83.816,0,0,1-2.655,4.984,21.905,21.905,0,0,1,2.655-4.984" transform="translate(-283.867 -123.172)" fill="#263238"/>
            <path id="Trazado_873820" data-name="Trazado 873820" d="M515.062,221.9a21.151,21.151,0,0,1-2.844,4.935,105.767,105.767,0,0,1,2.844-4.935" transform="translate(-285.243 -123.572)" fill="#263238"/>
            <path id="Trazado_873821" data-name="Trazado 873821" d="M418.961,187.936a18.408,18.408,0,0,1-2.3,2.184,21.655,21.655,0,0,1-2.463,2,22.1,22.1,0,0,1,2.311-2.17c.658-.575,1.262-1.087,1.706-1.451a4.71,4.71,0,0,1,.742-.559" transform="translate(-230.66 -104.658)" fill="#263238"/>
            <path id="Trazado_873822" data-name="Trazado 873822" d="M421.374,189.772a23.135,23.135,0,0,1-2.327,2.2c-.662.586-1.27,1.106-1.718,1.474a3.849,3.849,0,0,1-.756.561,3.808,3.808,0,0,1,.648-.682c.42-.4,1.011-.94,1.674-1.526s1.271-1.106,1.721-1.471a3.849,3.849,0,0,1,.759-.557" transform="translate(-231.98 -105.679)" fill="#263238"/>
            <path id="Trazado_873823" data-name="Trazado 873823" d="M472.609,417.011,472.586,413l7.506-.091.1,5.862-.465.035c-2.07.14-10.534.566-11.923.164-1.55-.45,4.81-1.963,4.81-1.963" transform="translate(-260.373 -229.943)" fill="#ffb937"/>
            <g id="Grupo_1100317" data-name="Grupo 1100317" transform="translate(217.093 186.622)" opacity="0.4">
              <g id="Grupo_1100316" data-name="Grupo 1100316">
                <g id="Grupo_1100315" data-name="Grupo 1100315" clip-path="url(#clip-path-9)">
                  <path id="Trazado_873824" data-name="Trazado 873824" d="M489.919,423.339a2.6,2.6,0,0,1,.938-1.612,2.531,2.531,0,0,1,1.748-.567l.027,2.1Z" transform="translate(-489.919 -421.155)"/>
                </g>
              </g>
            </g>
            <g id="Grupo_1100320" data-name="Grupo 1100320" transform="translate(207.161 187.918)" opacity="0.4">
              <g id="Grupo_1100319" data-name="Grupo 1100319">
                <g id="Grupo_1100318" data-name="Grupo 1100318" clip-path="url(#clip-path-10)">
                  <path id="Trazado_873825" data-name="Trazado 873825" d="M469.476,424.081s-2.228.672-1.944,1.036,8.853.256,12.628-.123l-.014-.167-9.995.212s-.238-.945-.676-.958" transform="translate(-467.506 -424.081)"/>
                </g>
              </g>
            </g>
            <path id="Trazado_873826" data-name="Trazado 873826" d="M480.29,425.746a.7.7,0,0,1-.129.016l-.37.027-1.363.076c-1.152.056-2.744.113-4.5.136s-3.353.01-4.506-.015l-1.365-.039-.371-.017a.72.72,0,0,1-.129-.012.741.741,0,0,1,.13-.006h.371l1.365.011c1.153.008,2.745.012,4.5-.012s3.35-.07,4.5-.11l1.364-.047.371-.01a.692.692,0,0,1,.13,0" transform="translate(-260.371 -237.088)" fill="#263238"/>
            <path id="Trazado_873827" data-name="Trazado 873827" d="M472.559,425.041a1.987,1.987,0,0,0-.735-1.165,1.213,1.213,0,0,1,.735,1.165" transform="translate(-262.75 -236.047)" fill="#263238"/>
            <path id="Trazado_873828" data-name="Trazado 873828" d="M477.935,423.127c-.021.014-.128-.114-.24-.285s-.185-.321-.164-.335.129.114.241.285.185.321.164.335" transform="translate(-265.926 -235.286)" fill="#263238"/>
            <path id="Trazado_873829" data-name="Trazado 873829" d="M479.213,422.64c-.016.019-.136-.058-.267-.173s-.223-.222-.207-.241.136.058.267.173.223.222.207.242" transform="translate(-266.6 -235.128)" fill="#263238"/>
            <path id="Trazado_873830" data-name="Trazado 873830" d="M479.671,421.509a1.725,1.725,0,1,1-.393-.036.885.885,0,0,1,.393.036" transform="translate(-266.683 -234.71)" fill="#263238"/>
            <path id="Trazado_873831" data-name="Trazado 873831" d="M479.826,420.415a1.107,1.107,0,0,1-.888.078,2.389,2.389,0,0,1,.444-.036,2.43,2.43,0,0,1,.444-.042" transform="translate(-266.711 -234.117)" fill="#263238"/>
            <path id="Trazado_873832" data-name="Trazado 873832" d="M476.071,421.6a1.4,1.4,0,0,1-.483,0,2.8,2.8,0,0,1-.515-.107,1.391,1.391,0,0,1-.3-.117.259.259,0,0,1-.121-.148.19.19,0,0,1,.07-.194.884.884,0,0,1,1.1.245.869.869,0,0,1,.162.32.269.269,0,0,1,.014.13,1.367,1.367,0,0,0-.225-.409.871.871,0,0,0-.416-.262.747.747,0,0,0-.574.047c-.076.058-.045.147.041.2a1.433,1.433,0,0,0,.273.113,3.252,3.252,0,0,0,.5.123c.29.048.474.046.474.061" transform="translate(-264.324 -234.414)" fill="#263238"/>
            <path id="Trazado_873833" data-name="Trazado 873833" d="M477.495,421.314a.478.478,0,0,1-.06-.334.789.789,0,0,1,.127-.354.485.485,0,0,1,.4-.251.192.192,0,0,1,.152.221.528.528,0,0,1-.079.216,1.445,1.445,0,0,1-.224.3.7.7,0,0,1-.273.2c-.008-.012.1-.088.226-.242a1.7,1.7,0,0,0,.2-.292c.065-.1.108-.287-.013-.307s-.243.112-.315.209a.794.794,0,0,0-.132.315,1.746,1.746,0,0,0,0,.325" transform="translate(-265.872 -234.099)" fill="#263238"/>
            <path id="Trazado_873834" data-name="Trazado 873834" d="M492.572,421.063c0,.017-.216-.018-.554.027a2.353,2.353,0,0,0-1.947,1.592c-.11.323-.118.539-.136.538a.438.438,0,0,1,0-.152,1.942,1.942,0,0,1,.076-.405,2.282,2.282,0,0,1,2-1.636,1.933,1.933,0,0,1,.413.005.447.447,0,0,1,.148.032" transform="translate(-272.833 -234.456)" fill="#263238"/>
            <path id="Trazado_873835" data-name="Trazado 873835" d="M494.02,414.094a26.212,26.212,0,0,1,.078,3.084,26.2,26.2,0,0,1-.078-3.084" transform="translate(-275.098 -230.601)" fill="#263238"/>
            <path id="Trazado_873836" data-name="Trazado 873836" d="M485.011,424.449a6.163,6.163,0,0,1-2.193.049c0-.027.492,0,1.1-.017s1.093-.058,1.1-.032" transform="translate(-268.872 -236.363)" fill="#263238"/>
            <path id="Trazado_873837" data-name="Trazado 873837" d="M490.822,424.409c.019.018-.039.1-.087.218s-.075.213-.1.212-.04-.118.017-.248.154-.2.171-.181" transform="translate(-273.212 -236.343)" fill="#263238"/>
            <path id="Trazado_873838" data-name="Trazado 873838" d="M491.964,422.835c.018.017-.03.1-.106.176s-.154.13-.171.113.029-.1.106-.175.153-.13.172-.113" transform="translate(-273.808 -235.467)" fill="#263238"/>
            <path id="Trazado_873839" data-name="Trazado 873839" d="M493.563,422.053c0,.026-.1.026-.214.066s-.188.1-.208.083.041-.121.178-.169.252,0,.245.019" transform="translate(-274.618 -235.01)" fill="#263238"/>
            <path id="Trazado_873840" data-name="Trazado 873840" d="M495.085,421.732c.009.023-.033.063-.1.087s-.12.026-.129,0,.034-.062.1-.087.12-.027.129,0" transform="translate(-275.578 -234.845)" fill="#263238"/>
            <path id="Trazado_873841" data-name="Trazado 873841" d="M530.417,416.412l.716,3s4.914,6.382,6.429,6.07c.993-.2-.227-1.87-2.1-6.718l-.392-2Z" transform="translate(-295.379 -231.892)" fill="#ffb937"/>
            <path id="Trazado_873842" data-name="Trazado 873842" d="M538.545,427.414a.638.638,0,0,1-.262.251.91.91,0,0,1-.941-.131,27.376,27.376,0,0,1-2.445-2.318c-.91-.955-1.675-1.873-2.212-2.55l-.627-.809-.17-.22a.4.4,0,0,0-.064-.074.418.418,0,0,0,.05.084l.157.23c.139.2.344.482.606.827a31.713,31.713,0,0,0,2.2,2.573,23.955,23.955,0,0,0,2.475,2.309,1.162,1.162,0,0,0,.555.2.806.806,0,0,0,.436-.095.551.551,0,0,0,.206-.192.273.273,0,0,0,.039-.09" transform="translate(-296.162 -234.761)" fill="#263238"/>
            <path id="Trazado_873843" data-name="Trazado 873843" d="M542.768,430.074a.8.8,0,0,0-.4-.045,2.111,2.111,0,0,0-.926.322,1.7,1.7,0,0,0-.673.712.88.88,0,0,0-.106.393c.015,0,.047-.149.162-.364a1.806,1.806,0,0,1,.664-.665,2.332,2.332,0,0,1,.886-.335c.242-.034.4,0,.4-.018" transform="translate(-301.081 -239.473)" fill="#263238"/>
            <path id="Trazado_873844" data-name="Trazado 873844" d="M532.878,422.953a.5.5,0,0,0,.059-.144,2.674,2.674,0,0,0,.1-.412,2.235,2.235,0,0,0-.229-1.367,2.111,2.111,0,0,0-.993-.966,1.642,1.642,0,0,0-.406-.125.442.442,0,0,0-.155-.01,3.415,3.415,0,0,1,.534.191,2.172,2.172,0,0,1,.941.949,2.312,2.312,0,0,1,.246,1.319c-.04.348-.109.559-.094.563" transform="translate(-295.843 -233.85)" fill="#263238"/>
            <path id="Trazado_873845" data-name="Trazado 873845" d="M531.12,417.563c-.022.008.09.428.181.958a3.274,3.274,0,0,0,.256.945c.019-.008-.079-.428-.169-.962a3.188,3.188,0,0,0-.268-.942" transform="translate(-295.769 -232.533)" fill="#263238"/>
            <path id="Trazado_873846" data-name="Trazado 873846" d="M540.5,422.643a1.479,1.479,0,0,0-1.2.276c.013.023.259-.109.59-.183s.608-.067.61-.094" transform="translate(-300.325 -235.341)" fill="#263238"/>
            <path id="Trazado_873847" data-name="Trazado 873847" d="M540.981,423.786a1,1,0,0,0-1,.237c.015.021.211-.107.487-.17s.506-.041.51-.067" transform="translate(-300.706 -235.97)" fill="#263238"/>
            <path id="Trazado_873848" data-name="Trazado 873848" d="M541.841,425.19a.806.806,0,0,0-1.016.23,2.316,2.316,0,0,1,.485-.215,2.284,2.284,0,0,1,.53-.016" transform="translate(-301.175 -236.728)" fill="#263238"/>
            <path id="Trazado_873849" data-name="Trazado 873849" d="M538.993,420.648c0-.015-.227-.062-.577-.2a4.4,4.4,0,0,1-.593-.285c-.107-.062-.218-.132-.326-.209s-.21-.183-.206-.3.149-.18.262-.152a.713.713,0,0,1,.3.2c.181.171.336.333.461.473.251.281.39.469.4.461a.542.542,0,0,0-.083-.143c-.059-.088-.15-.212-.271-.359a6.268,6.268,0,0,0-.452-.491.78.78,0,0,0-.341-.228.287.287,0,0,0-.37.231.491.491,0,0,0,.244.374,3.8,3.8,0,0,0,.337.21,3.877,3.877,0,0,0,.611.273,3.379,3.379,0,0,0,.435.118.526.526,0,0,0,.164.02" transform="translate(-299.157 -233.562)" fill="#263238"/>
            <path id="Trazado_873850" data-name="Trazado 873850" d="M540.653,420.03c.015,0,.035-.212.09-.549a2.312,2.312,0,0,1,.167-.568,1.229,1.229,0,0,1,.183-.289c.075-.085.189-.158.281-.1s.1.188.091.3a1.35,1.35,0,0,1-.1.33,1.888,1.888,0,0,1-.321.495c-.228.253-.406.374-.4.387a.428.428,0,0,0,.13-.077,2.257,2.257,0,0,0,.312-.268,1.813,1.813,0,0,0,.35-.5,1.387,1.387,0,0,0,.107-.352.376.376,0,0,0-.134-.388.326.326,0,0,0-.388.124,1.263,1.263,0,0,0-.193.314,2.161,2.161,0,0,0-.155.592c-.022.172-.028.312-.032.408a.486.486,0,0,0,0,.15" transform="translate(-301.076 -233.006)" fill="#263238"/>
            <g id="Grupo_1100323" data-name="Grupo 1100323" transform="translate(235.408 186.081)" opacity="0.4">
              <g id="Grupo_1100322" data-name="Grupo 1100322">
                <g id="Grupo_1100321" data-name="Grupo 1100321" clip-path="url(#clip-path-11)">
                  <path id="Trazado_873851" data-name="Trazado 873851" d="M531.6,421.378l-.346-1.444s1.2.223,1.516,1.124A3.783,3.783,0,0,1,533,422.6l2.617,2.819s.657-1.283,1.846-.974a12.317,12.317,0,0,1,.907,2.574c-.031.567-.628.453-.842.357a10.59,10.59,0,0,1-2.344-1.85c-1.386-1.439-2.918-3.264-3.59-4.148" transform="translate(-531.251 -419.934)"/>
                </g>
              </g>
            </g>
            <path id="Trazado_873852" data-name="Trazado 873852" d="M467.532,248.974l3.577,75.657,9.822.234-.773-65.6,14.7,65.723,7.889-.356-12.641-75.5Z" transform="translate(-260.359 -138.649)" fill="#263238"/>
            <path id="Trazado_873853" data-name="Trazado 873853" d="M490.58,251.277a7.426,7.426,0,0,0,.089,1.244c.081.766.207,1.821.358,2.984a12.456,12.456,0,0,0,.273,1.645,2.314,2.314,0,0,0,.721,1.175,1.8,1.8,0,0,0,.834.41.674.674,0,0,0,.34.007,2.1,2.1,0,0,1-1.711-1.643,14.56,14.56,0,0,1-.252-1.62c-.152-1.164-.3-2.216-.418-2.976a7.462,7.462,0,0,0-.233-1.225" transform="translate(-273.189 -139.931)" fill="#455a64"/>
            <path id="Trazado_873854" data-name="Trazado 873854" d="M494.962,252.032c-.026.018.065.142,0,.339a.4.4,0,0,1-.2.244.354.354,0,0,1-.446-.422.4.4,0,0,1,.232-.218c.192-.073.321.011.338-.016.025-.01-.1-.175-.377-.124a.516.516,0,0,0-.369.286.529.529,0,0,0,.7.666.517.517,0,0,0,.265-.384c.036-.278-.136-.395-.145-.37" transform="translate(-275.155 -140.236)" fill="#455a64"/>
            <path id="Trazado_873855" data-name="Trazado 873855" d="M509.915,252.6a2.2,2.2,0,0,0-.146-2.095c-.056.023.1.471.133,1.043s-.046,1.036.013,1.052" transform="translate(-283.874 -139.502)" fill="#455a64"/>
            <path id="Trazado_873856" data-name="Trazado 873856" d="M506.841,252.175a2.556,2.556,0,0,0-.072-2.181,15.537,15.537,0,0,1,.072,2.181" transform="translate(-282.201 -139.217)" fill="#455a64"/>
            <path id="Trazado_873857" data-name="Trazado 873857" d="M479.392,251.759a82.581,82.581,0,0,1-.033-2.263,3.1,3.1,0,0,0,.033,2.263" transform="translate(-266.835 -138.94)" fill="#455a64"/>
            <path id="Trazado_873858" data-name="Trazado 873858" d="M475.829,251.381c.057-.022-.107-.52-.125-1.152s.107-1.14.049-1.158a2.431,2.431,0,0,0,.076,2.31" transform="translate(-264.795 -138.702)" fill="#455a64"/>
            <path id="Trazado_873859" data-name="Trazado 873859" d="M505.722,174.163h0" transform="translate(-281.626 -96.988)" fill="#ffb937"/>
            <path id="Trazado_873860" data-name="Trazado 873860" d="M403.856,178.315a30.322,30.322,0,0,0-2.242-3.388,20.774,20.774,0,0,0-4.556-1.537c-.321.107-4.893.966-4.358,1.5s3.723-.108,3.723-.108l.432.207a19.652,19.652,0,0,0-3.33.832c-.53.318-.336.97.169.909s2.9-.565,3.041-.469-2.6.691-2.893.871c-.4.242-.423.952.079.909.3-.025,2.882-.739,2.882-.739a22.192,22.192,0,0,0-2.232,1.011c-.306.3-.052.744.392.639.3-.073,1.748-.79,2.157-.886,0,0,.385.1.746.865a11.779,11.779,0,0,0,2.276,2.292Z" transform="translate(-218.663 -96.554)" fill="#b78876"/>
            <path id="Trazado_873861" data-name="Trazado 873861" d="M392.776,176.47a2.127,2.127,0,0,0,.839.217,4.932,4.932,0,0,0,.945.023c.35-.045.732-.105,1.134-.167l.853-.139-.052,0a12.4,12.4,0,0,0,1.987.588,12.3,12.3,0,0,0-1.921-.783l-.023-.008-.029,0-.847.129-1.12.183a6.127,6.127,0,0,1-.915.022c-.523-.027-.845-.1-.853-.065" transform="translate(-218.729 -98.121)" fill="#aa6550"/>
            <path id="Trazado_873862" data-name="Trazado 873862" d="M379.717,171.886s-3.305,10.027-4.416,12.053l11.257,3.44,2.046-1.306s2.733-8.077,3.081-10.789Z" transform="translate(-208.998 -95.72)" fill="#455a64"/>
            <path id="Trazado_873863" data-name="Trazado 873863" d="M401.3,203.064l-.595,1.678,2.047-1.306Z" transform="translate(-223.144 -113.083)" fill="#263238"/>
            <path id="Trazado_873864" data-name="Trazado 873864" d="M394.648,183.852a8.031,8.031,0,0,1-1.261-.4l-3.009-1.033-3.024-.991a8.1,8.1,0,0,1-1.244-.445,6.991,6.991,0,0,1,1.29.289c.788.212,1.87.533,3.05.929s2.236.793,2.993,1.1a7.01,7.01,0,0,1,1.2.548" transform="translate(-215.018 -100.785)" fill="#fff"/>
            <path id="Trazado_873865" data-name="Trazado 873865" d="M392.911,189.176a6.507,6.507,0,0,1-1.236-.277c-.755-.2-1.791-.509-2.925-.881s-2.149-.74-2.878-1.024a6.545,6.545,0,0,1-1.16-.51,7.326,7.326,0,0,1,1.215.357l2.895.959,2.9.944a7.261,7.261,0,0,1,1.19.434" transform="translate(-214.239 -103.847)" fill="#fff"/>
            <path id="Trazado_873866" data-name="Trazado 873866" d="M391.219,193.972a67.971,67.971,0,0,1-7.5-2.528,67.971,67.971,0,0,1,7.5,2.528" transform="translate(-213.687 -106.609)" fill="#fff"/>
            <path id="Trazado_873867" data-name="Trazado 873867" d="M408.572,182.276a.914.914,0,0,1-1.065.016c-.33-.191-.585-.488-.9-.7-.943-.642-2.284-.464-3.2-1.149-.127-.1-.253-.253-.187-.4s.241-.152.388-.151l3.778.028" transform="translate(-224.538 -100.178)" fill="#b78876"/>
            <path id="Trazado_873868" data-name="Trazado 873868" d="M407.257,179.79a1.509,1.509,0,0,0-.408-.045c-.263-.015-.643-.029-1.114-.043l-1.652-.035-.478-.007a.75.75,0,0,0-.553.125.319.319,0,0,0-.056.353.656.656,0,0,0,.194.241,2.468,2.468,0,0,0,.479.284,14.513,14.513,0,0,0,1.966.527,2.859,2.859,0,0,1,.781.34c.222.146.408.324.6.471a1.329,1.329,0,0,0,1.068.358c.278-.058.367-.211.358-.212a1.105,1.105,0,0,1-.37.129,1.288,1.288,0,0,1-.959-.393c-.177-.148-.358-.335-.594-.5a2.931,2.931,0,0,0-.824-.382,16.916,16.916,0,0,1-1.933-.533,2.348,2.348,0,0,1-.434-.255c-.124-.1-.186-.229-.12-.281.063-.069.237-.067.4-.065h.478l1.652-.011c.47-.006.851-.015,1.114-.026a1.508,1.508,0,0,0,.409-.039" transform="translate(-224.405 -100.049)" fill="#aa6550"/>
          </g>
        </g>
        <g id="Grupo_1100342" data-name="Grupo 1100342">
          <g id="Grupo_1100341" data-name="Grupo 1100341" clip-path="url(#clip-path-2)">
            <path id="Trazado_873869" data-name="Trazado 873869" d="M207.768,139.152a3.442,3.442,0,0,0-1.406-3.447,3.706,3.706,0,0,0-3.749-.2,4.016,4.016,0,0,0-2.069,3.167,9.34,9.34,0,0,0,1.117,4.272,6.269,6.269,0,0,1,.592,4.322,8.7,8.7,0,0,1-2.208,2.9,5.926,5.926,0,0,0-1.659,2.853,2.7,2.7,0,0,0,1.2,2.885,1.6,1.6,0,0,1,.628.41c.273.39-.015.906-.2,1.343a3.059,3.059,0,0,0-.1,2.078,3.628,3.628,0,0,0,3.642,2.352,5.1,5.1,0,0,0,3.827-2.373,8.767,8.767,0,0,0,1.286-4.432,33.2,33.2,0,0,0-.26-4.659c-.363-3.892,1.455-7.917,1.65-11.821" transform="translate(-110.449 -75.231)" fill="#263238"/>
            <path id="Trazado_873870" data-name="Trazado 873870" d="M223.381,167.457h0a3.9,3.9,0,0,0,4.191-3.735c.082-2.121.152-4.264.152-4.264a3.828,3.828,0,0,0,3.447-3.481c.233-3.18.126-10.522.126-10.522a11.082,11.082,0,0,0-11.2.72l.2,11.192v6.021c.021,2.02,1.071,3.914,3.085,4.069" transform="translate(-122.568 -80.342)" fill="#ffbe9d"/>
            <path id="Trazado_873871" data-name="Trazado 873871" d="M225.925,148.743a1.63,1.63,0,0,0-2.173-.475,1.849,1.849,0,0,0-.616,2.311,2.437,2.437,0,0,0,1.56,1.18,1.221,1.221,0,0,1,.956,1.315,4.068,4.068,0,0,1-1.117,2.215,5.87,5.87,0,0,1-3.681,1.744,3.9,3.9,0,0,1-3.694-1.235,5.05,5.05,0,0,1-.635-2.861q-.073-3.517-.146-7.034a10.077,10.077,0,0,1,.16-2.524,3.387,3.387,0,0,1,1.331-2.087,10.392,10.392,0,0,1,2.634-.838,21.82,21.82,0,0,0,3.067-1.614,3.77,3.77,0,0,1,3.328-.323c.743.373,1.24,1.114,1.963,1.524,1.028.585,2.428.452,2.927,1.964a2.562,2.562,0,0,1-.017,1.617,3.737,3.737,0,0,1-5.08,2,5.041,5.041,0,0,1-.06,2.225c-.117.352-.159.888-.709.9" transform="translate(-120.492 -76.99)" fill="#263238"/>
            <path id="Trazado_873872" data-name="Trazado 873872" d="M214.3,160.388a9.54,9.54,0,0,1-.518-13.3" transform="translate(-117.684 -81.908)" fill="#263238"/>
            <path id="Trazado_873873" data-name="Trazado 873873" d="M217.273,162.02c0,.007-.053.027-.162.046a1.733,1.733,0,0,1-.483.007,2.7,2.7,0,0,1-1.558-.811,8,8,0,0,1-1.4-2.2,14.158,14.158,0,0,1-1.049-3.012,11.493,11.493,0,0,1-.269-3.182,10.1,10.1,0,0,1,.485-2.562,8.382,8.382,0,0,1,.717-1.6,4.555,4.555,0,0,1,.257-.4c.063-.089.1-.134.106-.129a14.262,14.262,0,0,0-.925,2.183,10.57,10.57,0,0,0-.428,2.524,11.754,11.754,0,0,0,.282,3.12,14.718,14.718,0,0,0,1.016,2.972,8.237,8.237,0,0,0,1.326,2.177,2.719,2.719,0,0,0,1.455.836,4.191,4.191,0,0,0,.631.037" transform="translate(-118.243 -82.514)" fill="#455a64"/>
            <path id="Trazado_873874" data-name="Trazado 873874" d="M216.04,147.827c.035-.017.284.46.763,1.181a15.19,15.19,0,0,0,4.829,4.633c.74.448,1.227.678,1.211.713a1.189,1.189,0,0,1-.361-.121,9.079,9.079,0,0,1-.932-.451,13.106,13.106,0,0,1-4.885-4.687,9.148,9.148,0,0,1-.488-.913,1.2,1.2,0,0,1-.136-.355" transform="translate(-120.307 -82.322)" fill="#455a64"/>
            <path id="Trazado_873875" data-name="Trazado 873875" d="M223.086,152.185a4.1,4.1,0,0,1-1.028-.512,11.752,11.752,0,0,1-3.889-3.907,4.1,4.1,0,0,1-.507-1.031,9.134,9.134,0,0,1,.645.943,14.56,14.56,0,0,0,3.84,3.858,9.18,9.18,0,0,1,.94.649" transform="translate(-121.21 -81.714)" fill="#455a64"/>
            <path id="Trazado_873876" data-name="Trazado 873876" d="M227.96,151.462a1.639,1.639,0,0,1-.44-.033,8.837,8.837,0,0,1-1.178-.243,12.287,12.287,0,0,1-6.5-4.352,8.855,8.855,0,0,1-.673-1,1.6,1.6,0,0,1-.2-.394c.036-.022.359.515,1,1.289a13.5,13.5,0,0,0,6.417,4.3c.96.3,1.579.391,1.573.432" transform="translate(-121.94 -80.994)" fill="#455a64"/>
            <path id="Trazado_873877" data-name="Trazado 873877" d="M205.841,160.792c-.01-.008.065-.089.14-.276a1.413,1.413,0,0,0,.036-.86,2.091,2.091,0,0,0-.762-1.125c-.417-.352-.983-.626-1.571-1.017a3.45,3.45,0,0,1-.826-.75,2.081,2.081,0,0,1-.422-1.145,3.875,3.875,0,0,1,.927-2.461,13.76,13.76,0,0,0,1.685-2.306,5.221,5.221,0,0,0,.335-2.972,13.861,13.861,0,0,0-.851-2.949,22.847,22.847,0,0,1-.923-2.749,4.58,4.58,0,0,1-.031-2.634,1.925,1.925,0,0,1,.781-.942,1.431,1.431,0,0,1,1.119-.147A3.463,3.463,0,0,1,207,139.585l.932,1.07.582.683a1.606,1.606,0,0,1,.191.248,1.612,1.612,0,0,1-.226-.217l-.614-.654-.96-1.044a3.384,3.384,0,0,0-1.471-1.055,1.266,1.266,0,0,0-.986.142,1.747,1.747,0,0,0-.694.858,4.433,4.433,0,0,0,.059,2.515,23.2,23.2,0,0,0,.928,2.719,13.9,13.9,0,0,1,.869,3,5.42,5.42,0,0,1-.359,3.1,13.562,13.562,0,0,1-1.72,2.339,3.7,3.7,0,0,0-.9,2.322,1.9,1.9,0,0,0,.374,1.049,3.316,3.316,0,0,0,.776.722,17.923,17.923,0,0,1,1.561,1.053,2.159,2.159,0,0,1,.766,1.2,1.4,1.4,0,0,1-.081.9.765.765,0,0,1-.183.257" transform="translate(-112.731 -77.075)" fill="#455a64"/>
            <path id="Trazado_873878" data-name="Trazado 873878" d="M185.758,411.813l2.161-2.629-4.9-4.079-3.2,3.812.287.272c1.289,1.2,6.639,6.014,7.771,6.493,1.262.534-2.119-3.87-2.119-3.87" transform="translate(-100.138 -225.595)" fill="#ffb937"/>
            <g id="Grupo_1100328" data-name="Grupo 1100328" transform="translate(79.744 181.888)" opacity="0.5">
              <g id="Grupo_1100327" data-name="Grupo 1100327">
                <g id="Grupo_1100326" data-name="Grupo 1100326" clip-path="url(#clip-path-13)">
                  <path id="Trazado_873879" data-name="Trazado 873879" d="M181.706,413.346a2.209,2.209,0,0,0,.245-1.565,2.147,2.147,0,0,0-.848-1.31l-1.141,1.368Z" transform="translate(-179.961 -410.471)" fill="#fff"/>
                </g>
              </g>
            </g>
            <g id="Grupo_1100331" data-name="Grupo 1100331" transform="translate(79.681 183.219)" opacity="0.4">
              <g id="Grupo_1100330" data-name="Grupo 1100330">
                <g id="Grupo_1100329" data-name="Grupo 1100329" clip-path="url(#clip-path-14)">
                  <path id="Trazado_873880" data-name="Trazado 873880" d="M187.35,418.7s1.108,1.636.726,1.724-5.971-4.572-8.257-6.844l.1-.1,6.474,5.492s.663-.5.958-.27" transform="translate(-179.819 -413.475)" fill="#fff"/>
                </g>
              </g>
            </g>
            <path id="Trazado_873881" data-name="Trazado 873881" d="M179.874,413.324a.582.582,0,0,0,.077.079l.23.216.858.78c.729.654,1.748,1.543,2.894,2.5s2.2,1.8,2.978,2.4l.92.7.254.187a.614.614,0,0,0,.092.061.621.621,0,0,0-.082-.074l-.245-.2-.905-.724c-.764-.612-1.815-1.462-2.962-2.419s-2.17-1.84-2.908-2.483l-.874-.762-.239-.205a.608.608,0,0,0-.087-.068" transform="translate(-100.168 -230.172)" fill="#263238"/>
            <path id="Trazado_873882" data-name="Trazado 873882" d="M194.5,425.512a1.682,1.682,0,0,1,1.108-.374,1.03,1.03,0,0,0-1.108.374" transform="translate(-108.314 -236.726)" fill="#263238"/>
            <path id="Trazado_873883" data-name="Trazado 873883" d="M192.624,421.417a.673.673,0,0,0,.311-.059c.165-.053.294-.113.287-.133a.669.669,0,0,0-.311.059c-.165.053-.294.112-.288.133" transform="translate(-107.268 -234.568)" fill="#263238"/>
            <path id="Trazado_873884" data-name="Trazado 873884" d="M192.124,420.386c0,.021.121.034.268.029s.267-.027.266-.049-.121-.034-.269-.028-.267.027-.265.048" transform="translate(-106.99 -234.077)" fill="#263238"/>
            <path id="Trazado_873885" data-name="Trazado 873885" d="M192.426,418.931c-.014.016.088.126.228.245s.265.2.278.187-.088-.126-.228-.245-.265-.2-.278-.187" transform="translate(-107.158 -233.294)" fill="#263238"/>
            <path id="Trazado_873886" data-name="Trazado 873886" d="M192.844,418.035a.935.935,0,0,0,.543.527c.012-.019-.126-.118-.273-.261s-.251-.277-.27-.265" transform="translate(-107.39 -232.795)" fill="#263238"/>
            <path id="Trazado_873887" data-name="Trazado 873887" d="M193.772,420.895a1.185,1.185,0,0,0,.316.261,2.37,2.37,0,0,0,.4.205,1.21,1.21,0,0,0,.258.081.222.222,0,0,0,.159-.033.161.161,0,0,0,.057-.166.752.752,0,0,0-.854-.426.736.736,0,0,0-.278.125c-.057.043-.082.075-.079.078a1.153,1.153,0,0,1,.367-.148.737.737,0,0,1,.414.049.633.633,0,0,1,.354.338c.02.079-.049.121-.133.108a1.225,1.225,0,0,1-.24-.072,2.807,2.807,0,0,1-.394-.186c-.216-.124-.336-.223-.344-.214" transform="translate(-107.894 -234.334)" fill="#263238"/>
            <path id="Trazado_873888" data-name="Trazado 873888" d="M193.829,420.087c0,.007.115-.035.218-.188a.675.675,0,0,0,.106-.3.411.411,0,0,0-.129-.379.163.163,0,0,0-.218.065.446.446,0,0,0-.064.185,1.265,1.265,0,0,0-.01.315.6.6,0,0,0,.074.277c.012,0-.016-.109-.019-.281a1.4,1.4,0,0,1,.026-.3c.012-.1.082-.247.173-.2a.368.368,0,0,1,.1.307.677.677,0,0,1-.082.279,1.468,1.468,0,0,1-.171.216" transform="translate(-107.883 -233.443)" fill="#263238"/>
            <path id="Trazado_873889" data-name="Trazado 873889" d="M182.62,410.488c-.008.012.151.1.351.314a2,2,0,0,1,.43,2.092c-.1.272-.21.419-.2.427s.035-.031.082-.1a1.682,1.682,0,0,0,.167-.308,1.939,1.939,0,0,0-.442-2.15,1.715,1.715,0,0,0-.275-.218.373.373,0,0,0-.115-.058" transform="translate(-101.697 -228.593)" fill="#263238"/>
            <path id="Trazado_873890" data-name="Trazado 873890" d="M185.458,406.846a22.218,22.218,0,0,0-1.7,1.99,22.038,22.038,0,0,0,1.7-1.99" transform="translate(-102.329 -226.564)" fill="#263238"/>
            <path id="Trazado_873891" data-name="Trazado 873891" d="M186.186,417.04a5.232,5.232,0,0,0,1.419,1.207c.013-.019-.323-.265-.714-.6s-.689-.623-.705-.608" transform="translate(-103.683 -232.241)" fill="#263238"/>
            <path id="Trazado_873892" data-name="Trazado 873892" d="M183.885,415.232c-.022,0-.03.09-.059.19s-.065.18-.047.194.09-.056.121-.173,0-.214-.016-.211" transform="translate(-102.341 -231.235)" fill="#263238"/>
            <path id="Trazado_873893" data-name="Trazado 873893" d="M184.021,413.536c-.021,0-.032.079-.024.173s.031.168.053.166.032-.079.024-.173-.031-.168-.053-.166" transform="translate(-102.463 -230.29)" fill="#263238"/>
            <path id="Trazado_873894" data-name="Trazado 873894" d="M183.273,412.091c-.011.019.055.073.106.159s.07.167.093.166.038-.1-.027-.206-.164-.138-.172-.118" transform="translate(-102.06 -229.483)" fill="#263238"/>
            <path id="Trazado_873895" data-name="Trazado 873895" d="M182.613,411.184c-.019.01-.012.059.016.109s.065.082.084.071.012-.059-.016-.109-.065-.082-.084-.071" transform="translate(-101.688 -228.979)" fill="#263238"/>
            <path id="Trazado_873896" data-name="Trazado 873896" d="M235.874,418.422l-.076-3.4-6.373.1.058,4.978.4.019c1.76.07,8.955.23,10.125-.145,1.3-.419-4.13-1.552-4.13-1.552" transform="translate(-127.762 -231.117)" fill="#ffb937"/>
            <g id="Grupo_1100334" data-name="Grupo 1100334" transform="translate(101.699 187.102)" opacity="0.5">
              <g id="Grupo_1100333" data-name="Grupo 1100333">
                <g id="Grupo_1100332" data-name="Grupo 1100332" clip-path="url(#clip-path-15)">
                  <path id="Trazado_873897" data-name="Trazado 873897" d="M231.838,424.034a2.211,2.211,0,0,0-.835-1.346,2.148,2.148,0,0,0-1.5-.44l.027,1.781Z" transform="translate(-229.506 -422.239)" fill="#fff"/>
                </g>
              </g>
            </g>
            <g id="Grupo_1100337" data-name="Grupo 1100337" transform="translate(101.721 187.954)" opacity="0.4">
              <g id="Grupo_1100336" data-name="Grupo 1100336">
                <g id="Grupo_1100335" data-name="Grupo 1100335" clip-path="url(#clip-path-16)">
                  <path id="Trazado_873898" data-name="Trazado 873898" d="M238.6,424.161s1.907.517,1.675.833-7.509.428-10.723.2l.008-.143,8.489-.058s.18-.808.551-.83" transform="translate(-229.556 -424.161)" fill="#fff"/>
                </g>
              </g>
            </g>
            <path id="Trazado_873899" data-name="Trazado 873899" d="M229.348,425.957a.584.584,0,0,0,.11.01l.315.014,1.16.032c.979.02,2.332.03,3.825.008s2.847-.071,3.825-.12l1.158-.066.314-.023a.6.6,0,0,0,.109-.013.615.615,0,0,0-.11,0l-.315.009-1.158.042c-.978.035-2.33.075-3.823.1s-2.845.02-3.824.014l-1.159-.008h-.316a.582.582,0,0,0-.11.005" transform="translate(-127.719 -237.118)" fill="#263238"/>
            <path id="Trazado_873900" data-name="Trazado 873900" d="M248.716,424.99a2.587,2.587,0,0,1,.208-.556,2.623,2.623,0,0,1,.388-.45,1.029,1.029,0,0,0-.6,1.006" transform="translate(-138.498 -236.107)" fill="#263238"/>
            <path id="Trazado_873901" data-name="Trazado 873901" d="M244.45,423.494c.018.011.106-.1.2-.248s.15-.277.131-.288-.106.1-.2.248-.149.277-.131.288" transform="translate(-136.128 -235.537)" fill="#263238"/>
            <path id="Trazado_873902" data-name="Trazado 873902" d="M243.278,423.111c.015.016.114-.053.222-.153s.184-.195.17-.21-.114.053-.222.153-.184.195-.17.21" transform="translate(-135.476 -235.419)" fill="#263238"/>
            <path id="Trazado_873903" data-name="Trazado 873903" d="M242.523,422.174a1.458,1.458,0,1,0,.333-.04.75.75,0,0,0-.333.04" transform="translate(-135.056 -235.078)" fill="#263238"/>
            <path id="Trazado_873904" data-name="Trazado 873904" d="M242.256,421.263a.935.935,0,0,0,.755.045,27.146,27.146,0,0,1-.755-.045" transform="translate(-134.907 -234.589)" fill="#263238"/>
            <path id="Trazado_873905" data-name="Trazado 873905" d="M244.923,422.17a1.181,1.181,0,0,0,.409-.009,2.413,2.413,0,0,0,.435-.1,1.2,1.2,0,0,0,.248-.107.222.222,0,0,0,.1-.129.162.162,0,0,0-.065-.163.751.751,0,0,0-.925.234.734.734,0,0,0-.129.276c-.016.07-.014.11-.009.111a1.149,1.149,0,0,1,.181-.352.742.742,0,0,1,.347-.233.637.637,0,0,1,.489.026c.066.047.042.124-.03.168a1.233,1.233,0,0,1-.229.1,2.848,2.848,0,0,1-.42.117c-.245.047-.4.05-.4.062" transform="translate(-136.393 -234.772)" fill="#263238"/>
            <path id="Trazado_873906" data-name="Trazado 873906" d="M244.479,421.959a.4.4,0,0,0,.043-.285.672.672,0,0,0-.117-.3.411.411,0,0,0-.344-.2.163.163,0,0,0-.123.191.446.446,0,0,0,.072.182,1.242,1.242,0,0,0,.2.245.585.585,0,0,0,.237.162c.007-.01-.082-.072-.2-.2a1.439,1.439,0,0,1-.175-.243c-.058-.086-.1-.241,0-.261s.208.089.273.17a.674.674,0,0,1,.12.265,1.48,1.48,0,0,1,.011.276" transform="translate(-135.843 -234.543)" fill="#263238"/>
            <path id="Trazado_873907" data-name="Trazado 873907" d="M229.581,422.159c0,.014.182-.02.471.009a2,2,0,0,1,1.69,1.3c.1.272.114.455.128.453a.366.366,0,0,0,0-.128,1.674,1.674,0,0,0-.075-.343,1.938,1.938,0,0,0-1.737-1.341,1.677,1.677,0,0,0-.351.015.37.37,0,0,0-.125.031" transform="translate(-127.849 -235.065)" fill="#263238"/>
            <path id="Trazado_873908" data-name="Trazado 873908" d="M230.936,416.21a22.277,22.277,0,0,0,.007,2.62,22.276,22.276,0,0,0-.007-2.62" transform="translate(-128.584 -231.779)" fill="#263238"/>
            <path id="Trazado_873909" data-name="Trazado 873909" d="M236.558,424.835a5.235,5.235,0,0,0,1.863-.011c0-.022-.418.01-.931.012s-.929-.023-.931,0" transform="translate(-131.735 -236.572)" fill="#263238"/>
            <path id="Trazado_873910" data-name="Trazado 873910" d="M233.735,424.895c-.016.016.035.088.079.183s.069.179.09.177.031-.1-.02-.21-.136-.165-.149-.15" transform="translate(-130.161 -236.614)" fill="#263238"/>
            <path id="Trazado_873911" data-name="Trazado 873911" d="M232.652,423.589c-.015.015.027.081.094.147s.133.107.148.092-.027-.081-.094-.147-.133-.107-.148-.092" transform="translate(-129.558 -235.887)" fill="#263238"/>
            <path id="Trazado_873912" data-name="Trazado 873912" d="M231.126,422.964c0,.022.09.02.183.051s.163.08.179.066-.038-.1-.155-.139-.214,0-.207.023" transform="translate(-128.709 -235.519)" fill="#263238"/>
            <path id="Trazado_873913" data-name="Trazado 873913" d="M230.039,422.724c-.008.02.03.052.083.072s.1.019.11,0-.03-.052-.083-.072-.1-.019-.11,0" transform="translate(-128.104 -235.398)" fill="#263238"/>
            <path id="Trazado_873914" data-name="Trazado 873914" d="M199.7,259.061s-2.122,8.979-1.522,10.755,4.488,2.8,4.488,2.8l-.132,24.587-21.5,26.578,7.94,6.5s23.277-26.628,25.329-31.45-1.308-40.168-1.308-40.168Z" transform="translate(-100.812 -144.044)" fill="#263238"/>
            <path id="Trazado_873915" data-name="Trazado 873915" d="M223.926,250.48l1.052,74.677-10.938.055-7.106-59.619c-1.079-3.558-2.313-7.242-2.088-11.472l1.466-4.294Z" transform="translate(-114.059 -139.124)" fill="#263238"/>
            <path id="Trazado_873916" data-name="Trazado 873916" d="M219.318,277.043a1.914,1.914,0,0,1,.254.221c.159.153.391.384.677.694.575.619,1.38,1.547,2.343,2.743l.015.019v.026c.2,3.347.593,8.225,1.067,13.644.379,4.412.767,8.445,1.009,11.59l0,.027-.02.026-3.045,4.078-.845,1.11-.226.286c-.052.064-.081.1-.084.092a.451.451,0,0,1,.063-.108l.205-.3.806-1.139,2.982-4.125-.018.054c-.287-3.135-.657-7.173-1.059-11.571-.474-5.42-.838-10.3-.992-13.656l.016.044c-.943-1.205-1.729-2.147-2.283-2.782-.276-.319-.5-.557-.645-.721a1.973,1.973,0,0,1-.223-.251" transform="translate(-122.134 -154.28)" fill="#455a64"/>
            <path id="Trazado_873917" data-name="Trazado 873917" d="M238.864,341.663a8.728,8.728,0,0,0-5.993-.475,2.5,2.5,0,0,1,.853-.334,6.719,6.719,0,0,1,4.351.345,2.484,2.484,0,0,1,.789.464" transform="translate(-129.682 -189.698)" fill="#455a64"/>
            <path id="Trazado_873918" data-name="Trazado 873918" d="M237.6,350.754c.051.039-3.026,4.168-6.871,9.223s-7.005,9.123-7.056,9.084,3.026-4.168,6.872-9.224,7-9.122,7.055-9.083" transform="translate(-124.558 -195.328)" fill="#455a64"/>
            <path id="Trazado_873919" data-name="Trazado 873919" d="M246.966,263.087a1.834,1.834,0,0,1-.616.812,3.047,3.047,0,0,1-4.458-.47,1.827,1.827,0,0,1-.432-.923,9.482,9.482,0,0,0,.559.82,3.039,3.039,0,0,0,4.229.446,9.553,9.553,0,0,0,.718-.685" transform="translate(-134.462 -146.184)" fill="#455a64"/>
            <path id="Trazado_873920" data-name="Trazado 873920" d="M199.774,215.108s-1.659,12.15,0,13.691a3.467,3.467,0,0,0,3.255,1.029l3.158-2.641.622-12.079Z" transform="translate(-110.84 -119.79)" fill="#ffbe9d"/>
            <path id="Trazado_873921" data-name="Trazado 873921" d="M200.561,192.828s-2.377,2.684-2.869,12.952c0,0,6.768,1.284,6.891.915s-4.022-13.867-4.022-13.867" transform="translate(-110.091 -107.382)" fill="#ffb937"/>
            <path id="Trazado_873922" data-name="Trazado 873922" d="M203.547,218.219l21.558.352-.336-3.245s-2.374-12.348-2.357-12.511l.374-.787a7.177,7.177,0,0,0,.183-6.238h10.466l-.441-8.492L222.01,185.68l-4.083-.323s-7.2.376-7.357.394c-3.014.364-6.52.6-7.8,3.821-.686,1.724-.034,4.313,1.084,6.982l2.664,8.2c1.063,4.505-.634,4.291-1.566,8.826-.141.686-1.418,4.014-1.4,4.643" transform="translate(-112.762 -103.222)" fill="#ffb937"/>
            <path id="Trazado_873923" data-name="Trazado 873923" d="M234.038,190.46c0,.064-6.143.115-13.719.115s-13.72-.051-13.72-.115,6.141-.115,13.72-.115,13.719.051,13.719.115" transform="translate(-115.051 -105.999)" fill="#fafafa"/>
            <path id="Trazado_873924" data-name="Trazado 873924" d="M231.576,199.669c0,.064-6.836.115-15.267.115s-15.268-.051-15.268-.115,6.835-.115,15.268-.115,15.267.051,15.267.115" transform="translate(-111.956 -111.128)" fill="#fafafa"/>
            <path id="Trazado_873925" data-name="Trazado 873925" d="M201.68,210.148a7.084,7.084,0,0,1-2.545,0,7.085,7.085,0,0,1,2.545,0" transform="translate(-110.894 -116.963)" fill="#fafafa"/>
            <path id="Trazado_873926" data-name="Trazado 873926" d="M224.848,210.465c0,.064-4.471.115-9.984.115s-9.985-.051-9.985-.115,4.47-.115,9.985-.115,9.984.051,9.984.115" transform="translate(-114.093 -117.14)" fill="#fafafa"/>
            <path id="Trazado_873927" data-name="Trazado 873927" d="M226.427,221.262c0,.064-4.012.115-8.961.115s-8.962-.051-8.962-.115,4.012-.115,8.962-.115,8.961.051,8.961.115" transform="translate(-116.112 -123.153)" fill="#fafafa"/>
            <path id="Trazado_873928" data-name="Trazado 873928" d="M228.242,231.265c0,.064-3.637.115-8.122.115s-8.123-.051-8.123-.115,3.636-.115,8.123-.115,8.122.051,8.122.115" transform="translate(-118.057 -128.723)" fill="#fafafa"/>
            <path id="Trazado_873929" data-name="Trazado 873929" d="M228.423,239.362c0,.064-3.891.116-8.689.116s-8.689-.051-8.689-.116,3.889-.115,8.689-.115,8.689.051,8.689.115" transform="translate(-117.527 -133.232)" fill="#fafafa"/>
            <path id="Trazado_873930" data-name="Trazado 873930" d="M227.956,249.683c0,.064-4.426.115-9.885.115s-9.886-.051-9.886-.115,4.425-.115,9.886-.115,9.885.051,9.885.115" transform="translate(-115.935 -138.98)" fill="#fafafa"/>
            <path id="Trazado_873931" data-name="Trazado 873931" d="M206.68,214.772a1.7,1.7,0,0,1-.184-.409l-.436-1.133c-.366-.958-.88-2.279-1.416-3.753s-.979-2.824-1.258-3.813c-.139-.495-.243-.9-.3-1.18a1.666,1.666,0,0,1-.073-.442,16.271,16.271,0,0,1,.531,1.574c.318.974.782,2.312,1.32,3.782s1.025,2.8,1.352,3.776c.164.487.289.884.368,1.16a1.689,1.689,0,0,1,.1.437" transform="translate(-113.05 -113.627)" fill="#263238"/>
            <g id="Grupo_1100340" data-name="Grupo 1100340" transform="translate(94.536 99.627)" opacity="0.2">
              <g id="Grupo_1100339" data-name="Grupo 1100339">
                <g id="Grupo_1100338" data-name="Grupo 1100338" clip-path="url(#clip-path-17)">
                  <path id="Trazado_873932" data-name="Trazado 873932" d="M214.005,234.452a21.4,21.4,0,0,0,5.6-3.166,10.171,10.171,0,0,0,3.507-5.295c.1-.4.109-.912-.25-1.1a.7.7,0,0,0-.793.2,2.7,2.7,0,0,0-.429.763,5.5,5.5,0,0,1-1.912,2.254,15.819,15.819,0,0,1-3.132,1.387,5.76,5.76,0,0,0-2.775,1.932,2.5,2.5,0,0,0,.145,3.148" transform="translate(-213.342 -224.831)"/>
                </g>
              </g>
            </g>
            <path id="Trazado_873933" data-name="Trazado 873933" d="M224.276,218.871a.5.5,0,0,1,.012.174c0,.114,0,.282-.016.5a11.54,11.54,0,0,1-.267,1.812,12.907,12.907,0,0,1-7.446,9.014,11.572,11.572,0,0,1-1.729.6c-.208.059-.374.086-.485.11a.514.514,0,0,1-.173.021,4.4,4.4,0,0,1,.633-.217,14.644,14.644,0,0,0,1.687-.667,13.328,13.328,0,0,0,7.355-8.9,14.676,14.676,0,0,0,.336-1.783,4.454,4.454,0,0,1,.094-.662" transform="translate(-119.268 -121.885)" fill="#263238"/>
            <path id="Trazado_873934" data-name="Trazado 873934" d="M271.491,128.329s-.052-.274-.094-.815a8.7,8.7,0,0,1,.186-2.4,9.939,9.939,0,0,1,1.576-3.568,9.78,9.78,0,0,1,4.1-3.358,10.81,10.81,0,0,1,3.07-.846,11.84,11.84,0,0,1,3.51.072,12.872,12.872,0,0,1,6.949,3.689,15.244,15.244,0,0,1,2.644,3.56,14.127,14.127,0,0,1,1.5,4.475,13.358,13.358,0,0,1-.147,4.99,11.441,11.441,0,0,1-.859,2.465,9.67,9.67,0,0,1-6.2,5.067,17.175,17.175,0,0,1-5.737.589,22.685,22.685,0,0,1-5.914-1.069,10.232,10.232,0,0,1-5.085-3.525,10.552,10.552,0,0,1-1.959-6.1,11.638,11.638,0,0,1,.453-3.288,13.508,13.508,0,0,1,1.379-3.075,14.8,14.8,0,0,1,2.156-2.653,14.561,14.561,0,0,1,2.8-2.048,12.882,12.882,0,0,1,3.294-1.225,12,12,0,0,1,3.555-.188A14.075,14.075,0,0,1,293.97,127.4a12.162,12.162,0,0,1,.66,7.456,9.662,9.662,0,0,1-1.6,3.5,8.549,8.549,0,0,1-2.96,2.5,10.514,10.514,0,0,1-3.755,1.105,13.413,13.413,0,0,1-3.944-.165,13.708,13.708,0,0,1-7.008-3.653,11.2,11.2,0,0,1-2.33-3.3,8.666,8.666,0,0,1-.771-3.99,10.732,10.732,0,0,1,3.656-7.184,12.94,12.94,0,0,1,7.405-3.314,11.042,11.042,0,0,1,4.052.356,10.478,10.478,0,0,1,1.9.732A10.3,10.3,0,0,1,291,122.509a10.058,10.058,0,0,1,2.676,2.987,8.9,8.9,0,0,1,.811,1.833c.115.315.175.644.259.967.051.329.125.655.147.988a10.714,10.714,0,0,1-2.053,7.453,11.567,11.567,0,0,1-6.368,4.182,12.479,12.479,0,0,1-7.481-.366,14.182,14.182,0,0,1-9.146-10.676,10.289,10.289,0,0,1,1.191-6.866,12.028,12.028,0,0,1,4.916-4.721A14.591,14.591,0,0,1,282.4,116.7a16.806,16.806,0,0,1,6.349,1.1,14.907,14.907,0,0,1,8.677,8.229,12.606,12.606,0,0,1-.938,10.934,10.275,10.275,0,0,1-3.776,3.637,12.527,12.527,0,0,1-4.765,1.484,16.224,16.224,0,0,1-8.881-1.806,19.725,19.725,0,0,1-6.279-4.84,12.727,12.727,0,0,1-2.912-5.967,9.76,9.76,0,0,1,.6-5.262,8.8,8.8,0,0,1,2.2-3.213,7.386,7.386,0,0,1,2.021-1.3c.511-.185.778-.264.778-.264s-.065.027-.194.074-.324.111-.575.212a7.494,7.494,0,0,0-2,1.31,8.783,8.783,0,0,0-2.168,3.2,9.7,9.7,0,0,0-.571,5.221,12.647,12.647,0,0,0,2.908,5.911,19.634,19.634,0,0,0,6.252,4.8,16.1,16.1,0,0,0,8.809,1.775,12.391,12.391,0,0,0,4.7-1.474,10.113,10.113,0,0,0,3.713-3.587,12.441,12.441,0,0,0,.911-10.785,14.729,14.729,0,0,0-8.58-8.115,16.626,16.626,0,0,0-6.276-1.083,14.394,14.394,0,0,0-6.358,1.576,11.825,11.825,0,0,0-4.829,4.643,10.075,10.075,0,0,0-1.162,6.73,13.968,13.968,0,0,0,9.011,10.5,12.255,12.255,0,0,0,7.35.358,11.345,11.345,0,0,0,6.244-4.1,10.49,10.49,0,0,0,2.008-7.294c-.021-.325-.094-.643-.143-.965-.083-.315-.14-.637-.253-.943a8.679,8.679,0,0,0-.792-1.788,9.816,9.816,0,0,0-2.616-2.919,10.73,10.73,0,0,0-7.511-2.106,12.708,12.708,0,0,0-7.272,3.255,10.5,10.5,0,0,0-3.581,7.025,8.424,8.424,0,0,0,.751,3.883,10.965,10.965,0,0,0,2.282,3.23,13.479,13.479,0,0,0,6.89,3.592,13.174,13.174,0,0,0,3.877.163,10.281,10.281,0,0,0,3.675-1.079,8.316,8.316,0,0,0,2.884-2.437,9.44,9.44,0,0,0,1.559-3.415,11.942,11.942,0,0,0-.646-7.319,13.862,13.862,0,0,0-11.132-8.192,11.762,11.762,0,0,0-3.491.183,12.682,12.682,0,0,0-3.237,1.2,14.346,14.346,0,0,0-2.756,2.014,14.6,14.6,0,0,0-2.126,2.611,13.318,13.318,0,0,0-1.359,3.024,11.456,11.456,0,0,0-.448,3.229,10.363,10.363,0,0,0,1.916,5.986,10.048,10.048,0,0,0,4.991,3.464,22.525,22.525,0,0,0,5.863,1.066,17,17,0,0,0,5.679-.576,10.008,10.008,0,0,0,4.623-2.8,10.138,10.138,0,0,0,1.485-2.174,11.281,11.281,0,0,0,.85-2.429,13.205,13.205,0,0,0,.153-4.933,14.438,14.438,0,0,0-4.086-7.966,12.762,12.762,0,0,0-6.876-3.671,11.734,11.734,0,0,0-3.48-.081,10.731,10.731,0,0,0-3.046.829,9.724,9.724,0,0,0-4.077,3.315,9.961,9.961,0,0,0-1.587,3.538,8.884,8.884,0,0,0-.207,2.387c0,.271.044.474.052.611s.018.206.018.206" transform="translate(-149.811 -64.984)" fill="#ffb937"/>
            <path id="Trazado_873935" data-name="Trazado 873935" d="M297.52,137.762c.019.061-2.883,1.026-6.482,2.156s-6.532,2-6.552,1.936,2.883-1.026,6.483-2.157,6.532-2,6.552-1.936" transform="translate(-158.425 -76.715)" fill="#ffb937"/>
            <path id="Trazado_873936" data-name="Trazado 873936" d="M300.473,142.513c.021.06-2.685,1.045-6.042,2.2s-6.1,2.041-6.118,1.982,2.684-1.045,6.043-2.2,6.1-2.041,6.117-1.981" transform="translate(-160.556 -79.361)" fill="#ffb937"/>
            <path id="Trazado_873937" data-name="Trazado 873937" d="M296.831,152.292a14.19,14.19,0,0,1-3.02,1.252c-.854.3-1.633.561-2.2.736a3.972,3.972,0,0,1-.934.238,4.053,4.053,0,0,1,.88-.393c.553-.215,1.323-.5,2.177-.8s1.63-.566,2.193-.752.925-.295.9-.282" transform="translate(-161.872 -84.808)" fill="#ffb937"/>
            <path id="Trazado_873938" data-name="Trazado 873938" d="M307.5,156.26s-2.031-.94-2.127-.448.037.693.443.818c.38.117,1.5.5,1.5.5Z" transform="translate(-170.039 -86.69)" fill="#ffbe9d"/>
            <path id="Trazado_873939" data-name="Trazado 873939" d="M307.264,158.348s-2.031-.94-2.127-.448.037.693.442.818c.381.117,1.5.5,1.5.5Z" transform="translate(-169.908 -87.852)" fill="#eb996e"/>
            <path id="Trazado_873940" data-name="Trazado 873940" d="M283.855,159.793l-7.7,10.1a5.435,5.435,0,0,1-3.957,2.468l-.722.059.358,6.874,3.038-.344a6.1,6.1,0,0,0,4.594-3.007l7.831-13.532a23.041,23.041,0,0,0,1.374-2.7,5.581,5.581,0,0,0-.033-2.919l-3.11,1.958v-2.115s-.331-.112-.977.52c-.555.544-.7,2.636-.7,2.636" transform="translate(-151.18 -87.224)" fill="#ffbe9d"/>
            <path id="Trazado_873941" data-name="Trazado 873941" d="M303.1,153.046l.039,7.44a.6.6,0,1,0,1.2,0l0-7.514-.708-1.15Z" transform="translate(-168.788 -84.546)" fill="#455a64"/>
            <path id="Trazado_873942" data-name="Trazado 873942" d="M304.029,151.816l-.193.448.457-.019Z" transform="translate(-169.201 -84.544)" fill="#263238"/>
            <path id="Trazado_873943" data-name="Trazado 873943" d="M304.3,154.407a1.009,1.009,0,0,1-.615.2,1.126,1.126,0,0,1-.636-.114c.007-.028.286.04.631.022s.609-.129.62-.1" transform="translate(-168.761 -85.984)" fill="#263238"/>
            <path id="Trazado_873944" data-name="Trazado 873944" d="M304.365,162.7a2.072,2.072,0,0,1-.019-.314c-.006-.257-.012-.541-.018-.855-.007-.8-.016-1.761-.024-2.821s.007-2.019.009-2.821c0-.315.009-.6.014-.855a2.036,2.036,0,0,1,.017-.313,2.024,2.024,0,0,1,.019.313c0,.258.01.541.016.855.005.8.011,1.761.018,2.821s0,2.019,0,2.821c0,.314-.008.6-.011.855a2.085,2.085,0,0,1-.017.314" transform="translate(-169.46 -86.159)" fill="#263238"/>
          </g>
        </g>
        <g id="Grupo_1100344" data-name="Grupo 1100344">
          <g id="Grupo_1100343" data-name="Grupo 1100343" clip-path="url(#clip-path-2)">
            <path id="Trazado_873945" data-name="Trazado 873945" d="M69.921,330.47c3.468,1.211,7.992.129,10.959-2.037s5.1-5.27,6.994-8.419a12.5,12.5,0,0,0,1.851-4.291,4.639,4.639,0,0,0-1.32-4.3c-1.864-1.569-4.721-.773-6.837.433A23.58,23.58,0,0,0,69.921,330.47" transform="translate(-38.938 -172.941)" fill="#ffb937"/>
            <path id="Trazado_873946" data-name="Trazado 873946" d="M78.324,367.319c2.083,2.748,5.661,3.971,9.105,4.13A25.159,25.159,0,0,0,97.5,369.422c1.168-.448,2.446-1.063,2.846-2.247a2.857,2.857,0,0,0-.61-2.651,5.941,5.941,0,0,0-2.324-1.584,15.878,15.878,0,0,0-10.133-.549,24.9,24.9,0,0,0-8.951,4.929" transform="translate(-43.617 -201.49)" fill="#ffb937"/>
            <path id="Trazado_873947" data-name="Trazado 873947" d="M68,295.94c2.871.057,5.044-2.458,6.344-5.018a18.6,18.6,0,0,0,1.71-11.6c-.262-1.467-.817-3.049-2.13-3.755a3.786,3.786,0,0,0-4.189.776,8.608,8.608,0,0,0-2.178,3.925A26.246,26.246,0,0,0,68,295.94" transform="translate(-37.068 -153.268)" fill="#ffb937"/>
            <path id="Trazado_873948" data-name="Trazado 873948" d="M42.674,318.78a34.549,34.549,0,0,0,2.82-27.743c-.469-1.5-1.354-3.207-2.918-3.306-1.732-.11-2.818,1.822-3.3,3.49-1.679,5.854-1.321,12.073-.95,18.151a12.886,12.886,0,0,0,4.346,9.407" transform="translate(-21.171 -160.23)" fill="#ffb937"/>
            <path id="Trazado_873949" data-name="Trazado 873949" d="M16.412,349.151a20.02,20.02,0,0,0-11.877-12.6c-1.3-.49-2.953-.768-3.922.226-.951.976-.658,2.606-.048,3.824a19.159,19.159,0,0,0,4.179,5.065,17.3,17.3,0,0,0,4.79,3.567c1.834.8,5.2,1.006,6.878-.087" transform="translate(0 -187.174)" fill="#ffb937"/>
            <path id="Trazado_873950" data-name="Trazado 873950" d="M77.278,317.239a.421.421,0,0,1-.086.076l-.264.2-1.026.767-.744.549c-.267.207-.547.446-.853.695-.606.506-1.322,1.052-2.042,1.737l-1.154,1.049c-.4.367-.783.781-1.2,1.191-.842.81-1.658,1.755-2.536,2.732a53.93,53.93,0,0,0-8.947,14.474c-.481,1.222-.962,2.374-1.31,3.49-.181.555-.38,1.084-.529,1.605l-.422,1.5c-.291.951-.458,1.835-.64,2.6-.086.385-.175.742-.24,1.074l-.159.911q-.144.8-.227,1.261l-.065.327a.468.468,0,0,1-.03.111.418.418,0,0,1,.006-.114c.012-.088.025-.2.043-.331q.067-.463.185-1.269l.139-.916c.059-.334.142-.693.222-1.08.17-.773.327-1.662.608-2.619l.409-1.51c.145-.524.34-1.056.518-1.615.342-1.122.817-2.282,1.295-3.511A52.743,52.743,0,0,1,67.213,326.1c.886-.977,1.71-1.92,2.561-2.728.42-.409.809-.821,1.213-1.186l1.168-1.041c.73-.68,1.455-1.218,2.07-1.715.311-.245.6-.479.867-.682l.758-.534,1.052-.733.277-.186a.433.433,0,0,1,.1-.057" transform="translate(-30.519 -176.664)" fill="#263238"/>
            <path id="Trazado_873951" data-name="Trazado 873951" d="M84.018,368.207a1.934,1.934,0,0,1-.336-.056c-.219-.039-.537-.124-.953-.193a26.813,26.813,0,0,0-3.544-.433,25.86,25.86,0,0,0-21,8.737A26.912,26.912,0,0,0,56,379.08c-.245.344-.408.629-.535.812a1.907,1.907,0,0,1-.2.278,1.821,1.821,0,0,1,.157-.3c.114-.191.266-.484.5-.838a23.9,23.9,0,0,1,2.143-2.878A25.442,25.442,0,0,1,79.2,367.361a23.882,23.882,0,0,1,3.552.508c.416.083.73.182.947.236a1.9,1.9,0,0,1,.325.1" transform="translate(-30.777 -204.54)" fill="#263238"/>
            <path id="Trazado_873952" data-name="Trazado 873952" d="M65.683,283.509a.546.546,0,0,1-.019.129c-.02.1-.046.22-.078.374l-.322,1.434c-.282,1.245-.712,3.041-1.252,5.258-1.079,4.435-2.645,10.541-4.278,17.308-.811,3.386-1.545,6.62-2.178,9.569s-1.15,5.616-1.545,7.862c-.211,1.121-.37,2.14-.521,3.034s-.273,1.664-.365,2.3-.171,1.1-.226,1.452c-.026.155-.047.279-.064.377a.6.6,0,0,1-.03.127.546.546,0,0,1,.006-.13c.011-.1.025-.224.042-.38.044-.35.105-.838.183-1.458s.184-1.407.327-2.3.286-1.918.487-3.042c.374-2.252.887-4.922,1.5-7.878s1.351-6.191,2.162-9.578c1.633-6.77,3.225-12.87,4.344-17.294l1.324-5.239L65.541,284l.1-.369a.543.543,0,0,1,.042-.124" transform="translate(-30.519 -157.881)" fill="#263238"/>
            <path id="Trazado_873953" data-name="Trazado 873953" d="M49.737,342.287a.342.342,0,0,1-.031-.1c-.019-.081-.041-.179-.068-.3q-.089-.426-.241-1.16c-.207-1.008-.483-2.47-.8-4.283-.627-3.624-1.372-8.658-1.83-14.256-.222-2.8-.345-5.474-.4-7.907s-.019-4.625.057-6.463c.023-.92.083-1.75.123-2.48s.089-1.357.136-1.87q.069-.745.109-1.18l.034-.306a.35.35,0,0,1,.019-.1.356.356,0,0,1,0,.105c0,.083-.007.184-.012.308l-.065,1.182c-.034.513-.072,1.14-.1,1.87s-.077,1.559-.089,2.478c-.055,1.837-.059,4.025-.007,6.454s.2,5.1.417,7.892c.457,5.589,1.175,10.619,1.761,14.248.293,1.815.543,3.281.723,4.293q.125.738.2,1.168c.018.122.033.222.046.3a.352.352,0,0,1,.008.105" transform="translate(-25.812 -168.111)" fill="#263238"/>
            <path id="Trazado_873954" data-name="Trazado 873954" d="M29.991,366.709a1.621,1.621,0,0,1-.128-.288l-.322-.838-.23-.606-.314-.7-.359-.81c-.126-.287-.29-.576-.445-.887l-.5-.971-.6-1.024c-.393-.718-.9-1.432-1.392-2.21a52.361,52.361,0,0,0-3.687-4.711,57.951,57.951,0,0,0-4.231-4.235c-.7-.593-1.348-1.187-2-1.684L14.863,347l-.88-.649c-.555-.421-1.077-.773-1.537-1.081s-.853-.578-1.187-.778l-.758-.481a1.632,1.632,0,0,1-.257-.181,1.566,1.566,0,0,1,.28.141l.782.444c.342.189.748.441,1.211.747s1,.642,1.562,1.057l.892.639.939.731c.658.493,1.31,1.083,2.02,1.675a54.824,54.824,0,0,1,4.262,4.241,49.745,49.745,0,0,1,3.69,4.746c.489.785.993,1.506,1.381,2.232l.587,1.036.489.983c.151.315.311.608.433.9l.345.821.3.714.212.615.282.854a1.587,1.587,0,0,1,.083.3" transform="translate(-5.705 -191.474)" fill="#263238"/>
            <path id="Trazado_873955" data-name="Trazado 873955" d="M88.463,338.95c0,.036-.593.037-1.546.09a27.679,27.679,0,0,0-7.3,1.386c-.906.3-1.457.517-1.472.483a1.466,1.466,0,0,1,.368-.2c.242-.116.6-.267,1.049-.437a22.012,22.012,0,0,1,7.345-1.395c.48-.006.869,0,1.137.022a1.464,1.464,0,0,1,.415.051" transform="translate(-43.519 -188.713)" fill="#263238"/>
            <path id="Trazado_873956" data-name="Trazado 873956" d="M103.6,373.115a11.234,11.234,0,0,0-4.9-5.273,3.431,3.431,0,0,1,.995.44,8.788,8.788,0,0,1,3.537,3.809,3.435,3.435,0,0,1,.365,1.024" transform="translate(-54.968 -204.842)" fill="#263238"/>
            <path id="Trazado_873957" data-name="Trazado 873957" d="M76.842,298.77c.047.05-.855.943-1.838,2.154s-1.683,2.27-1.741,2.234a13.776,13.776,0,0,1,3.579-4.387" transform="translate(-40.797 -166.378)" fill="#263238"/>
            <path id="Trazado_873958" data-name="Trazado 873958" d="M74.645,287.246a17.048,17.048,0,0,1,.664,3.9,17.05,17.05,0,0,1-.664-3.9" transform="translate(-41.558 -159.962)" fill="#263238"/>
            <path id="Trazado_873959" data-name="Trazado 873959" d="M50.141,323.412a24.16,24.16,0,0,1-1.433,3.015,24.146,24.146,0,0,1-1.638,2.909,48.352,48.352,0,0,1,3.071-5.924" transform="translate(-26.211 -180.102)" fill="#263238"/>
            <path id="Trazado_873960" data-name="Trazado 873960" d="M41.7,311.134a13.575,13.575,0,0,1,1.215,2.181,13.557,13.557,0,0,1,1.008,2.284,13.606,13.606,0,0,1-1.215-2.181,13.585,13.585,0,0,1-1.008-2.284" transform="translate(-23.219 -173.264)" fill="#263238"/>
            <path id="Trazado_873961" data-name="Trazado 873961" d="M18.094,352.545c-.016.066-.987-.123-2.2-.206s-2.2-.039-2.206-.106a6.339,6.339,0,0,1,2.222-.124,6.329,6.329,0,0,1,2.182.436" transform="translate(-7.623 -196.068)" fill="#263238"/>
            <path id="Trazado_873962" data-name="Trazado 873962" d="M35.974,390.255l2.725,14.33a2.009,2.009,0,0,0,1.973,1.634h8.051a2.009,2.009,0,0,0,1.982-1.68l2.369-14.284Z" transform="translate(-20.033 -217.326)" fill="#263238"/>
            <path id="Trazado_873963" data-name="Trazado 873963" d="M36.86,394.912h15.4l.818-4.658h-17.1Z" transform="translate(-20.033 -217.325)" fill="#455a64"/>
            <path id="Trazado_873964" data-name="Trazado 873964" d="M37.972,400.766l.323,1.7H53.132l.236-1.7Z" transform="translate(-21.146 -223.179)" fill="#fafafa"/>
          </g>
        </g>
      </g>
    </g>
  </g>
</svg>
