<svg xmlns="http://www.w3.org/2000/svg" xmlns:xlink="http://www.w3.org/1999/xlink" width="145" height="145" viewBox="0 0 145 145">
  <defs>
    <clipPath id="clip-path">
      <rect id="Rectángulo_400938" data-name="Rectángulo 400938" width="145" height="145" transform="translate(0 -0.281)" fill="none"/>
    </clipPath>
    <clipPath id="clip-path-2">
      <rect id="Rectángulo_401073" data-name="Rectángulo 401073" width="110.228" height="49.642" fill="#7d3a1b"/>
    </clipPath>
    <clipPath id="clip-path-3">
      <rect id="Rectángulo_402116" data-name="Rectángulo 402116" width="76.434" height="76.427" fill="#6a4d23"/>
    </clipPath>
  </defs>
  <g id="img3" transform="translate(-728 -1174)">
    <g id="Grupo_1099959" data-name="Grupo 1099959" transform="translate(553 -8366.719)">
      <g id="Grupo_1099404" data-name="Grupo 1099404" transform="translate(175 9541)">
        <g id="Grupo_1099379" data-name="Grupo 1099379" transform="translate(0 0)">
          <rect id="Rectángulo_401103" data-name="Rectángulo 401103" width="145" height="145" transform="translate(0 -0.281)" fill="none"/>
          <g id="Grupo_1099348" data-name="Grupo 1099348" transform="translate(0.045 0.045)">
            <g id="Grupo_1099282" data-name="Grupo 1099282">
              <g id="Grupo_1099281" data-name="Grupo 1099281" clip-path="url(#clip-path-2)">
                <path id="Trazado_873375" data-name="Trazado 873375" d="M89.413,10.879c-4.947,0-7.506-2.426-9.765-4.567C77.431,4.213,75.522,2.4,71.529,2.4s-5.9,1.814-8.118,3.913c-2.259,2.141-4.814,4.567-9.765,4.567S46.14,8.453,43.881,6.312C41.664,4.213,39.755,2.4,35.763,2.4s-5.9,1.814-8.114,3.913c-2.259,2.141-4.818,4.567-9.765,4.567s-7.51-2.426-9.769-4.567C5.9,4.213,3.993,2.4,0,2.4V0C4.947,0,7.506,2.43,9.765,4.567c2.217,2.1,4.126,3.913,8.118,3.913S23.785,6.67,26,4.571C28.253,2.43,30.816,0,35.763,0s7.51,2.43,9.765,4.567c2.217,2.1,4.126,3.913,8.118,3.913s5.9-1.81,8.118-3.913C64.019,2.43,66.582,0,71.529,0s7.51,2.43,9.765,4.567c2.217,2.1,4.126,3.913,8.118,3.913s5.9-1.81,8.118-3.913C99.786,2.43,102.345,0,107.3,0V2.4c-3.993,0-5.9,1.814-8.118,3.913-2.259,2.141-4.818,4.567-9.765,4.567" transform="translate(2.932 38.763)" fill="#7d3a1b"/>
                <path id="Trazado_873376" data-name="Trazado 873376" d="M89.413,10.879c-4.947,0-7.51-2.426-9.765-4.571C77.431,4.209,75.522,2.4,71.529,2.4s-5.9,1.81-8.118,3.909c-2.255,2.145-4.814,4.571-9.765,4.571s-7.51-2.426-9.765-4.571C41.664,4.209,39.755,2.4,35.763,2.4s-5.9,1.814-8.115,3.909c-2.259,2.145-4.818,4.571-9.765,4.571s-7.51-2.426-9.769-4.571C5.9,4.209,3.993,2.4,0,2.4V0C4.947,0,7.51,2.426,9.765,4.567c2.217,2.1,4.126,3.913,8.118,3.913S23.785,6.67,26,4.567C28.253,2.426,30.816,0,35.763,0s7.51,2.426,9.769,4.567c2.213,2.1,4.122,3.913,8.115,3.913s5.9-1.81,8.118-3.913C64.019,2.426,66.582,0,71.529,0s7.51,2.426,9.765,4.567c2.217,2.1,4.126,3.913,8.118,3.913s5.9-1.81,8.118-3.913C99.79,2.426,102.349,0,107.3,0V2.4c-3.993,0-5.905,1.814-8.122,3.909-2.259,2.145-4.818,4.571-9.765,4.571" transform="translate(1.955 25.842)" fill="#7d3a1b"/>
                <path id="Trazado_873377" data-name="Trazado 873377" d="M89.412,10.879c-4.947,0-7.51-2.426-9.765-4.571C77.431,4.209,75.522,2.4,71.529,2.4s-5.9,1.81-8.118,3.909c-2.255,2.145-4.818,4.571-9.765,4.571s-7.51-2.426-9.765-4.571C41.664,4.209,39.755,2.4,35.763,2.4s-5.9,1.814-8.115,3.909c-2.259,2.145-4.818,4.571-9.765,4.571s-7.51-2.426-9.769-4.571C5.9,4.209,3.993,2.4,0,2.4V0C4.947,0,7.51,2.426,9.765,4.567c2.213,2.1,4.126,3.913,8.118,3.913S23.785,6.67,26,4.567C28.253,2.426,30.816,0,35.763,0s7.51,2.426,9.769,4.567c2.213,2.1,4.122,3.913,8.115,3.913s5.9-1.81,8.118-3.913C64.019,2.426,66.582,0,71.529,0s7.51,2.426,9.765,4.567c2.217,2.1,4.126,3.913,8.118,3.913s5.9-1.81,8.118-3.913C99.79,2.426,102.345,0,107.3,0V2.4c-3.993,0-5.905,1.814-8.122,3.909-2.259,2.145-4.818,4.571-9.765,4.571" transform="translate(0.977 12.921)" fill="#7d3a1b"/>
                <path id="Trazado_873378" data-name="Trazado 873378" d="M89.413,10.875c-4.947,0-7.506-2.426-9.765-4.567C77.431,4.209,75.522,2.4,71.529,2.4s-5.9,1.81-8.115,3.909c-2.259,2.141-4.818,4.567-9.769,4.567S46.14,8.449,43.881,6.308C41.664,4.209,39.755,2.4,35.763,2.4s-5.9,1.81-8.115,3.905c-2.255,2.145-4.818,4.571-9.765,4.571s-7.51-2.426-9.769-4.567C5.9,4.209,3.993,2.4,0,2.4V0C4.947,0,7.51,2.426,9.765,4.567c2.217,2.1,4.126,3.909,8.118,3.909s5.9-1.81,8.115-3.909C28.257,2.426,30.816,0,35.763,0s7.506,2.426,9.769,4.567c2.213,2.1,4.122,3.909,8.115,3.909s5.9-1.81,8.118-3.909C64.023,2.426,66.582,0,71.529,0s7.506,2.426,9.765,4.567c2.217,2.1,4.126,3.909,8.118,3.909s5.9-1.81,8.118-3.909C99.79,2.426,102.349,0,107.3,0V2.4c-4,0-5.905,1.81-8.122,3.909-2.259,2.141-4.818,4.567-9.765,4.567" transform="translate(0 0.004)" fill="#7d3a1b"/>
              </g>
            </g>
          </g>
          <path id="Trazado_873425" data-name="Trazado 873425" d="M60.362,0A60.362,60.362,0,1,1,0,60.362,60.362,60.362,0,0,1,60.362,0Z" transform="translate(17.974 21.56)" fill="#efb499"/>
          <circle id="Elipse_11503" data-name="Elipse 11503" cx="63" cy="63" r="63" transform="translate(9 9.719)" fill="#fef7eb"/>
        </g>
      </g>
    </g>
    <g id="Grupo_1100300" data-name="Grupo 1100300" transform="translate(761.783 1203.118)">
      <g id="Grupo_1100298" data-name="Grupo 1100298" clip-path="url(#clip-path-3)">
        <path id="Trazado_873697" data-name="Trazado 873697" d="M28.058,44.182c1.238-.8,2.07-.268,2.815.612a1.208,1.208,0,0,0,1.618.468c.811-.339.64-.879.648-1.43.026-2.048.248-2.283,2.244-2.285q2.737,0,5.475,0c2.314,0,2.482.131,2.461,2.427a1.276,1.276,0,0,0,.928,1.4c.745.313,1.027-.192,1.361-.573.76-.868,1.575-1.406,2.815-.629,0-2.819-.022-5.489.015-8.159.01-.7-.256-.884-.889-.828a1.378,1.378,0,0,1-1.567-.816,1.488,1.488,0,0,1,.463-1.609c1.934-2.309,3.854-4.63,5.794-6.934.95-1.128,1.618-1.125,2.576.012,1.913,2.271,3.806,4.56,5.712,6.837.419.5.825,1,.524,1.711a1.37,1.37,0,0,1-1.577.8c-.8-.092-.871.334-.867.977.023,3.14-.046,6.283.04,9.421.031,1.125-.522,1.091-1.3,1.084-.761-.007-1.338.069-1.313-1.072.08-3.733.029-7.469.032-11.2,0-.379-.11-.872.206-1.091,1.146-.793.323-1.346-.175-1.948a26.445,26.445,0,0,1-1.783-2.156c-.636-.96-1.067-.75-1.619.052-.406.591-.945,1.09-1.379,1.665-.575.76-1.82,1.392-.472,2.571.228.2.129.808.13,1.227.008,3.608.034,7.215-.015,10.822a2.554,2.554,0,0,0,.96,2.328,8.968,8.968,0,0,1,.9.895c1.411,1.416,1.421,1.781.011,3.227-.456.468-.815.824-.492,1.623s.846.673,1.414.678c2.111.02,2.314.222,2.315,2.339,0,1.995.009,3.99,0,5.984-.009,1.486-.387,1.829-1.9,1.874-.532.016-1.224-.264-1.562.192a1.3,1.3,0,0,0,.062,1.983c1.669,1.578,1.613,1.868.013,3.472-1.348,1.352-2.692,2.71-4.046,4.056-1.11,1.1-1.642,1.089-2.778.02-.363-.341-.654-.988-1.158-.906-.687.113-1.42.272-1.394,1.39.057,2.425-.106,2.5-2.478,2.538-.424.007-1.088-.287-1.236.266A4.131,4.131,0,0,0,39.6,79.5c.121.476.744.236,1.137.237q12.733.02,25.465.01c2.492,0,2.605.112,2.606,2.557,0,2.536,0,2.536,2.48,2.536,1.188,0,2.377.008,3.565,0,1.038-.008,1.591.476,1.592,1.532q0,3.565,0,7.13c0,1.056-.554,1.536-1.591,1.535q-7.321-.007-14.642,0c-1.123,0-1.61-.557-1.6-1.656q.023-3.438,0-6.875c-.01-1.186.556-1.689,1.718-1.672,1.7.026,3.4-.045,5.092.023,1.12.045.834-.7.819-1.27-.014-.543.353-1.3-.785-1.3q-12.541.042-25.083,0c-1.233-.005-.784.812-.837,1.384-.059.635-.153,1.255.905,1.2,1.65-.093,3.309-.037,4.964-.02,1.341.013,1.745.409,1.755,1.743.017,2.249-.011,4.5.011,6.748.011,1.169-.511,1.708-1.688,1.7q-7.257-.022-14.515,0c-1.1,0-1.645-.5-1.64-1.619.011-2.292.02-4.584,0-6.875-.012-1.167.5-1.724,1.682-1.709,1.7.022,3.4-.052,5.092.023,1.218.054.831-.772.863-1.361.033-.61.2-1.226-.881-1.22q-12.477.068-24.955,0c-1.2-.006-.856.747-.878,1.349s-.22,1.286.869,1.231c1.651-.083,3.31-.032,4.965-.018,1.409.012,1.787.4,1.795,1.833.012,2.207-.015,4.414.01,6.621.013,1.149-.455,1.744-1.651,1.741q-7.257-.018-14.515,0C.532,95.043.018,94.5.03,93.33c.023-2.292.015-4.584,0-6.875a1.414,1.414,0,0,1,1.64-1.617c1.7.015,3.4-.031,5.092.018.733.021.973-.224.922-.94-.054-.76-.018-1.527-.01-2.291.016-1.5.376-1.873,1.881-1.875q10.059-.01,20.117,0c2.08,0,4.163-.074,6.237.029,1.161.058,1.034-.579,1.063-1.322.032-.822-.024-1.462-1.11-1.248a2,2,0,0,1-.381,0c-2.12,0-2.31-.21-2.357-2.31-.01-.445.278-1-.417-1.312a1.286,1.286,0,0,0-1.763.235c-1.581,1.662-1.832,1.624-3.468-.013-1.38-1.381-2.765-2.756-4.133-4.149-.978-1-.967-1.566,0-2.595a4.91,4.91,0,0,1,.533-.546c.484-.375.48-.77.273-1.331a1.012,1.012,0,0,0-1.123-.739c-2.6-.064-2.616-.1-2.616-2.673q0-2.483,0-4.966c0-2.421.083-2.546,2.479-2.521a1.26,1.26,0,0,0,1.363-.961c.278-.672-.17-.927-.507-1.275-1.533-1.583-1.617-1.955.026-3.372a4.855,4.855,0,0,0,1.773-4.308C25.4,41.154,25.5,37.923,25.5,34.7c0-.718-.092-1.465.681-1.915.429-.25.125-.493-.048-.7-.916-1.114-1.855-2.209-2.759-3.333-.361-.449-.59-.3-.882.059-.884,1.086-1.793,2.151-2.673,3.239-.151.187-.563.431-.121.7.867.528.713,1.367.714,2.158.005,3.565-.05,7.131.032,10.695.027,1.153-.573,1.046-1.321,1.064-.794.018-1.324.021-1.293-1.092.087-3.1.012-6.2.043-9.294.007-.75-.082-1.224-1.005-1.1a1.28,1.28,0,0,1-1.446-.8,1.385,1.385,0,0,1,.371-1.513c2.012-2.41,4.01-4.832,6.043-7.224a1.277,1.277,0,0,1,2.242,0c2.062,2.423,4.113,4.857,6.116,7.328.853,1.052.335,2.206-1.017,2.186-1.033-.015-1.156.381-1.139,1.252.05,2.542.018,5.085.018,7.781m-.751,8.555c-.474,1.127-.972,2.381-1.534,3.6-.162.354-.584.447-.983.491-.576.063-1.378-.275-1.672.192s-.136,1.22-.15,1.849c-.016.72.026,1.443-.012,2.162-.033.618.106,1,.824.886a1.962,1.962,0,0,1,2.511,1.825,3.117,3.117,0,0,0,.5,1.162,1.792,1.792,0,0,1-.433,2.754c-.59.45-.7.837-.048,1.386a23.55,23.55,0,0,1,2.267,2.225c.477.528.84.613,1.288.015a1.909,1.909,0,0,1,2.963-.471,2.75,2.75,0,0,0,1.046.445A1.969,1.969,0,0,1,35.7,73.776c-.094.627.118.922.822.89,1.143-.052,2.29-.039,3.434,0,.613.018.875-.217.786-.812a1.97,1.97,0,0,1,1.83-2.51,3.107,3.107,0,0,0,1.16-.5,1.786,1.786,0,0,1,2.748.456c.462.6.86.658,1.4.036a26.876,26.876,0,0,1,2.246-2.248c.5-.454.682-.811.049-1.28a1.914,1.914,0,0,1-.485-2.962,3.158,3.158,0,0,0,.488-1.166A1.856,1.856,0,0,1,52.51,61.95c.743.1,1.078-.132,1.023-.958a28.957,28.957,0,0,1-.005-3.178c.03-.691-.155-1.056-.91-.948a1.87,1.87,0,0,1-2.35-1.7,3.867,3.867,0,0,0-.534-1.284,1.817,1.817,0,0,1,.452-2.758c.617-.463.639-.877.022-1.4a15.281,15.281,0,0,1-1.884-1.889c-.7-.856-1.225-.966-2.035-.049-.961,1.087-5.1-.242-5.432-1.665a2.365,2.365,0,0,1-.03-.252c-.211-1.759-.211-1.759-1.993-1.759H37.815c-1.863,0-1.794.012-2.108,1.8-.339,1.925-2.418,1.369-3.5,2.274a1.21,1.21,0,0,1-1.628-.12c-1.438-1.119-1.444-1.111-2.731.177a13.577,13.577,0,0,1-1.178,1.158c-.826.645-1.051,1.229-.054,1.93a1.491,1.491,0,0,1,.693,1.414M9.008,87.395c-1.777,0-3.556.052-5.33-.022-.922-.038-1.163.281-1.1,1.147a24.578,24.578,0,0,1,0,3.044c-.039.723.207.94.928.93,2.623-.038,5.246,0,7.869-.019,1.261-.007,3.035.435,3.659-.212.856-.887.169-2.642.288-4.018.058-.668-.191-.879-.857-.864-1.819.039-3.638.013-5.458.013M38.245,92.48c.8,0,1.608.011,2.412,0,1.262-.021,3.031.437,3.661-.21.862-.885.171-2.641.291-4.016.058-.66-.178-.875-.851-.869q-5.521.043-11.043,0c-.685-.005-.873.232-.848.879.043,1.1.05,2.2,0,3.3-.034.715.194.954.923.935,1.818-.047,3.638-.015,5.458-.015M67.48,87.4c-1.819,0-3.639.024-5.458-.013-.655-.013-.906.178-.87.856a20.574,20.574,0,0,1-.007,2.917c-.093,1.023.184,1.391,1.288,1.352,2.493-.09,4.992,0,7.488-.04,1.293-.022,3.063.581,3.748-.263.65-.8.141-2.5.238-3.8.066-.895-.32-1.041-1.1-1.02-1.776.047-3.554.015-5.331.015" transform="translate(-0.023 -18.613)" fill="#6a4d23"/>
        <path id="Trazado_873698" data-name="Trazado 873698" d="M234.789,140.244c1.23,0,2.46-.011,3.689.007.331,0,.812-.021.965.172.917,1.158,1.508.252,2.161-.279.723-.589,1.408-1.228,2.157-1.78.625-.461.765-.786.038-1.3-.826-.589-1.578-1.283-2.35-1.946-.617-.529-1.176-1.269-1.95-.158-.194.278-.628.2-.967.2-2.545,0-5.091-.053-7.633.026-1.166.036-.912-.68-.919-1.316-.007-.655-.193-1.346.949-1.288,1.861.094,3.731,0,5.6.037.741.015,1.232-.066,1.1-1a1.281,1.281,0,0,1,.78-1.456,1.471,1.471,0,0,1,1.615.43c2.338,1.963,4.692,3.905,7.022,5.877,1.05.889,1.036,1.592-.037,2.5-2.3,1.939-4.622,3.857-6.931,5.788-.508.425-1.025.781-1.721.447a1.317,1.317,0,0,1-.729-1.488c.121-.894-.373-.933-1.049-.923-1.908.028-3.819-.05-5.724.032-1.09.047-.9-.63-.868-1.23s-.363-1.432.857-1.363c1.31.075,2.628.017,3.943.017" transform="translate(-171.392 -96.936)" fill="#6a4d23"/>
        <path id="Trazado_873699" data-name="Trazado 873699" d="M13.035,135.188c-1.187,0-2.374,0-3.562,0-.378,0-.872.128-1.1-.176-.905-1.218-1.5-.274-2.147.257-.722.589-1.4,1.246-2.154,1.782s-.608.9.046,1.39c.781.58,1.5,1.242,2.251,1.866.6.5,1.159,1.322,1.943.172.191-.28.626-.2.965-.2,2.544,0,5.09.058,7.631-.027,1.162-.039.932.663.932,1.3s.231,1.358-.932,1.3c-1.946-.092-3.9,0-5.85-.038-.656-.012-.929.176-.862.854a1.388,1.388,0,0,1-.785,1.584c-.7.306-1.211-.087-1.713-.508-2.275-1.9-4.559-3.8-6.829-5.709-1.15-.968-1.165-1.63-.047-2.574,2.3-1.941,4.619-3.858,6.926-5.791.508-.426,1.025-.782,1.719-.441a1.351,1.351,0,0,1,.728,1.493c-.079.732.212.937.924.922,1.95-.042,3.9.04,5.851-.034,1.212-.046.837.767.865,1.359s.22,1.3-.861,1.234c-1.31-.079-2.628-.019-3.942-.019" transform="translate(0 -96.966)" fill="#6a4d23"/>
        <path id="Trazado_873700" data-name="Trazado 873700" d="M130.265,11.806c0-.806-.014-1.613.006-2.418.008-.332-.034-.823.156-.969,1.268-.972.265-1.61-.311-2.255-.809-.905-1.455-2.611-2.414-2.535-.872.07-1.624,1.659-2.426,2.581-.222.256-.419.535-.65.783-.333.357-.489.635.067.968a1.313,1.313,0,0,1,.487,1.243c-.005,1.74-.064,3.482.021,5.218.054,1.092-.627.9-1.228.87-.585-.032-1.442.366-1.364-.856.073-1.141-.011-2.291.025-3.435.019-.6-.162-.855-.787-.8a1.429,1.429,0,0,1-1.674-.844c-.278-.715.158-1.205.573-1.7,1.9-2.277,3.8-4.564,5.711-6.834.911-1.081,1.6-1.1,2.493-.045,1.971,2.333,3.914,4.688,5.874,7.03a1.45,1.45,0,0,1,.42,1.616,1.306,1.306,0,0,1-1.464.774c-.815-.1-1.016.243-.975,1,.059,1.1-.028,2.208.025,3.308.056,1.144-.765.763-1.3.777-.558.014-1.354.316-1.273-.809.063-.886.013-1.781.012-2.672" transform="translate(-89.505 0)" fill="#6a4d23"/>
        <path id="Trazado_873701" data-name="Trazado 873701" d="M131.174,72.43c-1.21.331-1.221-.368-1.287-1.3-.084-1.193.478-1.212,1.4-1.257,1.079-.053,1.2.39,1.221,1.307.019,1.032-.225,1.543-1.336,1.251" transform="translate(-96.803 -52.075)" fill="#6a4d23"/>
        <path id="Trazado_873702" data-name="Trazado 873702" d="M162.451,71.154c.32,1.194-.262,1.331-1.254,1.374-1.133.049-1.278-.389-1.292-1.374-.015-1.018.3-1.288,1.278-1.248.927.039,1.657.064,1.268,1.248" transform="translate(-119.183 -52.101)" fill="#6a4d23"/>
        <path id="Trazado_873703" data-name="Trazado 873703" d="M71.2,122.415c-1.286.351-1.24-.4-1.314-1.3-.1-1.219.52-1.181,1.416-1.239,1.109-.072,1.183.432,1.2,1.321.023,1.036-.233,1.55-1.3,1.223" transform="translate(-52.083 -89.339)" fill="#6a4d23"/>
        <path id="Trazado_873704" data-name="Trazado 873704" d="M221.221,119.914c1.135-.3,1.294.259,1.329,1.261.039,1.114-.366,1.295-1.368,1.3s-1.28-.286-1.259-1.274c.02-.967.118-1.607,1.3-1.286" transform="translate(-163.916 -89.314)" fill="#6a4d23"/>
        <path id="Trazado_873705" data-name="Trazado 873705" d="M132.9,134.066a8.913,8.913,0,1,1-8.8-9,8.919,8.919,0,0,1,8.8,9m-8.956,6.274A6.358,6.358,0,1,0,117.627,134a6.371,6.371,0,0,0,6.313,6.336" transform="translate(-85.768 -93.219)" fill="#6a4d23"/>
      </g>
    </g>
  </g>
</svg>
