<svg xmlns="http://www.w3.org/2000/svg" xmlns:xlink="http://www.w3.org/1999/xlink" width="295" height="215" viewBox="0 0 295 215">
  <defs>
    <clipPath id="clip-path">
      <rect id="Rectángulo_402517" data-name="Rectángulo 402517" width="295" height="208.742" fill="none"/>
    </clipPath>
  </defs>
  <g id="img4" transform="translate(-1020 -2676)">
    <g id="Grupo_1100671" data-name="Grupo 1100671" transform="translate(1020 2678.999)">
      <g id="Grupo_1100670" data-name="Grupo 1100670" transform="translate(0 0.001)" clip-path="url(#clip-path)">
        <path id="Trazado_874908" data-name="Trazado 874908" d="M284.219,185.315H61.781s12.506-4.849,26.093-18.048,18.939-16.5,35.631-19.608,13.975-13.2,34.161-15.14,33-11.258,37.655-15.528,25.621,1.468,30.279,18.591,13.975,11.327,23.68,23.736,32.221,9.3,34.938,26" transform="translate(-19.819 -37.098)" fill="#5e732f"/>
        <path id="Trazado_874909" data-name="Trazado 874909" d="M299.358,200.327h77.254s9.179-32.648,4.332-36.017-9.029,10.3-13.633-6.162-8.207-36.61-22.973-33.888-16.077,44.378-26.288,46.133-20.377,17.7-18.691,29.933" transform="translate(-95.975 -39.784)" fill="#79943c"/>
        <line id="Línea_3248" data-name="Línea 3248" x2="78.652" transform="translate(196.084 160.543)" fill="none" stroke="#292e4a" stroke-miterlimit="10" stroke-width="1"/>
        <path id="Trazado_874910" data-name="Trazado 874910" d="M38.812,43.86h88.783s-13.088-3.795-15.263-8.509-3.715-7.628-8.067-7.991-6.359.363-10.341-5.62S84.14,13.4,79.244,15.031s-8.7,15.955-16.5,17.587S52.41,32.8,49.872,34.25s-8.7,9.065-11.06,9.609" transform="translate(-12.451 -4.661)" fill="#a6b1ed"/>
        <path id="Trazado_874911" data-name="Trazado 874911" d="M286.279,37.855h89.632s2.171-8.747-3.353-11.469-6.708,2.332-11.64-.972S362.5,2.282,353.618.143s-20.386,20.411-31.006,19.828-13.975-1.944-17.92,1.166-14.336,16.134-18.413,16.718" transform="translate(-91.839 -0.001)" fill="#a6b1ed"/>
        <rect id="Rectángulo_402514" data-name="Rectángulo 402514" width="52.27" height="66.871" transform="translate(178.089 27.417)" fill="#f70"/>
        <line id="Línea_3249" data-name="Línea 3249" x2="30.381" transform="translate(185.813 39.49)" fill="none" stroke="#fff" stroke-miterlimit="10" stroke-width="0.977"/>
        <line id="Línea_3250" data-name="Línea 3250" x2="36.824" transform="translate(185.813 45.594)" fill="none" stroke="#fff" stroke-miterlimit="10" stroke-width="0.977"/>
        <line id="Línea_3251" data-name="Línea 3251" x2="36.824" transform="translate(185.813 51.697)" fill="none" stroke="#fff" stroke-miterlimit="10" stroke-width="0.977"/>
        <line id="Línea_3252" data-name="Línea 3252" x2="36.824" transform="translate(185.813 57.801)" fill="none" stroke="#fff" stroke-miterlimit="10" stroke-width="0.977"/>
        <line id="Línea_3253" data-name="Línea 3253" x2="36.824" transform="translate(185.813 63.905)" fill="none" stroke="#fff" stroke-miterlimit="10" stroke-width="0.977"/>
        <line id="Línea_3254" data-name="Línea 3254" x2="36.824" transform="translate(185.813 70.008)" fill="none" stroke="#fff" stroke-miterlimit="10" stroke-width="0.977"/>
        <line id="Línea_3255" data-name="Línea 3255" x2="36.824" transform="translate(185.813 76.112)" fill="none" stroke="#fff" stroke-miterlimit="10" stroke-width="0.977"/>
        <line id="Línea_3256" data-name="Línea 3256" x2="36.824" transform="translate(185.813 82.215)" fill="none" stroke="#fff" stroke-miterlimit="10" stroke-width="0.977"/>
        <path id="Trazado_874912" data-name="Trazado 874912" d="M215.6,101.256V87.217l-8.8.259a25.449,25.449,0,0,0-2.462-5.937l6.41-6.044-9.927-9.927-6.044,6.41a25.448,25.448,0,0,0-5.937-2.462l.259-8.8H175.053l.259,8.8a25.449,25.449,0,0,0-5.937,2.462l-6.044-6.41L153.4,75.5l6.41,6.044a25.448,25.448,0,0,0-2.462,5.937l-8.8-.259v14.039l8.8-.259a25.448,25.448,0,0,0,2.462,5.937l-6.41,6.044,9.927,9.927,6.044-6.41a25.448,25.448,0,0,0,5.937,2.462l-.259,8.8h14.039l-.259-8.8a25.448,25.448,0,0,0,5.937-2.462l6.044,6.41,9.927-9.927-6.41-6.044A25.449,25.449,0,0,0,206.792,101Zm-33.523,1.691a8.711,8.711,0,1,1,8.711-8.711,8.711,8.711,0,0,1-8.711,8.711" transform="translate(-47.655 -19.478)" fill="#6470b5"/>
        <path id="Trazado_874913" data-name="Trazado 874913" d="M189.624,84.252a17.536,17.536,0,1,0,17.536,17.536,17.535,17.535,0,0,0-17.536-17.536m0,26.246a8.711,8.711,0,1,1,8.711-8.711,8.711,8.711,0,0,1-8.711,8.711" transform="translate(-55.206 -27.029)" fill="#292e4a"/>
        <path id="Trazado_874914" data-name="Trazado 874914" d="M231.781,27.766V19.227l-5.355.158a15.5,15.5,0,0,0-1.5-3.611l3.9-3.676L222.79,6.06l-3.676,3.9a15.491,15.491,0,0,0-3.611-1.5l.158-5.354h-8.539l.158,5.354a15.491,15.491,0,0,0-3.611,1.5l-3.676-3.9L193.954,12.1l3.9,3.676a15.5,15.5,0,0,0-1.5,3.611L191,19.227v8.539l5.355-.158a15.49,15.49,0,0,0,1.5,3.611l-3.9,3.676,6.038,6.038,3.676-3.9a15.491,15.491,0,0,0,3.611,1.5l-.158,5.355h8.539l-.158-5.355a15.491,15.491,0,0,0,3.611-1.5l3.676,3.9,6.038-6.038-3.9-3.676a15.491,15.491,0,0,0,1.5-3.611Zm-20.39,1.029a5.3,5.3,0,1,1,5.3-5.3,5.3,5.3,0,0,1-5.3,5.3" transform="translate(-61.273 -0.997)" fill="#a6b1ed"/>
        <path id="Trazado_874915" data-name="Trazado 874915" d="M223.857,201.825c-.833,3.05-2.44,6.971-2.82,10.459s6.1,5.47,6.934,3.718a5.061,5.061,0,0,1-.137-4.684c1.469-3.887,2.22-5.553,1.53-8.248-.524-2.047-4.993-3.126-5.507-1.246" transform="translate(-70.904 -64.434)" fill="#cc9b74"/>
        <path id="Trazado_874916" data-name="Trazado 874916" d="M266.362,123.456s-10.227,5.279-16.826,4.619-22.765-2.674-28.7,3.364-29.693,35.237-28.539,37.381,27.549,23.095,33.157,21.28,30.387-27.053,36.639-30.848,15.593-8.413,15.593-8.413Z" transform="translate(-61.675 -39.605)" fill="#cc9b74"/>
        <path id="Trazado_874917" data-name="Trazado 874917" d="M141.313,114.126s17.752,9.471,25.34,9.967,20.912-.66,30.5,1.98,1.373,7.258,4.737,10.557,27.1,17.1,30.749,19.465,4.619,5.472,2.144,7.6-5.444,1.47-10.062-1.17-13.363-8.908-13.857-7.588,14.847,10.91,16.991,12.713,2.474,4.773-.99,6.588-6.433,1.979-9.4,0-13.032-9.4-14.187-8.248,5.279,4.619,9.4,7.711c3.848,2.885,6.763,3.836,7.094,6.145s-3.269,6.413-9.238,4.454c-3.519-1.155-12.867-8.083-14.3-7.094s13.637,7.039,13.417,9.458-3.41,6.461-12.5,2.09c-5.548-2.667-39.3-26.394-42.816-29.034s-33.271-18.311-33.271-18.311Z" transform="translate(-38.838 -36.612)" fill="#f9cca9"/>
        <path id="Trazado_874918" data-name="Trazado 874918" d="M247.988,161.831s-1.155,5.06-5.114,7.314c.412,3-1.815,8.852-6.6,10.464-.413,3.348-3.287,8.79-6.681,9.935" transform="translate(-73.654 -51.916)" fill="none" stroke="#cc9b74" stroke-linecap="round" stroke-linejoin="round" stroke-width="0.972"/>
        <path id="Trazado_874919" data-name="Trazado 874919" d="M200.814,134.066c-.092-1.431,6.708-2.089,11.328-3.629s12.647-4,19.245-3.707,14.62,2.01,20.122,2.309,1.433,6.457-3.846,8-16.847,5.5-20.191,3.629-6.313-2.639-11.482-2.2-14.957-.99-15.177-4.4" transform="translate(-64.421 -40.648)" fill="#cc9b74"/>
        <path id="Trazado_874920" data-name="Trazado 874920" d="M385,79.337c8.565,22.034,7.983,42.821-1.3,46.431s-23.754-11.328-32.32-33.362-7.982-42.821,1.3-46.431S376.436,57.3,385,79.337" transform="translate(-110.779 -14.577)" fill="#292e4a"/>
        <line id="Línea_3257" data-name="Línea 3257" y1="6.392" x2="14.269" transform="translate(263.331 90.285)" fill="none" stroke="#6470b5" stroke-miterlimit="10" stroke-width="0.972"/>
        <path id="Trazado_874921" data-name="Trazado 874921" d="M306.251,113.539s-4.976,1.938-6.945,2.557c-1.346.423-2.935,1.026-3.806,1.365a.667.667,0,0,0-.366.9c1.285,2.881,6.529,14.644,7.8,17.639,1.451,3.421,5.39,14.1,5.909,14.72s12.232-4.043,12.232-4.043Z" transform="translate(-94.66 -36.424)" fill="#292e4a"/>
        <path id="Trazado_874922" data-name="Trazado 874922" d="M307.842,99.039l46.739-26.587S359.2,78.72,358.87,85.4s5.774,10.31,5.609,21.857c-.075,5.278,4.124,10.063,4.124,10.063l-44.54,19.3Z" transform="translate(-98.756 -23.243)" fill="#6470b5"/>
        <line id="Línea_3258" data-name="Línea 3258" x1="51.908" y2="29.887" transform="translate(209.086 45.91)" fill="none" stroke="#fff" stroke-miterlimit="10" stroke-width="0.972"/>
        <line id="Línea_3259" data-name="Línea 3259" y1="11.502" x2="25.08" transform="translate(216.008 80.332)" fill="none" stroke="#292e4a" stroke-miterlimit="10" stroke-width="0.972"/>
        <path id="Trazado_874923" data-name="Trazado 874923" d="M326.881,122.249a2.557,2.557,0,1,1-2.557-2.557,2.557,2.557,0,0,1,2.557,2.557" transform="translate(-103.223 -38.398)" fill="#fff"/>
        <path id="Trazado_874924" data-name="Trazado 874924" d="M324.568,122.334a.254.254,0,1,1-.254-.253.255.255,0,0,1,.254.253" transform="translate(-103.958 -39.164)" fill="#292e4a"/>
        <path id="Trazado_874925" data-name="Trazado 874925" d="M326.764,122.334a.254.254,0,1,1-.255-.253.255.255,0,0,1,.255.253" transform="translate(-104.663 -39.164)" fill="#292e4a"/>
        <path id="Trazado_874926" data-name="Trazado 874926" d="M324.568,124.338a.254.254,0,1,1-.254-.254.254.254,0,0,1,.254.254" transform="translate(-103.958 -39.807)" fill="#292e4a"/>
        <path id="Trazado_874927" data-name="Trazado 874927" d="M326.764,124.338a.254.254,0,1,1-.255-.254.254.254,0,0,1,.255.254" transform="translate(-104.663 -39.807)" fill="#292e4a"/>
        <path id="Trazado_874928" data-name="Trazado 874928" d="M341.611,116.1a2.557,2.557,0,1,1-2.557-2.557,2.557,2.557,0,0,1,2.557,2.557" transform="translate(-107.948 -36.424)" fill="#fff"/>
        <path id="Trazado_874929" data-name="Trazado 874929" d="M339.3,116.182a.254.254,0,1,1-.255-.254.254.254,0,0,1,.255.254" transform="translate(-108.684 -37.19)" fill="#292e4a"/>
        <path id="Trazado_874930" data-name="Trazado 874930" d="M341.494,116.182a.254.254,0,1,1-.254-.254.254.254,0,0,1,.254.254" transform="translate(-109.388 -37.19)" fill="#292e4a"/>
        <path id="Trazado_874931" data-name="Trazado 874931" d="M339.3,118.185a.254.254,0,1,1-.255-.254.254.254,0,0,1,.255.254" transform="translate(-108.684 -37.833)" fill="#292e4a"/>
        <path id="Trazado_874932" data-name="Trazado 874932" d="M341.494,118.185a.254.254,0,1,1-.254-.254.254.254,0,0,1,.254.254" transform="translate(-109.388 -37.833)" fill="#292e4a"/>
        <path id="Trazado_874933" data-name="Trazado 874933" d="M58.484,79.337c-8.565,22.034-7.983,42.821,1.3,46.431S83.54,114.44,92.105,92.406s7.982-42.821-1.3-46.431S67.049,57.3,58.484,79.337" transform="translate(-16.817 -14.577)" fill="#292e4a"/>
        <line id="Línea_3260" data-name="Línea 3260" x1="14.269" y1="6.392" transform="translate(38.289 90.285)" fill="none" stroke="#f70" stroke-linecap="round" stroke-linejoin="round" stroke-width="0.972"/>
        <path id="Trazado_874934" data-name="Trazado 874934" d="M146.811,112.708s4.585,2.571,6.465,3.423c1.126.511,2.833,1.294,3.7,1.633a.668.668,0,0,1,.366.9c-1.286,2.881-6.2,14.073-7.47,17.068-1.451,3.42-7.216,15.605-7.734,16.227s-10.407-5.55-10.407-5.55Z" transform="translate(-42.261 -36.158)" fill="#995417"/>
        <path id="Trazado_874935" data-name="Trazado 874935" d="M127.743,99.039,81,72.452s-.434,8.578-7.032,12.317c-5.819,3.3-11.69,10.154-6.99,20.7a13.511,13.511,0,0,1,0,11.85l44.54,19.3Z" transform="translate(-20.939 -23.243)" fill="#f70"/>
        <line id="Línea_3261" data-name="Línea 3261" x2="51.908" y2="29.887" transform="translate(54.895 45.91)" fill="none" stroke="#fff" stroke-linecap="round" stroke-linejoin="round" stroke-width="0.972"/>
        <line id="Línea_3262" data-name="Línea 3262" x1="25.08" y1="11.502" transform="translate(74.801 80.332)" fill="none" stroke="#995417" stroke-miterlimit="10" stroke-width="0.972"/>
        <path id="Trazado_874936" data-name="Trazado 874936" d="M135.795,122.249a2.557,2.557,0,1,0,2.557-2.557,2.557,2.557,0,0,0-2.557,2.557" transform="translate(-43.563 -38.398)" fill="#fff"/>
        <path id="Trazado_874937" data-name="Trazado 874937" d="M140.283,122.334a.254.254,0,1,0,.254-.253.255.255,0,0,0-.254.253" transform="translate(-45.003 -39.164)" fill="#292e4a"/>
        <path id="Trazado_874938" data-name="Trazado 874938" d="M138.087,122.334a.254.254,0,1,0,.254-.253.255.255,0,0,0-.254.253" transform="translate(-44.298 -39.164)" fill="#292e4a"/>
        <path id="Trazado_874939" data-name="Trazado 874939" d="M140.283,124.338a.254.254,0,1,0,.254-.254.254.254,0,0,0-.254.254" transform="translate(-45.003 -39.807)" fill="#292e4a"/>
        <path id="Trazado_874940" data-name="Trazado 874940" d="M138.087,124.338a.254.254,0,1,0,.254-.254.254.254,0,0,0-.254.254" transform="translate(-44.298 -39.807)" fill="#292e4a"/>
        <path id="Trazado_874941" data-name="Trazado 874941" d="M121.065,116.1a2.557,2.557,0,1,0,2.557-2.557,2.557,2.557,0,0,0-2.557,2.557" transform="translate(-38.838 -36.424)" fill="#fff"/>
        <path id="Trazado_874942" data-name="Trazado 874942" d="M125.553,116.182a.254.254,0,1,0,.254-.254.254.254,0,0,0-.254.254" transform="translate(-40.277 -37.19)" fill="#292e4a"/>
        <path id="Trazado_874943" data-name="Trazado 874943" d="M123.357,116.182a.254.254,0,1,0,.254-.254.254.254,0,0,0-.254.254" transform="translate(-39.573 -37.19)" fill="#292e4a"/>
        <path id="Trazado_874944" data-name="Trazado 874944" d="M125.553,118.185a.254.254,0,1,0,.254-.254.254.254,0,0,0-.254.254" transform="translate(-40.277 -37.833)" fill="#292e4a"/>
        <path id="Trazado_874945" data-name="Trazado 874945" d="M123.357,118.185a.254.254,0,1,0,.254-.254.254.254,0,0,0-.254.254" transform="translate(-39.573 -37.833)" fill="#292e4a"/>
        <path id="Trazado_874946" data-name="Trazado 874946" d="M173.676,178.2c0-3.521,3.079-14.737,6.049-14.406s4.839,2.529,4.509,6.158-3.739,11.218-3.079,12.427,2.529,1.54,1.539,2.2-9.018-1.1-9.018-6.378" transform="translate(-55.715 -52.544)" fill="#cc9b74"/>
        <path id="Trazado_874947" data-name="Trazado 874947" d="M191.176,190.357c-1.1-1.905-1.21-5.389,0-9.018s4.421-11.853,5.5-12.1c2.419-.55,5.389,1.759,6.158,4.839s-6.09,16.517-5.1,17.506,1.629,1.307,1.382,1.774c-.907,1.711-6.289-.145-7.939-3" transform="translate(-61.051 -54.267)" fill="#cc9b74"/>
        <path id="Trazado_874948" data-name="Trazado 874948" d="M206.64,202.641c-.275-1.894,2.848-14.079,5.075-14.574s4.74,2.2,5.07,4.841-3.227,11.6-2.746,12.376c.433.7,1.423,1.2,1.345,1.519-.562,2.355-8.14,0-8.745-4.162" transform="translate(-66.285 -60.314)" fill="#cc9b74"/>
        <path id="Trazado_874949" data-name="Trazado 874949" d="M333.374,213.228h53.607s9.667-25.162,9.374-33.364S391.668,174,394.3,163.016s7.03-29.45-.879-30.614-23.142,36.33-30.465,38.674-14.354,7.03-20.506,18.162a105.065,105.065,0,0,0-9.081,23.99" transform="translate(-106.947 -42.467)" fill="#8ead46"/>
        <path id="Trazado_874950" data-name="Trazado 874950" d="M408.49,132.739s-14.78,49.85-30.9,80.605" transform="translate(-121.132 -42.583)" fill="none" stroke="#525730" stroke-miterlimit="10" stroke-width="1"/>
        <path id="Trazado_874951" data-name="Trazado 874951" d="M384.273,172.018s-6.943,28.1-14.615,53.927" transform="translate(-118.587 -55.184)" fill="none" stroke="#525730" stroke-miterlimit="10" stroke-width="1"/>
        <path id="Trazado_874952" data-name="Trazado 874952" d="M410.855,181.666s-14.191,32.241-24.088,47.374" transform="translate(-124.075 -58.279)" fill="none" stroke="#525730" stroke-miterlimit="10" stroke-width="1"/>
        <line id="Línea_3263" data-name="Línea 3263" x2="75.71" transform="translate(212.948 170.761)" fill="none" stroke="#292e4a" stroke-miterlimit="10" stroke-width="1"/>
        <path id="Trazado_874953" data-name="Trazado 874953" d="M390.778,300.238c0,2.017-4.132,3.651-9.228,3.651s-9.227-1.634-9.227-3.651,4.131-3.651,9.227-3.651,9.228,1.634,9.228,3.651" transform="translate(-119.441 -95.146)" fill="#c3c4c9"/>
        <path id="Trazado_874954" data-name="Trazado 874954" d="M339.781,300.238c0,2.017-4.132,3.651-9.228,3.651s-9.227-1.634-9.227-3.651,4.131-3.651,9.227-3.651,9.228,1.634,9.228,3.651" transform="translate(-103.082 -95.146)" fill="#c3c4c9"/>
        <path id="Trazado_874955" data-name="Trazado 874955" d="M347.2,183.824h-6.28a.66.66,0,0,1-.617-.424l-4.041-10.511a.4.4,0,0,1,.376-.546h6.279a.662.662,0,0,1,.617.424l4.04,10.511a.4.4,0,0,1-.375.546" transform="translate(-107.864 -55.288)" fill="#cc9b74"/>
        <path id="Trazado_874956" data-name="Trazado 874956" d="M384.546,294.148l2.129,2.322s-3.451,2.87-4.322,3.128a15.427,15.427,0,0,1-3.451,0c-.9,0,1.387-.774,2.129-1.548s1.387-3.9,1.387-3.9Z" transform="translate(-121.485 -94.364)" fill="#6470b5"/>
        <path id="Trazado_874957" data-name="Trazado 874957" d="M334.345,294.136s1.887,5.221-.242,5.221h-5.612c-.92,0-6.1-3-5.563-3.583s3.241.126,4.112.083,2.758-.21,3.628-.965.823-1.05.823-1.05Z" transform="translate(-103.583 -94.265)" fill="#6470b5"/>
        <path id="Trazado_874958" data-name="Trazado 874958" d="M346.923,217.7s-9.011,29.993-13.365,52.343h4.926S349.522,239.759,351.8,235.7l1.15,13.545s9.349,15.577,14.573,20.8H371s-9.578-17.9-10.159-24.865a108.943,108.943,0,0,1-.194-15.674c.194-3.967,1.548-9.192-.484-11.8Z" transform="translate(-107.006 -69.839)" fill="#3f4152"/>
        <path id="Trazado_874959" data-name="Trazado 874959" d="M380.159,284.94s-2.893-5.407-5.595-11.434h0a39.641,39.641,0,0,0-7.949-6.175,21.412,21.412,0,0,1-4.511-3.193s9.349,15.577,14.574,20.8Z" transform="translate(-116.163 -84.736)" fill="#2d2f3b"/>
        <path id="Trazado_874960" data-name="Trazado 874960" d="M329.664,194.86a31.558,31.558,0,0,0-3-1.6,20.269,20.269,0,0,0-3.709-1.355c-.806-.065-1.451.1-.967.613a25.56,25.56,0,0,1,2.387,2.338c.193.435-1.451-.081-1.774.21s.645.871,1.322.967,1.935-.065,2.774.129,2.967,1.032,2.967,1.032Z" transform="translate(-103.241 -61.561)" fill="#f9c8a2"/>
        <path id="Trazado_874961" data-name="Trazado 874961" d="M351.019,183.106s-3.531,5.161-4.063,6.08-1.475,2.756-2.322,4.064c-.259.4-.968,1.693-1.548,1.741s-11.078-3.725-11.078-3.725l-.871,3.193s2.08.823,3.435,1.548,4.451,2.225,5.563,2.66,5.224,2.032,6.192,1.355,4.389-6.483,4.389-6.483Z" transform="translate(-106.229 -58.741)" fill="#495285"/>
        <path id="Trazado_874962" data-name="Trazado 874962" d="M341.726,182.964a18.687,18.687,0,0,0-.355-3.838c-.323-.645-1.355-3.515-1.645-3.386s.419,2.064,0,2.161-2.322-3.064-2.741-3.031-.1,4.644.742,5.6a28.279,28.279,0,0,1,1.935,2.145c.032.194.742,2.258.742,2.258Z" transform="translate(-108.046 -56.099)" fill="#f9c8a2"/>
        <path id="Trazado_874963" data-name="Trazado 874963" d="M363.721,162.071s-1.007,5.469-.831,6.475,1.925.919,2.494,1.881.437,3.719.437,3.719h4.813a28.445,28.445,0,0,1-.219-4.55c.175-1.225,1.312-5.994,0-7.307s-6.038-.962-6.694-.219" transform="translate(-116.409 -51.781)" fill="#f9c8a2"/>
        <path id="Trazado_874964" data-name="Trazado 874964" d="M360.976,161.158c.412,2.059,4.842,1.225,5.658,1.692s.583,2.567.875,3.092.7-.759,1.4-.292.35,1.984-.467,1.984c.642.992.816,1.983,1.341,1.866s1.459-2.5,1.517-4.166-.7-2.834-.467-3.826-1.517-1.983-2.975-1.983-7.35-.7-6.884,1.633" transform="translate(-115.793 -51.145)" fill="#995417"/>
        <path id="Trazado_874965" data-name="Trazado 874965" d="M357.074,179.653s-.645-.693.71-.952,6.9-.145,7.159.476-.645,1.072,0,2.169.8,5.612.048,9.8-2.434,9.03-1.983,10.772,1.419,4.257-.323,4.257H350.236c-1.935,0-1.741-.71-1.29-2.516a18.756,18.756,0,0,0,.516-2.58s-1.741.968-2.451-.516-6.45-15.416-6.192-15.867,1.806-1.548,2.258-1.161,5.252,8.363,6.063,8.836c.581.339,2.66-1.79,2.66-1.79s1.392-5.605,1.6-6.869c.29-1.79,1.548-4.064,3.676-4.064" transform="translate(-109.332 -57.287)" fill="#6470b5"/>
        <path id="Trazado_874966" data-name="Trazado 874966" d="M356.992,193.35s1.983-2.129,2.854-2.806a29.159,29.159,0,0,0,3.29-3.048c.532-.677-.387-.1-1.161.387s-2.179,1.868-2.831,2.385-1.785,1.588-1.785,1.588Z" transform="translate(-114.523 -60.051)" fill="#495285"/>
        <path id="Trazado_874967" data-name="Trazado 874967" d="M353.449,206.953s2.193-1.847,2.725-2.351,3.048-2.39,3.967-3.164,3.038-2.806,3.624-3.193,1.117-1.693,1.456-1.306-.832,2.129-1.456,2.516-4.349,3.386-5.317,4.257-5.211,4.5-5.211,4.5Z" transform="translate(-113.318 -63.156)" fill="#495285"/>
        <path id="Trazado_874968" data-name="Trazado 874968" d="M360.41,239.762s1.307-4.547,2.468-5.709a11.077,11.077,0,0,0,2.322-3.676c1.064,1.064-1.064,2.516-1.741,4.693s-2.786,7.779-2.786,7.779Z" transform="translate(-115.62 -73.906)" fill="#2d2f3b"/>
        <path id="Trazado_874969" data-name="Trazado 874969" d="M424.409,73.656c-6.319,2.313-8.195,4.189-10.507,10.507-2.313-6.319-4.189-8.194-10.508-10.507,6.319-2.313,8.195-4.189,10.508-10.507,2.313,6.319,4.188,8.194,10.507,10.507" transform="translate(-129.409 -20.259)" fill="#ffd817"/>
        <path id="Trazado_874970" data-name="Trazado 874970" d="M46.448,73.656c-6.319,2.313-8.195,4.189-10.507,10.507-2.313-6.319-4.189-8.194-10.508-10.507,6.319-2.313,8.195-4.189,10.508-10.507,2.313,6.319,4.188,8.194,10.507,10.507" transform="translate(-8.159 -20.259)" fill="#ffd817"/>
        <path id="Trazado_874971" data-name="Trazado 874971" d="M421.135,113.9c-2.587.947-3.355,1.715-4.3,4.3-.947-2.587-1.715-3.355-4.3-4.3,2.587-.947,3.355-1.715,4.3-4.3.947,2.587,1.715,3.355,4.3,4.3" transform="translate(-132.34 -35.158)" fill="#ffd817"/>
        <path id="Trazado_874972" data-name="Trazado 874972" d="M138.065,80.418c-2.587.947-3.355,1.715-4.3,4.3-.947-2.587-1.715-3.355-4.3-4.3,2.587-.947,3.355-1.715,4.3-4.3.947,2.587,1.715,3.355,4.3,4.3" transform="translate(-41.531 -24.419)" fill="#ffd817"/>
        <path id="Trazado_874973" data-name="Trazado 874973" d="M65.393,27.565c-2.587.947-3.355,1.715-4.3,4.3-.947-2.587-1.715-3.355-4.3-4.3,2.587-.947,3.355-1.715,4.3-4.3.947,2.587,1.715,3.355,4.3,4.3" transform="translate(-18.218 -7.463)" fill="#ffd817"/>
        <path id="Trazado_874974" data-name="Trazado 874974" d="M103.907,205.377s-7.167-6.968-8.163-15.131-1-16.723-7.963-17.519S83,185.468,80.415,185.667s-3.782-36.632-14.135-37.229-8.261,15.323-6.769,23.89c.933,5.353,1.182,7.983-1.811,7.983-5.036,0-4.758-14.752-6.55-26.7s-5.175-21.1-18.116-21.1-5.375,17.917-1.195,25.483,9.357,16.524,4.778,17.718-7.964-11.149-15.529-10.352-10.75,14.932-3.384,22.5S6.157,190.844,7.152,205.377Z" transform="translate(-2.282 -42.511)" fill="#79943c"/>
        <path id="Trazado_874975" data-name="Trazado 874975" d="M48.52,132.07s13.754,44.592,18.9,73.165" transform="translate(-15.565 -42.369)" fill="none" stroke="#525730" stroke-miterlimit="10" stroke-width="0.879"/>
        <path id="Trazado_874976" data-name="Trazado 874976" d="M22.823,182.875a139.892,139.892,0,0,0,27.812,38.658" transform="translate(-7.322 -58.667)" fill="none" stroke="#525730" stroke-miterlimit="10" stroke-width="0.879"/>
        <path id="Trazado_874977" data-name="Trazado 874977" d="M91.207,156.141a232.817,232.817,0,0,1,5.015,56.816" transform="translate(-29.259 -50.091)" fill="none" stroke="#525730" stroke-miterlimit="10" stroke-width="0.879"/>
        <path id="Trazado_874978" data-name="Trazado 874978" d="M126.334,192.811s-1.038,14.917-3.308,31.909" transform="translate(-39.467 -61.855)" fill="none" stroke="#525730" stroke-miterlimit="10" stroke-width="0.879"/>
        <line id="Línea_3264" data-name="Línea 3264" x2="109.791" transform="translate(0 162.914)" fill="none" stroke="#292e4a" stroke-miterlimit="10" stroke-width="0.879"/>
        <path id="Trazado_874979" data-name="Trazado 874979" d="M62.6,300.238c0,2.017-4.132,3.651-9.228,3.651s-9.227-1.634-9.227-3.651,4.131-3.651,9.227-3.651,9.228,1.634,9.228,3.651" transform="translate(-14.162 -95.146)" fill="#c3c4c9"/>
        <path id="Trazado_874980" data-name="Trazado 874980" d="M41.331,300.238c0,2.017-4.132,3.651-9.228,3.651s-9.227-1.634-9.227-3.651,4.131-3.651,9.227-3.651,9.228,1.634,9.228,3.651" transform="translate(-7.339 -95.146)" fill="#c3c4c9"/>
        <path id="Trazado_874981" data-name="Trazado 874981" d="M39.97,177.414l3.884-.744a8.92,8.92,0,0,1,4.009,5.838c.535,3.792,1.382,21.621,1.382,21.621l-8.205-.4Z" transform="translate(-12.822 -56.677)" fill="#fff"/>
        <path id="Trazado_874982" data-name="Trazado 874982" d="M53.809,288.282s.083,3.523,1.166,5.179a10.948,10.948,0,0,0,3.8,2.929s2.5.382,2,1.019-10.485,0-11.419,0,.594-2.632.806-3.439a56.672,56.672,0,0,0,.17-5.688Z" transform="translate(-15.736 -92.482)" fill="#a83e63"/>
        <path id="Trazado_874983" data-name="Trazado 874983" d="M35.175,288.282s-1.053,3.523.03,5.179a10.942,10.942,0,0,0,3.8,2.929s2.5.382,2,1.019-10.485,0-11.419,0,.594-2.632.807-3.439,1.306-5.688,1.306-5.688Z" transform="translate(-9.394 -92.482)" fill="#a83e63"/>
        <path id="Trazado_874984" data-name="Trazado 874984" d="M33.217,214.746H48.8s2.658,19.905,2.087,30.546S49.1,265.781,49.1,265.781H43.406l.906-20.263L42.09,230.576s0,18.9-5.25,35.2H31.449l3.543-21.508Z" transform="translate(-10.089 -68.891)" fill="#3f4152"/>
        <path id="Trazado_874985" data-name="Trazado 874985" d="M46.965,228.344c-.721,0,0,6.594,0,6.594l2.222,14.942c1.415-6.141-1.5-21.536-2.222-21.536" transform="translate(-14.963 -73.254)" fill="#2d2f3b"/>
        <path id="Trazado_874986" data-name="Trazado 874986" d="M49.808,265.013l-.756,16.894h5.692s.361-2.927.781-7.31Z" transform="translate(-15.736 -85.017)" fill="#2d2f3b"/>
        <path id="Trazado_874987" data-name="Trazado 874987" d="M73.178,191.176a6.638,6.638,0,0,0,1.132-1.189c.085-.283-.029-.905,1.216-1.613s1.811-.736,1.783-.538-1.528.736-1.132.991a6.725,6.725,0,0,0,2.688.085c.2-.113,1.415-.991,1.7-.651s-.651,1.472-.962,1.925a7.682,7.682,0,0,1-4.216,1.726c-1.811.113-2.009.906-2.009.906Z" transform="translate(-23.476 -60.225)" fill="#cc9b74"/>
        <path id="Trazado_874988" data-name="Trazado 874988" d="M45.06,176.839a5.466,5.466,0,0,1,2.773,3.283,16.835,16.835,0,0,1,1.076,7.415,72.122,72.122,0,0,0,.477,10.244c.258,2.887-.421,7.471.767,7.641s2.547.283,3.226-.566,0-6.226,0-6.226,12.055-9.4,12.169-9.848-.679-2.038-1.189-1.924-10.867,5.49-10.867,5.49a40.507,40.507,0,0,0-.8-6.622c-.617-2.264-2.88-7.285-4.013-7.916a26.621,26.621,0,0,0-3.962-1.423Z" transform="translate(-14.346 -56.585)" fill="#dc5181"/>
        <path id="Trazado_874989" data-name="Trazado 874989" d="M57.458,205.643s4.77-3.717,8.336-6.589c-.7-1.216-5.788,1.916-6.577,1.665-.844-.269.039-2.23.5-2.471-1.264.652-2.15,1.113-2.15,1.113.1,1.622-.228,4.9-.113,6.283" transform="translate(-18.425 -63.599)" fill="#a83e63"/>
        <path id="Trazado_874990" data-name="Trazado 874990" d="M56.715,195.485l-3.976.8a.457.457,0,0,1-.533-.561l2.482-9.787a.523.523,0,0,1,.4-.384l3.976-.8a.457.457,0,0,1,.533.56L57.12,195.1a.524.524,0,0,1-.4.384" transform="translate(-16.743 -59.266)" fill="#6470b5"/>
        <path id="Trazado_874991" data-name="Trazado 874991" d="M57.366,187.551c-.077.307-.306.514-.51.463s-.308-.342-.231-.649.306-.514.51-.463.308.342.231.649" transform="translate(-18.157 -59.957)" fill="#292e4a"/>
        <path id="Trazado_874992" data-name="Trazado 874992" d="M46.72,197.331a12.828,12.828,0,0,0,1.557-.905c.424-.34,2.32-2.632,2.914-2.83s1.9-.679,2.122,0-1.3,1.107-1.415,1.332.764-.03.793.168-.708.312-.934.623-1.047,2.717-2.435,2.688a5.458,5.458,0,0,0-2.6.708Z" transform="translate(-14.988 -61.994)" fill="#cc9b74"/>
        <path id="Trazado_874993" data-name="Trazado 874993" d="M49.111,160.729a5.211,5.211,0,0,1-.283,3.071,12.653,12.653,0,0,0-.537,2.66s-1.019.056-1.246.566-.679,1.924-1.641,2.038a4.573,4.573,0,0,0-1.358.311l-.312,2.8a4.253,4.253,0,0,1-3.763-.764,41.663,41.663,0,0,0,.688-4.646c.048-1.466.528-6.418,2.934-7.267s5.518,1.231,5.518,1.231" transform="translate(-12.822 -51.103)" fill="#f9c8a2"/>
        <path id="Trazado_874994" data-name="Trazado 874994" d="M35.229,176.386s2.433,1.754,2.943,3.962,1.358,5.66.736,7.641a11.87,11.87,0,0,0-.453,4.019l2.038-.962.283,2.887-1.868,1.076s-.113,3.679,0,5.83.4,4.415-.623,4.924-7.867.453-8.6-.453.453-5.66.453-5.66-2.6,1.415-4.075.453-.793-4.472,0-7.019,2.66-9.169,3.17-11.489,3.169-4.415,6-5.207" transform="translate(-8.082 -56.585)" fill="#dc5181"/>
        <path id="Trazado_874995" data-name="Trazado 874995" d="M35.35,188.469s-1.811,7.867-1.924,8.773c-1.132.509-2.434,1.132-1.585,1.075a61.032,61.032,0,0,0,8.66-2.434V194.5s-4.358,2.01-5.15,1.5-.056-1.638.056-2.6-.056-4.926-.056-4.926" transform="translate(-10.127 -60.462)" fill="#a83e63"/>
        <path id="Trazado_874996" data-name="Trazado 874996" d="M37.378,207.079a6.414,6.414,0,0,0,2.42-2.547l-7.655,4.146s-1.189,4.754-.453,5.66a3.419,3.419,0,0,0,1.78.562c-.677-1.9,2.254-6.888,3.908-7.821" transform="translate(-10.089 -65.615)" fill="#a83e63"/>
        <path id="Trazado_874997" data-name="Trazado 874997" d="M40.35,154.765a3.767,3.767,0,1,0-3.744,4.064,3.928,3.928,0,0,0,1.1-.157c-.1.809-.115,1.65-.181,2.474a4.922,4.922,0,0,0,.833,3.35s1.388-3.166,3.242-3.308c.723-.055,1.019-2.334,2.377-2.334a9,9,0,0,0,2.844-.594c-1.4-3.116-4.451-4.14-6.47-3.494" transform="translate(-10.532 -48.632)" fill="#292e4a"/>
        <line id="Línea_3265" data-name="Línea 3265" x1="1.882" y2="6.107" transform="translate(106.303 150.439)" fill="none" stroke="#fff" stroke-miterlimit="10" stroke-width="0.972"/>
        <path id="Trazado_874998" data-name="Trazado 874998" d="M166.053,265.49H88.939l-9.53-47.118h77.114Z" transform="translate(-25.475 -70.054)" fill="#292e4a"/>
        <path id="Trazado_874999" data-name="Trazado 874999" d="M165.065,263.3H96.878L89.029,224.49h68.188Z" transform="translate(-28.561 -72.017)" fill="#ffd817"/>
        <path id="Trazado_875000" data-name="Trazado 875000" d="M91.217,265.49H88.939l-9.531-47.118h2.279Z" transform="translate(-25.474 -70.054)" fill="#6470b5"/>
        <line id="Línea_3266" data-name="Línea 3266" y1="38.806" x2="11.961" transform="translate(82.513 152.473)" fill="none" stroke="#fff" stroke-miterlimit="10" stroke-width="0.9"/>
        <line id="Línea_3267" data-name="Línea 3267" x1="11.961" y2="38.806" transform="translate(93.741 152.473)" fill="none" stroke="#fff" stroke-miterlimit="10" stroke-width="0.9"/>
        <line id="Línea_3268" data-name="Línea 3268" x1="9.037" y2="29.318" transform="translate(97.257 161.961)" fill="none" stroke="#fff" stroke-miterlimit="10" stroke-width="0.9"/>
        <rect id="Rectángulo_402515" data-name="Rectángulo 402515" width="122.039" height="4.312" transform="translate(63.464 195.436)" fill="#6470b5"/>
        <rect id="Rectángulo_402516" data-name="Rectángulo 402516" width="76.951" height="4.312" transform="translate(108.553 195.436)" fill="#292e4a"/>
        <line id="Línea_3269" data-name="Línea 3269" x2="122.039" transform="translate(63.465 195.435)" fill="none" stroke="#6470b5" stroke-linecap="round" stroke-linejoin="round" stroke-width="0.9"/>
        <path id="Trazado_875001" data-name="Trazado 875001" d="M124.85,264.305h28.009l6.615-8.3,5.63,4.153,18.579-21.042,4.786,4.223,2.393-16.468-15.342,6.052,2.956,2.393L163.7,248.823,153,240.378Z" transform="translate(-40.052 -72.779)" fill="#ffa200"/>
        <line id="Línea_3270" data-name="Línea 3270" x2="138.942" transform="translate(57.141 199.577)" fill="none" stroke="#292e4a" stroke-miterlimit="10" stroke-width="1"/>
        <path id="Trazado_875002" data-name="Trazado 875002" d="M258.712,234.807a10.527,10.527,0,0,1,2.654,1.026,9.621,9.621,0,0,1,2.036,1.5,7.268,7.268,0,0,1,1.335,1.742,4.074,4.074,0,0,1,.522,1.758.692.692,0,0,1-.213.5.653.653,0,0,1-.472.212h-4.265a1.728,1.728,0,0,1-.732-.13,2.4,2.4,0,0,1-.571-.391q-.1-.1-.309-.325a3,3,0,0,0-.6-.472,4.142,4.142,0,0,0-.977-.423,4.975,4.975,0,0,0-1.432-.179,8.5,8.5,0,0,0-1.189.081,4.32,4.32,0,0,0-1.009.26,1.835,1.835,0,0,0-.717.5,1.214,1.214,0,0,0-.276.814,1.132,1.132,0,0,0,.309.814,2.821,2.821,0,0,0,1.042.6,14.076,14.076,0,0,0,1.937.537q1.205.261,3,.619a16.852,16.852,0,0,1,3.126.912,7.436,7.436,0,0,1,2.23,1.384,5.251,5.251,0,0,1,1.335,1.953,7.278,7.278,0,0,1,.439,2.654,5.954,5.954,0,0,1-.522,2.508,6.321,6.321,0,0,1-1.465,2.019,8.081,8.081,0,0,1-2.279,1.466,12.115,12.115,0,0,1-2.931.846v2.313a.891.891,0,0,1-.879.879h-4.266a.891.891,0,0,1-.879-.879V257.5a11.356,11.356,0,0,1-2.817-1.026,9.787,9.787,0,0,1-2.148-1.514,6.439,6.439,0,0,1-1.384-1.84,4.844,4.844,0,0,1-.521-2,.688.688,0,0,1,.211-.5.656.656,0,0,1,.472-.212h4.265a1.841,1.841,0,0,1,.717.113,2.106,2.106,0,0,1,.522.343q.128.13.39.423a4.122,4.122,0,0,0,.7.6,4.36,4.36,0,0,0,1.108.537,5.1,5.1,0,0,0,1.644.228,9.46,9.46,0,0,0,2.881-.375,1.4,1.4,0,0,0,1.156-1.351.992.992,0,0,0-.423-.814,4.337,4.337,0,0,0-1.271-.6,19.1,19.1,0,0,0-2.165-.537q-1.318-.261-3.109-.651a9.074,9.074,0,0,1-4.9-2.393,6.339,6.339,0,0,1-1.547-4.477,5.855,5.855,0,0,1,.423-2.2,6.4,6.4,0,0,1,1.221-1.938,7.719,7.719,0,0,1,1.955-1.53,10.266,10.266,0,0,1,2.62-1.01v-2.409a.888.888,0,0,1,.879-.879h4.266a.888.888,0,0,1,.879.879Z" transform="translate(-78.859 -74.262)" fill="#ffa200"/>
      </g>
    </g>
    <rect id="Rectángulo_402431" data-name="Rectángulo 402431" width="295" height="215" transform="translate(1020 2676)" fill="none"/>
  </g>
</svg>
