<svg xmlns="http://www.w3.org/2000/svg" xmlns:xlink="http://www.w3.org/1999/xlink" width="400" height="257" viewBox="0 0 400 257">
  <defs>
    <clipPath id="clip-path">
      <rect id="Rect치ngulo_402512" data-name="Rect치ngulo 402512" width="367.89" height="254.439" fill="none"/>
    </clipPath>
  </defs>
  <g id="img4" transform="translate(-180 -2165)">
    <g id="Grupo_1100667" data-name="Grupo 1100667" transform="translate(196 2166)">
      <g id="Grupo_1100666" data-name="Grupo 1100666" clip-path="url(#clip-path)">
        <path id="Trazado_874806" data-name="Trazado 874806" d="M93.121,263.7S54.937,271.457,26.3,252.962s-34.008-68.017-15.513-97.252S43,109.172,47.18,97.239s7.16-50.714,57.277-54.294,70.4,40.571,118.731,26.252,71-22.076,94.866,11.933,19.092,78.16,32.815,94.269,26.849,48.924,6.563,72.79-88.9,11.933-113.958,14.319S93.121,263.7,93.121,263.7" transform="translate(0 -17.239)" fill="#ffe7ba"/>
        <path id="Trazado_874807" data-name="Trazado 874807" d="M273.563,373.734c-9.833,1.462-14.652,1.841-24.948.8-.731-3.833-4.246-23.818-4.246-23.818s-4.06,19.456-4.512,24.084c-8.783,3.055-24.417-.266-24.417-.266s-1.023-18.554-1.425-25.334c-1.5-25.274,9.917-35.353,9.917-35.353a140.664,140.664,0,0,1,21.232-1.326c12.2.119,20.171,1.061,20.171,1.061s10.084,14.058,9.554,27.319-.035,23.411-1.327,32.837" transform="translate(-86.271 -126.054)" fill="#394190"/>
        <path id="Trazado_874808" data-name="Trazado 874808" d="M239.181,376s8.228,4.243,15.659-.8c0,0,8.227,5.57,16.72,0" transform="translate(-96.476 -151.342)" fill="none" stroke="#2a2d75" stroke-miterlimit="10" stroke-width="1"/>
        <path id="Trazado_874809" data-name="Trazado 874809" d="M266.668,335.638s1.327,13.262-.8,22.015" transform="translate(-107.242 -135.383)" fill="none" stroke="#2a2d75" stroke-miterlimit="10" stroke-width="1"/>
        <path id="Trazado_874810" data-name="Trazado 874810" d="M279.215,333.042l1.062,13s7.165,4.509,10.881,3.449,8.228-7.692,8.228-7.692L295.4,329.86a35.993,35.993,0,0,1-7.962,2.387,68.785,68.785,0,0,1-8.228.8" transform="translate(-112.625 -133.053)" fill="#2a2d75"/>
        <path id="Trazado_874811" data-name="Trazado 874811" d="M240.226,333.932l-1.061,13s-7.166,4.509-10.881,3.448-8.228-7.691-8.228-7.691l3.981-11.935A36.068,36.068,0,0,0,232,333.137a68.994,68.994,0,0,0,8.228.8" transform="translate(-88.762 -133.412)" fill="#2a2d75"/>
        <path id="Trazado_874812" data-name="Trazado 874812" d="M222.3,275.942a87.2,87.2,0,0,0,14,2.882,96.215,96.215,0,0,0,18.173-.069c4.728-.4,9.581-.655,14.15-2.04q.784-.237,1.557-.512c-.547-2.929-1.027-5.785-1.271-8.117-.223-2.12.939-12.337,1.718-18.831s.78-26.235-2.337-28.313-10.117-2.787-11.97-3.1c-7.37-1.236-18.2-1.2-22.318-.539-3.89.626-9.624,3.159-11.17,6.754-2.009,4.672-1.811,13.5-.516,19.869s1.683,18.821,1.607,21.74a88.532,88.532,0,0,1-1.621,10.274" transform="translate(-89.274 -87.469)" fill="#fff"/>
        <path id="Trazado_874813" data-name="Trazado 874813" d="M250.615,276.387s13.248,18.7,20.65,19.481" transform="translate(-101.088 -111.484)" fill="none" stroke="#d2dad8" stroke-miterlimit="10" stroke-width="1"/>
        <path id="Trazado_874814" data-name="Trazado 874814" d="M328.567,280.1c14.147,3.5,29.294-.173,40.27-2.924-.59,10.3,3.745,17.849,3.307,19.183s-13.506,7.73-22.378,8.267-21.549-3.8-22.231-5.161c-.381-.765,1.424-10.5,1.032-19.365" transform="translate(-132.094 -111.803)" fill="#eabfaf"/>
        <path id="Trazado_874815" data-name="Trazado 874815" d="M343.627,183.5l.867,11.157,16.113-2.685-4.889-15.118Z" transform="translate(-138.606 -71.334)" fill="#faccbb"/>
        <path id="Trazado_874816" data-name="Trazado 874816" d="M356.461,141.323c-2.362-7.614,2.014-23.5-15.909-26.787-14.376-2.64-21.91,9.781-21.91,9.781s-7.15,2.668-8.5,7.831c-3.481,13.285,3.247,14.561,1.566,20.364s1.342,11.636,6.49,12.531a13.153,13.153,0,0,0,9.175-2.014,19.412,19.412,0,0,0,7.875.557,14.331,14.331,0,0,0,6.794-2.779c4.086,1.224,10.095.791,14.192-3.043,5.755-5.386,2.59-8.831.23-16.441" transform="translate(-124.689 -46.051)" fill="#4fa4a4"/>
        <path id="Trazado_874817" data-name="Trazado 874817" d="M310.473,146.179s-2.909,7.161-2.014,12.307c.662,3.807,4.028,4.475,2.014,9.623-1.666,4.258.644,7.157,2.444,7.8" transform="translate(-124.352 -58.963)" fill="none" stroke="#4fa4a4" stroke-linecap="round" stroke-linejoin="round" stroke-width="1"/>
        <path id="Trazado_874818" data-name="Trazado 874818" d="M370.273,124.613a13.99,13.99,0,0,1,4.14,6.826c.783,3.916-.895,9.063.671,11.748a21.253,21.253,0,0,1,2.91,10.741c-.112,4.028-3.468,8.391-3.468,8.391" transform="translate(-149.354 -50.264)" fill="none" stroke="#488b91" stroke-linecap="round" stroke-linejoin="round" stroke-width="1"/>
        <path id="Trazado_874819" data-name="Trazado 874819" d="M382.685,155.744a27.42,27.42,0,0,1,2.685,8.392c.448,4.139-2.013,9.063-2.909,9.51" transform="translate(-154.27 -62.821)" fill="none" stroke="#488b91" stroke-linecap="round" stroke-linejoin="round" stroke-width="1"/>
        <path id="Trazado_874820" data-name="Trazado 874820" d="M316.414,139.616s-4.7,5.147-3.02,9.063,4.139,8.392,3.355,10.629-2.573,6.49-.447,8.168" transform="translate(-126.265 -56.316)" fill="none" stroke="#488b91" stroke-linecap="round" stroke-linejoin="round" stroke-width="1"/>
        <path id="Trazado_874821" data-name="Trazado 874821" d="M320.952,160.244s2.237,4.028,1.79,6.154-2.126,5.594-.336,7.832a22.416,22.416,0,0,1,2.8,4.588" transform="translate(-129.46 -64.636)" fill="none" stroke="#488b91" stroke-linecap="round" stroke-linejoin="round" stroke-width="1"/>
        <path id="Trazado_874822" data-name="Trazado 874822" d="M326.138,150.18s-1.044,4.625.895,7.459a10.7,10.7,0,0,1,1.791,8.5c-.6,2.685,1.491,5.669,1.491,5.669" transform="translate(-131.438 -60.577)" fill="none" stroke="#488b91" stroke-linecap="round" stroke-linejoin="round" stroke-width="1"/>
        <path id="Trazado_874823" data-name="Trazado 874823" d="M316.4,123.624s-10.888-.457-10.942-8.388,8.391-8.606,11.675-4.688c2.963,3.536,2.328,10.049,2.328,10.049Z" transform="translate(-123.211 -43.651)" fill="#4fa4a4"/>
        <path id="Trazado_874824" data-name="Trazado 874824" d="M316.016,132.4a.45.45,0,0,1-.327-.027c-3.8-1.876-7.8,1.7-7.836,1.74a.447.447,0,1,1-.6-.661c.182-.164,4.492-4.023,8.835-1.882a.448.448,0,0,1-.069.831" transform="translate(-123.874 -52.809)" fill="#4fa4a4"/>
        <path id="Trazado_874825" data-name="Trazado 874825" d="M309.736,138.31a.447.447,0,0,1-.537-.613c.1-.223,2.54-5.471,7.373-5.218a.447.447,0,1,1-.046.893c-4.222-.222-6.491,4.644-6.512,4.694a.446.446,0,0,1-.278.243" transform="translate(-124.703 -53.434)" fill="#4fa4a4"/>
        <path id="Trazado_874826" data-name="Trazado 874826" d="M378.711,127.426s5.595,7.608,5.818,12.756.895,6.265,3.357,9.622,3.133,6.49.671,10.294" transform="translate(-152.757 -51.399)" fill="none" stroke="#4fa4a4" stroke-linecap="round" stroke-linejoin="round" stroke-width="1"/>
        <path id="Trazado_874827" data-name="Trazado 874827" d="M308.567,118.05s-.335,3.916,2.573,6.041,5.035,1.455,5.035,1.455" transform="translate(-124.459 -47.617)" fill="none" stroke="#488b91" stroke-linecap="round" stroke-linejoin="round" stroke-width="1"/>
        <path id="Trazado_874828" data-name="Trazado 874828" d="M313.327,119.8s-.048,1.69,2.027,3.511a5.333,5.333,0,0,0,3.938,1.56" transform="translate(-126.384 -48.323)" fill="none" stroke="#488b91" stroke-linecap="round" stroke-linejoin="round" stroke-width="1"/>
        <path id="Trazado_874829" data-name="Trazado 874829" d="M412.765,140.126a29.041,29.041,0,0,0-4.177.895s-.149,8.5-.6,14.173,1.044,14.621,1.044,14.621-9.7,4.028-14.619,5.669c-3.762,1.254-8.253,1.174-11.064,5.286s.322,19.329,7.185,18.285,11.057-4.062,18.5-8.951c8.265-5.431,11.2-8.991,13.542-12.887s1.227-15.757-.265-22.172c-.934-4.018-4.625-15.365-4.625-15.365s-2.685.149-4.923.447" transform="translate(-154.215 -56.341)" fill="#faccbb"/>
        <path id="Trazado_874830" data-name="Trazado 874830" d="M418.634,125.581c2.41.832,7.131-1.232,8.3-2.157s1.567-2.877,1.978-4.231.014-5.7-.049-7.711a65.445,65.445,0,0,0-2.064-10.291c-.895-3.26-3.557-2.837-3.147-.514.373,2.113.608,6.1.608,6.1s-1.549-2.167-2.94-2.148a2.885,2.885,0,0,0-2.153,1.032,1.8,1.8,0,0,0-2.041-1.1c-1.544.271-1.475,2.128-1.475,2.128s-2.962-8.244-4.632-9.714-3.222-.31-2.243,1.976a64.461,64.461,0,0,1,2.3,6.536,43,43,0,0,1,1.546,7.265s-2.912-2.8-4.108-3.026-3.557-.241-3.713,1.2,3.968,4.086,4.533,4.712a35.121,35.121,0,0,1,3.867,5.833,11.085,11.085,0,0,0,5.429,4.105" transform="translate(-163.281 -38.853)" fill="#faccbb"/>
        <path id="Trazado_874831" data-name="Trazado 874831" d="M366.259,235.216c-.013-3.525,1.514-11.4,1.823-15.142.319-3.866.6-7.978-.162-11.815-.786-3.936-2.939-5.738-5.433-6.621s-15.2-1.057-19.036-.336c-5.523,1.036-17.07,1.87-19.261,6.315s.027,20.889.69,29.84c.454,6.139-1.436,20.061-1.436,20.061s11.488,4.7,27,2.014,19.99-7.16,19.99-7.16-4.163-13.631-4.177-17.156" transform="translate(-130.385 -81.017)" fill="#394190"/>
        <path id="Trazado_874832" data-name="Trazado 874832" d="M375.254,235.82s-6.042,5.37-8.727,11.636-5.818,14.769-5.818,14.769" transform="translate(-145.496 -95.121)" fill="none" stroke="#25305c" stroke-miterlimit="10" stroke-width="1"/>
        <path id="Trazado_874833" data-name="Trazado 874833" d="M348.259,372.82a72.342,72.342,0,0,1-28.669-4.849s-.073-22.246.363-33.155c.3-7.5,3.58-23.049,3.58-23.049a20.812,20.812,0,0,1,.113-2.663c.209-1.011.335-2.036.335-2.036s7.656,1.1,23.338-.459,20.67-5.661,20.67-5.661a10.609,10.609,0,0,1,1.419,1.533,9.123,9.123,0,0,1,1.231,2.35s4.035,2.893,6.762,9.516,3.2,17.486,3.2,24.349-.468,28.215-.468,28.215a104.694,104.694,0,0,1-31.869,5.91" transform="translate(-128.908 -121.391)" fill="#e5ab00"/>
        <path id="Trazado_874834" data-name="Trazado 874834" d="M326.063,314.173s15.07,2.218,26.4.443a60.961,60.961,0,0,0,20.527-7.561" transform="translate(-131.521 -123.854)" fill="none" stroke="#b66f00" stroke-miterlimit="10" stroke-width="1"/>
        <path id="Trazado_874835" data-name="Trazado 874835" d="M366.46,388.413s5.17-14.24,10.286-19,7.019-18.154,7.019-18.154" transform="translate(-147.816 -141.683)" fill="none" stroke="#b66f00" stroke-miterlimit="10" stroke-width="1"/>
        <path id="Trazado_874836" data-name="Trazado 874836" d="M201.971,140.3c-3.117-4.676-11.115-12.785-11.115-12.785s.149-8.993-.267-16.308-1.2-15.289-2.611-19.41a14.19,14.19,0,0,0,4.588-4.287,16.378,16.378,0,0,0,2.257-6.632c.344-2.407-1.656-3.113-1.511-4.1s3.407-8.781,4.213-11.04a2,2,0,0,0-3.027-2.456c-1.459,1.209-5.136,10.292-5.136,10.292s.731-8.706.355-10.764-1.843-2.655-3.212-1.546-1.565,12.441-1.565,12.441a2.6,2.6,0,0,0-3.06-.274c-1.773.981-1.7,2.1-1.7,2.1s-.85-.791-2.4,1.424-.369,11.464,1.545,13.344a6.031,6.031,0,0,0,1.064.834,11.2,11.2,0,0,0-1.609,3.046,119.6,119.6,0,0,0-4.379,16.8,74.7,74.7,0,0,0-.225,21.787c.78,4.675,10.391,19.871,16.105,25.845,5.5,5.746,13.644,8.247,17.533,3.9,5.657-6.332-2.727-17.534-5.844-22.209" transform="translate(-69.978 -24.491)" fill="#faccbb"/>
        <path id="Trazado_874837" data-name="Trazado 874837" d="M213.842,231.6s2.4-8.531,4.286-13.247c2.338-5.844,8.572-12.469,8.572-12.469a70.916,70.916,0,0,0-4.286-6.234c-1.89-2.509-7.546-9.033-8.831-10.26-3-2.86-6.494,1.818-9.611,8.831-2.706,6.089-2.987,17.793-2.987,17.793a41.862,41.862,0,0,0,6.126,9.393,73.907,73.907,0,0,0,6.732,6.193" transform="translate(-81.069 -76.049)" fill="#72a5c1"/>
        <path id="Trazado_874838" data-name="Trazado 874838" d="M132.816,384.143c-9.058.25-19.536-.658-19.536-.658s-9.74.39-17.533,0A53.58,53.58,0,0,1,80.94,380.37s0-10.911-.39-15.586-2.338-10.52-2.338-19.092a67.813,67.813,0,0,1,3.4-20.866c1.441-3.987,62.768-5.01,64.788,1.748a113.017,113.017,0,0,1,2.335,15.611,82.2,82.2,0,0,1,0,11.3l3.117,24.937s-9.351,5.455-19.037,5.722" transform="translate(-31.548 -129.748)" fill="#226365"/>
        <path id="Trazado_874839" data-name="Trazado 874839" d="M148.608,353.652l1.369,17.307s9.242,6.006,14.034,4.593,10-8.717,10-8.717l-1.947-16.655s-7.027,1.353-12.846,2.413a86.143,86.143,0,0,1-10.612,1.059" transform="translate(-59.943 -141.249)" fill="#22544f"/>
        <path id="Trazado_874840" data-name="Trazado 874840" d="M85.219,356.683l1.664,17.368S94,381.5,98.89,380.891s10.65-6.987,10.65-6.987l-.655-16.807s-7.114.186-13,.28a86.852,86.852,0,0,1-10.666-.694" transform="translate(-34.374 -143.872)" fill="#22544f"/>
        <path id="Trazado_874841" data-name="Trazado 874841" d="M131.753,356.057s-.39,13.248,3.117,23.378c2.475,7.15,1.558,14.026,1.948,17.533" transform="translate(-53.139 -143.62)" fill="none" stroke="#22544f" stroke-miterlimit="10" stroke-width="1"/>
        <path id="Trazado_874842" data-name="Trazado 874842" d="M114.13,406.528c8.572,0,12.171-6.21,15.2-5.454,3.117.78,9.741,5.845,19.092,3.9" transform="translate(-46.036 -161.752)" fill="none" stroke="#22544f" stroke-miterlimit="10" stroke-width="1"/>
        <path id="Trazado_874843" data-name="Trazado 874843" d="M116.725,162.082l1.911-14.126,19.01,1.067,3.069,15.3s-3.232,10.652-14.737,8.2-9.851-10.374-9.253-10.437" transform="translate(-46.905 -59.68)" fill="#b86b2f"/>
        <path id="Trazado_874844" data-name="Trazado 874844" d="M164.882,121.373c-.609-1.857-4.972-2.35-4.972-2.35l-2.678,12.067s3.425-.414,5-2.123,3.4-5.321,2.654-7.594" transform="translate(-63.421 -48.009)" fill="#b86b2f"/>
        <path id="Trazado_874845" data-name="Trazado 874845" d="M103.446,119.579s-4.577-2.119-5.711.726a7.071,7.071,0,0,0,1.736,7.411c1.419,1.5,5.793,2.774,5.793,2.774Z" transform="translate(-39.248 -47.927)" fill="#b86b2f"/>
        <path id="Trazado_874846" data-name="Trazado 874846" d="M142.128,87.92c-.737-.258-2.5-.847-2.5-.847s3.613-3.222,4.068-4.6-.585-3.455-5.944-3.813a58.934,58.934,0,0,0-8.547.2s3.5-3.008,3.04-5-2.729-1.184-6.975.248a68.849,68.849,0,0,1-10.715,2.641s-8.548,1.513-10.387,5a8.733,8.733,0,0,0-.66,6.655s-2.978,3.3-2.481,7.238.7,7.473,2.432,11.914,3.545,7.3,5.1,8.856,3.377,7.013,3.377,7.013,4.416.39,10.131.39a18.723,18.723,0,0,0,9.611-2.6,67.767,67.767,0,0,1,2.588-6.446,73.815,73.815,0,0,0,3.969-9.565c.715-2.431,1.239-7.237,1.984-8.272a16.36,16.36,0,0,1,2.641-2.641c.833-.72,2.262-1.949,2.23-3.444-.041-1.852-1.557-2.45-2.964-2.94" transform="translate(-40.728 -29.316)" fill="#52343d"/>
        <path id="Trazado_874847" data-name="Trazado 874847" d="M112.483,91.785s-2.706-6.419,4.415-7.013a99.732,99.732,0,0,0,15.326-2.338" transform="translate(-45.168 -33.251)" fill="none" stroke="#432329" stroke-miterlimit="10" stroke-width="1"/>
        <path id="Trazado_874848" data-name="Trazado 874848" d="M116.306,97.311s.779-4.156,7.793-2.857,18.7,1.3,18.7,1.3" transform="translate(-46.913 -37.998)" fill="none" stroke="#432329" stroke-miterlimit="10" stroke-width="1"/>
        <path id="Trazado_874849" data-name="Trazado 874849" d="M121.1,100.718a98.991,98.991,0,0,0,10.649,2.858c7.013,1.558,11.429-.26,11.429-.26" transform="translate(-48.845 -40.626)" fill="none" stroke="#432329" stroke-miterlimit="10" stroke-width="1"/>
        <path id="Trazado_874850" data-name="Trazado 874850" d="M110.231,103.767s-4.415,3.117-2.857,9.74a31.52,31.52,0,0,0,4.675,10.78" transform="translate(-43.176 -41.856)" fill="none" stroke="#432329" stroke-miterlimit="10" stroke-width="1"/>
        <path id="Trazado_874851" data-name="Trazado 874851" d="M114.984,106.379s-3.117,5.455.26,10.91" transform="translate(-45.851 -42.909)" fill="none" stroke="#432329" stroke-miterlimit="10" stroke-width="1"/>
        <path id="Trazado_874852" data-name="Trazado 874852" d="M120.489,168.556s22.616,2.462,25.718,10.661.412,24.277-1.2,29.5-2.564,23.9-2.362,32.945c.156,6.955,3.02,29.183,2.7,34.147s-1.094,10.418-10.056,11.2-21.04-2.727-24.546-4.675S99.8,278.9,94.773,278.041c-3.256-.558-6.039.195-12.273-.2s-8.766-1.61-9.352-2.338c-.9-1.116-.589-37.524-.771-44.132s-5.226-33.549-4.155-43.5c.593-5.509,1.943-12.219,5.511-15.032,4.879-3.848,23.637-4.4,23.637-4.4a24.916,24.916,0,0,0,10.169,1.833,58.684,58.684,0,0,0,12.949-1.716" transform="translate(-27.458 -67.941)" fill="#e5ab00"/>
        <path id="Trazado_874853" data-name="Trazado 874853" d="M246.76,232.5c-2.345,9.346-19.13,14.444-23.986,15.286s-11.476-4.889-16.346-9.173-12.738-12.173-12.738-12.173L205.912,203.4s5.122,4.78,9.874,9.834S227.31,225.62,227.31,225.62s21.795-2.464,19.45,6.883" transform="translate(-78.127 -82.044)" fill="#b86b2f"/>
        <path id="Trazado_874854" data-name="Trazado 874854" d="M187.652,223.3c-2.213,1.153-7.082-5.626-11.333-6.266s-11.6-3.676-11.6-3.676,3.458-39.551,10.662-38.009c9.623,2.061,24.2,18.268,25.891,21.777,1.2,2.488-2.238,6.549-4.752,12.037s-6.661,12.985-8.873,14.137" transform="translate(-66.443 -70.709)" fill="#e5ab00"/>
        <path id="Trazado_874855" data-name="Trazado 874855" d="M73.372,127.1c-3.343-4.537-11.062-6.144-15.153-11.29-5.635-7.088-11.488-15.322-11.488-15.322a127.854,127.854,0,0,0-.195-17.269c-.779-7.6-1.948-23.378-1.948-23.378L33.483,54.97s-7.012,17.923-8.376,27.274-4.286,15.391-.584,26.495,18.948,40.95,26.551,41.882,25.639-18.983,22.3-23.522" transform="translate(-9.164 -22.173)" fill="#b86b2f"/>
        <path id="Trazado_874856" data-name="Trazado 874856" d="M66.263,22.042c.11-.967-1.047-2.863-3.673-2.183-2.034.528-5.011,4.929-5.412,4.11-.538-1.095,4.248-11.64,5.289-16.288.526-2.354-1.854-3.9-3.728-1.153-1.6,2.336-4.783,10.5-5.186,10.705s3.055-12.111,2.91-14.615-2.747-3.2-3.781-1.463-3.361,14.807-4.188,14.523.758-11.442.209-13.751-2.884-2.749-3.852-.19-1.485,14.757-2.259,14.669S42,9.577,41.176,6.442c-.958-3.638-3.428-1.815-3.744.162s.245,8.695.051,13.339a54.424,54.424,0,0,0,.2,10.255,9.231,9.231,0,0,0,3.07,5.8c1.362.96,8.037,3.463,10.321,2.35s5.645-3.082,6.684-5.317,4.237-5.391,5.492-6.891c1.5-1.793,2.953-3.574,3.014-4.1" transform="translate(-15.059 0)" fill="#b86b2f"/>
        <path id="Trazado_874857" data-name="Trazado 874857" d="M80.164,157.881c-2.463-1.407-4.71-4.476-6.774-5.916a38.611,38.611,0,0,0-4.331-2.656,41.362,41.362,0,0,0-2.727-3.7c-.779-.779-2.728-2.143-3.9-1.558s-7.208,10.714-10.325,19.676c-2.524,7.258-4.675,23.377-3.506,26.105.585,1.363,6.234,2.727,8.572,4.676s3.117,5.065,6.624,6.234,24.936-25.716,24.936-25.716-5.845-15.585-8.571-17.144" transform="translate(-19.473 -58.047)" fill="#e5ab00"/>
        <path id="Trazado_874858" data-name="Trazado 874858" d="M74.092,153.615S62.013,169.2,61.234,186.733" transform="translate(-24.699 -61.962)" fill="none" stroke="#cc7e00" stroke-miterlimit="10" stroke-width="1"/>
        <path id="Trazado_874859" data-name="Trazado 874859" d="M86,165.369S73,170.7,70.47,181.9" transform="translate(-28.425 -66.704)" fill="none" stroke="#cc7e00" stroke-miterlimit="10" stroke-width="1"/>
        <path id="Trazado_874860" data-name="Trazado 874860" d="M104.807,247.85s9.411,35.819,28.55,43.132" transform="translate(-42.275 -99.973)" fill="none" stroke="#cc7e00" stroke-miterlimit="10" stroke-width="1"/>
        <path id="Trazado_874861" data-name="Trazado 874861" d="M71.683,215.078s15.2-9.741,21.429-32.729" transform="translate(-28.914 -73.553)" fill="none" stroke="#cc7e00" stroke-miterlimit="10" stroke-width="1"/>
        <path id="Trazado_874862" data-name="Trazado 874862" d="M178.127,197.369s2.355,21.434,8.58,27.081" transform="translate(-71.85 -79.611)" fill="none" stroke="#cc7e00" stroke-miterlimit="10" stroke-width="1"/>
        <path id="Trazado_874863" data-name="Trazado 874863" d="M101.722,337.119A65.967,65.967,0,0,1,108,339.8c3.75,1.8,8.524,5.5,15.537,9.01" transform="translate(-41.031 -135.981)" fill="none" stroke="#cc7e00" stroke-miterlimit="10" stroke-width="1"/>
        <path id="Trazado_874864" data-name="Trazado 874864" d="M357.654,317.988c.221-4.212,2.86-5.623,5.062-6.429s6.817-1.842,7.808-2.107c1.676-.45,7.565-4.085,8.373-1.139s-5.735,4.776-5.11,5.441,8.717-.706,12.5-.348c1.915.182,2.506,1.069,2.537,2.013.088,2.8-12.637,2.154-12.346,2.908.148.383,2.722,1.087,5.505,1.073,2.693-.011,5.589-.743,6.473-.389,1.8.715,1.958,3-.146,3.533a24.014,24.014,0,0,1-6.027.96,52.586,52.586,0,0,1-6.92-.542,54.592,54.592,0,0,0,5.505,1.709c2.271.544,4.663.148,5.191.461,1.8,1.066.683,3.1-.828,3.508a11.33,11.33,0,0,1-5.247.082c-3-.762-6.352-2.154-6.5-1.832-.261.569,4.829,2.365,5.965,3.339s.249,2.539-1.283,2.6c-1.835.073-4.171-.477-7.418-1.822a61.553,61.553,0,0,1-8.007-3.628c-3.977-2.419-5.313-5.176-5.092-9.39" transform="translate(-144.255 -123.901)" fill="#faccbb"/>
        <path id="Trazado_874865" data-name="Trazado 874865" d="M332.017,294.489c-3.027-2.613-11.753-8.393-13.1-9.279-.2-.654-.957-3.568-.957-3.568a26.356,26.356,0,0,1-6.664,3.1c-3.507.974-8.767,2.143-8.767,2.143s2.828,9.263,5.525,11.606c2.957,2.567,10.053,7.523,14.416,9.351a57.678,57.678,0,0,0,14.019,3.656l3.58-9.7s-3.48-3.358-8.056-7.31" transform="translate(-122.03 -113.604)" fill="#faccbb"/>
        <path id="Trazado_874866" data-name="Trazado 874866" d="M314.038,238.619c-2-5.277-5.195-10.678-8.052-12.926s-7.287-2.727-7.287-2.727,2.092,15.9,2.092,20.962-1.039,19.871-1.039,19.871,4.935-.953,10.39-2.078,7.533-4.416,7.533-4.416-.669-10.86-3.637-18.687" transform="translate(-120.483 -89.936)" fill="#72a5c1"/>
        <path id="Trazado_874867" data-name="Trazado 874867" d="M300.177,208.95c-3.064-.23-9.763,6.572-12.782,15.264a58.752,58.752,0,0,1-6.689,13.366s-9.909,6.693-13.154,9.571c-4.524,4.011-7.96,7.414-7.96,7.414l3.707,9.649s6.855-2.366,13.643-5.313a85.808,85.808,0,0,0,14.375-8.479c2.361-1.97,7.042-9.193,8.5-12.047s5-5.809,6.234-13.881-2.807-15.314-5.87-15.544" transform="translate(-104.709 -84.28)" fill="#faccbb"/>
        <path id="Trazado_874868" data-name="Trazado 874868" d="M248.891,286.273c-.279-4.294-2.958-5.7-5.188-6.492s-6.9-1.79-7.9-2.046c-1.694-.437-7.68-4.068-8.456-1.052s5.845,4.8,5.223,5.484-5.947.1-7.895-.879-2.533.78-2.338,2.143,1.558,2.533,2.922,3.117,4.823-.135,4.656.32c-.144.393-.954.655-3.1.85s-2.916-1.22-3.991-.513-1.256,3.7.874,4.214a13.637,13.637,0,0,0,3.311.39c1.365,0,4.088-.227,4.088-.227a42,42,0,0,1-4.06,1.366c-1.845.484-4.314-1.139-4.7.419a3.066,3.066,0,0,0,1.754,3.7,11.529,11.529,0,0,0,4.48,0c1.169-.195,4.323-1.832,4.476-1.5.271.577-4.836,2.475-5.969,3.485s-.218,2.594,1.328,2.635c1.851.049,4.2-.542,7.454-1.957a64.353,64.353,0,0,0,8.58-5.107c3.975-2.52,4.728-4.051,4.45-8.346" transform="translate(-89.566 -111.124)" fill="#faccbb"/>
        <path id="Trazado_874869" data-name="Trazado 874869" d="M494.542,340.262c0-8.712-3.783-19.007-3.783-19.007s-60.115-4.415-61.9,2.083c-.616,2.247-1.546,12.09-2.038,22.071s1.892,31.679,1.892,31.679,7.9,1.268,17.023,1.98,15.883-2.623,18.537-2.376a90.5,90.5,0,0,0,14,.825c4.135-.125,15.507-2.408,15.507-2.408s-.211-6.87-.378-15.047c-.18-8.821,1.134-11.088,1.134-19.8" transform="translate(-172.138 -128.991)" fill="#72a5c1"/>
        <path id="Trazado_874870" data-name="Trazado 874870" d="M460.273,355.405c-5.315-.493-11.732-1.153-11.732-1.153L446.45,369.38s5.94,7.526,10.306,8.419,11.656-6.61,11.656-6.61l1.571-15.67a79.228,79.228,0,0,1-9.71-.113" transform="translate(-180.081 -142.892)" fill="#558197"/>
        <path id="Trazado_874871" data-name="Trazado 874871" d="M524.2,349.745l-1.328,15.684s-5.324,8-8.7,8.257c-2.7.208-9.352-5.468-9.352-5.468l1.458-13.8s5.394-1.3,8.931-2.077,8.991-2.6,8.991-2.6" transform="translate(-203.624 -141.074)" fill="#558197"/>
        <path id="Trazado_874872" data-name="Trazado 874872" d="M495.218,369.336s-.78,9.351-2.858,12.728-2.718,13.833-2.718,13.833" transform="translate(-197.503 -148.976)" fill="none" stroke="#558197" stroke-miterlimit="10" stroke-width="1"/>
        <path id="Trazado_874873" data-name="Trazado 874873" d="M468.513,401.882s5.455.26,7.793-.519,5.2-2.858,6.494-2.858,6.234,3.9,14.027,2.858" transform="translate(-188.98 -160.742)" fill="none" stroke="#558197" stroke-miterlimit="10" stroke-width="1"/>
        <path id="Trazado_874874" data-name="Trazado 874874" d="M563.2,88.438c-.592-9.525-5.225-20.1-5.225-20.1s.4-3.732.343-6.03c-.088-3.791-3.168-10.56-4.094-12.012s-3.7-3.76-4.75-3.564-1.189.924-1.189.924-2.245-1.584-3.7-.924a4.1,4.1,0,0,0-1.848,2.244s-1.507-1.041-2.64-.4c-1.5.85-1.656,3.056-1.656,3.056a4.037,4.037,0,0,0-2.172.376,3.824,3.824,0,0,0-1.583,3.168,11.869,11.869,0,0,0,.66,1.981,8.882,8.882,0,0,0-.132,3.563c.4,1.32.014,2.666.4,3.7,1.319,3.564,4.355,4.356,5.806,6.2s5.808,2.508,5.808,2.508-.3,9.007-.793,13.188c-.754,6.347-1.715,15.851-1.715,15.851s-3.891,4.293-6.037,7.295-4.42,6.74-7.454,9.2c-5.857,4.754-14.641,5.187-11.979,17.156,1.383,6.208,7.57,12.635,13.855,12.542s15.838-12.672,18.743-16.9,7.921-15.575,9.24-19.535,2.63-15.142,2.111-23.5" transform="translate(-209.247 -18.784)" fill="#cd6947"/>
        <path id="Trazado_874875" data-name="Trazado 874875" d="M552.314,55.022s3.3.66,4.091,3.7" transform="translate(-222.782 -22.194)" fill="none" stroke="#a94d3d" stroke-miterlimit="10" stroke-width="1"/>
        <path id="Trazado_874876" data-name="Trazado 874876" d="M558.95,50.156s3.961,1.848,4.092,4.224" transform="translate(-225.459 -20.231)" fill="none" stroke="#a94d3d" stroke-miterlimit="10" stroke-width="1"/>
        <path id="Trazado_874877" data-name="Trazado 874877" d="M568.685,48.165s3.3,2.112,3.7,4.62" transform="translate(-229.386 -19.428)" fill="none" stroke="#a94d3d" stroke-miterlimit="10" stroke-width="1"/>
        <path id="Trazado_874878" data-name="Trazado 874878" d="M555.927,70.719a17.907,17.907,0,0,0-2.506-1.98" transform="translate(-223.229 -27.727)" fill="none" stroke="#a94d3d" stroke-miterlimit="10" stroke-width="1"/>
        <path id="Trazado_874879" data-name="Trazado 874879" d="M551.314,68.463a6.82,6.82,0,0,0-.792-2.507,10.391,10.391,0,0,0-1.32-2.376,1.451,1.451,0,0,0-1.716-.264,2.747,2.747,0,0,0-.924,1.056" transform="translate(-220.462 -25.471)" fill="none" stroke="#a94d3d" stroke-miterlimit="10" stroke-width="1"/>
        <path id="Trazado_874880" data-name="Trazado 874880" d="M497.17,175.9c1.188-3.168,7.885-4.16,11.268-4.851s5.13-2.193,7.324-3.118c1.541-.649,4.375-4.7,7.938-4.306s8.712,5.94,9.5,13.464,1.189,13.463,0,17.819-3.562,7.919-9.106,7.919c-5.848,0-16.538,4.584-16.538,4.584s-11.577-28.343-10.389-31.51" transform="translate(-200.505 -65.99)" fill="#226365"/>
        <path id="Trazado_874881" data-name="Trazado 874881" d="M477.467,141.939s3.648-.543,4.55-1.688c1.725-2.193,2.431-6.716,1.157-9.235-1.408-2.776-5.846-.212-5.846-.212s-23.37-15.418-26.692-13.933-3.583,6.049-3.524,8.028a24.617,24.617,0,0,0,.939,4.924s-1.829-.462-2.57.71-.15,3.654.143,4.767c.454,1.731,1.092,4.813,2.231,5.5a2.01,2.01,0,0,0,1.918.264,88.514,88.514,0,0,0,2.239,8.649c.857,2.153,3.418,1.681,3.418,1.681l.313,10.488,21.968-.655c.03-1.076-3.178-13.966-3.178-13.966Z" transform="translate(-179.545 -47.1)" fill="#cd6947"/>
        <path id="Trazado_874882" data-name="Trazado 874882" d="M480.922,103.55a8.875,8.875,0,0,0-1.277-6.675c-2.178-3.366-10.969-4.116-10.969-4.116l-9.484-1.336a6.424,6.424,0,0,0-4.94-1.113c-2.812.584-1.817,3.676-1.817,3.676s-2.808-.159-3.616,1.321c-.52.95-.419,2.9.146,4.594a3.985,3.985,0,0,0-2.189,3.48,7.39,7.39,0,0,0,1.622,5.034,31.659,31.659,0,0,0-.8,6.56c.4,4.437,3.837,10.02,5.355,13.508s2.283,3.5,4.117,5.225,2.487,2.864,3.147,5.849,6.589,1.784,10.338,1.276,5.122-.945,5.493-1.748.878-5,2.313-6.724,3.013-4.777,4.357-9.43,1.228-8.247,1.373-12.281-3.172-7.1-3.172-7.1" transform="translate(-180.21 -36.378)" fill="#52343d"/>
        <path id="Trazado_874883" data-name="Trazado 874883" d="M492.618,123.357a22.171,22.171,0,0,1-.26,9.611c-1.3,5.456-2.077,11.689-2.077,11.689" transform="translate(-197.76 -49.757)" fill="none" stroke="#42282e" stroke-miterlimit="10" stroke-width="1"/>
        <path id="Trazado_874884" data-name="Trazado 874884" d="M497.759,118.133s4.156,3.637,2.338,10.39a101.8,101.8,0,0,1-4.156,12.208" transform="translate(-200.043 -47.65)" fill="none" stroke="#42282e" stroke-miterlimit="10" stroke-width="1"/>
        <path id="Trazado_874885" data-name="Trazado 874885" d="M460.241,117.19a18.384,18.384,0,0,0,9.092,0,20.347,20.347,0,0,1,8.571-.52" transform="translate(-185.643 -46.966)" fill="none" stroke="#42282e" stroke-miterlimit="10" stroke-width="1"/>
        <path id="Trazado_874886" data-name="Trazado 874886" d="M458.065,101.589s8.571,3.117,13.247,2.6,8.052,5.195,8.052,5.195" transform="translate(-184.766 -40.977)" fill="none" stroke="#42282e" stroke-miterlimit="10" stroke-width="1"/>
        <path id="Trazado_874887" data-name="Trazado 874887" d="M464.159,93.753a24.891,24.891,0,0,0,8.572,2.338c5.195.519,10.651,1.3,11.949,4.675s.26,4.935.26,4.935" transform="translate(-187.224 -37.816)" fill="none" stroke="#42282e" stroke-miterlimit="10" stroke-width="1"/>
        <path id="Trazado_874888" data-name="Trazado 874888" d="M309,215c.8.748,2.682-.812,4.941-.588,1.823.178,3.986,3.959,6.394,4.957s5.487,1.971,5.487,1.971,6.719,12.71,9.861,16.635c4.329,5.409,10.706,10.29,14.644,10.488s13.706-4.024,20.307-8.512,13.991-12.143,13.991-12.143L377.236,208.8s-6.336,4.224-11.352,8.184C361.051,220.8,354,228.6,354,228.6s-5.9-4.747-9.24-7.524S335,215.4,335,215.4s-.924-5.015-1.056-6.467a13.626,13.626,0,0,0-2.244-5.544c-1.188-1.715-3.7-2.28-5.148-1.185-.817.615.739,1.381,1.255,2.5a4.853,4.853,0,0,1,.4,1.584s-2.442-3.3-4.653-3.906c-1.452-.4-3.109-.873-4.312.125a2.226,2.226,0,0,0-.7,1.5s-2.407.375-2.908,1.249a3.592,3.592,0,0,0-.5,1.624,3.46,3.46,0,0,0-2.332.963,9.121,9.121,0,0,0-1.079,2.782,5.55,5.55,0,0,0-2.407,1.249c-1.236,1.347-1.1,2.372-.3,3.122" transform="translate(-124.392 -81.336)" fill="#cd6947"/>
        <path id="Trazado_874889" data-name="Trazado 874889" d="M314.631,216.252a6.149,6.149,0,0,1,6.92,2" transform="translate(-126.91 -87.081)" fill="none" stroke="#ac4c3b" stroke-miterlimit="10" stroke-width="1"/>
        <path id="Trazado_874890" data-name="Trazado 874890" d="M320.011,210.2s3.209-.375,4.713,1.5" transform="translate(-129.08 -84.773)" fill="none" stroke="#ac4c3b" stroke-miterlimit="10" stroke-width="1"/>
        <path id="Trazado_874891" data-name="Trazado 874891" d="M325.726,205.4a4.748,4.748,0,0,1,3.912,1.624" transform="translate(-131.385 -82.845)" fill="none" stroke="#ac4c3b" stroke-miterlimit="10" stroke-width="1"/>
        <path id="Trazado_874892" data-name="Trazado 874892" d="M442.274,184.02s-16.2,1.639-20.913,8.728-.145,23.636,1.483,28.7,1.49,23.8,1.387,32.615c-.079,6.77-3.989,24.142-2.409,26.983s24.725,8.441,31.728,8.7c16.4.612,36.239-5.414,38.8-8.743s-4.631-30.288-4.524-36.722.106-38.138-1.044-47.812-4.287-16.742-19.831-14.008c-8.606,1.511-24.678,1.564-24.678,1.564" transform="translate(-169.124 -73.357)" fill="#226365"/>
        <path id="Trazado_874893" data-name="Trazado 874893" d="M417.008,194.61a17.844,17.844,0,0,0-5.869,2.493,46.6,46.6,0,0,0-8.729,9.751,32.625,32.625,0,0,1-8.653,8.54,47.38,47.38,0,0,0,4.53,13.385,29.158,29.158,0,0,0,8.6,10.137s9.632-3.479,13.32-9.624a49.7,49.7,0,0,0,5.426-15Z" transform="translate(-158.826 -78.498)" fill="#226365"/>
        <path id="Trazado_874894" data-name="Trazado 874894" d="M510.743,185.614s7.532,4.416,9.871,11.429a57.924,57.924,0,0,1,2.6,14.287" transform="translate(-206.014 -74.87)" fill="none" stroke="#134f4f" stroke-miterlimit="10" stroke-width="1"/>
        <path id="Trazado_874895" data-name="Trazado 874895" d="M524.674,175.4s8.312-2.078,12.209,4.675" transform="translate(-211.633 -70.627)" fill="none" stroke="#134f4f" stroke-miterlimit="10" stroke-width="1"/>
        <path id="Trazado_874896" data-name="Trazado 874896" d="M521.626,176.472s7.794-.26,11.69,8.831" transform="translate(-210.404 -71.182)" fill="none" stroke="#134f4f" stroke-miterlimit="10" stroke-width="1"/>
        <path id="Trazado_874897" data-name="Trazado 874897" d="M442.921,214.784s.779,8.571-1.818,14.026-12.209,14.027-12.209,14.027" transform="translate(-172.999 -86.636)" fill="none" stroke="#134f4f" stroke-miterlimit="10" stroke-width="1"/>
        <path id="Trazado_874898" data-name="Trazado 874898" d="M493.234,242.211s-7.274,12.208-9.352,23.117-7.533,30.392-7.533,30.392" transform="translate(-192.141 -97.699)" fill="none" stroke="#134f4f" stroke-miterlimit="10" stroke-width="1"/>
        <path id="Trazado_874899" data-name="Trazado 874899" d="M271.644,183.042c-1.559-3.117-5.456-6.234-6.04-8.182s.78-5.65,0-10.52-3.117-8.182-3.506-9.741-1.169-8.377-2.338-11.1a44.255,44.255,0,0,0-4.286-7.987c-1.558-2.143-4.091-4.091-9.741-5.65s-11.1,2.338-11.1,2.338-5.259-1.169-8.766,2.338-5.005,6.888-5.425,9.775a38.026,38.026,0,0,1-1.394,7.368,42.875,42.875,0,0,1-3.276,8.135c-3.248,5.6-.554,12.613-.036,16.023s-3.718,6.452-5.658,9.558-1.01,9.151,1.837,11.583,6.354.873,7.522,2.822,3.7,9.157,10.52,10.325,9.546-3.7,12.273-3.311,5.065,4.675,11.689,2.143,5.613-8.7,7.58-10.294,5.12-.944,8.413-3.021,3.293-9.479,1.736-12.6" transform="translate(-84.323 -52.231)" fill="#cc3357"/>
        <path id="Trazado_874900" data-name="Trazado 874900" d="M284.791,147.521s4.415,7.792,3.9,13.507,1.039,9.611,2.338,13.507-.779,9.871,1.819,12.728,4.675,9.87,3.376,12.727" transform="translate(-114.874 -59.504)" fill="none" stroke="#a72743" stroke-linecap="round" stroke-linejoin="round" stroke-width="1"/>
        <path id="Trazado_874901" data-name="Trazado 874901" d="M299.593,191.927a24.738,24.738,0,0,1,.52,7.792c-.52,3.377,2.078,4.416,3.9,7.533s2.338,7.792,1.558,9.091" transform="translate(-120.844 -77.416)" fill="none" stroke="#a72743" stroke-linecap="round" stroke-linejoin="round" stroke-width="1"/>
        <path id="Trazado_874902" data-name="Trazado 874902" d="M223.257,181.043s-2.858,4.675-1.3,8.573,2.6,11.429.26,13.767-8.052,6.233-5.714,10.39" transform="translate(-87.107 -73.026)" fill="none" stroke="#a72743" stroke-linecap="round" stroke-linejoin="round" stroke-width="1"/>
        <path id="Trazado_874903" data-name="Trazado 874903" d="M231.062,217.613s-3.637,5.974-1.558,9.611,2.857,4.675,2.857,8.312a8.682,8.682,0,0,0,2.6,5.975" transform="translate(-92.314 -87.777)" fill="none" stroke="#a72743" stroke-linecap="round" stroke-linejoin="round" stroke-width="1"/>
        <path id="Trazado_874904" data-name="Trazado 874904" d="M248.4,138.378s-7.533,9.871-3.9,17.4,2.337,11.429,1.3,16.1-2.078,9.351-.26,14.026,2.077,7.533,1.039,12.728.78,8.571,2.858,10.649" transform="translate(-98.223 -55.816)" fill="none" stroke="#a72743" stroke-linecap="round" stroke-linejoin="round" stroke-width="1"/>
        <path id="Trazado_874905" data-name="Trazado 874905" d="M249.284,152.744s-1.559,5.456,1.819,12.728,2.857,13.767,1.818,16.884-.519,5.975,1.819,9.611,2.6,7.532,1.039,11.948-.52,6.753,1.559,8.572" transform="translate(-100.407 -61.611)" fill="none" stroke="#a72743" stroke-linecap="round" stroke-linejoin="round" stroke-width="1"/>
        <path id="Trazado_874906" data-name="Trazado 874906" d="M283.486,137.942s8.312,6.754,9.87,12.988-2.6,8.571-.26,13.247,4.936,7.273,4.416,12.468.779,5.715,3.117,9.871,4.416,5.454,3.117,10.649" transform="translate(-114.347 -55.64)" fill="none" stroke="#cc3357" stroke-linecap="round" stroke-linejoin="round" stroke-width="1"/>
        <path id="Trazado_874907" data-name="Trazado 874907" d="M227.38,142.3s-9.091,4.676-9.091,11.429,2.079,7.532.779,13.507-4.936,7.793-5.975,12.209,1.3,11.169-.26,13.507-5.195,8.571-.26,12.468" transform="translate(-84.737 -57.397)" fill="none" stroke="#cc3357" stroke-linecap="round" stroke-linejoin="round" stroke-width="1"/>
      </g>
    </g>
    <rect id="Rect치ngulo_402446" data-name="Rect치ngulo 402446" width="400" height="257" transform="translate(180 2165)" fill="none"/>
  </g>
</svg>
