<svg xmlns="http://www.w3.org/2000/svg" xmlns:xlink="http://www.w3.org/1999/xlink" width="145" height="145" viewBox="0 0 145 145">
  <defs>
    <clipPath id="clip-path">
      <rect id="Rectángulo_400938" data-name="Rectángulo 400938" width="145" height="145" transform="translate(0 -0.281)" fill="none"/>
    </clipPath>
    <clipPath id="clip-path-2">
      <rect id="Rectángulo_401073" data-name="Rectángulo 401073" width="110.228" height="49.642" fill="#7d3a1b"/>
    </clipPath>
    <clipPath id="clip-path-3">
      <rect id="Rectángulo_402518" data-name="Rectángulo 402518" width="74.467" height="74.695" fill="#6a4d23"/>
    </clipPath>
  </defs>
  <g id="img5" transform="translate(-175 -9540.719)">
    <g id="Grupo_1099404" data-name="Grupo 1099404" transform="translate(175 9541)">
      <g id="Grupo_1099379" data-name="Grupo 1099379" transform="translate(0 0)">
        <rect id="Rectángulo_401103" data-name="Rectángulo 401103" width="145" height="145" transform="translate(0 -0.281)" fill="none"/>
        <g id="Grupo_1099348" data-name="Grupo 1099348" transform="translate(0.045 0.045)">
          <g id="Grupo_1099282" data-name="Grupo 1099282">
            <g id="Grupo_1099281" data-name="Grupo 1099281" clip-path="url(#clip-path-2)">
              <path id="Trazado_873375" data-name="Trazado 873375" d="M89.413,10.879c-4.947,0-7.506-2.426-9.765-4.567C77.431,4.213,75.522,2.4,71.529,2.4s-5.9,1.814-8.118,3.913c-2.259,2.141-4.814,4.567-9.765,4.567S46.14,8.453,43.881,6.312C41.664,4.213,39.755,2.4,35.763,2.4s-5.9,1.814-8.114,3.913c-2.259,2.141-4.818,4.567-9.765,4.567s-7.51-2.426-9.769-4.567C5.9,4.213,3.993,2.4,0,2.4V0C4.947,0,7.506,2.43,9.765,4.567c2.217,2.1,4.126,3.913,8.118,3.913S23.785,6.67,26,4.571C28.253,2.43,30.816,0,35.763,0s7.51,2.43,9.765,4.567c2.217,2.1,4.126,3.913,8.118,3.913s5.9-1.81,8.118-3.913C64.019,2.43,66.582,0,71.529,0s7.51,2.43,9.765,4.567c2.217,2.1,4.126,3.913,8.118,3.913s5.9-1.81,8.118-3.913C99.786,2.43,102.345,0,107.3,0V2.4c-3.993,0-5.9,1.814-8.118,3.913-2.259,2.141-4.818,4.567-9.765,4.567" transform="translate(2.932 38.763)" fill="#7d3a1b"/>
              <path id="Trazado_873376" data-name="Trazado 873376" d="M89.413,10.879c-4.947,0-7.51-2.426-9.765-4.571C77.431,4.209,75.522,2.4,71.529,2.4s-5.9,1.81-8.118,3.909c-2.255,2.145-4.814,4.571-9.765,4.571s-7.51-2.426-9.765-4.571C41.664,4.209,39.755,2.4,35.763,2.4s-5.9,1.814-8.115,3.909c-2.259,2.145-4.818,4.571-9.765,4.571s-7.51-2.426-9.769-4.571C5.9,4.209,3.993,2.4,0,2.4V0C4.947,0,7.51,2.426,9.765,4.567c2.217,2.1,4.126,3.913,8.118,3.913S23.785,6.67,26,4.567C28.253,2.426,30.816,0,35.763,0s7.51,2.426,9.769,4.567c2.213,2.1,4.122,3.913,8.115,3.913s5.9-1.81,8.118-3.913C64.019,2.426,66.582,0,71.529,0s7.51,2.426,9.765,4.567c2.217,2.1,4.126,3.913,8.118,3.913s5.9-1.81,8.118-3.913C99.79,2.426,102.349,0,107.3,0V2.4c-3.993,0-5.905,1.814-8.122,3.909-2.259,2.145-4.818,4.571-9.765,4.571" transform="translate(1.955 25.842)" fill="#7d3a1b"/>
              <path id="Trazado_873377" data-name="Trazado 873377" d="M89.412,10.879c-4.947,0-7.51-2.426-9.765-4.571C77.431,4.209,75.522,2.4,71.529,2.4s-5.9,1.81-8.118,3.909c-2.255,2.145-4.818,4.571-9.765,4.571s-7.51-2.426-9.765-4.571C41.664,4.209,39.755,2.4,35.763,2.4s-5.9,1.814-8.115,3.909c-2.259,2.145-4.818,4.571-9.765,4.571s-7.51-2.426-9.769-4.571C5.9,4.209,3.993,2.4,0,2.4V0C4.947,0,7.51,2.426,9.765,4.567c2.213,2.1,4.126,3.913,8.118,3.913S23.785,6.67,26,4.567C28.253,2.426,30.816,0,35.763,0s7.51,2.426,9.769,4.567c2.213,2.1,4.122,3.913,8.115,3.913s5.9-1.81,8.118-3.913C64.019,2.426,66.582,0,71.529,0s7.51,2.426,9.765,4.567c2.217,2.1,4.126,3.913,8.118,3.913s5.9-1.81,8.118-3.913C99.79,2.426,102.345,0,107.3,0V2.4c-3.993,0-5.905,1.814-8.122,3.909-2.259,2.145-4.818,4.571-9.765,4.571" transform="translate(0.977 12.921)" fill="#7d3a1b"/>
              <path id="Trazado_873378" data-name="Trazado 873378" d="M89.413,10.875c-4.947,0-7.506-2.426-9.765-4.567C77.431,4.209,75.522,2.4,71.529,2.4s-5.9,1.81-8.115,3.909c-2.259,2.141-4.818,4.567-9.769,4.567S46.14,8.449,43.881,6.308C41.664,4.209,39.755,2.4,35.763,2.4s-5.9,1.81-8.115,3.905c-2.255,2.145-4.818,4.571-9.765,4.571s-7.51-2.426-9.769-4.567C5.9,4.209,3.993,2.4,0,2.4V0C4.947,0,7.51,2.426,9.765,4.567c2.217,2.1,4.126,3.909,8.118,3.909s5.9-1.81,8.115-3.909C28.257,2.426,30.816,0,35.763,0s7.506,2.426,9.769,4.567c2.213,2.1,4.122,3.909,8.115,3.909s5.9-1.81,8.118-3.909C64.023,2.426,66.582,0,71.529,0s7.506,2.426,9.765,4.567c2.217,2.1,4.126,3.909,8.118,3.909s5.9-1.81,8.118-3.909C99.79,2.426,102.349,0,107.3,0V2.4c-4,0-5.905,1.81-8.122,3.909-2.259,2.141-4.818,4.567-9.765,4.567" transform="translate(0 0.004)" fill="#7d3a1b"/>
            </g>
          </g>
        </g>
        <path id="Trazado_873425" data-name="Trazado 873425" d="M60.362,0A60.362,60.362,0,1,1,0,60.362,60.362,60.362,0,0,1,60.362,0Z" transform="translate(17.974 21.56)" fill="#efb499"/>
        <circle id="Elipse_11503" data-name="Elipse 11503" cx="63" cy="63" r="63" transform="translate(9 9.719)" fill="#fef7eb"/>
      </g>
    </g>
    <g id="Grupo_1100674" data-name="Grupo 1100674" transform="translate(210.267 9575.871)">
      <g id="Grupo_1100673" data-name="Grupo 1100673" clip-path="url(#clip-path-3)">
        <path id="Trazado_875003" data-name="Trazado 875003" d="M39.431,98.032c-1.742-.081-3.216-.153-4.692-.217a2.846,2.846,0,0,0-2.281.95q-2.186,2.266-4.459,4.448a.991.991,0,0,0-.276,1.292,4.737,4.737,0,0,1-1.09,5.464c-.837.867-1.683,1.727-2.564,2.55a4.834,4.834,0,0,1-6.831,0c-1.045-.988-2.033-2.036-3.061-3.042a1.511,1.511,0,0,1-.239-2.266c.6-.73,1.452-.644,2.328.2.923.892,1.808,1.822,2.73,2.716,1.177,1.142,2.137,1.135,3.33-.021.754-.731,1.509-1.463,2.219-2.235a1.867,1.867,0,0,0-.054-2.868Q17.052,97.519,9.6,90.044c-1.756-1.758-2.462-1.735-4.238.035-.551.549-1.112,1.089-1.647,1.652a1.977,1.977,0,0,0,.017,3.157c.889.925,1.823,1.807,2.722,2.723.82.837.925,1.718.311,2.355-.646.67-1.48.6-2.335-.234C3.4,98.727,2.366,97.724,1.381,96.676a4.838,4.838,0,0,1-.024-6.745c.847-.91,1.742-1.777,2.634-2.645a4.794,4.794,0,0,1,4.83-1.276,1.182,1.182,0,0,0,1.351-.287q1.859-1.934,3.794-3.8c.392-.378.388-.6.055-1.05-2.153-2.886-1.55-6,1.5-7.83.448-.269.556-.417.326-.957a4.951,4.951,0,0,1,2.788-6.978c.558-.243.608-.529.576-1.052a4.96,4.96,0,0,1,3.23-5.359A.813.813,0,0,0,23.05,57.7c-.3-3.716,2.459-6.2,6.163-5.623a1.077,1.077,0,0,0,.973-.121,4.137,4.137,0,0,1,3.434-.661q4.925.911,9.853,1.8a8.492,8.492,0,0,0,1.269.137,5,5,0,0,1,5.1,5.427c-.031.75.07,1.137.869,1.455A4.916,4.916,0,0,1,53.69,65.4c-.078.585.033.762.582.987a4.957,4.957,0,0,1,3.27,5.229,1.06,1.06,0,0,0,.767,1.28,4.991,4.991,0,0,1,2.021,7.769c-.515.661-.427.987.12,1.5,1.189,1.118,2.338,2.282,3.468,3.46a1.152,1.152,0,0,0,1.418.354A4.681,4.681,0,0,1,70.395,87.1c.907.852,1.8,1.723,2.646,2.633a4.82,4.82,0,0,1,0,6.842q-7.87,7.969-15.849,15.829a4.835,4.835,0,0,1-6.846-.025c-.907-.851-1.78-1.739-2.635-2.643a4.683,4.683,0,0,1-1.105-5.064,1.153,1.153,0,0,0-.374-1.41c-1.339-1.3-2.652-2.627-3.973-3.946-1.278-1.277-1.277-1.278-2.829-1.284m-2-3.016c3.936.1,3.938.1,6.707-2.236a1.408,1.408,0,0,1,2.086-.048,1.391,1.391,0,0,1-.052,2.162,18.442,18.442,0,0,1-1.595,1.537c-.452.37-.44.617-.035,1.009,1.258,1.217,2.507,2.445,3.713,3.712.477.5.767.412,1.21-.032q6.129-6.162,12.3-12.28c.552-.545.417-.841-.06-1.294-1.126-1.072-2.241-2.16-3.3-3.3-.558-.6-.916-.743-1.545-.048-.826.912-1.651.923-2.32.227-.645-.672-.548-1.459.313-2.337,1.007-1.028,2.061-2.012,3.03-3.073a2.129,2.129,0,0,0-2.974-3.044c-.39.319-.726.7-1.092,1.052-.874.834-1.694.933-2.349.29s-.594-1.468.247-2.338c.73-.755,1.5-1.467,2.216-2.237a2.143,2.143,0,1,0-3.009-3.048c-.377.336-.72.71-1.084,1.06-.9.87-1.794.977-2.442.3-.619-.65-.509-1.494.326-2.349.815-.834,1.678-1.625,2.457-2.492a2.132,2.132,0,0,0-3.038-2.992c-.437.385-.824.826-1.249,1.226-.879.827-1.714.91-2.332.189a1.482,1.482,0,0,1,.232-2.255c.778-.761,1.551-1.529,2.31-2.309a2.17,2.17,0,1,0-3.048-3.035c-1.115,1.085-2.179,2.223-3.316,3.284a1.14,1.14,0,0,0-.3,1.486,4.984,4.984,0,0,1-3.919,6.832c-.623.092-.8.308-.9.919a4.9,4.9,0,0,1-4.229,4.21c-.614.1-.787.337-.906.934A4.9,4.9,0,0,1,25.244,78.9c-.617.1-.79.331-.9.927a5.031,5.031,0,0,1-6.971,3.885,1.021,1.021,0,0,0-1.309.249c-1.159,1.205-2.336,2.4-3.552,3.542-.522.492-.512.793,0,1.3q6.182,6.111,12.308,12.279c.469.472.745.467,1.2-.006,1.32-1.374,2.77-2.631,4.014-4.068A6.458,6.458,0,0,1,35.8,94.895c.543.037,1.086.081,1.629.121m34.1-1.991a2.825,2.825,0,0,0-.347-.88,18.02,18.02,0,0,0-3.223-3.187,1.81,1.81,0,0,0-2.45.3Q57.7,97.041,49.915,104.845a1.923,1.923,0,0,0-.018,2.906c.768.824,1.572,1.618,2.392,2.392a1.907,1.907,0,0,0,2.984.024q7.782-7.724,15.523-15.488a2.53,2.53,0,0,0,.728-1.652M31.7,68.692a1.845,1.845,0,0,0-.426-1.234c-1.885-1.9-3.751-3.816-5.692-5.654a2.037,2.037,0,0,0-2.846.154,1.973,1.973,0,0,0-.172,2.746c1.859,1.974,3.786,3.886,5.745,5.76a1.87,1.87,0,0,0,2.284.195A2.046,2.046,0,0,0,31.7,68.692m5.158-5.1a1.483,1.483,0,0,0-.95-1.382,11.692,11.692,0,0,1-6.4-6.4,1.319,1.319,0,0,0-1.323-.908,2.012,2.012,0,0,0-1.928,1.07A2.178,2.178,0,0,0,26.3,58.2a1.713,1.713,0,0,0,.29.361c2.192,2.192,4.377,4.393,6.588,6.566a1.99,1.99,0,0,0,2.444.457A2.153,2.153,0,0,0,36.856,63.6M18.311,69.946a1.4,1.4,0,0,0,.334,1.1,47.586,47.586,0,0,0,4.627,4.6,2,2,0,0,0,2.748-.285,2.074,2.074,0,0,0,.16-2.676c-1.459-1.56-2.983-3.062-4.536-4.529a1.858,1.858,0,0,0-2.194-.192,1.969,1.969,0,0,0-1.14,1.989m1,11.223a2.127,2.127,0,0,0,1.9-1.149,1.936,1.936,0,0,0-.074-2.1,9.353,9.353,0,0,0-2.123-2.142,1.93,1.93,0,0,0-2.2-.076,2.033,2.033,0,0,0-1.088,1.922c.034,1.307,2.291,3.532,3.591,3.546m21.2-25.656c-2.8-.489-5.23-.92-7.661-1.333-.722-.123-.78.239-.527.794a9.721,9.721,0,0,0,3.822,4.116.517.517,0,0,0,.726-.055c1.129-1.1,2.263-2.19,3.64-3.521" transform="translate(0 -39.237)" fill="#6a4d23"/>
        <path id="Trazado_875004" data-name="Trazado 875004" d="M240.005,3.124a1.756,1.756,0,0,1-.586,1.324c-1.672,1.667-3.326,3.354-5.014,5a1.453,1.453,0,0,1-2.246.132,1.428,1.428,0,0,1,.12-2.166c1.69-1.7,3.4-3.391,5.092-5.092a1.547,1.547,0,0,1,1.8-.39,1.347,1.347,0,0,1,.83,1.188" transform="translate(-177.631 -1.378)" fill="#6a4d23"/>
        <path id="Trazado_875005" data-name="Trazado 875005" d="M58.671,8.409a1.443,1.443,0,0,1-.814,1.311,1.266,1.266,0,0,1-1.518-.168c-1.885-1.837-3.758-3.688-5.591-5.577a1.267,1.267,0,0,1,.061-1.884,1.339,1.339,0,0,1,1.987-.126c1.883,1.783,3.693,3.644,5.524,5.48a1.526,1.526,0,0,1,.352.963" transform="translate(-38.602 -1.212)" fill="#6a4d23"/>
        <path id="Trazado_875006" data-name="Trazado 875006" d="M155.451,4.7q0,1.51,0,3.019a1.554,1.554,0,0,1-1.46,1.764c-.829.091-1.51-.658-1.526-1.687q-.048-3.076,0-6.154A1.478,1.478,0,0,1,153.917,0c.867-.064,1.492.623,1.526,1.673.032,1.005.007,2.012.007,3.019" transform="translate(-116.86 0)" fill="#6a4d23"/>
        <path id="Trazado_875007" data-name="Trazado 875007" d="M39.927,270.539a1.357,1.357,0,0,1-1.536,1.258,1.319,1.319,0,0,1-1.363-1.416A1.413,1.413,0,0,1,38.5,268.94a1.455,1.455,0,0,1,1.425,1.6" transform="translate(-28.384 -206.166)" fill="#6a4d23"/>
        <path id="Trazado_875008" data-name="Trazado 875008" d="M208.789,210.517a1.446,1.446,0,1,1,.087-2.89,1.364,1.364,0,0,1,1.374,1.427,1.418,1.418,0,0,1-1.461,1.464" transform="translate(-158.951 -159.161)" fill="#6a4d23"/>
      </g>
    </g>
  </g>
</svg>
