<svg xmlns="http://www.w3.org/2000/svg" xmlns:xlink="http://www.w3.org/1999/xlink" width="145" height="145" viewBox="0 0 145 145">
  <defs>
    <clipPath id="clip-path">
      <rect id="Rectángulo_400938" data-name="Rectángulo 400938" width="145" height="145" transform="translate(0 -0.281)" fill="none"/>
    </clipPath>
    <clipPath id="clip-path-2">
      <rect id="Rectángulo_401073" data-name="Rectángulo 401073" width="110.228" height="49.642" fill="#7d3a1b"/>
    </clipPath>
    <clipPath id="clip-path-3">
      <rect id="Rectángulo_402519" data-name="Rectángulo 402519" width="70.981" height="70.897" transform="translate(0 0)" fill="#6a4d23"/>
    </clipPath>
  </defs>
  <g id="img6" transform="translate(-175 -9540.719)">
    <g id="Grupo_1099404" data-name="Grupo 1099404" transform="translate(175 9541)">
      <g id="Grupo_1099379" data-name="Grupo 1099379" transform="translate(0 0)">
        <rect id="Rectángulo_401103" data-name="Rectángulo 401103" width="145" height="145" transform="translate(0 -0.281)" fill="none"/>
        <g id="Grupo_1099348" data-name="Grupo 1099348" transform="translate(0.045 0.045)">
          <g id="Grupo_1099282" data-name="Grupo 1099282">
            <g id="Grupo_1099281" data-name="Grupo 1099281" clip-path="url(#clip-path-2)">
              <path id="Trazado_873375" data-name="Trazado 873375" d="M89.413,10.879c-4.947,0-7.506-2.426-9.765-4.567C77.431,4.213,75.522,2.4,71.529,2.4s-5.9,1.814-8.118,3.913c-2.259,2.141-4.814,4.567-9.765,4.567S46.14,8.453,43.881,6.312C41.664,4.213,39.755,2.4,35.763,2.4s-5.9,1.814-8.114,3.913c-2.259,2.141-4.818,4.567-9.765,4.567s-7.51-2.426-9.769-4.567C5.9,4.213,3.993,2.4,0,2.4V0C4.947,0,7.506,2.43,9.765,4.567c2.217,2.1,4.126,3.913,8.118,3.913S23.785,6.67,26,4.571C28.253,2.43,30.816,0,35.763,0s7.51,2.43,9.765,4.567c2.217,2.1,4.126,3.913,8.118,3.913s5.9-1.81,8.118-3.913C64.019,2.43,66.582,0,71.529,0s7.51,2.43,9.765,4.567c2.217,2.1,4.126,3.913,8.118,3.913s5.9-1.81,8.118-3.913C99.786,2.43,102.345,0,107.3,0V2.4c-3.993,0-5.9,1.814-8.118,3.913-2.259,2.141-4.818,4.567-9.765,4.567" transform="translate(2.932 38.763)" fill="#7d3a1b"/>
              <path id="Trazado_873376" data-name="Trazado 873376" d="M89.413,10.879c-4.947,0-7.51-2.426-9.765-4.571C77.431,4.209,75.522,2.4,71.529,2.4s-5.9,1.81-8.118,3.909c-2.255,2.145-4.814,4.571-9.765,4.571s-7.51-2.426-9.765-4.571C41.664,4.209,39.755,2.4,35.763,2.4s-5.9,1.814-8.115,3.909c-2.259,2.145-4.818,4.571-9.765,4.571s-7.51-2.426-9.769-4.571C5.9,4.209,3.993,2.4,0,2.4V0C4.947,0,7.51,2.426,9.765,4.567c2.217,2.1,4.126,3.913,8.118,3.913S23.785,6.67,26,4.567C28.253,2.426,30.816,0,35.763,0s7.51,2.426,9.769,4.567c2.213,2.1,4.122,3.913,8.115,3.913s5.9-1.81,8.118-3.913C64.019,2.426,66.582,0,71.529,0s7.51,2.426,9.765,4.567c2.217,2.1,4.126,3.913,8.118,3.913s5.9-1.81,8.118-3.913C99.79,2.426,102.349,0,107.3,0V2.4c-3.993,0-5.905,1.814-8.122,3.909-2.259,2.145-4.818,4.571-9.765,4.571" transform="translate(1.955 25.842)" fill="#7d3a1b"/>
              <path id="Trazado_873377" data-name="Trazado 873377" d="M89.412,10.879c-4.947,0-7.51-2.426-9.765-4.571C77.431,4.209,75.522,2.4,71.529,2.4s-5.9,1.81-8.118,3.909c-2.255,2.145-4.818,4.571-9.765,4.571s-7.51-2.426-9.765-4.571C41.664,4.209,39.755,2.4,35.763,2.4s-5.9,1.814-8.115,3.909c-2.259,2.145-4.818,4.571-9.765,4.571s-7.51-2.426-9.769-4.571C5.9,4.209,3.993,2.4,0,2.4V0C4.947,0,7.51,2.426,9.765,4.567c2.213,2.1,4.126,3.913,8.118,3.913S23.785,6.67,26,4.567C28.253,2.426,30.816,0,35.763,0s7.51,2.426,9.769,4.567c2.213,2.1,4.122,3.913,8.115,3.913s5.9-1.81,8.118-3.913C64.019,2.426,66.582,0,71.529,0s7.51,2.426,9.765,4.567c2.217,2.1,4.126,3.913,8.118,3.913s5.9-1.81,8.118-3.913C99.79,2.426,102.345,0,107.3,0V2.4c-3.993,0-5.905,1.814-8.122,3.909-2.259,2.145-4.818,4.571-9.765,4.571" transform="translate(0.977 12.921)" fill="#7d3a1b"/>
              <path id="Trazado_873378" data-name="Trazado 873378" d="M89.413,10.875c-4.947,0-7.506-2.426-9.765-4.567C77.431,4.209,75.522,2.4,71.529,2.4s-5.9,1.81-8.115,3.909c-2.259,2.141-4.818,4.567-9.769,4.567S46.14,8.449,43.881,6.308C41.664,4.209,39.755,2.4,35.763,2.4s-5.9,1.81-8.115,3.905c-2.255,2.145-4.818,4.571-9.765,4.571s-7.51-2.426-9.769-4.567C5.9,4.209,3.993,2.4,0,2.4V0C4.947,0,7.51,2.426,9.765,4.567c2.217,2.1,4.126,3.909,8.118,3.909s5.9-1.81,8.115-3.909C28.257,2.426,30.816,0,35.763,0s7.506,2.426,9.769,4.567c2.213,2.1,4.122,3.909,8.115,3.909s5.9-1.81,8.118-3.909C64.023,2.426,66.582,0,71.529,0s7.506,2.426,9.765,4.567c2.217,2.1,4.126,3.909,8.118,3.909s5.9-1.81,8.118-3.909C99.79,2.426,102.349,0,107.3,0V2.4c-4,0-5.905,1.81-8.122,3.909-2.259,2.141-4.818,4.567-9.765,4.567" transform="translate(0 0.004)" fill="#7d3a1b"/>
            </g>
          </g>
        </g>
        <path id="Trazado_873425" data-name="Trazado 873425" d="M60.362,0A60.362,60.362,0,1,1,0,60.362,60.362,60.362,0,0,1,60.362,0Z" transform="translate(17.974 21.56)" fill="#efb499"/>
        <circle id="Elipse_11503" data-name="Elipse 11503" cx="63" cy="63" r="63" transform="translate(9 9.719)" fill="#fef7eb"/>
      </g>
    </g>
    <g id="Grupo_1099405" data-name="Grupo 1099405" transform="translate(206.234 9571.193)">
      <g id="Grupo_1099389" data-name="Grupo 1099389" transform="translate(0 0)">
        <rect id="Rectángulo_401104" data-name="Rectángulo 401104" width="81" height="83" transform="translate(-0.234 -0.475)" fill="none"/>
      </g>
      <g id="Grupo_1100676" data-name="Grupo 1100676" transform="translate(4.775 5.576)">
        <g id="Grupo_1100675" data-name="Grupo 1100675" transform="translate(0 0.001)" clip-path="url(#clip-path-3)">
          <path id="Trazado_875009" data-name="Trazado 875009" d="M35.536,128.974H3.2c-2.293,0-3.061-.767-3.062-3.054q0-5.315,0-10.631c0-1.977.855-2.829,2.806-2.882.99-.027,2.275.42,2.893-.182.674-.657.215-1.964.217-2.983.02-8.527.078-17.055-.025-25.581-.036-2.975,1.828-4.468,4.419-4.368,3.649.142,7.308.019,10.962.049.778.006,1.164-.07,1.175-1.04A3.5,3.5,0,0,1,26.4,74.622q9.191-.029,18.383,0A3.5,3.5,0,0,1,48.6,78.3c.012.969.4,1.046,1.175,1.04,3.654-.03,7.313.092,10.962-.049,2.607-.1,4.45,1.4,4.418,4.368-.1,9.153-.022,18.309-.056,27.463,0,.975.2,1.434,1.261,1.3a13.416,13.416,0,0,1,2.1-.01,2.4,2.4,0,0,1,2.581,2.652q.021,5.537,0,11.074c0,1.975-.859,2.828-2.842,2.829q-16.334.006-32.669,0M24.973,94.935c0,5.461.019,10.922-.02,16.383-.006.871.234,1.117,1.106,1.112q9.52-.053,19.04,0c.965.007,1.134-.323,1.131-1.2q-.043-16.217-.02-32.434c0-1.516-.3-1.824-1.8-1.826q-8.8-.009-17.6,0c-1.521,0-1.83.309-1.831,1.8q-.006,8.081,0,16.162m10.6,19.854H3.675c-.572,0-1.169-.167-1.155.819.048,3.4.027,6.793.011,10.19,0,.556.154.8.75.783,1.07-.035,2.142-.034,3.212,0,.585.019.769-.2.755-.772-.032-1.365-.021-2.732,0-4.1.006-.534-.008-.969-.626-1.236a1.024,1.024,0,0,1-.467-1.341,1.045,1.045,0,0,1,1.085-.78q4.708-.014,9.415,0a1.131,1.131,0,0,1,1.156.859,1.042,1.042,0,0,1-.557,1.311.89.89,0,0,0-.555.951c.02,1.44.023,2.88,0,4.32-.009.544.136.8.74.792q5.151-.032,10.3,0c.577,0,.769-.2.76-.771-.028-1.809-.038-3.619,0-5.427.016-.688-.219-.924-.888-.877-.806.056-1.431-.274-1.442-1.148-.011-.962.683-1.19,1.517-1.189q7.92.009,15.84,0c.789,0,1.457.221,1.485,1.111.03.94-.619,1.288-1.473,1.225-.712-.053-.865.267-.853.911.035,1.771.031,3.545,0,5.316-.01.6.137.857.794.852q5.1-.039,10.19,0c.629,0,.836-.205.821-.827-.034-1.439-.017-2.88-.007-4.32a.8.8,0,0,0-.485-.879,1.066,1.066,0,0,1-.615-1.38,1.2,1.2,0,0,1,1.288-.838q4.541.01,9.083,0a1.15,1.15,0,0,1,1.284.822,1.078,1.078,0,0,1-.594,1.392.774.774,0,0,0-.507.855c.016,1.477.03,2.954,0,4.43-.014.609.245.753.789.737.959-.028,1.923-.058,2.878.009.823.058,1.074-.207,1.062-1.045-.047-3.212-.057-6.425,0-9.636.018-.96-.308-1.14-1.193-1.137q-15.95.044-31.9.019M22.551,97.131c0-4.76-.016-9.52.016-14.279.005-.809-.13-1.16-1.065-1.147-3.8.057-7.6.017-11.4.027-1.379,0-1.685.314-1.686,1.714-.006,9.3.01,18.6-.024,27.894,0,.916.317,1.093,1.145,1.086,3.984-.036,7.97-.046,11.954.006.916.012,1.084-.3,1.078-1.134-.035-4.722-.017-9.445-.017-14.168m26.084-.175c0,4.759.021,9.519-.019,14.278-.007.873.155,1.214,1.127,1.2q5.976-.085,11.954,0c.905.011,1.1-.3,1.094-1.137-.026-9.261-.014-18.522-.019-27.783,0-1.5-.292-1.778-1.844-1.781-3.727-.006-7.454.033-11.179-.025-.964-.015-1.141.312-1.133,1.193.041,4.685.02,9.371.02,14.057M14.322,123.762c0-.735-.027-1.472.008-2.205.029-.586-.122-.882-.784-.855-1.064.042-2.132.036-3.2,0-.592-.019-.762.227-.748.781.028,1.065.007,2.132.007,3.2,0,1.89,0,1.89,1.938,1.89,2.776,0,2.776,0,2.776-2.81m47.255-.107c0-.7-.025-1.4.008-2.095.027-.579-.115-.887-.783-.859-1.064.044-2.132.035-3.2,0-.585-.017-.766.214-.749.777.032,1.1.009,2.205.008,3.308,0,1.783,0,1.783,1.818,1.783,2.9,0,2.9,0,2.895-2.917m-30.666-.665c0,.959.031,1.918-.009,2.875s.692.787,1.131.675c.8-.2,2.153.777,2.326-.675a47.793,47.793,0,0,0,.053-5.634c0-.347-.016-.707-.487-.7-.951.012-2.052-.342-2.807.155-.572.377-.145,1.443-.205,2.2-.029.366-.005.737,0,1.105m9.365.035c0-.922-.039-1.845.012-2.764.045-.824-.508-.873-.995-.722-.832.258-2.257-.8-2.456.667a45.779,45.779,0,0,0-.068,5.742c-.005.6.365.707.79.61.9-.205,1.955.554,2.7-.445.089-.12.02-.36.02-.544q0-1.272,0-2.544" transform="translate(-0.106 -58.077)" fill="#6a4d23"/>
          <path id="Trazado_875010" data-name="Trazado 875010" d="M142.161,5.919A2.515,2.515,0,0,1,141.075,8a2.382,2.382,0,0,0-.892,2.887,2.366,2.366,0,0,1-.9,2.838,2.29,2.29,0,0,1-2.881-.065,2.1,2.1,0,0,0-2.788.029,2.244,2.244,0,0,1-2.876.007,2.35,2.35,0,0,1-.866-2.754,2.45,2.45,0,0,0-.91-2.985,2.364,2.364,0,0,1-.951-2.739,2.432,2.432,0,0,1,2.439-1.728A2.1,2.1,0,0,0,132.633,1.9,2.423,2.423,0,0,1,135.059,0,2.335,2.335,0,0,1,137.4,1.847c.37,1.358,1.349,1.541,2.484,1.677a2.384,2.384,0,0,1,2.275,2.394M132.287,11.8c1.84-1.662,3.645-1.675,5.362-.086a1.19,1.19,0,0,0,.061-1.118,3.166,3.166,0,0,1,1.267-3.855c.231-.174.668-.378.491-.749-.152-.318-.592-.242-.914-.253A2.779,2.779,0,0,1,135.61,3.6a1.376,1.376,0,0,0-.777-1.025c-.459,2.4-1.985,3.422-4.567,3.175a16.445,16.445,0,0,1,2.179,2.613c.507.979-.327,2.058-.158,3.438" transform="translate(-99.546 -0.001)" fill="#6a4d23"/>
          <path id="Trazado_875011" data-name="Trazado 875011" d="M65.041,10.708a2.341,2.341,0,0,1,2.523,1.621,1.985,1.985,0,0,0,2,1.516,2.244,2.244,0,0,1,2.19,1.573,2.191,2.191,0,0,1-.8,2.572,2.419,2.419,0,0,0-.807,2.831,2.179,2.179,0,0,1-.892,2.433,2.114,2.114,0,0,1-2.586.018,1.986,1.986,0,0,0-2.591.006,2.121,2.121,0,0,1-2.674-.09,2.163,2.163,0,0,1-.785-2.469,2.245,2.245,0,0,0-.8-2.709,2.264,2.264,0,0,1-.77-2.683,2.182,2.182,0,0,1,2.138-1.474,1.97,1.97,0,0,0,2-1.512,2.094,2.094,0,0,1,1.857-1.634m2.742,10.616a16.545,16.545,0,0,1-.3-2.687c.055-.918.988-1.325,1.489-1.991.407-.541-.079-.559-.38-.553a2.788,2.788,0,0,1-2.943-2.286.381.381,0,0,0-.459-.332c-.435,1.368-1.028,2.668-2.852,2.6-.229-.009-.58-.071-.67.241-.083.287.209.462.4.607a2.7,2.7,0,0,1,1.053,3.3.965.965,0,0,0,.068.927q2.185-2.038,4.6.18" transform="translate(-45.843 -8.335)" fill="#6a4d23"/>
          <path id="Trazado_875012" data-name="Trazado 875012" d="M206.949,23.685a2.194,2.194,0,0,1-2.438-2.607,2.918,2.918,0,0,0-1.013-3.295,2.02,2.02,0,0,1-.579-2.326,2.12,2.12,0,0,1,1.968-1.541,2.309,2.309,0,0,0,2.317-1.749,2.033,2.033,0,0,1,2.037-1.417,2.063,2.063,0,0,1,2.142,1.425,2.323,2.323,0,0,0,2.316,1.741,2.045,2.045,0,0,1,1.923,1.438,2.163,2.163,0,0,1-.613,2.525,2.544,2.544,0,0,0-.917,3.092,2.054,2.054,0,0,1-.831,2.251,1.9,1.9,0,0,1-2.272.267,2.586,2.586,0,0,0-3.388.021,1.43,1.43,0,0,1-.652.174m2.23-10.444c-.475,1.9-1.37,2.938-3.2,2.9-.707-.013-.464.445-.14.677,1.472,1.052,1.568,2.44,1.068,4.005-.023.071.051.173.136.435,1.474-1.476,3.005-1.315,4.629-.161-.55-1.8-.4-3.22,1.108-4.352.667-.5.011-.628-.38-.636a2.581,2.581,0,0,1-2.733-2.061,4.624,4.624,0,0,0-.488-.811" transform="translate(-157.847 -8.368)" fill="#6a4d23"/>
          <path id="Trazado_875013" data-name="Trazado 875013" d="M277.082,41.381c.009,1.948-1.625,3-3.163,2.122a2.057,2.057,0,0,0-2.484.017,1.915,1.915,0,0,1-2.289-.114,2,2,0,0,1-.826-2.237,2.4,2.4,0,0,0-.763-2.55,2.1,2.1,0,0,1,1.224-3.759,2.062,2.062,0,0,0,1.9-1.463,1.958,1.958,0,0,1,1.949-1.374,1.915,1.915,0,0,1,2,1.3,2.241,2.241,0,0,0,2.088,1.569,2.033,2.033,0,0,1,1.356,3.407c-.938,1.01-1.51,1.947-.991,3.087m-2.2-.184c-1.076-1.854-.165-2.952,1.231-4.128-1.888.093-2.954-.608-3.443-2.245-.406,1.712-1.6,2.254-3.471,2.318a3.033,3.033,0,0,1,1.516,3.96c1.994-.794,1.994-.794,4.167.094" transform="translate(-207.651 -24.927)" fill="#6a4d23"/>
          <path id="Trazado_875014" data-name="Trazado 875014" d="M1.551,41.346c.525-1.152-.1-2.075-1.025-3.076a2.013,2.013,0,0,1,1.208-3.336A2.528,2.528,0,0,0,4.07,33.192a1.82,1.82,0,0,1,1.853-1.161,1.868,1.868,0,0,1,1.928,1.221A2.333,2.333,0,0,0,9.993,34.9a2.085,2.085,0,0,1,1.115,3.682,2.492,2.492,0,0,0-.8,2.64,1.966,1.966,0,0,1-.776,2.153,1.88,1.88,0,0,1-2.279.175,2.3,2.3,0,0,0-2.689.017c-1.5.791-3.044-.311-3.01-2.22m2.48-.2a2.894,2.894,0,0,1,3.876,0c-.743-1.735,0-2.891,1.467-4.064-1.916.086-2.969-.649-3.453-2.268-.405,1.709-1.569,2.29-3.5,2.318,1.749,1.1,2.129,2.369,1.607,4.017" transform="translate(0 -24.934)" fill="#6a4d23"/>
          <path id="Trazado_875015" data-name="Trazado 875015" d="M126.294,107.908a5.2,5.2,0,0,1-2.175-.229c-1.859-.941-1.257-2.694-1.346-4.208a2.2,2.2,0,0,1,1.491-2.441,6.5,6.5,0,0,1,4.119.008c1.227.415,1.526,1.494,1.487,2.682-.048,1.47.363,3.114-1.4,3.971a5.417,5.417,0,0,1-2.178.217m.1-4.672c-.889-.172-1.347.019-1.315,1.094.028.929.2,1.308,1.22,1.259.823-.04,1.3-.1,1.223-1.116-.062-.791.036-1.546-1.128-1.237" transform="translate(-95.55 -78.387)" fill="#6a4d23"/>
          <path id="Trazado_875016" data-name="Trazado 875016" d="M168.942,155.918a5.887,5.887,0,0,1-2.118-.187c-1.824-.867-1.382-2.557-1.433-4.059a2.35,2.35,0,0,1,1.547-2.64,6.721,6.721,0,0,1,4.02,0,2.252,2.252,0,0,1,1.531,2.528c-.084,1.52.483,3.274-1.413,4.168a6.157,6.157,0,0,1-2.134.188m-1.148-3.625c-.145.852-.048,1.417,1.069,1.336.818-.059,1.406-.033,1.313-1.147-.067-.8,0-1.431-1.138-1.29-.752.094-1.566-.09-1.243,1.1" transform="translate(-128.735 -115.772)" fill="#6a4d23"/>
          <path id="Trazado_875017" data-name="Trazado 875017" d="M125.868,156.169c-.441,0-.884.022-1.324-.008a2.587,2.587,0,0,1-.851-.18c-1.357-.592-1.834-2.4-1.332-4.959a2.49,2.49,0,0,1,2.6-1.933c3.866-.116,4.47.426,4.457,4-.009,2.489-.7,3.089-3.55,3.078m.029-4.649c-.935-.206-1.306.089-1.272,1.115.03.9.162,1.3,1.2,1.276.922-.026,1.3-.189,1.25-1.209-.041-.877-.1-1.467-1.177-1.182" transform="translate(-95.097 -116.045)" fill="#6a4d23"/>
          <path id="Trazado_875018" data-name="Trazado 875018" d="M172,104.655a5.8,5.8,0,0,1-.206,2.068,2.359,2.359,0,0,1-2.512,1.411c-1.484-.083-3.3.529-4.1-1.314a5.644,5.644,0,0,1,0-4.421c.751-1.75,2.495-1.347,3.975-1.375a2.563,2.563,0,0,1,2.621,1.456,6,6,0,0,1,.219,2.174m-3.514-1.18c-.961-.221-1.258.134-1.26,1.132s.286,1.243,1.245,1.22c.873-.021,1.232-.2,1.206-1.157-.024-.886-.112-1.475-1.191-1.2" transform="translate(-128.233 -78.624)" fill="#6a4d23"/>
          <path id="Trazado_875019" data-name="Trazado 875019" d="M126.279,203.862a5.217,5.217,0,0,1-2.268-.286c-1.141-.652-1.265-1.705-1.227-2.857.045-1.337-.327-2.9,1.24-3.6a5.8,5.8,0,0,1,4.61-.008c1.3.542,1.278,1.835,1.263,3.043-.016,1.288.14,2.619-1.241,3.414a5.441,5.441,0,0,1-2.378.29m1.194-3.554c.338-1.014-.192-1.177-1.123-1.2s-1.28.2-1.253,1.21c.025.923.189,1.292,1.215,1.263.936-.026,1.426-.2,1.161-1.274" transform="translate(-95.572 -153.071)" fill="#6a4d23"/>
          <path id="Trazado_875020" data-name="Trazado 875020" d="M168.974,203.892a6.365,6.365,0,0,1-2.076-.158,2.6,2.6,0,0,1-1.512-2.8c.046-1.483-.343-3.213,1.482-3.9a6.4,6.4,0,0,1,4.128-.018c1.209.377,1.562,1.445,1.5,2.662-.075,1.5.4,3.194-1.452,4.041a5.943,5.943,0,0,1-2.072.174m-.034-2.345c1.019.246,1.235-.216,1.244-1.169s-.233-1.249-1.224-1.245c-.97,0-1.259.247-1.226,1.23.031.9.148,1.459,1.205,1.184" transform="translate(-128.736 -153.103)" fill="#6a4d23"/>
          <path id="Trazado_875021" data-name="Trazado 875021" d="M52.767,167c-.773,0-1.547.025-2.319-.007a2.384,2.384,0,0,1-2.4-2.374c-.036-.771-.033-1.547,0-2.318a2.34,2.34,0,0,1,2.369-2.4c1.582-.043,3.166-.025,4.748,0a2.618,2.618,0,0,1,1.06.257c1.264.61,1.776,2.687,1.243,4.907A2.459,2.459,0,0,1,54.755,167c-.663.006-1.325,0-1.988,0m-.01-2.423c.589,0,1.178,0,1.767,0,1.011.005.555-.764.588-1.208s.3-1.1-.613-1.082c-1.141.027-2.282.006-3.424.007-.308,0-.537.03-.624.436-.3,1.426,0,1.846,1.422,1.847.295,0,.589,0,.884,0" transform="translate(-37.378 -124.457)" fill="#6a4d23"/>
          <path id="Trazado_875022" data-name="Trazado 875022" d="M52.733,124.281c-.736,0-1.472.014-2.208,0a2.349,2.349,0,0,1-2.481-2.493c-.02-.735-.031-1.473,0-2.207a2.319,2.319,0,0,1,2.3-2.351c1.617-.061,3.237-.015,4.856-.013a1.848,1.848,0,0,1,.328.039c1.657.308,2.226,1.623,2.006,4.632a2.369,2.369,0,0,1-2.487,2.393c-.772.018-1.545,0-2.318,0m.112-4.709h-.774c-1.791,0-1.773,0-1.619,1.767.04.466.189.65.66.642,1.142-.019,2.284-.008,3.426-.006.315,0,.53-.043.61-.447.31-1.559.019-1.955-1.53-1.955h-.774" transform="translate(-37.385 -91.229)" fill="#6a4d23"/>
          <path id="Trazado_875023" data-name="Trazado 875023" d="M52.7,202.613c.7,0,1.4-.008,2.1,0a3.566,3.566,0,0,1,.875.084c1.454.4,1.98,1.808,1.747,4.622a2.32,2.32,0,0,1-2.2,2.343c-1.687.09-3.383.026-5.074.023a1.56,1.56,0,0,1-.325-.061c-1.619-.361-2.12-1.6-1.894-4.7a2.376,2.376,0,0,1,2.457-2.313c.772-.025,1.545,0,2.318-.005m.03,4.723a9.044,9.044,0,0,1,1.318.011c.9.133,1.056-.315.985-1.072-.061-.65.244-1.457-.957-1.336a15.03,15.03,0,0,1-2.636,0c-.852-.065-1.107.206-1.133,1.087-.031,1.047.241,1.5,1.325,1.318a6.848,6.848,0,0,1,1.1-.01" transform="translate(-37.268 -157.713)" fill="#6a4d23"/>
          <path id="Trazado_875024" data-name="Trazado 875024" d="M234.079,159.914c.81,0,1.621-.033,2.429.009a2.342,2.342,0,0,1,2.324,2.329,23.546,23.546,0,0,1,0,2.428A2.347,2.347,0,0,1,236.495,167c-1.581.049-3.167.057-4.748,0-1.807-.063-2.418-1.135-2.407-4.049.008-1.951.8-2.964,2.42-3.036.771-.034,1.546-.006,2.319-.005m.016,2.4a13.922,13.922,0,0,1-1.545-.01c-1-.113-.818.58-.8,1.138.015.527-.268,1.241.766,1.17a18.03,18.03,0,0,1,2.759,0c.906.077,1.2-.2,1.183-1.139-.016-.878-.185-1.316-1.147-1.174a8.49,8.49,0,0,1-1.214.01" transform="translate(-178.524 -124.472)" fill="#6a4d23"/>
          <path id="Trazado_875025" data-name="Trazado 875025" d="M233.974,124.186c-.773,0-1.546.02-2.318,0a2.332,2.332,0,0,1-2.353-2.052,4.164,4.164,0,0,1-.036-.55c-.122-3.356.088-4.715,4.313-4.479.917.051,1.841-.021,2.759.019a2.371,2.371,0,0,1,2.423,2.464c.026.772.038,1.547-.006,2.317a2.3,2.3,0,0,1-2.354,2.278c-.809.027-1.619,0-2.428.005m-.089-2.3h.884c1.692,0,1.657,0,1.593-1.7-.023-.625-.286-.725-.81-.71a23.321,23.321,0,0,1-2.761-.011c-.933-.085-1.16.245-1.161,1.154,0,.968.2,1.454,1.261,1.276a6.033,6.033,0,0,1,.993-.008" transform="translate(-178.449 -91.136)" fill="#6a4d23"/>
          <path id="Trazado_875026" data-name="Trazado 875026" d="M233.991,209.686c-.589,0-1.177,0-1.766,0a6.163,6.163,0,0,1-.771-.03c-1.808-.242-2.37-1.412-2.2-4.568a2.4,2.4,0,0,1,2.513-2.494c1.508-.029,3.018-.031,4.525,0a2.353,2.353,0,0,1,2.456,2.42c.027.7.02,1.4,0,2.1a2.387,2.387,0,0,1-2.44,2.563c-.77.044-1.545.008-2.317.008Zm-.043-2.379c.55,0,1.1-.04,1.649.009.832.075.807-.486.715-.987s.49-1.379-.641-1.4-2.273,0-3.409,0c-.307,0-.532.035-.617.438-.32,1.521-.007,1.939,1.533,1.939h.77" transform="translate(-178.433 -157.685)" fill="#6a4d23"/>
        </g>
      </g>
    </g>
  </g>
</svg>
