<svg xmlns="http://www.w3.org/2000/svg" xmlns:xlink="http://www.w3.org/1999/xlink" width="145" height="145" viewBox="0 0 145 145">
  <defs>
    <clipPath id="clip-path">
      <rect id="Rectángulo_400938" data-name="Rectángulo 400938" width="145" height="145" transform="translate(0 -0.281)" fill="none"/>
    </clipPath>
    <clipPath id="clip-path-2">
      <rect id="Rectángulo_401073" data-name="Rectángulo 401073" width="110.228" height="49.642" fill="#7d3a1b"/>
    </clipPath>
    <clipPath id="clip-path-3">
      <rect id="Rectángulo_402520" data-name="Rectángulo 402520" width="70.871" height="70.822" fill="#6a4d23"/>
    </clipPath>
  </defs>
  <g id="img7" transform="translate(-175 -9540.719)">
    <g id="Grupo_1099404" data-name="Grupo 1099404" transform="translate(175 9541)">
      <g id="Grupo_1099379" data-name="Grupo 1099379" transform="translate(0 0)">
        <rect id="Rectángulo_401103" data-name="Rectángulo 401103" width="145" height="145" transform="translate(0 -0.281)" fill="none"/>
        <g id="Grupo_1099348" data-name="Grupo 1099348" transform="translate(0.045 0.045)">
          <g id="Grupo_1099282" data-name="Grupo 1099282">
            <g id="Grupo_1099281" data-name="Grupo 1099281" clip-path="url(#clip-path-2)">
              <path id="Trazado_873375" data-name="Trazado 873375" d="M89.413,10.879c-4.947,0-7.506-2.426-9.765-4.567C77.431,4.213,75.522,2.4,71.529,2.4s-5.9,1.814-8.118,3.913c-2.259,2.141-4.814,4.567-9.765,4.567S46.14,8.453,43.881,6.312C41.664,4.213,39.755,2.4,35.763,2.4s-5.9,1.814-8.114,3.913c-2.259,2.141-4.818,4.567-9.765,4.567s-7.51-2.426-9.769-4.567C5.9,4.213,3.993,2.4,0,2.4V0C4.947,0,7.506,2.43,9.765,4.567c2.217,2.1,4.126,3.913,8.118,3.913S23.785,6.67,26,4.571C28.253,2.43,30.816,0,35.763,0s7.51,2.43,9.765,4.567c2.217,2.1,4.126,3.913,8.118,3.913s5.9-1.81,8.118-3.913C64.019,2.43,66.582,0,71.529,0s7.51,2.43,9.765,4.567c2.217,2.1,4.126,3.913,8.118,3.913s5.9-1.81,8.118-3.913C99.786,2.43,102.345,0,107.3,0V2.4c-3.993,0-5.9,1.814-8.118,3.913-2.259,2.141-4.818,4.567-9.765,4.567" transform="translate(2.932 38.763)" fill="#7d3a1b"/>
              <path id="Trazado_873376" data-name="Trazado 873376" d="M89.413,10.879c-4.947,0-7.51-2.426-9.765-4.571C77.431,4.209,75.522,2.4,71.529,2.4s-5.9,1.81-8.118,3.909c-2.255,2.145-4.814,4.571-9.765,4.571s-7.51-2.426-9.765-4.571C41.664,4.209,39.755,2.4,35.763,2.4s-5.9,1.814-8.115,3.909c-2.259,2.145-4.818,4.571-9.765,4.571s-7.51-2.426-9.769-4.571C5.9,4.209,3.993,2.4,0,2.4V0C4.947,0,7.51,2.426,9.765,4.567c2.217,2.1,4.126,3.913,8.118,3.913S23.785,6.67,26,4.567C28.253,2.426,30.816,0,35.763,0s7.51,2.426,9.769,4.567c2.213,2.1,4.122,3.913,8.115,3.913s5.9-1.81,8.118-3.913C64.019,2.426,66.582,0,71.529,0s7.51,2.426,9.765,4.567c2.217,2.1,4.126,3.913,8.118,3.913s5.9-1.81,8.118-3.913C99.79,2.426,102.349,0,107.3,0V2.4c-3.993,0-5.905,1.814-8.122,3.909-2.259,2.145-4.818,4.571-9.765,4.571" transform="translate(1.955 25.842)" fill="#7d3a1b"/>
              <path id="Trazado_873377" data-name="Trazado 873377" d="M89.412,10.879c-4.947,0-7.51-2.426-9.765-4.571C77.431,4.209,75.522,2.4,71.529,2.4s-5.9,1.81-8.118,3.909c-2.255,2.145-4.818,4.571-9.765,4.571s-7.51-2.426-9.765-4.571C41.664,4.209,39.755,2.4,35.763,2.4s-5.9,1.814-8.115,3.909c-2.259,2.145-4.818,4.571-9.765,4.571s-7.51-2.426-9.769-4.571C5.9,4.209,3.993,2.4,0,2.4V0C4.947,0,7.51,2.426,9.765,4.567c2.213,2.1,4.126,3.913,8.118,3.913S23.785,6.67,26,4.567C28.253,2.426,30.816,0,35.763,0s7.51,2.426,9.769,4.567c2.213,2.1,4.122,3.913,8.115,3.913s5.9-1.81,8.118-3.913C64.019,2.426,66.582,0,71.529,0s7.51,2.426,9.765,4.567c2.217,2.1,4.126,3.913,8.118,3.913s5.9-1.81,8.118-3.913C99.79,2.426,102.345,0,107.3,0V2.4c-3.993,0-5.905,1.814-8.122,3.909-2.259,2.145-4.818,4.571-9.765,4.571" transform="translate(0.977 12.921)" fill="#7d3a1b"/>
              <path id="Trazado_873378" data-name="Trazado 873378" d="M89.413,10.875c-4.947,0-7.506-2.426-9.765-4.567C77.431,4.209,75.522,2.4,71.529,2.4s-5.9,1.81-8.115,3.909c-2.259,2.141-4.818,4.567-9.769,4.567S46.14,8.449,43.881,6.308C41.664,4.209,39.755,2.4,35.763,2.4s-5.9,1.81-8.115,3.905c-2.255,2.145-4.818,4.571-9.765,4.571s-7.51-2.426-9.769-4.567C5.9,4.209,3.993,2.4,0,2.4V0C4.947,0,7.51,2.426,9.765,4.567c2.217,2.1,4.126,3.909,8.118,3.909s5.9-1.81,8.115-3.909C28.257,2.426,30.816,0,35.763,0s7.506,2.426,9.769,4.567c2.213,2.1,4.122,3.909,8.115,3.909s5.9-1.81,8.118-3.909C64.023,2.426,66.582,0,71.529,0s7.506,2.426,9.765,4.567c2.217,2.1,4.126,3.909,8.118,3.909s5.9-1.81,8.118-3.909C99.79,2.426,102.349,0,107.3,0V2.4c-4,0-5.905,1.81-8.122,3.909-2.259,2.141-4.818,4.567-9.765,4.567" transform="translate(0 0.004)" fill="#7d3a1b"/>
            </g>
          </g>
        </g>
        <path id="Trazado_873425" data-name="Trazado 873425" d="M60.362,0A60.362,60.362,0,1,1,0,60.362,60.362,60.362,0,0,1,60.362,0Z" transform="translate(17.974 21.56)" fill="#efb499"/>
        <circle id="Elipse_11503" data-name="Elipse 11503" cx="63" cy="63" r="63" transform="translate(9 9.719)" fill="#fef7eb"/>
      </g>
    </g>
    <g id="Grupo_1100678" data-name="Grupo 1100678" transform="translate(212.064 9577.808)">
      <g id="Grupo_1100677" data-name="Grupo 1100677" clip-path="url(#clip-path-3)">
        <path id="Trazado_875027" data-name="Trazado 875027" d="M84.294,40.14c.081.252.277.532.224.752-.355,1.467.789,1.568,1.668,1.795,4.321,1.114,8.1.086,10.986-3.318s3.263-7.3,1.487-11.383c-.361-.83-1.064-1.747.174-2.311,1.219-.556,1.55.595,1.922,1.379a12.782,12.782,0,0,1-9.05,18.053c-1.03.2-1.293.578-1.218,1.617.227,3.135.3,6.281.229,9.527.679-.326.648-.855.663-1.361a13.557,13.557,0,0,1,.834-4.446c1.5-3.951,4.558-5.8,8.608-6.2a21.09,21.09,0,0,1,6.773.524c.7.16,1.338.4,1.466,1.208s-.375,1.245-1.043,1.559A8.593,8.593,0,0,0,105,50.4c-1.009,1.326-1.928,2.72-3.065,3.95a8.565,8.565,0,0,1-8.074,2.9.969.969,0,0,0-1.167.589,16.59,16.59,0,0,0-1.7,5.268c-.111.613.064.959.757.863.112-.016.228.01.341,0,3.254-.376,5.609,1.633,5.285,5.509a2.615,2.615,0,0,1-2.538,2.677q-5.231.082-10.465,0a2.523,2.523,0,0,1-2.509-2.572,6.031,6.031,0,0,1,.569-3.533,4.5,4.5,0,0,1,4.7-2.069c1,.1,1.265-.266,1.05-1.217a17.4,17.4,0,0,0-1.664-4.927c-.247-.432-.475-.7-1.054-.6-3.768.659-6.646-.863-8.93-3.745C75.6,52.3,74.719,51.06,73.8,49.853A7.465,7.465,0,0,0,71,47.417a1.286,1.286,0,0,1-.856-1.336,1.27,1.27,0,0,1,1.046-1.2c3.284-.77,6.587-1.135,9.876-.1,3.735,1.178,5.753,3.883,6.477,7.633.171.888.208,1.8.3,2.705.039.362-.01.767.563.962,0-1.775.026-3.5-.008-5.217-.029-1.478-.13-2.954-.189-4.432-.027-.672-.192-1.1-1.018-1.183a9.612,9.612,0,0,1-2.839-.766c-.7-.3-1.286-.687-2.18-.16-.866.51-1.5-.391-1.922-2.588-.2-1.043.15-1.59,1.134-1.634.945-.043,1.894,0,2.841.013l.066.024m20.764,6.67c-4.84-1.693-10.3,1.121-10.936,5.66.355-.258.644-.482.945-.685,1.13-.761,2.261-1.522,3.4-2.271a1.083,1.083,0,0,1,1.68.269c.474.732.141,1.288-.524,1.706-.609.383-1.237.739-1.825,1.152a11.808,11.808,0,0,0-2.783,2.326,6.061,6.061,0,0,0,5.423-2.383c1.638-1.833,2.854-4,4.621-5.774M85.118,52.531C84.408,47.9,78.87,45.059,74.244,46.8c.776.976,1.564,1.939,2.319,2.927a26.757,26.757,0,0,0,2.864,3.524,6.29,6.29,0,0,0,4.98,1.773c-.451-.4-.719-.649-.995-.887a25.534,25.534,0,0,0-3.729-2.591c-.666-.394-1.085-.922-.662-1.674.449-.8,1.112-.731,1.846-.294a38.393,38.393,0,0,1,4.251,2.959m4.441,17.353c1.55,0,3.1,0,4.65,0,.33,0,.677.051.844-.382a2.359,2.359,0,0,0-2.216-3.241c-2.041-.017-4.083-.008-6.124,0-1.963,0-2.6.713-2.586,2.688.006.769.3.971,1.009.952,1.473-.038,2.948-.011,4.423-.012" transform="translate(-54.177 -19.719)" fill="#6a4d23"/>
        <path id="Trazado_875028" data-name="Trazado 875028" d="M9.863,100.8A4.712,4.712,0,0,1,13.3,99.116a3.965,3.965,0,0,1,3.046,1.286,56.8,56.8,0,0,0,7.251,6.712,8.269,8.269,0,0,1,3.232,6.707c.044,2.881.041,5.763.015,8.644-.007.8.078,1.224,1.087,1.206a2.645,2.645,0,0,1,2.915,2.885c.031,1.023.048,2.048.014,3.071a2.646,2.646,0,0,1-2.739,2.733q-8.586.125-17.173.175a2.742,2.742,0,0,1-2.975-2.887c-.046-.984-.047-1.972-.026-2.957a2.785,2.785,0,0,1,2.929-2.933c.438-.024,1.12.313,1.273-.332a1.9,1.9,0,0,0-.477-1.972c-2.878-2.8-5.648-5.717-8.555-8.487a9.778,9.778,0,0,1-3.1-8.056C.331,98.058.442,91.2.641,84.337a4.411,4.411,0,0,1,6.052-4.092,5.165,5.165,0,0,1,2.772,3.68A13.582,13.582,0,0,1,9.9,87.75q-.023,5.573-.04,11.146c0,.526,0,1.053,0,1.9M2.3,105.5a6.97,6.97,0,0,0,2.124,5.523c2.9,2.836,5.707,5.76,8.625,8.572.989.954,1.7,1.9,1.446,3.335-.113.648.192.841.828.831q4.206-.066,8.413-.05c.668,0,.838-.26.832-.875-.027-3.069,0-6.139-.042-9.208a5.718,5.718,0,0,0-2.177-4.546,66.056,66.056,0,0,1-7.28-6.68c-.988-1.1-2.139-1.3-2.95-.533s-.767,1.792.281,2.886c1.44,1.505,2.937,2.956,4.411,4.429.548.548.793,1.166.188,1.788s-1.24.413-1.79-.137c-1.633-1.635-3.274-3.262-4.883-4.921a9.618,9.618,0,0,1-2.794-7.417c.14-3.633.066-7.275.069-10.913a8.8,8.8,0,0,0-.7-3.991,1.946,1.946,0,0,0-2.246-1.319,2.062,2.062,0,0,0-1.716,2.206C2.919,88.11,2.4,102.127,2.3,105.5m23.376,24.6c2.943-.015,2.908-.015,2.9-2.94,0-.939-.281-1.238-1.237-1.223-4.736.076-9.474.082-14.211.116-2.95.021-2.906.023-2.9,2.96,0,1.04.392,1.272,1.346,1.252,2.614-.055,13.035-.159,14.1-.164" transform="translate(0 -61.713)" fill="#6a4d23"/>
        <path id="Trazado_875029" data-name="Trazado 875029" d="M196.585,100.531a2.74,2.74,0,0,0,.148-1.421c0-3.867-.026-7.734-.031-11.6a11.434,11.434,0,0,1,.824-4.665c.951-2.177,2.732-3.24,4.743-2.838a4.408,4.408,0,0,1,3.7,4.5q.31,10.686.635,21.371a8.573,8.573,0,0,1-2.673,6.64c-2.964,2.931-5.9,5.89-8.845,8.842a2.533,2.533,0,0,0-.635.778c-.41,1.08,0,1.619,1.2,1.657a2.788,2.788,0,0,1,3.009,3.071c.009.948.018,1.9-.031,2.843a2.726,2.726,0,0,1-2.9,2.848q-8.643-.039-17.286-.175a2.643,2.643,0,0,1-2.7-2.768c-.028-1.023-.018-2.048.016-3.071a2.63,2.63,0,0,1,2.836-2.85c1,.011,1.189-.342,1.171-1.241-.053-2.615.007-5.232-.028-7.847a8.991,8.991,0,0,1,3.638-7.792,51.285,51.285,0,0,0,6.832-6.327,4.077,4.077,0,0,1,5.819-.31c.162.137.263.379.563.356m7.085-15.87a2.143,2.143,0,0,0-1.783-2.388c-.989-.182-1.8.367-2.308,1.6A9.652,9.652,0,0,0,199,87.661c.009,3.866,0,7.731.054,11.6a8.7,8.7,0,0,1-2.085,5.851c-1.716,2.085-3.721,3.882-5.621,5.784a1.116,1.116,0,0,1-1.71.132c-.625-.6-.435-1.225.119-1.785.266-.269.543-.528.81-.8,1.306-1.319,2.648-2.6,3.9-3.972a1.738,1.738,0,0,0-.031-2.628,1.832,1.832,0,0,0-2.636.291,63.753,63.753,0,0,1-7.426,6.856,5.95,5.95,0,0,0-2.313,4.83c-.023,2.994,0,5.988-.031,8.981-.007.671.182.934.9.93q4.149-.027,8.3.05c.7.013,1.011-.193.882-.893a3.339,3.339,0,0,1,1.328-3.157c2.99-2.9,5.9-5.888,8.863-8.817a6.728,6.728,0,0,0,2.006-5.23c-.072-3.369-.616-17.385-.632-21.022m-13.417,45.528c1.061.008,2.122.026,3.183.046,2.913.057,2.872.057,2.946-2.8.027-1.039-.273-1.377-1.335-1.372-4.661.022-9.322-.033-13.983-.069-3.086-.024-3.059-.03-3.058,3.015,0,.841.259,1.129,1.106,1.116,2.69-.041,10.118.06,11.141.067" transform="translate(-135.734 -61.735)" fill="#6a4d23"/>
        <path id="Trazado_875030" data-name="Trazado 875030" d="M118.321,33.543l-.067-.024c-3.367-2.52-4.792-5.841-3.71-9.943A8.911,8.911,0,0,1,127.108,17.9c.266.127.551.216.828.322l-.04-.038c1.837,1.5,3.43,3.168,3.971,5.6a8.6,8.6,0,0,1-3.163,9.2,8.593,8.593,0,0,1-9.579.98c-.273-.128-.535-.278-.8-.418m-1.8-7.552a6.659,6.659,0,1,0,13.318-.062,6.659,6.659,0,1,0-13.318.062" transform="translate(-88.204 -13.122)" fill="#6a4d23"/>
        <path id="Trazado_875031" data-name="Trazado 875031" d="M114.694,5.1c-.05-.177-.177-.373-.138-.528.39-1.562-.85-1.676-1.78-1.9C108.4,1.6,104.612,2.7,101.756,6.2c-2.83,3.473-3.085,7.363-1.243,11.413.078.172.191.33.257.506.237.628.225,1.216-.439,1.572-.715.383-1.231.077-1.6-.572a12.276,12.276,0,0,1-1.193-9.664,12.787,12.787,0,0,1,17.815-8.271,1.1,1.1,0,0,0,1.228-.009,1.084,1.084,0,0,1,1.726.633.427.427,0,0,1,.035.108c.112,1,1.2,2.16.208,2.963-1.09.884-2.57.589-3.9.178l.039.037" transform="translate(-74.962 0)" fill="#6a4d23"/>
        <path id="Trazado_875032" data-name="Trazado 875032" d="M110.979,286.163a1.117,1.117,0,0,1,1.208,1.22,1.069,1.069,0,0,1-1.137,1.138,1.18,1.18,0,1,1-.071-2.359" transform="translate(-84.825 -221.043)" fill="#6a4d23"/>
        <path id="Trazado_875033" data-name="Trazado 875033" d="M192.3,288.57a1.12,1.12,0,0,1-1.131-1.266,1.188,1.188,0,0,1,2.373.1,1.127,1.127,0,0,1-1.241,1.168" transform="translate(-147.662 -221.077)" fill="#6a4d23"/>
        <path id="Trazado_875034" data-name="Trazado 875034" d="M137.734,37.823a1.117,1.117,0,0,1,2.155-.476c.477,1.079,1.307,1.13,2.269.859.261-.074.5-.215.531-.521a.575.575,0,0,0-.44-.593c-.532-.184-1.08-.323-1.625-.468a3.08,3.08,0,0,1-2.632-2.486,2.808,2.808,0,0,1,1.767-3.109c.366-.177.406-.5.568-.783a1.08,1.08,0,0,1,2.031,0,1.841,1.841,0,0,0,.9.912,3.1,3.1,0,0,1,1.365,1.474,1.118,1.118,0,0,1-.377,1.59,1.058,1.058,0,0,1-1.563-.413,1.427,1.427,0,0,0-1.806-.763.743.743,0,0,0-.6.615c-.033.372.262.538.55.628.683.213,1.4.339,2.065.586a2.9,2.9,0,0,1,2.114,2.673,2.642,2.642,0,0,1-1.843,2.7,1.581,1.581,0,0,0-.816.845,1.039,1.039,0,0,1-1.9.1,2.778,2.778,0,0,0-1.263-1.185,2.94,2.94,0,0,1-1.451-2.186" transform="translate(-106.391 -22.814)" fill="#6a4d23"/>
      </g>
    </g>
  </g>
</svg>
